<svg width="359" height="62" viewBox="0 0 359 62" fill="none" xmlns="http://www.w3.org/2000/svg">
<path d="M15.5895 15.999H13.2894C13.0338 15.999 12.8123 15.9309 12.659 15.8118C12.4886 15.6756 12.3693 15.5224 12.3012 15.3352L11.1085 12.0673H4.48091L3.28827 15.3352C3.23716 15.5054 3.11789 15.6586 2.94752 15.7947C2.77714 15.9309 2.55565 15.999 2.31712 15.999H4.15958e-06L6.28689 -2.07766e-06H9.33664L15.5895 15.999ZM5.21352 9.95681H10.3248L8.36549 4.62949C8.2803 4.39121 8.17807 4.11888 8.07585 3.7955C7.97362 3.47212 7.8714 3.13172 7.75214 2.75727C7.64991 3.13172 7.54768 3.48914 7.44545 3.81253C7.34323 4.13591 7.24101 4.42525 7.15582 4.66354L5.21352 9.95681Z" transform="translate(79.5312 21.207)" fill="#3C4A63"/>
<path d="M8.34846 10.11C8.45068 10.3653 8.5529 10.6206 8.67217 10.8759C8.77439 10.6036 8.87662 10.3483 8.99589 10.093C9.11515 9.83767 9.21737 9.58237 9.35367 9.34408L14.0901 0.476566C14.1413 0.357424 14.2094 0.272327 14.2776 0.204247C14.3457 0.136166 14.4139 0.0850968 14.482 0.0680766C14.5672 0.0340362 14.6524 0.0170181 14.7376 0.0170181C14.8398 0.0170181 14.942 2.07766e-06 15.0783 2.07766e-06H17.3273V15.999H14.7035V5.66773C14.7035 5.4805 14.7035 5.25924 14.7205 5.03798C14.7376 4.81671 14.7546 4.57844 14.7716 4.34015L9.93296 13.4119C9.81369 13.6162 9.67739 13.7864 9.50702 13.8885C9.33664 13.9906 9.11514 14.0587 8.89365 14.0587H8.48476C8.24623 14.0587 8.04177 14.0076 7.87139 13.8885C7.70102 13.7693 7.54768 13.6162 7.44545 13.4119L2.53861 4.30611C2.57268 4.54439 2.58973 4.78268 2.60676 5.02096C2.6238 5.25924 2.6238 5.46348 2.6238 5.66773V15.999H4.15958e-06V2.07766e-06H2.24897C2.38527 2.07766e-06 2.50453 -2.07842e-06 2.58972 0.0170181C2.69195 0.0170181 2.77713 0.0510564 2.84528 0.0680766C2.93047 0.102117 2.99863 0.153186 3.06678 0.204247C3.13493 0.272327 3.20308 0.357424 3.25419 0.476566L8.04177 9.36111C8.12696 9.59939 8.22919 9.85469 8.34846 10.11Z" transform="translate(97.25 21.1899)" fill="#3C4A63"/>
<path d="M2.98159 10.3653V15.999H2.07979e-06V-2.07766e-06H5.21352C6.28689 -2.07766e-06 7.20693 0.119141 7.99066 0.374444C8.77439 0.629747 9.42183 0.970153 9.93295 1.4297C10.4441 1.87222 10.8189 2.41687 11.0574 3.04662C11.296 3.67636 11.4152 4.35717 11.4152 5.10606C11.4152 5.87197 11.2789 6.58681 11.0234 7.23358C10.7678 7.88035 10.3759 8.44201 9.8648 8.90156C9.35367 9.3611 8.70625 9.73555 7.92251 9.99086C7.13878 10.2462 6.23579 10.3823 5.19649 10.3823H2.98159V10.3653ZM2.98159 8.03353H5.21352C5.75873 8.03353 6.23579 7.96545 6.64469 7.82929C7.05359 7.69313 7.39434 7.48889 7.6499 7.25061C7.92251 6.99531 8.10992 6.68894 8.24622 6.3145C8.38252 5.94005 8.45068 5.54859 8.45068 5.08904C8.45068 4.66354 8.38252 4.27207 8.24622 3.93167C8.10992 3.59127 7.90547 3.2849 7.6499 3.04662C7.3773 2.80833 7.05359 2.62111 6.64469 2.48495C6.23579 2.34879 5.75873 2.29772 5.21352 2.29772H2.98159V8.03353Z" transform="translate(118.343 21.207)" fill="#3C4A63"/>
<path d="M0 -2.07766e-06H5.74169V2.28071H0V-2.07766e-06Z" transform="translate(132.024 29.377)" fill="#3C4A63"/>
<path d="M15.5895 15.999H13.2894C13.0338 15.999 12.8123 15.9309 12.659 15.8118C12.4886 15.6756 12.3693 15.5224 12.3012 15.3352L11.1085 12.0673H4.4809L3.28827 15.3352C3.23715 15.5054 3.11789 15.6586 2.94751 15.7947C2.77714 15.9309 2.55564 15.999 2.31712 15.999H0L6.2869 -2.07766e-06H9.33664L15.5895 15.999ZM5.23056 9.95681H10.3419L8.39956 4.62949C8.31438 4.39121 8.21215 4.11888 8.10992 3.7955C8.0077 3.47212 7.90548 3.13172 7.78621 2.75727C7.68399 3.13172 7.58176 3.48914 7.47954 3.81253C7.37731 4.13591 7.27508 4.42525 7.18989 4.66354L5.23056 9.95681Z" transform="translate(138.669 21.207)" fill="#3C4A63"/>
<path d="M14.2094 7.99949C14.2094 9.17388 14.022 10.2462 13.6301 11.2333C13.2383 12.2205 12.693 13.0545 11.9775 13.7693C11.2619 14.4842 10.41 15.0288 9.42182 15.4203C8.4166 15.8118 7.3262 15.999 6.11653 15.999H4.15958e-06V-2.07766e-06H6.11653C7.3262 -2.07766e-06 8.43363 0.20424 9.42182 0.595705C10.41 0.987169 11.2789 1.53182 11.9775 2.24667C12.693 2.94449 13.2383 3.79551 13.6301 4.78268C14.005 5.75283 14.2094 6.8251 14.2094 7.99949ZM11.1597 7.99949C11.1597 7.11444 11.0404 6.33152 10.8019 5.63369C10.5634 4.93586 10.2226 4.34015 9.79666 3.86358C9.35368 3.38702 8.8255 3.01258 8.21215 2.75727C7.58175 2.50197 6.88321 2.36581 6.09947 2.36581H2.98159V13.6332H6.09947C6.88321 13.6332 7.58175 13.497 8.21215 13.2417C8.84254 12.9864 9.37072 12.612 9.79666 12.1354C10.2396 11.6588 10.5634 11.0631 10.8019 10.3653C11.0404 9.65045 11.1597 8.86752 11.1597 7.99949Z" transform="translate(156.371 21.207)" fill="#3C4A63"/>
<path d="M2.99864 6.72298H3.69718C3.96978 6.72298 4.2083 6.68894 4.39572 6.60384C4.58313 6.51874 4.73648 6.39959 4.87278 6.22939L9.28552 0.646768C9.47293 0.408485 9.66035 0.238279 9.8648 0.153178C10.0693 0.0680766 10.3248 0.0170181 10.6315 0.0170181H13.2042L7.80325 6.67192C7.63287 6.87616 7.46249 7.04636 7.30915 7.19954C7.15581 7.33571 6.98543 7.45485 6.81506 7.53995C7.05358 7.62505 7.27508 7.76121 7.47953 7.91439C7.66694 8.0846 7.8714 8.28883 8.04178 8.52712L13.5961 16.016H10.9552C10.5974 16.016 10.3419 15.965 10.1715 15.8628C10.0011 15.7607 9.84778 15.6245 9.72851 15.4203L5.19648 9.51429C5.04314 9.32706 4.88982 9.19091 4.7024 9.10581C4.51499 9.02071 4.25941 8.98666 3.91865 8.98666H2.98158V16.016H-8.31917e-06V2.07766e-06H2.98158V6.72298H2.99864Z" transform="translate(178.146 21.1899)" fill="#3C4A63"/>
<path d="M-8.31917e-06 11.5227V0.170198H1.66969C2.02748 0.170198 2.24897 0.340404 2.36823 0.663788L2.55564 1.56586C2.77713 1.32757 3.0327 1.12333 3.28827 0.919091C3.54383 0.731869 3.81643 0.561662 4.08903 0.425501C4.37867 0.289339 4.68535 0.170204 5.00907 0.102123C5.33278 0.0340425 5.69059 -4.15532e-06 6.06542 -4.15532e-06C6.67877 -4.15532e-06 7.24101 0.102121 7.71806 0.323384C8.19511 0.544646 8.60401 0.833992 8.92773 1.20844C9.25144 1.58288 9.48998 2.04243 9.66036 2.57005C9.83073 3.09768 9.91592 3.67637 9.91592 4.30611V11.5227H7.17286V4.30611C7.17286 3.60829 7.01952 3.08066 6.6958 2.6892C6.37208 2.31475 5.89503 2.12752 5.2476 2.12752C4.77054 2.12752 4.32756 2.22965 3.91865 2.45091C3.50975 2.67217 3.1179 2.96151 2.74307 3.31893V11.5227H-8.31917e-06Z" transform="translate(193.82 25.6836)" fill="#3C4A63"/>
<path d="M5.63946 0C6.49134 0 7.25805 0.136166 7.9566 0.408489C8.65514 0.680812 9.2344 1.07227 9.7285 1.56586C10.2226 2.05945 10.5974 2.67217 10.853 3.40404C11.1256 4.11889 11.2449 4.93586 11.2449 5.82091C11.2449 6.72298 11.1086 7.53995 10.853 8.2548C10.5804 8.96964 10.2055 9.5994 9.7285 10.11C9.2344 10.6206 8.65514 11.0121 7.9566 11.2844C7.25805 11.5567 6.49134 11.6929 5.63946 11.6929C4.78757 11.6929 4.02088 11.5567 3.32234 11.2844C2.6238 11.0121 2.02747 10.6206 1.55042 10.11C1.05633 9.5994 0.681506 8.98666 0.408904 8.2548C0.136301 7.53995 -4.15958e-06 6.72298 -4.15958e-06 5.82091C-4.15958e-06 4.93586 0.136301 4.11889 0.408904 3.40404C0.681506 2.68919 1.05633 2.07647 1.55042 1.56586C2.04451 1.07227 2.64083 0.680812 3.32234 0.408489C4.02088 0.136166 4.78757 0 5.63946 0ZM5.63946 9.5994C6.57653 9.5994 7.29212 9.27601 7.7351 8.64626C8.19511 8.01651 8.4166 7.08041 8.4166 5.85495C8.4166 4.6295 8.19511 3.69338 7.7351 3.06364C7.27508 2.43389 6.57653 2.09348 5.63946 2.09348C4.68535 2.09348 3.96977 2.41687 3.50975 3.06364C3.04973 3.7104 2.82824 4.64652 2.82824 5.85495C2.82824 7.08041 3.04973 7.9995 3.50975 8.62924C3.96977 9.27601 4.66831 9.5994 5.63946 9.5994Z" transform="translate(206.07 25.6665)" fill="#3C4A63"/>
<path d="M-4.15958e-06 0.0340362H2.16379C2.36824 0.0340362 2.53862 0.0851052 2.69195 0.170206C2.82826 0.272327 2.91344 0.391465 2.96455 0.527626L4.60016 6.58681C4.68535 6.92722 4.75351 7.2506 4.82166 7.55697C4.87277 7.88035 4.92389 8.18672 4.975 8.5101C5.06019 8.18672 5.14538 7.88035 5.23057 7.55697C5.31576 7.23358 5.41798 6.9102 5.5202 6.58681L7.39434 0.493584C7.44546 0.340402 7.53064 0.221265 7.66694 0.136164C7.80324 0.0340425 7.9566 4.15532e-06 8.12697 4.15532e-06H9.33664C9.54109 4.15532e-06 9.69444 0.0510627 9.83074 0.136164C9.96704 0.238285 10.0522 0.357422 10.1033 0.493584L11.9604 6.68894C12.0627 7.01232 12.1479 7.31868 12.216 7.60802C12.3012 7.91439 12.3693 8.20374 12.4375 8.5101C12.4886 8.18672 12.5397 7.88035 12.6079 7.55697C12.676 7.23358 12.7442 6.9102 12.8464 6.5698L14.5331 0.51061C14.5672 0.357428 14.6524 0.238281 14.8057 0.15318C14.942 0.0510585 15.1124 0.0170202 15.2998 0.0170202H17.3784L13.7835 11.3695H11.5856C11.3471 11.3695 11.1767 11.1993 11.0745 10.8759L9.02996 4.32313C8.9618 4.10187 8.9107 3.89763 8.84255 3.67636C8.79143 3.4551 8.74031 3.25086 8.70624 3.0296C8.65512 3.25086 8.62106 3.47212 8.56995 3.69338C8.51883 3.91464 8.45068 4.13591 8.39957 4.35717L6.32096 10.8929C6.21874 11.2163 6.01429 11.3865 5.72465 11.3865H3.62903L-4.15958e-06 0.0340362Z" transform="translate(218.508 25.8198)" fill="#3C4A63"/>
<path d="M2.74305 2.07766e-06V16.4415H-4.15958e-06V2.07766e-06H2.74305Z" transform="translate(238.016 20.7646)" fill="#3C4A63"/>
<path d="M5.45205 0C6.16763 0 6.8321 0.119141 7.42842 0.340404C8.02473 0.561667 8.5529 0.902075 8.97884 1.3446C9.42182 1.78712 9.74553 2.31475 10.0011 2.96152C10.2396 3.59127 10.3589 4.32313 10.3589 5.1401C10.3589 5.34434 10.3419 5.51455 10.3248 5.65071C10.3078 5.78687 10.2737 5.88898 10.2226 5.97409C10.1715 6.05919 10.1033 6.11025 10.0352 6.14429C9.95 6.17833 9.84776 6.19536 9.7285 6.19536H2.72603C2.81121 7.35273 3.11789 8.22076 3.6631 8.7654C4.2083 9.31005 4.94091 9.58237 5.82687 9.58237C6.26985 9.58237 6.64469 9.53131 6.96841 9.42919C7.29212 9.32707 7.56473 9.20793 7.80326 9.08879C8.04178 8.96965 8.24623 8.85051 8.43364 8.74839C8.62106 8.64627 8.79143 8.5952 8.96181 8.5952C9.06403 8.5952 9.16627 8.61222 9.25146 8.66329C9.33665 8.71435 9.40479 8.7654 9.4559 8.8505L10.2567 9.8547C9.94999 10.2121 9.60923 10.5015 9.2344 10.7397C8.85958 10.978 8.46773 11.1652 8.05882 11.3184C7.64992 11.4546 7.22397 11.5567 6.81506 11.6248C6.38912 11.6759 5.98023 11.7099 5.58836 11.7099C4.80463 11.7099 4.072 11.5737 3.3905 11.3184C2.70899 11.0631 2.11267 10.6717 1.61858 10.1611C1.12449 9.65045 0.715582 9.02071 0.425941 8.2548C0.136301 7.50591 0 6.62085 0 5.63368C0 4.85075 0.119255 4.13591 0.37482 3.4551C0.630385 2.77429 0.988184 2.17858 1.4482 1.66798C1.92526 1.15737 2.48749 0.765911 3.169 0.459547C3.85051 0.153184 4.60017 0 5.45205 0ZM5.50317 1.95732C4.7024 1.95732 4.08905 2.17859 3.62903 2.63813C3.18605 3.08066 2.89639 3.72743 2.76009 4.54439H7.90548C7.90548 4.18697 7.85436 3.86358 7.76917 3.5402C7.66694 3.23384 7.53065 2.94449 7.32619 2.72323C7.12174 2.48495 6.88321 2.29773 6.57653 2.16157C6.26985 2.02541 5.91208 1.95732 5.50317 1.95732Z" transform="translate(243.536 25.6665)" fill="#3C4A63"/>
<path d="M8.79143 16.4415C8.43364 16.4415 8.21216 16.2713 8.09289 15.9479L7.87139 14.8586C7.63287 15.131 7.39434 15.3692 7.12173 15.5735C6.86617 15.7947 6.57654 15.965 6.2869 16.1181C5.99726 16.2713 5.67354 16.3905 5.31575 16.4756C4.97499 16.5607 4.60016 16.5947 4.2083 16.5947C3.59494 16.5947 3.01566 16.4585 2.50453 16.2032C1.9934 15.9479 1.55044 15.5735 1.17561 15.0799C0.800778 14.5863 0.511122 13.9906 0.30667 13.2587C0.102218 12.5439 4.15958e-06 11.7099 4.15958e-06 10.7738C4.15958e-06 9.9398 0.119268 9.15687 0.340757 8.425C0.562247 7.71015 0.902988 7.0804 1.32893 6.55278C1.75487 6.02515 2.266 5.59965 2.86232 5.31031C3.45864 5.02096 4.14015 4.86777 4.87277 4.86777C5.50316 4.86777 6.04836 4.96989 6.50838 5.17414C6.95136 5.37838 7.36026 5.65071 7.71805 5.99111V2.07766e-06H10.4611V16.4415H8.79143ZM5.14537 14.4331C5.70761 14.4331 6.2017 14.314 6.59357 14.0757C6.98544 13.8374 7.36026 13.497 7.71805 13.0715V7.98247C7.41137 7.60802 7.07064 7.33571 6.71285 7.18253C6.35506 7.02935 5.94615 6.94424 5.53724 6.94424C5.12834 6.94424 4.75352 7.02935 4.41276 7.18253C4.07201 7.33571 3.79941 7.57399 3.56088 7.88035C3.32235 8.18672 3.15196 8.5952 3.01566 9.07177C2.8964 9.54833 2.82825 10.127 2.82825 10.7738C2.82825 11.4376 2.87937 11.9992 2.98159 12.4588C3.08382 12.9183 3.23715 13.2928 3.4416 13.5821C3.64606 13.8715 3.88459 14.0757 4.17423 14.2119C4.46387 14.3651 4.78758 14.4331 5.14537 14.4331Z" transform="translate(255.786 20.7646)" fill="#3C4A63"/>
<path d="M5.00908 4.15532e-06C5.50317 4.15532e-06 5.94615 0.0510585 6.38913 0.15318C6.81507 0.255301 7.20694 0.391469 7.56473 0.595711H10.836V1.61692C10.836 1.78713 10.7848 1.92328 10.6996 2.00839C10.6145 2.11051 10.4611 2.17859 10.2396 2.21263L9.21737 2.39985C9.28552 2.58707 9.35367 2.79131 9.38775 3.01257C9.42183 3.23383 9.4559 3.4551 9.4559 3.69338C9.4559 4.25505 9.33664 4.76566 9.11515 5.20818C8.89366 5.66773 8.58698 6.04217 8.17808 6.36555C7.78621 6.68894 7.30915 6.92722 6.76395 7.09742C6.21874 7.26762 5.63946 7.35272 4.99203 7.35272C4.56608 7.35272 4.14016 7.31869 3.74829 7.23359C3.3905 7.45485 3.22013 7.69313 3.22013 7.96546C3.22013 8.20374 3.32234 8.35692 3.54382 8.47606C3.74828 8.57818 4.03792 8.66328 4.37867 8.69732C4.71943 8.74838 5.1113 8.76541 5.55428 8.76541C5.99726 8.76541 6.44024 8.78242 6.90026 8.81646C7.36027 8.8505 7.80326 8.91858 8.24623 9.00368C8.68921 9.08878 9.06403 9.24197 9.42182 9.44621C9.77961 9.65046 10.0352 9.92278 10.2567 10.2632C10.4611 10.6036 10.5804 11.0461 10.5804 11.5908C10.5804 12.1014 10.4611 12.5779 10.2056 13.0545C9.95 13.5311 9.5922 13.9566 9.13218 14.314C8.65513 14.6884 8.09289 14.9778 7.41139 15.199C6.72988 15.4203 5.96317 15.5394 5.07721 15.5394C4.20829 15.5394 3.45864 15.4543 2.82825 15.2841C2.19786 15.1139 1.66968 14.8927 1.24374 14.6203C0.834837 14.348 0.511121 14.0246 0.30667 13.6672C0.102218 13.3098 4.15958e-06 12.9353 4.15958e-06 12.5439C4.15958e-06 12.0163 0.170385 11.5737 0.4941 11.1993C0.817816 10.8419 1.27782 10.5525 1.84006 10.3313C1.56746 10.1781 1.32893 9.97384 1.15855 9.71853C0.988176 9.46323 0.902988 9.12282 0.902988 8.71434C0.902988 8.54414 0.937063 8.37394 0.988176 8.18672C1.03929 7.99949 1.14153 7.82929 1.2608 7.64207C1.38006 7.45484 1.53339 7.30166 1.7208 7.13146C1.90822 6.97828 2.12972 6.8251 2.36824 6.70596C1.78896 6.39959 1.34598 5.99111 1.00523 5.46348C0.681515 4.95288 0.511134 4.34015 0.511134 3.64232C0.511134 3.08065 0.630398 2.57005 0.851887 2.12753C1.07338 1.66798 1.39709 1.29353 1.78896 0.970147C2.19786 0.646763 2.67492 0.408483 3.22013 0.238281C3.76533 0.0850989 4.36165 4.15532e-06 5.00908 4.15532e-06ZM8.0077 12.0333C8.0077 11.812 7.93954 11.6248 7.80324 11.4716C7.66694 11.3184 7.49657 11.2163 7.25804 11.1312C7.03655 11.0461 6.76396 10.995 6.45728 10.961C6.1506 10.927 5.82687 10.9099 5.48612 10.9099C5.14537 10.9099 4.78759 10.9099 4.4298 10.9099C4.072 10.9099 3.7142 10.8759 3.37345 10.7908C3.06677 10.961 2.81122 11.1652 2.62381 11.3865C2.43639 11.6248 2.33416 11.8801 2.33416 12.1865C2.33416 12.3907 2.38527 12.5779 2.4875 12.7481C2.58972 12.9183 2.74307 13.0715 2.96456 13.1907C3.18605 13.3098 3.45865 13.4119 3.81644 13.48C4.1572 13.5481 4.58314 13.5821 5.09427 13.5821C5.6054 13.5821 6.04837 13.5481 6.40616 13.463C6.78099 13.3779 7.08767 13.2758 7.3262 13.1396C7.56472 13.0034 7.7351 12.8332 7.85436 12.646C7.95659 12.4588 8.0077 12.2545 8.0077 12.0333ZM5.00908 5.59964C5.34983 5.59964 5.63946 5.54858 5.89503 5.46348C6.15059 5.37838 6.35504 5.24222 6.52541 5.08904C6.69579 4.91884 6.81507 4.73162 6.90026 4.51036C6.98544 4.28909 7.01951 4.03379 7.01951 3.76146C7.01951 3.1998 6.84913 2.75727 6.50838 2.43389C6.16763 2.11051 5.67353 1.9403 4.99203 1.9403C4.31052 1.9403 3.81644 2.11051 3.47569 2.43389C3.13494 2.75727 2.96456 3.1998 2.96456 3.76146C2.96456 4.03379 2.99863 4.27207 3.08382 4.51036C3.169 4.73162 3.28826 4.93586 3.45864 5.10606C3.62901 5.27627 3.83348 5.3954 4.08904 5.49753C4.37868 5.54859 4.68536 5.59964 5.00908 5.59964Z" transform="translate(268.564 25.6494)" fill="#3C4A63"/>
<path d="M5.46908 0C6.18466 0 6.84915 0.119141 7.44547 0.340404C8.04178 0.561667 8.56995 0.902075 8.99589 1.3446C9.43887 1.78712 9.76258 2.31475 10.0181 2.96152C10.2567 3.59127 10.3759 4.32313 10.3759 5.1401C10.3759 5.34434 10.3589 5.51455 10.3419 5.65071C10.3248 5.78687 10.2907 5.88898 10.2396 5.97409C10.1885 6.05919 10.1204 6.11025 10.0522 6.14429C9.96703 6.17833 9.86481 6.19536 9.74555 6.19536H2.72602C2.81121 7.35273 3.11789 8.22076 3.66309 8.7654C4.2083 9.31005 4.94093 9.58237 5.82689 9.58237C6.26987 9.58237 6.64469 9.53131 6.9684 9.42919C7.29212 9.32707 7.56472 9.20793 7.80325 9.08879C8.04178 8.96965 8.24622 8.85051 8.43364 8.74839C8.62105 8.64627 8.79142 8.5952 8.9618 8.5952C9.06403 8.5952 9.16626 8.61222 9.25145 8.66329C9.33664 8.71435 9.40478 8.7654 9.4559 8.8505L10.2567 9.8547C9.95 10.2121 9.60925 10.5015 9.23442 10.7397C8.85959 10.978 8.46772 11.1652 8.05882 11.3184C7.64991 11.4546 7.22396 11.5567 6.81506 11.6248C6.38912 11.6759 5.98022 11.7099 5.58836 11.7099C4.80462 11.7099 4.072 11.5737 3.39049 11.3184C2.70899 11.0631 2.11267 10.6717 1.61857 10.1611C1.12448 9.65045 0.715578 9.02071 0.425937 8.2548C0.136297 7.50591 -4.15958e-06 6.62085 -4.15958e-06 5.63368C-4.15958e-06 4.85075 0.119272 4.13591 0.374837 3.4551C0.630402 2.77429 0.98818 2.17858 1.4482 1.66798C1.92525 1.15737 2.48749 0.765911 3.169 0.459547C3.8505 0.153184 4.6172 0 5.46908 0ZM5.5202 1.95732C4.71943 1.95732 4.10608 2.17859 3.64606 2.63813C3.20308 3.08066 2.91344 3.72743 2.77714 4.54439H7.92251C7.92251 4.18697 7.87141 3.86358 7.78622 3.5402C7.68399 3.23384 7.54767 2.94449 7.34322 2.72323C7.13877 2.48495 6.90026 2.29773 6.59358 2.16157C6.2869 2.02541 5.92911 1.95732 5.5202 1.95732Z" transform="translate(280.78 25.6665)" fill="#3C4A63"/>
<path d="M2.98159 10.3653V15.999H4.15958e-06V-2.07766e-06H5.21352C6.2869 -2.07766e-06 7.20694 0.119141 7.99067 0.374444C8.7744 0.629747 9.42182 0.970153 9.93295 1.4297C10.4441 1.87222 10.8189 2.41687 11.0574 3.04662C11.296 3.67636 11.4152 4.35717 11.4152 5.10606C11.4152 5.87197 11.2789 6.58681 11.0234 7.23358C10.7678 7.88035 10.3759 8.44201 9.86481 8.90156C9.35368 9.3611 8.70625 9.73555 7.92252 9.99086C7.15582 10.2462 6.23579 10.3823 5.19649 10.3823H2.98159V10.3653ZM2.98159 8.03353H5.21352C5.75873 8.03353 6.23579 7.96545 6.64469 7.82929C7.0536 7.69313 7.39435 7.48889 7.64992 7.25061C7.92252 6.99531 8.10993 6.68894 8.24623 6.3145C8.38254 5.95707 8.45068 5.54859 8.45068 5.08904C8.45068 4.66354 8.38254 4.27207 8.24623 3.93167C8.10993 3.59127 7.90548 3.2849 7.64992 3.04662C7.37731 2.80833 7.0536 2.62111 6.64469 2.48495C6.23579 2.34879 5.75873 2.29772 5.21352 2.29772H2.98159V8.03353Z" transform="translate(298.806 21.207)" fill="#3C4A63"/>
<path d="M5.63947 0C6.49136 0 7.25805 0.136166 7.95659 0.408489C8.65514 0.680812 9.23442 1.07227 9.72851 1.56586C10.2226 2.05945 10.5974 2.67217 10.853 3.40404C11.1256 4.11889 11.2448 4.93586 11.2448 5.82091C11.2448 6.72298 11.1086 7.53995 10.853 8.2548C10.5804 8.96964 10.2056 9.5994 9.72851 10.11C9.23442 10.6206 8.65514 11.0121 7.95659 11.2844C7.25805 11.5567 6.49136 11.6929 5.63947 11.6929C4.78759 11.6929 4.02088 11.5567 3.32234 11.2844C2.62379 11.0121 2.02749 10.6206 1.55044 10.11C1.05634 9.5994 0.681502 8.98666 0.4089 8.2548C0.136297 7.53995 -8.31917e-06 6.72298 -8.31917e-06 5.82091C-8.31917e-06 4.93586 0.136297 4.11889 0.4089 3.40404C0.681502 2.68919 1.05634 2.07647 1.55044 1.56586C2.04453 1.07227 2.64083 0.680812 3.32234 0.408489C4.00384 0.136166 4.78759 0 5.63947 0ZM5.63947 9.5994C6.57654 9.5994 7.29211 9.27601 7.73509 8.64626C8.19511 8.01651 8.4166 7.08041 8.4166 5.85495C8.4166 4.6295 8.19511 3.69338 7.73509 3.06364C7.27508 2.43389 6.57654 2.09348 5.63947 2.09348C4.68536 2.09348 3.96978 2.41687 3.50977 3.06364C3.04975 3.7104 2.82826 4.64652 2.82826 5.85495C2.82826 7.08041 3.04975 7.9995 3.50977 8.62924C3.96978 9.25899 4.66833 9.5994 5.63947 9.5994Z" transform="translate(311.721 25.6665)" fill="#3C4A63"/>
<path d="M8.31917e-06 11.5737V0.221258H1.60153C1.87413 0.221258 2.07861 0.272323 2.18084 0.374444C2.28306 0.476566 2.36822 0.646763 2.40229 0.902066L2.57267 2.28071C2.98157 1.58288 3.45865 1.02122 4.00386 0.612731C4.54906 0.204247 5.16243 -2.07766e-06 5.84393 -2.07766e-06C6.40618 -2.07766e-06 6.86619 0.136157 7.24101 0.39146L6.88321 2.43388C6.86617 2.57005 6.81505 2.65515 6.7469 2.72323C6.67875 2.77429 6.57655 2.80833 6.44025 2.80833C6.32099 2.80833 6.18465 2.77429 5.9802 2.72323C5.79279 2.67217 5.53722 2.63813 5.21351 2.63813C4.65126 2.63813 4.1572 2.79131 3.74829 3.11469C3.33939 3.42106 2.99864 3.88061 2.72603 4.49333V11.5567H8.31917e-06V11.5737Z" transform="translate(325.538 25.6323)" fill="#3C4A63"/>
<path d="M4.75349 14.9948C3.76531 14.9948 3.01568 14.7225 2.48751 14.1608C1.95935 13.5991 1.68671 12.8332 1.68671 11.8461V5.51454H0.528184C0.374845 5.51454 0.255548 5.46348 0.153322 5.37838C0.0510963 5.27626 0 5.1401 0 4.95288V3.86359L1.82302 3.55722L2.40233 0.45955C2.4364 0.306368 2.50454 0.204247 2.60677 0.119146C2.709 0.0340446 2.84528 2.07766e-06 3.01566 2.07766e-06H4.42979V3.57424H7.41138V5.51454H4.42979V11.6588C4.42979 12.0163 4.515 12.2886 4.70241 12.4928C4.88982 12.6971 5.11131 12.7992 5.41798 12.7992C5.58836 12.7992 5.72466 12.7822 5.84393 12.7311C5.96319 12.68 6.06542 12.646 6.15061 12.612C6.2358 12.5609 6.30392 12.5269 6.37207 12.4928C6.44022 12.4588 6.5084 12.4247 6.57655 12.4247C6.66174 12.4247 6.72988 12.4418 6.781 12.4928C6.83211 12.5269 6.88322 12.5949 6.95137 12.6801L7.76919 14.0076C7.37732 14.348 6.91729 14.5863 6.38912 14.7565C5.84392 14.9097 5.31573 14.9948 4.75349 14.9948Z" transform="translate(334.006 22.3813)" fill="#3C4A63"/>
<path d="M9.45589 11.5567H8.22919C7.97362 11.5567 7.76916 11.5227 7.61582 11.4376C7.46248 11.3525 7.36025 11.1993 7.27506 10.961L7.03655 10.1611C6.74691 10.4164 6.47431 10.6376 6.18467 10.8419C5.91207 11.0291 5.62243 11.1993 5.33279 11.3355C5.04315 11.4716 4.71943 11.5737 4.39572 11.6418C4.05496 11.7099 3.69717 11.7439 3.28827 11.7439C2.81121 11.7439 2.36823 11.6759 1.95932 11.5567C1.55042 11.4206 1.20969 11.2333 0.92005 10.978C0.63041 10.7227 0.40892 10.3993 0.238544 10.0079C0.0681673 9.61641 -8.31917e-06 9.17388 -8.31917e-06 8.66328C-8.31917e-06 8.23777 0.119255 7.81227 0.340745 7.38676C0.562234 6.96126 0.93708 6.58681 1.46525 6.24641C1.99341 5.906 2.69197 5.63369 3.56089 5.41243C4.42981 5.19116 5.52022 5.07202 6.79804 5.07202V4.40823C6.79804 3.64232 6.6447 3.08065 6.32098 2.70621C5.99726 2.33177 5.53726 2.16156 4.9239 2.16156C4.48092 2.16156 4.10609 2.21263 3.81645 2.31475C3.52681 2.41687 3.27125 2.53601 3.04976 2.65515C2.82827 2.79131 2.62382 2.89343 2.45344 2.99555C2.26603 3.09768 2.06156 3.14874 1.84007 3.14874C1.65265 3.14874 1.49931 3.09767 1.363 3.01257C1.2267 2.91045 1.12449 2.79131 1.03931 2.65515L0.545188 1.78712C1.85709 0.595711 3.42456 4.15532e-06 5.28167 4.15532e-06C5.94614 4.15532e-06 6.54248 0.102119 7.05361 0.323382C7.58178 0.544644 8.00768 0.851006 8.38251 1.22545C8.7403 1.61691 9.01291 2.07646 9.20033 2.62111C9.38774 3.16575 9.48996 3.74445 9.48996 4.39121V11.5567H9.45589ZM4.14015 9.85469C4.41275 9.85469 4.68537 9.83768 4.9239 9.78662C5.16243 9.73556 5.3839 9.66747 5.58835 9.56535C5.7928 9.46323 5.99727 9.34409 6.20173 9.19091C6.38914 9.03773 6.59359 8.86752 6.79804 8.66328V6.75701C5.99727 6.75701 5.33277 6.80808 4.8046 6.9102C4.27644 7.01232 3.83348 7.13146 3.50977 7.30166C3.18605 7.45484 2.94751 7.64207 2.81121 7.84631C2.6749 8.05055 2.60676 8.28884 2.60676 8.52712C2.60676 9.00368 2.74306 9.3611 3.0327 9.56535C3.30531 9.73555 3.68013 9.85469 4.14015 9.85469Z" transform="translate(343.496 25.6494)" fill="#3C4A63"/>
<path d="M2.74305 2.07766e-06V16.4415H1.66383e-05V2.07766e-06H2.74305Z" transform="translate(356.257 20.7646)" fill="#3C4A63"/>
<path d="M12.2671 31.181L17.1569 34.6361L31.8264 36.4402L35.0124 39.9634H43.1734L51.2493 33.9383L56.0198 28.1003C56.0198 28.1003 57.008 27.8961 56.6843 21.3944C56.2924 14.8076 49.6818 8.93561 49.6818 8.93561L42.526 1.17439L29.39 2.07766e-06L18.9799 1.17439L7.00248 8.93561L-1.0399e-06 19.5902V26.8749L5.21352 31.8958L13.136 29.0024L12.2671 31.181Z" transform="translate(3.11719 2.73584)" fill="#CA4382"/>
<path d="M19.7466 1.20844C16.7139 3.31894 13.2894 4.18697 9.94999 3.79551C9.71146 4.49334 9.25145 5.44646 8.31438 6.53576C6.52542 8.73136 3.73125 10.6887 0 12.3396C2.02748 14.7735 5.28168 15.9479 8.55291 15.0118C9.64332 14.7055 10.6485 14.1438 11.4323 13.446C11.8241 13.3609 12.2842 13.2928 12.676 13.1396C18.4347 11.4206 22.1319 5.80388 21.4334 -4.15532e-06C21.0415 0.442521 20.377 0.816972 19.7466 1.20844Z" transform="translate(38.0615 30.3765)" fill="#E567A1"/>
<path d="M59.9039 19.7559C59.8187 19.058 59.6653 18.2751 59.4438 17.5603C59.4438 17.4752 59.3586 17.4071 59.3586 17.322C58.2001 13.3222 55.5422 10.1054 52.1347 8.23319C48.642 2.5144 41.7928 -0.464137 34.9607 1.18682C34.7222 1.27192 34.5007 1.34001 34.177 1.42511C34.177 1.42511 34.177 1.42511 34.0918 1.42511C31.0591 -0.0556479 27.4812 -0.447108 23.9885 0.557083C21.3476 1.34001 19.1668 2.83778 17.463 4.71001C16.0659 4.6249 14.5837 4.7951 13.1866 5.18657C8.84198 6.44606 5.72409 10.1224 4.8722 14.3605C1.2943 17.4241 -0.801335 22.5131 0.289076 27.3639C1.77135 33.9507 7.9901 38.8866 17.0712 35.04C17.0712 35.1251 17.0712 35.1251 17.1564 35.1932C17.463 31.4317 19.7972 29.2361 21.1261 28.2149C18.792 24.93 13.2718 18.5815 9.23385 20.4537C6.59301 21.7132 6.20114 24.1301 6.98488 25.9342C7.83676 27.8064 9.93239 29.151 12.9651 27.8915C13.5103 27.6532 14.2088 27.8915 14.4474 28.5213C14.6859 29.0659 14.4474 29.7808 13.834 30.002C9.48941 31.8062 6.13299 29.6106 4.97443 26.7852C3.73068 23.9599 4.51441 20.1303 8.31381 18.3262C9.09754 17.9347 10.0176 17.6964 11.1932 17.7815C11.1932 15.4327 11.9769 13.4754 13.4421 11.9776C15.7763 9.62885 19.2009 9.15228 20.8195 9.0842C21.978 5.6291 25.2492 3.67177 29.5257 3.99516C31.7747 4.14834 33.717 5.25465 35.1141 6.27587C35.8126 6.82051 36.443 7.36516 36.8178 7.75663C39.3053 6.19077 42.798 5.25466 45.7626 6.34395C47.7901 7.04178 50.2776 8.84592 51.1295 13.6286C52.2199 14.1732 54.4007 15.5008 55.014 17.9347C55.4741 19.6537 55.0992 21.6111 53.9236 23.1769C52.9184 24.5896 50.7376 26.3086 46.4611 26.4618C46.3759 26.4618 46.3759 26.4618 46.3078 26.4618C46.2226 26.4618 38.4534 25.6789 35.6593 31.2445C35.5059 31.5509 35.3526 31.8742 35.1992 32.1125C34.194 33.7635 33.1036 34.6996 31.8599 35.0911C31.6213 35.1762 31.3998 35.1762 31.1613 35.2442C28.759 35.4825 27.1234 33.4401 27.0382 33.372C26.6463 32.8955 26.7315 32.1976 27.1915 31.8062C27.6516 31.4147 28.3501 31.4998 28.742 31.9593C28.742 31.9593 29.7472 33.1337 30.9228 33.0486C31.8599 32.9635 32.7799 31.9593 33.717 30.2233C34.1088 29.4404 34.654 28.7425 35.1992 28.0277C36.7497 26.3086 38.9305 25.1342 41.5713 24.5726C43.9736 24.0279 46.0863 24.1811 46.5463 24.2662C49.8857 24.113 51.4361 22.9386 52.2199 21.9174C52.9184 20.8962 53.2251 19.7218 52.9184 18.6325C52.3732 16.5901 49.8176 15.654 49.8176 15.5689C49.4257 15.4157 49.119 15.0923 49.119 14.6328C48.659 11.3479 47.3301 9.30546 45.1492 8.52253C42.4232 7.58642 38.8453 8.91399 36.903 10.7181C34.654 12.9137 35.3526 15.7391 35.7444 16.7433C39.7824 15.7221 42.8151 17.7645 42.9003 17.9177C43.4455 18.3092 43.5136 19.007 43.2069 19.4835C42.8151 20.0282 42.1165 20.1133 41.6565 19.7899C41.5713 19.7048 39.169 18.1389 35.983 19.0921C35.6763 19.1772 35.4378 19.2453 35.1992 19.3304C32.7969 20.2665 32.0984 21.7642 32.0984 21.9174C32.0132 22.2238 31.7917 22.4621 31.485 22.6153C31.1784 22.7684 30.8717 22.7004 30.548 22.6153C30.3946 22.5302 28.2138 21.6791 25.7263 23.6365C23.1536 25.5938 23.784 28.266 23.8692 28.334C24.0225 28.8787 23.784 29.4233 23.324 29.6616C23.1707 29.7467 19.8313 31.5338 19.5927 35.6868C19.5076 37.4909 20.3765 39.4482 22.1654 40.6226C24.1929 41.6438 26.5952 41.8821 28.9294 41.2524C29.7813 41.0141 30.565 40.6226 31.2635 40.1631C32.5073 40.7928 33.9044 41.0992 35.3015 40.946C37.0052 40.946 39.4246 39.7716 40.0379 39.4653C42.5254 38.0526 43.9225 36.6399 44.7744 35.6187C46.1715 34.0528 46.3248 32.8784 46.3248 32.7253C46.3248 32.4189 46.4782 32.0955 46.7167 31.8572C46.9552 31.6189 47.3301 31.6189 47.6538 31.6189C50.7546 32.3168 53.8725 31.6189 56.6667 29.6616C57.9956 28.7255 59.0009 27.5511 59.4609 25.9853C59.6994 25.2874 59.6653 25.4236 59.8357 24.7598C60.0742 24.113 60.1594 22.4791 60.1594 21.7472C60.1424 21.2026 60.0231 20.726 59.9039 19.7559Z" fill="#E567A1"/>
<path d="M15.9389 0.0246444C12.4462 -0.213638 9.95866 1.28413 9.32826 4.17757C9.17492 4.72221 8.7149 5.11368 8.1697 5.0456C8.08451 5.0456 3.89325 4.9605 1.55909 7.3263C0.468678 8.4156 -0.0765279 9.91338 0.00866041 11.7856C0.00866041 11.8707 0.00866041 11.9388 0.00866041 12.0239C1.55909 12.5685 3.34804 13.6748 5.29033 15.6322C6.4489 16.7215 7.47115 17.981 8.23785 18.9171C8.62971 17.8278 9.32826 16.5683 10.7253 15.462C13.2128 13.5046 15.547 13.5897 16.8589 13.8961C17.4041 13.1132 18.3412 12.092 20.045 11.2239C19.2612 9.26661 18.8864 5.65833 21.5954 2.91808C20.6072 1.98197 18.4264 0.194846 15.9389 0.0246444Z" transform="translate(13.3486 6.31934)" fill="#E567A1"/>
<path d="M0.269599 1.5698C1.70076 2.9995 3.11489 4.42919 4.54605 5.87591C5.3809 6.7099 6.67576 5.41636 5.84091 4.58237C4.40975 3.15267 2.99563 1.72298 1.56446 0.276259C0.729617 -0.574751 -0.565247 0.735811 0.269599 1.5698Z" transform="translate(56.8916 42.8994)" fill="#2F8E94"/>
<path d="M16.2028 11.4035L11.3471 16.2883L0 4.8848L2.38527 2.48495L4.85573 2.07766e-06L16.2028 11.4035Z" transform="translate(59.6992 45.7119)" fill="#FCCB71"/>
<path opacity="0.85" d="M24.2105 12.1184C24.2105 15.3522 22.9497 18.3818 20.6667 20.6795C19.7637 21.5816 18.7414 22.3305 17.5999 22.9092C15.8791 23.7772 14.039 24.2197 12.0967 24.2197C7.53065 24.2197 3.3905 21.6837 1.3119 17.6159C0.868923 16.7649 0.545204 15.8628 0.323714 14.9437C0.102225 14.0246 0 13.0715 0 12.1014C0 10.978 0.153341 9.87171 0.460019 8.79944C0.920036 7.14848 1.7208 5.65071 2.82825 4.32313C5.14537 1.56586 8.51883 -4.15532e-06 12.1138 -4.15532e-06C14.0561 -4.15532e-06 15.8961 0.442529 17.6169 1.32758C21.263 3.1998 23.7164 6.72298 24.1594 10.7908C24.1764 11.2333 24.2105 11.6759 24.2105 12.1184Z" transform="translate(35.4209 23.9087)" fill="white"/>
<path d="M24.7728 12.4418C24.7728 19.3179 19.2185 24.8835 12.3864 24.8835C5.53724 24.8835 -2.07979e-06 19.3179 -2.07979e-06 12.4418C-2.07979e-06 5.56561 5.55428 -2.07766e-06 12.3864 -2.07766e-06C19.2355 -2.07766e-06 24.7728 5.56561 24.7728 12.4418Z" transform="translate(34.9609 23.4321)" stroke="#7EC8CC" stroke-width="2" stroke-miterlimit="10"/>
</svg>
