<svg width="274" height="45" viewBox="0 0 274 45" fill="none" xmlns="http://www.w3.org/2000/svg">
<path d="M7.83639 16.8245L10.1628 18.4672L17.1422 19.325L18.658 21H22.5409L26.3832 18.1354L28.6529 15.3599C28.6529 15.3599 29.123 15.2628 28.969 12.1716C28.7826 9.04004 25.6374 6.2483 25.6374 6.2483L22.2328 2.55835L15.983 2L11.0302 2.55835L5.33161 6.2483L2 11.3139V14.7773L4.48047 17.1644L8.24981 15.7888L7.83639 16.8245Z" fill="#CA4382"/>
<path d="M28.1769 15.5517C26.7675 16.5152 25.176 16.9115 23.6241 16.7327C23.5132 17.0513 23.2994 17.4865 22.8639 17.9837C22.0326 18.9861 20.734 19.8797 19 20.6334C19.9422 21.7445 21.4546 22.2806 22.9748 21.8533C23.4815 21.7134 23.9487 21.457 24.3129 21.1384C24.495 21.0996 24.7088 21.0685 24.8909 20.9986C27.5672 20.2138 29.2854 17.6496 28.9607 15C28.7786 15.202 28.4698 15.373 28.1769 15.5517Z" fill="#E567A1"/>
<path d="M28.8768 9.49819C28.8357 9.16269 28.7618 8.78628 28.6551 8.44259C28.6551 8.40168 28.614 8.36895 28.614 8.32803C28.0555 6.40504 26.7743 4.85846 25.1317 3.95834C23.448 1.20887 20.1463 -0.223147 16.8529 0.570599C16.7379 0.611513 16.6312 0.644247 16.4751 0.685162C16.4751 0.685162 16.4751 0.685162 16.434 0.685162C14.9721 -0.0267543 13.2474 -0.21496 11.5637 0.267834C10.2907 0.644249 9.23941 1.36435 8.4181 2.26447C7.74463 2.22355 7.0301 2.30538 6.35663 2.49359C4.2623 3.09913 2.75931 4.86665 2.34866 6.9042C0.623919 8.37713 -0.386285 10.8238 0.13935 13.156C0.853885 16.3228 3.85165 18.6958 8.2292 16.8465C8.2292 16.8874 8.2292 16.8874 8.27027 16.9201C8.4181 15.1117 9.54329 14.0561 10.1839 13.5651C9.05872 11.9858 6.39769 8.93357 4.4512 9.83369C3.17818 10.4392 2.98928 11.6012 3.36708 12.4686C3.77773 13.3687 4.78793 14.0152 6.24986 13.4096C6.51267 13.2951 6.84941 13.4096 6.96439 13.7124C7.07937 13.9743 6.96439 14.3179 6.66872 14.4243C4.5744 15.2917 2.95643 14.2361 2.39794 12.8777C1.79839 11.5194 2.17618 9.67822 4.00769 8.81082C4.38549 8.62262 4.829 8.50805 5.3957 8.54897C5.3957 7.41972 5.7735 6.47869 6.47982 5.75859C7.60501 4.62934 9.25583 4.40022 10.0361 4.36749C10.5946 2.70635 12.1715 1.76531 14.2329 1.92078C15.3171 1.99443 16.2534 2.52632 16.9268 3.0173C17.2636 3.27916 17.5674 3.54101 17.7481 3.72922C18.9472 2.97639 20.6309 2.52633 22.06 3.05003C23.0373 3.38554 24.2364 4.25293 24.6471 6.55233C25.1727 6.81419 26.224 7.45246 26.5197 8.62262C26.7414 9.44909 26.5607 10.3901 25.994 11.143C25.5095 11.8221 24.4582 12.6486 22.3967 12.7223C22.3556 12.7223 22.3556 12.7223 22.3228 12.7223C22.2817 12.7223 18.5366 12.3459 17.1896 15.0217C17.1157 15.169 17.0418 15.3244 16.9679 15.439C16.4833 16.2328 15.9577 16.6828 15.3581 16.871C15.2431 16.9119 15.1364 16.9119 15.0214 16.9447C13.8634 17.0592 13.0749 16.0773 13.0338 16.0445C12.8449 15.8154 12.886 15.4799 13.1078 15.2917C13.3295 15.1035 13.6662 15.1444 13.8551 15.3654C13.8551 15.3654 14.3397 15.93 14.9064 15.8891C15.3581 15.8482 15.8016 15.3654 16.2534 14.5307C16.4423 14.1543 16.7051 13.8188 16.9679 13.4751C17.7153 12.6486 18.7665 12.084 20.0396 11.814C21.1976 11.5521 22.216 11.6258 22.4378 11.6667C24.0475 11.593 24.7949 11.0284 25.1727 10.5374C25.5095 10.0465 25.6573 9.48182 25.5095 8.95812C25.2466 7.97616 24.0147 7.5261 24.0147 7.48519C23.8258 7.41154 23.6779 7.25606 23.6779 7.03512C23.4562 5.45582 22.8156 4.47387 21.7643 4.09745C20.4502 3.64739 18.7255 4.28566 17.7892 5.15305C16.7051 6.20865 17.0418 7.56702 17.2307 8.04981C19.1772 7.55884 20.6391 8.54079 20.6802 8.61444C20.943 8.80264 20.9759 9.13814 20.828 9.36726C20.6391 9.62912 20.3024 9.67004 20.0806 9.51456C20.0396 9.47365 18.8815 8.72081 17.3457 9.17906C17.1978 9.21997 17.0829 9.25271 16.9679 9.29362C15.8098 9.74368 15.4731 10.4638 15.4731 10.5374C15.432 10.6847 15.3253 10.7993 15.1774 10.8729C15.0296 10.9466 14.8818 10.9138 14.7257 10.8729C14.6518 10.832 13.6005 10.4229 12.4014 11.3639C11.1613 12.3049 11.4651 13.5897 11.5062 13.6224C11.5801 13.8842 11.4651 14.1461 11.2434 14.2607C11.1695 14.3016 9.55972 15.1608 9.44473 17.1574C9.40367 18.0248 9.82253 18.9659 10.6849 19.5305C11.6623 20.0215 12.8203 20.136 13.9455 19.8333C14.3561 19.7187 14.7339 19.5305 15.0707 19.3095C15.6702 19.6123 16.3437 19.7596 17.0172 19.686C17.8385 19.686 19.0047 19.1213 19.3004 18.974C20.4995 18.2949 21.173 17.6157 21.5836 17.1247C22.2571 16.3719 22.331 15.8072 22.331 15.7336C22.331 15.5863 22.4049 15.4308 22.5199 15.3163C22.6349 15.2017 22.8156 15.2017 22.9716 15.2017C24.4664 15.5372 25.9694 15.2017 27.3163 14.2607C27.9569 13.8106 28.4415 13.246 28.6633 12.4931C28.7783 12.1576 28.7618 12.2231 28.844 11.904C28.9589 11.593 29 10.8075 29 10.4556C28.9918 10.1937 28.9343 9.96462 28.8768 9.49819Z" fill="#E567A1"/>
<path d="M14.3807 3.01303C12.7633 2.88707 11.6115 3.67882 11.3196 5.20836C11.2486 5.49627 11.0355 5.70321 10.7831 5.66722C10.7436 5.66722 8.80282 5.62223 7.72195 6.87286C7.21703 7.44868 6.96456 8.24044 7.00401 9.23014C7.00401 9.27513 7.00401 9.31112 7.00401 9.35611C7.72195 9.64402 8.55035 10.2288 9.44975 11.2635C9.98624 11.8394 10.4596 12.5052 10.8146 13C10.9961 12.4242 11.3196 11.7584 11.9665 11.1736C13.1184 10.1389 14.1992 10.1839 14.8067 10.3458C15.0592 9.93193 15.4931 9.39209 16.2821 8.93323C15.9191 7.89855 15.7456 5.99113 17 4.54256C16.5424 4.04771 15.5326 3.103 14.3807 3.01303Z" fill="#E567A1"/>
<path d="M28.0882 21.7664C28.5567 22.4643 29.0195 23.1623 29.4879 23.8685C29.7612 24.2757 30.185 23.6442 29.9118 23.237C29.4433 22.5391 28.9805 21.8411 28.5121 21.1349C28.2388 20.7194 27.815 21.3592 28.0882 21.7664Z" fill="#2F8E94"/>
<path d="M37 27.6008L34.6025 30L29 24.3992L30.1777 23.2205L31.3975 22L37 27.6008Z" fill="#FCCB71"/>
<path opacity="0.85" d="M29 18.0042C29 19.6065 28.3751 21.1075 27.2435 22.246C26.7959 22.6929 26.2892 23.0639 25.7234 23.3507C24.8705 23.7807 23.9585 24 22.9958 24C20.7326 24 18.6805 22.7435 17.6502 20.728C17.4307 20.3064 17.2702 19.8595 17.1604 19.4041C17.0507 18.9487 17 18.4765 17 17.9958C17 17.4392 17.076 16.8911 17.228 16.3598C17.456 15.5418 17.8529 14.7997 18.4018 14.142C19.5503 12.7758 21.2224 12 23.0042 12C23.9669 12 24.879 12.2193 25.7319 12.6578C27.5391 13.5854 28.7551 15.331 28.9747 17.3465C28.9831 17.5657 29 17.785 29 18.0042Z" fill="white"/>
<path d="M29 18C29 21.316 26.3095 24 23 24C19.6823 24 17 21.316 17 18C17 14.684 19.6905 12 23 12C26.3177 12 29 14.684 29 18Z" stroke="#7EC8CC" stroke-width="2" stroke-miterlimit="10"/>
<path d="M61.325 17.086L59.741 12.757C59.663 12.565 59.582 12.337 59.498 12.073C59.414 11.809 59.33 11.524 59.246 11.218C59.168 11.524 59.087 11.812 59.003 12.082C58.919 12.346 58.838 12.577 58.76 12.775L57.185 17.086H61.325ZM65.6 22H63.728C63.518 22 63.347 21.949 63.215 21.847C63.083 21.739 62.984 21.607 62.918 21.451L61.946 18.796H56.555L55.583 21.451C55.535 21.589 55.442 21.715 55.304 21.829C55.166 21.943 54.995 22 54.791 22H52.901L58.022 8.986H60.488L65.6 22ZM81.059 8.986V22H78.926V13.594C78.926 13.258 78.944 12.895 78.98 12.505L75.047 19.894C74.861 20.248 74.576 20.425 74.192 20.425H73.85C73.466 20.425 73.181 20.248 72.995 19.894L69.017 12.478C69.035 12.676 69.05 12.871 69.062 13.063C69.074 13.255 69.08 13.432 69.08 13.594V22H66.947V8.986H68.774C68.882 8.986 68.975 8.989 69.053 8.995C69.131 9.001 69.2 9.016 69.26 9.04C69.326 9.064 69.383 9.103 69.431 9.157C69.485 9.211 69.536 9.283 69.584 9.373L73.481 16.6C73.583 16.792 73.676 16.99 73.76 17.194C73.85 17.398 73.937 17.608 74.021 17.824C74.105 17.602 74.192 17.389 74.282 17.185C74.372 16.975 74.468 16.774 74.57 16.582L78.413 9.373C78.461 9.283 78.512 9.211 78.566 9.157C78.62 9.103 78.677 9.064 78.737 9.04C78.803 9.016 78.875 9.001 78.953 8.995C79.031 8.989 79.124 8.986 79.232 8.986H81.059ZM88.1927 15.529C88.6367 15.529 89.0237 15.475 89.3537 15.367C89.6837 15.253 89.9567 15.094 90.1727 14.89C90.3947 14.68 90.5597 14.428 90.6677 14.134C90.7757 13.834 90.8297 13.501 90.8297 13.135C90.8297 12.787 90.7757 12.472 90.6677 12.19C90.5597 11.908 90.3977 11.668 90.1817 11.47C89.9657 11.272 89.6927 11.122 89.3627 11.02C89.0327 10.912 88.6427 10.858 88.1927 10.858H86.3837V15.529H88.1927ZM88.1927 8.986C89.0627 8.986 89.8157 9.088 90.4517 9.292C91.0877 9.496 91.6127 9.781 92.0267 10.147C92.4407 10.513 92.7467 10.951 92.9447 11.461C93.1487 11.971 93.2507 12.529 93.2507 13.135C93.2507 13.765 93.1457 14.344 92.9357 14.872C92.7257 15.394 92.4107 15.844 91.9907 16.222C91.5707 16.6 91.0427 16.894 90.4067 17.104C89.7767 17.314 89.0387 17.419 88.1927 17.419H86.3837V22H83.9627V8.986H88.1927ZM94.4908 15.637H99.1528V17.491H94.4908V15.637ZM108.505 17.086L106.921 12.757C106.843 12.565 106.762 12.337 106.678 12.073C106.594 11.809 106.51 11.524 106.426 11.218C106.348 11.524 106.267 11.812 106.183 12.082C106.099 12.346 106.018 12.577 105.94 12.775L104.365 17.086H108.505ZM112.78 22H110.908C110.698 22 110.527 21.949 110.395 21.847C110.263 21.739 110.164 21.607 110.098 21.451L109.126 18.796H103.735L102.763 21.451C102.715 21.589 102.622 21.715 102.484 21.829C102.346 21.943 102.175 22 101.971 22H100.081L105.202 8.986H107.668L112.78 22ZM125.683 15.493C125.683 16.447 125.524 17.323 125.206 18.121C124.888 18.919 124.441 19.606 123.865 20.182C123.289 20.758 122.596 21.205 121.786 21.523C120.976 21.841 120.076 22 119.086 22H114.127V8.986H119.086C120.076 8.986 120.976 9.148 121.786 9.472C122.596 9.79 123.289 10.237 123.865 10.813C124.441 11.383 124.888 12.067 125.206 12.865C125.524 13.663 125.683 14.539 125.683 15.493ZM123.199 15.493C123.199 14.779 123.103 14.14 122.911 13.576C122.725 13.006 122.452 12.526 122.092 12.136C121.738 11.74 121.306 11.437 120.796 11.227C120.292 11.017 119.722 10.912 119.086 10.912H116.557V20.074H119.086C119.722 20.074 120.292 19.969 120.796 19.759C121.306 19.549 121.738 19.249 122.092 18.859C122.452 18.463 122.725 17.983 122.911 17.419C123.103 16.849 123.199 16.207 123.199 15.493ZM134.618 14.44H135.185C135.413 14.44 135.602 14.41 135.752 14.35C135.902 14.284 136.031 14.182 136.139 14.044L139.73 9.499C139.88 9.307 140.036 9.175 140.198 9.103C140.366 9.025 140.576 8.986 140.828 8.986H142.916L138.533 14.395C138.275 14.725 138.008 14.959 137.732 15.097C137.93 15.169 138.107 15.271 138.263 15.403C138.425 15.529 138.578 15.697 138.722 15.907L143.24 22H141.107C140.819 22 140.603 21.961 140.459 21.883C140.321 21.799 140.204 21.679 140.108 21.523L136.427 16.717C136.313 16.555 136.181 16.441 136.031 16.375C135.881 16.309 135.665 16.276 135.383 16.276H134.618V22H132.197V8.986H134.618V14.44ZM146.265 13.9C146.451 13.714 146.646 13.543 146.85 13.387C147.06 13.225 147.279 13.09 147.507 12.982C147.741 12.868 147.99 12.781 148.254 12.721C148.518 12.655 148.806 12.622 149.118 12.622C149.622 12.622 150.069 12.709 150.459 12.883C150.849 13.051 151.173 13.291 151.431 13.603C151.695 13.909 151.893 14.278 152.025 14.71C152.163 15.136 152.232 15.607 152.232 16.123V22H150.009V16.123C150.009 15.559 149.88 15.124 149.622 14.818C149.364 14.506 148.971 14.35 148.443 14.35C148.059 14.35 147.699 14.437 147.363 14.611C147.027 14.785 146.709 15.022 146.409 15.322V22H144.186V12.766H145.545C145.833 12.766 146.022 12.901 146.112 13.171L146.265 13.9ZM158.432 12.622C159.116 12.622 159.737 12.733 160.295 12.955C160.859 13.177 161.339 13.492 161.735 13.9C162.137 14.308 162.446 14.806 162.662 15.394C162.878 15.982 162.986 16.639 162.986 17.365C162.986 18.097 162.878 18.757 162.662 19.345C162.446 19.933 162.137 20.434 161.735 20.848C161.339 21.262 160.859 21.58 160.295 21.802C159.737 22.024 159.116 22.135 158.432 22.135C157.742 22.135 157.115 22.024 156.551 21.802C155.987 21.58 155.504 21.262 155.102 20.848C154.706 20.434 154.397 19.933 154.175 19.345C153.959 18.757 153.851 18.097 153.851 17.365C153.851 16.639 153.959 15.982 154.175 15.394C154.397 14.806 154.706 14.308 155.102 13.9C155.504 13.492 155.987 13.177 156.551 12.955C157.115 12.733 157.742 12.622 158.432 12.622ZM158.432 20.425C159.2 20.425 159.767 20.167 160.133 19.651C160.505 19.135 160.691 18.379 160.691 17.383C160.691 16.387 160.505 15.628 160.133 15.106C159.767 14.584 159.2 14.323 158.432 14.323C157.652 14.323 157.073 14.587 156.695 15.115C156.323 15.637 156.137 16.393 156.137 17.383C156.137 18.373 156.323 19.129 156.695 19.651C157.073 20.167 157.652 20.425 158.432 20.425ZM177.709 12.766L174.775 22H172.993C172.789 22 172.648 21.868 172.57 21.604L170.914 16.267C170.86 16.087 170.809 15.91 170.761 15.736C170.719 15.556 170.683 15.376 170.653 15.196C170.617 15.376 170.575 15.559 170.527 15.745C170.485 15.925 170.437 16.105 170.383 16.285L168.7 21.604C168.628 21.868 168.469 22 168.223 22H166.513L163.588 12.766H165.361C165.523 12.766 165.661 12.805 165.775 12.883C165.889 12.961 165.964 13.06 166 13.18L167.323 18.112C167.389 18.382 167.446 18.646 167.494 18.904C167.548 19.162 167.593 19.42 167.629 19.678C167.695 19.42 167.764 19.162 167.836 18.904C167.914 18.646 167.995 18.382 168.079 18.112L169.609 13.162C169.645 13.042 169.714 12.943 169.816 12.865C169.924 12.787 170.053 12.748 170.203 12.748H171.184C171.34 12.748 171.472 12.787 171.58 12.865C171.694 12.943 171.769 13.042 171.805 13.162L173.29 18.112C173.368 18.382 173.44 18.649 173.506 18.913C173.578 19.171 173.647 19.429 173.713 19.687C173.791 19.177 173.902 18.652 174.046 18.112L175.405 13.18C175.447 13.06 175.522 12.961 175.63 12.883C175.738 12.805 175.867 12.766 176.017 12.766H177.709ZM181.223 8.626V22H179V8.626H181.223ZM189.387 16.321C189.387 16.033 189.345 15.763 189.261 15.511C189.183 15.253 189.063 15.028 188.901 14.836C188.739 14.644 188.532 14.494 188.28 14.386C188.034 14.272 187.746 14.215 187.416 14.215C186.774 14.215 186.267 14.398 185.895 14.764C185.529 15.13 185.295 15.649 185.193 16.321H189.387ZM185.148 17.662C185.184 18.136 185.268 18.547 185.4 18.895C185.532 19.237 185.706 19.522 185.922 19.75C186.138 19.972 186.393 20.14 186.687 20.254C186.987 20.362 187.317 20.416 187.677 20.416C188.037 20.416 188.346 20.374 188.604 20.29C188.868 20.206 189.096 20.113 189.288 20.011C189.486 19.909 189.657 19.816 189.801 19.732C189.951 19.648 190.095 19.606 190.233 19.606C190.419 19.606 190.557 19.675 190.647 19.813L191.286 20.623C191.04 20.911 190.764 21.154 190.458 21.352C190.152 21.544 189.831 21.7 189.495 21.82C189.165 21.934 188.826 22.015 188.478 22.063C188.136 22.111 187.803 22.135 187.479 22.135C186.837 22.135 186.24 22.03 185.688 21.82C185.136 21.604 184.656 21.289 184.248 20.875C183.84 20.455 183.519 19.939 183.285 19.327C183.051 18.709 182.934 17.995 182.934 17.185C182.934 16.555 183.036 15.964 183.24 15.412C183.444 14.854 183.735 14.371 184.113 13.963C184.497 13.549 184.962 13.222 185.508 12.982C186.06 12.742 186.681 12.622 187.371 12.622C187.953 12.622 188.49 12.715 188.982 12.901C189.474 13.087 189.897 13.36 190.251 13.72C190.605 14.074 190.881 14.512 191.079 15.034C191.283 15.55 191.385 16.141 191.385 16.807C191.385 17.143 191.349 17.371 191.277 17.491C191.205 17.605 191.067 17.662 190.863 17.662H185.148ZM198.849 15.124C198.597 14.818 198.321 14.602 198.021 14.476C197.727 14.35 197.409 14.287 197.067 14.287C196.731 14.287 196.428 14.35 196.158 14.476C195.888 14.602 195.657 14.794 195.465 15.052C195.273 15.304 195.126 15.628 195.024 16.024C194.922 16.414 194.871 16.876 194.871 17.41C194.871 17.95 194.913 18.409 194.997 18.787C195.087 19.159 195.213 19.465 195.375 19.705C195.537 19.939 195.735 20.11 195.969 20.218C196.203 20.32 196.464 20.371 196.752 20.371C197.214 20.371 197.607 20.275 197.931 20.083C198.255 19.891 198.561 19.618 198.849 19.264V15.124ZM201.072 8.626V22H199.713C199.419 22 199.233 21.865 199.155 21.595L198.966 20.704C198.594 21.13 198.165 21.475 197.679 21.739C197.199 22.003 196.638 22.135 195.996 22.135C195.492 22.135 195.03 22.03 194.61 21.82C194.19 21.61 193.827 21.307 193.521 20.911C193.221 20.509 192.987 20.014 192.819 19.426C192.657 18.838 192.576 18.166 192.576 17.41C192.576 16.726 192.669 16.09 192.855 15.502C193.041 14.914 193.308 14.404 193.656 13.972C194.004 13.54 194.421 13.204 194.907 12.964C195.393 12.718 195.939 12.595 196.545 12.595C197.061 12.595 197.502 12.676 197.868 12.838C198.234 13 198.561 13.219 198.849 13.495V8.626H201.072ZM206.641 17.158C206.917 17.158 207.157 17.122 207.361 17.05C207.565 16.972 207.733 16.867 207.865 16.735C208.003 16.603 208.105 16.444 208.171 16.258C208.243 16.072 208.279 15.868 208.279 15.646C208.279 15.19 208.141 14.83 207.865 14.566C207.595 14.296 207.187 14.161 206.641 14.161C206.095 14.161 205.684 14.296 205.408 14.566C205.138 14.83 205.003 15.19 205.003 15.646C205.003 15.862 205.036 16.063 205.102 16.249C205.174 16.435 205.276 16.597 205.408 16.735C205.546 16.867 205.717 16.972 205.921 17.05C206.131 17.122 206.371 17.158 206.641 17.158ZM209.152 22.414C209.152 22.234 209.098 22.087 208.99 21.973C208.882 21.859 208.735 21.772 208.549 21.712C208.363 21.646 208.144 21.598 207.892 21.568C207.646 21.538 207.382 21.517 207.1 21.505C206.824 21.487 206.536 21.472 206.236 21.46C205.942 21.448 205.654 21.424 205.372 21.388C205.126 21.526 204.925 21.688 204.769 21.874C204.619 22.06 204.544 22.276 204.544 22.522C204.544 22.684 204.583 22.834 204.661 22.972C204.745 23.116 204.874 23.239 205.048 23.341C205.228 23.443 205.459 23.521 205.741 23.575C206.023 23.635 206.368 23.665 206.776 23.665C207.19 23.665 207.547 23.632 207.847 23.566C208.147 23.506 208.393 23.419 208.585 23.305C208.783 23.197 208.927 23.065 209.017 22.909C209.107 22.759 209.152 22.594 209.152 22.414ZM211.366 13.081V13.909C211.366 14.173 211.207 14.335 210.889 14.395L210.061 14.548C210.187 14.866 210.25 15.214 210.25 15.592C210.25 16.048 210.157 16.462 209.971 16.834C209.791 17.2 209.539 17.512 209.215 17.77C208.891 18.028 208.507 18.229 208.063 18.373C207.625 18.511 207.151 18.58 206.641 18.58C206.461 18.58 206.287 18.571 206.119 18.553C205.951 18.535 205.786 18.511 205.624 18.481C205.336 18.655 205.192 18.85 205.192 19.066C205.192 19.252 205.276 19.39 205.444 19.48C205.618 19.564 205.846 19.624 206.128 19.66C206.41 19.696 206.731 19.72 207.091 19.732C207.451 19.738 207.82 19.756 208.198 19.786C208.576 19.816 208.945 19.87 209.305 19.948C209.665 20.02 209.986 20.137 210.268 20.299C210.55 20.461 210.775 20.683 210.943 20.965C211.117 21.241 211.204 21.598 211.204 22.036C211.204 22.444 211.102 22.84 210.898 23.224C210.7 23.608 210.409 23.95 210.025 24.25C209.647 24.55 209.179 24.79 208.621 24.97C208.069 25.156 207.439 25.249 206.731 25.249C206.035 25.249 205.429 25.18 204.913 25.042C204.397 24.91 203.968 24.73 203.626 24.502C203.284 24.28 203.029 24.022 202.861 23.728C202.693 23.434 202.609 23.128 202.609 22.81C202.609 22.378 202.738 22.018 202.996 21.73C203.26 21.436 203.62 21.202 204.076 21.028C203.83 20.902 203.635 20.734 203.491 20.524C203.347 20.314 203.275 20.038 203.275 19.696C203.275 19.558 203.299 19.417 203.347 19.273C203.401 19.123 203.476 18.976 203.572 18.832C203.674 18.688 203.8 18.553 203.95 18.427C204.1 18.295 204.277 18.178 204.481 18.076C204.013 17.824 203.644 17.488 203.374 17.068C203.11 16.648 202.978 16.156 202.978 15.592C202.978 15.136 203.068 14.725 203.248 14.359C203.434 13.987 203.689 13.672 204.013 13.414C204.343 13.15 204.73 12.949 205.174 12.811C205.624 12.673 206.113 12.604 206.641 12.604C207.037 12.604 207.409 12.646 207.757 12.73C208.105 12.808 208.423 12.925 208.711 13.081H211.366ZM218.567 16.321C218.567 16.033 218.525 15.763 218.441 15.511C218.363 15.253 218.243 15.028 218.081 14.836C217.919 14.644 217.712 14.494 217.46 14.386C217.214 14.272 216.926 14.215 216.596 14.215C215.954 14.215 215.447 14.398 215.075 14.764C214.709 15.13 214.475 15.649 214.373 16.321H218.567ZM214.328 17.662C214.364 18.136 214.448 18.547 214.58 18.895C214.712 19.237 214.886 19.522 215.102 19.75C215.318 19.972 215.573 20.14 215.867 20.254C216.167 20.362 216.497 20.416 216.857 20.416C217.217 20.416 217.526 20.374 217.784 20.29C218.048 20.206 218.276 20.113 218.468 20.011C218.666 19.909 218.837 19.816 218.981 19.732C219.131 19.648 219.275 19.606 219.413 19.606C219.599 19.606 219.737 19.675 219.827 19.813L220.466 20.623C220.22 20.911 219.944 21.154 219.638 21.352C219.332 21.544 219.011 21.7 218.675 21.82C218.345 21.934 218.006 22.015 217.658 22.063C217.316 22.111 216.983 22.135 216.659 22.135C216.017 22.135 215.42 22.03 214.868 21.82C214.316 21.604 213.836 21.289 213.428 20.875C213.02 20.455 212.699 19.939 212.465 19.327C212.231 18.709 212.114 17.995 212.114 17.185C212.114 16.555 212.216 15.964 212.42 15.412C212.624 14.854 212.915 14.371 213.293 13.963C213.677 13.549 214.142 13.222 214.688 12.982C215.24 12.742 215.861 12.622 216.551 12.622C217.133 12.622 217.67 12.715 218.162 12.901C218.654 13.087 219.077 13.36 219.431 13.72C219.785 14.074 220.061 14.512 220.259 15.034C220.463 15.55 220.565 16.141 220.565 16.807C220.565 17.143 220.529 17.371 220.457 17.491C220.385 17.605 220.247 17.662 220.043 17.662H214.328ZM231.191 15.529C231.635 15.529 232.022 15.475 232.352 15.367C232.682 15.253 232.955 15.094 233.171 14.89C233.393 14.68 233.558 14.428 233.666 14.134C233.774 13.834 233.828 13.501 233.828 13.135C233.828 12.787 233.774 12.472 233.666 12.19C233.558 11.908 233.396 11.668 233.18 11.47C232.964 11.272 232.691 11.122 232.361 11.02C232.031 10.912 231.641 10.858 231.191 10.858H229.382V15.529H231.191ZM231.191 8.986C232.061 8.986 232.814 9.088 233.45 9.292C234.086 9.496 234.611 9.781 235.025 10.147C235.439 10.513 235.745 10.951 235.943 11.461C236.147 11.971 236.249 12.529 236.249 13.135C236.249 13.765 236.144 14.344 235.934 14.872C235.724 15.394 235.409 15.844 234.989 16.222C234.569 16.6 234.041 16.894 233.405 17.104C232.775 17.314 232.037 17.419 231.191 17.419H229.382V22H226.961V8.986H231.191ZM241.418 12.622C242.102 12.622 242.723 12.733 243.281 12.955C243.845 13.177 244.325 13.492 244.721 13.9C245.123 14.308 245.432 14.806 245.648 15.394C245.864 15.982 245.972 16.639 245.972 17.365C245.972 18.097 245.864 18.757 245.648 19.345C245.432 19.933 245.123 20.434 244.721 20.848C244.325 21.262 243.845 21.58 243.281 21.802C242.723 22.024 242.102 22.135 241.418 22.135C240.728 22.135 240.101 22.024 239.537 21.802C238.973 21.58 238.49 21.262 238.088 20.848C237.692 20.434 237.383 19.933 237.161 19.345C236.945 18.757 236.837 18.097 236.837 17.365C236.837 16.639 236.945 15.982 237.161 15.394C237.383 14.806 237.692 14.308 238.088 13.9C238.49 13.492 238.973 13.177 239.537 12.955C240.101 12.733 240.728 12.622 241.418 12.622ZM241.418 20.425C242.186 20.425 242.753 20.167 243.119 19.651C243.491 19.135 243.677 18.379 243.677 17.383C243.677 16.387 243.491 15.628 243.119 15.106C242.753 14.584 242.186 14.323 241.418 14.323C240.638 14.323 240.059 14.587 239.681 15.115C239.309 15.637 239.123 16.393 239.123 17.383C239.123 18.373 239.309 19.129 239.681 19.651C240.059 20.167 240.638 20.425 241.418 20.425ZM249.765 14.368C250.053 13.816 250.395 13.384 250.791 13.072C251.187 12.754 251.655 12.595 252.195 12.595C252.621 12.595 252.963 12.688 253.221 12.874L253.077 14.539C253.047 14.647 253.002 14.725 252.942 14.773C252.888 14.815 252.813 14.836 252.717 14.836C252.627 14.836 252.492 14.821 252.312 14.791C252.138 14.761 251.967 14.746 251.799 14.746C251.553 14.746 251.334 14.782 251.142 14.854C250.95 14.926 250.776 15.031 250.62 15.169C250.47 15.301 250.335 15.463 250.215 15.655C250.101 15.847 249.993 16.066 249.891 16.312V22H247.668V12.766H248.973C249.201 12.766 249.36 12.808 249.45 12.892C249.54 12.97 249.6 13.114 249.63 13.324L249.765 14.368ZM257.461 22.144C256.657 22.144 256.039 21.919 255.607 21.469C255.181 21.013 254.968 20.386 254.968 19.588V14.431H254.023C253.903 14.431 253.801 14.392 253.717 14.314C253.633 14.236 253.591 14.119 253.591 13.963V13.081L255.076 12.838L255.544 10.318C255.574 10.198 255.631 10.105 255.715 10.039C255.799 9.973 255.907 9.94 256.039 9.94H257.191V12.847H259.657V14.431H257.191V19.435C257.191 19.723 257.26 19.948 257.398 20.11C257.542 20.272 257.737 20.353 257.983 20.353C258.121 20.353 258.235 20.338 258.325 20.308C258.421 20.272 258.502 20.236 258.568 20.2C258.64 20.164 258.703 20.131 258.757 20.101C258.811 20.065 258.865 20.047 258.919 20.047C258.985 20.047 259.039 20.065 259.081 20.101C259.123 20.131 259.168 20.179 259.216 20.245L259.882 21.325C259.558 21.595 259.186 21.799 258.766 21.937C258.346 22.075 257.911 22.144 257.461 22.144ZM265.958 18.058C265.316 18.088 264.776 18.145 264.338 18.229C263.9 18.307 263.549 18.409 263.285 18.535C263.021 18.661 262.832 18.808 262.718 18.976C262.604 19.144 262.547 19.327 262.547 19.525C262.547 19.915 262.661 20.194 262.889 20.362C263.123 20.53 263.426 20.614 263.798 20.614C264.254 20.614 264.647 20.533 264.977 20.371C265.313 20.203 265.64 19.951 265.958 19.615V18.058ZM260.864 14.053C261.926 13.081 263.204 12.595 264.698 12.595C265.238 12.595 265.721 12.685 266.147 12.865C266.573 13.039 266.933 13.285 267.227 13.603C267.521 13.915 267.743 14.29 267.893 14.728C268.049 15.166 268.127 15.646 268.127 16.168V22H267.119C266.909 22 266.747 21.97 266.633 21.91C266.519 21.844 266.429 21.715 266.363 21.523L266.165 20.857C265.931 21.067 265.703 21.253 265.481 21.415C265.259 21.571 265.028 21.703 264.788 21.811C264.548 21.919 264.29 22 264.014 22.054C263.744 22.114 263.444 22.144 263.114 22.144C262.724 22.144 262.364 22.093 262.034 21.991C261.704 21.883 261.419 21.724 261.179 21.514C260.939 21.304 260.753 21.043 260.621 20.731C260.489 20.419 260.423 20.056 260.423 19.642C260.423 19.408 260.462 19.177 260.54 18.949C260.618 18.715 260.744 18.493 260.918 18.283C261.098 18.073 261.329 17.875 261.611 17.689C261.893 17.503 262.238 17.341 262.646 17.203C263.06 17.065 263.54 16.954 264.086 16.87C264.632 16.78 265.256 16.726 265.958 16.708V16.168C265.958 15.55 265.826 15.094 265.562 14.8C265.298 14.5 264.917 14.35 264.419 14.35C264.059 14.35 263.759 14.392 263.519 14.476C263.285 14.56 263.078 14.656 262.898 14.764C262.718 14.866 262.553 14.959 262.403 15.043C262.259 15.127 262.097 15.169 261.917 15.169C261.761 15.169 261.629 15.13 261.521 15.052C261.413 14.968 261.326 14.872 261.26 14.764L260.864 14.053ZM272.471 8.626V22H270.248V8.626H272.471Z" fill="white"/>
<path d="M127.427 38.5499C127.703 38.5499 127.947 38.5132 128.157 38.4399C128.37 38.3666 128.548 38.2649 128.692 38.1349C128.838 38.0016 128.948 37.8432 129.022 37.6599C129.095 37.4766 129.132 37.2749 129.132 37.0549C129.132 36.5982 128.99 36.2416 128.707 35.9849C128.427 35.7282 128 35.5999 127.427 35.5999H126.277V38.5499H127.427ZM127.427 34.8349C127.88 34.8349 128.273 34.8882 128.607 34.9949C128.943 35.0982 129.222 35.2466 129.442 35.4399C129.662 35.6332 129.825 35.8666 129.932 36.1399C130.042 36.4132 130.097 36.7182 130.097 37.0549C130.097 37.3882 130.038 37.6932 129.922 37.9699C129.805 38.2466 129.633 38.4849 129.407 38.6849C129.183 38.8849 128.905 39.0416 128.572 39.1549C128.242 39.2649 127.86 39.3199 127.427 39.3199H126.277V41.9999H125.312V34.8349H127.427ZM138.437 38.4199C138.437 38.9566 138.352 39.4499 138.182 39.8999C138.012 40.3466 137.772 40.7316 137.462 41.0549C137.152 41.3782 136.779 41.6299 136.342 41.8099C135.909 41.9866 135.429 42.0749 134.902 42.0749C134.376 42.0749 133.896 41.9866 133.462 41.8099C133.029 41.6299 132.657 41.3782 132.347 41.0549C132.037 40.7316 131.797 40.3466 131.627 39.8999C131.457 39.4499 131.372 38.9566 131.372 38.4199C131.372 37.8832 131.457 37.3916 131.627 36.9449C131.797 36.4949 132.037 36.1082 132.347 35.7849C132.657 35.4582 133.029 35.2049 133.462 35.0249C133.896 34.8449 134.376 34.7549 134.902 34.7549C135.429 34.7549 135.909 34.8449 136.342 35.0249C136.779 35.2049 137.152 35.4582 137.462 35.7849C137.772 36.1082 138.012 36.4949 138.182 36.9449C138.352 37.3916 138.437 37.8832 138.437 38.4199ZM137.442 38.4199C137.442 37.9799 137.382 37.5849 137.262 37.2349C137.142 36.8849 136.972 36.5899 136.752 36.3499C136.532 36.1066 136.266 35.9199 135.952 35.7899C135.639 35.6599 135.289 35.5949 134.902 35.5949C134.519 35.5949 134.171 35.6599 133.857 35.7899C133.544 35.9199 133.276 36.1066 133.052 36.3499C132.832 36.5899 132.662 36.8849 132.542 37.2349C132.422 37.5849 132.362 37.9799 132.362 38.4199C132.362 38.8599 132.422 39.2549 132.542 39.6049C132.662 39.9516 132.832 40.2466 133.052 40.4899C133.276 40.7299 133.544 40.9149 133.857 41.0449C134.171 41.1716 134.519 41.2349 134.902 41.2349C135.289 41.2349 135.639 41.1716 135.952 41.0449C136.266 40.9149 136.532 40.7299 136.752 40.4899C136.972 40.2466 137.142 39.9516 137.262 39.6049C137.382 39.2549 137.442 38.8599 137.442 38.4199ZM149.503 34.8349L147.268 41.9999H146.398L144.583 36.5349C144.566 36.4816 144.549 36.4249 144.533 36.3649C144.519 36.3049 144.504 36.2416 144.488 36.1749C144.471 36.2416 144.454 36.3049 144.438 36.3649C144.421 36.4249 144.404 36.4816 144.388 36.5349L142.563 41.9999H141.693L139.458 34.8349H140.263C140.349 34.8349 140.421 34.8566 140.478 34.8999C140.538 34.9432 140.576 34.9982 140.593 35.0649L142.073 40.0449C142.096 40.1349 142.118 40.2316 142.138 40.3349C142.161 40.4382 142.183 40.5482 142.203 40.6649C142.226 40.5482 142.249 40.4382 142.273 40.3349C142.299 40.2282 142.328 40.1316 142.358 40.0449L144.043 35.0649C144.063 35.0082 144.101 34.9566 144.158 34.9099C144.218 34.8599 144.289 34.8349 144.373 34.8349H144.653C144.739 34.8349 144.809 34.8566 144.863 34.8999C144.916 34.9432 144.956 34.9982 144.983 35.0649L146.663 40.0449C146.693 40.1316 146.719 40.2249 146.743 40.3249C146.769 40.4249 146.794 40.5299 146.818 40.6399C146.834 40.5299 146.853 40.4249 146.873 40.3249C146.893 40.2249 146.914 40.1316 146.938 40.0449L148.423 35.0649C148.439 35.0049 148.476 34.9516 148.533 34.9049C148.593 34.8582 148.664 34.8349 148.748 34.8349H149.503ZM155.489 41.2099L155.484 41.9999H151.069V34.8349H155.484V35.6249H152.039V38.0049H154.829V38.7649H152.039V41.2099H155.489ZM159.326 38.3049C159.606 38.3049 159.852 38.2716 160.066 38.2049C160.282 38.1349 160.462 38.0382 160.606 37.9149C160.752 37.7882 160.862 37.6382 160.936 37.4649C161.009 37.2916 161.046 37.0999 161.046 36.8899C161.046 36.4632 160.906 36.1416 160.626 35.9249C160.346 35.7082 159.926 35.5999 159.366 35.5999H158.306V38.3049H159.326ZM162.636 41.9999H161.776C161.599 41.9999 161.469 41.9316 161.386 41.7949L159.526 39.2349C159.469 39.1549 159.407 39.0982 159.341 39.0649C159.277 39.0282 159.177 39.0099 159.041 39.0099H158.306V41.9999H157.341V34.8349H159.366C159.819 34.8349 160.211 34.8816 160.541 34.9749C160.871 35.0649 161.142 35.1966 161.356 35.3699C161.572 35.5432 161.732 35.7532 161.836 35.9999C161.939 36.2432 161.991 36.5166 161.991 36.8199C161.991 37.0732 161.951 37.3099 161.871 37.5299C161.791 37.7499 161.674 37.9482 161.521 38.1249C161.371 38.2982 161.186 38.4466 160.966 38.5699C160.749 38.6932 160.502 38.7866 160.226 38.8499C160.349 38.9199 160.456 39.0216 160.546 39.1549L162.636 41.9999ZM168.53 41.2099L168.525 41.9999H164.11V34.8349H168.525V35.6249H165.08V38.0049H167.87V38.7649H165.08V41.2099H168.53ZM176.592 38.4199C176.592 38.9566 176.507 39.4449 176.337 39.8849C176.167 40.3249 175.927 40.7016 175.617 41.0149C175.307 41.3282 174.934 41.5716 174.497 41.7449C174.064 41.9149 173.584 41.9999 173.057 41.9999H170.382V34.8349H173.057C173.584 34.8349 174.064 34.9216 174.497 35.0949C174.934 35.2649 175.307 35.5082 175.617 35.8249C175.927 36.1382 176.167 36.5149 176.337 36.9549C176.507 37.3949 176.592 37.8832 176.592 38.4199ZM175.597 38.4199C175.597 37.9799 175.537 37.5866 175.417 37.2399C175.297 36.8932 175.127 36.5999 174.907 36.3599C174.687 36.1199 174.42 35.9366 174.107 35.8099C173.794 35.6832 173.444 35.6199 173.057 35.6199H171.352V41.2149H173.057C173.444 41.2149 173.794 41.1516 174.107 41.0249C174.42 40.8982 174.687 40.7166 174.907 40.4799C175.127 40.2399 175.297 39.9466 175.417 39.5999C175.537 39.2532 175.597 38.8599 175.597 38.4199ZM184.063 41.2299C184.34 41.2299 184.578 41.1982 184.778 41.1349C184.978 41.0716 185.141 40.9832 185.268 40.8699C185.398 40.7532 185.493 40.6166 185.553 40.4599C185.613 40.2999 185.643 40.1249 185.643 39.9349C185.643 39.5649 185.511 39.2732 185.248 39.0599C184.985 38.8432 184.59 38.7349 184.063 38.7349H182.513V41.2299H184.063ZM182.513 35.5999V38.0449H183.793C184.066 38.0449 184.303 38.0149 184.503 37.9549C184.706 37.8949 184.873 37.8116 185.003 37.7049C185.136 37.5982 185.235 37.4699 185.298 37.3199C185.361 37.1666 185.393 36.9999 185.393 36.8199C185.393 36.3966 185.266 36.0882 185.013 35.8949C184.76 35.6982 184.366 35.5999 183.833 35.5999H182.513ZM183.833 34.8349C184.273 34.8349 184.651 34.8782 184.968 34.9649C185.288 35.0516 185.55 35.1749 185.753 35.3349C185.96 35.4949 186.111 35.6916 186.208 35.9249C186.305 36.1549 186.353 36.4149 186.353 36.7049C186.353 36.8816 186.325 37.0516 186.268 37.2149C186.215 37.3749 186.133 37.5249 186.023 37.6649C185.913 37.8049 185.773 37.9316 185.603 38.0449C185.436 38.1549 185.24 38.2449 185.013 38.3149C185.54 38.4149 185.935 38.6032 186.198 38.8799C186.465 39.1532 186.598 39.5132 186.598 39.9599C186.598 40.2632 186.541 40.5399 186.428 40.7899C186.318 41.0399 186.155 41.2549 185.938 41.4349C185.725 41.6149 185.461 41.7549 185.148 41.8549C184.835 41.9516 184.478 41.9999 184.078 41.9999H181.548V34.8349H183.833ZM190.968 39.1449V41.9999H189.998V39.1449L187.373 34.8349H188.223C188.31 34.8349 188.378 34.8566 188.428 34.8999C188.478 34.9399 188.522 34.9932 188.558 35.0599L190.198 37.8449C190.258 37.9616 190.313 38.0716 190.363 38.1749C190.413 38.2749 190.457 38.3766 190.493 38.4799C190.53 38.3766 190.572 38.2749 190.618 38.1749C190.665 38.0716 190.717 37.9616 190.773 37.8449L192.408 35.0599C192.438 35.0032 192.48 34.9516 192.533 34.9049C192.587 34.8582 192.655 34.8349 192.738 34.8349H193.593L190.968 39.1449Z" fill="white"/>
<path d="M222.316 36.0368C222.285 36.0877 222.251 36.1267 222.214 36.1539C222.18 36.1776 222.137 36.1895 222.086 36.1895C222.029 36.1895 221.961 36.1607 221.882 36.1029C221.804 36.0452 221.706 35.9825 221.587 35.9146C221.471 35.8433 221.33 35.7788 221.163 35.7211C221 35.6634 220.801 35.6346 220.566 35.6346C220.345 35.6346 220.15 35.6651 219.98 35.7262C219.813 35.7839 219.672 35.8637 219.557 35.9655C219.444 36.0673 219.359 36.1878 219.301 36.3269C219.244 36.4627 219.215 36.6103 219.215 36.7699C219.215 36.9735 219.264 37.1432 219.363 37.2789C219.465 37.4113 219.597 37.525 219.761 37.62C219.927 37.7151 220.114 37.7982 220.322 37.8695C220.532 37.9374 220.747 38.0087 220.964 38.0833C221.185 38.158 221.4 38.2428 221.607 38.3379C221.818 38.4295 222.005 38.5466 222.168 38.6891C222.335 38.8317 222.467 39.0065 222.566 39.2135C222.668 39.4205 222.719 39.6751 222.719 39.9771C222.719 40.2962 222.665 40.5965 222.556 40.8782C222.447 41.1565 222.287 41.3992 222.076 41.6062C221.869 41.8133 221.612 41.9762 221.306 42.095C221.003 42.2138 220.658 42.2731 220.271 42.2731C219.795 42.2731 219.363 42.1883 218.975 42.0186C218.587 41.8455 218.256 41.613 217.98 41.3211L218.266 40.8528C218.293 40.8154 218.326 40.7849 218.363 40.7611C218.404 40.734 218.448 40.7204 218.496 40.7204C218.54 40.7204 218.589 40.7391 218.643 40.7764C218.701 40.8103 218.766 40.8545 218.837 40.9088C218.909 40.9631 218.99 41.0225 219.082 41.087C219.174 41.1514 219.278 41.2108 219.393 41.2651C219.512 41.3194 219.647 41.3653 219.796 41.4026C219.946 41.4365 220.114 41.4535 220.301 41.4535C220.536 41.4535 220.745 41.4213 220.929 41.3568C221.112 41.2923 221.267 41.2023 221.393 41.087C221.522 40.9682 221.621 40.8273 221.689 40.6644C221.757 40.5015 221.791 40.3199 221.791 40.1197C221.791 39.8991 221.74 39.7192 221.638 39.58C221.539 39.4375 221.408 39.3187 221.245 39.2237C221.082 39.1287 220.895 39.0489 220.684 38.9844C220.473 38.9165 220.259 38.8487 220.041 38.7808C219.823 38.7095 219.609 38.628 219.398 38.5364C219.188 38.4448 219.001 38.326 218.837 38.18C218.674 38.0341 218.541 37.8525 218.439 37.6353C218.341 37.4147 218.292 37.1432 218.292 36.8208C218.292 36.5628 218.341 36.3134 218.439 36.0724C218.541 35.8314 218.688 35.6176 218.878 35.4309C219.072 35.2443 219.308 35.0949 219.587 34.9829C219.869 34.8709 220.192 34.8149 220.556 34.8149C220.964 34.8149 221.335 34.8794 221.668 35.0084C222.005 35.1374 222.301 35.324 222.556 35.5684L222.316 36.0368Z" fill="white"/>
<path d="M228.878 39.2851V42.192H227.889V39.2851L225.211 34.8967H226.078C226.166 34.8967 226.236 34.9188 226.287 34.9629C226.338 35.0036 226.382 35.0579 226.42 35.1258L228.093 37.9614C228.154 38.0802 228.21 38.1922 228.261 38.2974C228.312 38.3993 228.356 38.5028 228.394 38.608C228.431 38.5028 228.474 38.3993 228.521 38.2974C228.569 38.1922 228.621 38.0802 228.679 37.9614L230.347 35.1258C230.378 35.0681 230.42 35.0155 230.475 34.968C230.529 34.9205 230.599 34.8967 230.684 34.8967H231.556L228.878 39.2851Z" fill="white"/>
<path d="M240.08 34.8967V42.192H239.585C239.507 42.192 239.441 42.1784 239.386 42.1513C239.335 42.1241 239.284 42.0783 239.233 42.0138L235.005 36.5156C235.012 36.6005 235.017 36.6836 235.02 36.7651C235.024 36.8465 235.025 36.9229 235.025 36.9942V42.192H234.158V34.8967H234.668C234.712 34.8967 234.75 34.9001 234.78 34.9069C234.811 34.9103 234.838 34.9188 234.862 34.9324C234.886 34.9425 234.91 34.9595 234.934 34.9833C234.957 35.0036 234.983 35.0308 235.01 35.0647L239.238 40.5578C239.232 40.4696 239.225 40.3847 239.218 40.3033C239.214 40.2184 239.213 40.1387 239.213 40.064V34.8967H240.08Z" fill="white"/>
<path d="M247.743 39.4836L246.596 36.5156C246.562 36.4274 246.526 36.3256 246.489 36.2102C246.451 36.0914 246.415 35.9658 246.382 35.8334C246.31 36.1084 246.237 36.3374 246.162 36.5207L245.015 39.4836H247.743ZM249.804 42.192H249.039C248.95 42.192 248.879 42.1699 248.825 42.1258C248.77 42.0817 248.729 42.0257 248.702 41.9578L248.019 40.1964H244.739L244.056 41.9578C244.035 42.0189 243.996 42.0732 243.938 42.1207C243.88 42.1682 243.809 42.192 243.724 42.192H242.959L245.882 34.8967H246.881L249.804 42.192Z" fill="white"/>
<path d="M255.09 38.6793C255.373 38.6793 255.621 38.6419 255.835 38.5673C256.052 38.4926 256.235 38.3891 256.381 38.2567C256.53 38.121 256.643 37.9597 256.717 37.7731C256.792 37.5864 256.83 37.3811 256.83 37.1571C256.83 36.6921 256.685 36.329 256.396 36.0676C256.11 35.8063 255.675 35.6756 255.09 35.6756H253.917V38.6793H255.09ZM255.09 34.8967C255.553 34.8967 255.954 34.951 256.294 35.0596C256.637 35.1648 256.921 35.3159 257.146 35.5127C257.37 35.7096 257.537 35.9472 257.646 36.2254C257.758 36.5037 257.814 36.8143 257.814 37.1571C257.814 37.4965 257.755 37.807 257.635 38.0887C257.516 38.3704 257.341 38.6131 257.11 38.8167C256.882 39.0204 256.598 39.1799 256.258 39.2953C255.922 39.4073 255.532 39.4633 255.09 39.4633H253.917V42.192H252.933V34.8967H255.09Z" fill="white"/>
<path d="M265.221 36.0368C265.191 36.0877 265.157 36.1267 265.119 36.1539C265.085 36.1776 265.043 36.1895 264.992 36.1895C264.934 36.1895 264.866 36.1607 264.788 36.1029C264.71 36.0452 264.611 35.9825 264.492 35.9146C264.376 35.8433 264.235 35.7788 264.069 35.7211C263.905 35.6634 263.706 35.6346 263.472 35.6346C263.251 35.6346 263.055 35.6651 262.885 35.7262C262.719 35.7839 262.578 35.8637 262.462 35.9655C262.35 36.0673 262.265 36.1878 262.207 36.3269C262.149 36.4627 262.12 36.6103 262.12 36.7699C262.12 36.9735 262.17 37.1432 262.268 37.2789C262.37 37.4113 262.503 37.525 262.666 37.62C262.833 37.7151 263.02 37.7982 263.227 37.8695C263.438 37.9374 263.652 38.0087 263.87 38.0833C264.091 38.158 264.305 38.2428 264.512 38.3379C264.723 38.4295 264.91 38.5466 265.073 38.6891C265.24 38.8317 265.373 39.0065 265.471 39.2135C265.573 39.4205 265.624 39.6751 265.624 39.9771C265.624 40.2962 265.57 40.5965 265.461 40.8782C265.352 41.1565 265.192 41.3992 264.982 41.6062C264.774 41.8133 264.517 41.9762 264.211 42.095C263.909 42.2138 263.564 42.2731 263.176 42.2731C262.7 42.2731 262.268 42.1883 261.88 42.0186C261.493 41.8455 261.161 41.613 260.886 41.3211L261.171 40.8528C261.199 40.8154 261.231 40.7849 261.268 40.7611C261.309 40.734 261.353 40.7204 261.401 40.7204C261.445 40.7204 261.495 40.7391 261.549 40.7764C261.607 40.8103 261.671 40.8545 261.743 40.9088C261.814 40.9631 261.896 41.0225 261.987 41.087C262.079 41.1514 262.183 41.2108 262.299 41.2651C262.418 41.3194 262.552 41.3653 262.702 41.4026C262.851 41.4365 263.02 41.4535 263.207 41.4535C263.441 41.4535 263.65 41.4213 263.834 41.3568C264.018 41.2923 264.172 41.2023 264.298 41.087C264.427 40.9682 264.526 40.8273 264.594 40.6644C264.662 40.5015 264.696 40.3199 264.696 40.1197C264.696 39.8991 264.645 39.7192 264.543 39.58C264.444 39.4375 264.313 39.3187 264.15 39.2237C263.987 39.1287 263.8 39.0489 263.589 38.9844C263.378 38.9165 263.164 38.8487 262.946 38.7808C262.729 38.7095 262.515 38.628 262.304 38.5364C262.093 38.4448 261.906 38.326 261.743 38.18C261.579 38.0341 261.447 37.8525 261.345 37.6353C261.246 37.4147 261.197 37.1432 261.197 36.8208C261.197 36.5628 261.246 36.3134 261.345 36.0724C261.447 35.8314 261.593 35.6176 261.783 35.4309C261.977 35.2443 262.214 35.0949 262.492 34.9829C262.775 34.8709 263.098 34.8149 263.462 34.8149C263.87 34.8149 264.24 34.8794 264.574 35.0084C264.91 35.1374 265.206 35.324 265.461 35.5684L265.221 36.0368Z" fill="white"/>
<path d="M273.953 41.3876L273.948 42.192H269.444V34.8967H273.948V35.7011H270.434V38.1244H273.28V38.8982H270.434V41.3876H273.953Z" fill="white"/>
<path d="M206.955 34.7349L202.239 37.4575L202.806 38.4351L207.521 35.7125L206.955 34.7349Z" fill="white"/>
<path d="M207.295 41.7192L202.592 39.0212L202.025 40.0046L206.729 42.7026L207.295 41.7192Z" fill="white"/>
<path d="M208.381 41.0839L208.383 35.6477L209.515 35.6482L209.513 41.0844L208.381 41.0839Z" fill="white"/>
<path fill-rule="evenodd" clip-rule="evenodd" d="M202.231 40.6103C203.316 39.9837 203.688 38.6004 203.062 37.5205C202.437 36.4407 201.049 36.0732 199.964 36.6997C198.879 37.3262 198.507 38.7095 199.133 39.7893C199.759 40.8692 201.146 41.2368 202.231 40.6103ZM201.664 39.6324C202.207 39.3192 202.393 38.6275 202.08 38.0876C201.767 37.5477 201.073 37.3639 200.531 37.6772C199.988 37.9905 199.802 38.6821 200.115 39.222C200.428 39.7619 201.121 39.9457 201.664 39.6324Z" fill="white"/>
<path fill-rule="evenodd" clip-rule="evenodd" d="M210.075 36.0451C211.16 35.4185 211.532 34.0352 210.906 32.9553C210.28 31.8755 208.893 31.508 207.808 32.1345C206.723 32.761 206.351 34.1443 206.977 35.2241C207.603 36.304 208.99 36.6716 210.075 36.0451ZM209.508 35.0672C210.051 34.754 210.237 34.0623 209.924 33.5224C209.611 32.9825 208.918 32.7987 208.375 33.112C207.832 33.4253 207.646 34.1169 207.959 34.6568C208.272 35.1967 208.965 35.3805 209.508 35.0672Z" fill="white"/>
<path fill-rule="evenodd" clip-rule="evenodd" d="M210.072 36.0466C211.155 35.4162 211.526 34.0292 210.902 32.9487C210.277 31.8681 208.893 31.5031 207.81 32.1333C206.727 32.7636 206.355 34.1506 206.98 35.2311C207.605 36.3117 208.989 36.6769 210.072 36.0466ZM209.506 35.0682C210.048 34.7531 210.233 34.0596 209.921 33.5193C209.609 32.979 208.917 32.7964 208.375 33.1116C207.834 33.4268 207.648 34.1202 207.96 34.6605C208.272 35.2008 208.965 35.3834 209.506 35.0682Z" fill="white"/>
<path fill-rule="evenodd" clip-rule="evenodd" d="M207.673 44.6931C208.756 45.3138 210.14 44.9365 210.766 43.8503C211.391 42.7642 211.021 41.3805 209.939 40.7598C208.856 40.1391 207.472 40.5164 206.846 41.6026C206.221 42.6888 206.591 44.0724 207.673 44.6931ZM208.24 43.7099C208.781 44.0202 209.473 43.8315 209.786 43.2885C210.099 42.7454 209.914 42.0536 209.372 41.7432C208.831 41.4328 208.139 41.6215 207.826 42.1645C207.513 42.7077 207.699 43.3995 208.24 43.7099Z" fill="white"/>
<path fill-rule="evenodd" clip-rule="evenodd" d="M202.229 40.5956C203.312 39.9653 203.683 38.5783 203.059 37.4977C202.434 36.4172 201.05 36.0521 199.967 36.6824C198.884 37.3127 198.513 38.6996 199.137 39.7802C199.762 40.8608 201.146 41.2259 202.229 40.5956ZM201.663 39.6172C202.205 39.3022 202.391 38.6086 202.078 38.0684C201.766 37.5281 201.074 37.3455 200.532 37.6607C199.991 37.9759 199.805 38.6693 200.117 39.2096C200.43 39.7499 201.122 39.9324 201.663 39.6172Z" fill="white"/>
</svg>
