<svg  width="296" height="50" viewBox="0 0 296 50" fill="none" xmlns="http://www.w3.org/2000/svg">
<path d="M57.879 43H55.449V29.986H57.879V43ZM69.7298 39.931C69.8618 39.931 69.9788 39.982 70.0808 40.084L71.0348 41.119C70.5068 41.773 69.8558 42.274 69.0818 42.622C68.3138 42.97 67.3898 43.144 66.3098 43.144C65.3438 43.144 64.4738 42.979 63.6998 42.649C62.9318 42.319 62.2748 41.86 61.7288 41.272C61.1828 40.684 60.7628 39.982 60.4688 39.166C60.1808 38.35 60.0368 37.459 60.0368 36.493C60.0368 35.515 60.1928 34.621 60.5048 33.811C60.8168 32.995 61.2548 32.293 61.8188 31.705C62.3888 31.117 63.0668 30.661 63.8528 30.337C64.6388 30.007 65.5088 29.842 66.4628 29.842C67.4108 29.842 68.2508 29.998 68.9828 30.31C69.7208 30.622 70.3478 31.03 70.8638 31.534L70.0538 32.659C70.0058 32.731 69.9428 32.794 69.8648 32.848C69.7928 32.902 69.6908 32.929 69.5588 32.929C69.4688 32.929 69.3758 32.905 69.2798 32.857C69.1838 32.803 69.0788 32.74 68.9648 32.668C68.8508 32.59 68.7188 32.506 68.5688 32.416C68.4188 32.326 68.2448 32.245 68.0468 32.173C67.8488 32.095 67.6178 32.032 67.3538 31.984C67.0958 31.93 66.7958 31.903 66.4538 31.903C65.8718 31.903 65.3378 32.008 64.8518 32.218C64.3718 32.422 63.9578 32.722 63.6098 33.118C63.2618 33.508 62.9918 33.988 62.7998 34.558C62.6078 35.122 62.5118 35.767 62.5118 36.493C62.5118 37.225 62.6138 37.876 62.8178 38.446C63.0278 39.016 63.3098 39.496 63.6638 39.886C64.0178 40.276 64.4348 40.576 64.9148 40.786C65.3948 40.99 65.9108 41.092 66.4628 41.092C66.7928 41.092 67.0898 41.074 67.3538 41.038C67.6238 41.002 67.8698 40.945 68.0918 40.867C68.3198 40.789 68.5328 40.69 68.7308 40.57C68.9348 40.444 69.1358 40.291 69.3338 40.111C69.3938 40.057 69.4568 40.015 69.5228 39.985C69.5888 39.949 69.6578 39.931 69.7298 39.931ZM76.6261 36.178C77.0821 36.178 77.4781 36.121 77.8141 36.007C78.1561 35.893 78.4351 35.737 78.6511 35.539C78.8731 35.335 79.0381 35.095 79.1461 34.819C79.2541 34.543 79.3081 34.24 79.3081 33.91C79.3081 33.25 79.0891 32.743 78.6511 32.389C78.2191 32.035 77.5561 31.858 76.6621 31.858H75.1141V36.178H76.6261ZM82.8541 43H80.6671C80.2531 43 79.9531 42.838 79.7671 42.514L77.0311 38.347C76.9291 38.191 76.8151 38.08 76.6891 38.014C76.5691 37.948 76.3891 37.915 76.1491 37.915H75.1141V43H72.6931V29.986H76.6621C77.5441 29.986 78.3001 30.079 78.9301 30.265C79.5661 30.445 80.0851 30.7 80.4871 31.03C80.8951 31.36 81.1951 31.756 81.3871 32.218C81.5791 32.674 81.6751 33.178 81.6751 33.73C81.6751 34.168 81.6091 34.582 81.4771 34.972C81.3511 35.362 81.1651 35.716 80.9191 36.034C80.6791 36.352 80.3791 36.631 80.0191 36.871C79.6651 37.111 79.2601 37.3 78.8041 37.438C78.9601 37.528 79.1041 37.636 79.2361 37.762C79.3681 37.882 79.4881 38.026 79.5961 38.194L82.8541 43ZM91.0575 35.44H91.6245C91.8525 35.44 92.0415 35.41 92.1915 35.35C92.3415 35.284 92.4705 35.182 92.5785 35.044L96.1695 30.499C96.3195 30.307 96.4755 30.175 96.6375 30.103C96.8055 30.025 97.0155 29.986 97.2675 29.986H99.3555L94.9725 35.395C94.7145 35.725 94.4475 35.959 94.1715 36.097C94.3695 36.169 94.5465 36.271 94.7025 36.403C94.8645 36.529 95.0175 36.697 95.1615 36.907L99.6795 43H97.5465C97.2585 43 97.0425 42.961 96.8985 42.883C96.7605 42.799 96.6435 42.679 96.5475 42.523L92.8665 37.717C92.7525 37.555 92.6205 37.441 92.4705 37.375C92.3205 37.309 92.1045 37.276 91.8225 37.276H91.0575V43H88.6365V29.986H91.0575V35.44ZM102.704 34.9C102.89 34.714 103.085 34.543 103.289 34.387C103.499 34.225 103.718 34.09 103.946 33.982C104.18 33.868 104.429 33.781 104.693 33.721C104.957 33.655 105.245 33.622 105.557 33.622C106.061 33.622 106.508 33.709 106.898 33.883C107.288 34.051 107.612 34.291 107.87 34.603C108.134 34.909 108.332 35.278 108.464 35.71C108.602 36.136 108.671 36.607 108.671 37.123V43H106.448V37.123C106.448 36.559 106.319 36.124 106.061 35.818C105.803 35.506 105.41 35.35 104.882 35.35C104.498 35.35 104.138 35.437 103.802 35.611C103.466 35.785 103.148 36.022 102.848 36.322V43H100.625V33.766H101.984C102.272 33.766 102.461 33.901 102.551 34.171L102.704 34.9ZM114.872 33.622C115.556 33.622 116.177 33.733 116.735 33.955C117.299 34.177 117.779 34.492 118.175 34.9C118.576 35.308 118.885 35.806 119.102 36.394C119.318 36.982 119.426 37.639 119.426 38.365C119.426 39.097 119.318 39.757 119.102 40.345C118.885 40.933 118.576 41.434 118.175 41.848C117.779 42.262 117.299 42.58 116.735 42.802C116.177 43.024 115.556 43.135 114.872 43.135C114.182 43.135 113.555 43.024 112.991 42.802C112.427 42.58 111.944 42.262 111.542 41.848C111.146 41.434 110.837 40.933 110.615 40.345C110.399 39.757 110.291 39.097 110.291 38.365C110.291 37.639 110.399 36.982 110.615 36.394C110.837 35.806 111.146 35.308 111.542 34.9C111.944 34.492 112.427 34.177 112.991 33.955C113.555 33.733 114.182 33.622 114.872 33.622ZM114.872 41.425C115.64 41.425 116.207 41.167 116.573 40.651C116.945 40.135 117.131 39.379 117.131 38.383C117.131 37.387 116.945 36.628 116.573 36.106C116.207 35.584 115.64 35.323 114.872 35.323C114.092 35.323 113.513 35.587 113.135 36.115C112.763 36.637 112.577 37.393 112.577 38.383C112.577 39.373 112.763 40.129 113.135 40.651C113.513 41.167 114.092 41.425 114.872 41.425ZM134.148 33.766L131.214 43H129.432C129.228 43 129.087 42.868 129.009 42.604L127.353 37.267C127.299 37.087 127.248 36.91 127.2 36.736C127.158 36.556 127.122 36.376 127.092 36.196C127.056 36.376 127.014 36.559 126.966 36.745C126.924 36.925 126.876 37.105 126.822 37.285L125.139 42.604C125.067 42.868 124.908 43 124.662 43H122.952L120.027 33.766H121.8C121.962 33.766 122.1 33.805 122.214 33.883C122.328 33.961 122.403 34.06 122.439 34.18L123.762 39.112C123.828 39.382 123.885 39.646 123.933 39.904C123.987 40.162 124.032 40.42 124.068 40.678C124.134 40.42 124.203 40.162 124.275 39.904C124.353 39.646 124.434 39.382 124.518 39.112L126.048 34.162C126.084 34.042 126.153 33.943 126.255 33.865C126.363 33.787 126.492 33.748 126.642 33.748H127.623C127.779 33.748 127.911 33.787 128.019 33.865C128.133 33.943 128.208 34.042 128.244 34.162L129.729 39.112C129.807 39.382 129.879 39.649 129.945 39.913C130.017 40.171 130.086 40.429 130.152 40.687C130.23 40.177 130.341 39.652 130.485 39.112L131.844 34.18C131.886 34.06 131.961 33.961 132.069 33.883C132.177 33.805 132.306 33.766 132.456 33.766H134.148ZM137.662 29.626V43H135.439V29.626H137.662ZM145.826 37.321C145.826 37.033 145.784 36.763 145.7 36.511C145.622 36.253 145.502 36.028 145.34 35.836C145.178 35.644 144.971 35.494 144.719 35.386C144.473 35.272 144.185 35.215 143.855 35.215C143.213 35.215 142.706 35.398 142.334 35.764C141.968 36.13 141.734 36.649 141.632 37.321H145.826ZM141.587 38.662C141.623 39.136 141.707 39.547 141.839 39.895C141.971 40.237 142.145 40.522 142.361 40.75C142.577 40.972 142.832 41.14 143.126 41.254C143.426 41.362 143.756 41.416 144.116 41.416C144.476 41.416 144.785 41.374 145.043 41.29C145.307 41.206 145.535 41.113 145.727 41.011C145.925 40.909 146.096 40.816 146.24 40.732C146.39 40.648 146.534 40.606 146.672 40.606C146.858 40.606 146.996 40.675 147.086 40.813L147.725 41.623C147.479 41.911 147.203 42.154 146.897 42.352C146.591 42.544 146.27 42.7 145.934 42.82C145.604 42.934 145.265 43.015 144.917 43.063C144.575 43.111 144.242 43.135 143.918 43.135C143.276 43.135 142.679 43.03 142.127 42.82C141.575 42.604 141.095 42.289 140.687 41.875C140.279 41.455 139.958 40.939 139.724 40.327C139.49 39.709 139.373 38.995 139.373 38.185C139.373 37.555 139.475 36.964 139.679 36.412C139.883 35.854 140.174 35.371 140.552 34.963C140.936 34.549 141.401 34.222 141.947 33.982C142.499 33.742 143.12 33.622 143.81 33.622C144.392 33.622 144.929 33.715 145.421 33.901C145.913 34.087 146.336 34.36 146.69 34.72C147.044 35.074 147.32 35.512 147.518 36.034C147.722 36.55 147.824 37.141 147.824 37.807C147.824 38.143 147.788 38.371 147.716 38.491C147.644 38.605 147.506 38.662 147.302 38.662H141.587ZM155.289 36.124C155.037 35.818 154.761 35.602 154.461 35.476C154.167 35.35 153.849 35.287 153.507 35.287C153.171 35.287 152.868 35.35 152.598 35.476C152.328 35.602 152.097 35.794 151.905 36.052C151.713 36.304 151.566 36.628 151.464 37.024C151.362 37.414 151.311 37.876 151.311 38.41C151.311 38.95 151.353 39.409 151.437 39.787C151.527 40.159 151.653 40.465 151.815 40.705C151.977 40.939 152.175 41.11 152.409 41.218C152.643 41.32 152.904 41.371 153.192 41.371C153.654 41.371 154.047 41.275 154.371 41.083C154.695 40.891 155.001 40.618 155.289 40.264V36.124ZM157.512 29.626V43H156.153C155.859 43 155.673 42.865 155.595 42.595L155.406 41.704C155.034 42.13 154.605 42.475 154.119 42.739C153.639 43.003 153.078 43.135 152.436 43.135C151.932 43.135 151.47 43.03 151.05 42.82C150.63 42.61 150.267 42.307 149.961 41.911C149.661 41.509 149.427 41.014 149.259 40.426C149.097 39.838 149.016 39.166 149.016 38.41C149.016 37.726 149.109 37.09 149.295 36.502C149.481 35.914 149.748 35.404 150.096 34.972C150.444 34.54 150.861 34.204 151.347 33.964C151.833 33.718 152.379 33.595 152.985 33.595C153.501 33.595 153.942 33.676 154.308 33.838C154.674 34 155.001 34.219 155.289 34.495V29.626H157.512ZM163.08 38.158C163.356 38.158 163.596 38.122 163.8 38.05C164.004 37.972 164.172 37.867 164.304 37.735C164.442 37.603 164.544 37.444 164.61 37.258C164.682 37.072 164.718 36.868 164.718 36.646C164.718 36.19 164.58 35.83 164.304 35.566C164.034 35.296 163.626 35.161 163.08 35.161C162.534 35.161 162.123 35.296 161.847 35.566C161.577 35.83 161.442 36.19 161.442 36.646C161.442 36.862 161.475 37.063 161.541 37.249C161.613 37.435 161.715 37.597 161.847 37.735C161.985 37.867 162.156 37.972 162.36 38.05C162.57 38.122 162.81 38.158 163.08 38.158ZM165.591 43.414C165.591 43.234 165.537 43.087 165.429 42.973C165.321 42.859 165.174 42.772 164.988 42.712C164.802 42.646 164.583 42.598 164.331 42.568C164.085 42.538 163.821 42.517 163.539 42.505C163.263 42.487 162.975 42.472 162.675 42.46C162.381 42.448 162.093 42.424 161.811 42.388C161.565 42.526 161.364 42.688 161.208 42.874C161.058 43.06 160.983 43.276 160.983 43.522C160.983 43.684 161.022 43.834 161.1 43.972C161.184 44.116 161.313 44.239 161.487 44.341C161.667 44.443 161.898 44.521 162.18 44.575C162.462 44.635 162.807 44.665 163.215 44.665C163.629 44.665 163.986 44.632 164.286 44.566C164.586 44.506 164.832 44.419 165.024 44.305C165.222 44.197 165.366 44.065 165.456 43.909C165.546 43.759 165.591 43.594 165.591 43.414ZM167.805 34.081V34.909C167.805 35.173 167.646 35.335 167.328 35.395L166.5 35.548C166.626 35.866 166.689 36.214 166.689 36.592C166.689 37.048 166.596 37.462 166.41 37.834C166.23 38.2 165.978 38.512 165.654 38.77C165.33 39.028 164.946 39.229 164.502 39.373C164.064 39.511 163.59 39.58 163.08 39.58C162.9 39.58 162.726 39.571 162.558 39.553C162.39 39.535 162.225 39.511 162.063 39.481C161.775 39.655 161.631 39.85 161.631 40.066C161.631 40.252 161.715 40.39 161.883 40.48C162.057 40.564 162.285 40.624 162.567 40.66C162.849 40.696 163.17 40.72 163.53 40.732C163.89 40.738 164.259 40.756 164.637 40.786C165.015 40.816 165.384 40.87 165.744 40.948C166.104 41.02 166.425 41.137 166.707 41.299C166.989 41.461 167.214 41.683 167.382 41.965C167.556 42.241 167.643 42.598 167.643 43.036C167.643 43.444 167.541 43.84 167.337 44.224C167.139 44.608 166.848 44.95 166.464 45.25C166.086 45.55 165.618 45.79 165.06 45.97C164.508 46.156 163.878 46.249 163.17 46.249C162.474 46.249 161.868 46.18 161.352 46.042C160.836 45.91 160.407 45.73 160.065 45.502C159.723 45.28 159.468 45.022 159.3 44.728C159.132 44.434 159.048 44.128 159.048 43.81C159.048 43.378 159.177 43.018 159.435 42.73C159.699 42.436 160.059 42.202 160.515 42.028C160.269 41.902 160.074 41.734 159.93 41.524C159.786 41.314 159.714 41.038 159.714 40.696C159.714 40.558 159.738 40.417 159.786 40.273C159.84 40.123 159.915 39.976 160.011 39.832C160.113 39.688 160.239 39.553 160.389 39.427C160.539 39.295 160.716 39.178 160.92 39.076C160.452 38.824 160.083 38.488 159.813 38.068C159.549 37.648 159.417 37.156 159.417 36.592C159.417 36.136 159.507 35.725 159.687 35.359C159.873 34.987 160.128 34.672 160.452 34.414C160.782 34.15 161.169 33.949 161.613 33.811C162.063 33.673 162.552 33.604 163.08 33.604C163.476 33.604 163.848 33.646 164.196 33.73C164.544 33.808 164.862 33.925 165.15 34.081H167.805ZM175.006 37.321C175.006 37.033 174.964 36.763 174.88 36.511C174.802 36.253 174.682 36.028 174.52 35.836C174.358 35.644 174.151 35.494 173.899 35.386C173.653 35.272 173.365 35.215 173.035 35.215C172.393 35.215 171.886 35.398 171.514 35.764C171.148 36.13 170.914 36.649 170.812 37.321H175.006ZM170.767 38.662C170.803 39.136 170.887 39.547 171.019 39.895C171.151 40.237 171.325 40.522 171.541 40.75C171.757 40.972 172.012 41.14 172.306 41.254C172.606 41.362 172.936 41.416 173.296 41.416C173.656 41.416 173.965 41.374 174.223 41.29C174.487 41.206 174.715 41.113 174.907 41.011C175.105 40.909 175.276 40.816 175.42 40.732C175.57 40.648 175.714 40.606 175.852 40.606C176.038 40.606 176.176 40.675 176.266 40.813L176.905 41.623C176.659 41.911 176.383 42.154 176.077 42.352C175.771 42.544 175.45 42.7 175.114 42.82C174.784 42.934 174.445 43.015 174.097 43.063C173.755 43.111 173.422 43.135 173.098 43.135C172.456 43.135 171.859 43.03 171.307 42.82C170.755 42.604 170.275 42.289 169.867 41.875C169.459 41.455 169.138 40.939 168.904 40.327C168.67 39.709 168.553 38.995 168.553 38.185C168.553 37.555 168.655 36.964 168.859 36.412C169.063 35.854 169.354 35.371 169.732 34.963C170.116 34.549 170.581 34.222 171.127 33.982C171.679 33.742 172.3 33.622 172.99 33.622C173.572 33.622 174.109 33.715 174.601 33.901C175.093 34.087 175.516 34.36 175.87 34.72C176.224 35.074 176.5 35.512 176.698 36.034C176.902 36.55 177.004 37.141 177.004 37.807C177.004 38.143 176.968 38.371 176.896 38.491C176.824 38.605 176.686 38.662 176.482 38.662H170.767ZM187.63 36.529C188.074 36.529 188.461 36.475 188.791 36.367C189.121 36.253 189.394 36.094 189.61 35.89C189.832 35.68 189.997 35.428 190.105 35.134C190.213 34.834 190.267 34.501 190.267 34.135C190.267 33.787 190.213 33.472 190.105 33.19C189.997 32.908 189.835 32.668 189.619 32.47C189.403 32.272 189.13 32.122 188.8 32.02C188.47 31.912 188.08 31.858 187.63 31.858H185.821V36.529H187.63ZM187.63 29.986C188.5 29.986 189.253 30.088 189.889 30.292C190.525 30.496 191.05 30.781 191.464 31.147C191.878 31.513 192.184 31.951 192.382 32.461C192.586 32.971 192.688 33.529 192.688 34.135C192.688 34.765 192.583 35.344 192.373 35.872C192.163 36.394 191.848 36.844 191.428 37.222C191.008 37.6 190.48 37.894 189.844 38.104C189.214 38.314 188.476 38.419 187.63 38.419H185.821V43H183.4V29.986H187.63ZM197.858 33.622C198.542 33.622 199.163 33.733 199.721 33.955C200.285 34.177 200.765 34.492 201.161 34.9C201.563 35.308 201.872 35.806 202.088 36.394C202.304 36.982 202.412 37.639 202.412 38.365C202.412 39.097 202.304 39.757 202.088 40.345C201.872 40.933 201.563 41.434 201.161 41.848C200.765 42.262 200.285 42.58 199.721 42.802C199.163 43.024 198.542 43.135 197.858 43.135C197.168 43.135 196.541 43.024 195.977 42.802C195.413 42.58 194.93 42.262 194.528 41.848C194.132 41.434 193.823 40.933 193.601 40.345C193.385 39.757 193.277 39.097 193.277 38.365C193.277 37.639 193.385 36.982 193.601 36.394C193.823 35.806 194.132 35.308 194.528 34.9C194.93 34.492 195.413 34.177 195.977 33.955C196.541 33.733 197.168 33.622 197.858 33.622ZM197.858 41.425C198.626 41.425 199.193 41.167 199.559 40.651C199.931 40.135 200.117 39.379 200.117 38.383C200.117 37.387 199.931 36.628 199.559 36.106C199.193 35.584 198.626 35.323 197.858 35.323C197.078 35.323 196.499 35.587 196.121 36.115C195.749 36.637 195.563 37.393 195.563 38.383C195.563 39.373 195.749 40.129 196.121 40.651C196.499 41.167 197.078 41.425 197.858 41.425ZM206.205 35.368C206.493 34.816 206.835 34.384 207.231 34.072C207.627 33.754 208.095 33.595 208.635 33.595C209.061 33.595 209.403 33.688 209.661 33.874L209.517 35.539C209.487 35.647 209.442 35.725 209.382 35.773C209.328 35.815 209.253 35.836 209.157 35.836C209.067 35.836 208.932 35.821 208.752 35.791C208.578 35.761 208.407 35.746 208.239 35.746C207.993 35.746 207.774 35.782 207.582 35.854C207.39 35.926 207.216 36.031 207.06 36.169C206.91 36.301 206.775 36.463 206.655 36.655C206.541 36.847 206.433 37.066 206.331 37.312V43H204.108V33.766H205.413C205.641 33.766 205.8 33.808 205.89 33.892C205.98 33.97 206.04 34.114 206.07 34.324L206.205 35.368ZM213.901 43.144C213.097 43.144 212.479 42.919 212.047 42.469C211.621 42.013 211.408 41.386 211.408 40.588V35.431H210.463C210.343 35.431 210.241 35.392 210.157 35.314C210.073 35.236 210.031 35.119 210.031 34.963V34.081L211.516 33.838L211.984 31.318C212.014 31.198 212.071 31.105 212.155 31.039C212.239 30.973 212.347 30.94 212.479 30.94H213.631V33.847H216.097V35.431H213.631V40.435C213.631 40.723 213.7 40.948 213.838 41.11C213.982 41.272 214.177 41.353 214.423 41.353C214.561 41.353 214.675 41.338 214.765 41.308C214.861 41.272 214.942 41.236 215.008 41.2C215.08 41.164 215.143 41.131 215.197 41.101C215.251 41.065 215.305 41.047 215.359 41.047C215.425 41.047 215.479 41.065 215.521 41.101C215.563 41.131 215.608 41.179 215.656 41.245L216.322 42.325C215.998 42.595 215.626 42.799 215.206 42.937C214.786 43.075 214.351 43.144 213.901 43.144ZM222.398 39.058C221.756 39.088 221.216 39.145 220.778 39.229C220.34 39.307 219.989 39.409 219.725 39.535C219.461 39.661 219.272 39.808 219.158 39.976C219.044 40.144 218.987 40.327 218.987 40.525C218.987 40.915 219.101 41.194 219.329 41.362C219.563 41.53 219.866 41.614 220.238 41.614C220.694 41.614 221.087 41.533 221.417 41.371C221.753 41.203 222.08 40.951 222.398 40.615V39.058ZM217.304 35.053C218.366 34.081 219.644 33.595 221.138 33.595C221.678 33.595 222.161 33.685 222.587 33.865C223.013 34.039 223.373 34.285 223.667 34.603C223.961 34.915 224.183 35.29 224.333 35.728C224.489 36.166 224.567 36.646 224.567 37.168V43H223.559C223.349 43 223.187 42.97 223.073 42.91C222.959 42.844 222.869 42.715 222.803 42.523L222.605 41.857C222.371 42.067 222.143 42.253 221.921 42.415C221.699 42.571 221.468 42.703 221.228 42.811C220.988 42.919 220.73 43 220.454 43.054C220.184 43.114 219.884 43.144 219.554 43.144C219.164 43.144 218.804 43.093 218.474 42.991C218.144 42.883 217.859 42.724 217.619 42.514C217.379 42.304 217.193 42.043 217.061 41.731C216.929 41.419 216.863 41.056 216.863 40.642C216.863 40.408 216.902 40.177 216.98 39.949C217.058 39.715 217.184 39.493 217.358 39.283C217.538 39.073 217.769 38.875 218.051 38.689C218.333 38.503 218.678 38.341 219.086 38.203C219.5 38.065 219.98 37.954 220.526 37.87C221.072 37.78 221.696 37.726 222.398 37.708V37.168C222.398 36.55 222.266 36.094 222.002 35.8C221.738 35.5 221.357 35.35 220.859 35.35C220.499 35.35 220.199 35.392 219.959 35.476C219.725 35.56 219.518 35.656 219.338 35.764C219.158 35.866 218.993 35.959 218.843 36.043C218.699 36.127 218.537 36.169 218.357 36.169C218.201 36.169 218.069 36.13 217.961 36.052C217.853 35.968 217.766 35.872 217.7 35.764L217.304 35.053ZM228.911 29.626V43H226.688V29.626H228.911Z" fill="white"/>
<path d="M57.4265 57.55C57.7031 57.55 57.9465 57.5133 58.1565 57.44C58.3698 57.3667 58.5481 57.265 58.6915 57.135C58.8381 57.0017 58.9481 56.8433 59.0215 56.66C59.0948 56.4767 59.1315 56.275 59.1315 56.055C59.1315 55.5983 58.9898 55.2417 58.7065 54.985C58.4265 54.7283 57.9998 54.6 57.4265 54.6H56.2765V57.55H57.4265ZM57.4265 53.835C57.8798 53.835 58.2731 53.8883 58.6065 53.995C58.9431 54.0983 59.2215 54.2467 59.4415 54.44C59.6615 54.6333 59.8248 54.8667 59.9315 55.14C60.0415 55.4133 60.0965 55.7183 60.0965 56.055C60.0965 56.3883 60.0381 56.6933 59.9215 56.97C59.8048 57.2467 59.6331 57.485 59.4065 57.685C59.1831 57.885 58.9048 58.0417 58.5715 58.155C58.2415 58.265 57.8598 58.32 57.4265 58.32H56.2765V61H55.3115V53.835H57.4265ZM68.4373 57.42C68.4373 57.9567 68.3523 58.45 68.1823 58.9C68.0123 59.3467 67.7723 59.7317 67.4623 60.055C67.1523 60.3783 66.779 60.63 66.3423 60.81C65.909 60.9867 65.429 61.075 64.9023 61.075C64.3757 61.075 63.8957 60.9867 63.4623 60.81C63.029 60.63 62.6573 60.3783 62.3473 60.055C62.0373 59.7317 61.7973 59.3467 61.6273 58.9C61.4573 58.45 61.3723 57.9567 61.3723 57.42C61.3723 56.8833 61.4573 56.3917 61.6273 55.945C61.7973 55.495 62.0373 55.1083 62.3473 54.785C62.6573 54.4583 63.029 54.205 63.4623 54.025C63.8957 53.845 64.3757 53.755 64.9023 53.755C65.429 53.755 65.909 53.845 66.3423 54.025C66.779 54.205 67.1523 54.4583 67.4623 54.785C67.7723 55.1083 68.0123 55.495 68.1823 55.945C68.3523 56.3917 68.4373 56.8833 68.4373 57.42ZM67.4423 57.42C67.4423 56.98 67.3823 56.585 67.2623 56.235C67.1423 55.885 66.9723 55.59 66.7523 55.35C66.5323 55.1067 66.2657 54.92 65.9523 54.79C65.639 54.66 65.289 54.595 64.9023 54.595C64.519 54.595 64.1707 54.66 63.8573 54.79C63.544 54.92 63.2757 55.1067 63.0523 55.35C62.8323 55.59 62.6623 55.885 62.5423 56.235C62.4223 56.585 62.3623 56.98 62.3623 57.42C62.3623 57.86 62.4223 58.255 62.5423 58.605C62.6623 58.9517 62.8323 59.2467 63.0523 59.49C63.2757 59.73 63.544 59.915 63.8573 60.045C64.1707 60.1717 64.519 60.235 64.9023 60.235C65.289 60.235 65.639 60.1717 65.9523 60.045C66.2657 59.915 66.5323 59.73 66.7523 59.49C66.9723 59.2467 67.1423 58.9517 67.2623 58.605C67.3823 58.255 67.4423 57.86 67.4423 57.42ZM79.5027 53.835L77.2677 61H76.3977L74.5827 55.535C74.5661 55.4817 74.5494 55.425 74.5327 55.365C74.5194 55.305 74.5044 55.2417 74.4877 55.175C74.4711 55.2417 74.4544 55.305 74.4377 55.365C74.4211 55.425 74.4044 55.4817 74.3877 55.535L72.5627 61H71.6927L69.4577 53.835H70.2627C70.3494 53.835 70.4211 53.8567 70.4777 53.9C70.5377 53.9433 70.5761 53.9983 70.5927 54.065L72.0727 59.045C72.0961 59.135 72.1177 59.2317 72.1377 59.335C72.1611 59.4383 72.1827 59.5483 72.2027 59.665C72.2261 59.5483 72.2494 59.4383 72.2727 59.335C72.2994 59.2283 72.3277 59.1317 72.3577 59.045L74.0427 54.065C74.0627 54.0083 74.1011 53.9567 74.1577 53.91C74.2177 53.86 74.2894 53.835 74.3727 53.835H74.6527C74.7394 53.835 74.8094 53.8567 74.8627 53.9C74.9161 53.9433 74.9561 53.9983 74.9827 54.065L76.6627 59.045C76.6927 59.1317 76.7194 59.225 76.7427 59.325C76.7694 59.425 76.7944 59.53 76.8177 59.64C76.8344 59.53 76.8527 59.425 76.8727 59.325C76.8927 59.225 76.9144 59.1317 76.9377 59.045L78.4227 54.065C78.4394 54.005 78.4761 53.9517 78.5327 53.905C78.5927 53.8583 78.6644 53.835 78.7477 53.835H79.5027ZM85.4893 60.21L85.4843 61H81.0693V53.835H85.4843V54.625H82.0393V57.005H84.8293V57.765H82.0393V60.21H85.4893ZM89.3258 57.305C89.6058 57.305 89.8524 57.2717 90.0658 57.205C90.2824 57.135 90.4624 57.0383 90.6058 56.915C90.7524 56.7883 90.8624 56.6383 90.9358 56.465C91.0091 56.2917 91.0458 56.1 91.0458 55.89C91.0458 55.4633 90.9058 55.1417 90.6258 54.925C90.3458 54.7083 89.9258 54.6 89.3658 54.6H88.3058V57.305H89.3258ZM92.6358 61H91.7758C91.5991 61 91.4691 60.9317 91.3858 60.795L89.5258 58.235C89.4691 58.155 89.4074 58.0983 89.3408 58.065C89.2774 58.0283 89.1774 58.01 89.0408 58.01H88.3058V61H87.3408V53.835H89.3658C89.8191 53.835 90.2108 53.8817 90.5408 53.975C90.8708 54.065 91.1424 54.1967 91.3558 54.37C91.5724 54.5433 91.7324 54.7533 91.8358 55C91.9391 55.2433 91.9908 55.5167 91.9908 55.82C91.9908 56.0733 91.9508 56.31 91.8708 56.53C91.7908 56.75 91.6741 56.9483 91.5208 57.125C91.3708 57.2983 91.1858 57.4467 90.9658 57.57C90.7491 57.6933 90.5024 57.7867 90.2258 57.85C90.3491 57.92 90.4558 58.0217 90.5458 58.155L92.6358 61ZM98.5303 60.21L98.5253 61H94.1103V53.835H98.5253V54.625H95.0803V57.005H97.8703V57.765H95.0803V60.21H98.5303ZM106.592 57.42C106.592 57.9567 106.507 58.445 106.337 58.885C106.167 59.325 105.927 59.7017 105.617 60.015C105.307 60.3283 104.933 60.5717 104.497 60.745C104.063 60.915 103.583 61 103.057 61H100.382V53.835H103.057C103.583 53.835 104.063 53.9217 104.497 54.095C104.933 54.265 105.307 54.5083 105.617 54.825C105.927 55.1383 106.167 55.515 106.337 55.955C106.507 56.395 106.592 56.8833 106.592 57.42ZM105.597 57.42C105.597 56.98 105.537 56.5867 105.417 56.24C105.297 55.8933 105.127 55.6 104.907 55.36C104.687 55.12 104.42 54.9367 104.107 54.81C103.793 54.6833 103.443 54.62 103.057 54.62H101.352V60.215H103.057C103.443 60.215 103.793 60.1517 104.107 60.025C104.42 59.8983 104.687 59.7167 104.907 59.48C105.127 59.24 105.297 58.9467 105.417 58.6C105.537 58.2533 105.597 57.86 105.597 57.42ZM114.063 60.23C114.339 60.23 114.578 60.1983 114.778 60.135C114.978 60.0717 115.141 59.9833 115.268 59.87C115.398 59.7533 115.493 59.6167 115.553 59.46C115.613 59.3 115.643 59.125 115.643 58.935C115.643 58.565 115.511 58.2733 115.248 58.06C114.984 57.8433 114.589 57.735 114.063 57.735H112.513V60.23H114.063ZM112.513 54.6V57.045H113.793C114.066 57.045 114.303 57.015 114.503 56.955C114.706 56.895 114.873 56.8117 115.003 56.705C115.136 56.5983 115.234 56.47 115.298 56.32C115.361 56.1667 115.393 56 115.393 55.82C115.393 55.3967 115.266 55.0883 115.013 54.895C114.759 54.6983 114.366 54.6 113.833 54.6H112.513ZM113.833 53.835C114.273 53.835 114.651 53.8783 114.968 53.965C115.288 54.0517 115.549 54.175 115.753 54.335C115.959 54.495 116.111 54.6917 116.208 54.925C116.304 55.155 116.353 55.415 116.353 55.705C116.353 55.8817 116.324 56.0517 116.268 56.215C116.214 56.375 116.133 56.525 116.023 56.665C115.913 56.805 115.773 56.9317 115.603 57.045C115.436 57.155 115.239 57.245 115.013 57.315C115.539 57.415 115.934 57.6033 116.198 57.88C116.464 58.1533 116.598 58.5133 116.598 58.96C116.598 59.2633 116.541 59.54 116.428 59.79C116.318 60.04 116.154 60.255 115.938 60.435C115.724 60.615 115.461 60.755 115.148 60.855C114.834 60.9517 114.478 61 114.078 61H111.548V53.835H113.833ZM120.968 58.145V61H119.998V58.145L117.373 53.835H118.223C118.31 53.835 118.378 53.8567 118.428 53.9C118.478 53.94 118.522 53.9933 118.558 54.06L120.198 56.845C120.258 56.9617 120.313 57.0717 120.363 57.175C120.413 57.275 120.457 57.3767 120.493 57.48C120.53 57.3767 120.572 57.275 120.618 57.175C120.665 57.0717 120.717 56.9617 120.773 56.845L122.408 54.06C122.438 54.0033 122.48 53.9517 122.533 53.905C122.587 53.8583 122.655 53.835 122.738 53.835H123.593L120.968 58.145Z" fill="white"/>
<path d="M152.316 55.0369C152.285 55.0878 152.251 55.1268 152.214 55.154C152.18 55.1777 152.137 55.1896 152.086 55.1896C152.029 55.1896 151.961 55.1608 151.882 55.1031C151.804 55.0454 151.706 54.9826 151.587 54.9147C151.471 54.8434 151.33 54.779 151.163 54.7213C151 54.6635 150.801 54.6347 150.566 54.6347C150.345 54.6347 150.15 54.6653 149.98 54.7263C149.813 54.784 149.672 54.8638 149.557 54.9656C149.444 55.0674 149.359 55.1879 149.301 55.3271C149.244 55.4628 149.215 55.6105 149.215 55.77C149.215 55.9736 149.264 56.1433 149.363 56.2791C149.465 56.4114 149.597 56.5251 149.761 56.6202C149.927 56.7152 150.114 56.7983 150.322 56.8696C150.532 56.9375 150.747 57.0088 150.964 57.0834C151.185 57.1581 151.4 57.243 151.607 57.338C151.818 57.4296 152.005 57.5467 152.168 57.6892C152.335 57.8318 152.467 58.0066 152.566 58.2136C152.668 58.4206 152.719 58.6752 152.719 58.9772C152.719 59.2963 152.665 59.5966 152.556 59.8783C152.447 60.1566 152.287 60.3993 152.076 60.6063C151.869 60.8134 151.612 60.9763 151.306 61.0951C151.003 61.2139 150.658 61.2732 150.271 61.2732C149.795 61.2732 149.363 61.1884 148.975 61.0187C148.587 60.8456 148.256 60.6131 147.98 60.3212L148.266 59.8529C148.293 59.8155 148.326 59.785 148.363 59.7612C148.404 59.7341 148.448 59.7205 148.496 59.7205C148.54 59.7205 148.589 59.7392 148.643 59.7765C148.701 59.8105 148.766 59.8546 148.837 59.9089C148.909 59.9632 148.99 60.0226 149.082 60.0871C149.174 60.1515 149.278 60.2109 149.393 60.2652C149.512 60.3195 149.647 60.3654 149.796 60.4027C149.946 60.4366 150.114 60.4536 150.301 60.4536C150.536 60.4536 150.745 60.4214 150.929 60.3569C151.112 60.2924 151.267 60.2024 151.393 60.0871C151.522 59.9683 151.621 59.8274 151.689 59.6645C151.757 59.5016 151.791 59.32 151.791 59.1198C151.791 58.8992 151.74 58.7193 151.638 58.5802C151.539 58.4376 151.408 58.3188 151.245 58.2238C151.082 58.1288 150.895 58.049 150.684 57.9845C150.473 57.9166 150.259 57.8488 150.041 57.7809C149.823 57.7096 149.609 57.6282 149.398 57.5365C149.188 57.4449 149.001 57.3261 148.837 57.1802C148.674 57.0342 148.541 56.8526 148.439 56.6354C148.341 56.4148 148.292 56.1433 148.292 55.8209C148.292 55.563 148.341 55.3135 148.439 55.0725C148.541 54.8315 148.688 54.6177 148.878 54.4311C149.072 54.2444 149.308 54.0951 149.587 53.9831C149.869 53.8711 150.192 53.8151 150.556 53.8151C150.964 53.8151 151.335 53.8795 151.668 54.0085C152.005 54.1375 152.301 54.3242 152.556 54.5685L152.316 55.0369Z" fill="white"/>
<path d="M158.878 58.285V61.1919H157.889V58.285L155.211 53.8966H156.078C156.166 53.8966 156.236 53.9187 156.287 53.9628C156.338 54.0035 156.382 54.0578 156.42 54.1257L158.093 56.9613C158.154 57.0801 158.21 57.1921 158.261 57.2973C158.312 57.3991 158.356 57.5027 158.394 57.6079C158.431 57.5027 158.474 57.3991 158.521 57.2973C158.569 57.1921 158.621 57.0801 158.679 56.9613L160.347 54.1257C160.378 54.068 160.42 54.0154 160.475 53.9679C160.529 53.9204 160.599 53.8966 160.684 53.8966H161.556L158.878 58.285Z" fill="white"/>
<path d="M170.08 53.8966V61.1919H169.585C169.507 61.1919 169.441 61.1783 169.386 61.1512C169.335 61.124 169.284 61.0782 169.233 61.0137L165.005 55.5155C165.012 55.6004 165.017 55.6835 165.02 55.765C165.024 55.8464 165.025 55.9228 165.025 55.9941V61.1919H164.158V53.8966H164.668C164.712 53.8966 164.75 53.9 164.78 53.9068C164.811 53.9102 164.838 53.9187 164.862 53.9322C164.886 53.9424 164.91 53.9594 164.934 53.9831C164.957 54.0035 164.983 54.0307 165.01 54.0646L169.238 59.5577C169.232 59.4694 169.225 59.3846 169.218 59.3031C169.214 59.2183 169.213 59.1385 169.213 59.0639V53.8966H170.08Z" fill="white"/>
<path d="M177.743 58.4835L176.596 55.5155C176.562 55.4273 176.526 55.3254 176.489 55.2101C176.451 55.0913 176.415 54.9657 176.382 54.8333C176.31 55.1082 176.237 55.3373 176.162 55.5206L175.015 58.4835H177.743ZM179.804 61.1919H179.039C178.95 61.1919 178.879 61.1698 178.825 61.1257C178.77 61.0816 178.729 61.0256 178.702 60.9577L178.019 59.1962H174.739L174.056 60.9577C174.035 61.0188 173.996 61.0731 173.938 61.1206C173.88 61.1681 173.809 61.1919 173.724 61.1919H172.959L175.882 53.8966H176.881L179.804 61.1919Z" fill="white"/>
<path d="M185.09 57.6791C185.373 57.6791 185.621 57.6418 185.835 57.5671C186.052 57.4925 186.235 57.389 186.381 57.2566C186.53 57.1209 186.643 56.9596 186.717 56.773C186.792 56.5863 186.83 56.381 186.83 56.157C186.83 55.692 186.685 55.3289 186.396 55.0675C186.11 54.8062 185.675 54.6755 185.09 54.6755H183.917V57.6791H185.09ZM185.09 53.8966C185.553 53.8966 185.954 53.9509 186.294 54.0595C186.637 54.1647 186.921 54.3158 187.146 54.5126C187.37 54.7094 187.537 54.947 187.646 55.2253C187.758 55.5036 187.814 55.8142 187.814 56.157C187.814 56.4964 187.755 56.8069 187.635 57.0886C187.516 57.3703 187.341 57.613 187.11 57.8166C186.882 58.0202 186.598 58.1798 186.258 58.2951C185.922 58.4071 185.532 58.4631 185.09 58.4631H183.917V61.1919H182.933V53.8966H185.09Z" fill="white"/>
<path d="M195.221 55.0369C195.191 55.0878 195.157 55.1268 195.119 55.154C195.085 55.1777 195.043 55.1896 194.992 55.1896C194.934 55.1896 194.866 55.1608 194.788 55.1031C194.71 55.0454 194.611 54.9826 194.492 54.9147C194.376 54.8434 194.235 54.779 194.069 54.7213C193.905 54.6635 193.706 54.6347 193.472 54.6347C193.251 54.6347 193.055 54.6653 192.885 54.7263C192.719 54.784 192.578 54.8638 192.462 54.9656C192.35 55.0674 192.265 55.1879 192.207 55.3271C192.149 55.4628 192.12 55.6105 192.12 55.77C192.12 55.9736 192.17 56.1433 192.268 56.2791C192.37 56.4114 192.503 56.5251 192.666 56.6202C192.833 56.7152 193.02 56.7983 193.227 56.8696C193.438 56.9375 193.652 57.0088 193.87 57.0834C194.091 57.1581 194.305 57.243 194.512 57.338C194.723 57.4296 194.91 57.5467 195.073 57.6892C195.24 57.8318 195.373 58.0066 195.471 58.2136C195.573 58.4206 195.624 58.6752 195.624 58.9772C195.624 59.2963 195.57 59.5966 195.461 59.8783C195.352 60.1566 195.192 60.3993 194.982 60.6063C194.774 60.8134 194.517 60.9763 194.211 61.0951C193.909 61.2139 193.564 61.2732 193.176 61.2732C192.7 61.2732 192.268 61.1884 191.88 61.0187C191.493 60.8456 191.161 60.6131 190.886 60.3212L191.171 59.8529C191.199 59.8155 191.231 59.785 191.268 59.7612C191.309 59.7341 191.353 59.7205 191.401 59.7205C191.445 59.7205 191.495 59.7392 191.549 59.7765C191.607 59.8105 191.671 59.8546 191.743 59.9089C191.814 59.9632 191.896 60.0226 191.987 60.0871C192.079 60.1515 192.183 60.2109 192.299 60.2652C192.418 60.3195 192.552 60.3654 192.702 60.4027C192.851 60.4366 193.02 60.4536 193.207 60.4536C193.441 60.4536 193.65 60.4214 193.834 60.3569C194.018 60.2924 194.172 60.2024 194.298 60.0871C194.427 59.9683 194.526 59.8274 194.594 59.6645C194.662 59.5016 194.696 59.32 194.696 59.1198C194.696 58.8992 194.645 58.7193 194.543 58.5802C194.444 58.4376 194.313 58.3188 194.15 58.2238C193.987 58.1288 193.8 58.049 193.589 57.9845C193.378 57.9166 193.164 57.8488 192.946 57.7809C192.729 57.7096 192.515 57.6282 192.304 57.5365C192.093 57.4449 191.906 57.3261 191.743 57.1802C191.579 57.0342 191.447 56.8526 191.345 56.6354C191.246 56.4148 191.197 56.1433 191.197 55.8209C191.197 55.563 191.246 55.3135 191.345 55.0725C191.447 54.8315 191.593 54.6177 191.783 54.4311C191.977 54.2444 192.214 54.0951 192.492 53.9831C192.775 53.8711 193.098 53.8151 193.462 53.8151C193.87 53.8151 194.24 53.8795 194.574 54.0085C194.91 54.1375 195.206 54.3242 195.461 54.5685L195.221 55.0369Z" fill="white"/>
<path d="M203.953 60.3875L203.948 61.1919H199.444V53.8966H203.948V54.701H200.434V57.1242H203.28V57.8981H200.434V60.3875H203.953Z" fill="white"/>
<path d="M136.955 53.7349L132.239 56.4575L132.806 57.4351L137.521 54.7125L136.955 53.7349Z" fill="white"/>
<path d="M137.295 60.7192L132.592 58.0212L132.025 59.0046L136.729 61.7026L137.295 60.7192Z" fill="white"/>
<path d="M138.381 60.0839L138.383 54.6477L139.515 54.6482L139.513 60.0844L138.381 60.0839Z" fill="white"/>
<path fill-rule="evenodd" clip-rule="evenodd" d="M132.231 59.6101C133.316 58.9835 133.688 57.6002 133.062 56.5204C132.437 55.4405 131.049 55.073 129.964 55.6995C128.879 56.3261 128.507 57.7094 129.133 58.7892C129.759 59.869 131.146 60.2367 132.231 59.6101ZM131.664 58.6323C132.207 58.3191 132.393 57.6274 132.08 57.0874C131.767 56.5475 131.073 56.3637 130.531 56.677C129.988 56.9903 129.802 57.6819 130.115 58.2219C130.428 58.7618 131.121 58.9456 131.664 58.6323Z" fill="white"/>
<path fill-rule="evenodd" clip-rule="evenodd" d="M140.075 55.045C141.16 54.4183 141.532 53.035 140.906 51.9552C140.28 50.8753 138.893 50.5079 137.808 51.1344C136.723 51.7609 136.351 53.1442 136.977 54.224C137.603 55.3039 138.99 55.6715 140.075 55.045ZM139.508 54.0671C140.051 53.7539 140.237 53.0622 139.924 52.5223C139.611 51.9824 138.918 51.7985 138.375 52.1119C137.832 52.4252 137.646 53.1167 137.959 53.6567C138.272 54.1966 138.965 54.3804 139.508 54.0671Z" fill="white"/>
<path fill-rule="evenodd" clip-rule="evenodd" d="M140.072 55.0467C141.155 54.4163 141.526 53.0294 140.902 51.9488C140.277 50.8682 138.893 50.5032 137.81 51.1335C136.727 51.7637 136.355 53.1507 136.98 54.2313C137.605 55.3119 138.989 55.677 140.072 55.0467ZM139.506 54.0683C140.048 53.7532 140.233 53.0597 139.921 52.5194C139.609 51.9791 138.917 51.7965 138.375 52.1117C137.834 52.4269 137.648 53.1203 137.96 53.6606C138.272 54.2009 138.965 54.3835 139.506 54.0683Z" fill="white"/>
<path fill-rule="evenodd" clip-rule="evenodd" d="M137.673 63.6932C138.756 64.3139 140.14 63.9366 140.766 62.8504C141.391 61.7643 141.021 60.3806 139.939 59.7599C138.856 59.1392 137.472 59.5166 136.846 60.6027C136.221 61.6889 136.591 63.0725 137.673 63.6932ZM138.24 62.71C138.781 63.0203 139.473 62.8316 139.786 62.2886C140.099 61.7455 139.914 61.0537 139.372 60.7433C138.831 60.4329 138.139 60.6216 137.826 61.1646C137.513 61.7078 137.699 62.3996 138.24 62.71Z" fill="white"/>
<path fill-rule="evenodd" clip-rule="evenodd" d="M132.229 59.5958C133.312 58.9654 133.683 57.5784 133.059 56.4979C132.434 55.4173 131.05 55.0523 129.967 55.6825C128.884 56.3128 128.513 57.6998 129.137 58.7803C129.762 59.8609 131.146 60.226 132.229 59.5958ZM131.663 58.6174C132.205 58.3023 132.391 57.6088 132.078 57.0685C131.766 56.5282 131.074 56.3456 130.532 56.6608C129.991 56.976 129.805 57.6694 130.117 58.2097C130.43 58.75 131.122 58.9326 131.663 58.6174Z" fill="white"/>
</svg>
