<svg width="100" height="69" viewBox="0 0 100 69" fill="none" xmlns="http://www.w3.org/2000/svg">
<path d="M5.82075 57.8914C5.78483 57.976 5.72681 58.0488 5.6531 58.1015C5.58437 58.144 5.50528 58.1655 5.4251 58.1635C5.31934 58.1578 5.21721 58.122 5.13004 58.0602C5.0205 57.9913 4.89086 57.9133 4.74109 57.826C4.57392 57.732 4.39887 57.6536 4.21803 57.5918C3.98926 57.518 3.75028 57.483 3.51055 57.4885C3.29384 57.4838 3.07775 57.514 2.87014 57.578C2.70224 57.6312 2.54617 57.7178 2.41078 57.8329C2.29044 57.9337 2.19506 58.0623 2.13248 58.2083C2.07051 58.3658 2.03974 58.5344 2.04196 58.7043C2.03485 58.913 2.10155 59.1174 2.22972 59.2795C2.3677 59.4434 2.53649 59.577 2.72596 59.6722C2.95255 59.7883 3.18805 59.885 3.43008 59.9615C3.69385 60.0465 3.96209 60.1372 4.23479 60.2336C4.50908 60.3329 4.77773 60.4479 5.0395 60.578C5.29699 60.702 5.53445 60.8658 5.74363 61.0637C5.95471 61.2667 6.12352 61.5116 6.23987 61.7836C6.37321 62.1104 6.43723 62.4626 6.42763 62.8169C6.43048 63.2408 6.3554 63.6615 6.20634 64.0568C6.06357 64.4352 5.84413 64.778 5.56257 65.0626C5.2671 65.3631 4.91437 65.5976 4.5265 65.7514C4.0786 65.9237 3.60315 66.0078 3.12496 65.9994C2.82439 66.0002 2.5245 65.9702 2.22972 65.9099C1.94073 65.8499 1.65784 65.7623 1.38478 65.6481C1.11996 65.5382 0.866173 65.4021 0.627004 65.2417C0.399991 65.0899 0.189748 64.9132 -8.18595e-07 64.7147L0.513002 63.8433C0.561684 63.7804 0.620693 63.7268 0.687358 63.6848C0.755809 63.6413 0.834865 63.6186 0.91536 63.6194C1.0448 63.6267 1.16891 63.6748 1.27077 63.7572C1.39819 63.849 1.54795 63.9512 1.72007 64.0637C1.91319 64.1862 2.11759 64.2889 2.33031 64.3703C2.60136 64.469 2.88777 64.5157 3.17526 64.508C3.59413 64.5328 4.00751 64.4006 4.33874 64.136C4.48044 64.0028 4.59132 63.8387 4.66326 63.6557C4.7352 63.4728 4.76638 63.2756 4.7545 63.0786C4.76373 62.8537 4.69744 62.6324 4.56674 62.4518C4.43152 62.2805 4.26235 62.1408 4.0705 62.0419C3.84562 61.9246 3.60969 61.8311 3.36638 61.7629C3.10261 61.6871 2.83549 61.6033 2.56502 61.5114C2.29159 61.4208 2.02395 61.3127 1.76366 61.1877C1.50417 61.0644 1.26627 60.898 1.05954 60.6951C0.846921 60.4775 0.680273 60.2172 0.570005 59.9305C0.435322 59.5716 0.371493 59.1887 0.382237 58.8042C0.383228 58.4415 0.455624 58.0827 0.595066 57.7494C0.734509 57.4162 0.938121 57.1154 1.19366 56.865C1.47622 56.593 1.80762 56.3801 2.16937 56.2382C2.59105 56.0735 3.03939 55.9929 3.49044 56.0005C4.01937 55.9942 4.54513 56.0852 5.04286 56.2692C5.49241 56.4343 5.90433 56.6922 6.25328 57.0269L5.82075 57.8914Z" fill="#3C4A63"/>
<path d="M12.8569 65.8901H12.1159C11.9896 65.8957 11.8638 65.871 11.7488 65.8179C11.6983 65.7862 11.6546 65.7446 11.6202 65.6956C11.5858 65.6467 11.5613 65.5913 11.5482 65.5327L11.4021 65.0412C11.2403 65.1898 11.0701 65.3286 10.8922 65.457C10.7299 65.5733 10.5569 65.6735 10.3755 65.7561C10.1937 65.8382 10.0033 65.8993 9.80791 65.9382C9.58393 65.9818 9.35618 66.0026 9.12809 66.0001C8.85747 66.003 8.58803 65.9635 8.32931 65.8832C8.09825 65.8144 7.88404 65.6973 7.70049 65.5395C7.52124 65.3776 7.38062 65.1766 7.2892 64.9518C7.18689 64.6918 7.13719 64.4136 7.14304 64.1338C7.14594 63.8629 7.21606 63.597 7.34699 63.3605C7.51217 63.0767 7.74613 62.8402 8.0268 62.6732C8.41775 62.4362 8.84338 62.2633 9.28785 62.1611C9.9287 62.013 10.5851 61.9449 11.2423 61.9583V61.5321C11.2709 61.1645 11.1684 60.7988 10.9534 60.501C10.8469 60.3841 10.716 60.2927 10.5702 60.2332C10.4244 60.1738 10.2673 60.1479 10.1104 60.1573C9.88026 60.1492 9.65041 60.1806 9.43061 60.2501C9.26996 60.3056 9.11512 60.377 8.96834 60.4632L8.60464 60.6763C8.49233 60.739 8.36581 60.771 8.23754 60.7691C8.13572 60.7721 8.03564 60.742 7.95202 60.6832C7.87284 60.6259 7.80677 60.552 7.75827 60.4667L7.46255 59.9511C8.23592 59.2293 9.25529 58.8377 10.3076 58.8582C10.674 58.8519 11.0381 58.9197 11.3783 59.0575C11.6804 59.1809 11.9528 59.3685 12.1771 59.6074C12.3992 59.851 12.5683 60.139 12.6733 60.4529C12.7898 60.8004 12.8473 61.1652 12.8433 61.5321L12.8569 65.8901ZM9.65835 64.859C9.81481 64.8596 9.97089 64.8434 10.124 64.8109C10.2639 64.7804 10.3997 64.7331 10.5285 64.67C10.6582 64.6059 10.7812 64.5288 10.8956 64.4397C11.0163 64.3402 11.1298 64.2323 11.2355 64.1167V62.9584C10.8325 62.9526 10.4297 62.9836 10.0322 63.0512C9.76399 63.0953 9.50241 63.1738 9.25386 63.2849C9.086 63.3586 8.94138 63.4775 8.83577 63.6286C8.75475 63.7517 8.71212 63.8966 8.71341 64.0445C8.70227 64.1632 8.71999 64.2829 8.76501 64.3931C8.81003 64.5033 8.881 64.6007 8.97174 64.6769C9.17063 64.8063 9.40534 64.8677 9.64135 64.8522L9.65835 64.859Z" fill="#3C4A63"/>
<path d="M17.2714 58.8605C17.5446 58.8583 17.8171 58.8877 18.0836 58.948C18.3259 59.0027 18.5597 59.0899 18.7789 59.2074H20.7141V59.8136C20.7192 59.9008 20.6904 59.9865 20.6339 60.0527C20.5597 60.1199 20.4659 60.1612 20.3665 60.1706L19.7649 60.2817C19.8091 60.3997 19.8427 60.5214 19.8652 60.6454C19.89 60.7787 19.9023 60.914 19.9019 61.0496C19.9063 61.3643 19.8376 61.6757 19.7014 61.9589C19.5685 62.2213 19.3802 62.4511 19.1499 62.6325C18.9017 62.8289 18.6195 62.9774 18.3176 63.0703C17.979 63.1763 17.626 63.2286 17.2714 63.2252C17.0223 63.2253 16.7737 63.2005 16.5294 63.1511C16.3199 63.2791 16.2152 63.4228 16.2152 63.5822C16.2151 63.6453 16.2326 63.7072 16.2657 63.7608C16.2988 63.8144 16.3461 63.8576 16.4024 63.8853C16.5575 63.9578 16.7236 64.0033 16.8937 64.02C17.1233 64.0484 17.3544 64.0619 17.5856 64.0605C17.8441 64.0605 18.1082 64.0717 18.3778 64.0941C18.644 64.1152 18.9086 64.1534 19.1699 64.2086C19.413 64.2583 19.6467 64.347 19.8618 64.4713C20.0685 64.5967 20.239 64.7744 20.3565 64.9866C20.4901 65.228 20.5549 65.5019 20.5437 65.7781C20.5423 66.0837 20.4666 66.3844 20.3231 66.6537C20.1667 66.9476 19.9503 67.2047 19.688 67.4081C19.3812 67.6434 19.0363 67.8234 18.6686 67.9402C18.2233 68.0817 17.7583 68.1499 17.2915 68.1423C16.8414 68.1503 16.3921 68.1005 15.9545 67.9941C15.623 67.9142 15.3069 67.78 15.0186 67.5967C14.7921 67.4469 14.6042 67.2448 14.4705 67.0073C14.3515 66.803 14.2881 66.5707 14.2866 66.3338C14.2781 66.0405 14.3809 65.7551 14.5741 65.5356C14.795 65.3011 15.0691 65.1243 15.3729 65.0203C15.2109 64.9321 15.073 64.8049 14.9718 64.6498C14.8645 64.4692 14.8122 64.2607 14.8214 64.0504C14.8227 63.9438 14.8408 63.8381 14.8749 63.7371C14.9115 63.6175 14.9655 63.504 15.0353 63.4004C15.1124 63.2891 15.2034 63.1884 15.3061 63.1006C15.4243 62.9994 15.5545 62.9134 15.6938 62.8447C15.367 62.6721 15.0906 62.4168 14.8916 62.1037C14.6925 61.7783 14.5914 61.4015 14.6008 61.0193C14.5948 60.7114 14.6599 60.4063 14.791 60.128C14.9221 59.8498 15.1156 59.6061 15.3562 59.4162C15.6082 59.2179 15.8951 59.0694 16.2018 58.9784C16.5505 58.8853 16.9111 58.8456 17.2714 58.8605ZM19.0463 66.0408C19.0497 65.9796 19.0412 65.9184 19.0211 65.8606C19.001 65.8028 18.9698 65.7496 18.9293 65.704C18.8364 65.6103 18.7214 65.5419 18.595 65.5053C18.4408 65.454 18.2818 65.419 18.1204 65.4009C17.9285 65.3778 17.7354 65.3665 17.5422 65.3672H16.9138C16.7033 65.3674 16.4935 65.3425 16.2887 65.2931C16.1228 65.3862 15.9764 65.5109 15.8576 65.6602C15.7478 65.7948 15.6886 65.9642 15.6905 66.1384C15.6896 66.2564 15.7196 66.3726 15.7774 66.4752C15.8459 66.5874 15.9428 66.6792 16.0581 66.7413C16.2149 66.8262 16.3842 66.8853 16.5595 66.9164C16.8075 66.9624 17.0594 66.9838 17.3115 66.9804C17.5729 66.9841 17.8339 66.9604 18.0903 66.9097C18.2798 66.8734 18.4625 66.8075 18.6318 66.7143C18.7594 66.6447 18.8666 66.5425 18.9426 66.418C19.0103 66.3039 19.0461 66.1736 19.0463 66.0408ZM17.2714 62.2014C17.4499 62.2046 17.6275 62.1761 17.7962 62.1172C17.9346 62.0684 18.0611 61.9903 18.1672 61.8882C18.2654 61.7938 18.3418 61.6788 18.3911 61.5514C18.4432 61.4079 18.4692 61.2562 18.468 61.1035C18.4755 60.9575 18.4529 60.8115 18.4017 60.6748C18.3505 60.538 18.2718 60.4133 18.1705 60.3087C17.9109 60.1179 17.5978 60.0151 17.2764 60.0151C16.9551 60.0151 16.642 60.1179 16.3823 60.3087C16.2811 60.4133 16.2024 60.538 16.1512 60.6748C16.1 60.8115 16.0774 60.9575 16.0849 61.1035C16.084 61.254 16.1101 61.4034 16.1617 61.5447C16.2119 61.6716 16.2882 61.7864 16.3857 61.8815C16.4919 61.9859 16.6197 62.0652 16.76 62.1138C16.9243 62.1722 17.0973 62.2018 17.2714 62.2014Z" fill="#3C4A63"/>
<path d="M24.4387 58.8593C24.8084 58.855 25.1757 58.9264 25.5223 59.0697C25.8444 59.2018 26.137 59.4101 26.3799 59.6803C26.6256 59.9621 26.8155 60.2982 26.9372 60.6669C27.0767 61.0945 27.1449 61.547 27.1384 62.002C27.1445 62.1065 27.1445 62.2113 27.1384 62.3159C27.1321 62.385 27.1132 62.4519 27.0827 62.5125C27.058 62.5575 27.0211 62.5925 26.9774 62.6126C26.923 62.635 26.8652 62.6455 26.8071 62.6436H22.9371C22.9343 63.2191 23.1179 63.7764 23.4542 64.2132C23.6115 64.3821 23.798 64.5136 24.0024 64.5996C24.2068 64.6856 24.4248 64.7243 24.643 64.7134C24.8525 64.7177 25.0613 64.6863 25.2622 64.6203C25.4211 64.5649 25.5754 64.4945 25.7235 64.4099L26.0703 64.1994C26.1573 64.1407 26.2566 64.1086 26.3582 64.1063C26.4132 64.1042 26.4677 64.1185 26.5161 64.1477C26.5615 64.1756 26.6006 64.2145 26.6307 64.2615L27.0672 64.8687C26.9067 65.0802 26.7189 65.2638 26.5099 65.4137C26.3068 65.5559 26.0897 65.6717 25.8629 65.7587C25.6399 65.8461 25.4096 65.9085 25.1755 65.945C24.951 65.9808 24.7244 65.9992 24.4975 66.0002C24.0851 66.0037 23.6757 65.9218 23.2901 65.7587C22.9236 65.6031 22.5919 65.3606 22.3179 65.048C22.0313 64.7149 21.8099 64.319 21.6678 63.8855C21.5012 63.3703 21.4204 62.8255 21.4294 62.2779C21.4271 61.8227 21.4973 61.3707 21.6368 60.9429C21.7667 60.5392 21.9678 60.1686 22.2281 59.8528C22.489 59.5392 22.8052 59.289 23.157 59.118C23.5629 58.9315 23.9998 58.8433 24.4387 58.8593ZM24.4697 60.0563C24.2826 60.0446 24.0954 60.0753 23.9192 60.1464C23.7431 60.2176 23.5818 60.3277 23.4449 60.4703C23.1791 60.7935 23.014 61.2036 22.9743 61.6397H25.7917C25.7924 61.4317 25.7653 61.2248 25.7112 61.0257C25.6622 60.8413 25.5801 60.6699 25.4697 60.522C25.3575 60.374 25.2167 60.256 25.0579 60.1771C24.8718 60.0904 24.6712 60.0492 24.4697 60.0563Z" fill="#3C4A63"/>
<path d="M29.2861 65.9993V56.0009H32.091C32.5765 55.9922 33.061 56.0491 33.532 56.1702C33.8972 56.263 34.2397 56.4322 34.5382 56.6674C34.7995 56.8795 35.0045 57.1559 35.1343 57.4709C35.2707 57.8137 35.3376 58.1815 35.3306 58.5518C35.3314 58.8126 35.2863 59.0714 35.1974 59.3157C35.1063 59.5627 34.9747 59.7918 34.8082 59.993C34.6304 60.2071 34.4196 60.3897 34.1841 60.5335C33.9233 60.6972 33.6395 60.8187 33.3427 60.8938C33.992 60.963 34.6045 61.2374 35.0957 61.6793C35.3024 61.887 35.4641 62.1371 35.5705 62.4134C35.6768 62.6896 35.7253 62.9858 35.7128 63.2826C35.7186 63.6763 35.6433 64.0667 35.4919 64.4284C35.348 64.7559 35.132 65.0446 34.8608 65.2715C34.5558 65.5206 34.2053 65.7043 33.83 65.8119C33.3739 65.9443 32.9014 66.0074 32.4276 65.9993H29.2861ZM29.9874 60.6776H32.091C32.4825 60.6872 32.8727 60.6275 33.2445 60.5011C33.534 60.4018 33.8011 60.2437 34.0299 60.0363C34.2255 59.8551 34.3789 59.631 34.4786 59.3805C34.5739 59.1403 34.6227 58.8833 34.6224 58.6239C34.6412 58.3364 34.5946 58.0483 34.4863 57.7825C34.378 57.5167 34.2109 57.2805 33.9983 57.0926C33.5846 56.7467 32.9441 56.5737 32.077 56.5737H29.9733L29.9874 60.6776ZM29.9874 61.2073V65.4192H32.4416C33.133 65.4708 33.8199 65.2691 34.3805 64.8499C34.6001 64.6515 34.7729 64.4044 34.8859 64.1273C34.9989 63.8501 35.049 63.5502 35.0326 63.2502C35.037 62.9568 34.977 62.6662 34.8573 62.3999C34.7407 62.1471 34.5677 61.9261 34.3524 61.7549C34.1105 61.5669 33.8355 61.4286 33.5425 61.3478C33.186 61.2491 32.8178 61.2019 32.4486 61.2073H29.9874Z" fill="#3C4A63"/>
<path d="M38.5711 56.6231C38.5718 56.7047 38.5507 56.7853 38.5094 56.8586C38.4699 56.9299 38.417 56.995 38.3529 57.0513C38.2877 57.1072 38.2109 57.152 38.1265 57.1833C38.04 57.2154 37.9469 57.2319 37.8527 57.2319C37.7586 57.2319 37.6655 57.2154 37.579 57.1833C37.4945 57.1521 37.4177 57.1073 37.3525 57.0513C37.2888 56.9956 37.2371 56.9303 37.2002 56.8586C37.1618 56.7846 37.1421 56.7043 37.1426 56.6231C37.1427 56.5397 37.1623 56.4571 37.2002 56.3805C37.2719 56.2314 37.4077 56.1123 37.579 56.0486C37.6655 56.0165 37.7586 56 37.8527 56C37.9469 56 38.04 56.0165 38.1265 56.0486C38.2109 56.08 38.2877 56.1248 38.3529 56.1807C38.4186 56.2385 38.4716 56.3062 38.5094 56.3805C38.5501 56.4565 38.5712 56.5393 38.5711 56.6231ZM38.2336 59.0244V66H37.4678V59.0387L38.2336 59.0244Z" fill="#3C4A63"/>
<path d="M43.2162 58.8579C43.6818 58.8504 44.1439 58.9376 44.5736 59.1141C44.961 59.2728 45.3066 59.5162 45.5845 59.826C45.8691 60.1564 46.0828 60.5403 46.2126 60.9544C46.5006 61.9175 46.5006 62.9421 46.2126 63.9052C46.0822 64.3209 45.8672 64.706 45.5809 65.0371C45.304 65.348 44.9581 65.5916 44.57 65.749C43.6982 66.084 42.7306 66.084 41.8589 65.749C41.4701 65.5911 41.1231 65.3476 40.8444 65.0371C40.5595 64.7083 40.3458 64.3255 40.2163 63.9123C39.9279 62.9493 39.9279 61.9246 40.2163 60.9615C40.3453 60.5471 40.5591 60.163 40.8444 59.8332C41.124 59.5237 41.4708 59.2804 41.8589 59.1213C42.2881 58.9423 42.7502 58.8526 43.2162 58.8579ZM43.2162 65.4821C43.5886 65.4876 43.9578 65.4148 44.2993 65.2685C44.6083 65.1307 44.8785 64.9206 45.0863 64.6563C45.3061 64.3699 45.4657 64.0432 45.5556 63.6952C45.7696 62.8742 45.7783 62.0143 45.5809 61.1893C45.491 60.8391 45.3315 60.51 45.1115 60.2211C44.9041 59.9547 44.634 59.7422 44.3245 59.6018C43.6193 59.315 42.8276 59.315 42.1224 59.6018C41.813 59.7423 41.5429 59.9548 41.3354 60.2211C41.1127 60.5098 40.9495 60.8387 40.8552 61.1893C40.643 62.0151 40.643 62.8801 40.8552 63.7059C40.9473 64.0537 41.108 64.3803 41.3282 64.6669C41.536 64.9311 41.8062 65.1413 42.1152 65.2792C42.4628 65.4256 42.8384 65.496 43.2162 65.4856V65.4821Z" fill="#3C4A63"/>
<path d="M47.8574 66.0003V58.9629H48.1833C48.2066 58.9599 48.2301 58.9622 48.2525 58.9695C48.2749 58.9769 48.2957 58.9892 48.3137 59.0057C48.3316 59.0222 48.3464 59.0426 48.3571 59.0657C48.3677 59.0887 48.374 59.1138 48.3756 59.1396L48.4343 60.2001C48.7131 59.8052 49.0571 59.4722 49.4479 59.219C49.845 58.9704 50.2956 58.8457 50.7516 58.8583C51.067 58.8516 51.3805 58.9141 51.674 59.0423C51.9267 59.1582 52.1504 59.3401 52.3258 59.5725C52.5079 59.8176 52.6431 60.1011 52.7234 60.4057C52.8169 60.7643 52.862 61.1363 52.8571 61.5095V66.0003H52.2508V61.5023C52.2802 60.9471 52.1351 60.3979 51.8402 59.9476C51.6853 59.7529 51.4915 59.6007 51.2743 59.503C51.0571 59.4054 50.8224 59.3649 50.5886 59.3849C50.1781 59.3838 49.7753 59.5086 49.4251 59.7456C49.0512 60.0007 48.7257 60.334 48.4669 60.7268V66.0003H47.8574Z" fill="#3C4A63"/>
<path d="M57.6768 58.8579C57.9929 58.854 58.3066 58.9228 58.6001 59.0603C58.8788 59.1921 59.1298 59.3932 59.3358 59.6499C59.5525 59.9243 59.7185 60.2484 59.8232 60.6017C59.9457 61.0185 60.0052 61.4572 59.9988 61.898C60.0044 61.971 59.9906 62.0441 59.9594 62.1076C59.9443 62.1272 59.9255 62.1426 59.9045 62.1524C59.8835 62.1623 59.8609 62.1664 59.8383 62.1644H55.5758V62.2958C55.5693 62.7592 55.6214 63.2212 55.7302 63.6667C55.8183 64.0293 55.9676 64.3675 56.1692 64.6611C56.3547 64.9244 56.5914 65.1314 56.8594 65.2649C57.1472 65.4045 57.4563 65.4734 57.7676 65.4673C58.0283 65.4733 58.2883 65.435 58.5396 65.3537C58.7293 65.2894 58.9129 65.2026 59.0875 65.0944C59.2105 65.0177 59.3289 64.931 59.4417 64.8351C59.4953 64.7776 59.5613 64.7383 59.6325 64.7215C59.6557 64.7205 59.6787 64.7266 59.6994 64.739C59.72 64.7514 59.7376 64.7699 59.7505 64.7925L59.9049 65.0163C59.797 65.1689 59.6693 65.3007 59.5265 65.4069C59.3621 65.5321 59.1865 65.6357 59.0028 65.7159C58.8062 65.8042 58.6037 65.8731 58.3973 65.9219C58.179 65.9733 57.957 65.9994 57.7343 66.0001C57.3555 66.0052 56.9797 65.9207 56.6293 65.7514C56.3018 65.5934 56.009 65.3505 55.7726 65.0411C55.5121 64.6995 55.3151 64.298 55.1944 63.862C55.0583 63.3544 54.9929 62.8243 55.0006 62.2922C54.9966 61.8255 55.058 61.3612 55.1823 60.9178C55.2924 60.5185 55.4694 60.149 55.703 59.831C55.9348 59.5251 56.2211 59.2827 56.5415 59.1207C56.8998 58.9397 57.2868 58.8501 57.6768 58.8579ZM57.6768 59.3516C57.3978 59.3462 57.1205 59.4029 56.8594 59.5185C56.624 59.6246 56.4104 59.788 56.2327 59.9979C56.0519 60.2157 55.9071 60.471 55.8059 60.7509C55.693 61.0644 55.6206 61.396 55.5909 61.7346H59.4811C59.4853 61.3958 59.4413 61.0585 59.3509 60.7367C59.2737 60.4601 59.149 60.2051 58.9846 59.9873C58.8267 59.7837 58.6323 59.6236 58.4155 59.5185C58.184 59.4076 57.9359 59.3521 57.6859 59.3551L57.6768 59.3516Z" fill="#3C4A63"/>
<path d="M63.6993 65.9979C63.5287 66.0098 63.3579 65.982 63.197 65.9163C63.0361 65.8506 62.8885 65.7482 62.7631 65.6154C62.6419 65.4541 62.55 65.2668 62.4926 65.0645C62.4352 64.8622 62.4135 64.6488 62.4288 64.4368V59.7988H61.5777C61.5391 59.8 61.5013 59.7852 61.4714 59.7571C61.4573 59.7428 61.4462 59.725 61.4388 59.7052C61.4315 59.6854 61.4281 59.6639 61.4288 59.6424V59.3886L62.4409 59.3051L62.5838 56.8714C62.5883 56.8308 62.6043 56.7929 62.6294 56.7636C62.6425 56.7475 62.6586 56.7348 62.6764 56.7264C62.6942 56.718 62.7135 56.7141 62.7327 56.715H62.9972V59.3051H64.8634V59.7884H62.9972V64.3986C62.9946 64.5615 63.0162 64.7237 63.061 64.8784C63.0949 65.0078 63.1542 65.1267 63.2342 65.226C63.3063 65.3117 63.3947 65.3771 63.4926 65.4173C63.596 65.4594 63.705 65.4805 63.8148 65.4798C63.9413 65.4829 64.0672 65.4581 64.1856 65.4068C64.279 65.3648 64.3686 65.3124 64.453 65.2504C64.5178 65.203 64.5798 65.1507 64.6384 65.0939C64.668 65.0563 64.7075 65.0306 64.7509 65.0209C64.7701 65.0238 64.7886 65.0315 64.8049 65.0435C64.8212 65.0556 64.8349 65.0716 64.8451 65.0904L65.0001 65.3755C64.8395 65.5737 64.6436 65.7302 64.4257 65.8345C64.1961 65.946 63.9487 66.0017 63.6993 65.9979Z" fill="#3C4A63"/>
<path d="M65.7139 58.8906H66.2033C66.2572 58.8885 66.3101 58.9079 66.3521 58.9452C66.3879 58.9752 66.4154 59.0156 66.4315 59.0619L68.0584 64.6738C68.0876 64.7768 68.1119 64.8814 68.1312 64.9872L68.1841 65.286C68.2073 65.1876 68.2304 65.0856 68.2569 64.9872C68.2833 64.8888 68.3131 64.7831 68.3461 64.6738L70.0789 59.0145C70.0875 58.9689 70.1105 58.9281 70.1438 58.8994C70.1771 58.8707 70.2186 58.856 70.2608 58.8578H70.5022C70.5454 58.8549 70.5881 58.8691 70.6227 58.8978C70.6572 58.9266 70.6814 58.9679 70.6907 59.0145L72.3971 64.6738C72.4592 64.8782 72.5111 65.0863 72.5525 65.297C72.5701 65.1974 72.5889 65.0965 72.6087 64.9945C72.6302 64.887 72.6578 64.7811 72.6914 64.6775L74.325 59.0655C74.3379 59.0129 74.3672 58.967 74.4077 58.9357C74.4481 58.9045 74.4973 58.8898 74.5465 58.8942H74.9996L72.817 66.0003H72.364C72.2946 66.0003 72.2449 65.9493 72.2152 65.8509L70.4559 60.0676C70.4339 59.9972 70.414 59.9255 70.3964 59.8526C70.3788 59.7797 70.3633 59.7081 70.3501 59.6376C70.3369 59.7081 70.3226 59.7797 70.3071 59.8526C70.2917 59.9255 70.2729 59.9972 70.2509 60.0676L68.4619 65.8436C68.4564 65.8848 68.4377 65.9225 68.4092 65.9499C68.3807 65.9773 68.3443 65.9926 68.3065 65.993H67.8733L65.7139 58.8906Z" fill="#3C4A63"/>
<path d="M79.286 58.8579C79.7 58.8504 80.111 58.9377 80.4932 59.1144C80.8377 59.2732 81.1452 59.5169 81.3923 59.827C81.6454 60.1577 81.8355 60.5419 81.9509 60.9565C82.207 61.9206 82.207 62.9462 81.9509 63.9102C81.8351 64.3235 81.645 64.7065 81.3923 65.0362C81.146 65.3473 80.8383 65.5912 80.4932 65.7488C79.7179 66.0841 78.8573 66.0841 78.082 65.7488C77.7362 65.5906 77.4276 65.3469 77.1797 65.0362C76.9263 64.707 76.7362 64.3239 76.6211 63.9102C76.3646 62.9462 76.3646 61.9205 76.6211 60.9565C76.7358 60.5416 76.926 60.1572 77.1797 59.827C77.4284 59.5173 77.7368 59.2737 78.082 59.1144C78.4632 58.9382 78.873 58.8509 79.286 58.8579ZM79.286 65.4887C79.6171 65.4942 79.9455 65.4214 80.2492 65.2749C80.5249 65.1385 80.7663 64.9293 80.9524 64.6656C81.1479 64.379 81.2898 64.0519 81.3698 63.7036C81.5543 62.8764 81.5543 62.0117 81.3698 61.1845C81.2899 60.834 81.148 60.5046 80.9524 60.2154C80.7679 59.9487 80.5277 59.7359 80.2524 59.5954C79.6252 59.3084 78.9211 59.3084 78.2939 59.5954C78.0187 59.7361 77.7785 59.9488 77.5939 60.2154C77.4019 60.5082 77.2634 60.8398 77.1861 61.1916C76.9974 62.0183 76.9974 62.8841 77.1861 63.7107C77.2681 64.0589 77.411 64.3858 77.6068 64.6727C77.7916 64.9372 78.0319 65.1476 78.3067 65.2856C78.6159 65.4321 78.9499 65.5026 79.286 65.4922V65.4887Z" fill="#3C4A63"/>
<path d="M83.5713 66.0003V58.9809H83.9522C84.0177 58.9755 84.083 58.9935 84.1351 59.0313C84.1786 59.0778 84.2018 59.1383 84.1999 59.2004L84.2608 60.6827C84.4588 60.1694 84.7871 59.7098 85.217 59.3443C85.6302 59.0146 86.1583 58.8415 86.6989 58.8586C86.9081 58.8574 87.1166 58.8803 87.3199 58.9269C87.5066 58.971 87.6869 59.0362 87.857 59.1212L87.758 59.5853C87.7561 59.6019 87.7507 59.618 87.7422 59.6326C87.7337 59.6472 87.7222 59.6601 87.7084 59.6704C87.6945 59.6808 87.6787 59.6885 87.6617 59.693C87.6447 59.6976 87.6269 59.6989 87.6094 59.6969C87.5661 59.6936 87.5237 59.6839 87.4837 59.6681L87.278 59.6033C87.1791 59.5759 87.0786 59.5543 86.977 59.5386C86.8409 59.5185 86.7033 59.5088 86.5656 59.5098C86.3101 59.5008 86.0554 59.5404 85.8165 59.6263C85.5776 59.7122 85.3595 59.8427 85.1751 60.0099C84.7662 60.4171 84.4658 60.9104 84.2989 61.449V66.0003H83.5713Z" fill="#3C4A63"/>
<path d="M89.9002 56V62.0967H90.2022C90.2614 62.0968 90.3203 62.0873 90.3767 62.0687C90.4458 62.0404 90.5078 61.9961 90.5579 61.939L93.1855 59.3357C93.2298 59.2888 93.2794 59.2476 93.3331 59.213C93.3924 59.1783 93.4598 59.1613 93.5277 59.164H94.0814L91.1922 62.0301L91.068 62.1562C91.0286 62.1947 90.9846 62.2277 90.9371 62.2544C91.0026 62.2875 91.0626 62.3312 91.115 62.384L91.266 62.5487L94.2861 66H93.7392C93.6822 66.0008 93.6259 65.9876 93.5747 65.9614C93.5201 65.9312 93.4712 65.8909 93.4304 65.8423L90.6989 62.7484C90.6411 62.6797 90.5717 62.6227 90.4942 62.5802C90.4019 62.5449 90.3037 62.5295 90.2056 62.5347H89.9103V65.9859H89.2861V56H89.9002Z" fill="#3C4A63"/>
<path d="M99.6625 59.8457C99.6486 59.8751 99.6255 59.9 99.5962 59.917C99.5668 59.9341 99.5325 59.9426 99.4979 59.9413C99.4186 59.932 99.344 59.9012 99.2835 59.8528C99.1729 59.7817 99.0579 59.7167 98.939 59.6581C98.7717 59.577 98.596 59.5117 98.4146 59.4633C98.1653 59.3998 97.9075 59.37 97.649 59.3748C97.398 59.3717 97.1483 59.4076 96.9102 59.481C96.7031 59.5446 96.51 59.6417 96.3398 59.7678C96.1815 59.8803 96.051 60.0227 95.957 60.1856C95.8707 60.3411 95.826 60.5136 95.8268 60.6884C95.8183 60.8827 95.8818 61.0738 96.0068 61.2301C96.1377 61.3764 96.2991 61.4968 96.4814 61.5842C96.6934 61.6919 96.9166 61.7797 97.1475 61.8462L97.9131 62.0693C98.1683 62.1424 98.4235 62.225 98.6787 62.3171C98.9168 62.4071 99.1408 62.5262 99.3448 62.6712C99.5382 62.803 99.6999 62.9706 99.8194 63.1633C99.945 63.3809 100.007 63.625 99.9994 63.8715C100.002 64.1593 99.9422 64.4446 99.8233 64.7106C99.7084 64.9664 99.5346 65.1959 99.3142 65.3833C99.0745 65.5818 98.7948 65.7346 98.4911 65.833C98.1346 65.9488 97.7588 66.0051 97.381 65.9994C96.9154 66.0096 96.4526 65.9301 96.0221 65.7657C95.6485 65.6144 95.3034 65.4088 95 65.1567L95.1723 64.9195C95.1934 64.8859 95.2221 64.8569 95.2565 64.8345C95.2948 64.814 95.3386 64.8042 95.3828 64.8062C95.4742 64.8169 95.559 64.8555 95.624 64.916C95.7447 65.0052 95.8726 65.0857 96.0068 65.1567C96.1875 65.2548 96.3786 65.3355 96.5771 65.3975C96.8505 65.4776 97.1365 65.5147 97.4231 65.5072C97.7068 65.5127 97.9892 65.4719 98.2576 65.3869C98.4801 65.316 98.6846 65.204 98.8586 65.0576C99.0238 64.923 99.1545 64.7561 99.2414 64.569C99.3239 64.38 99.3655 64.1779 99.3639 63.9741C99.3725 63.7689 99.3094 63.5665 99.184 63.397C99.0569 63.238 98.8952 63.1053 98.7093 63.0075C98.4988 62.8944 98.2754 62.803 98.0433 62.7349L97.2777 62.5118C97.0225 62.4387 96.7673 62.3572 96.5121 62.2675C96.2746 62.1854 96.0504 62.0734 95.846 61.9347C95.6531 61.8038 95.4915 61.6375 95.3713 61.4461C95.2457 61.2286 95.1837 60.9845 95.1914 60.738C95.1911 60.493 95.25 60.2511 95.3637 60.0298C95.4717 59.7989 95.6308 59.5915 95.8307 59.4208C96.0564 59.2416 96.3159 59.1023 96.5963 59.0101C96.9274 58.9045 97.2758 58.853 97.626 58.8579C98.0392 58.8514 98.4502 58.9138 98.8395 59.042C99.1998 59.1683 99.53 59.3583 99.8118 59.6014L99.6625 59.8457Z" fill="#3C4A63"/>
<path d="M36.9272 29L37 15.6876L26 9L26.0199 21.9983L36.9272 29Z" stroke="#679EC1" stroke-width="2" stroke-linecap="round" stroke-linejoin="round"/>
<path d="M37 29L47 23L43.6046 25.0415" stroke="#679EC1" stroke-width="2" stroke-linecap="round" stroke-linejoin="round"/>
<path d="M48.9134 49L49 35.6876L37 29L37.0289 41.9983L48.9134 49Z" stroke="#679EC1" stroke-width="2" stroke-linecap="round" stroke-linejoin="round"/>
<path d="M62 29L51 35.5991L51.0066 49L61.6946 42.4778L62 29Z" stroke="#6DB56D" stroke-width="2" stroke-linecap="round" stroke-linejoin="round"/>
<path d="M62 29L53 23L56.0565 25.0355" stroke="#6DB56D" stroke-width="2" stroke-linecap="round" stroke-linejoin="round"/>
<path d="M74 10L63 16.2625L63.0066 29L73.6946 22.7973L74 10Z" stroke="#6DB56D" stroke-width="2" stroke-linecap="round" stroke-linejoin="round"/>
<path d="M50 7.36229L61.4478 14L73 7.38983L61.7749 1L50 7.36229Z" stroke="#EB8231" stroke-width="2" stroke-linecap="round" stroke-linejoin="round"/>
<path d="M50 8V19V15.2673" stroke="#EB8231" stroke-width="2" stroke-linecap="round" stroke-linejoin="round"/>
<path d="M27 7.36229L38.4513 14L50 7.38983L38.7713 1L27 7.36229Z" stroke="#EB8231" stroke-width="2" stroke-linecap="round" stroke-linejoin="round"/>
</svg>
