<svg viewBox="0 0 43 50" fill="none" xmlns="http://www.w3.org/2000/svg">
<path fill-rule="evenodd" clip-rule="evenodd" d="M26.0423 20.0947L29.4277 18.3378V11.3415L25.4748 10.0355L22.1865 11.3454V18.3417L26.0423 20.0947Z" fill="#F0EFF0"/>
<path fill-rule="evenodd" clip-rule="evenodd" d="M23.8886 33.485C24.4613 33.8493 25.1262 34.0421 25.8048 34.0408C26.7633 34.0387 27.6819 33.6574 28.36 32.98C29.0381 32.3027 29.4204 31.3844 29.4235 30.426V18.3379C29.1427 18.4797 28.8325 18.5536 28.5179 18.5536C28.2033 18.5536 27.8931 18.4797 27.6122 18.3379C27.3321 18.1962 27.0225 18.1223 26.7085 18.1223C26.3946 18.1223 26.085 18.1962 25.8048 18.3379C25.524 18.4797 25.2138 18.5536 24.8992 18.5536C24.5846 18.5536 24.2744 18.4797 23.9936 18.3379C23.7134 18.1962 23.4039 18.1223 23.0899 18.1223C22.7759 18.1223 22.4663 18.1962 22.1862 18.3379V26.0455C22.0191 30.531 21.6964 32.1868 23.8886 33.485Z" fill="#21AB9F"/>
<path fill-rule="evenodd" clip-rule="evenodd" d="M22.1865 11.3454H29.8358C29.9321 11.3443 30.024 11.3054 30.0917 11.237C30.1594 11.1686 30.1973 11.0762 30.1973 10.98V8.43411C30.1973 8.33824 30.1592 8.2463 30.0914 8.17851C30.0236 8.11072 29.9317 8.07263 29.8358 8.07263H21.7667C21.6705 8.07263 21.5782 8.11059 21.5097 8.17827C21.4413 8.24595 21.4024 8.33788 21.4014 8.43411V10.98C21.4014 11.0769 21.4399 11.1698 21.5084 11.2383C21.5769 11.3069 21.6698 11.3454 21.7667 11.3454H22.1865Z" fill="#CED2DB"/>
<path fill-rule="evenodd" clip-rule="evenodd" d="M13.9926 32.7075C17.8483 31.9884 20.3554 31.8407 23.8691 29.9867C23.5704 28.5757 22.9987 27.2368 22.1861 26.0454C21.3315 24.6841 20.0491 23.6451 18.5402 23.0914C18.1826 22.9787 17.8756 22.8815 17.8756 22.6483V17.5643L14.5523 16.2583L11.0541 17.5643V22.6444C11.0541 22.8776 10.7471 22.9787 10.3895 23.0914C7.66868 23.9582 5.67084 27.056 5.07227 29.975L13.9926 32.7075Z" fill="#F0EFF0"/>
<path fill-rule="evenodd" clip-rule="evenodd" d="M11.0545 17.5643H18.1402C18.2371 17.5643 18.33 17.5258 18.3986 17.4572C18.4671 17.3887 18.5056 17.2958 18.5056 17.1989V14.653C18.5056 14.6052 18.4961 14.5579 18.4777 14.5138C18.4593 14.4697 18.4323 14.4296 18.3983 14.396C18.3643 14.3624 18.324 14.3359 18.2797 14.3179C18.2354 14.3 18.188 14.291 18.1402 14.2915H10.7863C10.6904 14.2915 10.5985 14.3296 10.5307 14.3974C10.4629 14.4652 10.4248 14.5571 10.4248 14.653V17.1989C10.4248 17.2951 10.4628 17.3875 10.5304 17.4559C10.5981 17.5243 10.6901 17.5632 10.7863 17.5643H11.0545Z" fill="#CED2DB"/>
<path fill-rule="evenodd" clip-rule="evenodd" d="M15.1781 41.3868C17.2971 41.2115 19.2992 40.3422 20.874 38.9136C22.4487 37.4849 23.5084 35.5768 23.8886 33.4848C23.9918 32.9088 24.0438 32.3248 24.044 31.7396C24.0401 31.1478 23.9763 30.5578 23.8536 29.9789C23.1732 30.3514 22.4099 30.5467 21.6342 30.5467C20.8585 30.5467 20.0952 30.3514 19.4148 29.9789C18.6158 29.5221 17.7115 29.2818 16.7912 29.2818C15.8709 29.2818 14.9665 29.5221 14.1676 29.9789C13.4951 30.3543 12.7378 30.5514 11.9676 30.5514C11.1974 30.5514 10.4401 30.3543 9.76764 29.9789C7.35779 28.6962 5.4921 29.4075 5.07232 29.9789C4.9506 30.5592 4.88809 31.1505 4.88575 31.7435C4.88229 34.171 5.79229 36.511 7.43491 38.2983C9.07752 40.0857 11.3325 41.1896 13.7517 41.3907L15.1781 41.3868Z" fill="#6CB46C"/>
<path fill-rule="evenodd" clip-rule="evenodd" d="M16.2121 33.5704C16.2075 33.8028 16.2725 34.0312 16.3986 34.2264C16.5248 34.4217 16.7064 34.5747 16.9202 34.666C17.1339 34.7572 17.3701 34.7825 17.5983 34.7386C17.8266 34.6947 18.0365 34.5835 18.2011 34.4195C18.3657 34.2554 18.4776 34.0459 18.5223 33.8178C18.567 33.5897 18.5425 33.3534 18.4519 33.1394C18.3614 32.9253 18.209 32.7432 18.0142 32.6163C17.8194 32.4895 17.5912 32.4238 17.3588 32.4276C17.0553 32.4276 16.7643 32.5479 16.5494 32.7621C16.3344 32.9763 16.2132 33.267 16.2121 33.5704Z" fill="#85C185"/>
<path fill-rule="evenodd" clip-rule="evenodd" d="M11.9797 36.229C12.2443 36.229 12.5029 36.1504 12.7229 36.0034C12.9429 35.8563 13.1142 35.6472 13.2153 35.4027C13.3164 35.1581 13.3427 34.8891 13.2908 34.6296C13.2388 34.3701 13.1111 34.1319 12.9237 33.9451C12.7364 33.7582 12.4977 33.6312 12.2381 33.58C11.9785 33.5289 11.7095 33.5559 11.4653 33.6577C11.221 33.7595 11.0125 33.9315 10.866 34.1519C10.7196 34.3723 10.6418 34.6312 10.6426 34.8958C10.6436 35.2497 10.7849 35.5888 11.0356 35.8387C11.2862 36.0886 11.6257 36.229 11.9797 36.229V36.229Z" fill="#85C185"/>
<path fill-rule="evenodd" clip-rule="evenodd" d="M25.4006 22.8545C25.6236 22.8545 25.8415 22.7884 26.0269 22.6645C26.2122 22.5406 26.3567 22.3646 26.442 22.1586C26.5273 21.9527 26.5496 21.726 26.5062 21.5074C26.4627 21.2887 26.3553 21.0879 26.1977 20.9302C26.04 20.7726 25.8392 20.6652 25.6205 20.6218C25.4019 20.5783 25.1752 20.6006 24.9693 20.6859C24.7633 20.7712 24.5873 20.9157 24.4634 21.1011C24.3395 21.2864 24.2734 21.5043 24.2734 21.7273C24.2734 22.0262 24.3922 22.3129 24.6036 22.5243C24.815 22.7357 25.1017 22.8545 25.4006 22.8545Z" fill="#3ABDAD"/>
<path fill-rule="evenodd" clip-rule="evenodd" d="M26.26 27.3165C26.4827 27.3157 26.7003 27.249 26.8851 27.1246C27.07 27.0003 27.2139 26.824 27.2986 26.618C27.3833 26.412 27.4051 26.1854 27.3611 25.967C27.3172 25.7486 27.2096 25.5482 27.0518 25.3909C26.894 25.2337 26.6931 25.1267 26.4746 25.0835C26.256 25.0403 26.0296 25.0629 25.8238 25.1483C25.6181 25.2337 25.4423 25.3782 25.3186 25.5635C25.1949 25.7488 25.1289 25.9665 25.1289 26.1893C25.1289 26.3377 25.1582 26.4846 25.2151 26.6216C25.272 26.7586 25.3553 26.883 25.4604 26.9877C25.5655 27.0925 25.6902 27.1754 25.8274 27.2318C25.9646 27.2882 26.1116 27.317 26.26 27.3165V27.3165Z" fill="#3ABDAD"/>
<path d="M8.19346 0.916935C8.42714 0.647668 8.71268 0.428232 9.03302 0.271718C9.35268 0.115599 9.70013 0.0244417 10.0553 0.00352573C10.4081 -0.0147447 10.761 0.0381281 11.093 0.159C11.4277 0.28229 11.7343 0.471271 11.9948 0.714819L17.3198 5.67055C17.5857 5.91433 17.7998 6.2091 17.9495 6.53732C18.2565 7.20363 18.2927 7.96314 18.0505 8.65565C17.9347 8.99646 17.7524 9.31088 17.5141 9.58072C17.279 9.8501 16.9922 10.0695 16.6707 10.2259C16.3529 10.3829 16.0063 10.4729 15.6523 10.4902C15.2982 10.5088 14.9439 10.456 14.6106 10.3348C14.2769 10.2096 13.9706 10.0209 13.7089 9.77895L8.38391 4.82711C8.12617 4.58053 7.91891 4.28613 7.77368 3.96034C7.46625 3.29413 7.43001 2.53446 7.67262 1.84201C7.78381 1.50244 7.96079 1.1881 8.19346 0.916935V0.916935Z" fill="#FBE5BD"/>
<path d="M14.7042 3.24117L11.9834 0.718608C11.7242 0.475038 11.4184 0.286451 11.0844 0.164208C10.7504 0.0419646 10.3951 -0.0114047 10.0399 0.00731493C9.68465 0.0272198 9.33694 0.117933 9.01721 0.274123C8.69749 0.430314 8.41221 0.648832 8.17813 0.916838C7.69751 1.46674 7.44916 2.18175 7.48541 2.91118C7.52166 3.64061 7.8397 4.32748 8.37247 4.82701L11.0933 7.34957L14.7042 3.24117Z" fill="#F9CC7D"/>
<path fill-rule="evenodd" clip-rule="evenodd" d="M28.9376 37.259L32.4008 40.7766C33.0732 41.4607 34.1226 40.3879 33.4463 39.7116C32.2932 38.5378 31.1401 37.3718 29.987 36.2135C29.3107 35.5061 28.2613 36.5711 28.9376 37.259Z" fill="#333F56"/>
<path fill-rule="evenodd" clip-rule="evenodd" d="M42.7553 46.5951L39.3776 50L31.4834 42.0514L33.1431 40.3839L34.8611 38.6504L42.7553 46.5951Z" fill="#F5B33C"/>
<path opacity="0.5" fill-rule="evenodd" clip-rule="evenodd" d="M32.1171 30.2122C32.1195 31.3192 31.9026 32.4157 31.479 33.4383C31.0553 34.461 30.4334 35.3897 29.649 36.1708V36.1708C29.0251 36.7977 28.3063 37.3224 27.519 37.7255C26.5331 38.2288 25.4578 38.5328 24.3544 38.6204C23.251 38.7079 22.1412 38.5773 21.0883 38.2358C20.0354 37.8944 19.0601 37.3488 18.2181 36.6304C17.3761 35.9119 16.6839 35.0346 16.1811 34.0486C15.5723 32.8645 15.2577 31.5513 15.2638 30.22C15.2628 28.0647 16.0878 25.9909 17.569 24.4252C19.0503 22.8595 21.0751 21.9209 23.2272 21.8024C25.3793 21.6839 27.495 22.3946 29.1391 23.7882C30.7833 25.1819 31.8309 27.1525 32.0666 29.295V29.295C32.1008 29.5995 32.1176 29.9058 32.1171 30.2122V30.2122Z" fill="white"/>
<path d="M32.1327 30.3403C32.1351 31.4473 31.9182 32.5437 31.4945 33.5664C31.0709 34.5891 30.449 35.5178 29.6646 36.2988C28.7241 37.2387 27.5746 37.9428 26.31 38.3536C25.0455 38.7644 23.7017 38.8703 22.3884 38.6626C21.0751 38.4549 19.8295 37.9395 18.7534 37.1585C17.6773 36.3775 16.8012 35.3531 16.1966 34.1689C15.5891 32.9844 15.2745 31.6715 15.2794 30.3403C15.2804 28.1856 16.1068 26.1132 17.5886 24.549C19.0705 22.9848 21.0952 22.0477 23.2467 21.9303C25.3982 21.8128 27.5129 22.524 29.1562 23.9175C30.7995 25.3111 31.8466 27.2813 32.0822 29.423V29.423C32.1144 29.7277 32.1313 30.0339 32.1327 30.3403" stroke="#4A5F82" stroke-width="2"/>
<path d="M3.40843 16.2544C5.27387 16.2544 6.78611 14.7421 6.78611 12.8767C6.78611 11.0113 5.27387 9.49902 3.40843 9.49902C1.543 9.49902 0.0307617 11.0113 0.0307617 12.8767C0.0307617 14.7421 1.543 16.2544 3.40843 16.2544Z" fill="#F9CC7D"/>
<path fill-rule="evenodd" clip-rule="evenodd" d="M2.44877 16.1144C1.58749 15.8681 0.859354 15.2896 0.42455 14.5064C-0.0102545 13.7232 -0.116113 12.7993 0.130262 11.938C0.376636 11.0767 0.955063 10.3486 1.73829 9.91381C2.52152 9.479 3.4454 9.37314 4.30668 9.61952" fill="#FBE5BD"/>
</svg>
