<svg xmlns="http://www.w3.org/2000/svg" xmlns:xlink="http://www.w3.org/1999/xlink" viewBox="0 0 262.2332 166.845"><defs><clipPath id="clip-path"><polygon points="259.233 83.243 169.046 0 169.046 41.616 77.5 41.616 77.5 124.331 169.046 124.386 169.046 166.845 259.233 83.243" fill="none"/></clipPath><linearGradient id="linear-gradient" x1="77.4997" y1="83.4225" x2="259.2334" y2="83.4225" gradientUnits="userSpaceOnUse"><stop offset="0" stop-color="#fff" stop-opacity="0"/><stop offset="0.0898" stop-color="#fef2da" stop-opacity="0.1633"/><stop offset="0.2245" stop-color="#fde1a8" stop-opacity="0.3824"/><stop offset="0.3605" stop-color="#fcd27d" stop-opacity="0.5714"/><stop offset="0.4948" stop-color="#fbc65a" stop-opacity="0.7258"/><stop offset="0.627" stop-color="#fbbc3e" stop-opacity="0.8457"/><stop offset="0.7566" stop-color="#fab52b" stop-opacity="0.9313"/><stop offset="0.8823" stop-color="#fab11f" stop-opacity="0.9827"/><stop offset="1" stop-color="#fab01b"/></linearGradient></defs><g id="Layer_2" data-name="Layer 2"><g id="Layer_1-2" data-name="Layer 1"><line x1="77.4997" y1="49.3647" x2="18.1153" y2="49.3656" fill="none" stroke="#4ab77f" stroke-miterlimit="10" stroke-width="4"/><circle cx="11.3135" cy="49.3656" r="11.3135" fill="#4ab77f"/><line x1="77.4997" y1="71.5155" x2="54.5168" y2="71.5155" fill="none" stroke="#e566a1" stroke-miterlimit="10" stroke-width="4"/><circle cx="47.715" cy="71.5155" r="11.3135" fill="#e566a1"/><line x1="77.4997" y1="93.6654" x2="25.3345" y2="93.6654" fill="none" stroke="#acbce0" stroke-miterlimit="10" stroke-width="4"/><circle cx="18.5327" cy="93.6654" r="11.3135" fill="#acbce0"/><line x1="77.4997" y1="115.8153" x2="48.3383" y2="115.8153" fill="none" stroke="#17bbb7" stroke-miterlimit="10" stroke-width="4"/><circle cx="41.5365" cy="115.8153" r="11.3135" fill="#17bbb7"/><g clip-path="url(#clip-path)"><polygon points="259.233 83.243 169.046 0 169.046 41.616 77.5 41.616 77.5 124.331 169.046 124.386 169.046 166.845 259.233 83.243" fill="url(#linear-gradient)"/><line x1="240.441" y1="49.3656" x2="77.4997" y2="49.3647" fill="#fff" stroke="#fff" stroke-miterlimit="10" stroke-width="4"/><line x1="250.7756" y1="71.5155" x2="77.4997" y2="71.5147" fill="#fff" stroke="#fff" stroke-miterlimit="10" stroke-width="4"/><line x1="254.4853" y1="93.6654" x2="77.4997" y2="93.6645" fill="#fff" stroke="#fff" stroke-miterlimit="10" stroke-width="4"/><line x1="262.2332" y1="115.8153" x2="77.4997" y2="115.8145" fill="#fff" stroke="#fff" stroke-miterlimit="10" stroke-width="4"/></g></g></g></svg>