<svg xmlns="http://www.w3.org/2000/svg" viewBox="0 0 389.58 505.93"><defs><style>.cls-1{fill:#4b5e82;}.cls-2{fill:#f5b33c;}.cls-3{fill:#f9cc7d;}.cls-4{fill:#20ab9f;}.cls-5{fill:#5ac4be;}.cls-6{fill:#5b95ba;}.cls-7{fill:#8bb4ce;}</style></defs><g id="Layer_2" data-name="Layer 2"><g id="Layer_1-2" data-name="Layer 1"><path class="cls-1" d="M197.18,503.86a7.86,7.86,0,0,1-12.74-3.21A365.64,365.64,0,0,0,156.87,440C151.11,429.93,144,419.4,133,415.73c-6.44-2.14-13.42-1.64-20.18-1.11l-40,3.11c-11.2.87-24.77.62-30.67-9C34.91,397,43.21,381,39.94,368c-1.46-5.77-4.41-7.09-7.3-11.86-3.67-6.05,1-12.62-2.3-18.29-1.07-1.8-2.95-2.92-4.41-4.43-8.63-8.95.37-27.31-9.61-34.73C12.69,296,7.6,295.88,4.09,293c-5.42-4.39-4.59-12.84-2.42-19.46,6.94-21.2,22.45-39.68,24.58-61.88,1.66-17.29-5.1-34.21-6.62-51.51-1.61-18.35,2.76-36.83,9.88-53.83C35.31,92.49,72.5-.17,218.84,0c160.45.19,212.62,195.36,136,278.2-33,35.4-37.34,76.36-31.42,97.42a16.79,16.79,0,0,1-4.89,16.87Z"/><path class="cls-2" d="M330.72,120.16a69.49,69.49,0,0,0-1.37-17.23l9.06-10.63L325.62,68.62,311.7,70.09a62,62,0,0,0-13.4-10.87l-.42-14.07-25.83-8-8.76,11.22a69.16,69.16,0,0,0-17.19,1.4l-10.61-9.07L212,53.15l1.47,13.9a62.2,62.2,0,0,0-10.87,13.44l-14.18.89-8,25.89,11.2,8.76a68.9,68.9,0,0,0,1.37,17.22l-9.07,10.64,12.79,23.68,13.87-1.49A62.2,62.2,0,0,0,223.93,177l.88,14.21L250.19,199l8.75-11.23a69.28,69.28,0,0,0,17.2-1.4l10.6,9.07,23.93-12.32-1.47-13.89a62.8,62.8,0,0,0,10.87-13.44l14.18-.9,8-25.89Zm-79.51,29.21a33,33,0,1,1,41.27-21.82A32.87,32.87,0,0,1,251.21,149.37Z"/><path class="cls-3" d="M276.38,147.08a32.59,32.59,0,0,1-44.19-13.68l-14.92,7.88A49.68,49.68,0,0,0,284.18,162c24.06-12.72,33.29-42.53,20.77-67.06l-14.86,7.85A32.77,32.77,0,0,1,276.38,147.08Z"/><path class="cls-3" d="M238.05,74.17C214,86.89,204.77,116.7,217.29,141.23l14.92-7.88a32.75,32.75,0,1,1,57.9-30.61L305,94.85A49.79,49.79,0,0,0,238.05,74.17Z"/><path class="cls-4" d="M308.47,261a38.85,38.85,0,0,0,3.09-9.15l7-3.47-1.35-15-7.48-2.31a34.58,34.58,0,0,0-4.49-8.53l2.88-7.32-11.51-9.79-7,3.84a38.35,38.35,0,0,0-9.15-3.07l-3.45-7-14.82,1.21-2.3,7.46a34.55,34.55,0,0,0-8.54,4.51l-7.49-2.66-9.81,11.53,3.82,7a38.45,38.45,0,0,0-3.08,9.16l-7,3.46,1.35,15,7.46,2.29a34.58,34.58,0,0,0,4.49,8.53l-2.68,7.49,11.31,9.63,7-3.84a38.7,38.7,0,0,0,9.14,3.06l3.45,7,15-1.05,2.3-7.46a35.29,35.29,0,0,0,8.54-4.52l7.48,2.67,9.82-11.54Zm-47.27-2.5a18.47,18.47,0,1,1,26-2.12A18.37,18.37,0,0,1,261.2,258.52Z"/><path class="cls-5" d="M274.63,262.88A18.2,18.2,0,0,1,255,246.13l-9.4.77a27.71,27.71,0,0,0,55.23-4.51l-9.36.76A18.29,18.29,0,0,1,274.63,262.88Z"/><path class="cls-5" d="M271,217a27.91,27.91,0,0,0-25.42,29.87l9.4-.76a18.3,18.3,0,1,1,36.47-3l9.4-.77A27.82,27.82,0,0,0,271,217Z"/><path class="cls-6" d="M102.26,174.81a47.45,47.45,0,0,0,11.24,3.48l4.44,8.42,18.21-2.11,2.59-9.18A42,42,0,0,0,149,169.69l9,3.29,11.58-14.32-4.89-8.38a46.73,46.73,0,0,0,3.46-11.23l8.41-4.42-1.92-18L165.49,114a42.38,42.38,0,0,0-5.76-10.27l3-9.2L148.39,83,140,87.82a47.09,47.09,0,0,0-11.25-3.49l-4.44-8.42L106.13,78l-2.56,9.15A42.53,42.53,0,0,0,93.31,92.9l-9.21-3L72.71,103.94l4.9,8.37a46.87,46.87,0,0,0-3.46,11.23L65.73,128l1.75,18.25,9.16,2.58a42.56,42.56,0,0,0,5.76,10.27l-3,9.2,14.35,11.61Zm1.61-57.68a22.51,22.51,0,1,1,3.37,31.62A22.38,22.38,0,0,1,103.87,117.13Z"/><path class="cls-7" d="M99,133.63a22.18,22.18,0,0,1,19.81-24.5L117.55,97.7a33.78,33.78,0,1,0,7.18,67.17l-1.22-11.38A22.31,22.31,0,0,1,99,133.63Z"/><path class="cls-7" d="M154.76,127.8a34,34,0,0,0-37.18-30.08l1.22,11.43a22.31,22.31,0,1,1,4.74,44.36l1.22,11.43A33.9,33.9,0,0,0,154.76,127.8Z"/></g></g></svg>