<svg width="60" height="60" viewBox="0 0 60 60" fill="none" xmlns="http://www.w3.org/2000/svg">
<path d="M12.445 19.1284C12.6068 19.2398 12.7919 19.2927 12.9745 19.2927C13.2734 19.2927 13.5674 19.1497 13.749 18.8849C15.6356 16.1322 18.1755 13.9161 21.1364 12.421C22.4044 16.098 25.8979 18.7492 30.0006 18.7492C35.1699 18.7492 39.3755 14.5436 39.3755 9.37436C39.376 4.2046 35.1688 0 29.9996 0C24.8303 0 20.6247 4.20561 20.6247 9.37487C20.6247 9.77079 20.6529 10.1598 20.7 10.5433C17.2817 12.1795 14.3543 14.6847 12.2016 17.8253C11.9086 18.2519 12.0175 18.8354 12.4455 19.1284L12.445 19.1284ZM29.9997 16.8752C28.1022 16.8752 26.3682 16.165 25.0448 14.9989C26.4078 13.8003 28.1691 13.1253 29.9997 13.1253C31.8303 13.1253 33.5918 13.8003 34.9546 14.9989C33.6327 16.1649 31.8986 16.8752 29.9997 16.8752ZM28.1245 9.37498C28.1245 8.34164 28.9658 7.49978 29.9997 7.49978C31.0331 7.49978 31.8749 8.3411 31.8749 9.37498C31.8749 10.4083 31.0336 11.2502 29.9997 11.2502C28.9664 11.2502 28.1245 10.4089 28.1245 9.37498ZM29.9997 1.87481C34.1351 1.87481 37.4999 5.23917 37.4999 9.37498C37.4999 10.9384 37.0184 12.3914 36.1968 13.5935C35.2392 12.7497 34.1237 12.1147 32.9236 11.7198C33.4402 11.0775 33.7496 10.2618 33.7496 9.37498C33.7496 7.30682 32.0669 5.62508 29.9997 5.62508C27.9324 5.62508 26.2498 7.3067 26.2498 9.37498C26.2498 10.2623 26.5591 11.0765 27.0757 11.7198C25.8756 12.1148 24.7602 12.7512 23.8025 13.5935C22.9809 12.3914 22.4994 10.9379 22.4994 9.37498C22.4994 5.23955 25.8638 1.87481 29.9996 1.87481H29.9997Z" fill="#DCDCDC"/>
<path d="M47.5545 40.8715C47.1279 40.5785 46.5444 40.6874 46.2514 41.1155C44.3648 43.8682 41.825 46.0843 38.864 47.5794C37.5961 43.9024 34.1026 41.2512 29.9999 41.2512C24.8306 41.2512 20.625 45.4568 20.625 50.626C20.625 55.7953 24.8306 60.0009 29.9999 60.0009C35.1691 60.0009 39.3747 55.7953 39.3747 50.626C39.3747 50.2301 39.3465 49.8411 39.2995 49.4576C42.7177 47.8214 45.6451 45.3162 47.7979 42.1756C48.0909 41.7489 47.982 41.1655 47.5539 40.8725L47.5545 40.8715ZM29.9997 58.1247C28.1022 58.1247 26.3682 57.4145 25.0449 56.2485C26.4078 55.0498 28.1691 54.3748 29.9997 54.3748C31.8303 54.3748 33.5918 55.0498 34.9546 56.2485C33.6327 57.4145 31.8986 58.1247 29.9997 58.1247ZM28.1245 50.6245C28.1245 49.5912 28.9659 48.7493 29.9997 48.7493C31.0331 48.7493 31.8749 49.5907 31.8749 50.6245C31.8749 51.6579 31.0336 52.4997 29.9997 52.4997C28.9664 52.4997 28.1245 51.6584 28.1245 50.6245ZM36.1964 54.8431C35.2387 53.9993 34.1233 53.3643 32.9231 52.9694C33.4398 52.327 33.7491 51.5114 33.7491 50.6245C33.7491 48.5564 32.0664 46.8746 29.9992 46.8746C27.9319 46.8746 26.2493 48.5562 26.2493 50.6245C26.2493 51.5119 26.5586 52.326 27.0753 52.9694C25.8751 53.3643 24.7597 54.0008 23.802 54.8431C22.9804 53.641 22.4989 52.1874 22.4989 50.6245C22.4989 46.4891 25.8633 43.1244 29.9991 43.1244C34.1345 43.1244 37.4993 46.4887 37.4993 50.6245C37.4993 52.1879 37.0177 53.641 36.1962 54.8431H36.1964Z" fill="#DCDCDC"/>
<path opacity="0.5" d="M7 33.001L3.5 35.501V36.501L7.5 38.501L12.5 38.001L15.5 35.501L11.5 33.001H7Z" fill="#DCDCDC"/>
<path opacity="0.5" d="M48.5 33.001L45 35.501V36.501L49 38.501L54 38.001L57 35.501L53 33.001H48.5Z" fill="#DCDCDC"/>
<path d="M18.8859 46.2505C16.1332 44.3639 13.9171 41.824 12.422 38.8631C16.099 37.5951 18.7502 34.1016 18.7502 29.9989C18.7502 24.8296 14.5446 20.624 9.37537 20.624C4.20562 20.624 0 24.8301 0 29.9989C0 35.1681 4.20562 39.3738 9.37487 39.3738C9.77079 39.3738 10.1598 39.3455 10.5433 39.2985C12.1795 42.7167 14.6847 45.6441 17.8253 47.7969C17.9872 47.9083 18.1723 47.9612 18.3549 47.9612C18.6538 47.9612 18.9478 47.8182 19.1294 47.5534C19.4224 47.1268 19.3135 46.5433 18.8854 46.2504L18.8859 46.2505ZM1.87469 29.9994C1.87469 25.864 5.23906 22.4992 9.37487 22.4992C13.5103 22.4992 16.875 25.8636 16.875 29.9994C16.875 31.5628 16.3935 33.0159 15.572 34.2179C14.6144 33.3741 13.4989 32.7392 12.2987 32.3443C12.8154 31.7019 13.1247 30.8863 13.1247 29.9994C13.1247 27.9312 11.4421 26.2495 9.3748 26.2495C7.30766 26.2495 5.62491 27.9311 5.62491 29.9994C5.62491 30.8868 5.93422 31.7009 6.45089 32.3443C5.25076 32.7392 4.1353 33.3756 3.17762 34.2179C2.35608 33.0158 1.87457 31.5623 1.87457 29.9994H1.87469ZM11.2496 29.9994C11.2496 31.0327 10.4082 31.8746 9.37436 31.8746C8.34102 31.8746 7.49916 31.0333 7.49916 29.9994C7.49916 28.9661 8.34049 28.1242 9.37436 28.1242C10.4077 28.1242 11.2496 28.9655 11.2496 29.9994ZM4.41998 35.6235C5.78296 34.4248 7.54426 33.7498 9.37487 33.7498C11.2055 33.7498 12.9669 34.4248 14.3298 35.6235C13.0078 36.7895 11.2738 37.4997 9.37487 37.4997C7.47648 37.4997 5.7433 36.7895 4.41998 35.6235Z" fill="#DCDCDC"/>
<path d="M50.624 20.6247C50.2281 20.6247 49.8391 20.6529 49.4556 20.7C47.8194 17.2817 45.3142 14.3543 42.1736 12.2016C41.746 11.9086 41.1635 12.0175 40.8705 12.4455C40.5775 12.8721 40.6864 13.4556 41.1145 13.7486C43.8672 15.6352 46.0833 18.175 47.5784 21.136C43.9014 22.404 41.2502 25.8974 41.2502 30.0002C41.2502 35.1694 45.4558 39.375 50.625 39.375C55.7943 39.375 59.9999 35.1694 59.9999 30.0002C59.9999 24.8309 55.7943 20.6253 50.625 20.6253L50.624 20.6247ZM50.624 37.5004C48.7265 37.5004 46.9925 36.7902 45.6691 35.6242C47.0321 34.4255 48.7934 33.7505 50.624 33.7505C52.4546 33.7505 54.2161 34.4255 55.5789 35.6242C54.257 36.7902 52.5229 37.5004 50.624 37.5004ZM48.7488 30.0002C48.7488 28.9669 49.5901 28.125 50.624 28.125C51.6574 28.125 52.4992 28.9664 52.4992 30.0002C52.4992 31.0336 51.6579 31.8754 50.624 31.8754C49.5907 31.8754 48.7488 31.0341 48.7488 30.0002ZM56.8206 34.2188C55.863 33.375 54.7475 32.74 53.5474 32.3451C54.064 31.7027 54.3733 30.8871 54.3733 30.0002C54.3733 27.9321 52.6907 26.2503 50.6235 26.2503C48.5563 26.2503 46.8736 27.9319 46.8736 30.0002C46.8736 30.8876 47.1829 31.7017 47.6995 32.3451C46.4994 32.74 45.3839 33.3765 44.4263 34.2188C43.6047 33.0167 43.1232 31.5631 43.1232 30.0002C43.1232 25.8648 46.4876 22.5001 50.6234 22.5001C54.7588 22.5001 58.1236 25.8644 58.1236 30.0002C58.1236 31.5636 57.642 33.0167 56.8205 34.2188H56.8206Z" fill="#DCDCDC"/>
</svg>
