<svg width="60" height="60" viewBox="0 0 60 60" fill="none" xmlns="http://www.w3.org/2000/svg">
<g clip-path="url(#clip0_510_11441)">
<path d="M13.0002 43.0017C13.0002 42.2064 12.684 41.4432 12.1213 40.8805C11.5591 40.3178 10.7959 40.0016 10.0001 40.0016C9.20433 40.0016 8.44162 40.3178 7.87896 40.8805C7.31625 41.4433 7 42.2064 7 43.0017C7 43.7975 7.31625 44.5607 7.87896 45.1234C8.44167 45.6856 9.20433 46.0018 10.0001 46.0018C10.7959 46.0018 11.5591 45.6856 12.1213 45.1234C12.684 44.5607 13.0002 43.7975 13.0002 43.0017ZM10.0001 44.0019C9.59571 44.0019 9.23097 43.7584 9.07605 43.3848C8.92164 43.0111 9.00677 42.5805 9.29282 42.295C9.57888 42.0089 10.0089 41.9233 10.3826 42.0782C10.7563 42.2326 11.0003 42.5974 11.0003 43.0017C11.0003 43.267 10.8948 43.5214 10.7073 43.7089C10.5197 43.8965 10.2653 44.0019 10.0001 44.0019Z" fill="white"/>
<path d="M22.0016 40.0016C21.2063 40.0016 20.4431 40.3178 19.8804 40.8805C19.3177 41.4433 19.002 42.2064 19.002 43.0017C19.002 43.7975 19.3177 44.5607 19.8804 45.1234C20.4431 45.6856 21.2063 46.0018 22.0016 46.0018C22.7974 46.0018 23.5606 45.6856 24.1232 45.1234C24.6859 44.5607 25.0017 43.7975 25.0017 43.0017C25.0017 42.2064 24.6859 41.4432 24.1232 40.8805C23.5605 40.3178 22.7974 40.0016 22.0016 40.0016ZM22.0016 44.0014V44.0019C21.5972 44.0019 21.2325 43.7584 21.0781 43.3847C20.9232 43.0111 21.0088 42.5805 21.2948 42.295C21.5809 42.0089 22.011 41.9233 22.3846 42.0782C22.7583 42.2326 23.0018 42.5974 23.0018 43.0017C23.0018 43.267 22.8964 43.5214 22.7088 43.7089C22.5212 43.8965 22.2668 44.0019 22.0016 44.0019V44.0014Z" fill="white"/>
<path d="M16.0003 46.0022C14.9392 46.0022 13.9217 46.4239 13.1719 47.1736C12.4217 47.9239 12 48.9414 12 50.0025C12 51.0631 12.4217 52.0806 13.1719 52.8309C13.9217 53.5812 14.9392 54.0024 16.0003 54.0024C17.0609 54.0024 18.0784 53.5812 18.8287 52.8309C19.579 52.0806 20.0002 51.0631 20.0002 50.0025C20.0002 48.9414 19.579 47.9239 18.8287 47.1736C18.0784 46.4239 17.0609 46.0022 16.0003 46.0022ZM16.0003 52.0024C15.4698 52.0024 14.961 51.7916 14.5859 51.4165C14.2107 51.0413 14.0004 50.5325 14.0004 50.0025C14.0004 49.472 14.2107 48.9632 14.5859 48.5881C14.961 48.2129 15.4698 48.0021 16.0003 48.0021C16.5309 48.0021 17.0391 48.2129 17.4143 48.5881C17.7894 48.9632 18.0002 49.472 18.0002 50.0025C18.0002 50.5326 17.7894 51.0413 17.4143 51.4165C17.0391 51.7916 16.5308 52.0024 16.0003 52.0024Z" fill="white"/>
<path d="M58.0006 24.0008H53.0005V8.00027C52.9985 5.87911 52.1547 3.8455 50.6551 2.34592C49.155 0.845826 47.1214 0.00253393 45.0007 0H21.0006C18.8794 0.00247451 16.8458 0.845801 15.3462 2.34592C13.8461 3.8455 13.0028 5.87911 13.0003 8.00027V18.0004H9.00048C8.46993 18.0004 7.96117 18.2113 7.58604 18.5864C7.2109 18.9615 7.00006 19.4698 7.00006 20.0003V22.0003C7.00006 22.5308 7.2109 23.0396 7.58604 23.4147C7.96117 23.7898 8.46995 24.0007 9.00048 24.0007V28.3079V28.3074C8.98761 29.1071 8.55011 29.8396 7.85229 30.2296C2.9457 33.1327 -0.0449726 38.4273 0.000511514 44.1282C0.0460438 49.8291 3.12194 55.0746 8.07401 57.8989C13.0266 60.7229 19.107 60.6987 24.0365 57.8356C28.9663 54.972 32.0001 49.7018 32.0006 44.0003C31.9832 38.349 29.0019 33.1217 24.1474 30.2283C23.4496 29.8379 23.0126 29.1059 23.0002 28.3061V23.9994C23.5307 23.9994 24.0395 23.7886 24.4146 23.4134C24.7898 23.0383 25.0001 22.5295 25.0001 21.999V19.9991C25.0001 19.4685 24.7898 18.9603 24.4146 18.5852C24.0395 18.21 23.5307 17.9992 23.0002 17.9992H19.0004V7.99901C19.0004 7.46847 19.2107 6.9597 19.5859 6.58457C19.961 6.20943 20.4698 5.99909 21.0003 5.99909H25.2625C25.0903 6.65187 25.0022 7.32396 25.0002 7.999C25.0002 10.8572 26.525 13.4984 29.0005 14.9273C31.4755 16.3565 34.5251 16.3565 37.0008 14.9273C39.4758 13.4985 41.0006 10.8572 41.0006 7.999C40.9991 7.32395 40.911 6.65183 40.7388 5.99909H45.001C45.531 5.99909 46.0398 6.20943 46.4149 6.58457C46.7901 6.9597 47.0009 7.46848 47.0009 7.99901V23.9995H34.9276C34.0828 24.0124 33.284 24.3846 32.7307 25.023C32.1774 25.661 31.9225 26.5047 32.0299 27.3427C32.1373 28.1806 32.5966 28.9334 33.2924 29.4114L33.3053 29.4193L35.0003 30.5373V55.9996C35.0003 57.0607 35.422 58.0782 36.1723 58.8279C36.9221 59.5782 37.9396 59.9999 39.0007 59.9999H56.0008C57.0619 59.9999 58.0794 59.5782 58.8292 58.8279C59.5795 58.0782 60.0012 57.0607 60.0012 55.9996V25.999C60.0012 25.4685 59.7903 24.9597 59.4152 24.5846C59.04 24.2095 58.5313 23.9991 58.0007 23.9991L58.0006 24.0008ZM16.0006 58.0011C11.1965 58.011 6.7245 55.5523 4.1594 51.4906C1.59379 47.4293 1.29491 42.3347 3.36705 38.0012H28.6342C30.7068 42.3351 30.4079 47.4297 27.8423 51.4906C25.2767 55.5523 20.8047 58.011 16.0011 58.0011H16.0006ZM23.1278 31.951V31.9515C24.8471 32.9755 26.3274 34.3567 27.4677 36.0014H4.53302C5.67379 34.3569 7.15311 32.976 8.87239 31.9515C10.1804 31.2032 10.9916 29.815 11.0005 28.308V24.0013H21.0007V28.3085V28.308C21.0096 29.815 21.8198 31.2028 23.1278 31.9515V31.951ZM23.0006 22.0009H9.00062V20.001H23.0006V22.0009ZM33.0008 14.0006V14.0011C31.4101 13.9991 29.8848 13.3666 28.7599 12.2417C27.6349 11.1168 27.0024 9.59144 27.0009 8.00076C26.9994 7.31927 27.1162 6.64219 27.3469 6.00085H29.5571H29.5566C29.1968 6.60612 29.0048 7.29658 29.0008 8.00076C29.0008 9.06135 29.422 10.0788 30.1723 10.8291C30.9226 11.5794 31.9401 12.0006 33.0007 12.0006C34.0617 12.0006 35.0792 11.5794 35.829 10.8291C36.5793 10.0789 37.001 9.06134 37.001 8.00076C37.001 6.93968 36.5793 5.92217 35.829 5.17238C35.0792 4.4221 34.0617 4.00044 33.0007 4.00044H21.0006C19.9395 4.00044 18.922 4.4221 18.1722 5.17238C17.4219 5.92217 17.0003 6.93968 17.0003 8.00076V18.0009H15.0003V8.00076C15.0018 6.40958 15.6348 4.88478 16.7598 3.75984C17.8847 2.63491 19.4095 2.00192 21.0007 2.0004H33.0008C34.1386 1.99397 35.2536 2.31467 36.2147 2.92341C37.1753 3.53215 37.9409 4.40425 38.421 5.43556C38.8065 6.23533 39.005 7.11277 39.001 8.00066C38.9995 9.59134 38.3665 11.1166 37.2416 12.2416C36.1166 13.3665 34.5918 13.999 33.0007 14.001L33.0008 14.0006ZM33.0008 6.00036V6.00085C33.5313 6.00085 34.0401 6.21119 34.4152 6.58633C34.7904 6.96147 35.0007 7.47024 35.0007 8.00077C35.0007 8.5313 34.7904 9.04008 34.4152 9.41471C34.0401 9.78985 33.5313 10.0007 33.0008 10.0007C32.4703 10.0007 31.9615 9.78985 31.5868 9.41471C31.2117 9.04007 31.0009 8.53129 31.0009 8.00077C31.0009 7.47026 31.2117 6.96147 31.5868 6.58633C31.9615 6.21119 32.4703 6.00085 33.0008 6.00085V6.00036ZM45.0014 4.00045H39.9008C39.4762 3.25115 38.9318 2.57562 38.2899 2.00054H45.0014C46.592 2.00203 48.1173 2.63501 49.2423 3.75998C50.3672 4.88491 50.9997 6.40971 51.0012 8.0009V24.0014H49.0013V8.0009C49.0013 6.93981 48.5796 5.92231 47.8299 5.17252C47.0796 4.42224 46.0621 4.00058 45.0015 4.00058L45.0014 4.00045ZM49.0012 26.0001H51.0011V41.001H49.0012V26.0001ZM34.4006 27.7505C34.0681 27.5085 33.9246 27.0824 34.0428 26.6884C34.1616 26.2945 34.5165 26.0183 34.9277 26.0005H47.001V41.0001C47.001 41.5307 47.2119 42.0395 47.5865 42.4146C47.9617 42.7897 48.4704 43.0001 49.001 43.0001H51.0009C51.5314 43.0001 52.0402 42.7897 52.4153 42.4146C52.7905 42.0395 53.0008 41.5307 53.0008 41.0001V26.0005H58.0009V49.001H37.0009V30.0003C37.0009 29.6643 36.8321 29.3505 36.5515 29.1654C35.0405 28.1697 34.5664 27.8564 34.4006 27.7505L34.4006 27.7505ZM56.0012 58.0006H39.001C38.4705 58.0006 37.9617 57.7903 37.5866 57.4151C37.2114 57.04 37.0011 56.5312 37.0011 56.0007V51.0006H58.0011V56.0007C58.0011 56.5312 57.7907 57.04 57.4156 57.4151C57.0405 57.7903 56.5317 58.0006 56.0011 58.0006H56.0012Z" fill="white"/>
<path d="M39.9997 31.0016H44C44.5524 31.0016 45.0002 30.5537 45.0002 30.0014C45.0002 29.4491 44.5523 29.0017 44 29.0017H39.9997C39.4479 29.0017 39 29.4491 39 30.0014C39 30.5537 39.4479 31.0016 39.9997 31.0016Z" fill="white"/>
<path d="M39.9997 35.0011H42.0001C42.5524 35.0011 42.9998 34.5537 42.9998 34.0014C42.9998 33.4491 42.5524 33.0012 42.0001 33.0012H39.9997C39.4479 33.0012 39 33.4491 39 34.0014C39 34.5537 39.4479 35.0011 39.9997 35.0011Z" fill="white"/>
<path d="M39.9997 39.0019H44C44.5524 39.0019 45.0002 38.554 45.0002 38.0017C45.0002 37.4494 44.5523 37.002 44 37.002H39.9997C39.4479 37.002 39 37.4493 39 38.0017C39 38.554 39.4479 39.0019 39.9997 39.0019Z" fill="white"/>
<path d="M39.9997 43.0014H42.0001C42.5524 43.0014 42.9998 42.554 42.9998 42.0017C42.9998 41.4494 42.5524 41.0015 42.0001 41.0015H39.9997C39.4479 41.0015 39 41.4494 39 42.0017C39 42.554 39.4479 43.0014 39.9997 43.0014Z" fill="white"/>
<path d="M39.9997 47.0009H44C44.5524 47.0009 45.0002 46.553 45.0002 46.0007C45.0002 45.4484 44.5523 45.001 44 45.001H39.9997C39.4479 45.001 39 45.4484 39 46.0007C39 46.553 39.4479 47.0009 39.9997 47.0009Z" fill="white"/>
<path d="M44 53.0013H39.9997C39.4479 53.0013 39 53.4492 39 54.0016C39 54.5539 39.4479 55.0018 39.9997 55.0018H44C44.5524 55.0018 45.0002 54.5539 45.0002 54.0016C45.0002 53.4492 44.5523 53.0013 44 53.0013Z" fill="white"/>
</g>
<defs>
<clipPath id="clip0_510_11441">
<rect width="60" height="60" fill="white"/>
</clipPath>
</defs>
</svg>
