<svg width="60" height="60" viewBox="0 0 60 60" fill="none" xmlns="http://www.w3.org/2000/svg">
<g clip-path="url(#clip0_510_11438)">
<path d="M42.8098 59.9989H5.36022C2.4098 59.9989 0 57.5895 0 54.6391V5.36022C0 2.4098 2.40994 0 5.36022 0H42.8098C45.7602 0 48.17 2.40994 48.17 5.36022V11.9501L58.8816 18.1338C59.4473 18.4592 59.643 19.1828 59.3177 19.7486L48.1704 39.0571V54.6402C48.1704 57.5895 45.7605 60 42.8102 60L42.8098 59.9989ZM48.17 14.6806V34.325L56.6758 19.591L48.17 14.6799V14.6806ZM7.40204 53.7168C5.8381 53.7168 5.8381 51.3405 7.40204 51.3405H40.7687C42.3332 51.3405 42.3332 53.7168 40.7687 53.7168H7.40204ZM26.3921 41.3656C24.8277 41.3656 24.8277 38.9893 26.3921 38.9893H40.7701C42.3346 38.9893 42.3346 41.3656 40.7701 41.3656H26.3921ZM7.40204 47.5415C5.8381 47.5415 5.8381 45.1651 7.40204 45.1651H40.7687C42.3332 45.1651 42.3332 47.5415 40.7687 47.5415H7.40204ZM26.3921 29.0149C24.8277 29.0149 24.8277 26.6385 26.3921 26.6385H40.7701C42.3346 26.6385 42.3346 29.0149 40.7701 29.0149H26.3921ZM26.3921 35.1907C24.8277 35.1907 24.8277 32.8144 26.3921 32.8144H40.7701C42.3346 32.8144 42.3346 35.1907 40.7701 35.1907H26.3921ZM26.3921 22.8396C24.8277 22.8396 24.8277 20.4632 26.3921 20.4632H40.7701C42.3346 20.4632 42.3346 22.8396 40.7701 22.8396H26.3921ZM7.40204 20.4632H21.9479C22.6039 20.4632 23.1361 20.9954 23.1361 21.6514V39.1556C23.1361 39.8116 22.6039 40.3437 21.9479 40.3437H7.40204C6.74605 40.3437 6.2139 39.8116 6.2139 39.1556V21.6514C6.2139 20.9954 6.74604 20.4632 7.40204 20.4632ZM20.7597 22.8396H8.59022V37.9672H20.7597V22.8396ZM7.40204 6.28118H40.7687C41.4247 6.28118 41.9569 6.81332 41.9569 7.46933V16.8049C41.9569 17.4609 41.4247 17.9931 40.7687 17.9931H7.40204C6.74605 17.9931 6.2139 17.4609 6.2139 16.8049V7.46933C6.2139 6.81333 6.74604 6.28118 7.40204 6.28118ZM39.5811 8.65753H8.58968V15.6164H39.5811V8.65753ZM5.3613 57.6234H42.8108C44.4497 57.6234 45.7948 56.2783 45.7948 54.6399V5.36103C45.7948 3.72211 44.4497 2.37702 42.8108 2.37702H5.3613C3.72292 2.37702 2.37783 3.72211 2.37783 5.36103V54.6399C2.37783 56.2788 3.72292 57.6234 5.3613 57.6234Z" fill="white"/>
</g>
<defs>
<clipPath id="clip0_510_11438">
<rect width="60" height="60" fill="white"/>
</clipPath>
</defs>
</svg>
