<svg width="87" height="115" viewBox="0 0 87 115" fill="none" xmlns="http://www.w3.org/2000/svg">
<path d="M54.8547 67.3076C54.8547 69.1418 56.3414 70.6342 58.1665 70.6342C59.9917 70.6342 61.4768 69.1418 61.4768 67.3076C61.4768 65.4719 59.9917 63.9795 58.1665 63.9795C56.3414 63.9795 54.8547 65.4719 54.8547 67.3076ZM59.1628 67.3076C59.1628 67.8601 58.7155 68.3096 58.1657 68.3096C57.6144 68.3096 57.1672 67.8601 57.1672 67.3076C57.1672 66.7536 57.6144 66.3041 58.1657 66.3041C58.7155 66.3041 59.1628 66.7536 59.1628 67.3076Z" fill="#DDDDDF"/>
<path d="M51.1642 26.21H41.1564V28.5346H51.1642V26.21Z" fill="#DDDDDF"/>
<path d="M38.0915 26.21H21.1694V28.5346H38.0915V26.21Z" fill="#DDDDDF"/>
<path d="M38.0914 30.8574H27.277V33.1821H38.0914V30.8574Z" fill="#DDDDDF"/>
<path d="M47.9928 30.8584H41.1564V33.1831H47.9928V30.8584Z" fill="#DDDDDF"/>
<path d="M24.2291 30.8584H21.1694V33.1831H24.2291V30.8584Z" fill="#DDDDDF"/>
<path d="M44.2622 35.5078H38.072V37.8325H44.2622V35.5078Z" fill="#DDDDDF"/>
<path d="M35.0049 35.5078H21.1694V37.8325H35.0049V35.5078Z" fill="#DDDDDF"/>
<path d="M30.3827 40.1572H21.1937V42.4819H30.3827V40.1572Z" fill="#DDDDDF"/>
<path d="M43.4204 40.1582H33.4457V42.4829H43.4204V40.1582Z" fill="#DDDDDF"/>
<path d="M31.195 44.8057H21.1694V47.1303H31.195V44.8057Z" fill="#DDDDDF"/>
<path d="M21.0703 49.4664L21.075 51.791L28.0501 51.777L28.0455 49.4523L21.0703 49.4664Z" fill="#DDDDDF"/>
<path d="M49.7006 14.5859H24.2327V16.9106H49.7006V14.5859Z" fill="#DDDDDF"/>
<path d="M45.0575 19.2354H28.8193V21.56H45.0575V19.2354Z" fill="#DDDDDF"/>
<path d="M68.4264 71.1532H65.0606V67.0563C73.3968 63.4229 79.25 55.0836 79.25 45.3851C79.25 37.2287 75.0569 29.6991 68.2336 25.3892L70.6856 21.1234L72.6827 22.2819L73.8393 20.2687L71.8423 19.1095L61.4435 13.0763L59.4325 11.9101L58.2759 13.9232L60.2861 15.0894L58.1201 18.8585V6.06354L17.2514 6V36.3135H8V53.9724C8 56.6318 9.8876 58.8549 12.3867 59.3602V59.4694L49.7169 59.519L46.2694 67.0486L47.4307 67.4887C48.6536 67.9536 49.9066 68.3078 51.1804 68.5588V71.1532H37.301V82H68.4264C71.4251 82 73.8648 79.5661 73.8648 76.5758C73.8648 73.5855 71.4251 71.1532 68.4264 71.1532ZM17.2514 53.9724C17.2514 55.7205 15.8357 57.1432 14.0954 57.1432H13.4685C11.7289 57.1432 10.3132 55.7205 10.3132 53.9724V38.639H17.2514V53.9724ZM66.164 45.3851C66.164 50.3374 62.7227 54.4885 58.1201 55.5733V42.9938L61.6802 36.7971C64.4885 38.7606 66.164 41.9307 66.164 45.3851ZM53.5877 41.8284L51.1388 46.0903L48.0367 44.2902L50.4857 40.0275L53.5877 41.8284ZM68.6824 19.9611L56.6435 40.9171L50.249 37.2077L62.2894 16.2517L62.9294 16.6229L68.6824 19.9611ZM18.5538 57.1525C19.1907 56.2552 19.5654 55.158 19.5654 53.9724V8.32776L55.8077 8.3851V22.8848L47.0891 38.0586L48.4824 38.8668L44.8769 45.1418L51.9854 49.2657L55.591 42.9907L55.8077 43.1162V55.8569C55.7853 55.8569 55.7637 55.86 55.7413 55.86C55.0828 55.86 54.4313 55.7903 53.7897 55.6678L55.1723 53.2626L39.2457 44.0221C38.9072 43.8253 38.5216 43.7214 38.1299 43.7214C37.3318 43.7214 36.5893 44.1515 36.1906 44.8435L35.654 45.7772C35.0379 46.8504 35.4057 48.2274 36.4736 48.8481L50.7972 57.1579L50.781 57.1959L18.5538 57.1525ZM51.5528 54.9123L37.6958 46.8729L38.1554 46.074L52.0124 54.1134L51.5528 54.9123ZM53.0094 57.8879C53.9039 58.0847 54.8184 58.1847 55.7413 58.1847C62.7636 58.1847 68.478 52.4428 68.478 45.3851C68.478 41.3286 66.6012 37.5789 63.412 35.1644L66.5218 28.3694L67.0847 27.3907C73.1932 31.2845 76.9368 38.0593 76.9368 45.3843C76.9368 53.8941 71.9371 61.2408 64.7414 64.6488C63.9009 62.0637 61.4867 60.1885 58.6437 60.1885H57.5989C54.2177 60.1885 51.4464 62.8371 51.2059 66.1799C50.6067 66.0498 50.0115 65.9049 49.4239 65.7197L53.0094 57.8879ZM62.7474 66.6534V75.0276H53.4944V66.6534C53.4944 64.3714 55.335 62.514 57.5981 62.514H58.6429C60.9068 62.5147 62.7474 64.3714 62.7474 66.6534ZM68.4264 79.6753H39.6142V73.4778H51.1804V77.3522H65.0598V73.4778H68.4256C70.1482 73.4778 71.5508 74.8672 71.5508 76.5773C71.5516 78.286 70.149 79.6753 68.4264 79.6753Z" fill="#DDDDDF"/>
<path d="M14.9758 103.844C15.0598 103.844 15.1322 103.877 15.1928 103.942L15.7808 104.586C15.3702 105.071 14.8685 105.447 14.2758 105.713C13.6878 105.979 12.9785 106.112 12.1478 106.112C11.4198 106.112 10.7595 105.986 10.1668 105.734C9.57882 105.482 9.07482 105.13 8.65482 104.677C8.23949 104.224 7.91749 103.683 7.68882 103.053C7.46015 102.423 7.34582 101.73 7.34582 100.974C7.34582 100.218 7.46482 99.525 7.70282 98.895C7.94549 98.265 8.28382 97.7237 8.71782 97.271C9.15182 96.8183 9.66982 96.466 10.2718 96.214C10.8785 95.962 11.5482 95.836 12.2808 95.836C12.9948 95.836 13.6295 95.9527 14.1848 96.186C14.7402 96.4193 15.2232 96.7297 15.6338 97.117L15.1438 97.81C15.1112 97.8613 15.0692 97.9033 15.0178 97.936C14.9712 97.9687 14.9082 97.985 14.8288 97.985C14.7402 97.985 14.6352 97.9407 14.5138 97.852C14.3972 97.7633 14.2408 97.6653 14.0448 97.558C13.8535 97.446 13.6155 97.3457 13.3308 97.257C13.0462 97.1683 12.6915 97.124 12.2668 97.124C11.7675 97.124 11.3102 97.2127 10.8948 97.39C10.4795 97.5627 10.1202 97.8147 9.81682 98.146C9.51815 98.4727 9.28482 98.8763 9.11682 99.357C8.95349 99.833 8.87182 100.372 8.87182 100.974C8.87182 101.585 8.95815 102.129 9.13082 102.605C9.30349 103.081 9.54149 103.485 9.84482 103.816C10.1482 104.147 10.5052 104.399 10.9158 104.572C11.3265 104.745 11.7698 104.831 12.2458 104.831C12.5352 104.831 12.7942 104.815 13.0228 104.782C13.2562 104.745 13.4685 104.691 13.6598 104.621C13.8558 104.551 14.0402 104.462 14.2128 104.355C14.3855 104.243 14.5558 104.11 14.7238 103.956C14.7612 103.923 14.8008 103.898 14.8428 103.879C14.8848 103.856 14.9292 103.844 14.9758 103.844ZM26.4536 100.974C26.4536 101.725 26.3323 102.416 26.0896 103.046C25.8516 103.671 25.5133 104.213 25.0746 104.67C24.636 105.123 24.111 105.475 23.4996 105.727C22.8883 105.979 22.2093 106.105 21.4626 106.105C20.7206 106.105 20.0416 105.979 19.4256 105.727C18.8143 105.475 18.2893 105.123 17.8506 104.67C17.4166 104.213 17.0783 103.671 16.8356 103.046C16.593 102.416 16.4716 101.725 16.4716 100.974C16.4716 100.227 16.593 99.539 16.8356 98.909C17.0783 98.279 17.4166 97.7377 17.8506 97.285C18.2893 96.8277 18.8143 96.473 19.4256 96.221C20.0416 95.9643 20.7206 95.836 21.4626 95.836C22.2093 95.836 22.8883 95.9643 23.4996 96.221C24.111 96.473 24.636 96.8277 25.0746 97.285C25.5133 97.7377 25.8516 98.279 26.0896 98.909C26.3323 99.539 26.4536 100.227 26.4536 100.974ZM24.9276 100.974C24.9276 100.377 24.846 99.84 24.6826 99.364C24.5193 98.888 24.286 98.4843 23.9826 98.153C23.684 97.8217 23.32 97.5673 22.8906 97.39C22.466 97.2127 21.99 97.124 21.4626 97.124C20.9353 97.124 20.457 97.2127 20.0276 97.39C19.603 97.5673 19.239 97.8217 18.9356 98.153C18.6323 98.4843 18.399 98.888 18.2356 99.364C18.0723 99.84 17.9906 100.377 17.9906 100.974C17.9906 101.576 18.0723 102.115 18.2356 102.591C18.399 103.062 18.6323 103.464 18.9356 103.795C19.239 104.126 19.603 104.381 20.0276 104.558C20.457 104.731 20.9353 104.817 21.4626 104.817C21.99 104.817 22.466 104.731 22.8906 104.558C23.32 104.381 23.684 104.126 23.9826 103.795C24.286 103.464 24.5193 103.062 24.6826 102.591C24.846 102.115 24.9276 101.576 24.9276 100.974ZM38.8959 95.948V106H37.5939V98.846C37.5939 98.7387 37.5962 98.6243 37.6009 98.503C37.6102 98.3817 37.6196 98.258 37.6289 98.132L34.2829 104.271C34.1662 104.5 33.9866 104.614 33.7439 104.614H33.5339C33.2912 104.614 33.1139 104.5 33.0019 104.271L29.5929 98.111C29.6209 98.3723 29.6349 98.6173 29.6349 98.846V106H28.3259V95.948H29.4319C29.5626 95.948 29.6629 95.962 29.7329 95.99C29.8076 96.0133 29.8776 96.0833 29.9429 96.2L33.3029 102.22C33.3682 102.341 33.4289 102.47 33.4849 102.605C33.5409 102.74 33.5946 102.876 33.6459 103.011C33.7439 102.736 33.8582 102.47 33.9889 102.213L37.2859 96.2C37.3466 96.0833 37.4119 96.0133 37.4819 95.99C37.5566 95.962 37.6592 95.948 37.7899 95.948H38.8959ZM44.4276 101.121C44.8056 101.121 45.1369 101.072 45.4216 100.974C45.7109 100.876 45.9512 100.738 46.1426 100.561C46.3386 100.379 46.4856 100.164 46.5836 99.917C46.6816 99.665 46.7306 99.3873 46.7306 99.084C46.7306 98.4727 46.5392 97.992 46.1566 97.642C45.7786 97.292 45.2022 97.117 44.4276 97.117H42.8736V101.121H44.4276ZM44.4276 95.948C45.0716 95.948 45.6316 96.0227 46.1076 96.172C46.5836 96.3213 46.9779 96.5337 47.2906 96.809C47.6032 97.0797 47.8342 97.4087 47.9836 97.796C48.1376 98.1833 48.2146 98.6127 48.2146 99.084C48.2146 99.5553 48.1329 99.9893 47.9696 100.386C47.8062 100.778 47.5659 101.116 47.2486 101.401C46.9312 101.686 46.5346 101.907 46.0586 102.066C45.5872 102.22 45.0436 102.297 44.4276 102.297H42.8736V106H41.3826V95.948H44.4276ZM55.6131 104.747V106H49.8591V95.948H51.3501V104.747H55.6131ZM63.3012 104.789L63.2942 106H57.0642V95.948H63.2942V97.159H58.5622V100.344H62.3702V101.513H58.5622V104.789H63.3012ZM71.9973 97.194H68.8053V106H67.3213V97.194H64.1153V95.948H71.9973V97.194ZM79.6801 104.789L79.6731 106H73.4431V95.948H79.6731V97.159H74.9411V100.344H78.7491V101.513H74.9411V104.789H79.6801Z" fill="#898989"/>
<rect x="9" width="16" height="16" rx="6" fill="#58A158"/>
<path fill-rule="evenodd" clip-rule="evenodd" d="M12.6965 7.85036L11.6666 8.89831L14.977 12.2667L22.3333 4.78135L21.3034 3.7334L14.977 10.1708L12.6965 7.85036V7.85036Z" fill="white"/>
</svg>
