<?xml version="1.0" encoding="UTF-8" standalone="no"?>
<svg
   viewBox="0 0 47.945301 36"
   fill="none"
   version="1.1"
   id="svg285"
   sodipodi:docname="favicon.svg"
   inkscape:version="1.2.1 (9c6d41e4, 2022-07-14)"
   xmlns:inkscape="http://www.inkscape.org/namespaces/inkscape"
   xmlns:sodipodi="http://sodipodi.sourceforge.net/DTD/sodipodi-0.dtd"
   xmlns="http://www.w3.org/2000/svg"
   xmlns:svg="http://www.w3.org/2000/svg">
  <sodipodi:namedview
     id="namedview287"
     pagecolor="#ffffff"
     bordercolor="#000000"
     borderopacity="0.25"
     inkscape:showpageshadow="2"
     inkscape:pageopacity="0.0"
     inkscape:pagecheckerboard="0"
     inkscape:deskcolor="#d1d1d1"
     showgrid="false"
     inkscape:zoom="6.5555556"
     inkscape:cx="27.533898"
     inkscape:cy="18"
     inkscape:window-width="1309"
     inkscape:window-height="456"
     inkscape:window-x="0"
     inkscape:window-y="25"
     inkscape:window-maximized="0"
     inkscape:current-layer="svg285" />
  <g
     clip-path="url(#clip0)"
     id="g278">
    <path
       d="m 36.4793,9.6886 c 0,0.18367 0,0.3214 0.0442,0.5051 l -5.4453,1.7908 c -0.2213,-0.6888 -0.6641,-1.2857 -1.2396,-1.653 L 33.823,0.413086 37.5418,7.66819 C 36.922,8.08145 36.4793,8.86207 36.4793,9.6886 Z"
       fill="#ef6631"
       id="path236" />
    <path
       d="M 27.7136,9.96429 24.2605,0 h 9.1641 L 29.3959,10.102 C 29.086,9.96429 28.7319,9.91837 28.3334,9.91837 c -0.2213,-0.04592 -0.4427,0 -0.6198,0.04592 z"
       fill="#f4a632"
       id="path238" />
    <path
       d="m 31.7865,19.837 c -0.2214,0 -0.4427,0.0459 -0.6198,0.0918 l -1.5052,-4.3622 c 0.9297,-0.5051 1.5937,-1.5153 1.5937,-2.6633 0,-0.1378 0,-0.2755 -0.0442,-0.4133 l 5.4896,-1.7908 c 0.3099,0.7347 0.9296,1.2857 1.7265,1.4235 l -0.8854,8.7704 -3.2318,0.8265 C 33.9558,20.5717 32.9375,19.837 31.7865,19.837 Z"
       fill="#164d9a"
       id="path240" />
    <path
       d="m 43.5625,19.2859 -5.4896,1.4235 0.8854,-8.5868 c 0.2656,0 0.5755,-0.0918 0.7969,-0.1836 z"
       fill="#2699a7"
       id="path242" />
    <path
       d="m 13.7682,7.43864 4.737,-4.86735 -1.2396,7.53061 -3.0547,-0.73469 c 0.0443,-0.13776 0.0443,-0.32143 0.0443,-0.45919 0,-0.55102 -0.1771,-1.05612 -0.487,-1.46938 z"
       fill="#164d9a"
       id="path244" />
    <path
       d="m 29.1302,15.75 1.5053,4.3163 c -0.8855,0.4592 -1.5053,1.3776 -1.5053,2.4796 0,0.1378 0,0.2756 0.0443,0.4133 l -4.8255,1.2398 3.4089,-8.4949 c 0.2213,0.0459 0.4427,0.0918 0.664,0.0918 0.2214,0.046 0.4427,0.046 0.7083,-0.0459 z"
       fill="#f4a632"
       id="path246" />
    <path
       d="m 15.4062,21.4897 -0.5755,3.4898 -3.0547,-3.1225 2.4792,-1.2857 c 0.3099,0.4133 0.7083,0.7347 1.151,0.9184 z"
       fill="#164d9a"
       id="path248" />
    <path
       d="M 10.138,10.4697 4.25,16.5768 0,13.6839 3.58594,7.25537 9.60677,8.72476 c 0,0.04592 0,0.13775 0,0.18367 0,0.59694 0.22135,1.14797 0.53123,1.56127 z"
       fill="#799942"
       id="path250" />
    <path
       d="m 25.7215,14.0513 -7.5261,3.903 c -0.3099,-0.551 -0.8411,-0.9643 -1.4609,-1.102 l 0.974,-6.1531 7.7474,1.8827 c 0,0.0918 0,0.1836 0,0.2755 0,0.4132 0.0885,0.8265 0.2656,1.1939 z"
       fill="#2699a7"
       id="path252" />
    <path
       d="M 25.5441,12.1224 17.7968,10.2398 19.1691,1.92853 23.729,0.0917969 27.2264,10.1479 c -0.8411,0.3674 -1.4609,1.1021 -1.6823,1.9745 z"
       fill="#799942"
       id="path254" />
    <path
       d="m 13.901,19.194 c 0,0.3214 0.0442,0.6429 0.177,0.9184 l -2.6562,1.3775 -6.72917,-4.5918 5.84377,-6.0612 c 0.3984,0.3214 0.8854,0.5051 1.4166,0.5051 0.974,0 1.8151,-0.6429 2.1693,-1.51534 l 3.099,0.78064 -1.0183,6.2449 c -1.2838,-0.0459 -2.302,1.0102 -2.302,2.3418 z"
       fill="#f4a632"
       id="path256" />
    <path
       d="m 43.6511,19.7451 v 3.9031 l -2.3906,4.7296 -4.1172,1.6989 0.8854,-8.9081 z"
       fill="#ef6631"
       id="path258" />
    <path
       d="m 18.5051,19.194 c 0,-0.2755 -0.0442,-0.5511 -0.1328,-0.8266 l 7.5261,-3.9489 c 0.3099,0.5051 0.7526,0.9183 1.2838,1.1479 l -3.5417,8.8163 -2.2578,0.597 -6.0651,0.2755 0.6198,-3.6735 c 0.0886,0 0.1771,0 0.2656,0 1.2839,0.0459 2.3021,-1.0561 2.3021,-2.3877 z"
       fill="#ef6631"
       id="path260" />
    <path
       d="m 30.7682,25.1174 -1.5937,5.648 -2.0808,-2.5714 -2.789,-3.4898 4.9583,-1.2857 c 0.2656,0.7806 0.7969,1.4234 1.5052,1.6989 z"
       fill="#2699a7"
       id="path262" />
    <path
       d="M 10.7136,21.6274 5.26827,22.0866 1.90369,19.7447 4.33858,17.2192 Z"
       fill="#2699a7"
       id="path264" />
    <path
       d="m 32.4063,25.2549 2.5677,7.3928 0.7526,2.8011 -2.3463,0.5969 -3.8073,-4.6837 1.7266,-6.0153 c 0.177,0.0459 0.3099,0.0459 0.4869,0.0459 0.2214,-0.0459 0.4427,-0.0918 0.6198,-0.1377 z"
       fill="#799942"
       id="path266" />
    <path
       d="M 1.68241,19.2858 0.132935,14.3726 3.89596,16.944 Z"
       fill="#164d9a"
       id="path268" />
    <path
       d="m 38.8256,7.30082 c -0.2656,0 -0.5312,0.04592 -0.7526,0.13776 L 34.4871,0.458984 44.4923,7.62225 40.9506,8.77021 C 40.5964,7.89776 39.7996,7.30082 38.8256,7.30082 Z"
       fill="#164d9a"
       id="path270" />
    <path
       d="m 41.1276,9.68875 c 0,-0.18368 0,-0.32143 -0.0443,-0.50511 l 3.7631,-1.23979 3.0989,4.95915 -1.2838,6.2449 H 44.138 l -3.8958,-7.5765 c 0.5312,-0.3673 0.8854,-1.102 0.8854,-1.88265 z"
       fill="#f4a632"
       id="path272" />
    <path
       d="m 34.4427,22.5918 c 0,-0.1377 0,-0.3214 -0.0443,-0.4591 l 3.0547,-0.7806 -0.9297,9.0918 -1.1953,1.6071 -2.3906,-6.9796 c 0.8854,-0.4591 1.5052,-1.3775 1.5052,-2.4796 z"
       fill="#f4a632"
       id="path274" />
    <path
       d="M 9.69527,8.26541 4.07288,6.88786 13.0156,2.02051 h 5.3125 L 13.4583,7.07153 C 13.0599,6.70418 12.5286,6.47459 11.9531,6.47459 c -1.1068,0 -1.9922,0.78061 -2.25783,1.79082 z"
       fill="#2699a7"
       id="path276" />
  </g>
  <defs
     id="defs283">
    <clipPath
       id="clip0">
      <rect
         width="136"
         height="36"
         fill="#ffffff"
         id="rect280"
         x="0"
         y="0" />
    </clipPath>
  </defs>
</svg>
