<svg width="210" height="46" viewBox="0 0 210 46" fill="none" xmlns="http://www.w3.org/2000/svg">
<path d="M63.4265 39.5499C63.7032 39.5499 63.9465 39.5132 64.1565 39.4399C64.3699 39.3666 64.5482 39.2649 64.6915 39.1349C64.8382 39.0016 64.9482 38.8432 65.0215 38.6599C65.0949 38.4766 65.1315 38.2749 65.1315 38.0549C65.1315 37.5982 64.9899 37.2416 64.7065 36.9849C64.4265 36.7282 63.9999 36.5999 63.4265 36.5999H62.2765V39.5499H63.4265ZM63.4265 35.8349C63.8799 35.8349 64.2732 35.8882 64.6065 35.9949C64.9432 36.0982 65.2215 36.2466 65.4415 36.4399C65.6615 36.6332 65.8249 36.8666 65.9315 37.1399C66.0415 37.4132 66.0965 37.7182 66.0965 38.0549C66.0965 38.3882 66.0382 38.6932 65.9215 38.9699C65.8049 39.2466 65.6332 39.4849 65.4065 39.6849C65.1832 39.8849 64.9049 40.0416 64.5715 40.1549C64.2415 40.2649 63.8599 40.3199 63.4265 40.3199H62.2765V42.9999H61.3115V35.8349H63.4265ZM74.4373 39.4199C74.4373 39.9566 74.3523 40.4499 74.1823 40.8999C74.0123 41.3466 73.7723 41.7316 73.4623 42.0549C73.1523 42.3782 72.779 42.6299 72.3423 42.8099C71.909 42.9866 71.429 43.0749 70.9023 43.0749C70.3757 43.0749 69.8957 42.9866 69.4624 42.8099C69.0291 42.6299 68.6574 42.3782 68.3474 42.0549C68.0374 41.7316 67.7974 41.3466 67.6274 40.8999C67.4574 40.4499 67.3724 39.9566 67.3724 39.4199C67.3724 38.8832 67.4574 38.3916 67.6274 37.9449C67.7974 37.4949 68.0374 37.1082 68.3474 36.7849C68.6574 36.4582 69.0291 36.2049 69.4624 36.0249C69.8957 35.8449 70.3757 35.7549 70.9023 35.7549C71.429 35.7549 71.909 35.8449 72.3423 36.0249C72.779 36.2049 73.1523 36.4582 73.4623 36.7849C73.7723 37.1082 74.0123 37.4949 74.1823 37.9449C74.3523 38.3916 74.4373 38.8832 74.4373 39.4199ZM73.4423 39.4199C73.4423 38.9799 73.3823 38.5849 73.2623 38.2349C73.1423 37.8849 72.9723 37.5899 72.7523 37.3499C72.5323 37.1066 72.2657 36.9199 71.9523 36.7899C71.639 36.6599 71.289 36.5949 70.9023 36.5949C70.519 36.5949 70.1707 36.6599 69.8574 36.7899C69.5441 36.9199 69.2757 37.1066 69.0524 37.3499C68.8324 37.5899 68.6624 37.8849 68.5424 38.2349C68.4224 38.5849 68.3624 38.9799 68.3624 39.4199C68.3624 39.8599 68.4224 40.2549 68.5424 40.6049C68.6624 40.9516 68.8324 41.2466 69.0524 41.4899C69.2757 41.7299 69.5441 41.9149 69.8574 42.0449C70.1707 42.1716 70.519 42.2349 70.9023 42.2349C71.289 42.2349 71.639 42.1716 71.9523 42.0449C72.2657 41.9149 72.5323 41.7299 72.7523 41.4899C72.9723 41.2466 73.1423 40.9516 73.2623 40.6049C73.3823 40.2549 73.4423 39.8599 73.4423 39.4199ZM85.5027 35.8349L83.2677 42.9999H82.3977L80.5827 37.5349C80.5661 37.4816 80.5494 37.4249 80.5327 37.3649C80.5194 37.3049 80.5044 37.2416 80.4877 37.1749C80.4711 37.2416 80.4544 37.3049 80.4377 37.3649C80.4211 37.4249 80.4044 37.4816 80.3877 37.5349L78.5627 42.9999H77.6927L75.4577 35.8349H76.2627C76.3494 35.8349 76.4211 35.8566 76.4777 35.8999C76.5377 35.9432 76.5761 35.9982 76.5927 36.0649L78.0727 41.0449C78.0961 41.1349 78.1177 41.2316 78.1377 41.3349C78.1611 41.4382 78.1827 41.5482 78.2027 41.6649C78.2261 41.5482 78.2494 41.4382 78.2727 41.3349C78.2994 41.2282 78.3277 41.1316 78.3577 41.0449L80.0427 36.0649C80.0627 36.0082 80.1011 35.9566 80.1577 35.9099C80.2177 35.8599 80.2894 35.8349 80.3727 35.8349H80.6527C80.7394 35.8349 80.8094 35.8566 80.8627 35.8999C80.9161 35.9432 80.9561 35.9982 80.9827 36.0649L82.6627 41.0449C82.6927 41.1316 82.7194 41.2249 82.7427 41.3249C82.7694 41.4249 82.7944 41.5299 82.8177 41.6399C82.8344 41.5299 82.8527 41.4249 82.8727 41.3249C82.8927 41.2249 82.9144 41.1316 82.9377 41.0449L84.4227 36.0649C84.4394 36.0049 84.4761 35.9516 84.5327 35.9049C84.5927 35.8582 84.6644 35.8349 84.7477 35.8349H85.5027ZM91.4893 42.2099L91.4843 42.9999H87.0693V35.8349H91.4843V36.6249H88.0393V39.0049H90.8293V39.7649H88.0393V42.2099H91.4893ZM95.3258 39.3049C95.6058 39.3049 95.8524 39.2716 96.0658 39.2049C96.2824 39.1349 96.4624 39.0382 96.6058 38.9149C96.7524 38.7882 96.8624 38.6382 96.9358 38.4649C97.0091 38.2916 97.0458 38.0999 97.0458 37.8899C97.0458 37.4632 96.9058 37.1416 96.6258 36.9249C96.3458 36.7082 95.9258 36.5999 95.3658 36.5999H94.3058V39.3049H95.3258ZM98.6358 42.9999H97.7758C97.5991 42.9999 97.4691 42.9316 97.3858 42.7949L95.5258 40.2349C95.4691 40.1549 95.4074 40.0982 95.3408 40.0649C95.2774 40.0282 95.1774 40.0099 95.0408 40.0099H94.3058V42.9999H93.3408V35.8349H95.3658C95.8191 35.8349 96.2108 35.8816 96.5408 35.9749C96.8708 36.0649 97.1424 36.1966 97.3558 36.3699C97.5724 36.5432 97.7324 36.7532 97.8358 36.9999C97.9391 37.2432 97.9908 37.5166 97.9908 37.8199C97.9908 38.0732 97.9508 38.3099 97.8708 38.5299C97.7908 38.7499 97.6741 38.9482 97.5208 39.1249C97.3708 39.2982 97.1858 39.4466 96.9658 39.5699C96.7491 39.6932 96.5024 39.7866 96.2258 39.8499C96.3491 39.9199 96.4558 40.0216 96.5458 40.1549L98.6358 42.9999ZM104.53 42.2099L104.525 42.9999H100.11V35.8349H104.525V36.6249H101.08V39.0049H103.87V39.7649H101.08V42.2099H104.53ZM112.592 39.4199C112.592 39.9566 112.507 40.4449 112.337 40.8849C112.167 41.3249 111.927 41.7016 111.617 42.0149C111.307 42.3282 110.934 42.5716 110.497 42.7449C110.064 42.9149 109.584 42.9999 109.057 42.9999H106.382V35.8349H109.057C109.584 35.8349 110.064 35.9216 110.497 36.0949C110.934 36.2649 111.307 36.5082 111.617 36.8249C111.927 37.1382 112.167 37.5149 112.337 37.9549C112.507 38.3949 112.592 38.8832 112.592 39.4199ZM111.597 39.4199C111.597 38.9799 111.537 38.5866 111.417 38.2399C111.297 37.8932 111.127 37.5999 110.907 37.3599C110.687 37.1199 110.42 36.9366 110.107 36.8099C109.794 36.6832 109.444 36.6199 109.057 36.6199H107.352V42.2149H109.057C109.444 42.2149 109.794 42.1516 110.107 42.0249C110.42 41.8982 110.687 41.7166 110.907 41.4799C111.127 41.2399 111.297 40.9466 111.417 40.5999C111.537 40.2532 111.597 39.8599 111.597 39.4199ZM120.063 42.2299C120.34 42.2299 120.578 42.1982 120.778 42.1349C120.978 42.0716 121.141 41.9832 121.268 41.8699C121.398 41.7532 121.493 41.6166 121.553 41.4599C121.613 41.2999 121.643 41.1249 121.643 40.9349C121.643 40.5649 121.511 40.2732 121.248 40.0599C120.985 39.8432 120.59 39.7349 120.063 39.7349H118.513V42.2299H120.063ZM118.513 36.5999V39.0449H119.793C120.066 39.0449 120.303 39.0149 120.503 38.9549C120.706 38.8949 120.873 38.8116 121.003 38.7049C121.136 38.5982 121.235 38.4699 121.298 38.3199C121.361 38.1666 121.393 37.9999 121.393 37.8199C121.393 37.3966 121.266 37.0882 121.013 36.8949C120.76 36.6982 120.366 36.5999 119.833 36.5999H118.513ZM119.833 35.8349C120.273 35.8349 120.651 35.8782 120.968 35.9649C121.288 36.0516 121.55 36.1749 121.753 36.3349C121.96 36.4949 122.111 36.6916 122.208 36.9249C122.305 37.1549 122.353 37.4149 122.353 37.7049C122.353 37.8816 122.325 38.0516 122.268 38.2149C122.215 38.3749 122.133 38.5249 122.023 38.6649C121.913 38.8049 121.773 38.9316 121.603 39.0449C121.436 39.1549 121.24 39.2449 121.013 39.3149C121.54 39.4149 121.935 39.6032 122.198 39.8799C122.465 40.1532 122.598 40.5132 122.598 40.9599C122.598 41.2632 122.541 41.5399 122.428 41.7899C122.318 42.0399 122.155 42.2549 121.938 42.4349C121.725 42.6149 121.461 42.7549 121.148 42.8549C120.835 42.9516 120.478 42.9999 120.078 42.9999H117.548V35.8349H119.833ZM126.968 40.1449V42.9999H125.998V40.1449L123.373 35.8349H124.223C124.31 35.8349 124.378 35.8566 124.428 35.8999C124.478 35.9399 124.522 35.9932 124.558 36.0599L126.198 38.8449C126.258 38.9616 126.313 39.0716 126.363 39.1749C126.413 39.2749 126.457 39.3766 126.493 39.4799C126.53 39.3766 126.572 39.2749 126.618 39.1749C126.665 39.0716 126.717 38.9616 126.773 38.8449L128.408 36.0599C128.438 36.0032 128.48 35.9516 128.533 35.9049C128.587 35.8582 128.655 35.8349 128.738 35.8349H129.593L126.968 40.1449Z" fill="white"/>
<path d="M158.316 37.0368C158.285 37.0877 158.251 37.1267 158.214 37.1539C158.18 37.1776 158.137 37.1895 158.086 37.1895C158.029 37.1895 157.961 37.1607 157.882 37.1029C157.804 37.0452 157.706 36.9825 157.587 36.9146C157.471 36.8433 157.33 36.7788 157.163 36.7211C157 36.6634 156.801 36.6346 156.566 36.6346C156.345 36.6346 156.15 36.6651 155.98 36.7262C155.813 36.7839 155.672 36.8637 155.557 36.9655C155.444 37.0673 155.359 37.1878 155.301 37.3269C155.244 37.4627 155.215 37.6103 155.215 37.7699C155.215 37.9735 155.264 38.1432 155.363 38.2789C155.465 38.4113 155.597 38.525 155.761 38.62C155.927 38.7151 156.114 38.7982 156.322 38.8695C156.532 38.9374 156.747 39.0087 156.964 39.0833C157.185 39.158 157.4 39.2428 157.607 39.3379C157.818 39.4295 158.005 39.5466 158.168 39.6891C158.335 39.8317 158.467 40.0065 158.566 40.2135C158.668 40.4205 158.719 40.6751 158.719 40.9771C158.719 41.2962 158.665 41.5965 158.556 41.8782C158.447 42.1565 158.287 42.3992 158.076 42.6062C157.869 42.8133 157.612 42.9762 157.306 43.095C157.003 43.2138 156.658 43.2731 156.271 43.2731C155.795 43.2731 155.363 43.1883 154.975 43.0186C154.587 42.8455 154.256 42.613 153.98 42.3211L154.266 41.8528C154.293 41.8154 154.326 41.7849 154.363 41.7611C154.404 41.734 154.448 41.7204 154.496 41.7204C154.54 41.7204 154.589 41.7391 154.643 41.7764C154.701 41.8103 154.766 41.8545 154.837 41.9088C154.909 41.9631 154.99 42.0225 155.082 42.087C155.174 42.1514 155.278 42.2108 155.393 42.2651C155.512 42.3194 155.647 42.3653 155.796 42.4026C155.946 42.4365 156.114 42.4535 156.301 42.4535C156.536 42.4535 156.745 42.4213 156.929 42.3568C157.112 42.2923 157.267 42.2023 157.393 42.087C157.522 41.9682 157.621 41.8273 157.689 41.6644C157.757 41.5015 157.791 41.3199 157.791 41.1197C157.791 40.8991 157.74 40.7192 157.638 40.58C157.539 40.4375 157.408 40.3187 157.245 40.2237C157.082 40.1287 156.895 40.0489 156.684 39.9844C156.473 39.9165 156.259 39.8487 156.041 39.7808C155.823 39.7095 155.609 39.628 155.398 39.5364C155.188 39.4448 155.001 39.326 154.837 39.18C154.674 39.0341 154.541 38.8525 154.439 38.6353C154.341 38.4147 154.292 38.1432 154.292 37.8208C154.292 37.5628 154.341 37.3134 154.439 37.0724C154.541 36.8314 154.688 36.6176 154.878 36.4309C155.072 36.2443 155.308 36.0949 155.587 35.9829C155.869 35.8709 156.192 35.8149 156.556 35.8149C156.964 35.8149 157.335 35.8794 157.668 36.0084C158.005 36.1374 158.301 36.324 158.556 36.5684L158.316 37.0368Z" fill="white"/>
<path d="M164.878 40.2851V43.192H163.889V40.2851L161.211 35.8967H162.078C162.166 35.8967 162.236 35.9188 162.287 35.9629C162.338 36.0036 162.382 36.0579 162.42 36.1258L164.093 38.9614C164.154 39.0802 164.21 39.1922 164.261 39.2974C164.312 39.3993 164.356 39.5028 164.394 39.608C164.431 39.5028 164.474 39.3993 164.521 39.2974C164.569 39.1922 164.621 39.0802 164.679 38.9614L166.347 36.1258C166.378 36.0681 166.42 36.0155 166.475 35.968C166.529 35.9205 166.599 35.8967 166.684 35.8967H167.556L164.878 40.2851Z" fill="white"/>
<path d="M176.08 35.8967V43.192H175.585C175.507 43.192 175.441 43.1784 175.386 43.1513C175.335 43.1241 175.284 43.0783 175.233 43.0138L171.005 37.5156C171.012 37.6005 171.017 37.6836 171.02 37.7651C171.024 37.8465 171.025 37.9229 171.025 37.9942V43.192H170.158V35.8967H170.668C170.712 35.8967 170.75 35.9001 170.78 35.9069C170.811 35.9103 170.838 35.9188 170.862 35.9324C170.886 35.9425 170.91 35.9595 170.934 35.9833C170.957 36.0036 170.983 36.0308 171.01 36.0647L175.238 41.5578C175.232 41.4696 175.225 41.3847 175.218 41.3033C175.214 41.2184 175.213 41.1387 175.213 41.064V35.8967H176.08Z" fill="white"/>
<path d="M183.743 40.4836L182.596 37.5156C182.562 37.4274 182.526 37.3256 182.489 37.2102C182.451 37.0914 182.415 36.9658 182.382 36.8334C182.31 37.1084 182.237 37.3374 182.162 37.5207L181.015 40.4836H183.743ZM185.804 43.192H185.039C184.95 43.192 184.879 43.1699 184.825 43.1258C184.77 43.0817 184.729 43.0257 184.702 42.9578L184.019 41.1964H180.739L180.056 42.9578C180.035 43.0189 179.996 43.0732 179.938 43.1207C179.88 43.1682 179.809 43.192 179.724 43.192H178.959L181.882 35.8967H182.881L185.804 43.192Z" fill="white"/>
<path d="M191.09 39.6793C191.373 39.6793 191.621 39.6419 191.835 39.5673C192.052 39.4926 192.235 39.3891 192.381 39.2567C192.53 39.121 192.643 38.9597 192.717 38.7731C192.792 38.5864 192.83 38.3811 192.83 38.1571C192.83 37.6921 192.685 37.329 192.396 37.0676C192.11 36.8063 191.675 36.6756 191.09 36.6756H189.917V39.6793H191.09ZM191.09 35.8967C191.553 35.8967 191.954 35.951 192.294 36.0596C192.637 36.1648 192.921 36.3159 193.146 36.5127C193.37 36.7096 193.537 36.9472 193.646 37.2254C193.758 37.5037 193.814 37.8143 193.814 38.1571C193.814 38.4965 193.755 38.807 193.635 39.0887C193.516 39.3704 193.341 39.6131 193.11 39.8167C192.882 40.0204 192.598 40.1799 192.258 40.2953C191.922 40.4073 191.532 40.4633 191.09 40.4633H189.917V43.192H188.933V35.8967H191.09Z" fill="white"/>
<path d="M201.221 37.0368C201.191 37.0877 201.157 37.1267 201.119 37.1539C201.085 37.1776 201.043 37.1895 200.992 37.1895C200.934 37.1895 200.866 37.1607 200.788 37.1029C200.71 37.0452 200.611 36.9825 200.492 36.9146C200.376 36.8433 200.235 36.7788 200.069 36.7211C199.905 36.6634 199.706 36.6346 199.472 36.6346C199.251 36.6346 199.055 36.6651 198.885 36.7262C198.719 36.7839 198.578 36.8637 198.462 36.9655C198.35 37.0673 198.265 37.1878 198.207 37.3269C198.149 37.4627 198.12 37.6103 198.12 37.7699C198.12 37.9735 198.17 38.1432 198.268 38.2789C198.37 38.4113 198.503 38.525 198.666 38.62C198.833 38.7151 199.02 38.7982 199.227 38.8695C199.438 38.9374 199.652 39.0087 199.87 39.0833C200.091 39.158 200.305 39.2428 200.512 39.3379C200.723 39.4295 200.91 39.5466 201.073 39.6891C201.24 39.8317 201.373 40.0065 201.471 40.2135C201.573 40.4205 201.624 40.6751 201.624 40.9771C201.624 41.2962 201.57 41.5965 201.461 41.8782C201.352 42.1565 201.192 42.3992 200.982 42.6062C200.774 42.8133 200.517 42.9762 200.211 43.095C199.909 43.2138 199.564 43.2731 199.176 43.2731C198.7 43.2731 198.268 43.1883 197.88 43.0186C197.493 42.8455 197.161 42.613 196.886 42.3211L197.171 41.8528C197.199 41.8154 197.231 41.7849 197.268 41.7611C197.309 41.734 197.353 41.7204 197.401 41.7204C197.445 41.7204 197.495 41.7391 197.549 41.7764C197.607 41.8103 197.671 41.8545 197.743 41.9088C197.814 41.9631 197.896 42.0225 197.987 42.087C198.079 42.1514 198.183 42.2108 198.299 42.2651C198.418 42.3194 198.552 42.3653 198.702 42.4026C198.851 42.4365 199.02 42.4535 199.207 42.4535C199.441 42.4535 199.65 42.4213 199.834 42.3568C200.018 42.2923 200.172 42.2023 200.298 42.087C200.427 41.9682 200.526 41.8273 200.594 41.6644C200.662 41.5015 200.696 41.3199 200.696 41.1197C200.696 40.8991 200.645 40.7192 200.543 40.58C200.444 40.4375 200.313 40.3187 200.15 40.2237C199.987 40.1287 199.8 40.0489 199.589 39.9844C199.378 39.9165 199.164 39.8487 198.946 39.7808C198.729 39.7095 198.515 39.628 198.304 39.5364C198.093 39.4448 197.906 39.326 197.743 39.18C197.579 39.0341 197.447 38.8525 197.345 38.6353C197.246 38.4147 197.197 38.1432 197.197 37.8208C197.197 37.5628 197.246 37.3134 197.345 37.0724C197.447 36.8314 197.593 36.6176 197.783 36.4309C197.977 36.2443 198.214 36.0949 198.492 35.9829C198.775 35.8709 199.098 35.8149 199.462 35.8149C199.87 35.8149 200.24 35.8794 200.574 36.0084C200.91 36.1374 201.206 36.324 201.461 36.5684L201.221 37.0368Z" fill="white"/>
<path d="M209.953 42.3876L209.948 43.192H205.444V35.8967H209.948V36.7011H206.434V39.1244H209.28V39.8982H206.434V42.3876H209.953Z" fill="white"/>
<path d="M142.955 35.7349L138.239 38.4575L138.806 39.4351L143.521 36.7125L142.955 35.7349Z" fill="white"/>
<path d="M143.295 42.7192L138.592 40.0212L138.025 41.0046L142.729 43.7026L143.295 42.7192Z" fill="white"/>
<path d="M144.381 42.0839L144.383 36.6477L145.515 36.6482L145.513 42.0844L144.381 42.0839Z" fill="white"/>
<path fill-rule="evenodd" clip-rule="evenodd" d="M138.231 41.6103C139.316 40.9837 139.688 39.6004 139.062 38.5205C138.437 37.4407 137.049 37.0732 135.964 37.6997C134.879 38.3262 134.507 39.7095 135.133 40.7893C135.759 41.8692 137.146 42.2368 138.231 41.6103ZM137.664 40.6324C138.207 40.3192 138.393 39.6275 138.08 39.0876C137.767 38.5477 137.073 38.3639 136.531 38.6772C135.988 38.9905 135.802 39.6821 136.115 40.222C136.428 40.7619 137.121 40.9457 137.664 40.6324Z" fill="white"/>
<path fill-rule="evenodd" clip-rule="evenodd" d="M146.075 37.0451C147.16 36.4185 147.532 35.0352 146.906 33.9553C146.28 32.8755 144.893 32.508 143.808 33.1345C142.723 33.761 142.351 35.1443 142.977 36.2241C143.603 37.304 144.99 37.6716 146.075 37.0451ZM145.508 36.0672C146.051 35.754 146.237 35.0623 145.924 34.5224C145.611 33.9825 144.918 33.7987 144.375 34.112C143.832 34.4253 143.646 35.1169 143.959 35.6568C144.272 36.1967 144.965 36.3805 145.508 36.0672Z" fill="white"/>
<path fill-rule="evenodd" clip-rule="evenodd" d="M146.072 37.0466C147.155 36.4162 147.526 35.0292 146.902 33.9487C146.277 32.8681 144.893 32.5031 143.81 33.1333C142.727 33.7636 142.355 35.1506 142.98 36.2311C143.605 37.3117 144.989 37.6769 146.072 37.0466ZM145.506 36.0682C146.048 35.7531 146.233 35.0596 145.921 34.5193C145.609 33.979 144.917 33.7964 144.375 34.1116C143.834 34.4268 143.648 35.1202 143.96 35.6605C144.272 36.2008 144.965 36.3834 145.506 36.0682Z" fill="white"/>
<path fill-rule="evenodd" clip-rule="evenodd" d="M143.673 45.6931C144.756 46.3138 146.14 45.9365 146.766 44.8503C147.391 43.7642 147.021 42.3805 145.939 41.7598C144.856 41.1391 143.472 41.5164 142.846 42.6026C142.221 43.6888 142.591 45.0724 143.673 45.6931ZM144.24 44.7099C144.781 45.0202 145.473 44.8315 145.786 44.2885C146.099 43.7454 145.914 43.0536 145.372 42.7432C144.831 42.4328 144.139 42.6215 143.826 43.1645C143.513 43.7077 143.699 44.3995 144.24 44.7099Z" fill="white"/>
<path fill-rule="evenodd" clip-rule="evenodd" d="M138.229 41.5956C139.312 40.9653 139.683 39.5783 139.059 38.4977C138.434 37.4172 137.05 37.0521 135.967 37.6824C134.884 38.3127 134.513 39.6996 135.137 40.7802C135.762 41.8608 137.146 42.2259 138.229 41.5956ZM137.663 40.6172C138.205 40.3022 138.391 39.6086 138.078 39.0684C137.766 38.5281 137.074 38.3455 136.532 38.6607C135.991 38.9759 135.805 39.6693 136.117 40.2096C136.43 40.7499 137.122 40.9324 137.663 40.6172Z" fill="white"/>
<g clip-path="url(#clip0)">
<path d="M26.7041 20.0664L25.438 15.7501C25.5869 15.7042 25.7359 15.6123 25.8476 15.5664L27.1137 19.9287C26.9648 19.9287 26.853 20.0205 26.7041 20.0664Z" fill="white"/>
<path d="M22.7564 14.4643L16.4259 18.4133C16.3887 18.2755 16.3142 18.0918 16.2397 17.9541L22.5702 14.051C22.6075 14.1888 22.682 14.3265 22.7564 14.4643Z" fill="white"/>
<path d="M31.8058 10.653L27.1882 12.4438C27.1882 12.3061 27.151 12.1224 27.1138 11.9847L31.6941 10.1938C31.6941 10.3775 31.7313 10.5153 31.8058 10.653Z" fill="white"/>
<path d="M31.6194 9.68884C31.6194 9.87251 31.6194 10.0103 31.6567 10.1939L27.0764 11.9848C26.8902 11.296 26.5178 10.699 26.0337 10.3317L29.3851 0.41333L32.5131 7.66843C31.9918 8.0817 31.6194 8.86231 31.6194 9.68884Z" fill="white"/>
<path d="M24.2464 9.96429L21.3418 0H29.0501L25.6614 10.102C25.4008 9.96429 25.1029 9.91837 24.7677 9.91837C24.5815 9.87245 24.3953 9.91837 24.2464 9.96429Z" fill="white"/>
<path d="M27.6722 19.8367C27.486 19.8367 27.2998 19.8826 27.1509 19.9286L25.8848 15.5663C26.6668 15.0612 27.2253 14.051 27.2253 12.9031C27.2253 12.7653 27.2253 12.6275 27.1881 12.4898L31.8056 10.699C32.0663 11.4337 32.5876 11.9847 33.2579 12.1224L32.5132 20.8929L29.7948 21.7194C29.4969 20.5714 28.6404 19.8367 27.6722 19.8367Z" fill="white"/>
<path d="M37.5775 19.2857L32.96 20.7091L33.7047 12.1224C33.9282 12.1224 34.1888 12.0306 34.375 11.9387L37.5775 19.2857Z" fill="white"/>
<path d="M12.5161 7.43864L16.5006 2.57129L15.4579 10.1019L12.8885 9.36721C12.9257 9.22945 12.9257 9.04578 12.9257 8.90802C12.9257 8.357 12.7768 7.8519 12.5161 7.43864Z" fill="white"/>
<path d="M25.4377 15.75L26.7038 20.0663C25.9591 20.5255 25.4377 21.4439 25.4377 22.5459C25.4377 22.6837 25.4377 22.8215 25.475 22.9592L21.416 24.199L24.2834 15.7041C24.4695 15.75 24.6557 15.7959 24.8419 15.7959C25.0281 15.8419 25.2143 15.8419 25.4377 15.75Z" fill="white"/>
<path d="M13.8939 21.4899L13.4098 24.9797L10.8403 21.8572L12.9257 20.5715C13.1863 20.9848 13.5215 21.3062 13.8939 21.4899Z" fill="white"/>
<path d="M9.46261 10.4694L4.50993 16.5766L0.935059 13.6837L3.95135 7.25513L9.01575 8.72451C9.01575 8.77043 9.01575 8.86227 9.01575 8.90819C9.01575 9.50513 9.20194 10.0561 9.46261 10.4694Z" fill="white"/>
<path d="M22.5706 14.051L16.2401 17.9541C15.9794 17.4031 15.5326 16.9898 15.0112 16.852L15.8305 10.699L22.3472 12.5816C22.3472 12.6735 22.3472 12.7653 22.3472 12.8571C22.3472 13.2704 22.4216 13.6837 22.5706 14.051Z" fill="white"/>
<path d="M22.4215 12.1224L15.9048 10.2398L17.0592 1.92853L20.8947 0.0917969L23.8365 10.1479C23.129 10.5153 22.6077 11.25 22.4215 12.1224Z" fill="white"/>
<path d="M12.6279 19.194C12.6279 19.5154 12.6651 19.8369 12.7768 20.1124L10.5425 21.4899L4.88232 16.8981L9.79777 10.8369C10.1329 11.1583 10.5425 11.342 10.9894 11.342C11.8086 11.342 12.5162 10.6991 12.8141 9.82666L15.4207 10.6073L14.5643 16.8522C13.4844 16.8063 12.6279 17.8624 12.6279 19.194Z" fill="white"/>
<path d="M37.6522 19.7449V23.6479L35.6414 28.3775L32.1782 30.0765L32.923 21.1683L37.6522 19.7449Z" fill="white"/>
<path d="M16.5005 19.194C16.5005 18.9185 16.4632 18.6429 16.3888 18.3674L22.7193 14.4185C22.9799 14.9236 23.3523 15.3368 23.7992 15.5664L20.8201 24.3827L18.921 24.9797L13.8193 25.2552L14.3407 21.5817C14.4151 21.5817 14.4896 21.5817 14.5641 21.5817C15.644 21.6276 16.5005 20.5256 16.5005 19.194Z" fill="white"/>
<path d="M26.8157 25.1174L25.4751 30.7654L23.7249 28.194L21.3789 24.7042L25.5496 23.4185C25.773 24.1991 26.2199 24.8419 26.8157 25.1174Z" fill="white"/>
<path d="M9.94654 21.6276L5.36624 22.0868L2.53613 19.745L4.58424 17.2195L9.94654 21.6276Z" fill="white"/>
<path d="M28.1933 25.2551L30.3531 32.648L30.9862 35.449L29.0125 36.0459L25.8101 31.3623L27.2623 25.347C27.4113 25.3929 27.523 25.3929 27.672 25.3929C27.8582 25.347 28.0443 25.301 28.1933 25.2551Z" fill="white"/>
<path d="M2.35021 19.2858L1.04688 14.3726L4.21212 16.944L2.35021 19.2858Z" fill="white"/>
<path d="M33.5932 7.30106C33.3698 7.30106 33.1463 7.34698 32.9601 7.43882L29.9438 0.459229L38.3597 7.62249L35.3806 8.77045C35.0827 7.898 34.4124 7.30106 33.5932 7.30106Z" fill="white"/>
<path d="M35.5294 9.68875C35.5294 9.50507 35.5294 9.36732 35.4922 9.18364L38.6574 7.94385L41.2641 12.903L40.1842 19.1479H38.0616L34.7847 11.5714C35.2315 11.2041 35.5294 10.4694 35.5294 9.68875Z" fill="white"/>
<path d="M29.9062 22.5918C29.9062 22.4541 29.9062 22.2704 29.869 22.1327L32.4384 21.3521L31.6564 30.4439L30.651 32.051L28.6401 25.0714C29.3849 24.6123 29.9062 23.6939 29.9062 22.5918Z" fill="white"/>
<path d="M9.09009 8.26541L4.36084 6.88786L11.883 2.02051H16.3516L12.2553 7.07153C11.9202 6.70418 11.4733 6.47459 10.9892 6.47459C10.0583 6.47459 9.31352 7.2552 9.09009 8.26541Z" fill="white"/>
<path d="M57.8726 7.94368C58.5801 8.40286 59.1759 9.04572 59.5855 9.87225C59.9951 10.6988 60.2186 11.6171 60.2186 12.6733C60.2186 13.6376 59.9951 14.51 59.5855 15.2906C59.1759 16.0712 58.5801 16.6682 57.8726 17.0814C58.9152 17.4488 59.6972 18.0457 60.293 18.9641C60.8889 19.8825 61.1868 21.0304 61.1868 22.408C61.1868 23.6478 60.9633 24.7498 60.4792 25.7141C60.0324 26.6784 59.3621 27.4131 58.5801 27.9641C57.7609 28.5151 56.8299 28.7906 55.7872 28.7906H50.0898C49.7919 28.7906 49.5684 28.6988 49.3823 28.5151C49.1961 28.3314 49.1216 28.0559 49.1216 27.7345V8.31103C49.1216 7.9896 49.1961 7.76 49.3823 7.53041C49.5312 7.34674 49.7546 7.20898 50.0153 7.20898H55.4521C56.3458 7.2549 57.165 7.48449 57.8726 7.94368ZM57.6864 15.2906C58.2449 14.6478 58.5429 13.7753 58.5429 12.6733C58.5429 11.6171 58.2449 10.7906 57.6864 10.1937C57.1278 9.59674 56.383 9.32123 55.4521 9.32123H50.909V16.2549H55.4521C56.3458 16.209 57.0906 15.9335 57.6864 15.2906ZM58.4684 25.5304C59.1387 24.7498 59.4738 23.6937 59.4738 22.408C59.4738 21.1682 59.1387 20.158 58.4684 19.4233C57.7981 18.6886 56.9044 18.3212 55.8245 18.3212H50.8718V26.7243H55.8245C56.9044 26.6784 57.7981 26.311 58.4684 25.5304Z" fill="white"/>
<path d="M73.14 7.94378C74.0337 8.58663 74.7412 9.41317 75.2253 10.4693C75.337 10.653 75.3743 10.8826 75.3743 11.1121C75.3743 11.4795 75.2253 11.755 74.9647 11.9387C74.853 12.0305 74.704 12.0305 74.555 12.0305C74.4061 12.0305 74.2199 11.9846 74.1082 11.8928C73.9592 11.8009 73.8475 11.6632 73.773 11.4795C72.9538 9.87235 71.6877 9.04582 70.012 9.04582C68.8204 9.04582 67.8522 9.36725 67.1446 9.96419C66.4371 10.607 66.102 11.4795 66.102 12.6275C66.102 14.7856 67.517 16.0713 70.3099 16.5305C72.1718 16.8519 73.5496 17.5407 74.4433 18.6428C75.337 19.6989 75.8211 21.1223 75.8211 22.8672C75.8211 24.153 75.5605 25.255 75.0764 26.2193C74.555 27.1377 73.8848 27.8724 72.991 28.3315C72.0973 28.8366 71.1291 29.0662 70.0492 29.0662C68.6342 29.0662 67.3681 28.6989 66.2882 27.9642C65.2083 27.2295 64.4262 26.2193 63.9422 24.9336C63.8677 24.7958 63.8677 24.6581 63.8677 24.4744C63.8677 24.1989 63.9422 24.0152 64.0911 23.8315C64.2401 23.6479 64.4635 23.556 64.7242 23.556C64.9103 23.556 65.0593 23.6019 65.2083 23.7397C65.3572 23.8775 65.4689 24.0152 65.5434 24.2448C65.8785 25.0713 66.4744 25.7142 67.2564 26.2193C68.0384 26.7244 68.9693 26.9999 70.0492 26.9999C71.2781 26.9999 72.2463 26.6326 72.991 25.8979C73.7358 25.1632 74.1082 24.153 74.1082 22.8672C74.1082 21.7193 73.773 20.755 73.0655 19.9285C72.358 19.1479 71.3153 18.6428 69.9375 18.4132C68.2245 18.1377 66.8467 17.4948 65.8413 16.4387C64.8359 15.3826 64.3518 14.0509 64.3518 12.4897C64.3518 11.3877 64.5752 10.4234 65.0593 9.59684C65.5434 8.77031 66.2137 8.12745 67.0702 7.66827C67.9266 7.20908 68.8948 6.97949 69.9747 6.97949C71.2036 6.97949 72.2463 7.30092 73.14 7.94378Z" fill="white"/>
<path d="M96.6749 7.53041C96.8239 7.71409 96.9356 7.9896 96.9356 8.31103V27.6886C96.9356 27.9641 96.8611 28.2396 96.6749 28.4233C96.5259 28.6529 96.3025 28.7447 96.0791 28.7447C95.8184 28.7447 95.595 28.6529 95.446 28.4233C95.2598 28.1937 95.1854 27.9641 95.1854 27.6886V12.0763L88.9666 27.7345C88.7804 28.1018 88.5197 28.2396 88.2218 28.2396C87.8494 28.2396 87.5888 28.01 87.4026 27.5967L81.221 12.3518V27.6886C81.221 27.9641 81.1465 28.2396 80.9604 28.4233C80.8114 28.6529 80.588 28.7447 80.3273 28.7447C80.1039 28.7447 79.8805 28.6529 79.6943 28.4233C79.5081 28.1937 79.4336 27.9641 79.4336 27.6886V8.31103C79.4336 7.9896 79.5081 7.76 79.6943 7.53041C79.8805 7.34674 80.0666 7.20898 80.3273 7.20898C80.6625 7.20898 80.9231 7.39266 81.1093 7.76L88.2591 25.3008L95.2971 7.80592C95.4833 7.43858 95.7439 7.2549 96.0791 7.2549C96.3025 7.2549 96.4887 7.34674 96.6749 7.53041Z" fill="white"/>
<path d="M113.879 7.53041C114.065 7.34674 114.252 7.20898 114.512 7.20898C114.773 7.20898 114.959 7.30082 115.145 7.53041C115.294 7.71409 115.406 7.9896 115.406 8.31103V27.6886C115.406 27.9641 115.331 28.2396 115.145 28.4233C114.996 28.6529 114.773 28.7447 114.512 28.7447C114.214 28.7447 113.991 28.6069 113.879 28.3774L103.192 11.0661V27.6427C103.192 27.9182 103.117 28.1937 102.931 28.3774C102.782 28.6069 102.559 28.6988 102.298 28.6988C102.037 28.6988 101.851 28.6069 101.665 28.3774C101.516 28.1937 101.404 27.9182 101.404 27.5967V8.31103C101.404 7.9896 101.479 7.76 101.665 7.53041C101.814 7.34674 102.037 7.20898 102.298 7.20898C102.559 7.20898 102.782 7.34674 102.968 7.57633L113.656 24.8876V8.31103C113.618 7.9896 113.693 7.76 113.879 7.53041Z" fill="white"/>
</g>
<defs>
<clipPath id="clip0">
<rect x="0.935059" width="114.396" height="36" fill="white"/>
</clipPath>
</defs>
</svg>
