<svg width="136" height="36" viewBox="0 0 136 36" fill="none" xmlns="http://www.w3.org/2000/svg">
<g clip-path="url(#clip0)">
<path d="M36.4793 9.6886C36.4793 9.87227 36.4793 10.01 36.5235 10.1937L31.0782 11.9845C30.8569 11.2957 30.4141 10.6988 29.8386 10.3315L33.823 0.413086L37.5418 7.66819C36.922 8.08145 36.4793 8.86207 36.4793 9.6886Z" fill="#EF6631"/>
<path d="M27.7136 9.96429L24.2605 0H33.4246L29.3959 10.102C29.086 9.96429 28.7319 9.91837 28.3334 9.91837C28.1121 9.87245 27.8907 9.91837 27.7136 9.96429Z" fill="#F4A632"/>
<path d="M31.7865 19.837C31.5651 19.837 31.3438 19.8829 31.1667 19.9288L29.6615 15.5666C30.5912 15.0615 31.2552 14.0513 31.2552 12.9033C31.2552 12.7655 31.2552 12.6278 31.211 12.49L36.7006 10.6992C37.0105 11.4339 37.6302 11.9849 38.4271 12.1227L37.5417 20.8931L34.3099 21.7196C33.9558 20.5717 32.9375 19.837 31.7865 19.837Z" fill="#164D9A"/>
<path d="M43.5625 19.2859L38.0729 20.7094L38.9583 12.1226C39.2239 12.1226 39.5338 12.0308 39.7552 11.939L43.5625 19.2859Z" fill="#2699A7"/>
<path d="M13.7682 7.43864L18.5052 2.57129L17.2656 10.1019L14.2109 9.36721C14.2552 9.22945 14.2552 9.04578 14.2552 8.90802C14.2552 8.357 14.0781 7.8519 13.7682 7.43864Z" fill="#164D9A"/>
<path d="M29.1302 15.75L30.6355 20.0663C29.75 20.5255 29.1302 21.4439 29.1302 22.5459C29.1302 22.6837 29.1302 22.8215 29.1745 22.9592L24.349 24.199L27.7579 15.7041C27.9792 15.75 28.2006 15.7959 28.4219 15.7959C28.6433 15.8419 28.8646 15.8419 29.1302 15.75Z" fill="#F4A632"/>
<path d="M15.4062 21.4897L14.8307 24.9795L11.776 21.857L14.2552 20.5713C14.5651 20.9846 14.9635 21.306 15.4062 21.4897Z" fill="#164D9A"/>
<path d="M10.138 10.4697L4.25 16.5768L0 13.6839L3.58594 7.25537L9.60677 8.72476C9.60677 8.77068 9.60677 8.86251 9.60677 8.90843C9.60677 9.50537 9.82812 10.0564 10.138 10.4697Z" fill="#799942"/>
<path d="M25.7215 14.0513L18.1954 17.9543C17.8855 17.4033 17.3543 16.99 16.7345 16.8523L17.7085 10.6992L25.4559 12.5819C25.4559 12.6737 25.4559 12.7655 25.4559 12.8574C25.4559 13.2706 25.5444 13.6839 25.7215 14.0513Z" fill="#2699A7"/>
<path d="M25.5441 12.1224L17.7968 10.2398L19.1691 1.92853L23.729 0.0917969L27.2264 10.1479C26.3853 10.5153 25.7655 11.25 25.5441 12.1224Z" fill="#799942"/>
<path d="M13.901 19.194C13.901 19.5154 13.9452 19.8369 14.078 20.1124L11.4218 21.4899L4.69263 16.8981L10.5364 10.8369C10.9348 11.1583 11.4218 11.342 11.953 11.342C12.927 11.342 13.7681 10.6991 14.1223 9.82666L17.2213 10.6073L16.203 16.8522C14.9192 16.8063 13.901 17.8624 13.901 19.194Z" fill="#F4A632"/>
<path d="M43.6511 19.7451V23.6482L41.2605 28.3778L37.1433 30.0767L38.0287 21.1686L43.6511 19.7451Z" fill="#EF6631"/>
<path d="M18.5051 19.194C18.5051 18.9185 18.4609 18.6429 18.3723 18.3674L25.8984 14.4185C26.2083 14.9236 26.651 15.3368 27.1822 15.5664L23.6405 24.3827L21.3827 24.9797L15.3176 25.2552L15.9374 21.5817C16.026 21.5817 16.1145 21.5817 16.203 21.5817C17.4869 21.6276 18.5051 20.5256 18.5051 19.194Z" fill="#EF6631"/>
<path d="M30.7682 25.1174L29.1745 30.7654L27.0937 28.194L24.3047 24.7042L29.263 23.4185C29.5286 24.1991 30.0599 24.8419 30.7682 25.1174Z" fill="#2699A7"/>
<path d="M10.7136 21.6274L5.26827 22.0866L1.90369 19.7447L4.33858 17.2192L10.7136 21.6274Z" fill="#2699A7"/>
<path d="M32.4063 25.2549L34.974 32.6477L35.7266 35.4488L33.3803 36.0457L29.573 31.362L31.2996 25.3467C31.4766 25.3926 31.6095 25.3926 31.7865 25.3926C32.0079 25.3467 32.2292 25.3008 32.4063 25.2549Z" fill="#799942"/>
<path d="M1.68241 19.2858L0.132935 14.3726L3.89596 16.944L1.68241 19.2858Z" fill="#164D9A"/>
<path d="M38.8256 7.30082C38.56 7.30082 38.2944 7.34674 38.073 7.43858L34.4871 0.458984L44.4923 7.62225L40.9506 8.77021C40.5964 7.89776 39.7996 7.30082 38.8256 7.30082Z" fill="#164D9A"/>
<path d="M41.1276 9.68875C41.1276 9.50507 41.1276 9.36732 41.0833 9.18364L44.8464 7.94385L47.9453 12.903L46.6615 19.1479H44.138L40.2422 11.5714C40.7734 11.2041 41.1276 10.4694 41.1276 9.68875Z" fill="#F4A632"/>
<path d="M34.4427 22.5918C34.4427 22.4541 34.4427 22.2704 34.3984 22.1327L37.4531 21.3521L36.5234 30.4439L35.3281 32.051L32.9375 25.0714C33.8229 24.6123 34.4427 23.6939 34.4427 22.5918Z" fill="#F4A632"/>
<path d="M9.69527 8.26541L4.07288 6.88786L13.0156 2.02051H18.3281L13.4583 7.07153C13.0599 6.70418 12.5286 6.47459 11.9531 6.47459C10.8463 6.47459 9.9609 7.2552 9.69527 8.26541Z" fill="#2699A7"/>
<path d="M67.6901 7.94368C68.5313 8.40286 69.2396 9.04572 69.7266 9.87225C70.2136 10.6988 70.4792 11.6171 70.4792 12.6733C70.4792 13.6376 70.2136 14.51 69.7266 15.2906C69.2396 16.0712 68.5313 16.6682 67.6901 17.0814C68.9297 17.4488 69.8594 18.0457 70.5677 18.9641C71.2761 19.8825 71.6303 21.0304 71.6303 22.408C71.6303 23.6478 71.3646 24.7498 70.7891 25.7141C70.2579 26.6784 69.461 27.4131 68.5313 27.9641C67.5573 28.5151 66.4506 28.7906 65.211 28.7906H58.4375C58.0834 28.7906 57.8178 28.6988 57.5964 28.5151C57.375 28.3314 57.2865 28.0559 57.2865 27.7345V8.31103C57.2865 7.9896 57.375 7.76 57.5964 7.53041C57.7735 7.34674 58.0391 7.20898 58.349 7.20898H64.8125C65.875 7.2549 66.849 7.48449 67.6901 7.94368ZM67.4688 15.2906C68.1329 14.6478 68.487 13.7753 68.487 12.6733C68.487 11.6171 68.1329 10.7906 67.4688 10.1937C66.8047 9.59674 65.9193 9.32123 64.8125 9.32123H59.4115V16.2549H64.8125C65.875 16.209 66.7605 15.9335 67.4688 15.2906ZM68.3985 25.5304C69.1954 24.7498 69.5938 23.6937 69.5938 22.408C69.5938 21.1682 69.1954 20.158 68.3985 19.4233C67.6016 18.6886 66.5391 18.3212 65.2552 18.3212H59.3672V26.7243H65.2552C66.5391 26.6784 67.6016 26.311 68.3985 25.5304Z" fill="#00255C"/>
<path d="M85.8412 7.94378C86.9037 8.58663 87.7448 9.41317 88.3204 10.4693C88.4532 10.653 88.4974 10.8826 88.4974 11.1121C88.4974 11.4795 88.3204 11.755 88.0105 11.9387C87.8776 12.0305 87.7006 12.0305 87.5235 12.0305C87.3464 12.0305 87.125 11.9846 86.9922 11.8928C86.8151 11.8009 86.6823 11.6632 86.5938 11.4795C85.6198 9.87235 84.1146 9.04582 82.1224 9.04582C80.7058 9.04582 79.5547 9.36725 78.7136 9.96419C77.8724 10.607 77.474 11.4795 77.474 12.6275C77.474 14.7856 79.1563 16.0713 82.4766 16.5305C84.6901 16.8519 86.3282 17.5407 87.3907 18.6428C88.4532 19.6989 89.0287 21.1223 89.0287 22.8672C89.0287 24.153 88.7188 25.255 88.1433 26.2193C87.5235 27.1377 86.7266 27.8724 85.6641 28.3315C84.6016 28.8366 83.4506 29.0662 82.1667 29.0662C80.4844 29.0662 78.9792 28.6989 77.6954 27.9642C76.4115 27.2295 75.4818 26.2193 74.9063 24.9336C74.8177 24.7958 74.8177 24.6581 74.8177 24.4744C74.8177 24.1989 74.9063 24.0152 75.0834 23.8315C75.2605 23.6479 75.5261 23.556 75.836 23.556C76.0573 23.556 76.2344 23.6019 76.4115 23.7397C76.5886 23.8775 76.7214 24.0152 76.8099 24.2448C77.2084 25.0713 77.9167 25.7142 78.8464 26.2193C79.7761 26.7244 80.8829 26.9999 82.1667 26.9999C83.6276 26.9999 84.7787 26.6326 85.6641 25.8979C86.5495 25.1632 86.9922 24.153 86.9922 22.8672C86.9922 21.7193 86.5938 20.755 85.7526 19.9285C84.9115 19.1479 83.6719 18.6428 82.0339 18.4132C79.9974 18.1377 78.3594 17.4948 77.1641 16.4387C75.9688 15.3826 75.3933 14.0509 75.3933 12.4897C75.3933 11.3877 75.6589 10.4234 76.2344 9.59684C76.8099 8.77031 77.6068 8.12745 78.625 7.66827C79.6433 7.20908 80.7943 6.97949 82.0782 6.97949C83.5391 6.97949 84.7787 7.30092 85.8412 7.94378Z" fill="#00255C"/>
<path d="M113.82 7.53041C113.997 7.71409 114.13 7.9896 114.13 8.31103V27.6886C114.13 27.9641 114.042 28.2396 113.82 28.4233C113.643 28.6529 113.378 28.7447 113.112 28.7447C112.802 28.7447 112.537 28.6529 112.359 28.4233C112.138 28.1937 112.05 27.9641 112.05 27.6886V12.0763L104.656 27.7345C104.435 28.1018 104.125 28.2396 103.771 28.2396C103.328 28.2396 103.018 28.01 102.797 27.5967L95.448 12.3518V27.6886C95.448 27.9641 95.3595 28.2396 95.1381 28.4233C94.961 28.6529 94.6954 28.7447 94.3855 28.7447C94.1199 28.7447 93.8542 28.6529 93.6329 28.4233C93.4115 28.1937 93.323 27.9641 93.323 27.6886V8.31103C93.323 7.9896 93.4115 7.76 93.6329 7.53041C93.8542 7.34674 94.0756 7.20898 94.3855 7.20898C94.7839 7.20898 95.0938 7.39266 95.3152 7.76L103.815 25.3008L112.182 7.80592C112.404 7.43858 112.714 7.2549 113.112 7.2549C113.378 7.2549 113.599 7.34674 113.82 7.53041Z" fill="#00255C"/>
<path d="M134.273 7.53041C134.495 7.34674 134.716 7.20898 135.026 7.20898C135.336 7.20898 135.557 7.30082 135.779 7.53041C135.956 7.71409 136.089 7.9896 136.089 8.31103V27.6886C136.089 27.9641 136 28.2396 135.779 28.4233C135.602 28.6529 135.336 28.7447 135.026 28.7447C134.672 28.7447 134.406 28.6069 134.273 28.3774L121.568 11.0661V27.6427C121.568 27.9182 121.479 28.1937 121.258 28.3774C121.081 28.6069 120.815 28.6988 120.505 28.6988C120.195 28.6988 119.974 28.6069 119.753 28.3774C119.576 28.1937 119.443 27.9182 119.443 27.5967V8.31103C119.443 7.9896 119.531 7.76 119.753 7.53041C119.93 7.34674 120.195 7.20898 120.505 7.20898C120.815 7.20898 121.081 7.34674 121.302 7.57633L134.008 24.8876V8.31103C133.964 7.9896 134.052 7.76 134.273 7.53041Z" fill="#00255C"/>
</g>
<defs>
<clipPath id="clip0">
<rect width="136" height="36" fill="white"/>
</clipPath>
</defs>
</svg>
