<svg xmlns="http://www.w3.org/2000/svg" viewBox="0 0 377.96 131.74"><title>Asset 2FNL</title><g id="Layer_2" data-name="Layer 2"><g id="Layer_1-2" data-name="Layer 1"><path d="M125.46,45.15V55h-5.18V27.12h9.07a15.77,15.77,0,0,1,4.83.65,9.45,9.45,0,0,1,3.37,1.83,7.16,7.16,0,0,1,2,2.81,10.4,10.4,0,0,1,0,7.29,7.61,7.61,0,0,1-2,2.89,9.4,9.4,0,0,1-3.37,1.89,15,15,0,0,1-4.73.67Zm0-4h3.89a8.07,8.07,0,0,0,2.48-.35,4.71,4.71,0,0,0,1.75-1,4.3,4.3,0,0,0,1-1.62A6.26,6.26,0,0,0,135,36a5.63,5.63,0,0,0-.35-2,4,4,0,0,0-1-1.54,4.63,4.63,0,0,0-1.75-1,8.08,8.08,0,0,0-2.48-.34h-3.89Z" fill="#00565e"/><path d="M155.89,39.05a1.34,1.34,0,0,1-.4.44,1.08,1.08,0,0,1-.54.12,1.66,1.66,0,0,1-.74-.19l-.92-.44a8.41,8.41,0,0,0-1.18-.43,5.62,5.62,0,0,0-1.57-.19,3.62,3.62,0,0,0-2.21.6,1.83,1.83,0,0,0-.81,1.56,1.5,1.5,0,0,0,.41,1.06,3.56,3.56,0,0,0,1.1.76,10.25,10.25,0,0,0,1.55.59q.87.26,1.77.57c.6.2,1.19.44,1.77.7a6.34,6.34,0,0,1,1.55,1,4.41,4.41,0,0,1,1.51,3.5,6.45,6.45,0,0,1-.52,2.62,5.58,5.58,0,0,1-1.52,2.08,7.1,7.1,0,0,1-2.47,1.37,10.6,10.6,0,0,1-3.38.49,10.91,10.91,0,0,1-2-.18,11.44,11.44,0,0,1-1.87-.51,11,11,0,0,1-1.66-.77,8.74,8.74,0,0,1-1.33-1L143.53,51a1.59,1.59,0,0,1,.5-.5,1.4,1.4,0,0,1,.74-.18,1.58,1.58,0,0,1,.83.25c.27.17.57.35.92.54a8.35,8.35,0,0,0,1.22.54,5.29,5.29,0,0,0,1.78.25,4.7,4.7,0,0,0,1.45-.2,3.21,3.21,0,0,0,1-.53,2,2,0,0,0,.57-.76,2.34,2.34,0,0,0,.19-.9,1.56,1.56,0,0,0-.42-1.13,3.46,3.46,0,0,0-1.1-.77,9.86,9.86,0,0,0-1.55-.59c-.59-.17-1.19-.36-1.79-.57a15.35,15.35,0,0,1-1.8-.72,5.73,5.73,0,0,1-1.55-1,4.54,4.54,0,0,1-1.1-1.56,5.35,5.35,0,0,1-.42-2.23,5.63,5.63,0,0,1,1.9-4.23,7.16,7.16,0,0,1,2.33-1.31,10.66,10.66,0,0,1,6.94.19A8.34,8.34,0,0,1,157,37.34Z" fill="#00565e"/><path d="M168.27,60.38a1.78,1.78,0,0,1-.55.76,1.63,1.63,0,0,1-1,.26h-3.54l3.7-7.91-8-18.29H163a1.29,1.29,0,0,1,.88.27,1.7,1.7,0,0,1,.46.62l4.22,10.24a8.49,8.49,0,0,1,.36,1,10.65,10.65,0,0,1,.27,1.08c.11-.38.22-.74.34-1.08s.25-.7.39-1.06l4-10.22a1.38,1.38,0,0,1,.51-.64,1.4,1.4,0,0,1,.8-.25H179Z" fill="#00565e"/><path d="M195.32,39.38a2.08,2.08,0,0,1-.42.42.89.89,0,0,1-.58.16,1.34,1.34,0,0,1-.71-.22l-.83-.51a7,7,0,0,0-1.15-.5,5.47,5.47,0,0,0-1.64-.22,4.92,4.92,0,0,0-2.2.46,4.18,4.18,0,0,0-1.57,1.29,5.91,5.91,0,0,0-.93,2.06A10.76,10.76,0,0,0,185,45a10.45,10.45,0,0,0,.34,2.81,6,6,0,0,0,1,2.07,4.17,4.17,0,0,0,1.54,1.27,4.63,4.63,0,0,0,2,.43,5,5,0,0,0,1.84-.28,5.63,5.63,0,0,0,1.18-.61c.32-.23.6-.43.84-.62a1.3,1.3,0,0,1,.8-.28,1,1,0,0,1,.87.44L196.76,52a8.86,8.86,0,0,1-1.71,1.55,9.45,9.45,0,0,1-4,1.53,14.8,14.8,0,0,1-2.09.15,8.88,8.88,0,0,1-3.45-.68,8.09,8.09,0,0,1-2.82-2,9.81,9.81,0,0,1-1.91-3.21,13.45,13.45,0,0,1-.07-8.35,9.2,9.2,0,0,1,1.83-3.22,8.56,8.56,0,0,1,3-2.13,10.37,10.37,0,0,1,4.12-.77,9.73,9.73,0,0,1,3.88.72,9.36,9.36,0,0,1,3,2Z" fill="#00565e"/><path d="M200.07,55V26.35h4.76v11a10,10,0,0,1,2.54-1.77,7.34,7.34,0,0,1,3.25-.68,7.17,7.17,0,0,1,2.87.55A5.78,5.78,0,0,1,215.58,37a6.74,6.74,0,0,1,1.27,2.37,10,10,0,0,1,.43,3V55h-4.75V42.38a4.22,4.22,0,0,0-.84-2.8,3.11,3.11,0,0,0-2.51-1,5,5,0,0,0-2.31.56,8.21,8.21,0,0,0-2,1.52V55Z" fill="#00565e"/><path d="M240.06,27.12v4.12H227.72V39h9.72v4h-9.72v7.87h12.34V55H222.5V27.12Z" fill="#00565e"/><path d="M248.1,27.15a1.36,1.36,0,0,1,.42.11,1.33,1.33,0,0,1,.35.25,3.47,3.47,0,0,1,.39.43l14.61,18.62c-.05-.45-.09-.89-.11-1.32s0-.83,0-1.2V27.12h4.56V55h-2.68a2,2,0,0,1-1.81-.88L249.26,35.53c0,.41.07.82.08,1.22s0,.78,0,1.11V55h-4.56V27.12h2.72A4.45,4.45,0,0,1,248.1,27.15Z" fill="#00565e"/><path d="M293.32,48.39a1,1,0,0,1,.73.33l2.05,2.21a11.14,11.14,0,0,1-4.17,3.21A14.28,14.28,0,0,1,286,55.26a13.94,13.94,0,0,1-5.57-1.06,12.33,12.33,0,0,1-4.23-2.94,12.82,12.82,0,0,1-2.68-4.51,16.7,16.7,0,0,1-.94-5.72,15.43,15.43,0,0,1,1-5.74,13.13,13.13,0,0,1,2.93-4.5,13.28,13.28,0,0,1,4.51-2.93,15.52,15.52,0,0,1,5.81-1.05,13.76,13.76,0,0,1,5.42,1,12.68,12.68,0,0,1,4,2.63l-1.73,2.4a1.73,1.73,0,0,1-.4.41,1.15,1.15,0,0,1-.66.17,1.47,1.47,0,0,1-.91-.35,11,11,0,0,0-1.17-.75,10.52,10.52,0,0,0-1.8-.75,9.35,9.35,0,0,0-2.76-.34,9.25,9.25,0,0,0-3.61.68,8.15,8.15,0,0,0-2.83,2,9,9,0,0,0-1.85,3.09,12,12,0,0,0-.66,4.09,12.26,12.26,0,0,0,.66,4.18,9,9,0,0,0,1.8,3.08A7.6,7.6,0,0,0,283,50.21a8.29,8.29,0,0,0,3.31.66,15.75,15.75,0,0,0,1.91-.11,8.13,8.13,0,0,0,1.58-.37,7.44,7.44,0,0,0,1.37-.64,9.1,9.1,0,0,0,1.28-1,2.07,2.07,0,0,1,.4-.28A1,1,0,0,1,293.32,48.39Z" fill="#00565e"/><path d="M327,41a15.37,15.37,0,0,1-1,5.67,13.32,13.32,0,0,1-2.87,4.52,12.93,12.93,0,0,1-4.44,3,16,16,0,0,1-11.52,0,13.06,13.06,0,0,1-4.47-3,13.34,13.34,0,0,1-2.88-4.52,16.24,16.24,0,0,1,0-11.33,13.34,13.34,0,0,1,2.88-4.52,13.06,13.06,0,0,1,4.47-3,15.11,15.11,0,0,1,5.76-1.07,14.89,14.89,0,0,1,5.76,1.08A13,13,0,0,1,326,35.37,15.35,15.35,0,0,1,327,41Zm-5.31,0a12.86,12.86,0,0,0-.61-4.11,8.63,8.63,0,0,0-1.74-3.09,7.63,7.63,0,0,0-2.76-1.94,10.39,10.39,0,0,0-7.34,0,7.66,7.66,0,0,0-2.79,1.94,8.82,8.82,0,0,0-1.76,3.09,13.93,13.93,0,0,0,0,8.22,8.73,8.73,0,0,0,1.76,3.09,7.64,7.64,0,0,0,2.79,1.93,10.39,10.39,0,0,0,7.34,0,7.61,7.61,0,0,0,2.76-1.93,8.55,8.55,0,0,0,1.74-3.09A12.77,12.77,0,0,0,321.66,41Z" fill="#00565e"/><path d="M356,41a15.08,15.08,0,0,1-1,5.63,12.67,12.67,0,0,1-7.31,7.27A15.66,15.66,0,0,1,342,55H331.32V27.12H342a15.46,15.46,0,0,1,5.76,1A12.84,12.84,0,0,1,352.15,31,12.67,12.67,0,0,1,355,35.41,15.06,15.06,0,0,1,356,41Zm-5.29,0a12.85,12.85,0,0,0-.62-4.11,8.54,8.54,0,0,0-1.75-3.07,7.52,7.52,0,0,0-2.76-1.94,9.52,9.52,0,0,0-3.67-.67h-5.41V50.83H342a9.52,9.52,0,0,0,3.67-.67,7.61,7.61,0,0,0,2.76-1.93,8.72,8.72,0,0,0,1.75-3.09A12.77,12.77,0,0,0,350.75,41Z" fill="#00565e"/><path d="M377.93,27.12v4.12H365.59V39h9.72v4h-9.72v7.87h12.34V55H360.37V27.12Z" fill="#00565e"/><path d="M123.88,80.76h1.23a2.68,2.68,0,0,0,1-.16,2,2,0,0,0,.72-.55l8.07-9.13a2.39,2.39,0,0,1,.72-.6,1.89,1.89,0,0,1,.88-.18h2.79l-9.23,10.44a8.18,8.18,0,0,1-.67.66,3.23,3.23,0,0,1-.67.44,2.38,2.38,0,0,1,.83.45,6.91,6.91,0,0,1,.74.77L140,94.38h-2.84a2.19,2.19,0,0,1-.55,0,1.88,1.88,0,0,1-.38-.13,1.48,1.48,0,0,1-.29-.22l-.27-.29-8.38-9.63-.34-.34a1.59,1.59,0,0,0-.87-.39,4.36,4.36,0,0,0-.68,0h-1.49V94.38h-3.27V70.14h3.27Z" fill="#7d7d7d"/><path d="M142.78,94.38V77.25h1.79a.76.76,0,0,1,.81.62l.24,1.86a9.41,9.41,0,0,1,2.49-2A6.49,6.49,0,0,1,151.3,77a6.2,6.2,0,0,1,2.48.47,4.75,4.75,0,0,1,1.79,1.32,5.81,5.81,0,0,1,1.1,2.06,9.17,9.17,0,0,1,.37,2.65V94.38h-3V83.47a4.63,4.63,0,0,0-.89-3,3.31,3.31,0,0,0-2.72-1.07,5,5,0,0,0-2.49.64,8.27,8.27,0,0,0-2.14,1.74V94.38Z" fill="#7d7d7d"/><path d="M168.46,77a8.75,8.75,0,0,1,3.39.63,7.19,7.19,0,0,1,2.57,1.78A7.73,7.73,0,0,1,176,82.16a12,12,0,0,1,0,7.3,7.77,7.77,0,0,1-1.62,2.77A7,7,0,0,1,171.85,94a9.61,9.61,0,0,1-6.79,0,7.17,7.17,0,0,1-2.58-1.77,8,8,0,0,1-1.64-2.77,12,12,0,0,1,0-7.3,7.91,7.91,0,0,1,1.64-2.78,7.32,7.32,0,0,1,2.58-1.78A8.77,8.77,0,0,1,168.46,77Zm0,15.3a4.42,4.42,0,0,0,3.79-1.7,7.93,7.93,0,0,0,1.25-4.75,8,8,0,0,0-1.25-4.77,4.4,4.4,0,0,0-3.79-1.71,5.33,5.33,0,0,0-2.24.44,4.26,4.26,0,0,0-1.58,1.27,5.67,5.67,0,0,0-.95,2,10.9,10.9,0,0,0-.31,2.73,10.79,10.79,0,0,0,.31,2.73,5.65,5.65,0,0,0,.95,2,4.23,4.23,0,0,0,1.58,1.26A5.33,5.33,0,0,0,168.46,92.27Z" fill="#7d7d7d"/><path d="M178,77.25h2.37a1,1,0,0,1,.61.18,1,1,0,0,1,.32.44l3.28,11c.09.41.18.8.26,1.18s.14.76.2,1.14q.13-.57.3-1.14c.12-.38.24-.77.36-1.18l3.62-11.1a.84.84,0,0,1,.3-.42.82.82,0,0,1,.53-.17h1.3a.91.91,0,0,1,.56.17.79.79,0,0,1,.3.42l3.54,11.1q.18.6.33,1.17c.1.38.19.76.28,1.13,0-.37.13-.76.22-1.17s.18-.78.29-1.13l3.35-11a.84.84,0,0,1,.32-.45.88.88,0,0,1,.55-.17h2.27l-5.55,17.13h-2.38c-.3,0-.5-.19-.61-.57l-3.79-11.62a7.76,7.76,0,0,1-.22-.79c-.06-.27-.11-.53-.17-.79-.06.26-.11.53-.17.8a7.1,7.1,0,0,1-.22.79l-3.84,11.61a.7.7,0,0,1-.69.57h-2.27Z" fill="#7d7d7d"/><path d="M209.46,69.46V94.38h-3V69.46Z" fill="#7d7d7d"/><path d="M221.49,77a7.67,7.67,0,0,1,2.84.52A6.28,6.28,0,0,1,226.58,79a6.63,6.63,0,0,1,1.48,2.4,9.21,9.21,0,0,1,.54,3.26,1.87,1.87,0,0,1-.16,1,.64.64,0,0,1-.57.23h-11.4a9.39,9.39,0,0,0,.44,2.83,5.75,5.75,0,0,0,1.11,2,4.4,4.4,0,0,0,1.7,1.2,5.66,5.66,0,0,0,2.19.4,6.65,6.65,0,0,0,2-.26,8.76,8.76,0,0,0,1.41-.57,10,10,0,0,0,1-.56,1.29,1.29,0,0,1,.69-.27.66.66,0,0,1,.57.29l.85,1.1A6.1,6.1,0,0,1,227,93.16a8.63,8.63,0,0,1-1.67.82,11.18,11.18,0,0,1-1.83.48,10.93,10.93,0,0,1-1.88.16,8.73,8.73,0,0,1-3.27-.6,7.23,7.23,0,0,1-2.59-1.76,8.07,8.07,0,0,1-1.7-2.87,11.57,11.57,0,0,1-.61-3.92,9.89,9.89,0,0,1,.55-3.35,7.89,7.89,0,0,1,1.58-2.7,7.27,7.27,0,0,1,2.52-1.79A8.18,8.18,0,0,1,221.49,77Zm.07,2.22a4.6,4.6,0,0,0-3.43,1.26,5.9,5.9,0,0,0-1.56,3.49h9.32A6.12,6.12,0,0,0,225.6,82a4.19,4.19,0,0,0-.84-1.51,3.87,3.87,0,0,0-1.37-1A4.56,4.56,0,0,0,221.56,79.19Z" fill="#7d7d7d"/><path d="M244.43,94.38a.76.76,0,0,1-.81-.62l-.27-2.08a9.08,9.08,0,0,1-2.51,2.14,6.51,6.51,0,0,1-3.24.8,6.19,6.19,0,0,1-2.68-.57,5.43,5.43,0,0,1-2-1.66,8,8,0,0,1-1.31-2.74,14.41,14.41,0,0,1-.45-3.78,12,12,0,0,1,.5-3.52,8.6,8.6,0,0,1,1.47-2.84,6.81,6.81,0,0,1,2.32-1.88,6.88,6.88,0,0,1,3.12-.69,6.29,6.29,0,0,1,2.69.53,6.53,6.53,0,0,1,2,1.5V69.46h3V94.38Zm-5.83-2.2a4.8,4.8,0,0,0,2.57-.67,7.44,7.44,0,0,0,2-1.91V81.31a4.73,4.73,0,0,0-1.82-1.57,5.23,5.23,0,0,0-2.19-.45A4.31,4.31,0,0,0,235.52,81a8,8,0,0,0-1.29,4.87,12.44,12.44,0,0,0,.29,2.87,5.45,5.45,0,0,0,.84,2,3.37,3.37,0,0,0,1.37,1.13A4.62,4.62,0,0,0,238.6,92.18Z" fill="#7d7d7d"/><path d="M257,77a8.68,8.68,0,0,1,2.09.24,7,7,0,0,1,1.77.72h4.65V79c0,.37-.23.61-.71.71l-1.94.27a5.24,5.24,0,0,1,.57,2.45,5.29,5.29,0,0,1-.48,2.28,5.22,5.22,0,0,1-1.34,1.75,6,6,0,0,1-2,1.12A8.12,8.12,0,0,1,257,88a8.69,8.69,0,0,1-2.26-.28,2.62,2.62,0,0,0-.82.75,1.36,1.36,0,0,0-.28.79,1.06,1.06,0,0,0,.49.95,3.25,3.25,0,0,0,1.3.46,10.28,10.28,0,0,0,1.84.14h2.11a12.26,12.26,0,0,1,2.11.19,6.43,6.43,0,0,1,1.84.62,3.36,3.36,0,0,1,1.3,1.18,3.48,3.48,0,0,1,.49,2,4.56,4.56,0,0,1-.55,2.16A5.65,5.65,0,0,1,263,98.77a8.31,8.31,0,0,1-2.52,1.3,10.62,10.62,0,0,1-3.37.49,13.43,13.43,0,0,1-3.29-.37,7.93,7.93,0,0,1-2.34-1,4.34,4.34,0,0,1-1.39-1.45,3.35,3.35,0,0,1-.47-1.72,3.12,3.12,0,0,1,.8-2.16,5.62,5.62,0,0,1,2.21-1.41,3.12,3.12,0,0,1-1.16-.91A2.46,2.46,0,0,1,251,90a2.42,2.42,0,0,1,.14-.77,3.26,3.26,0,0,1,.41-.78,4.79,4.79,0,0,1,.69-.75,4.64,4.64,0,0,1,.94-.62,5.37,5.37,0,0,1-2-1.89,5.15,5.15,0,0,1-.72-2.75A5.28,5.28,0,0,1,251,80.2a5,5,0,0,1,1.34-1.74,6.18,6.18,0,0,1,2.06-1.11A8.36,8.36,0,0,1,257,77Zm5.35,18.29a1.5,1.5,0,0,0-.36-1,2.12,2.12,0,0,0-1-.61,6.52,6.52,0,0,0-1.41-.32,12.54,12.54,0,0,0-1.67-.11h-1.79a6.72,6.72,0,0,1-1.75-.22,4.86,4.86,0,0,0-1.56,1.11,2.27,2.27,0,0,0-.6,1.58,2.1,2.1,0,0,0,.3,1.08,2.49,2.49,0,0,0,.9.86,5.76,5.76,0,0,0,1.53.58,10,10,0,0,0,2.18.21,9.6,9.6,0,0,0,2.18-.23A5.55,5.55,0,0,0,261,97.5a3,3,0,0,0,1-1A2.31,2.31,0,0,0,262.33,95.25ZM257,86a5,5,0,0,0,1.62-.25,3.13,3.13,0,0,0,1.17-.72,2.81,2.81,0,0,0,.72-1.09,4.09,4.09,0,0,0,.23-1.39,3.37,3.37,0,0,0-1-2.51,3.85,3.85,0,0,0-2.79-.93,3.79,3.79,0,0,0-2.76.93,3.34,3.34,0,0,0-1,2.51,3.66,3.66,0,0,0,.25,1.39,2.81,2.81,0,0,0,.72,1.09,3.17,3.17,0,0,0,1.16.72A4.91,4.91,0,0,0,257,86Z" fill="#7d7d7d"/><path d="M275.22,77a7.71,7.71,0,0,1,2.84.52A6.28,6.28,0,0,1,280.31,79a6.76,6.76,0,0,1,1.48,2.4,9.21,9.21,0,0,1,.54,3.26,2,2,0,0,1-.16,1,.64.64,0,0,1-.57.23H270.2a9.09,9.09,0,0,0,.44,2.83,5.75,5.75,0,0,0,1.11,2,4.44,4.44,0,0,0,1.69,1.2,5.75,5.75,0,0,0,2.2.4,6.65,6.65,0,0,0,2-.26,9.59,9.59,0,0,0,1.41-.57c.39-.2.72-.39,1-.56a1.27,1.27,0,0,1,.68-.27.68.68,0,0,1,.58.29l.85,1.1a6.1,6.1,0,0,1-1.34,1.18,8.93,8.93,0,0,1-1.67.82,11.18,11.18,0,0,1-1.83.48,10.93,10.93,0,0,1-1.88.16,8.65,8.65,0,0,1-3.27-.6,7.14,7.14,0,0,1-2.59-1.76,7.93,7.93,0,0,1-1.7-2.87,11.57,11.57,0,0,1-.61-3.92,9.89,9.89,0,0,1,.55-3.35,7.73,7.73,0,0,1,1.58-2.7,7.27,7.27,0,0,1,2.52-1.79A8.18,8.18,0,0,1,275.22,77Zm.07,2.22a4.64,4.64,0,0,0-3.44,1.26,6,6,0,0,0-1.55,3.49h9.32a6.12,6.12,0,0,0-.29-1.91,4.19,4.19,0,0,0-.84-1.51,3.87,3.87,0,0,0-1.37-1A4.56,4.56,0,0,0,275.29,79.19Z" fill="#7d7d7d"/><path d="M296.64,85.31v9.07h-3.27V70.14h7.16a13.65,13.65,0,0,1,4,.53,7.64,7.64,0,0,1,2.81,1.52A6,6,0,0,1,309,74.56a8.22,8.22,0,0,1,.55,3.09,8,8,0,0,1-.59,3.1,6.72,6.72,0,0,1-1.74,2.42,8.14,8.14,0,0,1-2.83,1.58,12.13,12.13,0,0,1-3.87.56Zm0-2.6h3.89a7.46,7.46,0,0,0,2.47-.37,5.25,5.25,0,0,0,1.81-1,4.45,4.45,0,0,0,1.1-1.6,5.62,5.62,0,0,0,.37-2A4.67,4.67,0,0,0,304.85,74a6.22,6.22,0,0,0-4.32-1.3h-3.89Z" fill="#7d7d7d"/><path d="M319.59,77a8.8,8.8,0,0,1,3.4.63,7.28,7.28,0,0,1,2.57,1.78,7.87,7.87,0,0,1,1.62,2.78,12,12,0,0,1,0,7.3,7.92,7.92,0,0,1-1.62,2.77A7.13,7.13,0,0,1,323,94a9.61,9.61,0,0,1-6.79,0,7.08,7.08,0,0,1-2.58-1.77A7.81,7.81,0,0,1,312,89.46a12,12,0,0,1,0-7.3,7.76,7.76,0,0,1,1.64-2.78,7.23,7.23,0,0,1,2.58-1.78A8.75,8.75,0,0,1,319.59,77Zm0,15.3a4.41,4.41,0,0,0,3.79-1.7,7.86,7.86,0,0,0,1.25-4.75,7.91,7.91,0,0,0-1.25-4.77,4.39,4.39,0,0,0-3.79-1.71,5.31,5.31,0,0,0-2.23.44,4.26,4.26,0,0,0-1.58,1.27,5.67,5.67,0,0,0-.95,2,10.9,10.9,0,0,0-.31,2.73,10.79,10.79,0,0,0,.31,2.73,5.65,5.65,0,0,0,.95,2,4.23,4.23,0,0,0,1.58,1.26A5.31,5.31,0,0,0,319.59,92.27Z" fill="#7d7d7d"/><path d="M331.4,94.38V77.25h1.73a1,1,0,0,1,.67.18,1.16,1.16,0,0,1,.26.64l.2,2.68a7.85,7.85,0,0,1,2.17-2.8,4.84,4.84,0,0,1,3-1,4.42,4.42,0,0,1,2.35.61l-.39,2.25a.5.5,0,0,1-.52.42,2.54,2.54,0,0,1-.73-.16,4.49,4.49,0,0,0-1.37-.16,3.87,3.87,0,0,0-2.63.92,6.9,6.9,0,0,0-1.77,2.65V94.38Z" fill="#7d7d7d"/><path d="M350.16,94.65A4.12,4.12,0,0,1,347,93.52,4.52,4.52,0,0,1,346,90.25V79.77h-2.06a.71.71,0,0,1-.46-.16.65.65,0,0,1-.19-.5v-1.2l2.81-.36.69-5.29a.66.66,0,0,1,.7-.58H349v5.9h4.91v2.19H349V90.05a2.2,2.2,0,0,0,.53,1.61,1.81,1.81,0,0,0,1.35.52,2.53,2.53,0,0,0,.82-.12,4.24,4.24,0,0,0,.6-.28c.17-.1.31-.2.43-.28a.53.53,0,0,1,.31-.13.54.54,0,0,1,.43.29l.88,1.44a5.81,5.81,0,0,1-1.88,1.14A6.51,6.51,0,0,1,350.16,94.65Z" fill="#7d7d7d"/><path d="M370.11,94.38h-1.34a1.61,1.61,0,0,1-.71-.13.76.76,0,0,1-.36-.58l-.33-1.59c-.45.41-.89.77-1.32,1.09a7.56,7.56,0,0,1-1.36.82,7.41,7.41,0,0,1-1.51.49,8.25,8.25,0,0,1-1.79.17,5.94,5.94,0,0,1-1.86-.28,4,4,0,0,1-1.52-.84,3.88,3.88,0,0,1-1-1.41,4.9,4.9,0,0,1-.38-2,3.7,3.7,0,0,1,.56-2,4.91,4.91,0,0,1,1.8-1.68,11.88,11.88,0,0,1,3.25-1.19,22.33,22.33,0,0,1,4.93-.47V83.45a4.65,4.65,0,0,0-.86-3,3.08,3.08,0,0,0-2.53-1,5.26,5.26,0,0,0-1.85.28,6.56,6.56,0,0,0-1.3.62c-.37.23-.68.44-.95.63a1.41,1.41,0,0,1-.79.28,1,1,0,0,1-.53-.16,1.25,1.25,0,0,1-.36-.4l-.54-1a9.64,9.64,0,0,1,3.06-2,9.44,9.44,0,0,1,3.64-.68,6.59,6.59,0,0,1,2.55.47,5.41,5.41,0,0,1,1.88,1.32,5.63,5.63,0,0,1,1.15,2,8.5,8.5,0,0,1,.39,2.64Zm-7.82-1.84a6,6,0,0,0,1.46-.16,5.75,5.75,0,0,0,1.24-.46,7.09,7.09,0,0,0,1.12-.72,10.19,10.19,0,0,0,1-1V86.7a19.77,19.77,0,0,0-3.54.27,9.83,9.83,0,0,0-2.37.68,3.36,3.36,0,0,0-1.33,1A2.2,2.2,0,0,0,359.5,90a2.83,2.83,0,0,0,.22,1.18,2.2,2.2,0,0,0,.59.8,2.25,2.25,0,0,0,.88.46A3.9,3.9,0,0,0,362.29,92.54Z" fill="#7d7d7d"/><path d="M378,69.46V94.38h-3V69.46Z" fill="#7d7d7d"/><path d="M53.32,130.82a3.49,3.49,0,0,1-5.63-1.34,94.67,94.67,0,0,0-6.53-13.95c-1.54-2.66-3.38-5.39-6.28-6.39a14.15,14.15,0,0,0-5.27-.3c-3.49.3-7,.53-10.48.83-3,.24-6.52.18-8.06-2.37-1.89-3.08.3-7.28-.59-10.72C10.13,95,9.3,94.75,8.59,93.44c-1-1.6.29-3.31-.59-4.79a7.44,7.44,0,0,0-1.19-1.19c-2.25-2.37.12-7.16-2.55-9.12-.94-.71-2.3-.71-3.19-1.48C-.35,75.74-.12,73.49.42,71.77,2.25,66.2,6.34,61.35,6.87,55.54c.41-4.55-1.36-9-1.72-13.5A30.13,30.13,0,0,1,7.76,27.89C9.3,24.28,19.07-.06,57.44,0c42.1.06,55.78,51.28,35.71,73C84.29,82.55,83.32,93.58,85,99a3.42,3.42,0,0,1-.9,3.58Z" fill="#fff"/><g opacity="0.5"><path d="M53.32,130.82a3.49,3.49,0,0,1-5.63-1.34,94.67,94.67,0,0,0-6.53-13.95c-1.54-2.66-3.38-5.39-6.28-6.39a14.15,14.15,0,0,0-5.27-.3c-3.49.3-7,.53-10.48.83-3,.24-6.52.18-8.06-2.37-1.89-3.08.3-7.28-.59-10.72C10.13,95,9.3,94.75,8.59,93.44c-1-1.6.29-3.31-.59-4.79a7.44,7.44,0,0,0-1.19-1.19c-2.25-2.37.12-7.16-2.55-9.12-.94-.71-2.3-.71-3.19-1.48C-.35,75.74-.12,73.49.42,71.77,2.25,66.2,6.34,61.35,6.87,55.54c.41-4.55-1.36-9-1.72-13.5A30.13,30.13,0,0,1,7.76,27.89C9.3,24.28,19.07-.06,57.44,0c42.1.06,55.78,51.28,35.71,73C84.29,82.55,83.32,93.58,85,99a3.42,3.42,0,0,1-.9,3.58Z" fill="#2699a7"/></g><g opacity="0.9"><path d="M93,38.32a19.2,19.2,0,0,0,.39-3.88c0-.78-.17-1.44-.32-2.74a14.68,14.68,0,0,0-.62-2.94c0-.11-.11-.21-.11-.32a20.36,20.36,0,0,0-9.69-12.2A21.1,21.1,0,0,0,59.62,6.77c-.31.1-.62.21-1,.31h-.1A18.74,18.74,0,0,0,44.92,5.93a19.2,19.2,0,0,0-8.76,5.57,18.12,18.12,0,0,0-5.73.63A16.11,16.11,0,0,0,19.27,24.44c-4.79,4.11-7.61,11-6.15,17.47,2,8.81,10.27,15.42,22.41,10.35l.17.12,0,0h0l3.35,2.37a7.63,7.63,0,0,0,3.32,5,12.77,12.77,0,0,0,9.07.84,10.84,10.84,0,0,0,3.13-1.47,9.69,9.69,0,0,0,5.42,1,7.6,7.6,0,0,0,1.59-.2l2.24,2.48-.08,0a10.91,10.91,0,0,0,11.47,3.58A9.91,9.91,0,0,0,79.12,64a9.32,9.32,0,0,0,1.67-.43A16.54,16.54,0,0,0,92.53,45.94h0C92.85,45.07,93.2,43,93,38.32Z" fill="#fff" opacity="0.7"/></g><path d="M35.31,52a.18.18,0,0,1-.05-.16l-.11,0Z" fill="#fff"/><path d="M48.15,21.66l-3.63,8.7L41.07,38.6a1.49,1.49,0,1,0,2.75,1.15l3.44-8.25,3.64-8.7a1.49,1.49,0,0,0-2.75-1.14Z" fill="#799941"/><path d="M52.31,27.16,50,32.65l-2.29,5.5a1.49,1.49,0,1,0,2.75,1.15l2.29-5.5,2.3-5.5a1.49,1.49,0,0,0-2.75-1.14Z" fill="#f26624"/><path d="M43.38,17.62,39,28.06,34.66,38.5a1.49,1.49,0,1,0,2.75,1.15l4.36-10.44,4.36-10.44a1.49,1.49,0,1,0-2.75-1.15Z" fill="#f26624"/><path d="M50.1,20.86a1.49,1.49,0,0,0-2,.8l-3.63,8.7,2.74,1.14,3.64-8.7A1.47,1.47,0,0,0,50.1,20.86Z" fill="#96c647"/><path d="M54.26,26.36a1.49,1.49,0,0,0-1.95.8L50,32.65l2.75,1.15,2.3-5.5A1.47,1.47,0,0,0,54.26,26.36Z" fill="#f4a632"/><path d="M45.33,16.82a1.49,1.49,0,0,0-1.95.8L39,28.06l2.75,1.15,4.36-10.44A1.49,1.49,0,0,0,45.33,16.82Z" fill="#f4a632"/><path d="M61.46,43.89l2.3-5.5,2.29-5.49a1.49,1.49,0,1,0-2.74-1.15L61,37.25l-2.3,5.49a1.49,1.49,0,1,0,2.75,1.15Z" fill="#f26624"/><path d="M65.62,49.39l3.64-8.7,3.44-8.25A1.49,1.49,0,0,0,70,31.3l-3.44,8.24-3.64,8.7a1.49,1.49,0,1,0,2.75,1.15Z" fill="#799941"/><path d="M76.37,31.4,72,41.84,67.64,52.28a1.49,1.49,0,1,0,2.75,1.15L74.75,43l4.36-10.44a1.49,1.49,0,1,0-2.74-1.15Z" fill="#f26624"/><path d="M65.25,31a1.47,1.47,0,0,0-1.94.8L61,37.25l2.75,1.14,2.29-5.49A1.49,1.49,0,0,0,65.25,31Z" fill="#96c647"/><path d="M71.9,30.5a1.49,1.49,0,0,0-2,.8l-3.44,8.24,2.75,1.15,3.44-8.25A1.47,1.47,0,0,0,71.9,30.5Z" fill="#96c647"/><path d="M78.31,30.6a1.47,1.47,0,0,0-1.94.8L72,41.84,74.75,43l4.36-10.44A1.49,1.49,0,0,0,78.31,30.6Z" fill="#f4a632"/><path d="M56.13,34.24c-.34.2-.7.35-1,.53a28.63,28.63,0,0,1-24.31,1.15,1.49,1.49,0,0,0-1.14,2.75,31.64,31.64,0,0,0,28-1.86c.34-.2.7-.35,1-.54A28.63,28.63,0,0,1,83,35.13a1.49,1.49,0,0,0,1.15-2.75,31.63,31.63,0,0,0-28,1.86Z" fill="#00565e"/><path d="M83,35.13a1.49,1.49,0,0,0,1.15-2.75,31.63,31.63,0,0,0-28,1.86c-.34.2-.7.35-1,.53l3.59,1.5A28.63,28.63,0,0,1,83,35.13Z" fill="#177680"/><path d="M38,14.73a1.5,1.5,0,0,0,.8,1.95A28.59,28.59,0,0,1,55.09,34.77c.11.38.26.74.35,1.12A31.65,31.65,0,0,0,73.8,57.12,1.49,1.49,0,0,0,75,54.37a28.64,28.64,0,0,1-16.27-18.1c-.11-.37-.25-.73-.35-1.11A31.59,31.59,0,0,0,40,13.93a1.49,1.49,0,0,0-1.95.8Z" fill="#00565e"/><path d="M40,13.93a1.49,1.49,0,0,0-1.15,2.75A28.59,28.59,0,0,1,55.09,34.77l3.59,1.5c-.11-.37-.25-.73-.35-1.11A31.59,31.59,0,0,0,40,13.93Z" fill="#177680"/></g></g></svg>