<svg width="18" height="21" viewBox="0 0 18 21" fill="none" xmlns="http://www.w3.org/2000/svg">
<path d="M9 0C4.0275 0 0 2.01375 0 4.5C0 6.98625 4.0275 9 9 9C13.9725 9 18 6.98625 18 4.5C18 2.01375 13.9725 0 9 0ZM0 6.75V10.125C0 12.6112 4.0275 14.625 9 14.625C13.9725 14.625 18 12.6112 18 10.125V6.75C18 9.23625 13.9725 11.25 9 11.25C4.0275 11.25 0 9.23625 0 6.75ZM0 12.375V15.75C0 18.2362 4.0275 20.25 9 20.25C13.9725 20.25 18 18.2362 18 15.75V12.375C18 14.8612 13.9725 16.875 9 16.875C4.0275 16.875 0 14.8612 0 12.375Z" fill="#BBBBBC"/>
</svg>
