<svg width="18" height="15" viewBox="0 0 18 15" fill="none" xmlns="http://www.w3.org/2000/svg">
<path d="M14.7273 3.53571L11.4545 7.07143H13.9091C13.9091 8.47802 13.3919 9.82701 12.4713 10.8216C11.5506 11.8162 10.302 12.375 9 12.375C8.18182 12.375 7.38818 12.154 6.70909 11.7562L5.51455 13.0468C6.52091 13.7363 7.71545 14.1429 9 14.1429C10.736 14.1429 12.4008 13.3978 13.6283 12.0717C14.8558 10.7455 15.5455 8.94689 15.5455 7.07143H18L14.7273 3.53571ZM4.09091 7.07143C4.09091 5.66483 4.60812 4.31585 5.52875 3.32124C6.44938 2.32662 7.69803 1.76786 9 1.76786C9.81818 1.76786 10.6118 1.98884 11.2909 2.38661L12.4855 1.09607C11.4791 0.406607 10.2845 0 9 0C7.26404 0 5.59918 0.745023 4.37166 2.07117C3.14415 3.39732 2.45455 5.19597 2.45455 7.07143H0L3.27273 10.6071L6.54545 7.07143" fill="#28A745"/>
</svg>
