<svg width="30" height="30" viewBox="0 0 30 30" fill="none" xmlns="http://www.w3.org/2000/svg">
<path d="M7.5 0.46875C3.62297 0.46875 0.46875 3.62297 0.46875 7.5C0.46875 11.377 3.62297 14.5312 7.5 14.5312H14.5312V7.5C14.5312 3.62297 11.377 0.46875 7.5 0.46875ZM13.5938 13.5938H7.5C4.14 13.5938 1.40625 10.86 1.40625 7.5C1.40625 4.14 4.14 1.40625 7.5 1.40625C10.86 1.40625 13.5938 4.14 13.5938 7.5V13.5938Z" fill="#5960A5"/>
<path d="M9.04687 2.58008L8.76562 3.47445C10.0795 3.88836 11.1108 4.92008 11.5252 6.23398L12.4191 5.9518C11.9133 4.34633 10.6523 3.08586 9.04687 2.58008Z" fill="#5960A5"/>
<path d="M0.46875 22.5C0.46875 26.377 3.62297 29.5312 7.5 29.5312C11.377 29.5312 14.5312 26.377 14.5312 22.5V15.4688H7.5C3.62297 15.4688 0.46875 18.623 0.46875 22.5ZM13.5938 22.5C13.5938 25.86 10.86 28.5938 7.5 28.5938C4.14 28.5938 1.40625 25.86 1.40625 22.5C1.40625 19.14 4.14 16.4062 7.5 16.4062H13.5938V22.5Z" fill="#5960A5"/>
<path d="M6.23449 18.4745L5.95324 17.5801C4.34777 18.0859 3.0873 19.3468 2.58105 20.9518L3.47496 21.234C3.88934 19.9201 4.92106 18.8884 6.23449 18.4745Z" fill="#5960A5"/>
<path d="M29.5312 7.5C29.5312 3.62297 26.377 0.46875 22.5 0.46875C18.623 0.46875 15.4688 3.62297 15.4688 7.5V14.5312H22.5C26.377 14.5312 29.5312 11.377 29.5312 7.5ZM16.4062 7.5C16.4062 4.14 19.14 1.40625 22.5 1.40625C25.86 1.40625 28.5938 4.14 28.5938 7.5C28.5938 10.86 25.86 13.5938 22.5 13.5938H16.4062V7.5Z" fill="#5960A5"/>
<path d="M23.7656 11.5252L24.0473 12.4195C25.6528 11.9137 26.9133 10.6528 27.4195 9.04781L26.5256 8.76562C26.1108 10.0795 25.0791 11.1113 23.7656 11.5252Z" fill="#5960A5"/>
<path d="M22.5 15.4688H15.4688V22.5C15.4688 26.377 18.623 29.5312 22.5 29.5312C26.377 29.5312 29.5312 26.377 29.5312 22.5C29.5312 18.623 26.377 15.4688 22.5 15.4688ZM25.8834 27.5644L25.2722 26.9531L26.1127 26.1127L25.4498 25.4498L24.6094 26.2903L23.8659 25.5469L24.7064 24.7064L24.0436 24.0436L23.2031 24.8841L22.2253 23.9062L23.9062 22.2253L27.5644 25.8834C27.1195 26.5477 26.5477 27.1195 25.8834 27.5644ZM22.0312 21.2878L22.7747 22.0312L22.0312 22.7747L21.2878 22.0312L22.0312 21.2878ZM28.0369 25.0303L23.9062 20.8997L23.4375 21.3684L22.0312 19.9622L21.3281 20.6653L18.1439 17.4811L17.4811 18.1439L20.6653 21.3281L19.9622 22.0312L21.3684 23.4375L20.8997 23.9062L25.0303 28.0369C24.2583 28.3908 23.4033 28.5938 22.5 28.5938C19.14 28.5938 16.4062 25.86 16.4062 22.5V16.4062H22.5C25.86 16.4062 28.5938 19.14 28.5938 22.5C28.5938 23.4033 28.3908 24.2583 28.0369 25.0303Z" fill="#5960A5"/>
<path d="M24.0469 17.5801L23.7656 18.4745C25.0795 18.8884 26.1108 19.9201 26.5252 21.234L27.4191 20.9518C26.9133 19.3463 25.6523 18.0859 24.0469 17.5801Z" fill="#5960A5"/>
<path d="M7.47609 4.00031C7.01156 3.53672 6.39469 3.28125 5.73891 3.28125C4.38375 3.28125 3.28125 4.38375 3.28125 5.73844C3.28125 6.39516 3.53672 7.0125 4.00125 7.47609L7.52391 10.9997C7.98844 11.4633 8.60531 11.7188 9.26109 11.7188C10.6163 11.7188 11.7188 10.6162 11.7188 9.26156C11.7188 8.60484 11.4633 7.9875 10.9988 7.52391L7.47609 4.00031ZM4.21875 5.73844C4.21875 4.90031 4.90078 4.21875 5.73891 4.21875C6.14484 4.21875 6.52641 4.37672 6.81375 4.66359L8.24344 6.09375L6.09375 8.24344L4.66359 6.81281C4.37672 6.52641 4.21875 6.14484 4.21875 5.73844ZM9.26109 10.7812C8.85516 10.7812 8.47359 10.6233 8.18625 10.3364L6.75656 8.90625L8.90625 6.75656L10.3364 8.18719C10.6233 8.47359 10.7812 8.85516 10.7812 9.26156C10.7812 10.0997 10.0992 10.7812 9.26109 10.7812Z" fill="#5960A5"/>
<path d="M25.7812 7.03125C25.7812 4.96359 24.0989 3.28125 22.0312 3.28125C19.9636 3.28125 18.2812 4.96359 18.2812 7.03125C18.2812 9.09891 19.9636 10.7812 22.0312 10.7812C24.0989 10.7812 25.7812 9.09891 25.7812 7.03125ZM22.0312 4.21875C22.6378 4.21875 23.1984 4.41375 23.6583 4.74141L19.7414 8.65828C19.4138 8.19844 19.2188 7.63781 19.2188 7.03125C19.2188 5.48016 20.4802 4.21875 22.0312 4.21875ZM22.0312 9.84375C21.4247 9.84375 20.8641 9.64875 20.4042 9.32109L24.3211 5.40422C24.6487 5.86406 24.8438 6.42469 24.8438 7.03125C24.8438 8.58234 23.5823 9.84375 22.0312 9.84375Z" fill="#5960A5"/>
<path d="M4.21875 23.9062C4.21875 25.1986 5.27016 26.25 6.5625 26.25C9.40547 26.25 11.7188 23.9367 11.7188 21.0938C11.7188 19.8014 10.6673 18.75 9.375 18.75C6.53203 18.75 4.21875 21.0633 4.21875 23.9062ZM9.375 19.6875C10.1503 19.6875 10.7812 20.3184 10.7812 21.0938C10.7812 23.4202 8.88844 25.3125 6.5625 25.3125C5.78719 25.3125 5.15625 24.6816 5.15625 23.9062C5.15625 21.5798 7.04906 19.6875 9.375 19.6875Z" fill="#5960A5"/>
<path d="M8.57522 21.2304L6.7002 23.1055L7.3631 23.7684L9.23813 21.8933L8.57522 21.2304Z" fill="#5960A5"/>
</svg>
