<svg width="1440" height="416" viewBox="0 0 1440 416" fill="none" xmlns="http://www.w3.org/2000/svg">
<g clip-path="url(#clip0)">
<path fill-rule="evenodd" clip-rule="evenodd" d="M0 560V0H1440V560H0Z" fill="url(#paint0_linear)"/>
<g opacity="0.8">
<g opacity="0.8">
<path opacity="0.8" d="M7.29574 114.867L-9.47705 10.9846L59.4053 77.1952L59.0797 77.5214L7.29574 114.867ZM-8.33716 13.1045L7.9471 113.399L58.2655 77.0322L-8.33716 13.1045Z" fill="#55668A"/>
<path opacity="0.8" d="M-9.47705 11.9631L-9.15138 11.6369L60.5452 -36.9611V-36.1457L59.0797 78.1738L-9.47705 11.9631ZM59.7311 -35.4934L-8.33716 11.9631L58.4284 76.2168L59.7311 -35.4934Z" fill="#55668A"/>
<path opacity="0.8" d="M58.4287 77.1953L59.8942 -36.4719L60.22 -36.635L118.68 -54.9L118.355 -54.0846L59.2428 77.1953H58.4287ZM60.5456 -35.8196L59.0801 75.4014L117.052 -53.4323L60.5456 -35.8196Z" fill="#55668A"/>
<path opacity="0.8" d="M-53.4443 219.891L-12.2452 185.155L-11.9195 185.318L62.8253 242.396L62.4995 243.048L-53.4443 219.891ZM-12.2452 186.133L-51.816 219.402L60.8712 241.907L-12.2452 186.133Z" fill="#55668A"/>
<path opacity="0.8" d="M62.1741 243.537V242.721L58.4287 76.7059L58.9172 76.869L206.29 110.464L62.1741 243.537ZM59.2428 77.6844L62.8255 241.907L204.661 110.79L59.2428 77.6844Z" fill="#55668A"/>
<path opacity="0.8" d="M205.15 110.301L236.579 53.7116L277.289 60.7241L276.475 61.2134L205.639 110.79L205.15 110.301ZM236.904 54.6901L206.615 109.322L275.172 61.3764L236.904 54.6901Z" fill="#55668A"/>
<path opacity="0.8" d="M58.7539 77.5214V76.706L237.555 53.5486L237.23 54.2009L205.801 110.79H205.475L58.7539 77.5214ZM236.09 54.6901L61.0338 77.3583L205.312 110.137L236.09 54.6901Z" fill="#55668A"/>
<path opacity="0.8" d="M-64.355 348.235L15.275 316.271L15.7636 316.924L-36.346 370.74L-64.355 348.235ZM13.8095 317.739L-62.7265 348.561L-36.5089 369.762L13.8095 317.739Z" fill="#55668A"/>
<path opacity="0.8" d="M0.619095 573.939L0.456272 573.124L-36.9976 369.109L88.0656 474.622L0.619095 573.939ZM-35.8577 371.229L1.10763 572.308L86.9257 474.786L-35.8577 371.229Z" fill="#55668A"/>
<path opacity="0.8" d="M29.4425 367.478L29.2796 366.989L14.7866 315.945L15.438 316.108L112.981 335.352L29.4425 367.478ZM15.9265 317.086L29.931 366.5L110.212 335.841L15.9265 317.086Z" fill="#55668A"/>
<path opacity="0.8" d="M218.34 314.152L271.752 242.885L272.079 243.212L325.979 304.04L218.34 314.152ZM271.752 244.19L219.969 313.172L324.35 303.388L271.752 244.19Z" fill="#55668A"/>
<path opacity="0.8" d="M86.9258 475.275L87.0886 474.622L111.515 334.7L183.817 440.865L183.329 441.027L86.9258 475.275ZM111.841 336.656L87.9029 474.133L182.515 440.538L111.841 336.656Z" fill="#55668A"/>
<path opacity="0.8" d="M110.375 336.331L204.499 244.352L219.643 313.988H219.317L110.375 336.331ZM204.01 245.821L112.818 334.862L218.666 313.336L204.01 245.821Z" fill="#55668A"/>
<path opacity="0.8" d="M183.166 441.518L110.864 335.351L111.515 335.189L219.642 313.172L183.166 441.518ZM112.167 335.841L182.84 439.723L218.502 314.314L112.167 335.841Z" fill="#55668A"/>
<path opacity="0.8" d="M254.491 406.618L254.816 405.965L349.591 440.049L326.467 477.232L326.142 476.906L254.491 406.618ZM348.451 440.376L256.282 407.271L326.142 475.927L348.451 440.376Z" fill="#55668A"/>
<path opacity="0.8" d="M-37.4858 369.762L29.9309 366.5L30.0938 366.664L87.7402 474.296L87.0888 474.786L-37.4858 369.762ZM29.4424 367.316L-35.5317 370.414L85.9489 472.991L29.4424 367.316Z" fill="#55668A"/>
<path opacity="0.8" d="M1184.81 145.852L1184.48 145.2L1245.06 108.996L1245.23 131.175L1184.81 145.852ZM1244.41 110.301L1187.25 144.384L1244.74 130.523L1244.41 110.301Z" fill="#55668A"/>
<path opacity="0.8" d="M957.809 -14.1298L1156.8 -1.08342L1156.48 -0.594108L1088.08 106.387L1087.76 106.061L957.809 -14.1298ZM1155.5 -0.431002L960.089 -13.1513L1087.92 105.245L1155.5 -0.431002Z" fill="#55668A"/>
<path opacity="0.8" d="M1013.17 422.926L1014.8 358.346L1055.51 361.933L1013.17 422.926ZM1015.45 359.162L1013.99 420.317L1054.05 362.749L1015.45 359.162Z" fill="#55668A"/>
<path opacity="0.8" d="M1225.85 43.4375L1226.5 43.2744L1368.34 0.384338L1368.66 1.03663L1274.86 97.5803L1274.54 97.2542L1225.85 43.4375ZM1367.2 1.52581L1227.31 43.7637L1274.86 96.4388L1367.2 1.52581Z" fill="#55668A"/>
<path opacity="0.8" d="M1076.85 128.403L1087.76 105.245L1088.08 105.408L1184.81 145.037L1184.65 145.852L1076.85 128.403ZM1088.24 106.387L1078.15 127.913L1181.56 144.548L1088.24 106.387Z" fill="#55668A"/>
<path opacity="0.8" d="M1087.43 106.061L1087.76 105.734L1156.48 -1.57263L1156.64 -0.594137L1185.46 146.341L1087.43 106.061ZM1155.99 0.221257L1088.57 105.571L1184.32 144.711L1155.99 0.221257Z" fill="#55668A"/>
<path opacity="0.8" d="M1184.65 146.831L1184.32 145.526L1155.5 -1.57263L1156.31 -1.08345L1226.99 43.4376L1184.65 146.831ZM1156.64 0.0581516L1184.81 144.058L1226.01 43.7638L1156.64 0.0581516Z" fill="#55668A"/>
<path opacity="0.8" d="M1022.62 450.323L1054.37 361.933L1113.65 364.054L1113 364.706L1023.27 450.812L1022.62 450.323ZM1055.03 362.749L1024.09 449.019L1111.86 364.706L1055.03 362.749Z" fill="#55668A"/>
<path opacity="0.8" d="M1219.33 220.542L1219.5 219.727L1244.9 130.033L1289.02 188.416L1288.54 188.579L1219.33 220.542ZM1245.23 131.664L1220.47 219.075L1287.72 187.927L1245.23 131.664Z" fill="#55668A"/>
<path opacity="0.8" d="M1274.05 97.2541L1274.54 96.7649L1369.15 -0.594238L1339.35 109.159H1339.02L1274.05 97.2541ZM1367.69 2.01504L1275.67 96.6018L1338.86 108.017L1367.69 2.01504Z" fill="#55668A"/>
<path opacity="0.8" d="M1054.37 363.075L1044.44 305.182L1088.25 331.111L1054.37 363.075ZM1045.58 306.812L1054.86 361.608L1086.94 331.438L1045.58 306.812Z" fill="#55668A"/>
<path opacity="0.8" d="M1219.99 220.869L1184.16 145.2L1184.65 145.037L1245.55 130.196L1245.39 130.849L1219.99 220.869ZM1185.3 145.689L1219.82 218.749L1244.58 131.501L1185.3 145.689Z" fill="#55668A"/>
<path opacity="0.8" d="M1288.86 189.558L1244.25 130.523L1280.07 127.587L1288.86 189.558ZM1245.71 131.175L1287.72 186.785L1279.42 128.403L1245.71 131.175Z" fill="#55668A"/>
<path opacity="0.8" d="M1014.48 359.162L1045.26 304.856L1055.19 362.749L1014.48 359.162ZM1044.93 307.139L1015.78 358.346L1054.21 361.771L1044.93 307.139Z" fill="#55668A"/>
<path opacity="0.8" d="M1311.5 195.265L1311.01 194.45L1279.1 127.75L1339.68 108.18L1339.51 108.833L1311.5 195.265ZM1280.4 128.239L1311.5 193.309L1338.7 109.322L1280.4 128.239Z" fill="#55668A"/>
<path opacity="0.8" d="M1178.62 335.025L1219.66 218.913L1259.89 272.076L1178.62 335.025ZM1219.98 220.542L1180.25 332.742L1258.74 271.914L1219.98 220.542Z" fill="#55668A"/>
<path opacity="0.8" d="M1259.06 271.914L1288.21 187.601L1312.15 193.961L1311.83 194.45L1259.73 272.239L1259.06 271.914ZM1288.54 188.579L1260.7 269.305L1310.85 194.45L1288.54 188.579Z" fill="#55668A"/>
<path opacity="0.8" d="M1386.25 297.191L1310.52 193.634L1311.5 193.798L1468.97 230.165L1468.32 230.654L1386.25 297.191ZM1312.47 194.94L1386.41 296.213L1467.5 230.818L1312.47 194.94Z" fill="#55668A"/>
<path opacity="0.8" d="M1222.59 437.114L1222.43 436.788L1179.11 334.047L1179.76 333.558L1267.21 435.157L1222.59 437.114ZM1180.74 336.167L1223.08 436.298L1265.58 434.668L1180.74 336.167Z" fill="#55668A"/>
<path opacity="0.8" d="M1301.25 328.176L1258.41 271.425L1259.39 271.587L1387.71 296.538L1301.25 328.176ZM1260.37 272.565L1301.57 327.198L1384.79 296.865L1260.37 272.565Z" fill="#55668A"/>
<path opacity="0.8" d="M1111.86 364.217L1112.51 363.891L1179.6 333.395L1179.76 333.721L1223.57 437.603L1111.86 364.217ZM1179.27 334.536L1113.49 364.38L1221.94 435.646L1179.27 334.536Z" fill="#55668A"/>
<path opacity="0.8" d="M1265.91 435.157V434.831L1300.91 327.524H1301.74L1320.46 482.45L1265.91 435.157ZM1301.25 329.482L1266.89 434.831L1319.65 480.656L1301.25 329.482Z" fill="#55668A"/>
<path opacity="0.8" d="M1319.65 481.636L1300.91 327.361L1301.24 327.198L1386.9 295.886L1386.57 296.702L1320.46 481.636H1319.65ZM1301.9 328.013L1320.3 480.005L1385.6 297.518L1301.9 328.013Z" fill="#55668A"/>
<path opacity="0.8" d="M10.8781 118.618C5.17865 123.021 -1.49789 114.378 4.20159 109.811C10.0639 105.408 16.5776 114.052 10.8781 118.618Z" fill="#55668A"/>
<path opacity="0.8" d="M63.1509 83.0661C55.3345 89.1 46.541 77.3583 54.1945 71.3243C62.011 65.2903 70.9674 77.0321 63.1509 83.0661Z" fill="#55668A"/>
<path opacity="0.8" d="M242.604 62.0286C232.345 70.0196 220.62 54.3638 230.879 46.536C241.138 38.545 252.863 54.0377 242.604 62.0286Z" fill="#55668A"/>
<path opacity="0.8" d="M210.361 116.987C201.892 123.673 191.96 110.627 200.59 104.104C209.057 97.4172 218.829 110.464 210.361 116.987Z" fill="#55668A"/>
<path opacity="0.8" d="M279.406 65.2903C273.87 69.5304 267.518 61.2133 273.055 56.8102C278.591 52.5701 284.942 60.8872 279.406 65.2903Z" fill="#55668A"/>
<path opacity="0.8" d="M65.4308 246.636C60.2199 250.713 54.0319 242.721 59.4056 238.645C64.7795 234.568 70.8046 242.559 65.4308 246.636Z" fill="#55668A"/>
<path opacity="0.8" d="M332.168 72.3028C326.794 76.5429 320.605 68.2258 325.979 64.1487C331.516 59.7455 337.704 68.0627 332.168 72.3028Z" fill="#55668A"/>
<path opacity="0.8" d="M18.3692 320.511C13.3211 324.426 7.296 316.761 12.507 312.683C17.5551 308.77 23.4174 316.597 18.3692 320.511Z" fill="#55668A"/>
<path opacity="0.8" d="M276.8 145.689C270.45 150.582 263.285 140.96 269.473 136.067C275.986 131.175 283.151 140.797 276.8 145.689Z" fill="#55668A"/>
<path opacity="0.8" d="M33.3506 371.718C26.9997 376.611 19.8346 366.989 26.0227 362.097C32.3736 357.204 39.7015 366.826 33.3506 371.718Z" fill="#55668A"/>
<path opacity="0.8" d="M208.406 250.55C201.241 256.095 193.1 245.168 200.265 239.623C207.266 234.078 215.409 245.005 208.406 250.55Z" fill="#55668A"/>
<path opacity="0.8" d="M116.075 341.549C108.258 347.583 99.3021 335.841 107.118 329.807C114.935 323.61 123.891 335.515 116.075 341.549Z" fill="#55668A"/>
<path opacity="0.8" d="M275.497 248.593C268.983 253.648 261.33 243.701 268.007 238.645C274.521 233.589 282.011 243.537 275.497 248.593Z" fill="#55668A"/>
<path opacity="0.8" d="M222.9 318.555C216.549 323.61 209.057 313.825 215.571 308.77C221.922 303.878 229.25 313.662 222.9 318.555Z" fill="#55668A"/>
<path opacity="0.8" d="M420.916 221.033C414.565 225.925 407.4 216.303 413.751 211.41C420.102 206.681 427.267 216.14 420.916 221.033Z" fill="#55668A"/>
<path opacity="0.8" d="M327.281 306.812C323.374 309.748 318.977 303.877 322.885 300.942C326.794 297.843 331.19 303.714 327.281 306.812Z" fill="#55668A"/>
<path opacity="0.8" d="M257.911 410.369C252.538 414.445 246.511 406.455 251.723 402.215C257.096 398.138 263.285 406.292 257.911 410.369Z" fill="#55668A"/>
<path opacity="0.8" d="M1092.32 111.442C1084.83 117.313 1076.19 105.897 1083.69 100.027C1091.18 94.3187 1099.81 105.734 1092.32 111.442Z" fill="#55668A"/>
<path opacity="0.8" d="M1080.1 131.664C1075.54 135.252 1070.17 128.239 1074.73 124.652C1079.45 121.064 1084.83 128.076 1080.1 131.664Z" fill="#55668A"/>
<path opacity="0.8" d="M1187.91 149.44C1182.53 153.517 1176.51 145.526 1181.88 141.449C1187.09 137.372 1193.12 145.363 1187.91 149.44Z" fill="#55668A"/>
<path opacity="0.8" d="M1247.67 113.399C1242.62 117.313 1236.92 109.648 1241.97 105.734C1247.02 101.983 1252.71 109.485 1247.67 113.399Z" fill="#55668A"/>
<path opacity="0.8" d="M1277.96 101.005C1272.59 105.082 1266.4 97.091 1271.77 92.8509C1277.14 88.7739 1283.32 96.9278 1277.96 101.005Z" fill="#55668A"/>
<path opacity="0.8" d="M1248.97 136.067C1241.97 141.449 1233.99 130.849 1240.99 125.467C1247.99 120.249 1255.97 130.686 1248.97 136.067Z" fill="#55668A"/>
<path opacity="0.8" d="M1144.75 235.547C1137.75 240.928 1129.77 230.327 1136.77 224.947C1143.77 219.728 1151.75 230.165 1144.75 235.547Z" fill="#55668A"/>
<path opacity="0.8" d="M1048.67 310.89C1042.32 315.782 1035.16 306.16 1041.51 301.267C1047.86 296.375 1055.03 305.998 1048.67 310.89Z" fill="#55668A"/>
<path opacity="0.8" d="M1284.8 134.6C1276 141.449 1266.07 128.076 1274.7 121.39C1283.5 114.541 1293.59 127.75 1284.8 134.6Z" fill="#55668A"/>
<path opacity="0.8" d="M1020.83 366.337C1010.9 374.165 999.334 358.835 1009.43 351.17C1019.36 343.505 1030.76 358.672 1020.83 366.337Z" fill="#55668A"/>
<path opacity="0.8" d="M1344.07 115.193C1335.6 121.716 1325.84 108.833 1334.3 102.31C1342.76 95.6234 1352.54 108.507 1344.07 115.193Z" fill="#55668A"/>
<path opacity="0.8" d="M1223.08 224.131C1217.38 228.534 1211.03 219.891 1216.57 215.651C1222.27 211.084 1228.78 219.728 1223.08 224.131Z" fill="#55668A"/>
<path opacity="0.8" d="M1091.66 336.493C1084.66 341.874 1076.85 331.275 1083.69 326.056C1090.69 320.675 1098.5 331.111 1091.66 336.493Z" fill="#55668A"/>
<path opacity="0.8" d="M1058.93 367.805C1051.77 373.349 1043.46 362.424 1050.63 356.879C1057.79 351.17 1066.1 362.26 1058.93 367.805Z" fill="#55668A"/>
<path opacity="0.8" d="M992.82 420.154C987.12 424.557 980.444 415.914 986.143 411.347C992.005 406.944 998.682 415.75 992.82 420.154Z" fill="#55668A"/>
<path opacity="0.8" d="M1291.64 192.493C1285.77 197.06 1279.1 188.253 1284.96 183.687C1290.82 179.284 1297.5 188.09 1291.64 192.493Z" fill="#55668A"/>
<path opacity="0.8" d="M999.007 426.514C992.494 431.569 985.166 421.621 991.517 416.729C998.031 411.674 1005.36 421.459 999.007 426.514Z" fill="#55668A"/>
<path opacity="0.8" d="M1017.25 426.514C1010.73 431.569 1003.24 421.621 1009.75 416.566C1016.43 411.51 1023.92 421.459 1017.25 426.514Z" fill="#55668A"/>
<path opacity="0.8" d="M1314.11 197.874C1309.39 201.625 1303.85 194.287 1308.74 190.699C1313.46 186.948 1318.99 194.124 1314.11 197.874Z" fill="#55668A"/>
<path opacity="0.8" d="M1409.7 139.003C1401.22 145.526 1391.46 132.643 1399.92 126.119C1408.4 119.596 1418.16 132.48 1409.7 139.003Z" fill="#55668A"/>
<path opacity="0.8" d="M1116.09 368.783C1110.23 373.349 1103.72 364.544 1109.42 359.977C1115.12 355.41 1121.79 364.217 1116.09 368.783Z" fill="#55668A"/>
<path opacity="0.8" d="M1183.83 339.592C1176.34 345.299 1167.88 334.047 1175.2 328.34C1182.69 322.468 1191.16 333.884 1183.83 339.592Z" fill="#55668A"/>
<path opacity="0.8" d="M1262.81 276.643C1256.79 281.372 1249.78 272.24 1255.97 267.51C1262 262.78 1268.84 271.914 1262.81 276.643Z" fill="#55668A"/>
<path opacity="0.8" d="M1305.96 333.558C1298.15 339.592 1289.19 327.85 1297.01 321.817C1304.82 315.783 1313.62 327.524 1305.96 333.558Z" fill="#55668A"/>
<path opacity="0.8" d="M1389.34 300.778C1383.96 305.018 1377.61 296.702 1383.15 292.462C1388.52 288.384 1394.87 296.538 1389.34 300.778Z" fill="#55668A"/>
<path opacity="0.7248" d="M373.116 370.389C376.396 372.157 373.746 377.084 370.468 375.316C367.314 373.547 369.836 368.62 373.116 370.389Z" fill="#55668A"/>
<path opacity="0.62" d="M458.643 406.646C462.554 408.793 459.4 414.731 455.489 412.709C451.579 410.562 454.732 404.498 458.643 406.646Z" fill="#55668A"/>
<path opacity="0.6275" d="M416.131 361.925C419.664 363.82 416.889 369.252 413.23 367.357C409.699 365.462 412.474 360.03 416.131 361.925Z" fill="#55668A"/>
<path opacity="0.6091" d="M459.905 351.818C464.824 354.471 460.914 362.051 455.994 359.398C450.947 356.619 454.859 349.165 459.905 351.818Z" fill="#55668A"/>
<path opacity="0.8992" d="M347.382 283.095C350.536 284.863 348.012 289.664 344.859 287.895C341.58 286.253 344.102 281.452 347.382 283.095Z" fill="#55668A"/>
<path opacity="0.7444" d="M499.261 362.809C502.037 364.325 499.892 368.62 496.991 367.104C494.216 365.462 496.486 361.293 499.261 362.809Z" fill="#55668A"/>
<path opacity="0.9614" d="M414.493 295.601C416.763 296.865 414.996 300.276 412.726 299.012C410.455 297.749 412.221 294.338 414.493 295.601Z" fill="#55668A"/>
<path opacity="0.8589" d="M492.324 327.563C495.477 329.205 492.955 334.006 489.801 332.363C486.647 330.595 489.17 325.794 492.324 327.563Z" fill="#55668A"/>
<path opacity="0.9151" d="M387.118 240.648C390.65 242.543 387.875 247.849 384.342 245.954C380.937 244.059 383.712 238.879 387.118 240.648Z" fill="#55668A"/>
<path opacity="0.6155" d="M404.4 239.384C407.301 241.027 405.031 245.448 402.004 243.806C399.102 242.164 401.372 237.742 404.4 239.384Z" fill="#55668A"/>
<path opacity="0.7062" d="M708.537 378.853C711.817 380.622 709.169 385.548 706.015 383.78C702.735 382.011 705.257 377.084 708.537 378.853Z" fill="#55668A"/>
<path opacity="0.867" d="M444.515 227.762C447.037 229.152 445.019 233.068 442.496 231.678C439.847 230.289 441.865 226.372 444.515 227.762Z" fill="#55668A"/>
<path opacity="0.8129" d="M459.904 198.327C463.436 200.222 460.661 205.654 457.003 203.759C453.471 201.864 456.373 196.432 459.904 198.327Z" fill="#55668A"/>
<path opacity="0.9944" d="M509.101 190.621C514.525 193.526 510.236 201.864 504.813 198.832C499.261 195.927 503.551 187.715 509.101 190.621Z" fill="#55668A"/>
<path opacity="0.8139" d="M857.768 371.273C860.67 372.789 858.398 377.084 855.497 375.568C852.596 374.052 854.867 369.757 857.768 371.273Z" fill="#55668A"/>
<path opacity="0.8633" d="M394.435 113.307C397.84 115.075 395.065 120.255 391.786 118.36C388.38 116.591 391.029 111.538 394.435 113.307Z" fill="#55668A"/>
<path opacity="0.6237" d="M440.604 138.447C443.631 140.089 441.235 144.51 438.207 142.994C435.306 141.352 437.702 136.931 440.604 138.447Z" fill="#55668A"/>
<path opacity="0.7896" d="M835.945 318.341C837.711 319.225 836.323 321.878 834.557 320.994C832.791 320.109 834.179 317.456 835.945 318.341Z" fill="#55668A"/>
<path opacity="0.7284" d="M914.533 350.934C916.931 352.197 915.038 355.987 912.641 354.598C910.118 353.334 912.137 349.671 914.533 350.934Z" fill="#55668A"/>
<path opacity="0.6561" d="M476.051 104.464C480.845 106.99 477.06 114.191 472.266 111.665C467.474 109.138 471.257 101.937 476.051 104.464Z" fill="#55668A"/>
<path opacity="0.8358" d="M838.216 269.83C841.873 271.725 838.972 277.283 835.313 275.388C831.656 273.494 834.557 267.935 838.216 269.83Z" fill="#55668A"/>
<path opacity="0.7685" d="M884.511 261.366C888.044 263.261 885.269 268.693 881.61 266.798C878.077 264.903 880.852 259.471 884.511 261.366Z" fill="#55668A"/>
<path opacity="0.9377" d="M624.525 93.7257C627.805 95.4943 625.155 100.421 622.001 98.6526C618.722 96.8839 621.245 91.9571 624.525 93.7257Z" fill="#55668A"/>
<path opacity="0.8078" d="M806.049 177.861C809.833 179.883 806.805 185.694 803.021 183.673C799.236 181.651 802.264 175.84 806.049 177.861Z" fill="#55668A"/>
<path opacity="0.9665" d="M840.612 178.62C843.261 180.009 841.117 184.052 838.467 182.662C835.945 181.146 838.09 177.23 840.612 178.62Z" fill="#55668A"/>
<path opacity="0.8335" d="M966.758 244.943C969.66 246.459 967.389 250.88 964.487 249.364C961.586 247.722 963.857 243.301 966.758 244.943Z" fill="#55668A"/>
<path opacity="0.9728" d="M801.633 124.045C805.291 126.066 802.39 131.625 798.732 129.603C794.947 127.582 797.975 122.024 801.633 124.045Z" fill="#55668A"/>
<path opacity="0.948" d="M697.689 61.5115C701.979 63.7855 698.572 70.3546 694.284 67.9543C689.994 65.6804 693.4 59.1113 697.689 61.5115Z" fill="#55668A"/>
<path opacity="0.9844" d="M873.41 127.077C877.195 129.098 874.168 134.909 870.383 132.888C866.473 130.867 869.5 125.056 873.41 127.077Z" fill="#55668A"/>
<path opacity="0.7983" d="M959.19 137.562C962.974 139.584 959.946 145.268 956.162 143.247C952.377 141.226 955.405 135.541 959.19 137.562Z" fill="#55668A"/>
<path opacity="0.7418" d="M902.171 105.601C906.208 107.748 902.928 113.812 899.017 111.665C894.981 109.517 898.135 103.453 902.171 105.601Z" fill="#55668A"/>
<path opacity="0.6334" d="M1031.34 159.291C1034.37 160.933 1031.98 165.481 1028.95 163.839C1026.05 162.197 1028.44 157.649 1031.34 159.291Z" fill="#55668A"/>
<path opacity="0.8479" d="M882.493 69.723C886.151 71.618 883.25 77.1765 879.591 75.2816C875.934 73.3866 878.835 67.8281 882.493 69.723Z" fill="#55668A"/>
<path opacity="0.8373" d="M530.42 417.51L530.041 417.763L488.035 441.007L487.908 440.881L461.418 391.865L461.922 391.991L530.42 417.51ZM488.161 440.502L529.537 417.636L462.175 392.497L488.161 440.502Z" fill="#55668A"/>
<path opacity="0.622" d="M456.12 456.167L430.26 445.682L430.386 445.429L457.255 409.046L456.12 456.167ZM430.891 445.555L455.867 455.662L456.876 410.309L430.891 445.555Z" fill="#55668A"/>
<path opacity="0.8032" d="M458.39 355.229L425.592 394.265L414.366 364.451H414.617L458.39 355.229ZM425.719 393.634L457.381 355.861L414.87 364.83L425.719 393.634Z" fill="#55668A"/>
<path opacity="0.6554" d="M369.962 328.952L345.742 285.242L373.116 288.653L369.962 328.952ZM346.373 285.748L369.71 327.689L372.737 288.906L346.373 285.748Z" fill="#55668A"/>
<path opacity="0.9788" d="M491.567 329.837L457.886 355.861L413.987 326.552L491.567 329.837ZM457.886 355.356L490.557 330.089L415.249 326.931L457.886 355.356Z" fill="#55668A"/>
<path opacity="0.9271" d="M373.242 289.032L345.869 285.748L347.004 237.237L347.382 237.11L373.242 289.032ZM346.247 285.369L372.611 288.653L347.382 237.868L346.247 285.369Z" fill="#55668A"/>
<path opacity="0.6696" d="M399.732 263.513L385.479 243.174L403.391 241.279L399.732 263.513ZM386.109 243.553L399.606 262.629L403.012 241.785L386.109 243.553Z" fill="#55668A"/>
<path opacity="0.6533" d="M444.01 229.531L413.482 251.007L421.177 229.783H421.304L444.01 229.531ZM414.24 250.122L442.875 229.91L421.43 230.289L414.24 250.122Z" fill="#55668A"/>
<path opacity="0.7926" d="M469.239 235.468L469.112 235.721L447.542 270.462L443.127 229.531L469.239 235.468ZM447.795 269.325L468.609 235.721L443.631 229.91L447.795 269.325Z" fill="#55668A"/>
<path opacity="0.677" d="M399.859 227.509L370.971 231.299L376.27 193.274L376.522 193.653L399.859 227.509ZM371.476 230.92L399.229 227.257L376.522 194.285L371.476 230.92Z" fill="#55668A"/>
<path opacity="0.7896" d="M447.92 270.209L413.482 250.628L443.631 229.404L447.92 270.209ZM414.24 250.628L447.542 269.577L443.379 230.036L414.24 250.628Z" fill="#55668A"/>
<path opacity="0.7169" d="M927.401 385.927H927.149L885.016 388.075L913.651 352.576L913.777 352.829L927.401 385.927ZM885.772 387.57L926.896 385.548L913.525 353.208L885.772 387.57Z" fill="#55668A"/>
<path opacity="0.697" d="M414.87 200.727L399.606 227.636L376.018 193.526L414.87 200.727ZM399.606 227.004L414.366 200.98L376.9 194.032L399.606 227.004Z" fill="#55668A"/>
<path opacity="0.8521" d="M458.769 200.854L443.505 230.036L414.114 200.727L458.769 200.854ZM443.379 229.404L458.139 201.233L414.996 201.106L443.379 229.404Z" fill="#55668A"/>
<path opacity="0.6456" d="M961.207 384.917L927.022 385.927V385.801L913.272 352.324L913.777 352.703L961.207 384.917ZM927.275 385.548L960.072 384.664L913.904 353.334L927.275 385.548Z" fill="#55668A"/>
<path opacity="0.9583" d="M472.519 277.662H472.14L468.735 235.721L506.705 194.79L506.956 195.042L472.519 277.662ZM469.112 235.721L472.392 276.778L506.2 195.548L469.112 235.721Z" fill="#55668A"/>
<path opacity="0.673" d="M846.036 438.228L817.527 413.846L817.654 413.72L856.885 372.915L856.759 373.547L846.036 438.228ZM818.032 413.846L845.785 437.47L856.255 373.926L818.032 413.846Z" fill="#55668A"/>
<path opacity="0.8161" d="M439.595 140.847H439.216L426.98 83.9983H427.232L454.48 82.8613V83.114L439.595 140.847ZM427.485 84.2509L439.469 139.963L454.101 83.2403L427.485 84.2509Z" fill="#55668A"/>
<path opacity="0.8651" d="M529.536 67.5754L529.285 67.8281L502.541 48.8785L511.75 44.457L529.536 67.5754ZM503.299 49.0049L528.527 66.8174L511.624 44.9623L503.299 49.0049Z" fill="#55668A"/>
<path opacity="0.824" d="M479.205 69.5966L454.101 83.3666L453.975 83.114L433.414 17.4223L433.666 17.296L479.205 69.5966ZM454.354 82.735L478.574 69.4703L434.045 18.0539L454.354 82.735Z" fill="#55668A"/>
<path opacity="0.7389" d="M913.904 352.955L913.651 353.082L856.255 373.926L887.16 315.056L913.904 352.955ZM857.011 373.168L913.399 352.703L887.16 315.561L857.011 373.168Z" fill="#55668A"/>
<path opacity="0.6936" d="M573.561 69.8493L542.909 117.223L542.782 116.844L529.159 67.449L573.561 69.8493ZM543.035 116.339L572.931 70.2283L529.662 67.828L543.035 116.339Z" fill="#55668A"/>
<path opacity="0.9718" d="M427.485 84.1246L392.795 116.465L411.464 46.0992L427.485 84.1246ZM393.425 115.328L427.106 84.1246L411.59 47.2362L393.425 115.328Z" fill="#55668A"/>
<path opacity="0.6143" d="M966.128 246.711L942.79 274.125L942.665 273.872L934.339 255.934L966.128 246.711ZM942.79 273.493L964.993 247.469L934.718 256.186L942.79 273.493Z" fill="#55668A"/>
<path opacity="0.9379" d="M870.005 173.945L849.569 201.738L849.316 201.612L861.049 170.155L870.005 173.945ZM850.074 200.475L869.5 174.072L861.174 170.661L850.074 200.475Z" fill="#55668A"/>
<path opacity="0.6739" d="M913.778 156.133L871.393 129.982L892.585 113.054L892.711 113.307L913.778 156.133ZM872.149 129.982L913.02 155.122L892.711 113.56L872.149 129.982Z" fill="#55668A"/>
<path opacity="0.9376" d="M757.987 35.1085L714.718 72.8812L714.466 30.9396H714.718L757.987 35.1085ZM715.097 72.1233L757.103 35.3612L714.845 31.3186L715.097 72.1233Z" fill="#55668A"/>
<path opacity="0.9355" d="M977.102 189.61L976.85 189.863L956.792 171.292V171.166L957.55 140.341L957.927 140.215L977.102 189.61ZM957.171 171.166L976.471 189.105L957.802 141.352L957.171 171.166Z" fill="#55668A"/>
<path opacity="0.8227" d="M975.462 81.8507L975.21 81.977L900.153 109.012L900.531 108.506L940.141 53.8054L940.267 53.9317L975.462 81.8507ZM901.036 108.254L974.705 81.7244L940.141 54.3107L901.036 108.254Z" fill="#55668A"/>
<path opacity="0.7797" d="M940.646 53.8054L940.267 54.3107L900.531 109.012L900.406 108.759L880.728 72.3759L940.646 53.8054ZM900.658 108.38L939.637 54.5634L881.231 72.6286L900.658 108.38Z" fill="#55668A"/>
<path opacity="0.61" d="M427.359 390.854C431.395 393.002 428.241 399.192 424.079 397.044C420.042 394.897 423.196 388.707 427.359 390.854Z" fill="#55668A"/>
<path opacity="0.8473" d="M463.184 389.717C466.464 391.486 463.815 396.539 460.535 394.77C457.129 392.876 459.779 387.822 463.184 389.717Z" fill="#55668A"/>
<path opacity="0.719" d="M371.981 324.278C377.278 327.184 373.116 335.269 367.691 332.363C362.393 329.584 366.682 321.373 371.981 324.278Z" fill="#55668A"/>
<path opacity="0.968" d="M415.88 324.405C419.032 326.047 416.51 330.847 413.356 329.205C410.328 327.436 412.726 322.762 415.88 324.405Z" fill="#55668A"/>
<path opacity="0.6961" d="M762.276 402.224C764.293 403.361 762.653 406.393 760.636 405.256C758.744 404.245 760.257 401.213 762.276 402.224Z" fill="#55668A"/>
<path opacity="0.6726" d="M444.515 227.762C447.037 229.152 445.019 233.068 442.496 231.678C439.847 230.289 441.865 226.372 444.515 227.762Z" fill="#55668A"/>
<path opacity="0.8295" d="M835.945 318.341C837.711 319.225 836.323 321.878 834.557 320.994C832.791 320.109 834.179 317.456 835.945 318.341Z" fill="#55668A"/>
<path opacity="0.9896" d="M455.488 80.5874C458.642 82.2297 456.12 86.9039 452.966 85.2616C449.938 83.7456 452.461 78.9451 455.488 80.5874Z" fill="#55668A"/>
<path opacity="0.8722" d="M981.517 355.482C984.166 356.871 982.022 361.04 979.372 359.524C976.723 358.135 978.742 354.092 981.517 355.482Z" fill="#55668A"/>
<path opacity="0.8956" d="M798.354 247.217C801.129 248.733 798.859 252.902 796.209 251.386C793.434 249.87 795.705 245.701 798.354 247.217Z" fill="#55668A"/>
<path opacity="0.778" d="M854.11 245.827C856.758 247.217 854.615 251.386 851.966 249.87C849.19 248.48 851.335 244.438 854.11 245.827Z" fill="#55668A"/>
<path opacity="0.8985" d="M846.289 212.35C850.451 214.624 847.172 221.066 842.882 218.793C838.72 216.519 842.126 210.202 846.289 212.35Z" fill="#55668A"/>
<path opacity="0.9666" d="M646.347 78.3134C650.132 80.3347 647.105 86.0196 643.32 83.9983C639.662 81.977 642.564 76.2921 646.347 78.3134Z" fill="#55668A"/>
<path opacity="0.9803" d="M840.612 178.62C843.261 180.009 841.117 184.052 838.467 182.662C835.945 181.146 838.09 177.23 840.612 178.62Z" fill="#55668A"/>
<path opacity="0.6766" d="M966.758 244.943C969.66 246.459 967.389 250.88 964.487 249.364C961.586 247.722 963.857 243.301 966.758 244.943Z" fill="#55668A"/>
<path opacity="0.6621" d="M978.111 187.589C981.012 189.105 978.742 193.4 975.841 191.884C972.94 190.368 975.21 186.073 978.111 187.589Z" fill="#55668A"/>
<path opacity="0.8" d="M1344.1 646.233C1342.61 649.443 1341.11 652.653 1339.67 655.747C1281.97 649.076 1227.07 623.431 1182.19 583.096C1134 539.581 1094.25 480.574 1054.44 417.834C973.452 289.726 892.279 160.442 774.692 117.524C657.407 74.8702 515.23 116.589 371.817 144.35C232.31 171.292 86.9979 163.288 -14.0913 79.6187C-12.5339 76.5742 -11.0437 73.3641 -9.60253 70.2705C6.60211 83.1439 23.5118 94.6695 41.0596 104.682C76.2831 25.3554 111.427 -53.4567 146.257 -131.852C128.79 -136.209 110.801 -139.004 92.3878 -140.469C93.7799 -143.447 95.3373 -146.492 96.7294 -149.469C155.672 -146.388 212.522 -125.681 258.922 -88.9552C308.435 -49.5437 349.474 6.7196 389.148 68.166C471.506 195.619 547.142 330.243 662.84 382.51C775.197 432.956 917.643 398.069 1060.1 368.671C1200.73 339.733 1347.55 336.998 1452.9 413.824C1451.36 417.151 1449.86 420.36 1448.32 423.686C1431.64 411.978 1414.29 401.5 1396.24 392.65C1361.22 473.435 1326.31 553.988 1291.6 634.356C1308.51 639.712 1326.12 643.72 1344.1 646.233ZM174.475 149.346C192.097 151.712 210.161 153.03 228.221 153.387C251.269 89.6243 274.594 24.8818 298.146 -40.7246C285.936 -53.0083 273.267 -64.526 260.109 -74.88C231.474 0.509415 202.802 75.3352 174.475 149.346ZM251.29 -81.8932C238.235 -91.5181 224.62 -100.144 210.466 -107.489C177.34 -26.3181 144.262 54.7372 111.217 135.394C127.894 140.652 144.995 144.58 162.372 147.528C191.766 71.6361 221.356 -4.72102 251.29 -81.8932ZM240.944 153.41C259.315 153.35 277.914 152.426 296.691 150.754C311.65 104.555 327.001 57.4252 342.63 9.31488C331.071 -5.16206 319.152 -19.106 306.84 -32.1188C284.416 30.8105 262.484 92.576 240.944 153.41ZM309.622 149.632C328.497 147.728 347.502 145.192 366.537 142.259C372.584 117.526 378.758 92.162 385.013 66.2833C373.696 50.2625 362.347 34.6399 350.636 19.5504C336.627 63.8196 322.895 107.109 309.622 149.632ZM379.697 140.273C398.781 137.223 417.964 133.94 437.03 130.608C433.726 129.351 430.257 128.161 426.722 126.805C415.367 110.221 404.13 93.6853 392.793 77.3827C388.287 98.7892 383.976 119.73 379.697 140.273ZM450.104 128.175C469.17 124.843 488.071 121.578 506.99 118.596C494.521 141.029 481.855 163.927 468.827 187.358C457.161 171.19 445.757 154.722 434.404 138.138C439.786 134.788 445.004 131.506 450.104 128.175ZM519.985 116.677C538.689 113.878 557.246 111.428 575.675 109.61C555.106 153.852 534.077 198.86 512.656 244.799C500.448 229.911 488.488 214.442 476.888 198.44C491.615 170.652 505.865 143.349 519.985 116.677ZM588.208 108.457C606.325 107.055 624.195 106.234 641.955 106.327C614.74 168.605 587.066 231.648 559.066 295.789C545.977 282.997 533.396 269.322 521.109 254.949C543.868 205.186 566.235 156.356 588.208 108.457ZM654.016 106.62C671.297 107.196 688.469 108.686 705.197 111.223C673.362 186.084 641.117 261.595 608.742 337.737C594.64 327.67 581.145 316.49 568.091 304.261C597.053 237.511 625.79 171.624 654.016 106.62ZM716.638 113.311C733.122 116.43 749.231 120.762 764.898 126.142C730.794 207.038 696.591 288.165 662.338 369.411C647.241 362.352 632.568 353.965 618.502 344.462C651.35 266.874 684.117 189.802 716.638 113.311ZM775.556 130.092C791.094 136.102 806.092 143.393 820.6 151.848C786.82 231.647 753.187 311.097 719.751 390.081C703.661 386.031 687.993 380.651 672.767 374.225C707.002 292.698 741.303 211.337 775.556 130.092ZM830.539 157.826C844.917 166.912 858.921 177.211 872.417 188.393C841.656 259.731 811.073 330.322 781 400.031C764.062 398.64 747.285 396.219 730.881 392.585C763.893 314.931 797.151 236.694 830.539 157.826ZM881.637 196.398C895.12 208.26 907.995 221.235 920.576 234.91C895.185 291.24 870.236 346.521 845.63 400.988C827.76 401.809 810.183 401.93 792.816 400.906C822.025 333.574 851.693 265.476 881.637 196.398ZM929.275 244.479C941.776 258.668 953.933 273.671 965.778 289.092C947.898 325.009 930.361 360.111 913.118 394.514C894.561 396.963 876.248 398.831 858.066 400.068C881.383 349.308 905.075 297.334 929.275 244.479ZM973.821 299.892C985.635 315.71 997.252 331.994 1008.66 348.462C999.71 360.591 990.91 372.37 982.49 383.899C963.588 387.163 944.786 390.194 926.015 392.828C941.49 362.615 957.542 331.685 973.821 299.892ZM1016.45 359.845C1027.81 376.429 1039.16 393.013 1050.4 409.549C1051.21 396.59 1051.99 384.03 1052.66 371.702C1033.48 374.984 1014.42 378.316 995.35 381.648C1002.3 374.574 1009.35 367.267 1016.45 359.845ZM1058.25 420.813C1069.47 437.067 1080.78 453.087 1092.37 468.809C1102.9 432.123 1113.1 396.253 1123.11 361.129C1104.04 363.499 1085.01 366.432 1065.92 369.483C1063.49 386.283 1060.8 403.382 1058.25 420.813ZM1100.23 479.393C1111.65 494.501 1123.33 509.027 1135.41 522.903C1154.77 465.947 1173.8 410.088 1192.49 355.042C1173.83 355.801 1155.05 357.472 1136.24 359.542C1124.39 398.689 1112.48 438.635 1100.23 479.393ZM1143.7 532.159C1155.68 545.306 1168 557.639 1180.72 569.04C1207.32 497.179 1233.81 426.232 1259.79 356.165C1241.77 354.73 1223.65 354.208 1205.25 354.668C1185.12 412.806 1164.54 471.992 1143.7 532.159ZM1189.58 576.617C1202.36 587.223 1215.53 596.896 1229.24 605.289C1261.07 525.219 1292.84 445.665 1324.34 366.41C1307.21 362.201 1289.72 359.204 1272.07 357.237C1244.83 429.649 1217.41 502.808 1189.58 576.617ZM51.7266 110.556C67.2932 118.773 83.3506 125.825 99.8316 131.548C133.356 50.4072 166.977 -30.9665 200.765 -112.408C186.647 -119.189 171.874 -124.74 156.842 -129.029C121.918 -49.4393 86.8959 30.3837 51.7266 110.556ZM1385.29 387.475C1369.27 380.306 1352.77 374.301 1335.96 369.675C1303.67 449.829 1271.17 530.169 1238.6 611.021C1252.32 618.735 1266.61 625.451 1281.31 630.835C1316.02 549.786 1350.64 468.689 1385.29 387.475Z" fill="white" fill-opacity="0.07"/>
</g>
</g>
</g>
<defs>
<linearGradient id="paint0_linear" x1="689.375" y1="-159.111" x2="689.375" y2="560" gradientUnits="userSpaceOnUse">
<stop stop-color="#346381"/>
<stop offset="1" stop-color="#3C4A67"/>
</linearGradient>
<clipPath id="clip0">
<path d="M0 0H1440V560H0V0Z" fill="white"/>
</clipPath>
</defs>
</svg>
