<svg width="40" height="40" viewBox="0 0 40 40" fill="none" xmlns="http://www.w3.org/2000/svg">
<circle cx="19.5588" cy="19.5588" r="19.5588" fill="#5BB0B5"/>
<path d="M15.3628 23.3923C14.8756 23.6562 14.3073 23.8186 13.6983 23.8186C13.0894 23.8186 12.521 23.6765 12.0339 23.3923C11.0596 23.6765 10.3085 24.529 10.1867 25.5845L9.92287 27.7159C9.88227 28 10.065 28.2639 10.3491 28.3045C11.4046 28.5278 12.521 28.6496 13.6983 28.6496C14.8756 28.6496 15.992 28.5278 17.0475 28.3045C17.3114 28.2436 17.4941 27.9797 17.4738 27.7159L17.2099 25.5845C17.0881 24.529 16.3371 23.6765 15.3628 23.3923Z" fill="white"/>
<path d="M13.6983 22.7225C15.0547 22.7225 16.1544 21.6228 16.1544 20.2664C16.1544 18.9099 15.0547 17.8103 13.6983 17.8103C12.3418 17.8103 11.2422 18.9099 11.2422 20.2664C11.2422 21.6228 12.3418 22.7225 13.6983 22.7225Z" fill="white"/>
<path d="M28.9018 17.1405C28.78 16.0849 28.029 15.2324 27.0547 14.9482C26.5675 15.2121 25.9992 15.3745 25.3902 15.3745C24.7813 15.3745 24.2129 15.2324 23.7258 14.9482C22.7515 15.2324 22.0004 16.0849 21.8786 17.1405L21.6148 19.2718C21.5742 19.5559 21.7568 19.8198 22.041 19.8604C23.0965 20.0837 24.2129 20.2055 25.3902 20.2055C26.5675 20.2055 27.6839 20.0837 28.7394 19.8604C29.0033 19.7995 29.186 19.5356 29.1657 19.2718L28.9018 17.1405Z" fill="white"/>
<path d="M25.3899 14.2784C26.7464 14.2784 27.846 13.1788 27.846 11.8223C27.846 10.4658 26.7464 9.36621 25.3899 9.36621C24.0335 9.36621 22.9338 10.4658 22.9338 11.8223C22.9338 13.1788 24.0335 14.2784 25.3899 14.2784Z" fill="white"/>
<path d="M13.6983 16.6735C14.0434 16.6735 14.3073 16.3893 14.3073 16.0646V12.553H19.463L18.8135 13.2025C18.5699 13.4461 18.5699 13.8318 18.8135 14.0754C18.9353 14.1971 19.0977 14.258 19.2601 14.258C19.4224 14.258 19.5848 14.1971 19.7066 14.0754L21.4117 12.3703C21.6553 12.1267 21.6553 11.7411 21.4117 11.4975L19.7066 9.79243C19.463 9.54885 19.0774 9.54885 18.8338 9.79243C18.5902 10.036 18.5902 10.4217 18.8338 10.6652L19.4833 11.3148H13.6983C13.3533 11.3148 13.0894 11.599 13.0894 11.9237V16.0646C13.0691 16.4096 13.3533 16.6735 13.6983 16.6735Z" fill="white"/>
<path d="M25.3899 21.4436C25.0449 21.4436 24.781 21.7278 24.781 22.0526V25.5438H20.7416L21.3912 24.8943C21.6348 24.6507 21.6348 24.2651 21.3912 24.0215C21.1476 23.7779 20.7619 23.7779 20.5183 24.0215L18.8133 25.7265C18.5697 25.9701 18.5697 26.3558 18.8133 26.5994L20.5183 28.3044C20.6401 28.4262 20.8025 28.4871 20.9649 28.4871C21.1273 28.4871 21.2897 28.4262 21.4115 28.3044C21.6551 28.0608 21.6551 27.6752 21.4115 27.4316L20.7619 26.782H25.4305C25.7756 26.782 26.0395 26.4979 26.0395 26.1731V22.0526C26.0192 21.7075 25.735 21.4436 25.3899 21.4436Z" fill="white"/>
</svg>
