<svg width="40" height="40" viewBox="0 0 40 40" fill="none" xmlns="http://www.w3.org/2000/svg">
<circle cx="19.5588" cy="19.5588" r="19.5588" fill="#5BB0B5"/>
<path d="M19.7119 11.019C15.5179 11.019 12.121 12.7175 12.121 14.8145C12.121 16.9115 15.5179 18.6099 19.7119 18.6099C23.9058 18.6099 27.3028 16.9115 27.3028 14.8145C27.3028 12.7175 23.9058 11.019 19.7119 11.019ZM12.121 16.7122V19.5588C12.121 21.6558 15.5179 23.3542 19.7119 23.3542C23.9058 23.3542 27.3028 21.6558 27.3028 19.5588V16.7122C27.3028 18.8092 23.9058 20.5077 19.7119 20.5077C15.5179 20.5077 12.121 18.8092 12.121 16.7122ZM12.121 21.4565V24.3031C12.121 26.4001 15.5179 28.0986 19.7119 28.0986C23.9058 28.0986 27.3028 26.4001 27.3028 24.3031V21.4565C27.3028 23.5535 23.9058 25.252 19.7119 25.252C15.5179 25.252 12.121 23.5535 12.121 21.4565Z" fill="white"/>
</svg>
