<svg width="961" height="244" viewBox="0 0 961 244" fill="none" xmlns="http://www.w3.org/2000/svg">
<circle cx="76" cy="74" r="62" fill="white"/>
<circle cx="237" cy="74" r="62" fill="white"/>
<circle cx="400" cy="75" r="62" fill="white"/>
<circle cx="561" cy="75" r="62" fill="white"/>
<circle cx="724" cy="74" r="62" fill="white"/>
<circle cx="888" cy="74" r="62" fill="white"/>
<path d="M50.9839 75.8C51.0632 75.9493 51.1355 76.1057 51.2009 76.269C51.2709 76.4277 51.3385 76.5887 51.4039 76.752C51.4692 76.584 51.5369 76.4183 51.6069 76.255C51.6769 76.0917 51.7515 75.9353 51.8309 75.786L54.8269 70.179C54.8642 70.109 54.9015 70.053 54.9389 70.011C54.9809 69.969 55.0252 69.9387 55.0719 69.92C55.1232 69.9013 55.1792 69.8897 55.2399 69.885C55.3005 69.8803 55.3729 69.878 55.4569 69.878H56.8779V80H55.2189V73.462C55.2189 73.3407 55.2212 73.2077 55.2259 73.063C55.2352 72.9183 55.2469 72.7713 55.2609 72.622L52.2019 78.362C52.1319 78.4927 52.0409 78.5953 51.9289 78.67C51.8169 78.74 51.6862 78.775 51.5369 78.775H51.2779C51.1285 78.775 50.9979 78.74 50.8859 78.67C50.7739 78.5953 50.6829 78.4927 50.6129 78.362L47.5119 72.601C47.5305 72.755 47.5422 72.9067 47.5469 73.056C47.5562 73.2007 47.5609 73.336 47.5609 73.462V80H45.9019V69.878H47.3229C47.4069 69.878 47.4792 69.8803 47.5399 69.885C47.6005 69.8897 47.6542 69.9013 47.7009 69.92C47.7522 69.9387 47.7989 69.969 47.8409 70.011C47.8829 70.053 47.9225 70.109 47.9599 70.179L50.9839 75.8ZM61.8855 72.706C62.4222 72.706 62.9075 72.7923 63.3415 72.965C63.7802 73.1377 64.1535 73.3827 64.4615 73.7C64.7695 74.0173 65.0075 74.4047 65.1755 74.862C65.3435 75.3193 65.4275 75.8303 65.4275 76.395C65.4275 76.9643 65.3435 77.4777 65.1755 77.935C65.0075 78.3923 64.7695 78.782 64.4615 79.104C64.1535 79.426 63.7802 79.6733 63.3415 79.846C62.9075 80.0187 62.4222 80.105 61.8855 80.105C61.3488 80.105 60.8612 80.0187 60.4225 79.846C59.9838 79.6733 59.6082 79.426 59.2955 79.104C58.9875 78.782 58.7472 78.3923 58.5745 77.935C58.4065 77.4777 58.3225 76.9643 58.3225 76.395C58.3225 75.8303 58.4065 75.3193 58.5745 74.862C58.7472 74.4047 58.9875 74.0173 59.2955 73.7C59.6082 73.3827 59.9838 73.1377 60.4225 72.965C60.8612 72.7923 61.3488 72.706 61.8855 72.706ZM61.8855 78.775C62.4828 78.775 62.9238 78.5743 63.2085 78.173C63.4978 77.7717 63.6425 77.1837 63.6425 76.409C63.6425 75.6343 63.4978 75.044 63.2085 74.638C62.9238 74.232 62.4828 74.029 61.8855 74.029C61.2788 74.029 60.8308 74.2343 60.5415 74.645C60.2522 75.051 60.1075 75.639 60.1075 76.409C60.1075 77.179 60.2522 77.767 60.5415 78.173C60.8308 78.5743 61.2788 78.775 61.8855 78.775ZM71.8305 80C71.6065 80 71.4595 79.895 71.3895 79.685L71.2495 78.992C71.1002 79.16 70.9439 79.3117 70.7805 79.447C70.6172 79.5823 70.4399 79.699 70.2485 79.797C70.0619 79.895 69.8589 79.9697 69.6395 80.021C69.4249 80.077 69.1915 80.105 68.9395 80.105C68.5475 80.105 68.1882 80.0233 67.8615 79.86C67.5349 79.6967 67.2525 79.461 67.0145 79.153C66.7812 78.8403 66.5992 78.4553 66.4685 77.998C66.3425 77.5407 66.2795 77.018 66.2795 76.43C66.2795 75.898 66.3519 75.4033 66.4965 74.946C66.6412 74.4887 66.8489 74.092 67.1195 73.756C67.3902 73.42 67.7145 73.1587 68.0925 72.972C68.4705 72.7807 68.8952 72.685 69.3665 72.685C69.7679 72.685 70.1109 72.7503 70.3955 72.881C70.6802 73.007 70.9345 73.1773 71.1585 73.392V69.598H72.8875V80H71.8305ZM69.5275 78.733C69.8869 78.733 70.1925 78.6583 70.4445 78.509C70.6965 78.3597 70.9345 78.1473 71.1585 77.872V74.652C70.9625 74.414 70.7479 74.246 70.5145 74.148C70.2859 74.05 70.0385 74.001 69.7725 74.001C69.5112 74.001 69.2732 74.05 69.0585 74.148C68.8485 74.246 68.6689 74.3953 68.5195 74.596C68.3749 74.792 68.2629 75.044 68.1835 75.352C68.1042 75.6553 68.0645 76.0147 68.0645 76.43C68.0645 76.85 68.0972 77.207 68.1625 77.501C68.2325 77.7903 68.3305 78.0283 68.4565 78.215C68.5825 78.397 68.7365 78.53 68.9185 78.614C69.1005 78.6933 69.3035 78.733 69.5275 78.733ZM77.7289 72.706C78.1816 72.706 78.5969 72.7783 78.9749 72.923C79.3576 73.0677 79.6866 73.28 79.9619 73.56C80.2372 73.8353 80.4519 74.176 80.6059 74.582C80.7599 74.9833 80.8369 75.443 80.8369 75.961C80.8369 76.0917 80.8299 76.2013 80.8159 76.29C80.8066 76.374 80.7856 76.4417 80.7529 76.493C80.7249 76.5397 80.6852 76.5747 80.6339 76.598C80.5826 76.6167 80.5172 76.626 80.4379 76.626H75.9999C76.0512 77.3633 76.2496 77.9047 76.5949 78.25C76.9402 78.5953 77.3976 78.768 77.9669 78.768C78.2469 78.768 78.4872 78.7353 78.6879 78.67C78.8932 78.6047 79.0706 78.5323 79.2199 78.453C79.3739 78.3737 79.5069 78.3013 79.6189 78.236C79.7356 78.1707 79.8476 78.138 79.9549 78.138C80.0249 78.138 80.0856 78.152 80.1369 78.18C80.1882 78.208 80.2326 78.2477 80.2699 78.299L80.7739 78.929C80.5826 79.153 80.3679 79.342 80.1299 79.496C79.8919 79.6453 79.6422 79.7667 79.3809 79.86C79.1242 79.9487 78.8606 80.0117 78.5899 80.049C78.3239 80.0863 78.0649 80.105 77.8129 80.105C77.3136 80.105 76.8492 80.0233 76.4199 79.86C75.9906 79.692 75.6172 79.447 75.2999 79.125C74.9826 78.7983 74.7329 78.397 74.5509 77.921C74.3689 77.4403 74.2779 76.885 74.2779 76.255C74.2779 75.765 74.3572 75.3053 74.5159 74.876C74.6746 74.442 74.9009 74.0663 75.1949 73.749C75.4936 73.427 75.8552 73.1727 76.2799 72.986C76.7092 72.7993 77.1922 72.706 77.7289 72.706ZM77.7639 73.945C77.2599 73.945 76.8656 74.0873 76.5809 74.372C76.2962 74.6567 76.1142 75.0603 76.0349 75.583H79.2829C79.2829 75.359 79.2526 75.149 79.1919 74.953C79.1312 74.7523 79.0379 74.5773 78.9119 74.428C78.7859 74.2787 78.6272 74.162 78.4359 74.078C78.2446 73.9893 78.0206 73.945 77.7639 73.945ZM84.0804 69.598V80H82.3514V69.598H84.0804ZM87.8812 72.818V80H86.1522V72.818H87.8812ZM88.1402 70.725C88.1402 70.8743 88.1099 71.0143 88.0492 71.145C87.9885 71.2757 87.9069 71.39 87.8042 71.488C87.7062 71.586 87.5895 71.6653 87.4542 71.726C87.3189 71.782 87.1742 71.81 87.0202 71.81C86.8709 71.81 86.7285 71.782 86.5932 71.726C86.4625 71.6653 86.3482 71.586 86.2502 71.488C86.1522 71.39 86.0729 71.2757 86.0122 71.145C85.9562 71.0143 85.9282 70.8743 85.9282 70.725C85.9282 70.571 85.9562 70.4263 86.0122 70.291C86.0729 70.1557 86.1522 70.039 86.2502 69.941C86.3482 69.843 86.4625 69.766 86.5932 69.71C86.7285 69.6493 86.8709 69.619 87.0202 69.619C87.1742 69.619 87.3189 69.6493 87.4542 69.71C87.5895 69.766 87.7062 69.843 87.8042 69.941C87.9069 70.039 87.9885 70.1557 88.0492 70.291C88.1099 70.4263 88.1402 70.571 88.1402 70.725ZM89.841 80V72.818H90.898C91.122 72.818 91.269 72.923 91.339 73.133L91.458 73.7C91.6027 73.5507 91.7543 73.4153 91.913 73.294C92.0763 73.1727 92.2467 73.0677 92.424 72.979C92.606 72.8903 92.7997 72.8227 93.005 72.776C93.2103 72.7293 93.4343 72.706 93.677 72.706C94.069 72.706 94.4167 72.7737 94.72 72.909C95.0233 73.0397 95.2753 73.2263 95.476 73.469C95.6813 73.707 95.8353 73.994 95.938 74.33C96.0453 74.6613 96.099 75.0277 96.099 75.429V80H94.37V75.429C94.37 74.9903 94.2673 74.652 94.062 74.414C93.8613 74.1713 93.558 74.05 93.152 74.05C92.8533 74.05 92.5733 74.1177 92.312 74.253C92.0507 74.3883 91.8033 74.5727 91.57 74.806V80H89.841ZM100.283 72.692C100.591 72.692 100.88 72.7247 101.151 72.79C101.422 72.8507 101.669 72.9417 101.893 73.063H103.958V73.707C103.958 73.8143 103.93 73.8983 103.874 73.959C103.818 74.0197 103.722 74.0617 103.587 74.085L102.943 74.204C102.99 74.3253 103.025 74.4537 103.048 74.589C103.076 74.7243 103.09 74.8667 103.09 75.016C103.09 75.3707 103.018 75.6927 102.873 75.982C102.733 76.2667 102.537 76.5093 102.285 76.71C102.038 76.9107 101.741 77.067 101.396 77.179C101.055 77.2863 100.684 77.34 100.283 77.34C100.012 77.34 99.7487 77.3143 99.492 77.263C99.268 77.3983 99.156 77.55 99.156 77.718C99.156 77.8627 99.2214 77.97 99.352 78.04C99.4874 78.1053 99.6624 78.152 99.877 78.18C100.096 78.208 100.344 78.2267 100.619 78.236C100.894 78.2407 101.177 78.2547 101.466 78.278C101.755 78.3013 102.038 78.3433 102.313 78.404C102.588 78.46 102.833 78.551 103.048 78.677C103.267 78.803 103.442 78.9757 103.573 79.195C103.708 79.4097 103.776 79.6873 103.776 80.028C103.776 80.3453 103.697 80.6533 103.538 80.952C103.384 81.2507 103.158 81.5167 102.859 81.75C102.565 81.9833 102.203 82.17 101.774 82.31C101.345 82.4547 100.855 82.527 100.304 82.527C99.758 82.527 99.2844 82.4733 98.883 82.366C98.4817 82.2633 98.148 82.1233 97.882 81.946C97.6207 81.7733 97.4247 81.5727 97.294 81.344C97.1634 81.1153 97.098 80.8773 97.098 80.63C97.098 80.294 97.2007 80.0117 97.406 79.783C97.6114 79.5543 97.896 79.3723 98.26 79.237C98.0827 79.139 97.9404 79.0083 97.833 78.845C97.7257 78.6817 97.672 78.4693 97.672 78.208C97.672 78.1007 97.6907 77.991 97.728 77.879C97.7654 77.7623 97.8214 77.648 97.896 77.536C97.9754 77.424 98.0734 77.319 98.19 77.221C98.3067 77.1183 98.4444 77.0273 98.603 76.948C98.239 76.752 97.952 76.4907 97.742 76.164C97.5367 75.8373 97.434 75.4547 97.434 75.016C97.434 74.6613 97.504 74.3417 97.644 74.057C97.7887 73.7677 97.987 73.5227 98.239 73.322C98.4957 73.1167 98.7967 72.9603 99.142 72.853C99.492 72.7457 99.8724 72.692 100.283 72.692ZM102.18 80.322C102.18 80.182 102.138 80.0677 102.054 79.979C101.97 79.8903 101.856 79.8227 101.711 79.776C101.566 79.7247 101.396 79.6873 101.2 79.664C101.009 79.6407 100.803 79.6243 100.584 79.615C100.369 79.601 100.145 79.5893 99.912 79.58C99.6834 79.566 99.4617 79.545 99.247 79.517C99.051 79.6243 98.8924 79.7527 98.771 79.902C98.6544 80.0467 98.596 80.2147 98.596 80.406C98.596 80.532 98.6264 80.6487 98.687 80.756C98.7524 80.868 98.8527 80.9637 98.988 81.043C99.128 81.1223 99.3077 81.183 99.527 81.225C99.7464 81.2717 100.015 81.295 100.332 81.295C100.654 81.295 100.932 81.2693 101.165 81.218C101.398 81.1713 101.59 81.1037 101.739 81.015C101.893 80.931 102.005 80.8283 102.075 80.707C102.145 80.5903 102.18 80.462 102.18 80.322ZM100.283 76.234C100.498 76.234 100.684 76.206 100.843 76.15C101.002 76.0893 101.132 76.0077 101.235 75.905C101.342 75.8023 101.422 75.6787 101.473 75.534C101.529 75.3893 101.557 75.2307 101.557 75.058C101.557 74.7033 101.45 74.4233 101.235 74.218C101.025 74.008 100.708 73.903 100.283 73.903C99.8584 73.903 99.5387 74.008 99.324 74.218C99.114 74.4233 99.009 74.7033 99.009 75.058C99.009 75.226 99.0347 75.3823 99.086 75.527C99.142 75.6717 99.2214 75.7977 99.324 75.905C99.4314 76.0077 99.5644 76.0893 99.723 76.15C99.8864 76.206 100.073 76.234 100.283 76.234Z" fill="#515359"/>
<path d="M210.752 69.878V71.376H206.265V74.183H209.8V75.632H206.265V78.495H210.752V80H204.368V69.878H210.752ZM215.879 80H214.311L211.455 72.818H212.89C213.016 72.818 213.121 72.8483 213.205 72.909C213.294 72.9697 213.355 73.0467 213.387 73.14L214.773 76.976C214.853 77.2 214.918 77.4193 214.969 77.634C215.025 77.8487 215.074 78.0633 215.116 78.278C215.158 78.0633 215.205 77.8487 215.256 77.634C215.312 77.4193 215.382 77.2 215.466 76.976L216.887 73.14C216.92 73.0467 216.978 72.9697 217.062 72.909C217.146 72.8483 217.247 72.818 217.363 72.818H218.728L215.879 80ZM225.374 80H224.597C224.434 80 224.306 79.9767 224.212 79.93C224.119 79.8787 224.049 79.7783 224.002 79.629L223.848 79.118C223.666 79.2813 223.487 79.426 223.309 79.552C223.137 79.6733 222.957 79.776 222.77 79.86C222.584 79.944 222.385 80.007 222.175 80.049C221.965 80.091 221.732 80.112 221.475 80.112C221.172 80.112 220.892 80.0723 220.635 79.993C220.379 79.909 220.157 79.7853 219.97 79.622C219.788 79.4587 219.646 79.2557 219.543 79.013C219.441 78.7703 219.389 78.488 219.389 78.166C219.389 77.8953 219.459 77.6293 219.599 77.368C219.744 77.102 219.982 76.864 220.313 76.654C220.645 76.4393 221.086 76.262 221.636 76.122C222.187 75.982 222.871 75.9027 223.687 75.884V75.464C223.687 74.9833 223.585 74.6287 223.379 74.4C223.179 74.1667 222.885 74.05 222.497 74.05C222.217 74.05 221.984 74.0827 221.797 74.148C221.611 74.2133 221.447 74.288 221.307 74.372C221.172 74.4513 221.046 74.5237 220.929 74.589C220.813 74.6543 220.684 74.687 220.544 74.687C220.428 74.687 220.327 74.6567 220.243 74.596C220.159 74.5353 220.092 74.4607 220.04 74.372L219.725 73.819C220.551 73.063 221.548 72.685 222.714 72.685C223.134 72.685 223.508 72.755 223.834 72.895C224.166 73.0303 224.446 73.2217 224.674 73.469C224.903 73.7117 225.076 74.0033 225.192 74.344C225.314 74.6847 225.374 75.058 225.374 75.464V80ZM222.014 78.922C222.192 78.922 222.355 78.9057 222.504 78.873C222.654 78.8403 222.794 78.7913 222.924 78.726C223.06 78.6607 223.188 78.5813 223.309 78.488C223.435 78.39 223.561 78.2757 223.687 78.145V76.934C223.183 76.9573 222.761 77.0017 222.42 77.067C222.084 77.1277 221.814 77.207 221.608 77.305C221.403 77.403 221.256 77.5173 221.167 77.648C221.083 77.7787 221.041 77.921 221.041 78.075C221.041 78.3783 221.13 78.5953 221.307 78.726C221.489 78.8567 221.725 78.922 222.014 78.922ZM228.915 69.598V80H227.186V69.598H228.915ZM232.457 72.818V77.382C232.457 77.8207 232.558 78.1613 232.758 78.404C232.964 78.642 233.269 78.761 233.675 78.761C233.974 78.761 234.254 78.6957 234.515 78.565C234.777 78.4297 235.024 78.2453 235.257 78.012V72.818H236.986V80H235.929C235.705 80 235.558 79.895 235.488 79.685L235.369 79.111C235.22 79.2603 235.066 79.398 234.907 79.524C234.749 79.6453 234.578 79.7503 234.396 79.839C234.219 79.923 234.025 79.9883 233.815 80.035C233.61 80.0863 233.388 80.112 233.15 80.112C232.758 80.112 232.411 80.0467 232.107 79.916C231.809 79.7807 231.557 79.5917 231.351 79.349C231.146 79.1063 230.99 78.8193 230.882 78.488C230.78 78.152 230.728 77.7833 230.728 77.382V72.818H232.457ZM244.46 80H243.683C243.52 80 243.392 79.9767 243.298 79.93C243.205 79.8787 243.135 79.7783 243.088 79.629L242.934 79.118C242.752 79.2813 242.573 79.426 242.395 79.552C242.223 79.6733 242.043 79.776 241.856 79.86C241.67 79.944 241.471 80.007 241.261 80.049C241.051 80.091 240.818 80.112 240.561 80.112C240.258 80.112 239.978 80.0723 239.721 79.993C239.465 79.909 239.243 79.7853 239.056 79.622C238.874 79.4587 238.732 79.2557 238.629 79.013C238.527 78.7703 238.475 78.488 238.475 78.166C238.475 77.8953 238.545 77.6293 238.685 77.368C238.83 77.102 239.068 76.864 239.399 76.654C239.731 76.4393 240.172 76.262 240.722 76.122C241.273 75.982 241.957 75.9027 242.773 75.884V75.464C242.773 74.9833 242.671 74.6287 242.465 74.4C242.265 74.1667 241.971 74.05 241.583 74.05C241.303 74.05 241.07 74.0827 240.883 74.148C240.697 74.2133 240.533 74.288 240.393 74.372C240.258 74.4513 240.132 74.5237 240.015 74.589C239.899 74.6543 239.77 74.687 239.63 74.687C239.514 74.687 239.413 74.6567 239.329 74.596C239.245 74.5353 239.178 74.4607 239.126 74.372L238.811 73.819C239.637 73.063 240.634 72.685 241.8 72.685C242.22 72.685 242.594 72.755 242.92 72.895C243.252 73.0303 243.532 73.2217 243.76 73.469C243.989 73.7117 244.162 74.0033 244.278 74.344C244.4 74.6847 244.46 75.058 244.46 75.464V80ZM241.1 78.922C241.278 78.922 241.441 78.9057 241.59 78.873C241.74 78.8403 241.88 78.7913 242.01 78.726C242.146 78.6607 242.274 78.5813 242.395 78.488C242.521 78.39 242.647 78.2757 242.773 78.145V76.934C242.269 76.9573 241.847 77.0017 241.506 77.067C241.17 77.1277 240.9 77.207 240.694 77.305C240.489 77.403 240.342 77.5173 240.253 77.648C240.169 77.7787 240.127 77.921 240.127 78.075C240.127 78.3783 240.216 78.5953 240.393 78.726C240.575 78.8567 240.811 78.922 241.1 78.922ZM248.519 80.112C247.899 80.112 247.42 79.937 247.084 79.587C246.748 79.2323 246.58 78.7447 246.58 78.124V74.113H245.852C245.759 74.113 245.677 74.0827 245.607 74.022C245.542 73.9613 245.509 73.8703 245.509 73.749V73.063L246.664 72.874L247.028 70.914C247.047 70.8207 247.089 70.7483 247.154 70.697C247.224 70.6457 247.311 70.62 247.413 70.62H248.309V72.881H250.199V74.113H248.309V78.005C248.309 78.229 248.365 78.404 248.477 78.53C248.589 78.656 248.739 78.719 248.925 78.719C249.033 78.719 249.121 78.7073 249.191 78.684C249.266 78.656 249.329 78.628 249.38 78.6C249.436 78.572 249.485 78.5463 249.527 78.523C249.569 78.495 249.611 78.481 249.653 78.481C249.705 78.481 249.747 78.495 249.779 78.523C249.812 78.5463 249.847 78.5837 249.884 78.635L250.402 79.475C250.15 79.685 249.861 79.8437 249.534 79.951C249.208 80.0583 248.869 80.112 248.519 80.112ZM253.415 72.818V80H251.686V72.818H253.415ZM253.674 70.725C253.674 70.8743 253.644 71.0143 253.583 71.145C253.523 71.2757 253.441 71.39 253.338 71.488C253.24 71.586 253.124 71.6653 252.988 71.726C252.853 71.782 252.708 71.81 252.554 71.81C252.405 71.81 252.263 71.782 252.127 71.726C251.997 71.6653 251.882 71.586 251.784 71.488C251.686 71.39 251.607 71.2757 251.546 71.145C251.49 71.0143 251.462 70.8743 251.462 70.725C251.462 70.571 251.49 70.4263 251.546 70.291C251.607 70.1557 251.686 70.039 251.784 69.941C251.882 69.843 251.997 69.766 252.127 69.71C252.263 69.6493 252.405 69.619 252.554 69.619C252.708 69.619 252.853 69.6493 252.988 69.71C253.124 69.766 253.24 69.843 253.338 69.941C253.441 70.039 253.523 70.1557 253.583 70.291C253.644 70.4263 253.674 70.571 253.674 70.725ZM255.375 80V72.818H256.432C256.656 72.818 256.803 72.923 256.873 73.133L256.992 73.7C257.137 73.5507 257.289 73.4153 257.447 73.294C257.611 73.1727 257.781 73.0677 257.958 72.979C258.14 72.8903 258.334 72.8227 258.539 72.776C258.745 72.7293 258.969 72.706 259.211 72.706C259.603 72.706 259.951 72.7737 260.254 72.909C260.558 73.0397 260.81 73.2263 261.01 73.469C261.216 73.707 261.37 73.994 261.472 74.33C261.58 74.6613 261.633 75.0277 261.633 75.429V80H259.904V75.429C259.904 74.9903 259.802 74.652 259.596 74.414C259.396 74.1713 259.092 74.05 258.686 74.05C258.388 74.05 258.108 74.1177 257.846 74.253C257.585 74.3883 257.338 74.5727 257.104 74.806V80H255.375ZM265.817 72.692C266.125 72.692 266.415 72.7247 266.685 72.79C266.956 72.8507 267.203 72.9417 267.427 73.063H269.492V73.707C269.492 73.8143 269.464 73.8983 269.408 73.959C269.352 74.0197 269.257 74.0617 269.121 74.085L268.477 74.204C268.524 74.3253 268.559 74.4537 268.582 74.589C268.61 74.7243 268.624 74.8667 268.624 75.016C268.624 75.3707 268.552 75.6927 268.407 75.982C268.267 76.2667 268.071 76.5093 267.819 76.71C267.572 76.9107 267.276 77.067 266.93 77.179C266.59 77.2863 266.219 77.34 265.817 77.34C265.547 77.34 265.283 77.3143 265.026 77.263C264.802 77.3983 264.69 77.55 264.69 77.718C264.69 77.8627 264.756 77.97 264.886 78.04C265.022 78.1053 265.197 78.152 265.411 78.18C265.631 78.208 265.878 78.2267 266.153 78.236C266.429 78.2407 266.711 78.2547 267 78.278C267.29 78.3013 267.572 78.3433 267.847 78.404C268.123 78.46 268.368 78.551 268.582 78.677C268.802 78.803 268.977 78.9757 269.107 79.195C269.243 79.4097 269.31 79.6873 269.31 80.028C269.31 80.3453 269.231 80.6533 269.072 80.952C268.918 81.2507 268.692 81.5167 268.393 81.75C268.099 81.9833 267.738 82.17 267.308 82.31C266.879 82.4547 266.389 82.527 265.838 82.527C265.292 82.527 264.819 82.4733 264.417 82.366C264.016 82.2633 263.682 82.1233 263.416 81.946C263.155 81.7733 262.959 81.5727 262.828 81.344C262.698 81.1153 262.632 80.8773 262.632 80.63C262.632 80.294 262.735 80.0117 262.94 79.783C263.146 79.5543 263.43 79.3723 263.794 79.237C263.617 79.139 263.475 79.0083 263.367 78.845C263.26 78.6817 263.206 78.4693 263.206 78.208C263.206 78.1007 263.225 77.991 263.262 77.879C263.3 77.7623 263.356 77.648 263.43 77.536C263.51 77.424 263.608 77.319 263.724 77.221C263.841 77.1183 263.979 77.0273 264.137 76.948C263.773 76.752 263.486 76.4907 263.276 76.164C263.071 75.8373 262.968 75.4547 262.968 75.016C262.968 74.6613 263.038 74.3417 263.178 74.057C263.323 73.7677 263.521 73.5227 263.773 73.322C264.03 73.1167 264.331 72.9603 264.676 72.853C265.026 72.7457 265.407 72.692 265.817 72.692ZM267.714 80.322C267.714 80.182 267.672 80.0677 267.588 79.979C267.504 79.8903 267.39 79.8227 267.245 79.776C267.101 79.7247 266.93 79.6873 266.734 79.664C266.543 79.6407 266.338 79.6243 266.118 79.615C265.904 79.601 265.68 79.5893 265.446 79.58C265.218 79.566 264.996 79.545 264.781 79.517C264.585 79.6243 264.427 79.7527 264.305 79.902C264.189 80.0467 264.13 80.2147 264.13 80.406C264.13 80.532 264.161 80.6487 264.221 80.756C264.287 80.868 264.387 80.9637 264.522 81.043C264.662 81.1223 264.842 81.183 265.061 81.225C265.281 81.2717 265.549 81.295 265.866 81.295C266.188 81.295 266.466 81.2693 266.699 81.218C266.933 81.1713 267.124 81.1037 267.273 81.015C267.427 80.931 267.539 80.8283 267.609 80.707C267.679 80.5903 267.714 80.462 267.714 80.322ZM265.817 76.234C266.032 76.234 266.219 76.206 266.377 76.15C266.536 76.0893 266.667 76.0077 266.769 75.905C266.877 75.8023 266.956 75.6787 267.007 75.534C267.063 75.3893 267.091 75.2307 267.091 75.058C267.091 74.7033 266.984 74.4233 266.769 74.218C266.559 74.008 266.242 73.903 265.817 73.903C265.393 73.903 265.073 74.008 264.858 74.218C264.648 74.4233 264.543 74.7033 264.543 75.058C264.543 75.226 264.569 75.3823 264.62 75.527C264.676 75.6717 264.756 75.7977 264.858 75.905C264.966 76.0077 265.099 76.0893 265.257 76.15C265.421 76.206 265.607 76.234 265.817 76.234Z" fill="#515359"/>
<path d="M358.036 78.481C358.4 78.481 358.725 78.4203 359.009 78.299C359.299 78.1777 359.541 78.0073 359.737 77.788C359.938 77.5687 360.09 77.3027 360.192 76.99C360.3 76.6773 360.353 76.3273 360.353 75.94V69.878H362.236V75.94C362.236 76.542 362.138 77.0997 361.942 77.613C361.751 78.1217 361.473 78.5627 361.109 78.936C360.745 79.3047 360.304 79.594 359.786 79.804C359.268 80.0093 358.685 80.112 358.036 80.112C357.388 80.112 356.804 80.0093 356.286 79.804C355.768 79.594 355.327 79.3047 354.963 78.936C354.604 78.5627 354.326 78.1217 354.13 77.613C353.939 77.0997 353.843 76.542 353.843 75.94V69.878H355.726V75.933C355.726 76.3203 355.778 76.6703 355.88 76.983C355.988 77.2957 356.139 77.564 356.335 77.788C356.531 78.0073 356.772 78.1777 357.056 78.299C357.346 78.4203 357.672 78.481 358.036 78.481ZM364.05 80V72.818H365.107C365.331 72.818 365.478 72.923 365.548 73.133L365.667 73.7C365.812 73.5507 365.963 73.4153 366.122 73.294C366.285 73.1727 366.456 73.0677 366.633 72.979C366.815 72.8903 367.009 72.8227 367.214 72.776C367.419 72.7293 367.643 72.706 367.886 72.706C368.278 72.706 368.626 72.7737 368.929 72.909C369.232 73.0397 369.484 73.2263 369.685 73.469C369.89 73.707 370.044 73.994 370.147 74.33C370.254 74.6613 370.308 75.0277 370.308 75.429V80H368.579V75.429C368.579 74.9903 368.476 74.652 368.271 74.414C368.07 74.1713 367.767 74.05 367.361 74.05C367.062 74.05 366.782 74.1177 366.521 74.253C366.26 74.3883 366.012 74.5727 365.779 74.806V80H364.05ZM377.061 80C376.837 80 376.69 79.895 376.62 79.685L376.48 78.992C376.331 79.16 376.174 79.3117 376.011 79.447C375.848 79.5823 375.67 79.699 375.479 79.797C375.292 79.895 375.089 79.9697 374.87 80.021C374.655 80.077 374.422 80.105 374.17 80.105C373.778 80.105 373.419 80.0233 373.092 79.86C372.765 79.6967 372.483 79.461 372.245 79.153C372.012 78.8403 371.83 78.4553 371.699 77.998C371.573 77.5407 371.51 77.018 371.51 76.43C371.51 75.898 371.582 75.4033 371.727 74.946C371.872 74.4887 372.079 74.092 372.35 73.756C372.621 73.42 372.945 73.1587 373.323 72.972C373.701 72.7807 374.126 72.685 374.597 72.685C374.998 72.685 375.341 72.7503 375.626 72.881C375.911 73.007 376.165 73.1773 376.389 73.392V69.598H378.118V80H377.061ZM374.758 78.733C375.117 78.733 375.423 78.6583 375.675 78.509C375.927 78.3597 376.165 78.1473 376.389 77.872V74.652C376.193 74.414 375.978 74.246 375.745 74.148C375.516 74.05 375.269 74.001 375.003 74.001C374.742 74.001 374.504 74.05 374.289 74.148C374.079 74.246 373.899 74.3953 373.75 74.596C373.605 74.792 373.493 75.044 373.414 75.352C373.335 75.6553 373.295 76.0147 373.295 76.43C373.295 76.85 373.328 77.207 373.393 77.501C373.463 77.7903 373.561 78.0283 373.687 78.215C373.813 78.397 373.967 78.53 374.149 78.614C374.331 78.6933 374.534 78.733 374.758 78.733ZM382.959 72.706C383.412 72.706 383.827 72.7783 384.205 72.923C384.588 73.0677 384.917 73.28 385.192 73.56C385.468 73.8353 385.682 74.176 385.836 74.582C385.99 74.9833 386.067 75.443 386.067 75.961C386.067 76.0917 386.06 76.2013 386.046 76.29C386.037 76.374 386.016 76.4417 385.983 76.493C385.955 76.5397 385.916 76.5747 385.864 76.598C385.813 76.6167 385.748 76.626 385.668 76.626H381.23C381.282 77.3633 381.48 77.9047 381.825 78.25C382.171 78.5953 382.628 78.768 383.197 78.768C383.477 78.768 383.718 78.7353 383.918 78.67C384.124 78.6047 384.301 78.5323 384.45 78.453C384.604 78.3737 384.737 78.3013 384.849 78.236C384.966 78.1707 385.078 78.138 385.185 78.138C385.255 78.138 385.316 78.152 385.367 78.18C385.419 78.208 385.463 78.2477 385.5 78.299L386.004 78.929C385.813 79.153 385.598 79.342 385.36 79.496C385.122 79.6453 384.873 79.7667 384.611 79.86C384.355 79.9487 384.091 80.0117 383.82 80.049C383.554 80.0863 383.295 80.105 383.043 80.105C382.544 80.105 382.08 80.0233 381.65 79.86C381.221 79.692 380.848 79.447 380.53 79.125C380.213 78.7983 379.963 78.397 379.781 77.921C379.599 77.4403 379.508 76.885 379.508 76.255C379.508 75.765 379.588 75.3053 379.746 74.876C379.905 74.442 380.131 74.0663 380.425 73.749C380.724 73.427 381.086 73.1727 381.51 72.986C381.94 72.7993 382.423 72.706 382.959 72.706ZM382.994 73.945C382.49 73.945 382.096 74.0873 381.811 74.372C381.527 74.6567 381.345 75.0603 381.265 75.583H384.513C384.513 75.359 384.483 75.149 384.422 74.953C384.362 74.7523 384.268 74.5773 384.142 74.428C384.016 74.2787 383.858 74.162 383.666 74.078C383.475 73.9893 383.251 73.945 382.994 73.945ZM387.47 80V72.818H388.485C388.662 72.818 388.786 72.8507 388.856 72.916C388.926 72.9813 388.973 73.0933 388.996 73.252L389.101 74.12C389.358 73.6767 389.659 73.3267 390.004 73.07C390.349 72.8133 390.737 72.685 391.166 72.685C391.521 72.685 391.815 72.7667 392.048 72.93L391.824 74.225C391.81 74.309 391.78 74.3697 391.733 74.407C391.686 74.4397 391.623 74.456 391.544 74.456C391.474 74.456 391.378 74.4397 391.257 74.407C391.136 74.3743 390.975 74.358 390.774 74.358C390.415 74.358 390.107 74.4583 389.85 74.659C389.593 74.855 389.376 75.1443 389.199 75.527V80H387.47ZM397.448 74.218C397.401 74.2927 397.352 74.3463 397.301 74.379C397.249 74.407 397.184 74.421 397.105 74.421C397.021 74.421 396.93 74.3977 396.832 74.351C396.738 74.3043 396.629 74.253 396.503 74.197C396.377 74.1363 396.232 74.0827 396.069 74.036C395.91 73.9893 395.721 73.966 395.502 73.966C395.161 73.966 394.893 74.0383 394.697 74.183C394.501 74.3277 394.403 74.5167 394.403 74.75C394.403 74.904 394.452 75.0347 394.55 75.142C394.652 75.2447 394.785 75.3357 394.949 75.415C395.117 75.4943 395.306 75.5667 395.516 75.632C395.726 75.6927 395.94 75.7603 396.16 75.835C396.379 75.9097 396.594 75.996 396.804 76.094C397.014 76.1873 397.2 76.3087 397.364 76.458C397.532 76.6027 397.665 76.7777 397.763 76.983C397.865 77.1883 397.917 77.4357 397.917 77.725C397.917 78.0703 397.854 78.39 397.728 78.684C397.602 78.9733 397.417 79.2253 397.175 79.44C396.932 79.65 396.631 79.8157 396.272 79.937C395.917 80.0537 395.509 80.112 395.047 80.112C394.799 80.112 394.557 80.0887 394.319 80.042C394.085 80 393.859 79.9393 393.64 79.86C393.425 79.7807 393.224 79.6873 393.038 79.58C392.856 79.4727 392.695 79.356 392.555 79.23L392.954 78.572C393.005 78.4927 393.066 78.432 393.136 78.39C393.206 78.348 393.294 78.327 393.402 78.327C393.509 78.327 393.609 78.3573 393.703 78.418C393.801 78.4787 393.913 78.544 394.039 78.614C394.165 78.684 394.312 78.7493 394.48 78.81C394.652 78.8707 394.869 78.901 395.131 78.901C395.336 78.901 395.511 78.8777 395.656 78.831C395.805 78.7797 395.926 78.7143 396.02 78.635C396.118 78.5557 396.188 78.4647 396.23 78.362C396.276 78.2547 396.3 78.145 396.3 78.033C396.3 77.865 396.248 77.7273 396.146 77.62C396.048 77.5127 395.915 77.4193 395.747 77.34C395.583 77.2607 395.394 77.1907 395.18 77.13C394.97 77.0647 394.753 76.9947 394.529 76.92C394.309 76.8453 394.092 76.759 393.878 76.661C393.668 76.5583 393.479 76.43 393.311 76.276C393.147 76.122 393.014 75.933 392.912 75.709C392.814 75.485 392.765 75.2143 392.765 74.897C392.765 74.603 392.823 74.323 392.94 74.057C393.056 73.791 393.227 73.56 393.451 73.364C393.679 73.1633 393.962 73.0047 394.298 72.888C394.638 72.7667 395.03 72.706 395.474 72.706C395.968 72.706 396.419 72.7877 396.825 72.951C397.231 73.1143 397.569 73.329 397.84 73.595L397.448 74.218ZM401.655 80.112C401.034 80.112 400.556 79.937 400.22 79.587C399.884 79.2323 399.716 78.7447 399.716 78.124V74.113H398.988C398.895 74.113 398.813 74.0827 398.743 74.022C398.678 73.9613 398.645 73.8703 398.645 73.749V73.063L399.8 72.874L400.164 70.914C400.183 70.8207 400.225 70.7483 400.29 70.697C400.36 70.6457 400.446 70.62 400.549 70.62H401.445V72.881H403.335V74.113H401.445V78.005C401.445 78.229 401.501 78.404 401.613 78.53C401.725 78.656 401.874 78.719 402.061 78.719C402.168 78.719 402.257 78.7073 402.327 78.684C402.402 78.656 402.465 78.628 402.516 78.6C402.572 78.572 402.621 78.5463 402.663 78.523C402.705 78.495 402.747 78.481 402.789 78.481C402.84 78.481 402.882 78.495 402.915 78.523C402.948 78.5463 402.983 78.5837 403.02 78.635L403.538 79.475C403.286 79.685 402.997 79.8437 402.67 79.951C402.343 80.0583 402.005 80.112 401.655 80.112ZM410.338 80H409.561C409.398 80 409.269 79.9767 409.176 79.93C409.083 79.8787 409.013 79.7783 408.966 79.629L408.812 79.118C408.63 79.2813 408.45 79.426 408.273 79.552C408.1 79.6733 407.921 79.776 407.734 79.86C407.547 79.944 407.349 80.007 407.139 80.049C406.929 80.091 406.696 80.112 406.439 80.112C406.136 80.112 405.856 80.0723 405.599 79.993C405.342 79.909 405.121 79.7853 404.934 79.622C404.752 79.4587 404.61 79.2557 404.507 79.013C404.404 78.7703 404.353 78.488 404.353 78.166C404.353 77.8953 404.423 77.6293 404.563 77.368C404.708 77.102 404.946 76.864 405.277 76.654C405.608 76.4393 406.049 76.262 406.6 76.122C407.151 75.982 407.834 75.9027 408.651 75.884V75.464C408.651 74.9833 408.548 74.6287 408.343 74.4C408.142 74.1667 407.848 74.05 407.461 74.05C407.181 74.05 406.948 74.0827 406.761 74.148C406.574 74.2133 406.411 74.288 406.271 74.372C406.136 74.4513 406.01 74.5237 405.893 74.589C405.776 74.6543 405.648 74.687 405.508 74.687C405.391 74.687 405.291 74.6567 405.207 74.596C405.123 74.5353 405.055 74.4607 405.004 74.372L404.689 73.819C405.515 73.063 406.511 72.685 407.678 72.685C408.098 72.685 408.471 72.755 408.798 72.895C409.129 73.0303 409.409 73.2217 409.638 73.469C409.867 73.7117 410.039 74.0033 410.156 74.344C410.277 74.6847 410.338 75.058 410.338 75.464V80ZM406.978 78.922C407.155 78.922 407.319 78.9057 407.468 78.873C407.617 78.8403 407.757 78.7913 407.888 78.726C408.023 78.6607 408.152 78.5813 408.273 78.488C408.399 78.39 408.525 78.2757 408.651 78.145V76.934C408.147 76.9573 407.725 77.0017 407.384 77.067C407.048 77.1277 406.777 77.207 406.572 77.305C406.367 77.403 406.22 77.5173 406.131 77.648C406.047 77.7787 406.005 77.921 406.005 78.075C406.005 78.3783 406.094 78.5953 406.271 78.726C406.453 78.8567 406.689 78.922 406.978 78.922ZM412.038 80V72.818H413.095C413.319 72.818 413.466 72.923 413.536 73.133L413.655 73.7C413.8 73.5507 413.952 73.4153 414.11 73.294C414.274 73.1727 414.444 73.0677 414.621 72.979C414.803 72.8903 414.997 72.8227 415.202 72.776C415.408 72.7293 415.632 72.706 415.874 72.706C416.266 72.706 416.614 72.7737 416.917 72.909C417.221 73.0397 417.473 73.2263 417.673 73.469C417.879 73.707 418.033 73.994 418.135 74.33C418.243 74.6613 418.296 75.0277 418.296 75.429V80H416.567V75.429C416.567 74.9903 416.465 74.652 416.259 74.414C416.059 74.1713 415.755 74.05 415.349 74.05C415.051 74.05 414.771 74.1177 414.509 74.253C414.248 74.3883 414.001 74.5727 413.767 74.806V80H412.038ZM425.049 80C424.825 80 424.678 79.895 424.608 79.685L424.468 78.992C424.319 79.16 424.163 79.3117 423.999 79.447C423.836 79.5823 423.659 79.699 423.467 79.797C423.281 79.895 423.078 79.9697 422.858 80.021C422.644 80.077 422.41 80.105 422.158 80.105C421.766 80.105 421.407 80.0233 421.08 79.86C420.754 79.6967 420.471 79.461 420.233 79.153C420 78.8403 419.818 78.4553 419.687 77.998C419.561 77.5407 419.498 77.018 419.498 76.43C419.498 75.898 419.571 75.4033 419.715 74.946C419.86 74.4887 420.068 74.092 420.338 73.756C420.609 73.42 420.933 73.1587 421.311 72.972C421.689 72.7807 422.114 72.685 422.585 72.685C422.987 72.685 423.33 72.7503 423.614 72.881C423.899 73.007 424.153 73.1773 424.377 73.392V69.598H426.106V80H425.049ZM422.746 78.733C423.106 78.733 423.411 78.6583 423.663 78.509C423.915 78.3597 424.153 78.1473 424.377 77.872V74.652C424.181 74.414 423.967 74.246 423.733 74.148C423.505 74.05 423.257 74.001 422.991 74.001C422.73 74.001 422.492 74.05 422.277 74.148C422.067 74.246 421.888 74.3953 421.738 74.596C421.594 74.792 421.482 75.044 421.402 75.352C421.323 75.6553 421.283 76.0147 421.283 76.43C421.283 76.85 421.316 77.207 421.381 77.501C421.451 77.7903 421.549 78.0283 421.675 78.215C421.801 78.397 421.955 78.53 422.137 78.614C422.319 78.6933 422.522 78.733 422.746 78.733ZM429.821 72.818V80H428.092V72.818H429.821ZM430.08 70.725C430.08 70.8743 430.049 71.0143 429.989 71.145C429.928 71.2757 429.846 71.39 429.744 71.488C429.646 71.586 429.529 71.6653 429.394 71.726C429.258 71.782 429.114 71.81 428.96 71.81C428.81 71.81 428.668 71.782 428.533 71.726C428.402 71.6653 428.288 71.586 428.19 71.488C428.092 71.39 428.012 71.2757 427.952 71.145C427.896 71.0143 427.868 70.8743 427.868 70.725C427.868 70.571 427.896 70.4263 427.952 70.291C428.012 70.1557 428.092 70.039 428.19 69.941C428.288 69.843 428.402 69.766 428.533 69.71C428.668 69.6493 428.81 69.619 428.96 69.619C429.114 69.619 429.258 69.6493 429.394 69.71C429.529 69.766 429.646 69.843 429.744 69.941C429.846 70.039 429.928 70.1557 429.989 70.291C430.049 70.4263 430.08 70.571 430.08 70.725ZM431.78 80V72.818H432.837C433.061 72.818 433.208 72.923 433.278 73.133L433.397 73.7C433.542 73.5507 433.694 73.4153 433.852 73.294C434.016 73.1727 434.186 73.0677 434.363 72.979C434.545 72.8903 434.739 72.8227 434.944 72.776C435.15 72.7293 435.374 72.706 435.616 72.706C436.008 72.706 436.356 72.7737 436.659 72.909C436.963 73.0397 437.215 73.2263 437.415 73.469C437.621 73.707 437.775 73.994 437.877 74.33C437.985 74.6613 438.038 75.0277 438.038 75.429V80H436.309V75.429C436.309 74.9903 436.207 74.652 436.001 74.414C435.801 74.1713 435.497 74.05 435.091 74.05C434.793 74.05 434.513 74.1177 434.251 74.253C433.99 74.3883 433.743 74.5727 433.509 74.806V80H431.78ZM442.222 72.692C442.53 72.692 442.82 72.7247 443.09 72.79C443.361 72.8507 443.608 72.9417 443.832 73.063H445.897V73.707C445.897 73.8143 445.869 73.8983 445.813 73.959C445.757 74.0197 445.662 74.0617 445.526 74.085L444.882 74.204C444.929 74.3253 444.964 74.4537 444.987 74.589C445.015 74.7243 445.029 74.8667 445.029 75.016C445.029 75.3707 444.957 75.6927 444.812 75.982C444.672 76.2667 444.476 76.5093 444.224 76.71C443.977 76.9107 443.681 77.067 443.335 77.179C442.995 77.2863 442.624 77.34 442.222 77.34C441.952 77.34 441.688 77.3143 441.431 77.263C441.207 77.3983 441.095 77.55 441.095 77.718C441.095 77.8627 441.161 77.97 441.291 78.04C441.427 78.1053 441.602 78.152 441.816 78.18C442.036 78.208 442.283 78.2267 442.558 78.236C442.834 78.2407 443.116 78.2547 443.405 78.278C443.695 78.3013 443.977 78.3433 444.252 78.404C444.528 78.46 444.773 78.551 444.987 78.677C445.207 78.803 445.382 78.9757 445.512 79.195C445.648 79.4097 445.715 79.6873 445.715 80.028C445.715 80.3453 445.636 80.6533 445.477 80.952C445.323 81.2507 445.097 81.5167 444.798 81.75C444.504 81.9833 444.143 82.17 443.713 82.31C443.284 82.4547 442.794 82.527 442.243 82.527C441.697 82.527 441.224 82.4733 440.822 82.366C440.421 82.2633 440.087 82.1233 439.821 81.946C439.56 81.7733 439.364 81.5727 439.233 81.344C439.103 81.1153 439.037 80.8773 439.037 80.63C439.037 80.294 439.14 80.0117 439.345 79.783C439.551 79.5543 439.835 79.3723 440.199 79.237C440.022 79.139 439.88 79.0083 439.772 78.845C439.665 78.6817 439.611 78.4693 439.611 78.208C439.611 78.1007 439.63 77.991 439.667 77.879C439.705 77.7623 439.761 77.648 439.835 77.536C439.915 77.424 440.013 77.319 440.129 77.221C440.246 77.1183 440.384 77.0273 440.542 76.948C440.178 76.752 439.891 76.4907 439.681 76.164C439.476 75.8373 439.373 75.4547 439.373 75.016C439.373 74.6613 439.443 74.3417 439.583 74.057C439.728 73.7677 439.926 73.5227 440.178 73.322C440.435 73.1167 440.736 72.9603 441.081 72.853C441.431 72.7457 441.812 72.692 442.222 72.692ZM444.119 80.322C444.119 80.182 444.077 80.0677 443.993 79.979C443.909 79.8903 443.795 79.8227 443.65 79.776C443.506 79.7247 443.335 79.6873 443.139 79.664C442.948 79.6407 442.743 79.6243 442.523 79.615C442.309 79.601 442.085 79.5893 441.851 79.58C441.623 79.566 441.401 79.545 441.186 79.517C440.99 79.6243 440.832 79.7527 440.71 79.902C440.594 80.0467 440.535 80.2147 440.535 80.406C440.535 80.532 440.566 80.6487 440.626 80.756C440.692 80.868 440.792 80.9637 440.927 81.043C441.067 81.1223 441.247 81.183 441.466 81.225C441.686 81.2717 441.954 81.295 442.271 81.295C442.593 81.295 442.871 81.2693 443.104 81.218C443.338 81.1713 443.529 81.1037 443.678 81.015C443.832 80.931 443.944 80.8283 444.014 80.707C444.084 80.5903 444.119 80.462 444.119 80.322ZM442.222 76.234C442.437 76.234 442.624 76.206 442.782 76.15C442.941 76.0893 443.072 76.0077 443.174 75.905C443.282 75.8023 443.361 75.6787 443.412 75.534C443.468 75.3893 443.496 75.2307 443.496 75.058C443.496 74.7033 443.389 74.4233 443.174 74.218C442.964 74.008 442.647 73.903 442.222 73.903C441.798 73.903 441.478 74.008 441.263 74.218C441.053 74.4233 440.948 74.7033 440.948 75.058C440.948 75.226 440.974 75.3823 441.025 75.527C441.081 75.6717 441.161 75.7977 441.263 75.905C441.371 76.0077 441.504 76.0893 441.662 76.15C441.826 76.206 442.012 76.234 442.222 76.234Z" fill="#515359"/>
<path d="M539.282 71.719C539.231 71.8217 539.17 71.894 539.1 71.936C539.035 71.978 538.955 71.999 538.862 71.999C538.769 71.999 538.664 71.964 538.547 71.894C538.43 71.8193 538.293 71.7377 538.134 71.649C537.975 71.5603 537.789 71.481 537.574 71.411C537.364 71.3363 537.114 71.299 536.825 71.299C536.564 71.299 536.335 71.3317 536.139 71.397C535.948 71.4577 535.784 71.544 535.649 71.656C535.518 71.768 535.42 71.9033 535.355 72.062C535.29 72.216 535.257 72.3863 535.257 72.573C535.257 72.811 535.322 73.0093 535.453 73.168C535.588 73.3267 535.766 73.462 535.985 73.574C536.204 73.686 536.454 73.7863 536.734 73.875C537.014 73.9637 537.299 74.0593 537.588 74.162C537.882 74.26 538.169 74.3767 538.449 74.512C538.729 74.6427 538.979 74.8107 539.198 75.016C539.417 75.2167 539.592 75.464 539.723 75.758C539.858 76.052 539.926 76.409 539.926 76.829C539.926 77.2863 539.847 77.7157 539.688 78.117C539.534 78.5137 539.305 78.8613 539.002 79.16C538.703 79.454 538.337 79.6873 537.903 79.86C537.469 80.028 536.972 80.112 536.412 80.112C536.09 80.112 535.773 80.0793 535.46 80.014C535.147 79.9533 534.846 79.8647 534.557 79.748C534.272 79.6313 534.004 79.4913 533.752 79.328C533.505 79.1647 533.283 78.9827 533.087 78.782L533.633 77.879C533.684 77.8137 533.745 77.76 533.815 77.718C533.89 77.6713 533.971 77.648 534.06 77.648C534.177 77.648 534.303 77.697 534.438 77.795C534.573 77.8883 534.732 77.9933 534.914 78.11C535.101 78.2267 535.318 78.334 535.565 78.432C535.817 78.5253 536.118 78.572 536.468 78.572C537.005 78.572 537.42 78.446 537.714 78.194C538.008 77.9373 538.155 77.571 538.155 77.095C538.155 76.829 538.087 76.612 537.952 76.444C537.821 76.276 537.646 76.136 537.427 76.024C537.208 75.9073 536.958 75.8093 536.678 75.73C536.398 75.6507 536.113 75.5643 535.824 75.471C535.535 75.3777 535.25 75.2657 534.97 75.135C534.69 75.0043 534.44 74.834 534.221 74.624C534.002 74.414 533.824 74.1527 533.689 73.84C533.558 73.5227 533.493 73.133 533.493 72.671C533.493 72.3023 533.565 71.943 533.71 71.593C533.859 71.243 534.074 70.9327 534.354 70.662C534.639 70.3913 534.986 70.1743 535.397 70.011C535.808 69.8477 536.277 69.766 536.804 69.766C537.401 69.766 537.952 69.8593 538.456 70.046C538.96 70.2327 539.389 70.494 539.744 70.83L539.282 71.719ZM543.624 80.112C543.003 80.112 542.525 79.937 542.189 79.587C541.853 79.2323 541.685 78.7447 541.685 78.124V74.113H540.957C540.863 74.113 540.782 74.0827 540.712 74.022C540.646 73.9613 540.614 73.8703 540.614 73.749V73.063L541.769 72.874L542.133 70.914C542.151 70.8207 542.193 70.7483 542.259 70.697C542.329 70.6457 542.415 70.62 542.518 70.62H543.414V72.881H545.304V74.113H543.414V78.005C543.414 78.229 543.47 78.404 543.582 78.53C543.694 78.656 543.843 78.719 544.03 78.719C544.137 78.719 544.226 78.7073 544.296 78.684C544.37 78.656 544.433 78.628 544.485 78.6C544.541 78.572 544.59 78.5463 544.632 78.523C544.674 78.495 544.716 78.481 544.758 78.481C544.809 78.481 544.851 78.495 544.884 78.523C544.916 78.5463 544.951 78.5837 544.989 78.635L545.507 79.475C545.255 79.685 544.965 79.8437 544.639 79.951C544.312 80.0583 543.974 80.112 543.624 80.112ZM548.261 72.818V77.382C548.261 77.8207 548.361 78.1613 548.562 78.404C548.767 78.642 549.073 78.761 549.479 78.761C549.778 78.761 550.058 78.6957 550.319 78.565C550.58 78.4297 550.828 78.2453 551.061 78.012V72.818H552.79V80H551.733C551.509 80 551.362 79.895 551.292 79.685L551.173 79.111C551.024 79.2603 550.87 79.398 550.711 79.524C550.552 79.6453 550.382 79.7503 550.2 79.839C550.023 79.923 549.829 79.9883 549.619 80.035C549.414 80.0863 549.192 80.112 548.954 80.112C548.562 80.112 548.214 80.0467 547.911 79.916C547.612 79.7807 547.36 79.5917 547.155 79.349C546.95 79.1063 546.793 78.8193 546.686 78.488C546.583 78.152 546.532 77.7833 546.532 77.382V72.818H548.261ZM559.69 80C559.466 80 559.319 79.895 559.249 79.685L559.109 78.992C558.96 79.16 558.803 79.3117 558.64 79.447C558.477 79.5823 558.299 79.699 558.108 79.797C557.921 79.895 557.718 79.9697 557.499 80.021C557.284 80.077 557.051 80.105 556.799 80.105C556.407 80.105 556.048 80.0233 555.721 79.86C555.394 79.6967 555.112 79.461 554.874 79.153C554.641 78.8403 554.459 78.4553 554.328 77.998C554.202 77.5407 554.139 77.018 554.139 76.43C554.139 75.898 554.211 75.4033 554.356 74.946C554.501 74.4887 554.708 74.092 554.979 73.756C555.25 73.42 555.574 73.1587 555.952 72.972C556.33 72.7807 556.755 72.685 557.226 72.685C557.627 72.685 557.97 72.7503 558.255 72.881C558.54 73.007 558.794 73.1773 559.018 73.392V69.598H560.747V80H559.69ZM557.387 78.733C557.746 78.733 558.052 78.6583 558.304 78.509C558.556 78.3597 558.794 78.1473 559.018 77.872V74.652C558.822 74.414 558.607 74.246 558.374 74.148C558.145 74.05 557.898 74.001 557.632 74.001C557.371 74.001 557.133 74.05 556.918 74.148C556.708 74.246 556.528 74.3953 556.379 74.596C556.234 74.792 556.122 75.044 556.043 75.352C555.964 75.6553 555.924 76.0147 555.924 76.43C555.924 76.85 555.957 77.207 556.022 77.501C556.092 77.7903 556.19 78.0283 556.316 78.215C556.442 78.397 556.596 78.53 556.778 78.614C556.96 78.6933 557.163 78.733 557.387 78.733ZM565.168 81.974C565.117 82.0953 565.049 82.1863 564.965 82.247C564.886 82.3123 564.762 82.345 564.594 82.345H563.306L564.65 79.468L561.745 72.818H563.257C563.397 72.818 563.505 72.8507 563.579 72.916C563.654 72.9813 563.71 73.056 563.747 73.14L565.28 76.864C565.332 76.9853 565.376 77.1113 565.413 77.242C565.451 77.3727 565.483 77.5033 565.511 77.634C565.549 77.4987 565.588 77.368 565.63 77.242C565.677 77.116 565.726 76.9877 565.777 76.857L567.219 73.14C567.257 73.0467 567.317 72.9697 567.401 72.909C567.49 72.8483 567.588 72.818 567.695 72.818H569.081L565.168 81.974ZM571.926 72.818V80H570.197V72.818H571.926ZM572.185 70.725C572.185 70.8743 572.155 71.0143 572.094 71.145C572.033 71.2757 571.952 71.39 571.849 71.488C571.751 71.586 571.634 71.6653 571.499 71.726C571.364 71.782 571.219 71.81 571.065 71.81C570.916 71.81 570.773 71.782 570.638 71.726C570.507 71.6653 570.393 71.586 570.295 71.488C570.197 71.39 570.118 71.2757 570.057 71.145C570.001 71.0143 569.973 70.8743 569.973 70.725C569.973 70.571 570.001 70.4263 570.057 70.291C570.118 70.1557 570.197 70.039 570.295 69.941C570.393 69.843 570.507 69.766 570.638 69.71C570.773 69.6493 570.916 69.619 571.065 69.619C571.219 69.619 571.364 69.6493 571.499 69.71C571.634 69.766 571.751 69.843 571.849 69.941C571.952 70.039 572.033 70.1557 572.094 70.291C572.155 70.4263 572.185 70.571 572.185 70.725ZM573.886 80V72.818H574.943C575.167 72.818 575.314 72.923 575.384 73.133L575.503 73.7C575.648 73.5507 575.799 73.4153 575.958 73.294C576.121 73.1727 576.292 73.0677 576.469 72.979C576.651 72.8903 576.845 72.8227 577.05 72.776C577.255 72.7293 577.479 72.706 577.722 72.706C578.114 72.706 578.462 72.7737 578.765 72.909C579.068 73.0397 579.32 73.2263 579.521 73.469C579.726 73.707 579.88 73.994 579.983 74.33C580.09 74.6613 580.144 75.0277 580.144 75.429V80H578.415V75.429C578.415 74.9903 578.312 74.652 578.107 74.414C577.906 74.1713 577.603 74.05 577.197 74.05C576.898 74.05 576.618 74.1177 576.357 74.253C576.096 74.3883 575.848 74.5727 575.615 74.806V80H573.886ZM584.328 72.692C584.636 72.692 584.925 72.7247 585.196 72.79C585.467 72.8507 585.714 72.9417 585.938 73.063H588.003V73.707C588.003 73.8143 587.975 73.8983 587.919 73.959C587.863 74.0197 587.767 74.0617 587.632 74.085L586.988 74.204C587.035 74.3253 587.07 74.4537 587.093 74.589C587.121 74.7243 587.135 74.8667 587.135 75.016C587.135 75.3707 587.063 75.6927 586.918 75.982C586.778 76.2667 586.582 76.5093 586.33 76.71C586.083 76.9107 585.786 77.067 585.441 77.179C585.1 77.2863 584.729 77.34 584.328 77.34C584.057 77.34 583.794 77.3143 583.537 77.263C583.313 77.3983 583.201 77.55 583.201 77.718C583.201 77.8627 583.266 77.97 583.397 78.04C583.532 78.1053 583.707 78.152 583.922 78.18C584.141 78.208 584.389 78.2267 584.664 78.236C584.939 78.2407 585.222 78.2547 585.511 78.278C585.8 78.3013 586.083 78.3433 586.358 78.404C586.633 78.46 586.878 78.551 587.093 78.677C587.312 78.803 587.487 78.9757 587.618 79.195C587.753 79.4097 587.821 79.6873 587.821 80.028C587.821 80.3453 587.742 80.6533 587.583 80.952C587.429 81.2507 587.203 81.5167 586.904 81.75C586.61 81.9833 586.248 82.17 585.819 82.31C585.39 82.4547 584.9 82.527 584.349 82.527C583.803 82.527 583.329 82.4733 582.928 82.366C582.527 82.2633 582.193 82.1233 581.927 81.946C581.666 81.7733 581.47 81.5727 581.339 81.344C581.208 81.1153 581.143 80.8773 581.143 80.63C581.143 80.294 581.246 80.0117 581.451 79.783C581.656 79.5543 581.941 79.3723 582.305 79.237C582.128 79.139 581.985 79.0083 581.878 78.845C581.771 78.6817 581.717 78.4693 581.717 78.208C581.717 78.1007 581.736 77.991 581.773 77.879C581.81 77.7623 581.866 77.648 581.941 77.536C582.02 77.424 582.118 77.319 582.235 77.221C582.352 77.1183 582.489 77.0273 582.648 76.948C582.284 76.752 581.997 76.4907 581.787 76.164C581.582 75.8373 581.479 75.4547 581.479 75.016C581.479 74.6613 581.549 74.3417 581.689 74.057C581.834 73.7677 582.032 73.5227 582.284 73.322C582.541 73.1167 582.842 72.9603 583.187 72.853C583.537 72.7457 583.917 72.692 584.328 72.692ZM586.225 80.322C586.225 80.182 586.183 80.0677 586.099 79.979C586.015 79.8903 585.901 79.8227 585.756 79.776C585.611 79.7247 585.441 79.6873 585.245 79.664C585.054 79.6407 584.848 79.6243 584.629 79.615C584.414 79.601 584.19 79.5893 583.957 79.58C583.728 79.566 583.507 79.545 583.292 79.517C583.096 79.6243 582.937 79.7527 582.816 79.902C582.699 80.0467 582.641 80.2147 582.641 80.406C582.641 80.532 582.671 80.6487 582.732 80.756C582.797 80.868 582.898 80.9637 583.033 81.043C583.173 81.1223 583.353 81.183 583.572 81.225C583.791 81.2717 584.06 81.295 584.377 81.295C584.699 81.295 584.977 81.2693 585.21 81.218C585.443 81.1713 585.635 81.1037 585.784 81.015C585.938 80.931 586.05 80.8283 586.12 80.707C586.19 80.5903 586.225 80.462 586.225 80.322ZM584.328 76.234C584.543 76.234 584.729 76.206 584.888 76.15C585.047 76.0893 585.177 76.0077 585.28 75.905C585.387 75.8023 585.467 75.6787 585.518 75.534C585.574 75.3893 585.602 75.2307 585.602 75.058C585.602 74.7033 585.495 74.4233 585.28 74.218C585.07 74.008 584.753 73.903 584.328 73.903C583.903 73.903 583.584 74.008 583.369 74.218C583.159 74.4233 583.054 74.7033 583.054 75.058C583.054 75.226 583.08 75.3823 583.131 75.527C583.187 75.6717 583.266 75.7977 583.369 75.905C583.476 76.0077 583.609 76.0893 583.768 76.15C583.931 76.206 584.118 76.234 584.328 76.234Z" fill="#515359"/>
<path d="M695.715 74.939C695.715 75.3917 695.669 75.8257 695.575 76.241C695.482 76.6517 695.347 77.0367 695.169 77.396C694.997 77.7553 694.784 78.0867 694.532 78.39C694.28 78.6887 693.993 78.9523 693.671 79.181L696.24 81.981H694.686C694.462 81.981 694.259 81.9507 694.077 81.89C693.9 81.8293 693.737 81.7173 693.587 81.554L692.103 79.916C691.865 79.9813 691.62 80.0303 691.368 80.063C691.121 80.0957 690.862 80.112 690.591 80.112C689.826 80.112 689.126 79.9837 688.491 79.727C687.861 79.4657 687.32 79.104 686.867 78.642C686.419 78.18 686.072 77.634 685.824 77.004C685.577 76.3693 685.453 75.681 685.453 74.939C685.453 74.197 685.577 73.511 685.824 72.881C686.072 72.2463 686.419 71.698 686.867 71.236C687.32 70.774 687.861 70.4147 688.491 70.158C689.126 69.8967 689.826 69.766 690.591 69.766C691.357 69.766 692.054 69.8967 692.684 70.158C693.314 70.4193 693.853 70.781 694.301 71.243C694.749 71.7003 695.097 72.2463 695.344 72.881C695.592 73.511 695.715 74.197 695.715 74.939ZM693.783 74.939C693.783 74.3837 693.709 73.8867 693.559 73.448C693.415 73.0047 693.205 72.629 692.929 72.321C692.654 72.013 692.318 71.7773 691.921 71.614C691.529 71.4507 691.086 71.369 690.591 71.369C690.097 71.369 689.651 71.4507 689.254 71.614C688.858 71.7773 688.519 72.013 688.239 72.321C687.964 72.629 687.752 73.0047 687.602 73.448C687.453 73.8867 687.378 74.3837 687.378 74.939C687.378 75.4943 687.453 75.9937 687.602 76.437C687.752 76.8757 687.964 77.249 688.239 77.557C688.519 77.8603 688.858 78.0937 689.254 78.257C689.651 78.4203 690.097 78.502 690.591 78.502C691.086 78.502 691.529 78.4203 691.921 78.257C692.318 78.0937 692.654 77.8603 692.929 77.557C693.205 77.249 693.415 76.8757 693.559 76.437C693.709 75.9937 693.783 75.4943 693.783 74.939ZM698.688 72.818V77.382C698.688 77.8207 698.788 78.1613 698.989 78.404C699.194 78.642 699.5 78.761 699.906 78.761C700.204 78.761 700.484 78.6957 700.746 78.565C701.007 78.4297 701.254 78.2453 701.488 78.012V72.818H703.217V80H702.16C701.936 80 701.789 79.895 701.719 79.685L701.6 79.111C701.45 79.2603 701.296 79.398 701.138 79.524C700.979 79.6453 700.809 79.7503 700.627 79.839C700.449 79.923 700.256 79.9883 700.046 80.035C699.84 80.0863 699.619 80.112 699.381 80.112C698.989 80.112 698.641 80.0467 698.338 79.916C698.039 79.7807 697.787 79.5917 697.582 79.349C697.376 79.1063 697.22 78.8193 697.113 78.488C697.01 78.152 696.959 77.7833 696.959 77.382V72.818H698.688ZM710.691 80H709.914C709.75 80 709.622 79.9767 709.529 79.93C709.435 79.8787 709.365 79.7783 709.319 79.629L709.165 79.118C708.983 79.2813 708.803 79.426 708.626 79.552C708.453 79.6733 708.273 79.776 708.087 79.86C707.9 79.944 707.702 80.007 707.492 80.049C707.282 80.091 707.048 80.112 706.792 80.112C706.488 80.112 706.208 80.0723 705.952 79.993C705.695 79.909 705.473 79.7853 705.287 79.622C705.105 79.4587 704.962 79.2557 704.86 79.013C704.757 78.7703 704.706 78.488 704.706 78.166C704.706 77.8953 704.776 77.6293 704.916 77.368C705.06 77.102 705.298 76.864 705.63 76.654C705.961 76.4393 706.402 76.262 706.953 76.122C707.503 75.982 708.187 75.9027 709.004 75.884V75.464C709.004 74.9833 708.901 74.6287 708.696 74.4C708.495 74.1667 708.201 74.05 707.814 74.05C707.534 74.05 707.3 74.0827 707.114 74.148C706.927 74.2133 706.764 74.288 706.624 74.372C706.488 74.4513 706.362 74.5237 706.246 74.589C706.129 74.6543 706.001 74.687 705.861 74.687C705.744 74.687 705.644 74.6567 705.56 74.596C705.476 74.5353 705.408 74.4607 705.357 74.372L705.042 73.819C705.868 73.063 706.864 72.685 708.031 72.685C708.451 72.685 708.824 72.755 709.151 72.895C709.482 73.0303 709.762 73.2217 709.991 73.469C710.219 73.7117 710.392 74.0033 710.509 74.344C710.63 74.6847 710.691 75.058 710.691 75.464V80ZM707.331 78.922C707.508 78.922 707.671 78.9057 707.821 78.873C707.97 78.8403 708.11 78.7913 708.241 78.726C708.376 78.6607 708.504 78.5813 708.626 78.488C708.752 78.39 708.878 78.2757 709.004 78.145V76.934C708.5 76.9573 708.077 77.0017 707.737 77.067C707.401 77.1277 707.13 77.207 706.925 77.305C706.719 77.403 706.572 77.5173 706.484 77.648C706.4 77.7787 706.358 77.921 706.358 78.075C706.358 78.3783 706.446 78.5953 706.624 78.726C706.806 78.8567 707.041 78.922 707.331 78.922ZM712.391 80V72.818H713.448C713.672 72.818 713.819 72.923 713.889 73.133L714.008 73.7C714.152 73.5507 714.304 73.4153 714.463 73.294C714.626 73.1727 714.796 73.0677 714.974 72.979C715.156 72.8903 715.349 72.8227 715.555 72.776C715.76 72.7293 715.984 72.706 716.227 72.706C716.619 72.706 716.966 72.7737 717.27 72.909C717.573 73.0397 717.825 73.2263 718.026 73.469C718.231 73.707 718.385 73.994 718.488 74.33C718.595 74.6613 718.649 75.0277 718.649 75.429V80H716.92V75.429C716.92 74.9903 716.817 74.652 716.612 74.414C716.411 74.1713 716.108 74.05 715.702 74.05C715.403 74.05 715.123 74.1177 714.862 74.253C714.6 74.3883 714.353 74.5727 714.12 74.806V80H712.391ZM722.707 80.112C722.086 80.112 721.608 79.937 721.272 79.587C720.936 79.2323 720.768 78.7447 720.768 78.124V74.113H720.04C719.946 74.113 719.865 74.0827 719.795 74.022C719.729 73.9613 719.697 73.8703 719.697 73.749V73.063L720.852 72.874L721.216 70.914C721.234 70.8207 721.276 70.7483 721.342 70.697C721.412 70.6457 721.498 70.62 721.601 70.62H722.497V72.881H724.387V74.113H722.497V78.005C722.497 78.229 722.553 78.404 722.665 78.53C722.777 78.656 722.926 78.719 723.113 78.719C723.22 78.719 723.309 78.7073 723.379 78.684C723.453 78.656 723.516 78.628 723.568 78.6C723.624 78.572 723.673 78.5463 723.715 78.523C723.757 78.495 723.799 78.481 723.841 78.481C723.892 78.481 723.934 78.495 723.967 78.523C723.999 78.5463 724.034 78.5837 724.072 78.635L724.59 79.475C724.338 79.685 724.048 79.8437 723.722 79.951C723.395 80.0583 723.057 80.112 722.707 80.112ZM727.603 72.818V80H725.874V72.818H727.603ZM727.862 70.725C727.862 70.8743 727.832 71.0143 727.771 71.145C727.71 71.2757 727.629 71.39 727.526 71.488C727.428 71.586 727.311 71.6653 727.176 71.726C727.041 71.782 726.896 71.81 726.742 71.81C726.593 71.81 726.45 71.782 726.315 71.726C726.184 71.6653 726.07 71.586 725.972 71.488C725.874 71.39 725.795 71.2757 725.734 71.145C725.678 71.0143 725.65 70.8743 725.65 70.725C725.65 70.571 725.678 70.4263 725.734 70.291C725.795 70.1557 725.874 70.039 725.972 69.941C726.07 69.843 726.184 69.766 726.315 69.71C726.45 69.6493 726.593 69.619 726.742 69.619C726.896 69.619 727.041 69.6493 727.176 69.71C727.311 69.766 727.428 69.843 727.526 69.941C727.629 70.039 727.71 70.1557 727.771 70.291C727.832 70.4263 727.862 70.571 727.862 70.725ZM729.871 80V74.12L729.248 74.022C729.112 73.9987 729.003 73.952 728.919 73.882C728.839 73.812 728.8 73.714 728.8 73.588V72.881H729.871V72.349C729.871 71.9383 729.931 71.5697 730.053 71.243C730.179 70.9163 730.356 70.6387 730.585 70.41C730.818 70.1813 731.1 70.0063 731.432 69.885C731.763 69.7637 732.136 69.703 732.552 69.703C732.883 69.703 733.191 69.7473 733.476 69.836L733.441 70.704C733.431 70.8393 733.368 70.9233 733.252 70.956C733.135 70.9887 733 71.005 732.846 71.005C732.64 71.005 732.456 71.0283 732.293 71.075C732.134 71.117 731.999 71.194 731.887 71.306C731.775 71.4133 731.688 71.558 731.628 71.74C731.572 71.9173 731.544 72.139 731.544 72.405V72.881H733.413V74.113H731.6V80H729.871ZM737.019 81.974C736.968 82.0953 736.9 82.1863 736.816 82.247C736.737 82.3123 736.613 82.345 736.445 82.345H735.157L736.501 79.468L733.596 72.818H735.108C735.248 72.818 735.355 72.8507 735.43 72.916C735.505 72.9813 735.561 73.056 735.598 73.14L737.131 76.864C737.182 76.9853 737.227 77.1113 737.264 77.242C737.301 77.3727 737.334 77.5033 737.362 77.634C737.399 77.4987 737.439 77.368 737.481 77.242C737.528 77.116 737.577 76.9877 737.628 76.857L739.07 73.14C739.107 73.0467 739.168 72.9697 739.252 72.909C739.341 72.8483 739.439 72.818 739.546 72.818H740.932L737.019 81.974ZM743.777 72.818V80H742.048V72.818H743.777ZM744.036 70.725C744.036 70.8743 744.005 71.0143 743.945 71.145C743.884 71.2757 743.802 71.39 743.7 71.488C743.602 71.586 743.485 71.6653 743.35 71.726C743.214 71.782 743.07 71.81 742.916 71.81C742.766 71.81 742.624 71.782 742.489 71.726C742.358 71.6653 742.244 71.586 742.146 71.488C742.048 71.39 741.968 71.2757 741.908 71.145C741.852 71.0143 741.824 70.8743 741.824 70.725C741.824 70.571 741.852 70.4263 741.908 70.291C741.968 70.1557 742.048 70.039 742.146 69.941C742.244 69.843 742.358 69.766 742.489 69.71C742.624 69.6493 742.766 69.619 742.916 69.619C743.07 69.619 743.214 69.6493 743.35 69.71C743.485 69.766 743.602 69.843 743.7 69.941C743.802 70.039 743.884 70.1557 743.945 70.291C744.005 70.4263 744.036 70.571 744.036 70.725ZM745.736 80V72.818H746.794C747.018 72.818 747.165 72.923 747.235 73.133L747.354 73.7C747.498 73.5507 747.65 73.4153 747.809 73.294C747.972 73.1727 748.142 73.0677 748.32 72.979C748.502 72.8903 748.695 72.8227 748.901 72.776C749.106 72.7293 749.33 72.706 749.573 72.706C749.965 72.706 750.312 72.7737 750.616 72.909C750.919 73.0397 751.171 73.2263 751.372 73.469C751.577 73.707 751.731 73.994 751.834 74.33C751.941 74.6613 751.995 75.0277 751.995 75.429V80H750.266V75.429C750.266 74.9903 750.163 74.652 749.958 74.414C749.757 74.1713 749.454 74.05 749.048 74.05C748.749 74.05 748.469 74.1177 748.208 74.253C747.946 74.3883 747.699 74.5727 747.466 74.806V80H745.736ZM756.179 72.692C756.487 72.692 756.776 72.7247 757.047 72.79C757.317 72.8507 757.565 72.9417 757.789 73.063H759.854V73.707C759.854 73.8143 759.826 73.8983 759.77 73.959C759.714 74.0197 759.618 74.0617 759.483 74.085L758.839 74.204C758.885 74.3253 758.92 74.4537 758.944 74.589C758.972 74.7243 758.986 74.8667 758.986 75.016C758.986 75.3707 758.913 75.6927 758.769 75.982C758.629 76.2667 758.433 76.5093 758.181 76.71C757.933 76.9107 757.637 77.067 757.292 77.179C756.951 77.2863 756.58 77.34 756.179 77.34C755.908 77.34 755.644 77.3143 755.388 77.263C755.164 77.3983 755.052 77.55 755.052 77.718C755.052 77.8627 755.117 77.97 755.248 78.04C755.383 78.1053 755.558 78.152 755.773 78.18C755.992 78.208 756.239 78.2267 756.515 78.236C756.79 78.2407 757.072 78.2547 757.362 78.278C757.651 78.3013 757.933 78.3433 758.209 78.404C758.484 78.46 758.729 78.551 758.944 78.677C759.163 78.803 759.338 78.9757 759.469 79.195C759.604 79.4097 759.672 79.6873 759.672 80.028C759.672 80.3453 759.592 80.6533 759.434 80.952C759.28 81.2507 759.053 81.5167 758.755 81.75C758.461 81.9833 758.099 82.17 757.67 82.31C757.24 82.4547 756.75 82.527 756.2 82.527C755.654 82.527 755.18 82.4733 754.779 82.366C754.377 82.2633 754.044 82.1233 753.778 81.946C753.516 81.7733 753.32 81.5727 753.19 81.344C753.059 81.1153 752.994 80.8773 752.994 80.63C752.994 80.294 753.096 80.0117 753.302 79.783C753.507 79.5543 753.792 79.3723 754.156 79.237C753.978 79.139 753.836 79.0083 753.729 78.845C753.621 78.6817 753.568 78.4693 753.568 78.208C753.568 78.1007 753.586 77.991 753.624 77.879C753.661 77.7623 753.717 77.648 753.792 77.536C753.871 77.424 753.969 77.319 754.086 77.221C754.202 77.1183 754.34 77.0273 754.499 76.948C754.135 76.752 753.848 76.4907 753.638 76.164C753.432 75.8373 753.33 75.4547 753.33 75.016C753.33 74.6613 753.4 74.3417 753.54 74.057C753.684 73.7677 753.883 73.5227 754.135 73.322C754.391 73.1167 754.692 72.9603 755.038 72.853C755.388 72.7457 755.768 72.692 756.179 72.692ZM758.076 80.322C758.076 80.182 758.034 80.0677 757.95 79.979C757.866 79.8903 757.751 79.8227 757.607 79.776C757.462 79.7247 757.292 79.6873 757.096 79.664C756.904 79.6407 756.699 79.6243 756.48 79.615C756.265 79.601 756.041 79.5893 755.808 79.58C755.579 79.566 755.357 79.545 755.143 79.517C754.947 79.6243 754.788 79.7527 754.667 79.902C754.55 80.0467 754.492 80.2147 754.492 80.406C754.492 80.532 754.522 80.6487 754.583 80.756C754.648 80.868 754.748 80.9637 754.884 81.043C755.024 81.1223 755.203 81.183 755.423 81.225C755.642 81.2717 755.91 81.295 756.228 81.295C756.55 81.295 756.827 81.2693 757.061 81.218C757.294 81.1713 757.485 81.1037 757.635 81.015C757.789 80.931 757.901 80.8283 757.971 80.707C758.041 80.5903 758.076 80.462 758.076 80.322ZM756.179 76.234C756.393 76.234 756.58 76.206 756.739 76.15C756.897 76.0893 757.028 76.0077 757.131 75.905C757.238 75.8023 757.317 75.6787 757.369 75.534C757.425 75.3893 757.453 75.2307 757.453 75.058C757.453 74.7033 757.345 74.4233 757.131 74.218C756.921 74.008 756.603 73.903 756.179 73.903C755.754 73.903 755.434 74.008 755.22 74.218C755.01 74.4233 754.905 74.7033 754.905 75.058C754.905 75.226 754.93 75.3823 754.982 75.527C755.038 75.6717 755.117 75.7977 755.22 75.905C755.327 76.0077 755.46 76.0893 755.619 76.15C755.782 76.206 755.969 76.234 756.179 76.234Z" fill="#515359"/>
<path d="M855.059 76.437V80H853.176V69.878H856.473C857.149 69.878 857.735 69.9573 858.23 70.116C858.724 70.2747 859.133 70.4963 859.455 70.781C859.777 71.0657 860.015 71.4063 860.169 71.803C860.323 72.1997 860.4 72.6337 860.4 73.105C860.4 73.595 860.318 74.0453 860.155 74.456C859.991 74.862 859.746 75.212 859.42 75.506C859.093 75.8 858.685 76.0287 858.195 76.192C857.705 76.3553 857.131 76.437 856.473 76.437H855.059ZM855.059 74.967H856.473C856.818 74.967 857.119 74.925 857.376 74.841C857.632 74.7523 857.845 74.6287 858.013 74.47C858.181 74.3067 858.307 74.1107 858.391 73.882C858.475 73.6487 858.517 73.3897 858.517 73.105C858.517 72.8343 858.475 72.5893 858.391 72.37C858.307 72.1507 858.181 71.964 858.013 71.81C857.845 71.656 857.632 71.5393 857.376 71.46C857.119 71.376 856.818 71.334 856.473 71.334H855.059V74.967ZM861.765 80V72.818H862.78C862.957 72.818 863.081 72.8507 863.151 72.916C863.221 72.9813 863.267 73.0933 863.291 73.252L863.396 74.12C863.652 73.6767 863.953 73.3267 864.299 73.07C864.644 72.8133 865.031 72.685 865.461 72.685C865.815 72.685 866.109 72.7667 866.343 72.93L866.119 74.225C866.105 74.309 866.074 74.3697 866.028 74.407C865.981 74.4397 865.918 74.456 865.839 74.456C865.769 74.456 865.673 74.4397 865.552 74.407C865.43 74.3743 865.269 74.358 865.069 74.358C864.709 74.358 864.401 74.4583 864.145 74.659C863.888 74.855 863.671 75.1443 863.494 75.527V80H861.765ZM870.448 72.706C870.9 72.706 871.316 72.7783 871.694 72.923C872.076 73.0677 872.405 73.28 872.681 73.56C872.956 73.8353 873.171 74.176 873.325 74.582C873.479 74.9833 873.556 75.443 873.556 75.961C873.556 76.0917 873.549 76.2013 873.535 76.29C873.525 76.374 873.504 76.4417 873.472 76.493C873.444 76.5397 873.404 76.5747 873.353 76.598C873.301 76.6167 873.236 76.626 873.157 76.626H868.719C868.77 77.3633 868.968 77.9047 869.314 78.25C869.659 78.5953 870.116 78.768 870.686 78.768C870.966 78.768 871.206 78.7353 871.407 78.67C871.612 78.6047 871.789 78.5323 871.939 78.453C872.093 78.3737 872.226 78.3013 872.338 78.236C872.454 78.1707 872.566 78.138 872.674 78.138C872.744 78.138 872.804 78.152 872.856 78.18C872.907 78.208 872.951 78.2477 872.989 78.299L873.493 78.929C873.301 79.153 873.087 79.342 872.849 79.496C872.611 79.6453 872.361 79.7667 872.1 79.86C871.843 79.9487 871.579 80.0117 871.309 80.049C871.043 80.0863 870.784 80.105 870.532 80.105C870.032 80.105 869.568 80.0233 869.139 79.86C868.709 79.692 868.336 79.447 868.019 79.125C867.701 78.7983 867.452 78.397 867.27 77.921C867.088 77.4403 866.997 76.885 866.997 76.255C866.997 75.765 867.076 75.3053 867.235 74.876C867.393 74.442 867.62 74.0663 867.914 73.749C868.212 73.427 868.574 73.1727 868.999 72.986C869.428 72.7993 869.911 72.706 870.448 72.706ZM870.483 73.945C869.979 73.945 869.584 74.0873 869.3 74.372C869.015 74.6567 868.833 75.0603 868.754 75.583H872.002C872.002 75.359 871.971 75.149 871.911 74.953C871.85 74.7523 871.757 74.5773 871.631 74.428C871.505 74.2787 871.346 74.162 871.155 74.078C870.963 73.9893 870.739 73.945 870.483 73.945ZM880.012 80C879.788 80 879.641 79.895 879.571 79.685L879.431 78.992C879.282 79.16 879.126 79.3117 878.962 79.447C878.799 79.5823 878.622 79.699 878.43 79.797C878.244 79.895 878.041 79.9697 877.821 80.021C877.607 80.077 877.373 80.105 877.121 80.105C876.729 80.105 876.37 80.0233 876.043 79.86C875.717 79.6967 875.434 79.461 875.196 79.153C874.963 78.8403 874.781 78.4553 874.65 77.998C874.524 77.5407 874.461 77.018 874.461 76.43C874.461 75.898 874.534 75.4033 874.678 74.946C874.823 74.4887 875.031 74.092 875.301 73.756C875.572 73.42 875.896 73.1587 876.274 72.972C876.652 72.7807 877.077 72.685 877.548 72.685C877.95 72.685 878.293 72.7503 878.577 72.881C878.862 73.007 879.116 73.1773 879.34 73.392V69.598H881.069V80H880.012ZM877.709 78.733C878.069 78.733 878.374 78.6583 878.626 78.509C878.878 78.3597 879.116 78.1473 879.34 77.872V74.652C879.144 74.414 878.93 74.246 878.696 74.148C878.468 74.05 878.22 74.001 877.954 74.001C877.693 74.001 877.455 74.05 877.24 74.148C877.03 74.246 876.851 74.3953 876.701 74.596C876.557 74.792 876.445 75.044 876.365 75.352C876.286 75.6553 876.246 76.0147 876.246 76.43C876.246 76.85 876.279 77.207 876.344 77.501C876.414 77.7903 876.512 78.0283 876.638 78.215C876.764 78.397 876.918 78.53 877.1 78.614C877.282 78.6933 877.485 78.733 877.709 78.733ZM884.784 72.818V80H883.055V72.818H884.784ZM885.043 70.725C885.043 70.8743 885.012 71.0143 884.952 71.145C884.891 71.2757 884.809 71.39 884.707 71.488C884.609 71.586 884.492 71.6653 884.357 71.726C884.221 71.782 884.077 71.81 883.923 71.81C883.773 71.81 883.631 71.782 883.496 71.726C883.365 71.6653 883.251 71.586 883.153 71.488C883.055 71.39 882.975 71.2757 882.915 71.145C882.859 71.0143 882.831 70.8743 882.831 70.725C882.831 70.571 882.859 70.4263 882.915 70.291C882.975 70.1557 883.055 70.039 883.153 69.941C883.251 69.843 883.365 69.766 883.496 69.71C883.631 69.6493 883.773 69.619 883.923 69.619C884.077 69.619 884.221 69.6493 884.357 69.71C884.492 69.766 884.609 69.843 884.707 69.941C884.809 70.039 884.891 70.1557 884.952 70.291C885.012 70.4263 885.043 70.571 885.043 70.725ZM891.79 74.337C891.739 74.4023 891.688 74.4537 891.636 74.491C891.59 74.5283 891.52 74.547 891.426 74.547C891.338 74.547 891.251 74.5213 891.167 74.47C891.083 74.414 890.983 74.3533 890.866 74.288C890.75 74.218 890.61 74.1573 890.446 74.106C890.288 74.05 890.089 74.022 889.851 74.022C889.548 74.022 889.282 74.078 889.053 74.19C888.825 74.2973 888.633 74.4537 888.479 74.659C888.33 74.8643 888.218 75.114 888.143 75.408C888.069 75.6973 888.031 76.0263 888.031 76.395C888.031 76.7777 888.071 77.1183 888.15 77.417C888.234 77.7157 888.353 77.9677 888.507 78.173C888.661 78.3737 888.848 78.5277 889.067 78.635C889.287 78.7377 889.534 78.789 889.809 78.789C890.085 78.789 890.306 78.7563 890.474 78.691C890.647 78.621 890.792 78.5463 890.908 78.467C891.025 78.383 891.125 78.3083 891.209 78.243C891.298 78.173 891.396 78.138 891.503 78.138C891.643 78.138 891.748 78.1917 891.818 78.299L892.315 78.929C892.124 79.153 891.916 79.342 891.692 79.496C891.468 79.6453 891.235 79.7667 890.992 79.86C890.754 79.9487 890.507 80.0117 890.25 80.049C889.994 80.0863 889.739 80.105 889.487 80.105C889.044 80.105 888.626 80.0233 888.234 79.86C887.842 79.692 887.499 79.4493 887.205 79.132C886.916 78.8147 886.685 78.4273 886.512 77.97C886.344 77.508 886.26 76.983 886.26 76.395C886.26 75.8677 886.335 75.38 886.484 74.932C886.638 74.4793 886.862 74.0897 887.156 73.763C887.45 73.4317 887.814 73.1727 888.248 72.986C888.682 72.7993 889.182 72.706 889.746 72.706C890.283 72.706 890.752 72.7923 891.153 72.965C891.559 73.1377 891.923 73.385 892.245 73.707L891.79 74.337ZM895.774 80.112C895.154 80.112 894.675 79.937 894.339 79.587C894.003 79.2323 893.835 78.7447 893.835 78.124V74.113H893.107C893.014 74.113 892.932 74.0827 892.862 74.022C892.797 73.9613 892.764 73.8703 892.764 73.749V73.063L893.919 72.874L894.283 70.914C894.302 70.8207 894.344 70.7483 894.409 70.697C894.479 70.6457 894.566 70.62 894.668 70.62H895.564V72.881H897.454V74.113H895.564V78.005C895.564 78.229 895.62 78.404 895.732 78.53C895.844 78.656 895.994 78.719 896.18 78.719C896.288 78.719 896.376 78.7073 896.446 78.684C896.521 78.656 896.584 78.628 896.635 78.6C896.691 78.572 896.74 78.5463 896.782 78.523C896.824 78.495 896.866 78.481 896.908 78.481C896.96 78.481 897.002 78.495 897.034 78.523C897.067 78.5463 897.102 78.5837 897.139 78.635L897.657 79.475C897.405 79.685 897.116 79.8437 896.789 79.951C896.463 80.0583 896.124 80.112 895.774 80.112ZM900.67 72.818V80H898.941V72.818H900.67ZM900.929 70.725C900.929 70.8743 900.899 71.0143 900.838 71.145C900.778 71.2757 900.696 71.39 900.593 71.488C900.495 71.586 900.379 71.6653 900.243 71.726C900.108 71.782 899.963 71.81 899.809 71.81C899.66 71.81 899.518 71.782 899.382 71.726C899.252 71.6653 899.137 71.586 899.039 71.488C898.941 71.39 898.862 71.2757 898.801 71.145C898.745 71.0143 898.717 70.8743 898.717 70.725C898.717 70.571 898.745 70.4263 898.801 70.291C898.862 70.1557 898.941 70.039 899.039 69.941C899.137 69.843 899.252 69.766 899.382 69.71C899.518 69.6493 899.66 69.619 899.809 69.619C899.963 69.619 900.108 69.6493 900.243 69.71C900.379 69.766 900.495 69.843 900.593 69.941C900.696 70.039 900.778 70.1557 900.838 70.291C900.899 70.4263 900.929 70.571 900.929 70.725ZM902.63 80V72.818H903.687C903.911 72.818 904.058 72.923 904.128 73.133L904.247 73.7C904.392 73.5507 904.543 73.4153 904.702 73.294C904.865 73.1727 905.036 73.0677 905.213 72.979C905.395 72.8903 905.589 72.8227 905.794 72.776C905.999 72.7293 906.223 72.706 906.466 72.706C906.858 72.706 907.206 72.7737 907.509 72.909C907.812 73.0397 908.064 73.2263 908.265 73.469C908.47 73.707 908.624 73.994 908.727 74.33C908.834 74.6613 908.888 75.0277 908.888 75.429V80H907.159V75.429C907.159 74.9903 907.056 74.652 906.851 74.414C906.65 74.1713 906.347 74.05 905.941 74.05C905.642 74.05 905.362 74.1177 905.101 74.253C904.84 74.3883 904.592 74.5727 904.359 74.806V80H902.63ZM913.072 72.692C913.38 72.692 913.669 72.7247 913.94 72.79C914.211 72.8507 914.458 72.9417 914.682 73.063H916.747V73.707C916.747 73.8143 916.719 73.8983 916.663 73.959C916.607 74.0197 916.511 74.0617 916.376 74.085L915.732 74.204C915.779 74.3253 915.814 74.4537 915.837 74.589C915.865 74.7243 915.879 74.8667 915.879 75.016C915.879 75.3707 915.807 75.6927 915.662 75.982C915.522 76.2667 915.326 76.5093 915.074 76.71C914.827 76.9107 914.53 77.067 914.185 77.179C913.844 77.2863 913.473 77.34 913.072 77.34C912.801 77.34 912.538 77.3143 912.281 77.263C912.057 77.3983 911.945 77.55 911.945 77.718C911.945 77.8627 912.01 77.97 912.141 78.04C912.276 78.1053 912.451 78.152 912.666 78.18C912.885 78.208 913.133 78.2267 913.408 78.236C913.683 78.2407 913.966 78.2547 914.255 78.278C914.544 78.3013 914.827 78.3433 915.102 78.404C915.377 78.46 915.622 78.551 915.837 78.677C916.056 78.803 916.231 78.9757 916.362 79.195C916.497 79.4097 916.565 79.6873 916.565 80.028C916.565 80.3453 916.486 80.6533 916.327 80.952C916.173 81.2507 915.947 81.5167 915.648 81.75C915.354 81.9833 914.992 82.17 914.563 82.31C914.134 82.4547 913.644 82.527 913.093 82.527C912.547 82.527 912.073 82.4733 911.672 82.366C911.271 82.2633 910.937 82.1233 910.671 81.946C910.41 81.7733 910.214 81.5727 910.083 81.344C909.952 81.1153 909.887 80.8773 909.887 80.63C909.887 80.294 909.99 80.0117 910.195 79.783C910.4 79.5543 910.685 79.3723 911.049 79.237C910.872 79.139 910.729 79.0083 910.622 78.845C910.515 78.6817 910.461 78.4693 910.461 78.208C910.461 78.1007 910.48 77.991 910.517 77.879C910.554 77.7623 910.61 77.648 910.685 77.536C910.764 77.424 910.862 77.319 910.979 77.221C911.096 77.1183 911.233 77.0273 911.392 76.948C911.028 76.752 910.741 76.4907 910.531 76.164C910.326 75.8373 910.223 75.4547 910.223 75.016C910.223 74.6613 910.293 74.3417 910.433 74.057C910.578 73.7677 910.776 73.5227 911.028 73.322C911.285 73.1167 911.586 72.9603 911.931 72.853C912.281 72.7457 912.661 72.692 913.072 72.692ZM914.969 80.322C914.969 80.182 914.927 80.0677 914.843 79.979C914.759 79.8903 914.645 79.8227 914.5 79.776C914.355 79.7247 914.185 79.6873 913.989 79.664C913.798 79.6407 913.592 79.6243 913.373 79.615C913.158 79.601 912.934 79.5893 912.701 79.58C912.472 79.566 912.251 79.545 912.036 79.517C911.84 79.6243 911.681 79.7527 911.56 79.902C911.443 80.0467 911.385 80.2147 911.385 80.406C911.385 80.532 911.415 80.6487 911.476 80.756C911.541 80.868 911.642 80.9637 911.777 81.043C911.917 81.1223 912.097 81.183 912.316 81.225C912.535 81.2717 912.804 81.295 913.121 81.295C913.443 81.295 913.721 81.2693 913.954 81.218C914.187 81.1713 914.379 81.1037 914.528 81.015C914.682 80.931 914.794 80.8283 914.864 80.707C914.934 80.5903 914.969 80.462 914.969 80.322ZM913.072 76.234C913.287 76.234 913.473 76.206 913.632 76.15C913.791 76.0893 913.921 76.0077 914.024 75.905C914.131 75.8023 914.211 75.6787 914.262 75.534C914.318 75.3893 914.346 75.2307 914.346 75.058C914.346 74.7033 914.239 74.4233 914.024 74.218C913.814 74.008 913.497 73.903 913.072 73.903C912.647 73.903 912.328 74.008 912.113 74.218C911.903 74.4233 911.798 74.7033 911.798 75.058C911.798 75.226 911.824 75.3823 911.875 75.527C911.931 75.6717 912.01 75.7977 912.113 75.905C912.22 76.0077 912.353 76.0893 912.512 76.15C912.675 76.206 912.862 76.234 913.072 76.234Z" fill="#515359"/>
<path d="M140.21 75.0949C140.21 39.132 111.074 10 75.1051 10C39.1366 10 10.0001 39.132 10.0001 75.0949" stroke="url(#paint0_linear)" stroke-width="20" stroke-miterlimit="10" stroke-linecap="round" stroke-linejoin="round"/>
<path d="M140.21 76.7992C140.21 112.762 111.074 141.894 75.1051 141.894C39.1366 141.894 10.0001 112.762 10.0001 76.7992" stroke="url(#paint1_linear)" stroke-width="20" stroke-miterlimit="10" stroke-linecap="round" stroke-linejoin="round"/>
<path d="M172 75.449C172 111.412 201.137 140.544 237.105 140.544C273.073 140.544 302.21 111.412 302.21 75.449" stroke="url(#paint2_linear)" stroke-width="20" stroke-miterlimit="10" stroke-linecap="round" stroke-linejoin="round"/>
<path d="M172 77.095C172 41.1321 201.137 12.0001 237.105 12.0001C273.073 12.0001 302.21 41.1321 302.21 77.095" stroke="url(#paint3_linear)" stroke-width="20" stroke-miterlimit="10" stroke-linecap="round" stroke-linejoin="round"/>
<path d="M464.21 75.0949C464.21 39.132 435.074 10 399.105 10C363.137 10 334 39.132 334 75.0949" stroke="url(#paint4_linear)" stroke-width="20" stroke-miterlimit="10" stroke-linecap="round" stroke-linejoin="round"/>
<path d="M464.21 76.7404C464.21 112.703 435.074 141.835 399.105 141.835C363.137 141.835 334 112.703 334 76.7404" stroke="url(#paint5_linear)" stroke-width="20" stroke-miterlimit="10" stroke-linecap="round" stroke-linejoin="round"/>
<path d="M496 75.449C496 111.412 525.137 140.544 561.105 140.544C597.073 140.544 626.21 111.412 626.21 75.449" stroke="url(#paint6_linear)" stroke-width="20" stroke-miterlimit="10" stroke-linecap="round" stroke-linejoin="round"/>
<path d="M496 77.095C496 41.1321 525.137 12.0001 561.105 12.0001C597.073 12.0001 626.21 41.1321 626.21 77.095" stroke="url(#paint7_linear)" stroke-width="20" stroke-miterlimit="10" stroke-linecap="round" stroke-linejoin="round"/>
<path d="M820 76.9052C820 112.868 849.137 142 885.105 142C921.073 142 950.21 112.868 950.21 76.9052" stroke="url(#paint8_linear)" stroke-width="20" stroke-miterlimit="10" stroke-linecap="round" stroke-linejoin="round"/>
<path d="M820 75.095C820 39.1321 849.137 10.0001 885.105 10.0001C921.073 10.0001 950.21 39.1321 950.21 75.095" stroke="url(#paint9_linear)" stroke-width="20" stroke-miterlimit="10" stroke-linecap="round" stroke-linejoin="round"/>
<path d="M788.21 75.0949C788.21 39.132 759.073 10 723.105 10C687.137 10 658 39.132 658 75.0949" stroke="url(#paint10_linear)" stroke-width="20" stroke-miterlimit="10" stroke-linecap="round" stroke-linejoin="round"/>
<path d="M788.21 76.7404C788.21 112.703 759.073 141.835 723.105 141.835C687.137 141.835 658 112.703 658 76.7404" stroke="url(#paint11_linear)" stroke-width="20" stroke-miterlimit="10" stroke-linecap="round" stroke-linejoin="round"/>
<path d="M884 197.667L884 173" stroke="#BBBBBC" stroke-width="2"/>
<path d="M74 198.009L74 173.343" stroke="#BBBBBC" stroke-width="2"/>
<path d="M236 197.667L236 173" stroke="#BBBBBC" stroke-width="2"/>
<path d="M477 237L477 199" stroke="#BBBBBC" stroke-width="2"/>
<path d="M398 197.667L398 173" stroke="#BBBBBC" stroke-width="2"/>
<path d="M560 197.667L560 173" stroke="#BBBBBC" stroke-width="2"/>
<path d="M723 197.667L723 173" stroke="#BBBBBC" stroke-width="2"/>
<path d="M884 197.667L74 197.667" stroke="#BBBBBC" stroke-width="2"/>
<circle r="3.5" transform="matrix(1 -8.74228e-08 -8.74228e-08 -1 74 174)" fill="#BBBBBC" stroke="#BBBBBC"/>
<circle r="3.5" transform="matrix(1 -8.74228e-08 -8.74228e-08 -1 236 174)" fill="#BBBBBC" stroke="#BBBBBC"/>
<circle r="3.5" transform="matrix(1 -8.74228e-08 -8.74228e-08 -1 398 174)" fill="#BBBBBC" stroke="#BBBBBC"/>
<circle r="3.5" transform="matrix(1 -8.74228e-08 -8.74228e-08 -1 560 174)" fill="#BBBBBC" stroke="#BBBBBC"/>
<circle r="3.5" transform="matrix(1 -8.74228e-08 -8.74228e-08 -1 723 174)" fill="#BBBBBC" stroke="#BBBBBC"/>
<circle r="3.5" transform="matrix(1 -8.74228e-08 -8.74228e-08 -1 884 173)" fill="#BBBBBC" stroke="#BBBBBC"/>
<path d="M490.417 230H463L476.03 244L490.417 230Z" fill="#407BA0"/>
<defs>
<linearGradient id="paint0_linear" x1="140.562" y1="74.5926" x2="9.94985" y2="74.5926" gradientUnits="userSpaceOnUse">
<stop stop-color="#5171C0"/>
<stop offset="1" stop-color="#47337D"/>
</linearGradient>
<linearGradient id="paint1_linear" x1="140.562" y1="77.3014" x2="9.94985" y2="77.3014" gradientUnits="userSpaceOnUse">
<stop stop-color="#5171C0" stop-opacity="0.5"/>
<stop offset="1" stop-color="#47337D"/>
</linearGradient>
<linearGradient id="paint2_linear" x1="301.959" y1="140.242" x2="172.352" y2="140.242" gradientUnits="userSpaceOnUse">
<stop stop-color="#407BA0"/>
<stop offset="1" stop-color="#5171C0"/>
</linearGradient>
<linearGradient id="paint3_linear" x1="301.959" y1="12.3015" x2="172.352" y2="12.3015" gradientUnits="userSpaceOnUse">
<stop stop-color="#407BA0"/>
<stop offset="1" stop-color="#5171C0" stop-opacity="0.5"/>
</linearGradient>
<linearGradient id="paint4_linear" x1="457.328" y1="74.5926" x2="333.749" y2="74.5926" gradientUnits="userSpaceOnUse">
<stop stop-color="#1C76AF"/>
<stop offset="1" stop-color="#407BA0"/>
</linearGradient>
<linearGradient id="paint5_linear" x1="457.328" y1="77.2427" x2="333.749" y2="77.2427" gradientUnits="userSpaceOnUse">
<stop stop-color="#1C76AF" stop-opacity="0.5"/>
<stop offset="1" stop-color="#407BA0"/>
</linearGradient>
<linearGradient id="paint6_linear" x1="625.758" y1="140.242" x2="496.151" y2="140.242" gradientUnits="userSpaceOnUse">
<stop stop-color="#5BB0B5"/>
<stop offset="1" stop-color="#1C76AF"/>
</linearGradient>
<linearGradient id="paint7_linear" x1="625.758" y1="12.3015" x2="496.151" y2="12.3014" gradientUnits="userSpaceOnUse">
<stop stop-color="#5BB0B5"/>
<stop offset="1" stop-color="#1C76AF" stop-opacity="0.5"/>
</linearGradient>
<linearGradient id="paint8_linear" x1="949.758" y1="141.699" x2="820.151" y2="141.699" gradientUnits="userSpaceOnUse">
<stop stop-color="#58A158"/>
<stop offset="1" stop-color="#109488"/>
</linearGradient>
<linearGradient id="paint9_linear" x1="949.758" y1="10.3015" x2="820.151" y2="10.3014" gradientUnits="userSpaceOnUse">
<stop stop-color="#58A158"/>
<stop offset="1" stop-color="#109488" stop-opacity="0.5"/>
</linearGradient>
<linearGradient id="paint10_linear" x1="788.26" y1="10.3014" x2="657.648" y2="10.3014" gradientUnits="userSpaceOnUse">
<stop stop-color="#109488"/>
<stop offset="1" stop-color="#5BB0B5"/>
</linearGradient>
<linearGradient id="paint11_linear" x1="788.26" y1="141.534" x2="657.648" y2="141.534" gradientUnits="userSpaceOnUse">
<stop stop-color="#109488" stop-opacity="0.5"/>
<stop offset="1" stop-color="#5BB0B5"/>
</linearGradient>
</defs>
</svg>
