<svg width="40" height="40" viewBox="0 0 40 40" fill="none" xmlns="http://www.w3.org/2000/svg">
<circle cx="19.5588" cy="19.5588" r="19.5588" fill="#5BB0B5"/>
<mask id="mask0" mask-type="alpha" maskUnits="userSpaceOnUse" x="3" y="8" width="30" height="31">
<path d="M32.5043 31.5001C32.5345 30.9556 32.2018 30.3507 31.4457 30.2902C30.9012 30.26 29.7519 30.8649 29.4494 31.0161C28.3303 31.5606 26.818 32.4377 25.7896 33.1334C25.7291 33.1939 25.6383 33.2544 25.5476 33.2846C25.0939 33.5871 24.61 33.7686 24.0958 33.8895C21.1619 34.5247 16.8971 34.5852 16.8971 34.5852H16.6551C16.4736 34.5852 16.2922 34.4642 16.2619 34.2827C16.2317 34.071 16.3829 33.8895 16.5946 33.8895L22.9464 33.2846C23.6421 33.1939 24.2168 32.5587 24.126 31.8328C24.0655 31.1069 23.3699 30.5624 22.6742 30.6229L17.0181 30.5624C16.6249 30.5624 16.02 30.4717 15.657 30.3507C12.0274 29.2921 9.97065 30.2902 8.88178 30.7439C8.6398 30.3507 8.18611 30.0785 7.67192 30.1087L5.22195 30.26C4.40529 30.3205 3.80036 30.9859 3.86086 31.7723L4.25406 37.1864C4.31456 37.9728 5.01022 38.5475 5.82688 38.487L8.27685 38.3358C8.79104 38.3055 9.21449 37.9728 9.39597 37.5494L20.1032 38.0031C21.2828 38.124 22.402 37.9728 23.4606 37.4284L23.7631 37.2771L31.8389 32.5587C32.2018 32.347 32.4741 31.9538 32.5043 31.5001ZM6.70403 37.2469C6.25033 37.2469 5.88737 36.8839 5.88737 36.4605C5.88737 36.037 6.25033 35.6741 6.70403 35.6741C7.15773 35.6741 7.52068 36.037 7.52068 36.4605C7.52068 36.8839 7.15773 37.2469 6.70403 37.2469ZM25.4266 32.1655C25.4266 32.0143 25.4266 31.863 25.4266 31.7118C25.3964 31.5303 25.3661 31.3488 25.3056 31.1674V31.1371C26.1525 30.6834 27.8161 29.8668 28.7537 29.5038C29.2074 29.3223 29.6611 29.3223 30.0846 29.6248C29.7519 29.7458 29.4494 29.897 29.1772 30.018C28.2093 30.5019 26.5457 31.4093 25.6988 31.984C25.5778 32.0445 25.4871 32.105 25.4266 32.1655ZM24.1865 29.776C24.7309 29.4735 26.0013 29.0803 26.5457 28.8384C26.9994 28.6569 27.4531 28.6569 27.8463 28.9291C27.1809 29.2316 25.9106 29.655 25.3056 29.9877L24.9124 30.1995C24.8822 30.2297 24.8519 30.26 24.7914 30.26C24.6402 30.1087 24.3982 29.9272 24.1865 29.776ZM21.0409 25.6625C21.3433 25.6927 21.5853 25.9347 21.5853 26.2372V26.8119C21.5853 27.2656 21.2526 27.6588 20.7989 27.7192L20.6477 28.2334C20.5569 28.5057 20.315 28.7174 20.0125 28.7174H18.5909C18.2884 28.7174 18.0162 28.5057 17.9557 28.2334L17.8045 27.7192C17.3508 27.6588 17.0181 27.2656 17.0181 26.8119V26.2372C17.0181 25.9347 17.2601 25.6625 17.5928 25.6625H21.0409ZM14.6891 22.9705C14.9008 23.1823 14.9008 23.5452 14.6891 23.757L13.328 25.1483C13.2373 25.239 13.086 25.2995 12.9348 25.2995C12.7836 25.2995 12.6626 25.239 12.5416 25.1483C12.3299 24.9366 12.3299 24.5736 12.5416 24.3619L13.9329 22.9705C14.1447 22.7588 14.5076 22.7588 14.6891 22.9705ZM14.3866 18.4336C14.4169 19.7342 14.9311 20.9138 15.778 21.7909C16.4132 22.4564 16.8669 23.3335 16.9878 24.2409C17.0483 24.6341 17.381 24.9366 17.8045 24.9366H20.8594C21.2526 24.9366 21.6156 24.6341 21.676 24.2409C21.8273 23.3033 22.2507 22.4564 22.8859 21.7909C23.7328 20.9138 24.2772 19.7039 24.2772 18.3731C24.2772 15.6509 22.0693 13.4429 19.2866 13.4731C16.5341 13.4731 14.3564 15.6811 14.3866 18.4336ZM19.3168 14.8645C19.6193 14.8645 19.8613 15.1065 19.8613 15.4089C19.8613 15.7114 19.6193 15.9534 19.2866 15.9836C17.9557 15.9836 16.8366 17.0725 16.8366 18.4336C16.8366 18.736 16.5946 18.978 16.2922 18.978C15.9897 18.978 15.7477 18.736 15.7477 18.4336C15.778 16.4373 17.381 14.8645 19.3168 14.8645ZM28.8747 18.3731C28.8747 18.6755 28.6327 18.9175 28.3303 18.9175H26.3945C26.092 18.9175 25.8501 18.6755 25.8501 18.3731C25.8501 18.0706 26.092 17.8286 26.3945 17.8286H28.3303C28.663 17.8286 28.905 18.0706 28.8747 18.3731ZM26.092 11.5979C26.3038 11.8096 26.3038 12.1725 26.092 12.3843L24.7007 13.7756C24.61 13.8664 24.4587 13.9268 24.3075 13.9268C24.1563 13.9268 24.0353 13.8664 23.9143 13.7756C23.7026 13.5639 23.7026 13.2009 23.9143 12.9892L25.3056 11.5979C25.5476 11.3559 25.8803 11.3559 26.092 11.5979ZM12.2694 17.8286C12.5719 17.8286 12.8138 18.0706 12.8138 18.3731C12.8138 18.6755 12.5416 18.9175 12.2694 18.9175H10.3034C10.0009 18.9175 9.75893 18.6755 9.75893 18.3731C9.75893 18.0706 10.0009 17.8286 10.3034 17.8286H12.2694ZM14.6891 12.959C14.9008 13.1707 14.9008 13.5336 14.6891 13.7454C14.5984 13.8361 14.4471 13.8966 14.2959 13.8966C14.1447 13.8966 14.0237 13.8361 13.9027 13.7454L12.5114 12.354C12.2996 12.1423 12.2996 11.7793 12.5114 11.5676C12.7231 11.3559 13.086 11.3559 13.2978 11.5676L14.6891 12.959ZM25.6988 25.2995C25.5476 25.2995 25.4266 25.239 25.3056 25.1483L23.9143 23.757C23.7026 23.5452 23.7026 23.1823 23.9143 22.9705C24.126 22.7588 24.489 22.7588 24.7007 22.9705L26.0618 24.3619C26.2735 24.5736 26.2735 24.9366 26.0618 25.1483C25.9711 25.239 25.8501 25.2995 25.6988 25.2995ZM19.3168 11.8398C19.0144 11.8398 18.7724 11.5979 18.7724 11.2954V9.35962C18.7724 9.05716 19.0144 8.81519 19.3168 8.81519C19.6193 8.81519 19.8613 9.05716 19.8613 9.35962V11.2954C19.8613 11.5979 19.6193 11.8398 19.3168 11.8398Z" fill="white"/>
</mask>
<g mask="url(#mask0)">
<rect x="4.51611" y="7.49622" width="29.0167" height="21.1031" fill="white"/>
</g>
</svg>
