<svg width="40" height="40" viewBox="0 0 40 40" fill="none" xmlns="http://www.w3.org/2000/svg">
<circle cx="19.5588" cy="19.5588" r="19.5588" fill="#5BB0B5"/>
<path d="M20.3777 10.5485C20.129 10.3572 19.7846 10.5293 19.7846 10.8354V11.6772H16.2838C16.0925 11.6772 15.9395 11.8302 15.9395 12.0215V13.2458C15.9395 13.4371 16.0925 13.5902 16.2838 13.5902H19.7846V14.4319C19.7846 14.738 20.1481 14.9102 20.3777 14.7189L22.6542 12.9206C22.8455 12.7676 22.8455 12.4998 22.6542 12.3467L20.3777 10.5485Z" fill="white"/>
<path d="M13.7779 10.6641H11.0997C10.7553 10.6641 10.4684 10.951 10.4684 11.2954V13.9736C10.4684 14.318 10.7553 14.6049 11.0997 14.6049H13.7779C14.1223 14.6049 14.4092 14.318 14.4092 13.9736V11.2954C14.4092 10.951 14.1223 10.6641 13.7779 10.6641Z" fill="white"/>
<path d="M24.9499 14.6041H27.6281C27.9725 14.6041 28.2594 14.3171 28.2594 13.9728V11.2945C28.2594 10.9502 27.9725 10.6632 27.6281 10.6632H24.9499C24.6056 10.6632 24.3186 10.9502 24.3186 11.2945V13.9728C24.3186 14.3171 24.6056 14.6041 24.9499 14.6041Z" fill="white"/>
<path d="M22.4439 25.5275H18.9431V24.6858C18.9431 24.3797 18.5796 24.2075 18.35 24.3988L16.0735 26.1971C15.8822 26.3501 15.8822 26.6179 16.0735 26.771L18.35 28.5692C18.5987 28.7605 18.9431 28.5883 18.9431 28.2823V27.4405H22.4439C22.6352 27.4405 22.7883 27.2875 22.7883 27.0962V25.8718C22.7691 25.6805 22.6352 25.5275 22.4439 25.5275Z" fill="white"/>
<path d="M27.6281 24.5135H24.9499C24.6056 24.5135 24.3186 24.8005 24.3186 25.1448V27.8231C24.3186 28.1674 24.6056 28.4544 24.9499 28.4544H27.6281C27.9725 28.4544 28.2594 28.1674 28.2594 27.8231V25.1448C28.2403 24.8005 27.9725 24.5135 27.6281 24.5135Z" fill="white"/>
<path d="M13.7777 24.5135H11.0994C10.7551 24.5135 10.4681 24.8005 10.4681 25.1448V27.8231C10.4681 28.1674 10.7551 28.4544 11.0994 28.4544H13.7777C14.122 28.4544 14.409 28.1674 14.409 27.8231V25.1448C14.409 24.8005 14.122 24.5135 13.7777 24.5135Z" fill="white"/>
<path d="M28.0871 19.9797H27.2453V16.4789C27.2453 16.2876 27.0923 16.1345 26.901 16.1345H25.6767C25.4853 16.1345 25.3323 16.2876 25.3323 16.4789V19.9797H24.4906C24.1845 19.9797 24.0123 20.3432 24.2036 20.5728L26.0019 22.8493C26.1549 23.0406 26.4227 23.0406 26.5758 22.8493L28.374 20.5728C28.5653 20.3241 28.3932 19.9797 28.0871 19.9797Z" fill="white"/>
</svg>
