<svg width="40" height="40" viewBox="0 0 40 40" fill="none" xmlns="http://www.w3.org/2000/svg">
<circle cx="19.5588" cy="19.5588" r="19.5588" fill="#5BB0B5"/>
<path d="M24.1724 22.4692C24.1724 21.2415 23.4738 20.0985 22.352 19.5905C21.971 19.4 21.5476 19.2518 21.082 19.1036C20.1083 19.7387 18.9864 20.1197 17.7587 20.1197C16.531 20.1197 15.388 19.7387 14.4355 19.1036C13.9909 19.2518 13.5676 19.4 13.1654 19.5905C12.0647 20.1197 11.3662 21.2415 11.3662 22.4692V25.7713C11.3662 26.3852 11.8531 26.8932 12.4669 26.8932H22.3943C22.4578 26.7027 22.5425 26.5122 22.6483 26.3428L24.1724 23.9086V22.4692Z" fill="white"/>
<path d="M17.7798 18.257C20.0828 18.257 21.9497 16.39 21.9497 14.0871C21.9497 11.7841 20.0828 9.91711 17.7798 9.91711C15.4768 9.91711 13.6099 11.7841 13.6099 14.0871C13.6099 16.39 15.4768 18.257 17.7798 18.257Z" fill="white"/>
<path d="M31.2636 27.1049L29.1257 23.6547C29.0834 23.57 29.0622 23.4853 29.0622 23.4007V21.7496H29.1257C29.3797 21.7496 29.5702 21.5591 29.5702 21.3051C29.5702 21.0511 29.3797 20.8606 29.1257 20.8606H25.993C25.739 20.8606 25.5484 21.0511 25.5484 21.3051C25.5484 21.5591 25.739 21.7496 25.993 21.7496H26.0565V23.4007C26.0565 23.4853 26.0353 23.57 25.993 23.6547L23.8551 27.1049C23.5799 27.5283 23.5799 28.0574 23.8127 28.502C24.0667 28.9465 24.5113 29.2005 25.0193 29.2005H30.0994C30.6074 29.2005 31.0519 28.9465 31.3059 28.502C31.5388 28.0363 31.5388 27.5283 31.2636 27.1049ZM27.1572 25.5809C26.6703 25.7502 26.1835 25.8137 25.739 25.7714L26.755 24.1415C26.882 23.9298 26.9666 23.6758 26.9666 23.4218V21.7708H28.1732V23.4218C28.1732 23.6758 28.2367 23.9298 28.3849 24.1415L29.2527 25.5597C28.6177 25.3269 27.898 25.3057 27.1572 25.5809Z" fill="white"/>
<path d="M27.5593 19.654C27.8133 19.654 28.0038 19.4635 28.0038 19.2095V18.257C28.0038 18.003 27.8133 17.8125 27.5593 17.8125C27.3053 17.8125 27.1147 18.003 27.1147 18.257V19.2095C27.1147 19.4635 27.3053 19.654 27.5593 19.654Z" fill="white"/>
<path d="M29.02 20.2679C29.1258 20.2679 29.2528 20.2256 29.3375 20.1409L30.0148 19.4636C30.1841 19.2942 30.1841 18.9979 30.0148 18.8285C29.8455 18.6592 29.5491 18.6592 29.3798 18.8285L28.7024 19.5059C28.5331 19.6752 28.5331 19.9716 28.7024 20.1409C28.7871 20.2256 28.8929 20.2679 29.02 20.2679Z" fill="white"/>
<path d="M25.7812 20.1197C25.8658 20.2043 25.9928 20.2467 26.0987 20.2467C26.2045 20.2467 26.3315 20.2043 26.4162 20.1197C26.5855 19.9503 26.5855 19.654 26.4162 19.4847L25.7388 18.8073C25.5695 18.638 25.2731 18.638 25.1038 18.8073C24.9345 18.9766 24.9345 19.273 25.1038 19.4423L25.7812 20.1197Z" fill="white"/>
</svg>
