<svg width="68" height="46" viewBox="0 0 68 46" fill="none" xmlns="http://www.w3.org/2000/svg">
<path d="M4.8797 39.129C4.85564 39.1857 4.81674 39.2345 4.76734 39.2698C4.72128 39.2983 4.66827 39.3127 4.61453 39.3114C4.54365 39.3075 4.4752 39.2835 4.41677 39.2421C4.34337 39.196 4.25647 39.1436 4.1561 39.0852C4.04406 39.0221 3.92673 38.9696 3.80553 38.9282C3.6522 38.8787 3.49204 38.8553 3.33136 38.8589C3.18612 38.8558 3.04129 38.876 2.90214 38.9189C2.78962 38.9546 2.68501 39.0127 2.59427 39.0898C2.51362 39.1573 2.44969 39.2436 2.40775 39.3414C2.36622 39.447 2.34559 39.56 2.34708 39.6738C2.34231 39.8137 2.38702 39.9507 2.47292 40.0593C2.5654 40.1692 2.67853 40.2587 2.80551 40.3225C2.95738 40.4003 3.11522 40.4652 3.27743 40.5164C3.45421 40.5733 3.63399 40.6341 3.81677 40.6988C4.00059 40.7653 4.18065 40.8424 4.3561 40.9296C4.52867 41.0127 4.68782 41.1225 4.82802 41.2551C4.96949 41.3912 5.08263 41.5553 5.16061 41.7376C5.24998 41.9566 5.29288 42.1927 5.28645 42.4301C5.28836 42.7143 5.23804 42.9962 5.13813 43.2612C5.04245 43.5147 4.89538 43.7445 4.70667 43.9353C4.50864 44.1367 4.27223 44.2938 4.01227 44.397C3.71208 44.5124 3.39342 44.5688 3.07293 44.5632C2.87148 44.5637 2.67049 44.5436 2.47292 44.5031C2.27923 44.463 2.08964 44.4042 1.90662 44.3277C1.72914 44.254 1.55904 44.1628 1.39875 44.0553C1.2466 43.9536 1.10569 43.8352 0.978515 43.7021L1.32234 43.1181C1.35497 43.0759 1.39452 43.04 1.4392 43.0119C1.48508 42.9827 1.53806 42.9675 1.59201 42.968C1.67877 42.9729 1.76195 43.0051 1.83021 43.0603C1.91561 43.1219 2.01599 43.1904 2.13134 43.2658C2.26078 43.3479 2.39777 43.4167 2.54034 43.4713C2.72201 43.5374 2.91396 43.5687 3.10664 43.5636C3.38738 43.5802 3.66444 43.4916 3.88643 43.3143C3.9814 43.225 4.05572 43.115 4.10393 42.9924C4.15215 42.8697 4.17304 42.7376 4.16508 42.6056C4.17127 42.4548 4.12684 42.3065 4.03924 42.1854C3.94861 42.0707 3.83524 41.977 3.70665 41.9107C3.55593 41.8321 3.39781 41.7694 3.23473 41.7237C3.05795 41.673 2.87892 41.6168 2.69764 41.5552C2.51439 41.4945 2.33501 41.422 2.16056 41.3382C1.98665 41.2556 1.8272 41.1441 1.68864 41.0081C1.54614 40.8623 1.43445 40.6878 1.36054 40.4956C1.27028 40.2551 1.2275 39.9985 1.2347 39.7408C1.23536 39.4976 1.28388 39.2572 1.37734 39.0338C1.4708 38.8105 1.60726 38.6089 1.77853 38.4411C1.96791 38.2588 2.19002 38.1161 2.43247 38.0209C2.71509 37.9106 3.01558 37.8566 3.31788 37.8617C3.67238 37.8574 4.02476 37.9184 4.35835 38.0417C4.65965 38.1524 4.93572 38.3252 5.1696 38.5496L4.8797 39.129Z" fill="#3C4A63"/>
<path d="M9.59595 44.4898H9.09932C9.01468 44.4936 8.93035 44.477 8.85328 44.4414C8.81947 44.4202 8.79018 44.3923 8.76711 44.3595C8.74404 44.3267 8.72764 44.2895 8.71887 44.2503L8.62091 43.9209C8.51249 44.0204 8.39839 44.1135 8.27919 44.1996C8.17043 44.2775 8.05447 44.3446 7.93292 44.4C7.81106 44.455 7.68343 44.496 7.55247 44.5221C7.40236 44.5513 7.24971 44.5652 7.09685 44.5635C6.91547 44.5655 6.73489 44.539 6.56149 44.4852C6.40663 44.4391 6.26305 44.3606 6.14004 44.2549C6.0199 44.1463 5.92565 44.0116 5.86438 43.861C5.79581 43.6867 5.7625 43.5003 5.76642 43.3127C5.76837 43.1311 5.81536 42.9529 5.90311 42.7944C6.01382 42.6042 6.17063 42.4457 6.35874 42.3338C6.62076 42.1749 6.90603 42.0591 7.20392 41.9905C7.63343 41.8913 8.07335 41.8457 8.51384 41.8546V41.569C8.53301 41.3227 8.46432 41.0775 8.3202 40.8779C8.2488 40.7996 8.16107 40.7383 8.06336 40.6985C7.96564 40.6586 7.86039 40.6413 7.75523 40.6476C7.60097 40.6422 7.44691 40.6632 7.2996 40.7098C7.19193 40.747 7.08815 40.7948 6.98978 40.8526L6.74602 40.9954C6.67075 41.0374 6.58595 41.0589 6.49998 41.0576C6.43174 41.0596 6.36467 41.0394 6.30862 41C6.25555 40.9616 6.21127 40.9121 6.17876 40.8549L5.98057 40.5094C6.4989 40.0256 7.1821 39.7632 7.88736 39.7769C8.13297 39.7727 8.37694 39.8181 8.60497 39.9105C8.80744 39.9932 8.99 40.1189 9.14033 40.279C9.28923 40.4423 9.40255 40.6353 9.47293 40.8457C9.55103 41.0786 9.58954 41.3231 9.58684 41.569L9.59595 44.4898ZM7.45223 43.7988C7.5571 43.7991 7.66171 43.7883 7.76434 43.7665C7.85811 43.7461 7.94913 43.7144 8.03544 43.6721C8.12237 43.6291 8.2048 43.5774 8.28147 43.5177C8.36234 43.4511 8.43847 43.3787 8.50929 43.3012V42.5249C8.23916 42.521 7.96924 42.5418 7.70283 42.5871C7.52304 42.6167 7.34772 42.6693 7.18114 42.7438C7.06864 42.7932 6.97171 42.8728 6.90093 42.9741C6.84662 43.0566 6.81805 43.1537 6.81892 43.2528C6.81145 43.3324 6.82333 43.4126 6.8535 43.4865C6.88367 43.5603 6.93124 43.6256 6.99205 43.6767C7.12536 43.7634 7.28267 43.8046 7.44085 43.7942L7.45223 43.7988Z" fill="#3C4A63"/>
<path d="M12.5531 39.7784C12.7361 39.7769 12.9188 39.7966 13.0974 39.8371C13.2598 39.8737 13.4165 39.9322 13.5634 40.0109H14.8604V40.4172C14.8638 40.4756 14.8445 40.5331 14.8067 40.5775C14.7569 40.6225 14.6941 40.6502 14.6275 40.6565L14.2242 40.731C14.2539 40.81 14.2764 40.8916 14.2914 40.9747C14.3081 41.064 14.3163 41.1547 14.3161 41.2456C14.319 41.4565 14.273 41.6652 14.1817 41.8551C14.0926 42.0309 13.9664 42.185 13.812 42.3065C13.6457 42.4382 13.4565 42.5377 13.2542 42.5999C13.0273 42.671 12.7907 42.706 12.5531 42.7038C12.3861 42.7038 12.2195 42.6872 12.0557 42.6541C11.9154 42.7399 11.8452 42.8362 11.8452 42.943C11.8451 42.9853 11.8568 43.0268 11.879 43.0627C11.9012 43.0987 11.9329 43.1276 11.9706 43.1462C12.0745 43.1948 12.1859 43.2253 12.2999 43.2365C12.4538 43.2555 12.6086 43.2645 12.7636 43.2636C12.9369 43.2636 13.1138 43.2711 13.2946 43.2861C13.473 43.3002 13.6503 43.3258 13.8255 43.3629C13.9884 43.3961 14.145 43.4556 14.2892 43.5389C14.4277 43.623 14.542 43.742 14.6207 43.8843C14.7103 44.0461 14.7537 44.2296 14.7462 44.4147C14.7453 44.6196 14.6945 44.8211 14.5983 45.0016C14.4935 45.1986 14.3485 45.3709 14.1727 45.5072C13.9671 45.6649 13.7359 45.7856 13.4894 45.8639C13.191 45.9587 12.8794 46.0044 12.5665 45.9993C12.2648 46.0046 11.9637 45.9713 11.6704 45.9C11.4483 45.8464 11.2364 45.7565 11.0432 45.6336C10.8913 45.5332 10.7654 45.3978 10.6758 45.2386C10.596 45.1017 10.5535 44.946 10.5526 44.7872C10.5468 44.5906 10.6157 44.3993 10.7452 44.2522C10.8933 44.0951 11.077 43.9765 11.2806 43.9069C11.172 43.8478 11.0797 43.7625 11.0118 43.6586C10.9399 43.5375 10.9048 43.3978 10.911 43.2568C10.9119 43.1853 10.924 43.1145 10.9468 43.0469C10.9714 42.9667 11.0076 42.8906 11.0544 42.8211C11.106 42.7466 11.167 42.6791 11.2358 42.6203C11.315 42.5524 11.4023 42.4948 11.4957 42.4487C11.2767 42.3331 11.0914 42.1619 10.958 41.9521C10.8246 41.734 10.7569 41.4815 10.7632 41.2253C10.7591 41.0189 10.8028 40.8144 10.8906 40.628C10.9785 40.4415 11.1082 40.2782 11.2694 40.1509C11.4383 40.018 11.6306 39.9184 11.8362 39.8574C12.0699 39.795 12.3115 39.7684 12.5531 39.7784ZM13.7426 44.5908C13.7449 44.5498 13.7392 44.5088 13.7257 44.4701C13.7123 44.4313 13.6914 44.3956 13.6642 44.3651C13.6019 44.3023 13.5248 44.2564 13.4402 44.2319C13.3368 44.1975 13.2302 44.1741 13.1221 44.1619C12.9935 44.1464 12.864 44.1389 12.7345 44.1394H12.3134C12.1723 44.1395 12.0317 44.1228 11.8944 44.0897C11.7832 44.1521 11.6851 44.2356 11.6055 44.3357C11.5319 44.426 11.4922 44.5395 11.4934 44.6563C11.4929 44.7353 11.513 44.8132 11.5517 44.882C11.5977 44.9572 11.6626 45.0187 11.7399 45.0603C11.845 45.1172 11.9584 45.1568 12.0759 45.1777C12.2421 45.2085 12.4109 45.2228 12.5799 45.2206C12.7551 45.223 12.93 45.2071 13.1019 45.1732C13.2289 45.1488 13.3513 45.1047 13.4648 45.0422C13.5503 44.9955 13.6221 44.9271 13.6731 44.8436C13.7185 44.7672 13.7425 44.6798 13.7426 44.5908ZM12.5531 42.0176C12.6727 42.0197 12.7917 42.0006 12.9048 41.9611C12.9976 41.9284 13.0823 41.8761 13.1534 41.8077C13.2192 41.7444 13.2704 41.6673 13.3035 41.5819C13.3384 41.4858 13.3558 41.3841 13.355 41.2817C13.36 41.1839 13.3449 41.0861 13.3106 40.9944C13.2763 40.9027 13.2235 40.8192 13.1557 40.749C12.9816 40.6211 12.7718 40.5522 12.5564 40.5522C12.341 40.5522 12.1312 40.6211 11.9572 40.749C11.8893 40.8192 11.8366 40.9027 11.8023 40.9944C11.7679 41.0861 11.7528 41.1839 11.7578 41.2817C11.7572 41.3826 11.7747 41.4828 11.8093 41.5774C11.8429 41.6625 11.8941 41.7394 11.9594 41.8031C12.0306 41.8731 12.1163 41.9263 12.2103 41.9589C12.3204 41.998 12.4363 42.0178 12.5531 42.0176Z" fill="#3C4A63"/>
<path d="M17.3572 39.7776C17.605 39.7748 17.8511 39.8226 18.0835 39.9186C18.2993 40.0072 18.4954 40.1468 18.6582 40.3279C18.8229 40.5167 18.9502 40.742 19.0317 40.9891C19.1253 41.2757 19.171 41.579 19.1666 41.8839C19.1707 41.954 19.1707 42.0242 19.1666 42.0943C19.1624 42.1406 19.1497 42.1855 19.1293 42.2261C19.1127 42.2562 19.088 42.2797 19.0587 42.2931C19.0222 42.3082 18.9835 42.3152 18.9446 42.3139H16.3508C16.3489 42.6997 16.472 43.0732 16.6973 43.3659C16.8028 43.4791 16.9278 43.5672 17.0648 43.6249C17.2018 43.6825 17.3479 43.7085 17.4942 43.7012C17.6345 43.704 17.7745 43.683 17.9092 43.6388C18.0156 43.6016 18.1191 43.5545 18.2183 43.4977L18.4507 43.3567C18.509 43.3174 18.5756 43.2958 18.6437 43.2943C18.6806 43.2929 18.7171 43.3024 18.7495 43.322C18.7799 43.3407 18.8062 43.3668 18.8263 43.3983L19.1189 43.8052C19.0113 43.947 18.8855 44.0701 18.7454 44.1705C18.6092 44.2659 18.4637 44.3434 18.3117 44.4017C18.1623 44.4603 18.008 44.5022 17.8511 44.5266C17.7005 44.5506 17.5487 44.563 17.3966 44.5636C17.1202 44.566 16.8458 44.5111 16.5874 44.4017C16.3418 44.2975 16.1195 44.1349 15.9358 43.9255C15.7437 43.7022 15.5953 43.4368 15.5001 43.1463C15.3884 42.801 15.3343 42.4358 15.3403 42.0689C15.3388 41.7638 15.3858 41.4608 15.4793 41.1741C15.5664 40.9035 15.7011 40.6551 15.8756 40.4435C16.0505 40.2333 16.2624 40.0657 16.4981 39.951C16.7702 39.826 17.0631 39.7669 17.3572 39.7776ZM17.378 40.5799C17.2526 40.5721 17.1271 40.5926 17.0091 40.6403C16.891 40.688 16.7829 40.7618 16.6911 40.8573C16.513 41.0739 16.4024 41.3488 16.3757 41.6411H18.264C18.2645 41.5017 18.2463 41.363 18.21 41.2296C18.1772 41.106 18.1222 40.9911 18.0482 40.892C17.973 40.7928 17.8786 40.7137 17.7722 40.6608C17.6475 40.6027 17.5131 40.5751 17.378 40.5799Z" fill="#3C4A63"/>
<path d="M20.6069 44.5631V37.8619H22.4868C22.8122 37.8561 23.1369 37.8943 23.4526 37.9754C23.6973 38.0376 23.9269 38.151 24.127 38.3086C24.3021 38.4508 24.4395 38.636 24.5265 38.8472C24.6179 39.0769 24.6627 39.3234 24.6581 39.5716C24.6586 39.7464 24.6284 39.9198 24.5688 40.0836C24.5077 40.2491 24.4195 40.4027 24.308 40.5375C24.1888 40.681 24.0475 40.8034 23.8897 40.8998C23.7148 41.0095 23.5246 41.0909 23.3257 41.1413C23.7609 41.1876 24.1714 41.3715 24.5006 41.6677C24.6391 41.8069 24.7476 41.9746 24.8188 42.1597C24.8901 42.3449 24.9226 42.5434 24.9142 42.7423C24.9181 43.0061 24.8676 43.2678 24.7662 43.5102C24.6697 43.7297 24.5249 43.9232 24.3432 44.0753C24.1388 44.2422 23.9039 44.3654 23.6523 44.4375C23.3467 44.5262 23.03 44.5685 22.7124 44.5631H20.6069ZM21.0769 40.9964H22.4868C22.7492 41.0028 23.0107 40.9628 23.2599 40.878C23.4539 40.8115 23.6329 40.7056 23.7863 40.5665C23.9174 40.4451 24.0202 40.2949 24.0871 40.127C24.1509 39.966 24.1836 39.7938 24.1834 39.6199C24.196 39.4272 24.1648 39.2341 24.0922 39.056C24.0196 38.8779 23.9076 38.7195 23.7651 38.5936C23.4878 38.3618 23.0586 38.2459 22.4774 38.2459H21.0675L21.0769 40.9964ZM21.0769 41.3513V44.1743H22.7218C23.1852 44.2088 23.6456 44.0737 24.0213 43.7927C24.1685 43.6598 24.2843 43.4942 24.36 43.3084C24.4357 43.1226 24.4694 42.9216 24.4583 42.7206C24.4613 42.5239 24.4211 42.3292 24.3408 42.1507C24.2627 41.9812 24.1467 41.8332 24.0025 41.7184C23.8403 41.5924 23.656 41.4997 23.4597 41.4455C23.2207 41.3794 22.9739 41.3477 22.7265 41.3513H21.0769Z" fill="#3C4A63"/>
<path d="M26.83 38.2789C26.8305 38.3336 26.8163 38.3876 26.7886 38.4368C26.7622 38.4846 26.7267 38.5282 26.6838 38.5659C26.6401 38.6034 26.5886 38.6334 26.532 38.6544C26.474 38.6759 26.4116 38.687 26.3485 38.687C26.2854 38.687 26.223 38.6759 26.165 38.6544C26.1084 38.6335 26.0569 38.6035 26.0133 38.5659C25.9705 38.5286 25.9359 38.4848 25.9112 38.4368C25.8854 38.3872 25.8723 38.3333 25.8726 38.2789C25.8726 38.223 25.8858 38.1677 25.9112 38.1163C25.9592 38.0164 26.0503 37.9366 26.165 37.8939C26.223 37.8724 26.2854 37.8613 26.3485 37.8613C26.4116 37.8613 26.474 37.8724 26.532 37.8939C26.5885 37.9149 26.64 37.9449 26.6838 37.9824C26.7278 38.0212 26.7633 38.0666 26.7886 38.1163C26.8159 38.1673 26.8301 38.2228 26.83 38.2789ZM26.6038 39.8884V44.5635H26.0905V39.8979L26.6038 39.8884Z" fill="#3C4A63"/>
<path d="M29.9427 39.7767C30.2547 39.7716 30.5644 39.8301 30.8525 39.9484C31.1121 40.0548 31.3437 40.2179 31.5299 40.4256C31.7207 40.647 31.8639 40.9042 31.9509 41.1818C32.1439 41.8273 32.1439 42.514 31.9509 43.1595C31.8635 43.4381 31.7194 43.6962 31.5275 43.9181C31.3419 44.1265 31.1101 44.2898 30.85 44.3953C30.2657 44.6198 29.6172 44.6198 29.033 44.3953C28.7724 44.2894 28.5398 44.1262 28.3531 43.9181C28.1621 43.6977 28.0188 43.4412 27.9321 43.1643C27.7388 42.5188 27.7388 41.832 27.9321 41.1866C28.0185 40.9088 28.1618 40.6514 28.3531 40.4303C28.5405 40.223 28.7728 40.0599 29.033 39.9532C29.3207 39.8333 29.6304 39.7732 29.9427 39.7767ZM29.9427 44.2163C30.1922 44.2201 30.4397 44.1713 30.6686 44.0732C30.8757 43.9809 31.0568 43.84 31.196 43.6629C31.3434 43.471 31.4503 43.252 31.5106 43.0187C31.654 42.4685 31.6598 41.8922 31.5275 41.3393C31.4673 41.1046 31.3604 40.884 31.213 40.6904C31.0739 40.5118 30.8929 40.3693 30.6855 40.2753C30.2128 40.0831 29.6822 40.0831 29.2096 40.2753C29.0022 40.3694 28.8212 40.5119 28.6821 40.6904C28.5328 40.8838 28.4235 41.1043 28.3603 41.3393C28.2181 41.8927 28.2181 42.4724 28.3603 43.0259C28.422 43.259 28.5297 43.4779 28.6773 43.67C28.8166 43.8471 28.9977 43.988 29.2047 44.0804C29.4377 44.1785 29.6895 44.2257 29.9427 44.2187V44.2163Z" fill="#3C4A63"/>
<path d="M33.0527 44.5637V39.8471H33.2712C33.2867 39.8451 33.3025 39.8466 33.3175 39.8515C33.3325 39.8564 33.3465 39.8647 33.3585 39.8758C33.3706 39.8868 33.3805 39.9005 33.3876 39.9159C33.3947 39.9314 33.399 39.9482 33.4001 39.9655L33.4394 40.6763C33.6263 40.4116 33.8568 40.1884 34.1187 40.0187C34.3848 39.8521 34.6868 39.7685 34.9925 39.777C35.2039 39.7725 35.414 39.8144 35.6107 39.9002C35.7801 39.9779 35.93 40.0999 36.0475 40.2556C36.1696 40.4199 36.2602 40.6099 36.314 40.8141C36.3767 41.0544 36.4069 41.3037 36.4036 41.5538V44.5637H35.9973V41.549C36.0169 41.1769 35.9197 40.8088 35.7221 40.507C35.6182 40.3765 35.4884 40.2745 35.3428 40.2091C35.1973 40.1436 35.0399 40.1165 34.8833 40.1299C34.6081 40.1291 34.3382 40.2128 34.1034 40.3717C33.8528 40.5426 33.6347 40.766 33.4612 41.0292V44.5637H33.0527Z" fill="#3C4A63"/>
<path d="M39.6344 39.7767C39.8462 39.7741 40.0565 39.8202 40.2532 39.9124C40.44 40.0007 40.6082 40.1355 40.7463 40.3075C40.8915 40.4914 41.0027 40.7086 41.0729 40.9454C41.1551 41.2248 41.1949 41.5188 41.1906 41.8142C41.1944 41.8631 41.1852 41.9122 41.1642 41.9547C41.1541 41.9679 41.1415 41.9781 41.1274 41.9847C41.1134 41.9913 41.0982 41.9941 41.0831 41.9928H38.2263V42.0808C38.2219 42.3914 38.2568 42.701 38.3297 42.9996C38.3888 43.2427 38.4888 43.4693 38.6239 43.6661C38.7483 43.8426 38.9069 43.9813 39.0865 44.0708C39.2794 44.1644 39.4866 44.2106 39.6952 44.2065C39.8699 44.2104 40.0442 44.1848 40.2126 44.1303C40.3398 44.0872 40.4629 44.029 40.5799 43.9565C40.6623 43.9051 40.7417 43.847 40.8173 43.7828C40.8532 43.7442 40.8974 43.7179 40.9451 43.7066C40.9607 43.706 40.9761 43.71 40.9899 43.7183C41.0038 43.7267 41.0156 43.739 41.0242 43.7542L41.1277 43.9042C41.0554 44.0065 40.9698 44.0948 40.8741 44.166C40.7639 44.2499 40.6462 44.3193 40.5231 44.3731C40.3913 44.4323 40.2556 44.4784 40.1173 44.5111C39.971 44.5456 39.8221 44.5631 39.6729 44.5635C39.419 44.567 39.1671 44.5103 38.9323 44.3969C38.7128 44.2909 38.5166 44.1282 38.3581 43.9208C38.1835 43.6919 38.0515 43.4227 37.9706 43.1306C37.8794 42.7903 37.8356 42.4351 37.8407 42.0785C37.8381 41.7656 37.8792 41.4544 37.9625 41.1573C38.0363 40.8896 38.1549 40.642 38.3115 40.4289C38.4669 40.2239 38.6587 40.0614 38.8735 39.9528C39.1136 39.8315 39.373 39.7715 39.6344 39.7767ZM39.6344 40.1075C39.4474 40.104 39.2615 40.1419 39.0865 40.2194C38.9288 40.2905 38.7856 40.4001 38.6665 40.5408C38.5453 40.6867 38.4483 40.8578 38.3805 41.0454C38.3048 41.2556 38.2562 41.4778 38.2364 41.7047H40.8437C40.8464 41.4776 40.817 41.2516 40.7564 41.0359C40.7047 40.8505 40.6211 40.6796 40.5109 40.5336C40.405 40.3972 40.2748 40.2899 40.1295 40.2194C39.9743 40.1451 39.808 40.1079 39.6405 40.1099L39.6344 40.1075Z" fill="#3C4A63"/>
<path d="M43.6707 44.562C43.5564 44.57 43.4419 44.5514 43.334 44.5073C43.2262 44.4633 43.1273 44.3947 43.0433 44.3057C42.9621 44.1976 42.9004 44.072 42.862 43.9364C42.8235 43.8008 42.809 43.6578 42.8192 43.5158V40.4073H42.2488C42.2229 40.4081 42.1976 40.3981 42.1775 40.3793C42.1681 40.3697 42.1606 40.3578 42.1557 40.3445C42.1508 40.3312 42.1485 40.3169 42.149 40.3024V40.1323L42.8273 40.0764L42.9231 38.4453C42.9261 38.418 42.9368 38.3927 42.9536 38.373C42.9624 38.3622 42.9732 38.3537 42.9852 38.3481C42.9971 38.3424 43.01 38.3398 43.0229 38.3404H43.2001V40.0764H44.4509V40.4003H43.2001V43.4901C43.1984 43.5993 43.2129 43.708 43.2429 43.8117C43.2656 43.8984 43.3054 43.9781 43.359 44.0447C43.4073 44.1021 43.4666 44.146 43.5322 44.1729C43.6015 44.2011 43.6745 44.2153 43.7481 44.2148C43.8329 44.2169 43.9173 44.2003 43.9966 44.1659C44.0592 44.1377 44.1193 44.1026 44.1759 44.061C44.2193 44.0293 44.2608 43.9942 44.3002 43.9562C44.32 43.9309 44.3464 43.9137 44.3755 43.9072C44.3884 43.9092 44.4008 43.9143 44.4117 43.9224C44.4226 43.9305 44.4318 43.9412 44.4387 43.9538L44.5426 44.1449C44.4349 44.2777 44.3036 44.3826 44.1576 44.4525C44.0037 44.5273 43.8379 44.5646 43.6707 44.562Z" fill="#3C4A63"/>
<path d="M45.0215 39.7986H45.3495C45.3857 39.7972 45.4211 39.8102 45.4492 39.8352C45.4732 39.8553 45.4916 39.8824 45.5024 39.9134L46.5929 43.6746C46.6124 43.7437 46.6287 43.8138 46.6416 43.8847L46.6771 44.085C46.6926 44.019 46.7081 43.9506 46.7258 43.8847C46.7436 43.8187 46.7635 43.7479 46.7857 43.6746L47.9471 39.8816C47.9528 39.8511 47.9682 39.8237 47.9905 39.8045C48.0129 39.7853 48.0406 39.7754 48.069 39.7766H48.2307C48.2597 39.7747 48.2883 39.7842 48.3115 39.8035C48.3346 39.8227 48.3508 39.8504 48.3571 39.8816L49.5007 43.6746C49.5423 43.8116 49.5771 43.9511 49.6049 44.0923C49.6167 44.0255 49.6293 43.958 49.6426 43.8896C49.657 43.8175 49.6755 43.7466 49.698 43.6771L50.7928 39.9158C50.8015 39.8806 50.8211 39.8498 50.8483 39.8289C50.8754 39.8079 50.9083 39.798 50.9413 39.801H51.245L49.7822 44.5637H49.4785C49.432 44.5637 49.3988 44.5295 49.3788 44.4635L48.1997 40.5875C48.1849 40.5403 48.1716 40.4922 48.1598 40.4434C48.148 40.3945 48.1377 40.3465 48.1288 40.2993C48.1199 40.3465 48.1103 40.3945 48.1 40.4434C48.0896 40.4922 48.0771 40.5403 48.0623 40.5875L46.8633 44.4586C46.8596 44.4863 46.847 44.5115 46.8279 44.5299C46.8089 44.5483 46.7844 44.5585 46.7591 44.5588H46.4688L45.0215 39.7986Z" fill="#3C4A63"/>
<path d="M54.1172 39.7767C54.3946 39.7716 54.6701 39.8302 54.9263 39.9486C55.1572 40.055 55.3632 40.2184 55.5288 40.4262C55.6985 40.6478 55.8259 40.9054 55.9033 41.1832C56.0749 41.8294 56.0749 42.5167 55.9033 43.1629C55.8256 43.4399 55.6982 43.6966 55.5288 43.9175C55.3638 44.126 55.1576 44.2895 54.9263 44.3951C54.4066 44.6199 53.8298 44.6199 53.3102 44.3951C53.0784 44.2891 52.8716 44.1258 52.7055 43.9175C52.5357 43.6969 52.4083 43.4401 52.3311 43.1629C52.1592 42.5168 52.1592 41.8293 52.3311 41.1832C52.408 40.9052 52.5354 40.6475 52.7055 40.4262C52.8722 40.2186 53.0789 40.0554 53.3102 39.9486C53.5657 39.8305 53.8404 39.772 54.1172 39.7767ZM54.1172 44.2208C54.3391 44.2245 54.5592 44.1757 54.7627 44.0775C54.9475 43.9861 55.1093 43.8459 55.234 43.6691C55.365 43.477 55.4602 43.2578 55.5138 43.0244C55.6374 42.47 55.6374 41.8904 55.5138 41.336C55.4602 41.1011 55.3651 40.8803 55.234 40.6865C55.1104 40.5078 54.9493 40.3652 54.7649 40.271C54.3445 40.0786 53.8726 40.0786 53.4522 40.271C53.2678 40.3652 53.1068 40.5078 52.9831 40.6865C52.8544 40.8827 52.7616 41.105 52.7098 41.3408C52.5833 41.8948 52.5833 42.4751 52.7098 43.0291C52.7647 43.2625 52.8605 43.4816 52.9917 43.6739C53.1156 43.8512 53.2766 43.9922 53.4608 44.0846C53.668 44.1829 53.8919 44.2301 54.1172 44.2232V44.2208Z" fill="#3C4A63"/>
<path d="M56.9897 44.5637V39.8591H57.2451C57.289 39.8555 57.3327 39.8676 57.3676 39.8929C57.3968 39.9241 57.4123 39.9646 57.411 40.0062L57.4519 40.9997C57.5846 40.6557 57.8046 40.3477 58.0927 40.1027C58.3697 39.8817 58.7236 39.7657 59.0859 39.7771C59.2261 39.7763 59.3659 39.7917 59.5021 39.823C59.6272 39.8525 59.7481 39.8962 59.8621 39.9532L59.7957 40.2642C59.7945 40.2753 59.7909 40.2861 59.7852 40.2959C59.7795 40.3057 59.7718 40.3143 59.7625 40.3213C59.7532 40.3282 59.7426 40.3334 59.7312 40.3364C59.7198 40.3395 59.7079 40.3403 59.6962 40.339C59.6672 40.3368 59.6387 40.3303 59.6119 40.3197L59.474 40.2763C59.4078 40.2579 59.3404 40.2434 59.2723 40.2329C59.1811 40.2194 59.0889 40.213 58.9966 40.2136C58.8254 40.2075 58.6546 40.2341 58.4945 40.2917C58.3344 40.3493 58.1882 40.4367 58.0647 40.5488C57.7906 40.8217 57.5893 41.1523 57.4774 41.5133V44.5637H56.9897Z" fill="#3C4A63"/>
<path d="M61.2314 37.8613V41.9475H61.4338C61.4735 41.9475 61.513 41.9412 61.5508 41.9287C61.5971 41.9098 61.6386 41.88 61.6722 41.8418L63.4332 40.097C63.463 40.0656 63.4962 40.038 63.5322 40.0148C63.5719 39.9915 63.6171 39.9801 63.6626 39.9819H64.0337L62.0973 41.9028L62.0141 41.9874C61.9877 42.0131 61.9582 42.0352 61.9264 42.0531C61.9702 42.0753 62.0105 42.1047 62.0456 42.14L62.1468 42.2504L64.1709 44.5635H63.8043C63.7662 44.5641 63.7284 44.5552 63.6941 44.5377C63.6575 44.5175 63.6247 44.4904 63.5974 44.4578L61.7667 42.3842C61.7279 42.3382 61.6814 42.3 61.6295 42.2715C61.5676 42.2479 61.5019 42.2375 61.4361 42.241H61.2381V44.5541H60.8198V37.8613H61.2314Z" fill="#3C4A63"/>
<path d="M67.7738 40.4387C67.7645 40.4585 67.7491 40.4751 67.7294 40.4865C67.7097 40.498 67.6867 40.5036 67.6635 40.5028C67.6103 40.4966 67.5604 40.4759 67.5198 40.4435C67.4457 40.3958 67.3686 40.3523 67.2889 40.313C67.1768 40.2586 67.0591 40.2149 66.9374 40.1825C66.7704 40.1399 66.5976 40.1199 66.4243 40.1231C66.2561 40.1211 66.0887 40.1451 65.9292 40.1943C65.7904 40.2369 65.661 40.302 65.5469 40.3865C65.4408 40.4619 65.3533 40.5574 65.2903 40.6666C65.2325 40.7708 65.2026 40.8864 65.2031 41.0035C65.1974 41.1337 65.2399 41.2618 65.3237 41.3666C65.4115 41.4646 65.5196 41.5453 65.6418 41.6039C65.7839 41.6761 65.9335 41.7349 66.0882 41.7795L66.6014 41.929C66.7724 41.9781 66.9434 42.0334 67.1145 42.0951C67.2741 42.1554 67.4242 42.2353 67.5609 42.3324C67.6905 42.4208 67.7989 42.5331 67.879 42.6623C67.9632 42.8081 68.0048 42.9717 67.9996 43.1369C68.0014 43.3298 67.9613 43.521 67.8816 43.6993C67.8046 43.8707 67.6881 44.0246 67.5404 44.1502C67.3797 44.2832 67.1923 44.3856 66.9888 44.4515C66.7498 44.5291 66.4979 44.5669 66.2447 44.5631C65.9327 44.5699 65.6225 44.5166 65.3339 44.4065C65.0836 44.305 64.8523 44.1672 64.6489 43.9983L64.7644 43.8393C64.7785 43.8168 64.7978 43.7973 64.8208 43.7823C64.8465 43.7686 64.8759 43.762 64.9055 43.7634C64.9667 43.7705 65.0236 43.7964 65.0671 43.8369C65.148 43.8968 65.2338 43.9507 65.3237 43.9983C65.4448 44.064 65.5729 44.1181 65.706 44.1597C65.8892 44.2133 66.0808 44.2382 66.273 44.2332C66.4631 44.2369 66.6524 44.2096 66.8323 44.1525C66.9813 44.1051 67.1184 44.03 67.2351 43.9318C67.3458 43.8416 67.4334 43.7298 67.4916 43.6044C67.5469 43.4777 67.5748 43.3423 67.5737 43.2057C67.5795 43.0681 67.5372 42.9325 67.4531 42.8189C67.368 42.7123 67.2596 42.6234 67.135 42.5579C66.9939 42.482 66.8442 42.4208 66.6886 42.3751L66.1755 42.2256C66.0044 42.1766 65.8334 42.122 65.6623 42.0619C65.5032 42.0068 65.353 41.9318 65.2159 41.8388C65.0866 41.7511 64.9783 41.6396 64.8978 41.5114C64.8136 41.3656 64.772 41.202 64.7772 41.0368C64.777 40.8726 64.8165 40.7104 64.8927 40.5621C64.965 40.4074 65.0717 40.2683 65.2057 40.154C65.3569 40.0338 65.5309 39.9405 65.7188 39.8787C65.9407 39.8079 66.1742 39.7734 66.4089 39.7767C66.6858 39.7724 66.9613 39.8142 67.2222 39.9001C67.4637 39.9847 67.6851 40.1121 67.8739 40.275L67.7738 40.4387Z" fill="#3C4A63"/>
<path d="M25.7279 19.7658L25.7767 10.8435L18.4043 6.36133L18.4176 15.073L25.7279 19.7658Z" stroke="#679EC1" stroke-width="2" stroke-linecap="round" stroke-linejoin="round"/>
<path d="M25.7764 19.7655L32.4786 15.7441L30.2029 17.1124" stroke="#679EC1" stroke-width="2" stroke-linecap="round" stroke-linejoin="round"/>
<path d="M33.761 33.1701L33.819 24.2478L25.7764 19.7656L25.7957 28.4773L33.761 33.1701Z" stroke="#679EC1" stroke-width="2" stroke-linecap="round" stroke-linejoin="round"/>
<path d="M42.5321 19.7656L35.1597 24.1885L35.1641 33.1701L42.3274 28.7987L42.5321 19.7656Z" stroke="#6DB56D" stroke-width="2" stroke-linecap="round" stroke-linejoin="round"/>
<path d="M42.532 19.7655L36.5 15.7441L38.5485 17.1083" stroke="#6DB56D" stroke-width="2" stroke-linecap="round" stroke-linejoin="round"/>
<path d="M50.5746 7.03174L43.2021 11.229L43.2066 19.7659L50.3699 15.6087L50.5746 7.03174Z" stroke="#6DB56D" stroke-width="2" stroke-linecap="round" stroke-linejoin="round"/>
<path d="M34.4893 5.26365L42.1618 9.71239L49.9044 5.28211L42.381 0.999512L34.4893 5.26365Z" stroke="#EB8231" stroke-width="2" stroke-linecap="round" stroke-linejoin="round"/>
<path d="M34.4893 5.69092V13.0634V10.5616" stroke="#EB8231" stroke-width="2" stroke-linecap="round" stroke-linejoin="round"/>
<path d="M19.0742 5.26365L26.7491 9.71239L34.4893 5.28211L26.9636 0.999512L19.0742 5.26365Z" stroke="#EB8231" stroke-width="2" stroke-linecap="round" stroke-linejoin="round"/>
</svg>
