<svg width="166" height="49" viewBox="0 0 166 49" fill="none" xmlns="http://www.w3.org/2000/svg">
<path d="M15.4104 20.7375C15.5937 20.7375 15.7562 20.8083 15.8979 20.95L17.2229 22.3875C16.4895 23.2958 15.5854 23.9917 14.5104 24.475C13.4437 24.9583 12.1604 25.2 10.6604 25.2C9.31869 25.2 8.11035 24.9708 7.03535 24.5125C5.96869 24.0542 5.05619 23.4167 4.29785 22.6C3.53952 21.7833 2.95618 20.8083 2.54785 19.675C2.14785 18.5417 1.94785 17.3042 1.94785 15.9625C1.94785 14.6042 2.16452 13.3625 2.59785 12.2375C3.03119 11.1042 3.63952 10.1292 4.42285 9.3125C5.21452 8.49583 6.15619 7.8625 7.24785 7.4125C8.33952 6.95417 9.54785 6.725 10.8729 6.725C12.1895 6.725 13.3562 6.94167 14.3729 7.375C15.3979 7.80833 16.2687 8.375 16.9854 9.075L15.8604 10.6375C15.7937 10.7375 15.7062 10.825 15.5979 10.9C15.4979 10.975 15.3562 11.0125 15.1729 11.0125C15.0479 11.0125 14.9187 10.9792 14.7854 10.9125C14.652 10.8375 14.5062 10.75 14.3479 10.65C14.1895 10.5417 14.0062 10.425 13.7979 10.3C13.5895 10.175 13.3479 10.0625 13.0729 9.9625C12.7979 9.85417 12.477 9.76667 12.1104 9.7C11.752 9.625 11.3354 9.5875 10.8604 9.5875C10.052 9.5875 9.31035 9.73333 8.63535 10.025C7.96869 10.3083 7.39369 10.725 6.91035 11.275C6.42702 11.8167 6.05202 12.4833 5.78535 13.275C5.51869 14.0583 5.38535 14.9542 5.38535 15.9625C5.38535 16.9792 5.52702 17.8833 5.81035 18.675C6.10202 19.4667 6.49369 20.1333 6.98535 20.675C7.47702 21.2167 8.05619 21.6333 8.72285 21.925C9.38952 22.2083 10.1062 22.35 10.8729 22.35C11.3312 22.35 11.7437 22.325 12.1104 22.275C12.4854 22.225 12.827 22.1458 13.1354 22.0375C13.452 21.9292 13.7479 21.7917 14.0229 21.625C14.3062 21.45 14.5854 21.2375 14.8604 20.9875C14.9437 20.9125 15.0312 20.8542 15.1229 20.8125C15.2145 20.7625 15.3104 20.7375 15.4104 20.7375ZM29.1512 10.2125C29.0512 10.3875 28.9428 10.5167 28.8262 10.6C28.7178 10.675 28.5803 10.7125 28.4137 10.7125C28.2387 10.7125 28.047 10.65 27.8387 10.525C27.6387 10.3917 27.397 10.2458 27.1137 10.0875C26.8303 9.92917 26.497 9.7875 26.1137 9.6625C25.7387 9.52917 25.2928 9.4625 24.7762 9.4625C24.3095 9.4625 23.9012 9.52083 23.5512 9.6375C23.2012 9.74583 22.9053 9.9 22.6637 10.1C22.4303 10.3 22.2553 10.5417 22.1387 10.825C22.022 11.1 21.9637 11.4042 21.9637 11.7375C21.9637 12.1625 22.0803 12.5167 22.3137 12.8C22.5553 13.0833 22.872 13.325 23.2637 13.525C23.6553 13.725 24.1012 13.9042 24.6012 14.0625C25.1012 14.2208 25.6137 14.3917 26.1387 14.575C26.6637 14.75 27.1762 14.9583 27.6762 15.2C28.1762 15.4333 28.622 15.7333 29.0137 16.1C29.4053 16.4583 29.7178 16.9 29.9512 17.425C30.1928 17.95 30.3137 18.5875 30.3137 19.3375C30.3137 20.1542 30.172 20.9208 29.8887 21.6375C29.6137 22.3458 29.2053 22.9667 28.6637 23.5C28.1303 24.025 27.4762 24.4417 26.7012 24.75C25.9262 25.05 25.0387 25.2 24.0387 25.2C23.4637 25.2 22.897 25.1417 22.3387 25.025C21.7803 24.9167 21.2428 24.7583 20.7262 24.55C20.2178 24.3417 19.7387 24.0917 19.2887 23.8C18.8387 23.5083 18.4387 23.1833 18.0887 22.825L19.0762 21.2125C19.1595 21.0958 19.2678 21 19.4012 20.925C19.5345 20.8417 19.6762 20.8 19.8262 20.8C20.0345 20.8 20.2595 20.8875 20.5012 21.0625C20.7428 21.2292 21.0303 21.4167 21.3637 21.625C21.697 21.8333 22.0845 22.025 22.5262 22.2C22.9762 22.3667 23.5137 22.45 24.1387 22.45C25.097 22.45 25.8387 22.225 26.3637 21.775C26.8887 21.3167 27.1512 20.6625 27.1512 19.8125C27.1512 19.3375 27.0303 18.95 26.7887 18.65C26.5553 18.35 26.2428 18.1 25.8512 17.9C25.4595 17.6917 25.0137 17.5167 24.5137 17.375C24.0137 17.2333 23.5053 17.0792 22.9887 16.9125C22.472 16.7458 21.9637 16.5458 21.4637 16.3125C20.9637 16.0792 20.5178 15.775 20.1262 15.4C19.7345 15.025 19.4178 14.5583 19.1762 14C18.9428 13.4333 18.8262 12.7375 18.8262 11.9125C18.8262 11.2542 18.9553 10.6125 19.2137 9.9875C19.4803 9.3625 19.8637 8.80833 20.3637 8.325C20.8637 7.84167 21.4803 7.45417 22.2137 7.1625C22.947 6.87083 23.7887 6.725 24.7387 6.725C25.8053 6.725 26.7887 6.89167 27.6887 7.225C28.5887 7.55833 29.3553 8.025 29.9887 8.625L29.1512 10.2125ZM40.0094 22.375C40.6344 22.375 41.1594 22.3 41.5844 22.15C42.0094 22 42.3469 21.8 42.5969 21.55C42.8552 21.3 43.0385 21.0083 43.1469 20.675C43.2635 20.3417 43.3219 19.9875 43.3219 19.6125C43.3219 19.2208 43.2594 18.8708 43.1344 18.5625C43.0094 18.2458 42.8135 17.9792 42.5469 17.7625C42.2802 17.5375 41.9344 17.3667 41.5094 17.25C41.0927 17.1333 40.5885 17.075 39.9969 17.075H36.6094V22.375H40.0094ZM36.6094 9.525V14.75H39.2844C40.4344 14.75 41.301 14.5417 41.8844 14.125C42.476 13.7083 42.7719 13.0458 42.7719 12.1375C42.7719 11.1958 42.5052 10.525 41.9719 10.125C41.4385 9.725 40.6052 9.525 39.4719 9.525H36.6094ZM39.4719 6.925C40.6552 6.925 41.6677 7.0375 42.5094 7.2625C43.351 7.4875 44.0385 7.80833 44.5719 8.225C45.1135 8.64167 45.5094 9.14583 45.7594 9.7375C46.0094 10.3292 46.1344 10.9958 46.1344 11.7375C46.1344 12.1625 46.0719 12.5708 45.9469 12.9625C45.8219 13.3458 45.626 13.7083 45.3594 14.05C45.101 14.3833 44.7677 14.6875 44.3594 14.9625C43.9594 15.2375 43.4802 15.4708 42.9219 15.6625C45.4052 16.2208 46.6469 17.5625 46.6469 19.6875C46.6469 20.4542 46.501 21.1625 46.2094 21.8125C45.9177 22.4625 45.4927 23.025 44.9344 23.5C44.376 23.9667 43.6885 24.3333 42.8719 24.6C42.0552 24.8667 41.1219 25 40.0719 25H33.2469V6.925H39.4719ZM62.1145 20.7375C62.2978 20.7375 62.4603 20.8083 62.602 20.95L63.927 22.3875C63.1936 23.2958 62.2895 23.9917 61.2145 24.475C60.1478 24.9583 58.8645 25.2 57.3645 25.2C56.0228 25.2 54.8145 24.9708 53.7395 24.5125C52.6728 24.0542 51.7603 23.4167 51.002 22.6C50.2436 21.7833 49.6603 20.8083 49.252 19.675C48.852 18.5417 48.652 17.3042 48.652 15.9625C48.652 14.6042 48.8686 13.3625 49.302 12.2375C49.7353 11.1042 50.3436 10.1292 51.127 9.3125C51.9186 8.49583 52.8603 7.8625 53.952 7.4125C55.0436 6.95417 56.252 6.725 57.577 6.725C58.8936 6.725 60.0603 6.94167 61.077 7.375C62.102 7.80833 62.9728 8.375 63.6895 9.075L62.5645 10.6375C62.4978 10.7375 62.4103 10.825 62.302 10.9C62.202 10.975 62.0603 11.0125 61.877 11.0125C61.752 11.0125 61.6228 10.9792 61.4895 10.9125C61.3561 10.8375 61.2103 10.75 61.052 10.65C60.8936 10.5417 60.7103 10.425 60.502 10.3C60.2936 10.175 60.052 10.0625 59.777 9.9625C59.502 9.85417 59.1811 9.76667 58.8145 9.7C58.4561 9.625 58.0395 9.5875 57.5645 9.5875C56.7561 9.5875 56.0145 9.73333 55.3395 10.025C54.6728 10.3083 54.0978 10.725 53.6145 11.275C53.1311 11.8167 52.7561 12.4833 52.4895 13.275C52.2228 14.0583 52.0895 14.9542 52.0895 15.9625C52.0895 16.9792 52.2311 17.8833 52.5145 18.675C52.8061 19.4667 53.1978 20.1333 53.6895 20.675C54.1811 21.2167 54.7603 21.6333 55.427 21.925C56.0936 22.2083 56.8103 22.35 57.577 22.35C58.0353 22.35 58.4478 22.325 58.8145 22.275C59.1895 22.225 59.5311 22.1458 59.8395 22.0375C60.1561 21.9292 60.452 21.7917 60.727 21.625C61.0103 21.45 61.2895 21.2375 61.5645 20.9875C61.6478 20.9125 61.7353 20.8542 61.827 20.8125C61.9186 20.7625 62.0145 20.7375 62.1145 20.7375ZM73.9719 25.0375C73.8302 25.4208 73.601 25.7083 73.2844 25.9C72.976 26.0917 72.6594 26.1875 72.3344 26.1875H71.0219L78.3219 7.5125C78.4552 7.1625 78.6594 6.89583 78.9344 6.7125C79.2094 6.52083 79.5302 6.425 79.8969 6.425H81.2219L73.9719 25.0375ZM95.909 16.0125C96.5257 16.0125 97.0632 15.9375 97.5215 15.7875C97.9798 15.6292 98.359 15.4083 98.659 15.125C98.9673 14.8333 99.1965 14.4833 99.3465 14.075C99.4965 13.6583 99.5715 13.1958 99.5715 12.6875C99.5715 12.2042 99.4965 11.7667 99.3465 11.375C99.1965 10.9833 98.9715 10.65 98.6715 10.375C98.3715 10.1 97.9923 9.89167 97.534 9.75C97.0757 9.6 96.534 9.525 95.909 9.525H93.3965V16.0125H95.909ZM95.909 6.925C97.1173 6.925 98.1632 7.06667 99.0465 7.35C99.9298 7.63333 100.659 8.02917 101.234 8.5375C101.809 9.04583 102.234 9.65417 102.509 10.3625C102.792 11.0708 102.934 11.8458 102.934 12.6875C102.934 13.5625 102.788 14.3667 102.496 15.1C102.205 15.825 101.767 16.45 101.184 16.975C100.601 17.5 99.8673 17.9083 98.984 18.2C98.109 18.4917 97.084 18.6375 95.909 18.6375H93.3965V25H90.034V6.925H95.909ZM115.138 10.2125C115.038 10.3875 114.929 10.5167 114.813 10.6C114.704 10.675 114.567 10.7125 114.4 10.7125C114.225 10.7125 114.033 10.65 113.825 10.525C113.625 10.3917 113.383 10.2458 113.1 10.0875C112.817 9.92917 112.483 9.7875 112.1 9.6625C111.725 9.52917 111.279 9.4625 110.763 9.4625C110.296 9.4625 109.888 9.52083 109.538 9.6375C109.188 9.74583 108.892 9.9 108.65 10.1C108.417 10.3 108.242 10.5417 108.125 10.825C108.008 11.1 107.95 11.4042 107.95 11.7375C107.95 12.1625 108.067 12.5167 108.3 12.8C108.542 13.0833 108.858 13.325 109.25 13.525C109.642 13.725 110.088 13.9042 110.588 14.0625C111.088 14.2208 111.6 14.3917 112.125 14.575C112.65 14.75 113.163 14.9583 113.663 15.2C114.163 15.4333 114.608 15.7333 115 16.1C115.392 16.4583 115.704 16.9 115.938 17.425C116.179 17.95 116.3 18.5875 116.3 19.3375C116.3 20.1542 116.158 20.9208 115.875 21.6375C115.6 22.3458 115.192 22.9667 114.65 23.5C114.117 24.025 113.463 24.4417 112.688 24.75C111.913 25.05 111.025 25.2 110.025 25.2C109.45 25.2 108.883 25.1417 108.325 25.025C107.767 24.9167 107.229 24.7583 106.712 24.55C106.204 24.3417 105.725 24.0917 105.275 23.8C104.825 23.5083 104.425 23.1833 104.075 22.825L105.062 21.2125C105.146 21.0958 105.254 21 105.388 20.925C105.521 20.8417 105.663 20.8 105.813 20.8C106.021 20.8 106.246 20.8875 106.488 21.0625C106.729 21.2292 107.017 21.4167 107.35 21.625C107.683 21.8333 108.071 22.025 108.513 22.2C108.963 22.3667 109.5 22.45 110.125 22.45C111.083 22.45 111.825 22.225 112.35 21.775C112.875 21.3167 113.138 20.6625 113.138 19.8125C113.138 19.3375 113.017 18.95 112.775 18.65C112.542 18.35 112.229 18.1 111.838 17.9C111.446 17.6917 111 17.5167 110.5 17.375C110 17.2333 109.492 17.0792 108.975 16.9125C108.458 16.7458 107.95 16.5458 107.45 16.3125C106.95 16.0792 106.504 15.775 106.113 15.4C105.721 15.025 105.404 14.5583 105.163 14C104.929 13.4333 104.813 12.7375 104.813 11.9125C104.813 11.2542 104.942 10.6125 105.2 9.9875C105.467 9.3625 105.85 8.80833 106.35 8.325C106.85 7.84167 107.467 7.45417 108.2 7.1625C108.933 6.87083 109.775 6.725 110.725 6.725C111.792 6.725 112.775 6.89167 113.675 7.225C114.575 7.55833 115.342 8.025 115.975 8.625L115.138 10.2125ZM118.646 16.1625H125.121V18.7375H118.646V16.1625ZM145.797 15.9625C145.797 17.2875 145.576 18.5167 145.134 19.65C144.701 20.775 144.084 21.75 143.284 22.575C142.484 23.4 141.522 24.0458 140.397 24.5125C139.272 24.9708 138.022 25.2 136.647 25.2C135.28 25.2 134.034 24.9708 132.909 24.5125C131.784 24.0458 130.818 23.4 130.009 22.575C129.209 21.75 128.589 20.775 128.147 19.65C127.705 18.5167 127.484 17.2875 127.484 15.9625C127.484 14.6375 127.705 13.4125 128.147 12.2875C128.589 11.1542 129.209 10.175 130.009 9.35C130.818 8.525 131.784 7.88333 132.909 7.425C134.034 6.95833 135.28 6.725 136.647 6.725C137.564 6.725 138.426 6.83333 139.234 7.05C140.043 7.25833 140.784 7.55833 141.459 7.95C142.134 8.33333 142.739 8.80417 143.272 9.3625C143.814 9.9125 144.272 10.5292 144.647 11.2125C145.022 11.8958 145.305 12.6375 145.497 13.4375C145.697 14.2375 145.797 15.0792 145.797 15.9625ZM142.359 15.9625C142.359 14.9708 142.226 14.0833 141.959 13.3C141.693 12.5083 141.314 11.8375 140.822 11.2875C140.33 10.7375 139.73 10.3167 139.022 10.025C138.322 9.73333 137.53 9.5875 136.647 9.5875C135.764 9.5875 134.968 9.73333 134.259 10.025C133.559 10.3167 132.959 10.7375 132.459 11.2875C131.968 11.8375 131.589 12.5083 131.322 13.3C131.055 14.0833 130.922 14.9708 130.922 15.9625C130.922 16.9542 131.055 17.8458 131.322 18.6375C131.589 19.4208 131.968 20.0875 132.459 20.6375C132.959 21.1792 133.559 21.5958 134.259 21.8875C134.968 22.1792 135.764 22.325 136.647 22.325C137.53 22.325 138.322 22.1792 139.022 21.8875C139.73 21.5958 140.33 21.1792 140.822 20.6375C141.314 20.0875 141.693 19.4208 141.959 18.6375C142.226 17.8458 142.359 16.9542 142.359 15.9625ZM163.987 6.925V25H162.262C161.996 25 161.771 24.9583 161.587 24.875C161.412 24.7833 161.241 24.6333 161.075 24.425L151.637 12.375C151.687 12.925 151.712 13.4333 151.712 13.9V25H148.75V6.925H150.512C150.654 6.925 150.775 6.93333 150.875 6.95C150.983 6.95833 151.075 6.98333 151.15 7.025C151.233 7.05833 151.312 7.1125 151.387 7.1875C151.462 7.25417 151.546 7.34583 151.637 7.4625L161.112 19.5625C161.087 19.2708 161.066 18.9833 161.05 18.7C161.033 18.4167 161.025 18.1542 161.025 17.9125V6.925H163.987Z" fill="white"/>
<path d="M19.4265 42.5499C19.7032 42.5499 19.9465 42.5132 20.1565 42.4399C20.3699 42.3666 20.5482 42.2649 20.6915 42.1349C20.8382 42.0016 20.9482 41.8432 21.0215 41.6599C21.0949 41.4766 21.1315 41.2749 21.1315 41.0549C21.1315 40.5982 20.9899 40.2416 20.7065 39.9849C20.4265 39.7282 19.9999 39.5999 19.4265 39.5999H18.2765V42.5499H19.4265ZM19.4265 38.8349C19.8799 38.8349 20.2732 38.8882 20.6065 38.9949C20.9432 39.0982 21.2215 39.2466 21.4415 39.4399C21.6615 39.6332 21.8249 39.8666 21.9315 40.1399C22.0415 40.4132 22.0965 40.7182 22.0965 41.0549C22.0965 41.3882 22.0382 41.6932 21.9215 41.9699C21.8049 42.2466 21.6332 42.4849 21.4065 42.6849C21.1832 42.8849 20.9049 43.0416 20.5715 43.1549C20.2415 43.2649 19.8599 43.3199 19.4265 43.3199H18.2765V45.9999H17.3115V38.8349H19.4265ZM30.4373 42.4199C30.4373 42.9566 30.3523 43.4499 30.1823 43.8999C30.0123 44.3466 29.7723 44.7316 29.4623 45.0549C29.1523 45.3782 28.779 45.6299 28.3423 45.8099C27.909 45.9866 27.429 46.0749 26.9023 46.0749C26.3757 46.0749 25.8957 45.9866 25.4624 45.8099C25.0291 45.6299 24.6574 45.3782 24.3474 45.0549C24.0374 44.7316 23.7974 44.3466 23.6274 43.8999C23.4574 43.4499 23.3724 42.9566 23.3724 42.4199C23.3724 41.8832 23.4574 41.3916 23.6274 40.9449C23.7974 40.4949 24.0374 40.1082 24.3474 39.7849C24.6574 39.4582 25.0291 39.2049 25.4624 39.0249C25.8957 38.8449 26.3757 38.7549 26.9023 38.7549C27.429 38.7549 27.909 38.8449 28.3423 39.0249C28.779 39.2049 29.1523 39.4582 29.4623 39.7849C29.7723 40.1082 30.0123 40.4949 30.1823 40.9449C30.3523 41.3916 30.4373 41.8832 30.4373 42.4199ZM29.4423 42.4199C29.4423 41.9799 29.3823 41.5849 29.2623 41.2349C29.1423 40.8849 28.9723 40.5899 28.7523 40.3499C28.5323 40.1066 28.2657 39.9199 27.9523 39.7899C27.639 39.6599 27.289 39.5949 26.9023 39.5949C26.519 39.5949 26.1707 39.6599 25.8574 39.7899C25.5441 39.9199 25.2757 40.1066 25.0524 40.3499C24.8324 40.5899 24.6624 40.8849 24.5424 41.2349C24.4224 41.5849 24.3624 41.9799 24.3624 42.4199C24.3624 42.8599 24.4224 43.2549 24.5424 43.6049C24.6624 43.9516 24.8324 44.2466 25.0524 44.4899C25.2757 44.7299 25.5441 44.9149 25.8574 45.0449C26.1707 45.1716 26.519 45.2349 26.9023 45.2349C27.289 45.2349 27.639 45.1716 27.9523 45.0449C28.2657 44.9149 28.5323 44.7299 28.7523 44.4899C28.9723 44.2466 29.1423 43.9516 29.2623 43.6049C29.3823 43.2549 29.4423 42.8599 29.4423 42.4199ZM41.5027 38.8349L39.2677 45.9999H38.3977L36.5827 40.5349C36.5661 40.4816 36.5494 40.4249 36.5327 40.3649C36.5194 40.3049 36.5044 40.2416 36.4877 40.1749C36.4711 40.2416 36.4544 40.3049 36.4377 40.3649C36.4211 40.4249 36.4044 40.4816 36.3877 40.5349L34.5627 45.9999H33.6927L31.4577 38.8349H32.2627C32.3494 38.8349 32.4211 38.8566 32.4777 38.8999C32.5377 38.9432 32.5761 38.9982 32.5927 39.0649L34.0727 44.0449C34.0961 44.1349 34.1177 44.2316 34.1377 44.3349C34.1611 44.4382 34.1827 44.5482 34.2027 44.6649C34.2261 44.5482 34.2494 44.4382 34.2727 44.3349C34.2994 44.2282 34.3277 44.1316 34.3577 44.0449L36.0427 39.0649C36.0627 39.0082 36.1011 38.9566 36.1577 38.9099C36.2177 38.8599 36.2894 38.8349 36.3727 38.8349H36.6527C36.7394 38.8349 36.8094 38.8566 36.8627 38.8999C36.9161 38.9432 36.9561 38.9982 36.9827 39.0649L38.6627 44.0449C38.6927 44.1316 38.7194 44.2249 38.7427 44.3249C38.7694 44.4249 38.7944 44.5299 38.8177 44.6399C38.8344 44.5299 38.8527 44.4249 38.8727 44.3249C38.8927 44.2249 38.9144 44.1316 38.9377 44.0449L40.4227 39.0649C40.4394 39.0049 40.4761 38.9516 40.5327 38.9049C40.5927 38.8582 40.6644 38.8349 40.7477 38.8349H41.5027ZM47.4893 45.2099L47.4843 45.9999H43.0693V38.8349H47.4843V39.6249H44.0393V42.0049H46.8293V42.7649H44.0393V45.2099H47.4893ZM51.3258 42.3049C51.6058 42.3049 51.8524 42.2716 52.0658 42.2049C52.2824 42.1349 52.4624 42.0382 52.6058 41.9149C52.7524 41.7882 52.8624 41.6382 52.9358 41.4649C53.0091 41.2916 53.0458 41.0999 53.0458 40.8899C53.0458 40.4632 52.9058 40.1416 52.6258 39.9249C52.3458 39.7082 51.9258 39.5999 51.3658 39.5999H50.3058V42.3049H51.3258ZM54.6358 45.9999H53.7758C53.5991 45.9999 53.4691 45.9316 53.3858 45.7949L51.5258 43.2349C51.4691 43.1549 51.4074 43.0982 51.3408 43.0649C51.2774 43.0282 51.1774 43.0099 51.0408 43.0099H50.3058V45.9999H49.3408V38.8349H51.3658C51.8191 38.8349 52.2108 38.8816 52.5408 38.9749C52.8708 39.0649 53.1424 39.1966 53.3558 39.3699C53.5724 39.5432 53.7324 39.7532 53.8358 39.9999C53.9391 40.2432 53.9908 40.5166 53.9908 40.8199C53.9908 41.0732 53.9508 41.3099 53.8708 41.5299C53.7908 41.7499 53.6741 41.9482 53.5208 42.1249C53.3708 42.2982 53.1858 42.4466 52.9658 42.5699C52.7491 42.6932 52.5024 42.7866 52.2258 42.8499C52.3491 42.9199 52.4558 43.0216 52.5458 43.1549L54.6358 45.9999ZM60.5303 45.2099L60.5253 45.9999H56.1103V38.8349H60.5253V39.6249H57.0803V42.0049H59.8703V42.7649H57.0803V45.2099H60.5303ZM68.5918 42.4199C68.5918 42.9566 68.5068 43.4449 68.3368 43.8849C68.1668 44.3249 67.9268 44.7016 67.6168 45.0149C67.3068 45.3282 66.9335 45.5716 66.4968 45.7449C66.0635 45.9149 65.5835 45.9999 65.0568 45.9999H62.3818V38.8349H65.0568C65.5835 38.8349 66.0635 38.9216 66.4968 39.0949C66.9335 39.2649 67.3068 39.5082 67.6168 39.8249C67.9268 40.1382 68.1668 40.5149 68.3368 40.9549C68.5068 41.3949 68.5918 41.8832 68.5918 42.4199ZM67.5968 42.4199C67.5968 41.9799 67.5368 41.5866 67.4168 41.2399C67.2968 40.8932 67.1268 40.5999 66.9068 40.3599C66.6868 40.1199 66.4201 39.9366 66.1068 39.8099C65.7935 39.6832 65.4435 39.6199 65.0568 39.6199H63.3518V45.2149H65.0568C65.4435 45.2149 65.7935 45.1516 66.1068 45.0249C66.4201 44.8982 66.6868 44.7166 66.9068 44.4799C67.1268 44.2399 67.2968 43.9466 67.4168 43.5999C67.5368 43.2532 67.5968 42.8599 67.5968 42.4199ZM76.0628 45.2299C76.3395 45.2299 76.5778 45.1982 76.7778 45.1349C76.9778 45.0716 77.1411 44.9832 77.2678 44.8699C77.3978 44.7532 77.4928 44.6166 77.5528 44.4599C77.6128 44.2999 77.6428 44.1249 77.6428 43.9349C77.6428 43.5649 77.5111 43.2732 77.2478 43.0599C76.9845 42.8432 76.5895 42.7349 76.0628 42.7349H74.5128V45.2299H76.0628ZM74.5128 39.5999V42.0449H75.7928C76.0661 42.0449 76.3028 42.0149 76.5028 41.9549C76.7061 41.8949 76.8728 41.8116 77.0028 41.7049C77.1361 41.5982 77.2345 41.4699 77.2978 41.3199C77.3611 41.1666 77.3928 40.9999 77.3928 40.8199C77.3928 40.3966 77.2661 40.0882 77.0128 39.8949C76.7595 39.6982 76.3661 39.5999 75.8328 39.5999H74.5128ZM75.8328 38.8349C76.2728 38.8349 76.6511 38.8782 76.9678 38.9649C77.2878 39.0516 77.5495 39.1749 77.7528 39.3349C77.9595 39.4949 78.1111 39.6916 78.2078 39.9249C78.3045 40.1549 78.3528 40.4149 78.3528 40.7049C78.3528 40.8816 78.3245 41.0516 78.2678 41.2149C78.2145 41.3749 78.1328 41.5249 78.0228 41.6649C77.9128 41.8049 77.7728 41.9316 77.6028 42.0449C77.4361 42.1549 77.2395 42.2449 77.0128 42.3149C77.5395 42.4149 77.9345 42.6032 78.1978 42.8799C78.4645 43.1532 78.5978 43.5132 78.5978 43.9599C78.5978 44.2632 78.5411 44.5399 78.4278 44.7899C78.3178 45.0399 78.1545 45.2549 77.9378 45.4349C77.7245 45.6149 77.4611 45.7549 77.1478 45.8549C76.8345 45.9516 76.4778 45.9999 76.0778 45.9999H73.5478V38.8349H75.8328ZM82.9683 43.1449V45.9999H81.9983V43.1449L79.3733 38.8349H80.2233C80.3099 38.8349 80.3783 38.8566 80.4283 38.8999C80.4783 38.9399 80.5216 38.9932 80.5583 39.0599L82.1983 41.8449C82.2583 41.9616 82.3133 42.0716 82.3633 42.1749C82.4133 42.2749 82.4566 42.3766 82.4933 42.4799C82.5299 42.3766 82.5716 42.2749 82.6183 42.1749C82.6649 42.0716 82.7166 41.9616 82.7733 41.8449L84.4083 39.0599C84.4383 39.0032 84.4799 38.9516 84.5333 38.9049C84.5866 38.8582 84.6549 38.8349 84.7383 38.8349H85.5933L82.9683 43.1449Z" fill="white"/>
<path d="M114.316 40.0368C114.285 40.0877 114.251 40.1267 114.214 40.1539C114.18 40.1776 114.137 40.1895 114.086 40.1895C114.029 40.1895 113.961 40.1607 113.882 40.1029C113.804 40.0452 113.706 39.9825 113.587 39.9146C113.471 39.8433 113.33 39.7788 113.163 39.7211C113 39.6634 112.801 39.6346 112.566 39.6346C112.345 39.6346 112.15 39.6651 111.98 39.7262C111.813 39.7839 111.672 39.8637 111.557 39.9655C111.444 40.0673 111.359 40.1878 111.301 40.3269C111.244 40.4627 111.215 40.6103 111.215 40.7699C111.215 40.9735 111.264 41.1432 111.363 41.2789C111.465 41.4113 111.597 41.525 111.761 41.62C111.927 41.7151 112.114 41.7982 112.322 41.8695C112.532 41.9374 112.747 42.0087 112.964 42.0833C113.185 42.158 113.4 42.2428 113.607 42.3379C113.818 42.4295 114.005 42.5466 114.168 42.6891C114.335 42.8317 114.467 43.0065 114.566 43.2135C114.668 43.4205 114.719 43.6751 114.719 43.9771C114.719 44.2962 114.665 44.5965 114.556 44.8782C114.447 45.1565 114.287 45.3992 114.076 45.6062C113.869 45.8133 113.612 45.9762 113.306 46.095C113.003 46.2138 112.658 46.2731 112.271 46.2731C111.795 46.2731 111.363 46.1883 110.975 46.0186C110.587 45.8455 110.256 45.613 109.98 45.3211L110.266 44.8528C110.293 44.8154 110.326 44.7849 110.363 44.7611C110.404 44.734 110.448 44.7204 110.496 44.7204C110.54 44.7204 110.589 44.7391 110.643 44.7764C110.701 44.8103 110.766 44.8545 110.837 44.9088C110.909 44.9631 110.99 45.0225 111.082 45.087C111.174 45.1514 111.278 45.2108 111.393 45.2651C111.512 45.3194 111.647 45.3653 111.796 45.4026C111.946 45.4365 112.114 45.4535 112.301 45.4535C112.536 45.4535 112.745 45.4213 112.929 45.3568C113.112 45.2923 113.267 45.2023 113.393 45.087C113.522 44.9682 113.621 44.8273 113.689 44.6644C113.757 44.5015 113.791 44.3199 113.791 44.1197C113.791 43.8991 113.74 43.7192 113.638 43.58C113.539 43.4375 113.408 43.3187 113.245 43.2237C113.082 43.1287 112.895 43.0489 112.684 42.9844C112.473 42.9165 112.259 42.8487 112.041 42.7808C111.823 42.7095 111.609 42.628 111.398 42.5364C111.188 42.4448 111.001 42.326 110.837 42.18C110.674 42.0341 110.541 41.8525 110.439 41.6353C110.341 41.4147 110.292 41.1432 110.292 40.8208C110.292 40.5628 110.341 40.3134 110.439 40.0724C110.541 39.8314 110.688 39.6176 110.878 39.4309C111.072 39.2443 111.308 39.0949 111.587 38.9829C111.869 38.8709 112.192 38.8149 112.556 38.8149C112.964 38.8149 113.335 38.8794 113.668 39.0084C114.005 39.1374 114.301 39.324 114.556 39.5684L114.316 40.0368Z" fill="white"/>
<path d="M120.878 43.2851V46.192H119.889V43.2851L117.211 38.8967H118.078C118.166 38.8967 118.236 38.9188 118.287 38.9629C118.338 39.0036 118.382 39.0579 118.42 39.1258L120.093 41.9614C120.154 42.0802 120.21 42.1922 120.261 42.2974C120.312 42.3993 120.356 42.5028 120.394 42.608C120.431 42.5028 120.474 42.3993 120.521 42.2974C120.569 42.1922 120.621 42.0802 120.679 41.9614L122.347 39.1258C122.378 39.0681 122.42 39.0155 122.475 38.968C122.529 38.9205 122.599 38.8967 122.684 38.8967H123.556L120.878 43.2851Z" fill="white"/>
<path d="M132.08 38.8967V46.192H131.585C131.507 46.192 131.441 46.1784 131.386 46.1513C131.335 46.1241 131.284 46.0783 131.233 46.0138L127.005 40.5156C127.012 40.6005 127.017 40.6836 127.02 40.7651C127.024 40.8465 127.025 40.9229 127.025 40.9942V46.192H126.158V38.8967H126.668C126.712 38.8967 126.75 38.9001 126.78 38.9069C126.811 38.9103 126.838 38.9188 126.862 38.9324C126.886 38.9425 126.91 38.9595 126.934 38.9833C126.957 39.0036 126.983 39.0308 127.01 39.0647L131.238 44.5578C131.232 44.4696 131.225 44.3847 131.218 44.3033C131.214 44.2184 131.213 44.1387 131.213 44.064V38.8967H132.08Z" fill="white"/>
<path d="M139.743 43.4836L138.596 40.5156C138.562 40.4274 138.526 40.3256 138.489 40.2102C138.451 40.0914 138.415 39.9658 138.382 39.8334C138.31 40.1084 138.237 40.3374 138.162 40.5207L137.015 43.4836H139.743ZM141.804 46.192H141.039C140.95 46.192 140.879 46.1699 140.825 46.1258C140.77 46.0817 140.729 46.0257 140.702 45.9578L140.019 44.1964H136.739L136.056 45.9578C136.035 46.0189 135.996 46.0732 135.938 46.1207C135.88 46.1682 135.809 46.192 135.724 46.192H134.959L137.882 38.8967H138.881L141.804 46.192Z" fill="white"/>
<path d="M147.09 42.6793C147.373 42.6793 147.621 42.6419 147.835 42.5673C148.052 42.4926 148.235 42.3891 148.381 42.2567C148.53 42.121 148.643 41.9597 148.717 41.7731C148.792 41.5864 148.83 41.3811 148.83 41.1571C148.83 40.6921 148.685 40.329 148.396 40.0676C148.11 39.8063 147.675 39.6756 147.09 39.6756H145.917V42.6793H147.09ZM147.09 38.8967C147.553 38.8967 147.954 38.951 148.294 39.0596C148.637 39.1648 148.921 39.3159 149.146 39.5127C149.37 39.7096 149.537 39.9472 149.646 40.2254C149.758 40.5037 149.814 40.8143 149.814 41.1571C149.814 41.4965 149.755 41.807 149.635 42.0887C149.516 42.3704 149.341 42.6131 149.11 42.8167C148.882 43.0204 148.598 43.1799 148.258 43.2953C147.922 43.4073 147.532 43.4633 147.09 43.4633H145.917V46.192H144.933V38.8967H147.09Z" fill="white"/>
<path d="M157.221 40.0368C157.191 40.0877 157.157 40.1267 157.119 40.1539C157.085 40.1776 157.043 40.1895 156.992 40.1895C156.934 40.1895 156.866 40.1607 156.788 40.1029C156.71 40.0452 156.611 39.9825 156.492 39.9146C156.376 39.8433 156.235 39.7788 156.069 39.7211C155.905 39.6634 155.706 39.6346 155.472 39.6346C155.251 39.6346 155.055 39.6651 154.885 39.7262C154.719 39.7839 154.578 39.8637 154.462 39.9655C154.35 40.0673 154.265 40.1878 154.207 40.3269C154.149 40.4627 154.12 40.6103 154.12 40.7699C154.12 40.9735 154.17 41.1432 154.268 41.2789C154.37 41.4113 154.503 41.525 154.666 41.62C154.833 41.7151 155.02 41.7982 155.227 41.8695C155.438 41.9374 155.652 42.0087 155.87 42.0833C156.091 42.158 156.305 42.2428 156.512 42.3379C156.723 42.4295 156.91 42.5466 157.073 42.6891C157.24 42.8317 157.373 43.0065 157.471 43.2135C157.573 43.4205 157.624 43.6751 157.624 43.9771C157.624 44.2962 157.57 44.5965 157.461 44.8782C157.352 45.1565 157.192 45.3992 156.982 45.6062C156.774 45.8133 156.517 45.9762 156.211 46.095C155.909 46.2138 155.564 46.2731 155.176 46.2731C154.7 46.2731 154.268 46.1883 153.88 46.0186C153.493 45.8455 153.161 45.613 152.886 45.3211L153.171 44.8528C153.199 44.8154 153.231 44.7849 153.268 44.7611C153.309 44.734 153.353 44.7204 153.401 44.7204C153.445 44.7204 153.495 44.7391 153.549 44.7764C153.607 44.8103 153.671 44.8545 153.743 44.9088C153.814 44.9631 153.896 45.0225 153.987 45.087C154.079 45.1514 154.183 45.2108 154.299 45.2651C154.418 45.3194 154.552 45.3653 154.702 45.4026C154.851 45.4365 155.02 45.4535 155.207 45.4535C155.441 45.4535 155.65 45.4213 155.834 45.3568C156.018 45.2923 156.172 45.2023 156.298 45.087C156.427 44.9682 156.526 44.8273 156.594 44.6644C156.662 44.5015 156.696 44.3199 156.696 44.1197C156.696 43.8991 156.645 43.7192 156.543 43.58C156.444 43.4375 156.313 43.3187 156.15 43.2237C155.987 43.1287 155.8 43.0489 155.589 42.9844C155.378 42.9165 155.164 42.8487 154.946 42.7808C154.729 42.7095 154.515 42.628 154.304 42.5364C154.093 42.4448 153.906 42.326 153.743 42.18C153.579 42.0341 153.447 41.8525 153.345 41.6353C153.246 41.4147 153.197 41.1432 153.197 40.8208C153.197 40.5628 153.246 40.3134 153.345 40.0724C153.447 39.8314 153.593 39.6176 153.783 39.4309C153.977 39.2443 154.214 39.0949 154.492 38.9829C154.775 38.8709 155.098 38.8149 155.462 38.8149C155.87 38.8149 156.24 38.8794 156.574 39.0084C156.91 39.1374 157.206 39.324 157.461 39.5684L157.221 40.0368Z" fill="white"/>
<path d="M165.953 45.3876L165.948 46.192H161.444V38.8967H165.948V39.7011H162.434V42.1244H165.28V42.8982H162.434V45.3876H165.953Z" fill="white"/>
<path d="M98.9548 38.7349L94.2393 41.4575L94.8059 42.4351L99.5214 39.7125L98.9548 38.7349Z" fill="white"/>
<path d="M99.2948 45.7192L94.5916 43.0212L94.0254 44.0046L98.7286 46.7026L99.2948 45.7192Z" fill="white"/>
<path d="M100.381 45.0839L100.383 39.6477L101.515 39.6482L101.513 45.0844L100.381 45.0839Z" fill="white"/>
<path fill-rule="evenodd" clip-rule="evenodd" d="M94.2309 44.6103C95.316 43.9837 95.6883 42.6004 95.0625 41.5205C94.4366 40.4407 93.0495 40.0732 91.9644 40.6997C90.8793 41.3262 90.507 42.7095 91.1329 43.7893C91.7588 44.8692 93.1458 45.2368 94.2309 44.6103ZM93.6639 43.6324C94.2067 43.3192 94.3926 42.6275 94.0797 42.0876C93.767 41.5477 93.0735 41.3639 92.5307 41.6772C91.9881 41.9905 91.8022 42.6821 92.1149 43.222C92.4278 43.7619 93.1214 43.9457 93.6639 43.6324Z" fill="white"/>
<path fill-rule="evenodd" clip-rule="evenodd" d="M102.075 40.0451C103.16 39.4185 103.532 38.0352 102.906 36.9553C102.28 35.8755 100.893 35.508 99.8082 36.1345C98.7231 36.761 98.3507 38.1443 98.9766 39.2241C99.6025 40.304 100.99 40.6716 102.075 40.0451ZM101.508 39.0672C102.051 38.754 102.237 38.0623 101.924 37.5224C101.611 36.9825 100.918 36.7987 100.375 37.112C99.8321 37.4253 99.6462 38.1169 99.9589 38.6568C100.272 39.1967 100.965 39.3805 101.508 39.0672Z" fill="white"/>
<path fill-rule="evenodd" clip-rule="evenodd" d="M102.072 40.0466C103.155 39.4162 103.526 38.0292 102.902 36.9487C102.277 35.8681 100.893 35.5031 99.8098 36.1333C98.7269 36.7636 98.3553 38.1506 98.9799 39.2311C99.6046 40.3117 100.989 40.6769 102.072 40.0466ZM101.506 39.0682C102.048 38.7531 102.233 38.0596 101.921 37.5193C101.609 36.979 100.917 36.7964 100.375 37.1116C99.8337 37.4268 99.6482 38.1202 99.9602 38.6605C100.272 39.2008 100.965 39.3834 101.506 39.0682Z" fill="white"/>
<path fill-rule="evenodd" clip-rule="evenodd" d="M99.6734 48.6931C100.756 49.3138 102.14 48.9365 102.766 47.8503C103.391 46.7642 103.021 45.3805 101.939 44.7598C100.856 44.1391 99.4717 44.5164 98.846 45.6026C98.2206 46.6888 98.591 48.0724 99.6734 48.6931ZM100.24 47.7099C100.781 48.0202 101.473 47.8315 101.786 47.2885C102.099 46.7454 101.914 46.0536 101.372 45.7432C100.831 45.4328 100.139 45.6215 99.826 46.1645C99.5132 46.7077 99.6985 47.3995 100.24 47.7099Z" fill="white"/>
<path fill-rule="evenodd" clip-rule="evenodd" d="M94.229 44.5956C95.3119 43.9653 95.6834 42.5783 95.0588 41.4977C94.4342 40.4172 93.0499 40.0521 91.967 40.6824C90.8841 41.3127 90.5125 42.6996 91.1371 43.7802C91.7618 44.8608 93.146 45.2259 94.229 44.5956ZM93.6633 43.6172C94.205 43.3022 94.3906 42.6086 94.0783 42.0684C93.7662 41.5281 93.0741 41.3455 92.5324 41.6607C91.9909 41.9759 91.8054 42.6693 92.1174 43.2096C92.4297 43.7499 93.1219 43.9324 93.6633 43.6172Z" fill="white"/>
</svg>
