<svg width="72" height="76" viewBox="0 0 72 76" fill="none" xmlns="http://www.w3.org/2000/svg">
<g clip-path="url(#clip0)">
<path d="M66.0108 13.771C66.0108 13.9423 66.0011 14.1136 65.9721 14.2848C66.0108 14.0415 66.0399 13.8071 66.0787 13.5637C66.0205 13.9693 65.9042 14.3479 65.7395 14.7265C65.8364 14.5102 65.9333 14.2938 66.0302 14.0775C65.9042 14.3569 65.7492 14.6183 65.5748 14.8797C65.4875 15.0059 65.3906 15.1231 65.3034 15.2493C65.129 15.5017 65.7492 14.7535 65.536 14.9789C65.4778 15.033 65.4294 15.0961 65.3713 15.1592C65.129 15.4206 64.8577 15.673 64.5863 15.9073C64.4507 16.0245 64.3053 16.1417 64.16 16.2498C64.1309 16.2679 63.9371 16.3941 63.9371 16.4211C63.9371 16.367 64.5669 15.9794 64.1115 16.2949C62.7258 17.2504 61.1753 17.9805 59.5958 18.6115C59.8284 18.5213 60.0609 18.4312 60.2935 18.3411C55.9813 20.0357 51.3299 20.9551 46.7076 21.541C46.9693 21.5049 47.2212 21.4779 47.4829 21.4418C39.8469 22.3883 32.0364 22.3883 24.4004 21.4328C24.6621 21.4689 24.914 21.4959 25.1757 21.5319C20.5921 20.946 15.9892 20.0266 11.7061 18.3681C11.9386 18.4582 12.1712 18.5484 12.4038 18.6385C10.7952 18.0075 9.22533 17.2684 7.81054 16.3039C7.31633 15.9614 8.28536 16.6645 7.82023 16.3039C7.67487 16.1958 7.52951 16.0786 7.39385 15.9614C7.11283 15.727 6.85119 15.4747 6.59924 15.2133C6.5411 15.1502 6.49265 15.0961 6.4345 15.033C6.17286 14.7626 6.66707 15.2854 6.65738 15.3124C6.66707 15.2763 6.41512 14.9879 6.38605 14.9428C6.20194 14.6724 6.0372 14.393 5.90153 14.1045C5.99844 14.3209 6.09534 14.5372 6.19225 14.7535C6.02751 14.384 5.91123 13.9964 5.84339 13.5998C5.88215 13.8431 5.91122 14.0775 5.94999 14.3209C5.90153 13.9603 5.90153 13.5908 5.94999 13.2302C5.91122 13.4736 5.88215 13.7079 5.84339 13.9513C5.90154 13.5637 6.01782 13.1851 6.18256 12.8156C6.08565 13.0319 5.98875 13.2482 5.89184 13.4646C6.00813 13.2032 6.15348 12.9508 6.31822 12.7074C6.40543 12.5722 6.51203 12.437 6.60893 12.3108C6.75429 12.1215 7.01592 11.9052 6.3376 12.6353C6.38605 12.5812 6.4345 12.5271 6.48296 12.464C6.70583 12.2116 6.95778 11.9773 7.20973 11.7519C7.35509 11.6257 7.50044 11.4996 7.65549 11.3734C7.79115 11.2652 8.3532 10.8596 7.8493 11.2201C7.33571 11.5897 7.9462 11.157 8.08186 11.0669C8.25629 10.9587 8.43072 10.8415 8.60514 10.7424C8.97338 10.517 9.3513 10.3097 9.73892 10.1114C10.611 9.66073 11.5026 9.26412 12.4231 8.90357C12.1906 8.9937 11.958 9.08384 11.7254 9.17398C16.0086 7.50642 20.6212 6.58701 25.2047 6.01013C24.9431 6.04618 24.6911 6.07322 24.4295 6.10928C30.4472 5.36113 36.5715 5.21691 42.6183 5.63155C44.256 5.74873 45.8936 5.90196 47.5313 6.10928C47.2697 6.07322 47.0177 6.04618 46.7561 6.01013C51.3396 6.58701 55.9425 7.50642 60.2257 9.17398C59.9931 9.08384 59.7605 8.9937 59.528 8.90357C60.4292 9.25511 61.311 9.6427 62.1637 10.0844C62.5514 10.2827 62.9293 10.499 63.2975 10.7153C63.4913 10.8325 63.6754 10.9497 63.8596 11.0669C64.0049 11.157 64.596 11.5807 64.0921 11.2201C63.5785 10.8506 64.16 11.2832 64.2859 11.3734C64.4313 11.4815 64.567 11.5987 64.7026 11.7249C64.9546 11.9502 65.2065 12.1846 65.4294 12.437C65.4875 12.5001 65.536 12.5812 65.6038 12.6353C65.5748 12.6173 65.0709 11.9683 65.3325 12.3108C65.4197 12.437 65.5166 12.5542 65.6038 12.6804C65.7686 12.9328 65.9236 13.1942 66.0399 13.4646C65.943 13.2482 65.8461 13.0319 65.7492 12.8156C65.9139 13.1761 66.0302 13.5547 66.0883 13.9513C66.0496 13.7079 66.0205 13.4736 65.9818 13.2302C65.9914 13.4105 66.0011 13.5908 66.0108 13.771C66.0205 15.1862 67.3384 16.5383 68.9179 16.4752C70.4878 16.4121 71.8347 15.2854 71.825 13.771C71.796 10.1565 68.792 7.46135 65.6717 5.7307C61.5726 3.4502 56.7662 2.19727 52.1148 1.37701C45.9712 0.286341 39.6821 -0.128295 33.4415 0.0339535C27.5013 0.187189 21.4836 0.818157 15.7276 2.23333C11.4153 3.29696 7.00624 4.81129 3.56616 7.52445C2.17075 8.62414 1.08543 10.0123 0.465245 11.6077C-0.300293 13.5908 0.135772 15.9253 1.34707 17.674C3.00412 20.0357 5.64959 21.6762 8.35319 22.848C11.0956 24.0468 13.9833 24.9302 16.9292 25.5972C23.2279 27.0033 29.7883 27.5622 36.2517 27.5442C42.7443 27.5261 49.324 26.9312 55.6228 25.453C58.3942 24.804 61.1075 23.9386 63.6851 22.7939C66.3597 21.6131 69.0342 19.9545 70.6234 17.5659C71.3793 16.4301 71.7863 15.1141 71.8153 13.771C71.8444 12.3559 70.4587 11.0038 68.9082 11.0669C67.319 11.139 66.0302 12.2567 66.0108 13.771Z" fill="#DDDDDF"/>
<path d="M65.9913 14.1948C65.9913 16.0246 65.9913 17.8634 65.9913 19.6932C65.9913 22.5867 65.9913 25.4801 65.9913 28.3736C65.9913 29.0406 66.0688 29.7617 65.9816 30.4287C66.0204 30.1853 66.0495 29.951 66.0882 29.7076C66.0204 30.1042 65.9041 30.4918 65.7394 30.8704C65.8363 30.6541 65.9332 30.4377 66.0301 30.2214C65.9041 30.5008 65.7491 30.7622 65.5746 31.0236C65.5456 31.0687 65.2549 31.4112 65.2645 31.4383C65.2549 31.4202 65.7491 30.8884 65.4874 31.1679C65.4293 31.2309 65.3808 31.285 65.3227 31.3481C65.0707 31.6095 64.8091 31.8619 64.5281 32.0963C64.373 32.2315 64.2083 32.3577 64.0436 32.4839C64.0048 32.5109 63.8207 32.6101 63.8207 32.6551C63.8304 32.574 64.4312 32.2315 63.9951 32.5289C62.6288 33.4574 61.1074 34.1695 59.5569 34.7824C59.7895 34.6923 60.0221 34.6021 60.2546 34.512C55.9424 36.1976 51.3104 37.108 46.6978 37.6939C46.9595 37.6578 47.2114 37.6308 47.4731 37.5947C41.5232 38.3339 35.4861 38.4781 29.4974 38.0725C27.8695 37.9643 26.2415 37.802 24.6135 37.6037C24.8751 37.6398 25.1271 37.6668 25.3887 37.7029C20.6889 37.108 15.96 36.1705 11.5703 34.4489C11.8029 34.539 12.0354 34.6292 12.268 34.7193C11.3668 34.3678 10.3784 33.7638 9.39965 33.7638C9.88416 33.89 10.3784 34.0072 10.8629 34.1334C10.1555 33.7999 9.4481 33.4393 8.77946 33.0427C8.46937 32.8625 8.16897 32.6732 7.87826 32.4749C7.25808 32.0512 8.25618 32.7723 7.87826 32.4839C7.75229 32.3847 7.62631 32.2856 7.50034 32.1864C7.26777 31.9971 7.0352 31.7898 6.81232 31.5825C6.70573 31.4833 6.60882 31.3752 6.51192 31.276C6.4344 31.1949 6.06616 30.7622 6.42471 31.1949C6.77356 31.6185 6.4344 31.1949 6.36656 31.1048C6.28904 30.9966 6.22121 30.8884 6.14369 30.7803C5.99833 30.5549 5.87236 30.3206 5.76576 30.0772C5.86267 30.2935 5.95957 30.5098 6.05647 30.7262C5.89174 30.3476 5.78514 29.969 5.71731 29.5724C5.75607 29.8158 5.78514 30.0501 5.8239 30.2935C5.75607 29.7617 5.81421 29.1848 5.81421 28.644C5.81421 27.355 5.81421 26.066 5.81421 24.777C5.81421 21.8746 5.81421 18.9721 5.81421 16.0697C5.81421 15.3936 5.81421 14.7266 5.81421 14.0506C3.87614 14.0506 1.93807 14.0506 0 14.0506C0.184117 15.4297 0.591112 16.7277 1.46324 17.8815C2.44197 19.1704 3.59512 20.1529 4.96146 21.0724C7.64569 22.8932 10.9113 24.0109 14.0704 24.9032C13.3921 24.2723 12.7137 23.6413 12.0354 23.0103C12.4327 24.5427 14.2061 25.1917 15.7274 25.2998C15.4658 25.2638 15.2139 25.2368 14.9522 25.2007C15.1363 25.2368 15.3011 25.2728 15.4852 25.3179C16.3864 25.5522 17.2973 25.3539 18.0241 24.8311C18.7896 24.2813 19.09 23.5872 19.1675 22.7039C19.1675 22.6948 19.1675 22.6948 19.1675 22.6858C17.9368 23.5512 16.7159 24.4255 15.4852 25.2908C16.0182 25.408 16.5511 25.4982 17.1035 25.5612C16.8418 25.5252 16.5899 25.4982 16.3283 25.4621C17.3845 25.7325 18.5473 25.9849 19.5551 25.417C18.809 25.5072 18.0628 25.5973 17.3167 25.6874C25.0399 27.346 33.0926 27.8327 40.9902 27.4271C45.1377 27.2108 49.2948 26.7511 53.3648 25.9488C56.9987 25.2368 60.5841 24.2182 63.9273 22.7039C65.8072 21.8475 67.6581 20.7569 69.1213 19.3507C69.7803 18.7107 70.4004 17.9896 70.8462 17.2054C71.4082 16.2049 71.6505 15.3035 71.8055 14.2038C71.8928 13.5638 71.4179 12.7255 70.9528 12.2929C70.4489 11.8242 69.6252 11.4726 68.8984 11.4997C68.1426 11.5267 67.3674 11.7611 66.8441 12.2929C66.282 12.8427 66.0979 13.4376 65.9913 14.1948C65.9913 14.2309 65.9816 14.2579 65.9816 14.294C66.0204 14.0506 66.0495 13.8162 66.0882 13.5728C66.0204 13.9785 65.9041 14.3571 65.7394 14.7356C65.8363 14.5193 65.9332 14.303 66.0301 14.0866C65.9041 14.3661 65.7491 14.6275 65.5746 14.8889C65.4874 15.0151 65.3905 15.1322 65.3033 15.2584C65.1289 15.5108 65.7491 14.7627 65.5359 14.988C65.4777 15.0421 65.4293 15.1052 65.3711 15.1683C65.1289 15.4297 64.8672 15.6821 64.5862 15.9164C64.4506 16.0336 64.3052 16.1508 64.1598 16.259C64.0823 16.3131 64.0145 16.3762 63.937 16.4302C63.5687 16.7097 64.4021 16.1147 64.1114 16.304C62.6772 17.2505 61.1461 18.0077 59.5279 18.6476C59.7604 18.5575 59.993 18.4674 60.2256 18.3772C55.9327 20.0538 51.3104 20.9732 46.7075 21.5501C46.9692 21.514 47.2211 21.487 47.4827 21.4509C39.8467 22.3974 32.0363 22.3974 24.4003 21.4419C24.662 21.478 24.9139 21.505 25.1755 21.5411C23.9739 21.3878 22.7626 21.2076 21.5707 21.0002C21.0184 20.9011 20.4757 20.8019 19.9331 20.6938C18.8284 20.4774 17.6849 20.1439 16.6287 20.7479C17.3748 20.6577 18.121 20.5676 18.8671 20.4774C18.2566 20.3422 17.6171 20.1439 16.9872 20.1439C17.2488 20.18 17.5008 20.207 17.7624 20.2431C17.5299 20.171 17.2876 20.1349 17.0453 20.0808C16.1248 19.8825 15.2623 20.0268 14.5065 20.5676C13.7409 21.1174 13.4405 21.8115 13.363 22.6948C13.363 22.7039 13.363 22.7039 13.363 22.7129C14.5937 21.8475 15.8147 20.9732 17.0453 20.1079C16.5705 19.9907 16.0569 19.8825 15.5627 19.8825C15.8244 19.9186 16.0763 19.9456 16.3379 19.9817C16.1054 19.8915 15.8728 19.8104 15.6402 19.7383C16.3186 20.3693 16.9969 21.0002 17.6752 21.6312C17.3457 20.4865 16.4252 19.9186 15.272 19.5851C14.865 19.4679 14.4483 19.3417 14.0413 19.2155C13.2176 18.9541 12.4037 18.6657 11.5994 18.3592C11.8319 18.4493 12.0645 18.5395 12.2971 18.6296C11.454 18.2961 10.6206 17.9355 9.81633 17.5209C9.42872 17.3226 9.05079 17.1153 8.68256 16.8899C8.50813 16.7818 8.33371 16.6736 8.15928 16.5654C7.96547 16.4392 7.35498 15.9705 8.08176 16.5294C7.51972 16.0967 6.97706 15.655 6.50223 15.1413C6.49254 15.1232 6.33749 14.97 6.33749 14.961C6.34718 14.952 6.79294 15.5379 6.57006 15.2404C6.47316 15.1052 6.36656 14.97 6.26966 14.8258C6.09523 14.5734 5.94988 14.303 5.8239 14.0326C5.92081 14.2489 6.01771 14.4652 6.11462 14.6816C5.9305 14.2759 5.80452 13.8613 5.73669 13.4286C5.77545 13.672 5.80452 13.9064 5.84329 14.1497C5.84329 14.1137 5.83359 14.0866 5.83359 14.0506C5.73669 13.3024 5.57195 12.6895 4.98084 12.1396C4.47694 11.6709 3.65326 11.3194 2.92649 11.3464C1.34696 11.4095 0.0193804 12.5363 0.0193804 14.0506C0.0193804 16.7818 0.0193804 19.522 0.0193804 22.2532C0.0193804 24.11 0.0193804 25.9579 0.0193804 27.8147C0.0193804 28.8964 -0.0484518 29.978 0.145355 31.0507C0.445756 32.7813 1.58922 34.3678 2.90711 35.5756C3.70172 36.3057 4.60292 36.9367 5.53319 37.5136C5.96926 37.784 6.40533 38.0274 6.86077 38.2708C7.64569 38.6764 8.49844 39.1721 9.41903 39.1721C8.93451 39.0459 8.4403 38.9288 7.95578 38.8026C14.3514 41.669 21.5223 42.8588 28.5478 43.4086C36.6392 44.0486 44.9051 43.6881 52.8706 42.1918C56.1847 41.5698 59.4019 40.6865 62.5125 39.4516C64.0436 38.8476 65.5359 38.1446 66.8925 37.2432C68.4333 36.2156 69.8965 35.0077 70.8268 33.4393C71.4082 32.4568 71.8055 31.3481 71.8346 30.2214C71.8443 29.8158 71.8346 29.4011 71.8346 28.9865C71.8346 27.3009 71.8346 25.6153 71.8346 23.9297C71.8346 20.7479 71.8346 17.575 71.8346 14.3931C71.8346 14.33 71.8346 14.2669 71.8346 14.2038C71.8346 12.7886 70.4973 11.4366 68.9275 11.4997C67.3189 11.5537 65.9913 12.6805 65.9913 14.1948Z" fill="#DDDDDF"/>
<path d="M65.9917 30.3294C65.9917 32.1592 65.9917 33.998 65.9917 35.8278C65.9917 38.7213 65.9917 41.6147 65.9917 44.5082C65.9917 45.1752 66.0692 45.8963 65.982 46.5633C66.0208 46.32 66.0499 46.0856 66.0886 45.8422C66.0208 46.2388 65.9045 46.6264 65.7398 47.005C65.8367 46.7887 65.9336 46.5723 66.0305 46.356C65.9045 46.6354 65.7495 46.8968 65.575 47.1582C65.546 47.2033 65.2552 47.5458 65.2649 47.5729C65.2552 47.5548 65.7495 47.023 65.4878 47.3025C65.4297 47.3656 65.3812 47.4196 65.3231 47.4827C65.0711 47.7441 64.8095 47.9965 64.5285 48.2309C64.3734 48.3661 64.2087 48.4923 64.044 48.6185C64.0052 48.6455 63.8211 48.7447 63.8211 48.7897C63.8308 48.7086 64.4316 48.3661 63.9955 48.6635C62.6292 49.583 61.1078 50.3041 59.5573 50.917C59.7899 50.8269 60.0225 50.7367 60.255 50.6466C55.9525 52.3322 51.3205 53.2516 46.7176 53.8285C46.9792 53.7924 47.2312 53.7654 47.4928 53.7293C41.5139 54.4685 35.4477 54.6127 29.43 54.2071C27.7633 54.0989 26.1062 53.9366 24.4589 53.7293C24.7205 53.7654 24.9724 53.7924 25.2341 53.8285C20.6118 53.2426 15.9604 52.3232 11.6482 50.6466C11.8808 50.7367 12.1133 50.8269 12.3459 50.917C10.7664 50.2951 9.25469 49.5559 7.85927 48.6275C7.5298 48.4021 8.08215 48.7537 8.09184 48.7988C8.08215 48.7537 7.90773 48.6635 7.86896 48.6275C7.70423 48.5013 7.54918 48.3751 7.39414 48.2399C7.11312 48.0055 6.85148 47.7531 6.59953 47.4917C6.5317 47.4196 6.46386 47.3385 6.39603 47.2664C6.17315 47.0501 6.80303 47.7892 6.61891 47.5458C6.52201 47.4106 6.40572 47.2754 6.30882 47.1312C6.1247 46.8608 5.96966 46.5813 5.8243 46.2839C5.9212 46.5002 6.01811 46.7166 6.11501 46.9329C5.93089 46.5273 5.80492 46.1126 5.73709 45.68C5.77585 45.9233 5.80492 46.1577 5.84368 46.4011C5.77585 45.8693 5.83399 45.2924 5.83399 44.7515C5.83399 43.4626 5.83399 42.1736 5.83399 40.8846C5.83399 37.9822 5.83399 35.0887 5.83399 32.1863C5.83399 31.5102 5.83399 30.8432 5.83399 30.1672C3.89592 30.1672 1.95785 30.1672 0.0197754 30.1672C0.174821 31.2939 0.42677 32.2403 1.00819 33.2589C1.47333 34.0702 2.12258 34.8273 2.8106 35.4763C3.60521 36.2245 4.52579 36.8735 5.45607 37.4594C5.91151 37.7388 6.37665 38.0092 6.85148 38.2526C7.62671 38.6582 8.49884 39.154 9.40973 39.154C8.92521 39.0278 8.431 38.9106 7.94649 38.7844C11.4738 40.3708 15.253 41.4254 19.0807 42.1465C23.7805 43.0389 28.5869 43.5076 33.374 43.6428C38.4614 43.778 43.5198 43.5166 48.5588 42.8677C52.6384 42.3449 56.7084 41.5336 60.5651 40.1815C65.139 38.5771 70.7497 35.9901 71.7284 31.0505C71.8738 30.3204 71.8447 29.6263 71.4377 28.9683C71.0889 28.4095 70.3911 27.8686 69.7031 27.7244C68.2786 27.427 66.4181 28.121 66.1274 29.6173C66.0402 30.077 65.9239 30.5187 65.7398 30.9514C65.8367 30.735 65.9336 30.5187 66.0305 30.3024C65.8851 30.6088 65.7107 30.8973 65.5072 31.1767C65.4587 31.2398 65.4103 31.3029 65.3715 31.366C65.2068 31.6184 65.8173 30.8702 65.6041 31.0956C65.4878 31.2128 65.3812 31.339 65.2746 31.4561C65.013 31.7266 64.7417 31.9699 64.451 32.2133C64.3056 32.3305 64.1602 32.4477 64.0052 32.5558C63.7048 32.7812 64.1893 32.4296 64.2378 32.3846C64.1506 32.4657 64.0246 32.5288 63.9277 32.5919C62.571 33.4933 61.069 34.1873 59.5379 34.7913C59.7705 34.7011 60.0031 34.611 60.2356 34.5208C55.9331 36.1974 51.3011 37.1168 46.6885 37.6937C46.9502 37.6577 47.2021 37.6306 47.4638 37.5946C41.5236 38.3337 35.4962 38.4509 29.5269 38.0453C27.8989 37.9371 26.271 37.7748 24.643 37.5765C24.9046 37.6126 25.1566 37.6396 25.4182 37.6757C20.7184 37.0808 15.9895 36.1433 11.5998 34.4217C11.8323 34.5118 12.0649 34.602 12.2975 34.6921C11.3963 34.3406 10.4078 33.7366 9.42911 33.7366C9.91363 33.8628 10.4078 33.98 10.8924 34.1062C10.185 33.7727 9.47756 33.4121 8.80893 33.0155C8.49884 32.8353 8.19844 32.646 7.90773 32.4477C7.28754 32.024 8.28565 32.7451 7.90773 32.4567C7.78175 32.3575 7.65578 32.2584 7.5298 32.1592C7.29723 31.9699 7.06467 31.7626 6.84179 31.5553C6.73519 31.4561 6.63829 31.348 6.54139 31.2488C6.46386 31.1677 6.09563 30.735 6.45417 31.1677C6.80303 31.5913 6.46386 31.1677 6.39603 31.0776C6.31851 30.9694 6.25067 30.8612 6.17315 30.7531C6.0278 30.5277 5.90182 30.2934 5.79523 30.05C5.89213 30.2663 5.98904 30.4826 6.08594 30.699C5.9212 30.3204 5.81461 29.9418 5.74678 29.5452C5.78554 29.7886 5.81461 30.0229 5.85337 30.2663C5.85337 30.2303 5.84368 30.2032 5.84368 30.1672C5.74678 29.419 5.58204 28.8061 4.99093 28.2562C4.48703 27.7875 3.66335 27.436 2.93657 27.463C1.35705 27.5261 0.0294663 28.6528 0.0294663 30.1672C0.0294663 31.8888 0.0294663 33.6014 0.0294663 35.3231C0.0294663 38.1805 0.0294663 41.0378 0.0294663 43.8952C0.0294663 44.6524 0.019776 45.4096 0.0294663 46.1667C0.0682278 48.1137 1.14386 49.8984 2.49082 51.3226C4.23508 53.1705 6.68674 54.4775 9.08995 55.451C11.3769 56.3794 13.7219 57.1275 16.1348 57.6954C21.794 59.0385 27.6761 59.6514 33.5096 59.7956C39.663 59.9489 45.8455 59.5523 51.9019 58.4976C54.3245 58.074 56.7277 57.5332 59.0728 56.8121C61.4566 56.0729 63.8502 55.1805 65.9917 53.9366C68.4143 52.5305 70.614 50.6466 71.5346 48.0686C71.835 47.2123 71.8447 46.365 71.8447 45.4907C71.8447 42.8857 71.8447 40.2897 71.8447 37.6847C71.8447 35.3681 71.8447 33.0426 71.8447 30.726C71.8447 30.5908 71.8447 30.4646 71.8447 30.3294C71.8447 28.9142 70.5074 27.5622 68.9376 27.6253C67.3193 27.6884 65.9917 28.8151 65.9917 30.3294Z" fill="#DDDDDF"/>
<path d="M65.9915 62.1935C65.9915 62.3737 65.9721 62.563 65.9528 62.7433C65.9915 62.4999 66.0206 62.2656 66.0593 62.0222C66.0012 62.4098 65.8849 62.7884 65.7202 63.158C65.8171 62.9416 65.914 62.7253 66.0109 62.509C65.8946 62.7704 65.7493 63.0227 65.5942 63.2661C65.507 63.4013 65.4004 63.5365 65.3035 63.6627C65.1581 63.852 64.8965 64.0683 65.5748 63.3382C65.5264 63.3923 65.4779 63.4464 65.4295 63.5095C65.2066 63.7619 64.9643 63.9962 64.7027 64.2216C64.5573 64.3478 64.412 64.474 64.2569 64.6002C64.1213 64.7083 63.5689 65.114 64.0631 64.7534C64.5767 64.3838 63.9662 64.8165 63.8306 64.9066C63.6561 65.0148 63.4817 65.132 63.3073 65.2311C62.939 65.4565 62.5611 65.6638 62.1735 65.8621C61.3111 66.3128 60.4099 66.7094 59.499 67.07C59.7315 66.9798 59.9641 66.8897 60.1967 66.7995C55.9232 68.4671 51.3203 69.3865 46.7368 69.9634C46.9984 69.9273 47.2504 69.9003 47.512 69.8642C41.4943 70.6124 35.3797 70.7566 29.3232 70.342C27.6758 70.2248 26.0382 70.0716 24.4102 69.8642C24.6718 69.9003 24.9238 69.9273 25.1854 69.9634C20.5534 69.3775 15.9021 68.4491 11.5802 66.7545C11.8127 66.8446 12.0453 66.9348 12.2779 67.0249C11.3864 66.6734 10.5045 66.2858 9.65179 65.8351C9.26418 65.6368 8.88625 65.4204 8.51802 65.1951C8.34359 65.0869 8.16917 64.9787 7.99474 64.8706C7.76217 64.7173 7.14199 64.2216 8.02381 64.9066C7.46177 64.465 6.90942 64.0323 6.43459 63.5005C6.38614 63.4464 6.33769 63.3923 6.28924 63.3292C6.0276 63.0498 6.78344 63.9602 6.56057 63.6537C6.46366 63.5185 6.35707 63.3923 6.26986 63.2571C6.10512 63.0137 5.96946 62.7613 5.84348 62.4999C5.94038 62.7163 6.03729 62.9326 6.13419 63.1489C5.96946 62.7884 5.85317 62.4098 5.79503 62.0132C5.83379 62.2566 5.86286 62.4909 5.90162 62.7343C5.83379 62.2295 5.79503 61.7248 5.7272 61.229C5.76596 61.4724 5.79503 61.7067 5.83379 61.9501C5.83379 60.1834 5.83379 58.4167 5.83379 56.65C5.83379 53.8467 5.83379 51.0434 5.83379 48.2491C5.83379 47.6001 5.83379 46.9511 5.83379 46.3021C3.89572 46.3021 1.95765 46.3021 0.0195772 46.3021C0.194004 47.582 0.533167 48.7538 1.28901 49.8625C1.97703 50.8721 2.85885 51.7915 3.86665 52.5397C6.03729 54.1531 8.45019 55.2709 11.0375 56.2083C15.8052 57.9299 20.9023 58.7772 25.9703 59.3181C31.8039 59.94 37.7247 60.0031 43.5874 59.5434C48.8493 59.1288 54.1596 58.3536 59.1792 56.7852C61.7665 55.9829 64.3829 54.9914 66.6408 53.5402C68.0652 52.6298 69.2862 51.6112 70.3134 50.3132C71.2243 49.1595 71.641 47.8795 71.8348 46.4824C69.8967 46.4824 67.9586 46.4824 66.0206 46.4824C66.0206 48.231 66.0206 49.9887 66.0206 51.7374C66.0206 54.4957 66.0206 57.2539 66.0206 60.0121C65.9915 60.7332 65.9915 61.4634 65.9915 62.1935C65.9915 63.6086 67.3288 64.9607 68.8986 64.8976C70.4781 64.8345 71.8057 63.7078 71.8057 62.1935C71.8057 60.3907 71.8057 58.5789 71.8057 56.7762C71.8057 53.9909 71.8057 51.2146 71.8057 48.4294C71.8057 47.7804 71.8057 47.1314 71.8057 46.4824C71.8057 45.0672 70.4685 43.7151 68.8986 43.7782C68.1428 43.8053 67.3675 44.0396 66.8443 44.5714C66.2822 45.1393 66.0981 45.7252 65.9915 46.4824C65.9915 46.5184 65.9818 46.5455 65.9818 46.5815C66.0206 46.3381 66.0497 46.1038 66.0884 45.8604C66.0206 46.257 65.9043 46.6446 65.7396 47.0232C65.8365 46.8069 65.9334 46.5905 66.0303 46.3742C65.9043 46.6536 65.7493 46.915 65.5748 47.1764C65.5458 47.2215 65.2551 47.564 65.2647 47.5911C65.2551 47.573 65.7493 47.0412 65.4876 47.3206C65.4295 47.3837 65.381 47.4378 65.3229 47.5009C65.0709 47.7623 64.8093 48.0147 64.5283 48.2491C64.3732 48.3843 64.2085 48.5105 64.0438 48.6367C64.005 48.6637 63.8209 48.7629 63.8112 48.8079C63.8306 48.7268 64.4217 48.3843 63.9856 48.6817C62.6193 49.6011 61.0979 50.3223 59.5474 50.9352C59.78 50.8451 60.0126 50.7549 60.2451 50.6648C55.9426 52.3504 51.3106 53.2698 46.698 53.8467C46.9597 53.8106 47.2116 53.7836 47.4732 53.7475C41.4943 54.4866 35.4281 54.6309 29.4104 54.2252C27.7534 54.1171 26.0963 53.9548 24.4393 53.7475C24.7009 53.7836 24.9529 53.8106 25.2145 53.8467C20.5922 53.2608 15.9505 52.3414 11.6383 50.6648C11.8709 50.7549 12.1034 50.8451 12.336 50.9352C10.7565 50.3132 9.24479 49.5741 7.84938 48.6457C7.51991 48.4203 8.07226 48.7719 8.08195 48.8169C8.07226 48.7719 7.89784 48.6817 7.85908 48.6457C7.69434 48.5195 7.53929 48.3933 7.38425 48.2581C7.10323 48.0237 6.84159 47.7713 6.58964 47.5099C6.52181 47.4378 6.45397 47.3567 6.38614 47.2846C6.16326 47.0683 6.79314 47.8074 6.60902 47.564C6.51212 47.4288 6.39583 47.2936 6.29893 47.1494C6.11481 46.879 5.95976 46.5995 5.81441 46.3021C5.91131 46.5184 6.00822 46.7347 6.10512 46.9511C5.921 46.5455 5.79503 46.1308 5.7272 45.6982C5.76596 45.9415 5.79503 46.1759 5.83379 46.4193C5.83379 46.3832 5.8241 46.3562 5.8241 46.3201C5.7272 45.572 5.56246 44.959 4.97135 44.4092C4.46745 43.9405 3.64377 43.5889 2.91699 43.616C1.33747 43.6791 0.0098877 44.8058 0.0098877 46.3201C0.0098877 48.1139 0.0098877 49.9166 0.0098877 51.7104C0.0098877 54.5317 0.0098877 57.3621 0.0098877 60.1834C0.0098877 61.1298 0.00988711 62.0042 0.145552 62.9416C0.106791 62.6983 0.077719 62.4639 0.0389576 62.2205C0.0680286 66.2948 3.84727 69.1702 7.42301 70.8828C12.6849 73.4067 18.5863 74.5695 24.4102 75.2906C31.271 76.1379 38.2674 76.228 45.1476 75.552C51.2622 74.9571 57.3477 73.8664 62.9875 71.5318C65.0128 70.6935 66.9509 69.6299 68.5982 68.2418C69.9839 67.079 71.2243 65.5015 71.6119 63.7709C71.7282 63.2571 71.8057 62.7253 71.8154 62.2025C71.8251 60.7873 70.4685 59.4352 68.9083 59.4983C67.3094 59.5524 66.0012 60.6701 65.9915 62.1935Z" fill="#DDDDDF"/>
</g>
<defs>
<clipPath id="clip0">
<rect width="71.25" height="76" fill="white"/>
</clipPath>
</defs>
</svg>
