<svg width="1440" height="90" viewBox="0 0 1440 90" fill="none" xmlns="http://www.w3.org/2000/svg">
<g clip-path="url(#clip0)">
<path fill-rule="evenodd" clip-rule="evenodd" d="M-148 363V-237H1533V363H-148Z" fill="url(#paint0_linear)"/>
<g opacity="0.8">
<g opacity="0.8">
<path opacity="0.8" d="M-80.4443 2.89046L-39.2452 -31.8457L-38.9195 -31.6827L35.8253 25.396L35.4995 26.0476L-80.4443 2.89046ZM-39.2452 -30.8673L-78.816 2.4014L33.8712 24.9069L-39.2452 -30.8673Z" fill="#55668A"/>
<path opacity="0.8" d="M35.1741 26.5371V25.7216L31.4287 -140.294L31.9172 -140.131L179.29 -106.536L35.1741 26.5371ZM32.2428 -139.315L35.8255 24.9073L177.661 -106.21L32.2428 -139.315Z" fill="#55668A"/>
<path opacity="0.8" d="M191.34 97.1517L244.752 25.8853L245.079 26.2117L298.979 87.0403L191.34 97.1517ZM244.752 27.1898L192.969 96.1724L297.35 86.3874L244.752 27.1898Z" fill="#55668A"/>
<path opacity="0.8" d="M83.3755 119.331L177.499 27.3525L192.643 96.988H192.317L83.3755 119.331ZM177.01 28.821L85.8181 117.862L191.666 96.3363L177.01 28.821Z" fill="#55668A"/>
<path opacity="0.8" d="M1192.33 3.54227L1192.5 2.72675L1217.9 -86.9668L1262.02 -28.584L1261.54 -28.421L1192.33 3.54227ZM1218.23 -85.336L1193.47 2.0751L1260.72 -29.0733L1218.23 -85.336Z" fill="#55668A"/>
<path opacity="0.8" d="M1027.37 146.075L1017.44 88.1821L1061.25 114.111L1027.37 146.075ZM1018.58 89.8119L1027.86 144.608L1059.94 114.438L1018.58 89.8119Z" fill="#55668A"/>
<path opacity="0.8" d="M1192.99 3.86882L1157.16 -71.8002L1157.65 -71.9634L1218.55 -86.8037L1218.39 -86.1514L1192.99 3.86882ZM1158.3 -71.311L1192.82 1.74873L1217.58 -85.499L1158.3 -71.311Z" fill="#55668A"/>
<path opacity="0.8" d="M987.478 142.162L1018.26 87.856L1028.19 145.749L987.478 142.162ZM1017.93 90.1387L988.78 141.346L1027.21 144.771L1017.93 90.1387Z" fill="#55668A"/>
<path opacity="0.8" d="M1151.62 118.025L1192.66 1.9126L1232.89 55.0763L1151.62 118.025ZM1192.98 3.54237L1153.25 115.742L1231.74 54.9137L1192.98 3.54237Z" fill="#55668A"/>
<path opacity="0.8" d="M1232.06 54.9136L1261.21 -29.3994L1285.15 -23.0396L1284.83 -22.5506L1232.73 55.2388L1232.06 54.9136ZM1261.54 -28.4209L1233.7 52.3044L1283.85 -22.5506L1261.54 -28.4209Z" fill="#55668A"/>
<path opacity="0.8" d="M1359.25 80.1908L1283.52 -23.3662L1284.5 -23.2024L1441.97 13.1645L1441.32 13.6535L1359.25 80.1908ZM1285.47 -22.0604L1359.41 79.2126L1440.5 13.8174L1285.47 -22.0604Z" fill="#55668A"/>
<path opacity="0.8" d="M1274.25 111.176L1231.41 54.4248L1232.39 54.5874L1360.71 79.5382L1274.25 111.176ZM1233.37 55.5655L1274.57 110.198L1357.79 79.8647L1233.37 55.5655Z" fill="#55668A"/>
<path opacity="0.8" d="M1292.65 264.635L1273.91 110.361L1274.24 110.197L1359.9 78.8862L1359.57 79.7018L1293.46 264.635H1292.65ZM1274.9 111.013L1293.3 263.004L1358.6 80.5173L1274.9 111.013Z" fill="#55668A"/>
<path opacity="0.8" d="M38.4308 29.6361C33.2199 33.7124 27.0319 25.7211 32.4056 21.6448C37.7795 17.5672 43.8046 25.5585 38.4308 29.6361Z" fill="#55668A"/>
<path opacity="0.8" d="M181.406 33.55C174.241 39.0948 166.1 28.1678 173.265 22.6231C180.266 17.0783 188.409 28.0052 181.406 33.55Z" fill="#55668A"/>
<path opacity="0.8" d="M248.497 31.5928C241.983 36.6485 234.33 26.7009 241.007 21.6452C247.521 16.5895 255.011 26.537 248.497 31.5928Z" fill="#55668A"/>
<path opacity="0.8" d="M195.9 101.555C189.549 106.61 182.057 96.8255 188.571 91.7698C194.922 86.8779 202.25 96.6616 195.9 101.555Z" fill="#55668A"/>
<path opacity="0.8" d="M393.916 4.03269C387.565 8.92454 380.4 -0.696558 386.751 -5.58966C393.102 -10.3189 400.267 -0.86041 393.916 4.03269Z" fill="#55668A"/>
<path opacity="0.8" d="M300.281 89.8121C296.374 92.7477 291.977 86.8765 295.885 83.9421C299.794 80.8427 304.19 86.7139 300.281 89.8121Z" fill="#55668A"/>
<path opacity="0.8" d="M1117.75 18.5469C1110.75 23.9278 1102.77 13.3274 1109.77 7.94646C1116.77 2.72815 1124.75 13.1648 1117.75 18.5469Z" fill="#55668A"/>
<path opacity="0.8" d="M1021.67 93.8896C1015.32 98.7815 1008.16 89.1604 1014.51 84.2673C1020.86 79.3754 1028.03 88.9978 1021.67 93.8896Z" fill="#55668A"/>
<path opacity="0.8" d="M1196.08 7.13065C1190.38 11.5334 1184.03 2.89047 1189.57 -1.34971C1195.27 -5.91635 1201.78 2.72787 1196.08 7.13065Z" fill="#55668A"/>
<path opacity="0.8" d="M1235.81 59.643C1229.79 64.3722 1222.78 55.2402 1228.97 50.5097C1235 45.7804 1241.84 54.9137 1235.81 59.643Z" fill="#55668A"/>
<path opacity="0.8" d="M1362.34 83.7784C1356.96 88.0186 1350.61 79.702 1356.15 75.4619C1361.52 71.3843 1367.87 79.5382 1362.34 83.7784Z" fill="#55668A"/>
<path opacity="0.8992" d="M320.382 66.0942C323.536 67.8628 321.012 72.6634 317.859 70.8947C314.58 69.2525 317.102 64.4519 320.382 66.0942Z" fill="#55668A"/>
<path opacity="0.9614" d="M387.493 78.6012C389.763 79.8645 387.996 83.2755 385.726 82.0122C383.455 80.7489 385.221 77.3379 387.493 78.6012Z" fill="#55668A"/>
<path opacity="0.9151" d="M360.118 23.6476C363.65 25.5425 360.875 30.8484 357.342 28.9535C353.937 27.0585 356.712 21.879 360.118 23.6476Z" fill="#55668A"/>
<path opacity="0.6155" d="M377.4 22.3841C380.301 24.0263 378.031 28.4479 375.004 26.8056C372.102 25.1633 374.372 20.7418 377.4 22.3841Z" fill="#55668A"/>
<path opacity="0.867" d="M417.515 10.762C420.037 12.1516 418.019 16.0679 415.496 14.6782C412.847 13.2886 414.865 9.37237 417.515 10.762Z" fill="#55668A"/>
<path opacity="0.8358" d="M811.216 52.8296C814.873 54.7246 811.972 60.2831 808.313 58.3881C804.656 56.4932 807.557 50.9347 811.216 52.8296Z" fill="#55668A"/>
<path opacity="0.7685" d="M857.511 44.366C861.044 46.2609 858.269 51.6931 854.61 49.7982C851.077 47.9032 853.852 42.471 857.511 44.366Z" fill="#55668A"/>
<path opacity="0.8335" d="M939.758 27.9427C942.66 29.4586 940.389 33.8801 937.487 32.3642C934.586 30.7219 936.857 26.3004 939.758 27.9427Z" fill="#55668A"/>
<path opacity="0.6554" d="M342.962 111.952L318.742 68.2422L346.116 71.6531L342.962 111.952ZM319.373 68.7475L342.71 110.689L345.737 71.9058L319.373 68.7475Z" fill="#55668A"/>
<path opacity="0.9271" d="M346.242 72.0321L318.869 68.7475L320.004 20.2367L320.382 20.1104L346.242 72.0321ZM319.247 68.3685L345.611 71.6531L320.382 20.8683L319.247 68.3685Z" fill="#55668A"/>
<path opacity="0.6696" d="M372.732 46.5134L358.479 26.1742L376.391 24.2793L372.732 46.5134ZM359.109 26.5532L372.606 45.6291L376.012 24.7846L359.109 26.5532Z" fill="#55668A"/>
<path opacity="0.6533" d="M417.01 12.5303L386.482 34.0064L394.177 12.7829H394.304L417.01 12.5303ZM387.24 33.1221L415.875 12.9093L394.43 13.2883L387.24 33.1221Z" fill="#55668A"/>
<path opacity="0.7926" d="M442.239 18.4678L442.112 18.7205L420.542 53.4612L416.127 12.5303L442.239 18.4678ZM420.795 52.3243L441.609 18.7205L416.631 12.9093L420.795 52.3243Z" fill="#55668A"/>
<path opacity="0.677" d="M372.859 10.5094L343.971 14.2993L349.27 -23.7261L349.522 -23.3471L372.859 10.5094ZM344.476 13.9203L372.229 10.2567L349.522 -22.7154L344.476 13.9203Z" fill="#55668A"/>
<path opacity="0.7896" d="M420.92 53.209L386.482 33.6278L416.631 12.4043L420.92 53.209ZM387.24 33.6278L420.542 52.5773L416.379 13.0359L387.24 33.6278Z" fill="#55668A"/>
<path opacity="0.697" d="M387.87 -16.2728L372.606 10.6355L349.018 -23.4736L387.87 -16.2728ZM372.606 10.0038L387.366 -16.0202L349.9 -22.9683L372.606 10.0038Z" fill="#55668A"/>
<path opacity="0.8521" d="M431.769 -16.1466L416.505 13.0356L387.114 -16.2729L431.769 -16.1466ZM416.379 12.404L431.139 -15.7676L387.996 -15.894L416.379 12.404Z" fill="#55668A"/>
<path opacity="0.9583" d="M445.519 60.6621H445.14L441.735 18.7205L479.705 -22.2104L479.956 -21.9578L445.519 60.6621ZM442.112 18.7205L445.392 59.7778L479.2 -21.4525L442.112 18.7205Z" fill="#55668A"/>
<path opacity="0.6143" d="M939.128 29.7114L915.79 57.1251L915.665 56.8724L907.339 38.9335L939.128 29.7114ZM915.79 56.4934L937.993 30.4694L907.718 39.1862L915.79 56.4934Z" fill="#55668A"/>
<path opacity="0.6726" d="M417.515 10.762C420.037 12.1516 418.019 16.0679 415.496 14.6782C412.847 13.2886 414.865 9.37237 417.515 10.762Z" fill="#55668A"/>
<path opacity="0.8956" d="M771.354 30.2167C774.129 31.7327 771.859 35.9015 769.209 34.3856C766.434 32.8696 768.705 28.7008 771.354 30.2167Z" fill="#55668A"/>
<path opacity="0.778" d="M827.11 28.8271C829.758 30.2167 827.615 34.3856 824.966 32.8696C822.19 31.48 824.335 27.4374 827.11 28.8271Z" fill="#55668A"/>
<path opacity="0.8985" d="M819.289 -4.65018C823.451 -2.37624 820.172 4.06659 815.882 1.79265C811.72 -0.481292 815.126 -6.79779 819.289 -4.65018Z" fill="#55668A"/>
<path opacity="0.6766" d="M939.758 27.9427C942.66 29.4586 940.389 33.8801 937.487 32.3642C934.586 30.7219 936.857 26.3004 939.758 27.9427Z" fill="#55668A"/>
<path opacity="0.8" d="M1317.1 429.232C1315.61 432.443 1314.11 435.653 1312.67 438.747C1254.97 432.076 1200.07 406.43 1155.19 366.096C1107 322.581 1067.25 263.574 1027.44 200.834C946.452 72.7262 865.279 -56.5578 747.692 -99.4757C630.407 -142.13 488.23 -100.411 344.817 -72.6498C205.31 -45.7083 59.9979 -53.7122 -41.0913 -137.381C-39.5339 -140.426 -38.0437 -143.636 -36.6025 -146.73C-20.3979 -133.856 -3.48819 -122.331 14.0596 -112.318C49.2831 -191.645 84.4266 -270.457 119.257 -348.853C101.79 -353.209 83.8007 -356.005 65.3878 -357.469C66.7799 -360.447 68.3373 -363.492 69.7294 -366.469C128.672 -363.388 185.522 -342.681 231.922 -305.955C281.435 -266.544 322.474 -210.281 362.148 -148.834C444.506 -21.381 520.142 113.243 635.84 165.51C748.197 215.956 890.643 181.069 1033.1 151.671C1173.73 122.733 1320.55 119.997 1425.9 196.824C1424.36 200.151 1422.86 203.36 1421.32 206.686C1404.64 194.978 1387.29 184.5 1369.24 175.65C1334.22 256.435 1299.31 336.988 1264.6 417.356C1281.51 422.712 1299.12 426.72 1317.1 429.232ZM147.475 -67.6539C165.097 -65.288 183.161 -63.9698 201.221 -63.6135C224.269 -127.376 247.594 -192.118 271.146 -257.725C258.936 -270.008 246.267 -281.526 233.109 -291.88C204.474 -216.491 175.802 -141.665 147.475 -67.6539ZM224.29 -298.893C211.235 -308.518 197.62 -317.144 183.466 -324.49C150.34 -243.318 117.262 -162.263 84.2165 -81.6057C100.894 -76.3483 117.995 -72.4202 135.372 -69.4724C164.766 -145.364 194.356 -221.721 224.29 -298.893ZM213.944 -63.5901C232.315 -63.6502 250.914 -64.5743 269.691 -66.2457C284.65 -112.445 300.001 -159.575 315.63 -207.685C304.071 -222.162 292.152 -236.106 279.84 -249.119C257.416 -186.19 235.484 -124.424 213.944 -63.5901ZM282.622 -67.3681C301.497 -69.2724 320.502 -71.8076 339.537 -74.7412C345.584 -99.4741 351.758 -124.838 358.013 -150.717C346.696 -166.738 335.347 -182.36 323.636 -197.45C309.627 -153.181 295.895 -109.891 282.622 -67.3681ZM352.697 -76.7274C371.781 -79.7773 390.964 -83.06 410.03 -86.3919C406.726 -87.6492 403.257 -88.8393 399.722 -90.1948C388.367 -106.779 377.13 -123.315 365.793 -139.617C361.287 -118.211 356.976 -97.2701 352.697 -76.7274ZM423.104 -88.8253C442.17 -92.1572 461.071 -95.4216 479.99 -98.4043C467.521 -75.9715 454.855 -53.0732 441.827 -29.642C430.161 -45.81 418.757 -62.2781 407.404 -78.8626C412.786 -82.2121 418.004 -85.4942 423.104 -88.8253ZM492.985 -100.323C511.689 -103.122 530.246 -105.572 548.675 -107.39C528.106 -63.1482 507.077 -18.1402 485.656 27.7989C473.448 12.9107 461.488 -2.55783 449.888 -18.5605C464.615 -46.3479 478.865 -73.6511 492.985 -100.323ZM561.208 -108.543C579.325 -109.946 597.195 -110.766 614.955 -110.673C587.74 -48.3951 560.066 14.6481 532.066 78.7888C518.977 65.9969 506.396 52.322 494.109 37.9491C516.868 -11.8137 539.235 -60.6439 561.208 -108.543ZM627.016 -110.38C644.297 -109.804 661.469 -108.314 678.197 -105.777C646.362 -30.9158 614.117 44.5946 581.742 120.737C567.64 110.67 554.145 99.4894 541.091 87.2604C570.053 20.5106 598.79 -45.3763 627.016 -110.38ZM689.638 -103.689C706.122 -100.57 722.231 -96.2383 737.898 -90.8586C703.794 -9.96252 669.591 71.1652 635.338 152.411C620.241 145.352 605.568 136.964 591.502 127.462C624.35 49.8742 657.117 -27.1986 689.638 -103.689ZM748.556 -86.9086C764.094 -80.8978 779.092 -73.6068 793.6 -65.1517C759.82 14.6468 726.187 94.0973 692.751 173.081C676.661 169.031 660.993 163.651 645.767 157.225C680.002 75.6981 714.303 -5.66354 748.556 -86.9086ZM803.539 -59.1739C817.917 -50.0877 831.921 -39.7887 845.417 -28.6075C814.656 42.7309 784.073 113.322 754 183.031C737.062 181.64 720.285 179.219 703.881 175.585C736.893 97.9309 770.151 19.6938 803.539 -59.1739ZM854.637 -20.6018C868.12 -8.74051 880.995 4.2352 893.576 17.9101C868.185 74.2396 843.236 129.521 818.63 183.988C800.76 184.809 783.183 184.93 765.816 183.905C795.025 116.574 824.693 48.4758 854.637 -20.6018ZM902.275 27.4787C914.776 41.6678 926.933 56.671 938.778 72.092C920.898 108.009 903.361 143.111 886.118 177.514C867.561 179.963 849.248 181.83 831.066 183.067C854.383 132.308 878.075 80.3335 902.275 27.4787ZM946.821 82.8914C958.635 98.7102 970.252 114.994 981.656 131.462C972.71 143.591 963.91 155.37 955.49 166.898C936.588 170.163 917.786 173.194 899.015 175.828C914.49 145.615 930.542 114.685 946.821 82.8914ZM989.453 142.844C1000.81 159.429 1012.16 176.013 1023.4 192.548C1024.21 179.59 1024.99 167.03 1025.66 154.702C1006.48 157.984 987.416 161.316 968.35 164.648C975.302 157.574 982.354 150.267 989.453 142.844ZM1031.25 203.813C1042.47 220.067 1053.78 236.087 1065.37 251.809C1075.9 215.123 1086.1 179.253 1096.11 144.129C1077.04 146.499 1058.01 149.432 1038.92 152.483C1036.49 169.282 1033.8 186.382 1031.25 203.813ZM1073.23 262.393C1084.65 277.501 1096.33 292.027 1108.41 305.903C1127.77 248.947 1146.8 193.088 1165.49 138.041C1146.83 138.801 1128.05 140.472 1109.24 142.542C1097.39 181.689 1085.48 221.634 1073.23 262.393ZM1116.7 315.159C1128.68 328.306 1141 340.639 1153.72 352.04C1180.32 280.179 1206.81 209.232 1232.79 139.165C1214.77 137.73 1196.65 137.208 1178.25 137.667C1158.12 195.806 1137.54 254.992 1116.7 315.159ZM1162.58 359.617C1175.36 370.222 1188.53 379.896 1202.24 388.289C1234.07 308.219 1265.84 228.665 1297.34 149.41C1280.21 145.201 1262.72 142.204 1245.07 140.237C1217.83 212.649 1190.41 285.808 1162.58 359.617ZM24.7266 -106.444C40.2932 -98.2275 56.3506 -91.175 72.8316 -85.4519C106.356 -166.593 139.977 -247.967 173.765 -329.408C159.647 -336.19 144.874 -341.741 129.842 -346.03C94.9179 -266.439 59.8959 -186.616 24.7266 -106.444ZM1358.29 170.474C1342.27 163.306 1325.77 157.301 1308.96 152.674C1276.67 232.829 1244.17 313.169 1211.6 394.021C1225.32 401.735 1239.61 408.451 1254.31 413.835C1289.02 332.786 1323.64 251.689 1358.29 170.474Z" fill="white" fill-opacity="0.07"/>
</g>
</g>
</g>
<defs>
<linearGradient id="paint0_linear" x1="656.75" y1="-407.476" x2="656.75" y2="363" gradientUnits="userSpaceOnUse">
<stop stop-color="#346381"/>
<stop offset="1" stop-color="#3C4A67"/>
</linearGradient>
<clipPath id="clip0">
<path d="M-148 -237H1533V363H-148V-237Z" fill="white"/>
</clipPath>
</defs>
</svg>
