<svg xmlns="http://www.w3.org/2000/svg" viewBox="0 0 259.19 308.39"><defs><style>.cls-1{fill:#f5b33c;}.cls-2{fill:#f9cc7d;}.cls-3{fill:#c5bfdf;}.cls-4{fill:#7b73af;}.cls-5{fill:#5a488f;}.cls-6{fill:#20ab9f;}.cls-7{fill:#85d0ce;}.cls-8{fill:#18736b;}.cls-9{fill:#688ec5;}.cls-10{fill:#9cc4e9;}.cls-11{fill:#3b588f;}</style></defs><g id="Layer_2" data-name="Layer 2"><g id="Layer_1-2" data-name="Layer 1"><circle class="cls-1" cx="83.77" cy="222.23" r="18.84"/><circle class="cls-2" cx="121.47" cy="297.86" r="6.01"/><circle class="cls-2" cx="164.01" cy="248.3" r="6.01"/><circle class="cls-2" cx="161.92" cy="183.45" r="6.01"/><circle class="cls-2" cx="108.51" cy="142.09" r="6.01"/><circle class="cls-2" cx="47.76" cy="146.48" r="6.01"/><circle class="cls-2" cx="6.01" cy="194.72" r="6.01"/><circle class="cls-2" cx="10.78" cy="260.65" r="6.01"/><circle class="cls-2" cx="59.03" cy="302.38" r="6.01"/><circle class="cls-3" cx="86.9" cy="258.57" r="9.42"/><path class="cls-3" d="M109.18,293a3.59,3.59,0,0,0,3.21-4.47A24.14,24.14,0,0,0,65,292a3.58,3.58,0,0,0,3.82,4Z"/><circle class="cls-4" cx="47.4" cy="224.86" r="9.42"/><path class="cls-4" d="M12.74,247.41a3.59,3.59,0,0,0,4.48,3.21,24.14,24.14,0,0,0-3.43-47.4,3.59,3.59,0,0,0-4,3.82Z"/><circle class="cls-4" cx="120.12" cy="219.1" r="9.42"/><path class="cls-4" d="M154.87,197.94a3.59,3.59,0,0,0-4.34-3.39,24.14,24.14,0,0,0,1.59,47.51,3.59,3.59,0,0,0,4.11-3.67Z"/><circle class="cls-3" cx="107.63" cy="194.66" r="9.42"/><path class="cls-3" d="M116.47,154.71a3.59,3.59,0,0,0-5.44.89A24.14,24.14,0,0,0,147,186.69a3.59,3.59,0,0,0,.1-5.5Z"/><circle class="cls-3" cx="56.52" cy="198" r="9.42"/><path class="cls-3" d="M17.33,190.22a3.59,3.59,0,0,0,.89,5.43,24.14,24.14,0,0,0,31.1-35.94,3.59,3.59,0,0,0-5.51-.1Z"/><circle class="cls-5" cx="81.64" cy="185.83" r="9.42"/><path class="cls-5" d="M58.88,151.7a3.59,3.59,0,0,0-3.21,4.47,24.14,24.14,0,0,0,47.41-3.43,3.6,3.6,0,0,0-3.83-4Z"/><circle class="cls-5" cx="59.92" cy="249.81" r="9.42"/><path class="cls-5" d="M52.12,290.19a3.59,3.59,0,0,0,5.43-.89A24.14,24.14,0,0,0,21.6,258.2a3.6,3.6,0,0,0-.1,5.51Z"/><circle class="cls-5" cx="111.68" cy="245.71" r="9.42"/><path class="cls-5" d="M152.81,254.57a3.59,3.59,0,0,0-.89-5.44,24.14,24.14,0,0,0-31.09,35.95,3.59,3.59,0,0,0,5.5.1Z"/><circle class="cls-1" cx="100.87" cy="47.26" r="9.91"/><circle class="cls-2" cx="128.88" cy="12.74" r="3.16"/><circle class="cls-2" cx="95.88" cy="3.16" r="3.16"/><circle class="cls-2" cx="65.28" cy="18.29" r="3.16"/><circle class="cls-2" cx="57.11" cy="52.87" r="3.16"/><circle class="cls-2" cx="72.44" cy="81.01" r="3.16"/><circle class="cls-2" cx="104.64" cy="90.49" r="3.16"/><circle class="cls-2" cx="135.17" cy="73.85" r="3.16"/><circle class="cls-2" cx="144.64" cy="41.66" r="3.16"/><circle class="cls-6" cx="110.05" cy="64.11" r="4.96"/><path class="cls-6" d="M128.4,75.79A1.89,1.89,0,0,0,129,73a12.7,12.7,0,0,0-22,12A1.88,1.88,0,0,0,109.7,86Z"/><circle class="cls-6" cx="91.46" cy="30.54" r="4.96"/><path class="cls-6" d="M73.75,18.51a1.88,1.88,0,0,0-.67,2.81,12.7,12.7,0,0,0,22.4-11.1,1.88,1.88,0,0,0-2.65-1.17Z"/><circle class="cls-7" cx="117.59" cy="37.85" r="4.96"/><path class="cls-7" d="M129.23,19.68a1.89,1.89,0,0,0-2.84-.56,12.7,12.7,0,0,0,12,22,1.89,1.89,0,0,0,1.06-2.69Z"/><circle class="cls-7" cx="82.47" cy="41.84" r="4.96"/><path class="cls-7" d="M61.42,46.31A1.89,1.89,0,0,0,63,48.72a12.7,12.7,0,0,0,7.06-24,1.89,1.89,0,0,0-2.66,1.15Z"/><circle class="cls-7" cx="95.2" cy="65.59" r="4.96"/><path class="cls-7" d="M100,86.05a1.89,1.89,0,0,0,2.41-1.61,12.7,12.7,0,0,0-24-7.06A1.89,1.89,0,0,0,79.59,80Z"/><circle class="cls-8" cx="83.91" cy="56.21" r="4.96"/><path class="cls-8" d="M72.52,74.54a1.89,1.89,0,0,0,2.84.57,12.7,12.7,0,0,0-12-22,1.9,1.9,0,0,0-1.06,2.7Z"/><circle class="cls-8" cx="119.28" cy="52.68" r="4.96"/><path class="cls-8" d="M140.31,47.62a1.88,1.88,0,0,0-1.61-2.4,12.69,12.69,0,0,0-7.06,24,1.9,1.9,0,0,0,2.66-1.15Z"/><circle class="cls-8" cx="106.04" cy="28.79" r="4.96"/><path class="cls-8" d="M101.32,7.16a1.89,1.89,0,0,0-2.41,1.61,12.7,12.7,0,0,0,24,7.06,1.88,1.88,0,0,0-1.15-2.65Z"/><circle class="cls-1" cx="198.01" cy="112.09" r="12.92"/><circle class="cls-2" cx="151.24" cy="146.33" r="4.12"/><circle class="cls-2" cx="189.67" cy="169.36" r="4.12"/><circle class="cls-2" cx="233.28" cy="160.45" r="4.12"/><circle class="cls-2" cx="255.06" cy="119.56" r="4.12"/><circle class="cls-2" cx="245.07" cy="78.98" r="4.12"/><circle class="cls-2" cx="207.63" cy="56.33" r="4.12"/><circle class="cls-2" cx="163.6" cy="67.18" r="4.12"/><circle class="cls-2" cx="140.96" cy="104.63" r="4.12"/><circle class="cls-9" cx="192.03" cy="87.81" r="6.46"/><path class="cls-9" d="M172.78,67a2.45,2.45,0,0,0-1.65,3.39,16.55,16.55,0,0,0,31.65-7.79,2.46,2.46,0,0,0-3-2.24Z"/><circle class="cls-9" cx="204.34" cy="136.31" r="6.46"/><path class="cls-9" d="M222.66,157.36a2.47,2.47,0,0,0,1.79-3.33,16.56,16.56,0,0,0-31.94,6.57,2.48,2.48,0,0,0,3,2.36Z"/><circle class="cls-10" cx="173.81" cy="118.41" r="6.46"/><path class="cls-10" d="M153.1,137.46a2.46,2.46,0,0,0,3.4,1.65,16.56,16.56,0,0,0-7.8-31.65,2.46,2.46,0,0,0-2.24,3Z"/><circle class="cls-10" cx="219.42" cy="125.04" r="6.46"/><path class="cls-10" d="M247.45,126.39a2.46,2.46,0,0,0-1.23-3.57,16.56,16.56,0,0,0-16.87,27.9,2.47,2.47,0,0,0,3.74-.57Z"/><circle class="cls-10" cx="211.25" cy="90.87" r="6.46"/><path class="cls-10" d="M212,63.47a2.46,2.46,0,0,0-3.57,1.23,16.56,16.56,0,0,0,27.9,16.87,2.47,2.47,0,0,0-.57-3.74Z"/><circle class="cls-11" cx="222.38" cy="106.45" r="6.46"/><path class="cls-11" d="M242.83,87.11a2.46,2.46,0,0,0-3.4-1.65,16.56,16.56,0,0,0,7.8,31.65,2.46,2.46,0,0,0,2.24-3Z"/><circle class="cls-11" cx="176.61" cy="99.15" r="6.46"/><path class="cls-11" d="M148.41,98.55a2.46,2.46,0,0,0,1.23,3.57,16.56,16.56,0,0,0,16.87-27.9,2.47,2.47,0,0,0-3.74.57Z"/><circle class="cls-11" cx="185.37" cy="133.68" r="6.46"/><path class="cls-11" d="M184.14,162.51a2.46,2.46,0,0,0,3.57-1.23,16.56,16.56,0,0,0-27.9-16.87,2.47,2.47,0,0,0,.57,3.74Z"/></g></g></svg>