<svg xmlns="http://www.w3.org/2000/svg" viewBox="0 0 15.82 16"><defs><style>.cls-1{fill:#f5b33c;}.cls-2{fill:#f9cc7d;}.cls-3{fill:#c5bfdf;}.cls-4{fill:#7b73af;}.cls-5{fill:#5a488f;}</style></defs><g id="Layer_2" data-name="Layer 2"><g id="Layer_1-2" data-name="Layer 1"><circle class="cls-1" cx="7.8" cy="8" r="1.72"/><circle class="cls-2" cx="11.74" cy="14.62" r="0.55"/><circle class="cls-2" cx="15.27" cy="9.83" r="0.55"/><circle class="cls-2" cx="14.65" cy="3.95" r="0.55"/><circle class="cls-2" cx="9.51" cy="0.55" r="0.55"/><circle class="cls-2" cx="4.02" cy="1.36" r="0.55"/><circle class="cls-2" cx="0.55" cy="6.02" r="0.55"/><circle class="cls-2" cx="1.43" cy="11.98" r="0.55"/><circle class="cls-2" cx="6.09" cy="15.45" r="0.55"/><circle class="cls-3" cx="8.33" cy="11.28" r="0.86"/><path class="cls-3" d="M10.59,14.26a.32.32,0,0,0,.26-.43,2.2,2.2,0,0,0-4.29.64.33.33,0,0,0,.38.33Z"/><circle class="cls-4" cx="4.51" cy="8.48" r="0.86"/><path class="cls-4" d="M1.51,10.77a.33.33,0,0,0,.43.26,2.2,2.2,0,0,0-.63-4.29A.33.33,0,0,0,1,7.12Z"/><circle class="cls-4" cx="11.09" cy="7.47" r="0.86"/><path class="cls-4" d="M14.1,5.31A.33.33,0,0,0,13.68,5a2.22,2.22,0,0,0-1.57,2.35,2.2,2.2,0,0,0,2,2A.33.33,0,0,0,14.5,9Z"/><circle class="cls-3" cx="9.79" cy="5.33" r="0.86"/><path class="cls-3" d="M10.32,1.64a.33.33,0,0,0-.49.12,2.2,2.2,0,0,0,3.48,2.58.33.33,0,0,0,0-.5Z"/><circle class="cls-3" cx="5.16" cy="5.98" r="0.86"/><path class="cls-3" d="M1.55,5.54A.31.31,0,0,0,1.66,6,2.2,2.2,0,0,0,4.25,2.55a.32.32,0,0,0-.5,0Z"/><circle class="cls-5" cx="7.36" cy="4.7" r="0.86"/><path class="cls-5" d="M5.06,1.76a.32.32,0,0,0-.26.42,2.2,2.2,0,0,0,4.29-.63.33.33,0,0,0-.38-.33Z"/><circle class="cls-5" cx="5.82" cy="10.67" r="0.86"/><path class="cls-5" d="M5.38,14.39a.33.33,0,0,0,.49-.12,2.2,2.2,0,0,0-3.48-2.58.33.33,0,0,0,0,.5Z"/><circle class="cls-5" cx="10.5" cy="9.95" r="0.86"/><path class="cls-5" d="M14.3,10.47a.32.32,0,0,0-.12-.48,2.2,2.2,0,0,0-2.59,3.47.34.34,0,0,0,.51,0Z"/></g></g></svg>