<svg xmlns="http://www.w3.org/2000/svg" viewBox="0 0 519.44 118.2"><defs><style>.cls-1{fill:#2f3442;}.cls-2{fill:#f5b33c;}.cls-3{fill:#f9cc7d;}.cls-4{fill:#c5bfdf;}.cls-5{fill:#7b73af;}.cls-6{fill:#5a488f;}.cls-7{fill:#20ab9f;}.cls-8{fill:#85d0ce;}.cls-9{fill:#18736b;}.cls-10{fill:#688ec5;}.cls-11{fill:#9cc4e9;}.cls-12{fill:#3b588f;}</style></defs><g id="Layer_2" data-name="Layer 2"><g id="Layer_1-2" data-name="Layer 1"><path class="cls-1" d="M90.24,94.38a.58.58,0,0,1,.42.19l1.09,1.19a8.69,8.69,0,0,1-3.08,2.3,10.44,10.44,0,0,1-4.36.82,10.33,10.33,0,0,1-4-.77A8.88,8.88,0,0,1,77.16,96a9.7,9.7,0,0,1-2-3.34,12.54,12.54,0,0,1-.71-4.29A11.84,11.84,0,0,1,75.22,84a9.56,9.56,0,0,1,2.13-3.34,9.27,9.27,0,0,1,3.28-2.17,11,11,0,0,1,4.21-.78,10,10,0,0,1,3.93.71,9.83,9.83,0,0,1,2.94,1.92l-.91,1.28a.88.88,0,0,1-.23.24.66.66,0,0,1-.38.1.74.74,0,0,1-.39-.14l-.5-.34c-.19-.13-.42-.28-.68-.43a5.66,5.66,0,0,0-.92-.44,9.48,9.48,0,0,0-1.24-.34,8.75,8.75,0,0,0-1.63-.13,7.88,7.88,0,0,0-3,.57,7,7,0,0,0-2.37,1.62,7.42,7.42,0,0,0-1.55,2.57,9.74,9.74,0,0,0-.55,3.38,10,10,0,0,0,.55,3.45,7.63,7.63,0,0,0,1.52,2.56,6.23,6.23,0,0,0,2.27,1.59,7.16,7.16,0,0,0,2.82.55,10.42,10.42,0,0,0,1.66-.11A6.77,6.77,0,0,0,87.5,96a5.83,5.83,0,0,0,1.17-.59,8.86,8.86,0,0,0,1.09-.84A.72.72,0,0,1,90.24,94.38Z"/><path class="cls-1" d="M105.75,98.65h-1.14a1.28,1.28,0,0,1-.6-.12.62.62,0,0,1-.31-.49l-.28-1.35c-.39.34-.76.65-1.13.93a6.74,6.74,0,0,1-1.15.69,6.31,6.31,0,0,1-1.29.43,7.94,7.94,0,0,1-1.52.14,5.2,5.2,0,0,1-1.6-.24,3.71,3.71,0,0,1-1.29-.72,3.47,3.47,0,0,1-.87-1.2A4.21,4.21,0,0,1,94.25,95a3.18,3.18,0,0,1,.47-1.67,4.21,4.21,0,0,1,1.54-1.43,10.21,10.21,0,0,1,2.77-1,19.3,19.3,0,0,1,4.2-.4V89.33a3.94,3.94,0,0,0-.73-2.59,2.62,2.62,0,0,0-2.16-.88,4.47,4.47,0,0,0-1.57.24,5.21,5.21,0,0,0-1.11.53l-.81.53a1.17,1.17,0,0,1-.67.24.74.74,0,0,1-.46-.14,1.08,1.08,0,0,1-.31-.33L95,86.1a8.45,8.45,0,0,1,2.61-1.74,8.15,8.15,0,0,1,3.1-.58,5.54,5.54,0,0,1,2.18.41,4.37,4.37,0,0,1,1.6,1.12,4.74,4.74,0,0,1,1,1.75,7.28,7.28,0,0,1,.33,2.25Zm-6.66-1.57a5.28,5.28,0,0,0,1.24-.14,4.62,4.62,0,0,0,1.06-.39,5.67,5.67,0,0,0,1-.61,9.6,9.6,0,0,0,.89-.82v-3a17.07,17.07,0,0,0-3,.23,8,8,0,0,0-2,.59,2.84,2.84,0,0,0-1.14.85,1.89,1.89,0,0,0-.35,1.1,2.35,2.35,0,0,0,.19,1,1.86,1.86,0,0,0,.5.69,2.07,2.07,0,0,0,.75.39A3.14,3.14,0,0,0,99.09,97.08Z"/><path class="cls-1" d="M109.65,98.65V84h1.52a.66.66,0,0,1,.7.53l.2,1.59a8.14,8.14,0,0,1,2.12-1.7,5.58,5.58,0,0,1,2.72-.65,5.16,5.16,0,0,1,2.11.4,4,4,0,0,1,1.53,1.12,4.93,4.93,0,0,1,.93,1.76,7.3,7.3,0,0,1,.32,2.26v9.3h-2.57v-9.3a4,4,0,0,0-.75-2.58,2.85,2.85,0,0,0-2.32-.91,4.22,4.22,0,0,0-2.12.55,7,7,0,0,0-1.83,1.48V98.65Z"/><path class="cls-1" d="M135.64,86.64a.88.88,0,0,1-.23.24.5.5,0,0,1-.33.09.84.84,0,0,1-.47-.18c-.17-.12-.38-.25-.64-.4A5.68,5.68,0,0,0,133,86a4.21,4.21,0,0,0-1.37-.18,4.37,4.37,0,0,0-1.89.38,3.65,3.65,0,0,0-1.37,1.1,5,5,0,0,0-.84,1.75,9.47,9.47,0,0,0,0,4.65,5.28,5.28,0,0,0,.85,1.73,3.63,3.63,0,0,0,1.34,1.06,4,4,0,0,0,1.76.37,4.55,4.55,0,0,0,1.55-.22,5,5,0,0,0,1-.5,7.47,7.47,0,0,0,.66-.5.79.79,0,0,1,.52-.22.55.55,0,0,1,.49.24l.72.94a5.52,5.52,0,0,1-2.38,1.71,8.45,8.45,0,0,1-3,.54,6.52,6.52,0,0,1-2.55-.5,5.92,5.92,0,0,1-2-1.47,6.85,6.85,0,0,1-1.36-2.35,9.58,9.58,0,0,1-.5-3.19,9.47,9.47,0,0,1,.46-3,6.81,6.81,0,0,1,1.32-2.38,6,6,0,0,1,2.16-1.57,7.31,7.31,0,0,1,2.94-.56,7,7,0,0,1,2.71.5,6.32,6.32,0,0,1,2.09,1.41Z"/><path class="cls-1" d="M144.93,83.81a6.59,6.59,0,0,1,2.42.44,5.46,5.46,0,0,1,1.92,1.27,5.64,5.64,0,0,1,1.26,2,8,8,0,0,1,.46,2.77,1.74,1.74,0,0,1-.13.81.53.53,0,0,1-.49.2h-9.72a8.14,8.14,0,0,0,.37,2.41,5,5,0,0,0,.95,1.71,3.76,3.76,0,0,0,1.45,1,4.83,4.83,0,0,0,1.87.34,5.54,5.54,0,0,0,1.67-.22,8.8,8.8,0,0,0,1.2-.48,9.05,9.05,0,0,0,.84-.49,1.11,1.11,0,0,1,.59-.22.58.58,0,0,1,.49.24l.72.94a5,5,0,0,1-1.14,1,6.7,6.7,0,0,1-1.42.7,9.29,9.29,0,0,1-1.57.41,8.65,8.65,0,0,1-1.6.14,7.45,7.45,0,0,1-2.79-.51,6.07,6.07,0,0,1-2.2-1.5,6.8,6.8,0,0,1-1.45-2.44,9.9,9.9,0,0,1-.52-3.35,8.28,8.28,0,0,1,.47-2.85,6.51,6.51,0,0,1,1.35-2.3,6.1,6.1,0,0,1,2.15-1.53A7,7,0,0,1,144.93,83.81ZM145,85.7a4,4,0,0,0-2.93,1.07,5.12,5.12,0,0,0-1.33,3h8a5,5,0,0,0-.25-1.63,3.54,3.54,0,0,0-.72-1.29,3,3,0,0,0-1.16-.83A3.84,3.84,0,0,0,145,85.7Z"/><path class="cls-1" d="M154.26,98.65V84h1.47a.86.86,0,0,1,.58.16,1.05,1.05,0,0,1,.21.55L156.7,87a6.61,6.61,0,0,1,1.85-2.39,4.1,4.1,0,0,1,2.59-.86,4.06,4.06,0,0,1,1.09.14,3.88,3.88,0,0,1,.91.38l-.33,1.92a.44.44,0,0,1-.45.36,2.38,2.38,0,0,1-.62-.14,4,4,0,0,0-1.17-.13,3.26,3.26,0,0,0-2.24.78,5.84,5.84,0,0,0-1.51,2.26v9.3Z"/><path class="cls-1" d="M186.41,94.38a.55.55,0,0,1,.42.19l1.1,1.19a8.78,8.78,0,0,1-3.08,2.3,10.47,10.47,0,0,1-4.36.82,10.33,10.33,0,0,1-4.05-.77A8.92,8.92,0,0,1,173.33,96a10,10,0,0,1-2-3.34,12.54,12.54,0,0,1-.7-4.29A11.63,11.63,0,0,1,171.4,84a9.68,9.68,0,0,1,2.12-3.34,9.45,9.45,0,0,1,3.28-2.17,11.09,11.09,0,0,1,4.22-.78,10,10,0,0,1,3.93.71,9.79,9.79,0,0,1,2.93,1.92l-.9,1.28a1.06,1.06,0,0,1-.23.24.69.69,0,0,1-.38.1.77.77,0,0,1-.4-.14l-.49-.34c-.2-.13-.42-.28-.68-.43a5.79,5.79,0,0,0-.93-.44,7.67,7.67,0,0,0-2.86-.47,7.88,7.88,0,0,0-3,.57,6.76,6.76,0,0,0-2.37,1.62,7.42,7.42,0,0,0-1.55,2.57,9.74,9.74,0,0,0-.56,3.38,10,10,0,0,0,.56,3.45,7.61,7.61,0,0,0,1.51,2.56,6.32,6.32,0,0,0,2.27,1.59,7.21,7.21,0,0,0,2.83.55,10.5,10.5,0,0,0,1.66-.11,6.94,6.94,0,0,0,1.36-.33,5.83,5.83,0,0,0,1.17-.59,9.68,9.68,0,0,0,1.09-.84A.7.7,0,0,1,186.41,94.38Z"/><path class="cls-1" d="M197.11,83.81a7.59,7.59,0,0,1,2.89.53,6.24,6.24,0,0,1,2.2,1.52,6.62,6.62,0,0,1,1.38,2.37,10.32,10.32,0,0,1,0,6.22,6.79,6.79,0,0,1-1.38,2.37,6.22,6.22,0,0,1-2.2,1.51,8.29,8.29,0,0,1-5.78,0,6.31,6.31,0,0,1-2.2-1.51,7,7,0,0,1-1.4-2.37,10.11,10.11,0,0,1,0-6.22,6.8,6.8,0,0,1,1.4-2.37,6.33,6.33,0,0,1,2.2-1.52A7.63,7.63,0,0,1,197.11,83.81Zm0,13a3.77,3.77,0,0,0,3.23-1.45,8.22,8.22,0,0,0,0-8.11,3.75,3.75,0,0,0-3.23-1.46,4.33,4.33,0,0,0-1.9.38,3.47,3.47,0,0,0-1.35,1.08,4.86,4.86,0,0,0-.81,1.73,9.77,9.77,0,0,0-.26,2.33,9.56,9.56,0,0,0,.26,2.32,4.78,4.78,0,0,0,.81,1.73,3.63,3.63,0,0,0,1.35,1.07A4.47,4.47,0,0,0,197.11,96.85Z"/><path class="cls-1" d="M207.23,98.65V84h1.53a.66.66,0,0,1,.7.53l.18,1.5a7.45,7.45,0,0,1,1.81-1.62,4.22,4.22,0,0,1,2.33-.64,3.49,3.49,0,0,1,2.4.82,4.65,4.65,0,0,1,1.32,2.22,4.64,4.64,0,0,1,1.92-2.32,4.48,4.48,0,0,1,1.32-.54,5.64,5.64,0,0,1,1.42-.18,5.28,5.28,0,0,1,2.05.37,4,4,0,0,1,1.53,1.07,4.72,4.72,0,0,1,1,1.74,7.73,7.73,0,0,1,.33,2.36v9.3h-2.56v-9.3a3.93,3.93,0,0,0-.75-2.6,2.67,2.67,0,0,0-2.18-.89,3.2,3.2,0,0,0-1.2.22,3,3,0,0,0-1,.66,3.07,3.07,0,0,0-.68,1.09,4.14,4.14,0,0,0-.25,1.52v9.3h-2.57v-9.3a4.11,4.11,0,0,0-.71-2.63,2.52,2.52,0,0,0-2.06-.86,3.31,3.31,0,0,0-1.77.51,5.71,5.71,0,0,0-1.49,1.39V98.65Z"/><path class="cls-1" d="M230.91,103.59V84h1.53a.65.65,0,0,1,.69.53l.22,1.74a7.93,7.93,0,0,1,2.14-1.84,5.49,5.49,0,0,1,2.78-.69,5.28,5.28,0,0,1,2.27.48,4.73,4.73,0,0,1,1.75,1.43A6.84,6.84,0,0,1,243.4,88a12,12,0,0,1,.39,3.21,10.38,10.38,0,0,1-.43,3,7.63,7.63,0,0,1-1.24,2.41,5.75,5.75,0,0,1-4.63,2.18,5.42,5.42,0,0,1-2.32-.45,5.16,5.16,0,0,1-1.69-1.26v6.45Zm6.51-17.73a4.08,4.08,0,0,0-2.2.58,6.28,6.28,0,0,0-1.74,1.62v7.07A4.18,4.18,0,0,0,235,96.47a4.42,4.42,0,0,0,1.88.39A3.7,3.7,0,0,0,240,95.41a6.84,6.84,0,0,0,1.09-4.16,10.26,10.26,0,0,0-.25-2.45,5,5,0,0,0-.72-1.68,2.83,2.83,0,0,0-1.17-1A3.92,3.92,0,0,0,237.42,85.86Z"/><path class="cls-1" d="M249.69,77.41V98.65h-2.57V77.41Z"/><path class="cls-1" d="M260,83.81a6.59,6.59,0,0,1,2.42.44,5.46,5.46,0,0,1,1.92,1.27,5.92,5.92,0,0,1,1.26,2,8,8,0,0,1,.45,2.77,1.61,1.61,0,0,1-.13.81.52.52,0,0,1-.49.2h-9.72a8.12,8.12,0,0,0,.38,2.41,5,5,0,0,0,1,1.71,3.65,3.65,0,0,0,1.44,1,4.88,4.88,0,0,0,1.88.34,5.43,5.43,0,0,0,1.66-.22,8.47,8.47,0,0,0,1.21-.48c.33-.18.61-.34.84-.49a1.08,1.08,0,0,1,.58-.22.56.56,0,0,1,.49.24l.72.94a4.74,4.74,0,0,1-1.13,1,6.94,6.94,0,0,1-1.42.7,9.29,9.29,0,0,1-1.57.41,8.73,8.73,0,0,1-1.6.14,7.45,7.45,0,0,1-2.79-.51,6.11,6.11,0,0,1-2.21-1.5,6.94,6.94,0,0,1-1.45-2.44,10.16,10.16,0,0,1-.52-3.35,8.52,8.52,0,0,1,.47-2.85A6.82,6.82,0,0,1,255,85.9a6.2,6.2,0,0,1,2.15-1.53A7.08,7.08,0,0,1,260,83.81Zm.05,1.89a3.94,3.94,0,0,0-2.92,1.07,5,5,0,0,0-1.33,3h7.94a5.26,5.26,0,0,0-.24-1.63,3.54,3.54,0,0,0-.72-1.29,3.21,3.21,0,0,0-1.16-.83A3.89,3.89,0,0,0,260.05,85.7Z"/><path class="cls-1" d="M271.88,91.16,267,84h2.47a.9.9,0,0,1,.46.1,1.24,1.24,0,0,1,.26.29l3.57,5.48a3.69,3.69,0,0,1,.38-.81l3.14-4.61a2,2,0,0,1,.29-.33.56.56,0,0,1,.36-.12h2.37l-4.92,7,5.12,7.63H278a.72.72,0,0,1-.5-.17,1.64,1.64,0,0,1-.29-.36l-3.68-5.73a2.8,2.8,0,0,1-.3.75l-3.4,5a3.65,3.65,0,0,1-.31.36.64.64,0,0,1-.46.17h-2.29Z"/><path class="cls-1" d="M286.43,79.46a1.66,1.66,0,0,1-.15.7,2.29,2.29,0,0,1-.41.57,1.94,1.94,0,0,1-.58.4,1.7,1.7,0,0,1-.71.14,1.65,1.65,0,0,1-.7-.14,1.94,1.94,0,0,1-.58-.4,2,2,0,0,1-.39-.57,1.66,1.66,0,0,1-.15-.7,1.79,1.79,0,0,1,.15-.72,1.85,1.85,0,0,1,1-1,1.82,1.82,0,0,1,.7-.14,1.87,1.87,0,0,1,.71.14,1.94,1.94,0,0,1,.58.4,2.23,2.23,0,0,1,.41.59A1.79,1.79,0,0,1,286.43,79.46ZM285.85,84V98.65h-2.57V84Z"/><path class="cls-1" d="M294.8,98.88a3.51,3.51,0,0,1-2.66-1,3.84,3.84,0,0,1-.93-2.78V86.19h-1.76a.6.6,0,0,1-.39-.14.54.54,0,0,1-.15-.42v-1l2.39-.3.59-4.51a.56.56,0,0,1,.19-.36.58.58,0,0,1,.4-.13h1.3v5H298v1.86h-4.18V95a1.87,1.87,0,0,0,.45,1.37,1.53,1.53,0,0,0,1.15.44,2.11,2.11,0,0,0,.7-.1,3.05,3.05,0,0,0,.51-.24l.37-.24a.5.5,0,0,1,.27-.11.45.45,0,0,1,.36.25l.75,1.22a4.89,4.89,0,0,1-1.6,1A5.59,5.59,0,0,1,294.8,98.88Z"/><path class="cls-1" d="M305.42,103a1.36,1.36,0,0,1-.33.46.86.86,0,0,1-.6.17h-1.9l2.67-5.79-6-13.76h2.22a.76.76,0,0,1,.52.17,1,1,0,0,1,.27.36l3.91,9.2c.09.22.16.43.23.64s.11.43.16.65c.07-.22.14-.44.2-.65s.15-.43.23-.65l3.8-9.19a.81.81,0,0,1,.29-.38.77.77,0,0,1,.46-.15h2Z"/><path class="cls-1" d="M324.29,87.66h1.21l.48,0a1.12,1.12,0,0,0,.37-.09,1.82,1.82,0,0,0,.31-.16l.3-.26,8.23-8.47a1.75,1.75,0,0,1,.43-.32,1.14,1.14,0,0,1,.48-.1h1.2l-8.91,9.16a5.82,5.82,0,0,1-.49.45,2.12,2.12,0,0,1-.47.26,1.64,1.64,0,0,1,.55.26,5.19,5.19,0,0,1,.48.47l9.4,9.81h-1.2a1,1,0,0,1-.53-.11,2,2,0,0,1-.33-.28l-8.64-8.83-.29-.27a1.21,1.21,0,0,0-.29-.19,1.17,1.17,0,0,0-.4-.12,4.62,4.62,0,0,0-.58,0h-1.31v9.83h-1.47V78.22h1.47Z"/><path class="cls-1" d="M340.73,98.65V84.3h.75a.39.39,0,0,1,.43.36l.13,2.17a8,8,0,0,1,2.29-2,5.63,5.63,0,0,1,2.9-.76,5.41,5.41,0,0,1,2.09.38,3.87,3.87,0,0,1,1.49,1.08,4.74,4.74,0,0,1,.89,1.7,7.74,7.74,0,0,1,.31,2.25v9.17h-1.37V89.48a4.91,4.91,0,0,0-.93-3.17,3.4,3.4,0,0,0-2.82-1.14,5,5,0,0,0-2.63.73,7.5,7.5,0,0,0-2.16,2V98.65Z"/><path class="cls-1" d="M361.8,84.07a7,7,0,0,1,2.76.53,5.68,5.68,0,0,1,2.05,1.49,6.49,6.49,0,0,1,1.28,2.33,10.76,10.76,0,0,1,0,6.09,6.53,6.53,0,0,1-1.28,2.32,5.57,5.57,0,0,1-2.05,1.49,7.61,7.61,0,0,1-5.53,0A5.6,5.6,0,0,1,357,96.83a6.53,6.53,0,0,1-1.28-2.32,10.76,10.76,0,0,1,0-6.09A6.49,6.49,0,0,1,357,86.09,5.72,5.72,0,0,1,359,84.6,7,7,0,0,1,361.8,84.07Zm0,13.68a5.39,5.39,0,0,0,2.24-.43,4.32,4.32,0,0,0,1.6-1.27,5.46,5.46,0,0,0,1-2,9.91,9.91,0,0,0,.31-2.6,10,10,0,0,0-.31-2.6,5.64,5.64,0,0,0-1-2A4.32,4.32,0,0,0,364,85.6a5.83,5.83,0,0,0-4.49,0,4.32,4.32,0,0,0-1.6,1.27,5.64,5.64,0,0,0-1,2,9.58,9.58,0,0,0-.33,2.6,9.48,9.48,0,0,0,.33,2.6,5.46,5.46,0,0,0,1,2,4.32,4.32,0,0,0,1.6,1.27A5.41,5.41,0,0,0,361.8,97.75Z"/><path class="cls-1" d="M369.91,84.3H371a.52.52,0,0,1,.33.11.56.56,0,0,1,.17.24L375.09,96a5.83,5.83,0,0,1,.16.63c0,.2.07.41.11.61.05-.2.1-.41.16-.61s.13-.41.2-.63l3.85-11.42a.41.41,0,0,1,.41-.32h.56a.42.42,0,0,1,.42.32L384.75,96a11.31,11.31,0,0,1,.35,1.25c0-.2.08-.4.12-.61a4.12,4.12,0,0,1,.18-.64L389,84.65a.48.48,0,0,1,.49-.35h1l-4.8,14.35h-1q-.23,0-.33-.3L380.45,86.7c0-.15-.09-.29-.13-.44s-.07-.29-.1-.43l-.09.43c0,.15-.08.29-.12.44l-4,11.65a.36.36,0,0,1-.35.3h-1Z"/><path class="cls-1" d="M395,77.67v21h-1.37v-21Z"/><path class="cls-1" d="M405.44,84.07a5.84,5.84,0,0,1,2.24.42,4.92,4.92,0,0,1,1.79,1.22,5.66,5.66,0,0,1,1.19,2,8,8,0,0,1,.42,2.69.74.74,0,0,1-.09.43.36.36,0,0,1-.3.12H400.34v.27a9.73,9.73,0,0,0,.37,2.84,5.78,5.78,0,0,0,1.07,2,4.35,4.35,0,0,0,1.67,1.25,5.55,5.55,0,0,0,2.19.42,6.56,6.56,0,0,0,1.88-.24,6.81,6.81,0,0,0,1.33-.53,9.3,9.3,0,0,0,.86-.53,1,1,0,0,1,.46-.24.34.34,0,0,1,.29.14l.37.46a3.83,3.83,0,0,1-.91.81,6.56,6.56,0,0,1-1.27.64,9.7,9.7,0,0,1-1.5.43,8.7,8.7,0,0,1-1.61.16,6.85,6.85,0,0,1-2.68-.51,5.87,5.87,0,0,1-2.08-1.5,6.81,6.81,0,0,1-1.34-2.4,10.44,10.44,0,0,1-.47-3.25,8.69,8.69,0,0,1,.44-2.85,6.36,6.36,0,0,1,1.27-2.25,5.82,5.82,0,0,1,2-1.48A6.75,6.75,0,0,1,405.44,84.07Zm0,1a5.34,5.34,0,0,0-2,.34,4.15,4.15,0,0,0-1.52,1,5.14,5.14,0,0,0-1,1.55,7.1,7.1,0,0,0-.52,2h9.44a6.34,6.34,0,0,0-.32-2.07,4.44,4.44,0,0,0-.89-1.55,3.78,3.78,0,0,0-1.38-1A4.68,4.68,0,0,0,405.46,85.1Z"/><path class="cls-1" d="M419.5,84.06a6.05,6.05,0,0,1,1.74.23,5,5,0,0,1,1.43.65h3.68v.47c0,.24-.13.37-.4.39l-2.18.16a4.44,4.44,0,0,1,.62,1.23,5,5,0,0,1,.22,1.47,4.61,4.61,0,0,1-.38,1.88,4.29,4.29,0,0,1-1,1.44,4.83,4.83,0,0,1-1.61.93,6.26,6.26,0,0,1-2.08.33,6.4,6.4,0,0,1-2.25-.37,3,3,0,0,0-.95.82,1.58,1.58,0,0,0-.35.92,1.12,1.12,0,0,0,.44,1,2.79,2.79,0,0,0,1.14.49,10.6,10.6,0,0,0,1.63.19l1.86.09c.63,0,1.25.1,1.86.19a5.56,5.56,0,0,1,1.63.45,2.81,2.81,0,0,1,1.15.91,2.52,2.52,0,0,1,.43,1.55,3.53,3.53,0,0,1-.45,1.71,4.44,4.44,0,0,1-1.29,1.46,7,7,0,0,1-2,1,8.94,8.94,0,0,1-2.68.38,10.42,10.42,0,0,1-2.65-.31,6.36,6.36,0,0,1-1.91-.84,3.62,3.62,0,0,1-1.16-1.22,2.94,2.94,0,0,1-.39-1.47,2.81,2.81,0,0,1,.75-2,4.8,4.8,0,0,1,2.06-1.27,2.8,2.8,0,0,1-1.15-.7,1.86,1.86,0,0,1-.42-1.29,2.09,2.09,0,0,1,.11-.63,2.64,2.64,0,0,1,.35-.66,3.68,3.68,0,0,1,1.31-1.13A4.28,4.28,0,0,1,414.94,91a4.47,4.47,0,0,1-.57-2.29,4.62,4.62,0,0,1,.37-1.89,4.13,4.13,0,0,1,1-1.44,4.59,4.59,0,0,1,1.63-.94A6.34,6.34,0,0,1,419.5,84.06Zm5.32,15.56a1.62,1.62,0,0,0-.35-1.09,2.36,2.36,0,0,0-1-.65,5.66,5.66,0,0,0-1.36-.32c-.51-.06-1.05-.11-1.61-.14l-1.7-.08a12.27,12.27,0,0,1-1.58-.18,6.91,6.91,0,0,0-1,.5,4,4,0,0,0-.8.63,2.8,2.8,0,0,0-.52.78,2.26,2.26,0,0,0-.19.94,2.2,2.2,0,0,0,.33,1.17,2.85,2.85,0,0,0,.95.94,5.37,5.37,0,0,0,1.53.62,9.23,9.23,0,0,0,4.14,0,5.66,5.66,0,0,0,1.64-.69,3.48,3.48,0,0,0,1.09-1.07A2.4,2.4,0,0,0,424.82,99.62Zm-5.32-7.31a4.62,4.62,0,0,0,1.64-.27,3.62,3.62,0,0,0,1.22-.74,3.26,3.26,0,0,0,.74-1.14,4.14,4.14,0,0,0,.25-1.48,4.09,4.09,0,0,0-.26-1.47,3,3,0,0,0-.76-1.15,3.27,3.27,0,0,0-1.21-.73,4.51,4.51,0,0,0-1.62-.27,4.64,4.64,0,0,0-1.63.27,3.31,3.31,0,0,0-1.22.73,3.1,3.1,0,0,0-.75,1.15,3.88,3.88,0,0,0-.26,1.47,3.94,3.94,0,0,0,.26,1.48,3.15,3.15,0,0,0,.75,1.14,3.62,3.62,0,0,0,1.22.74A4.64,4.64,0,0,0,419.5,92.31Z"/><path class="cls-1" d="M434.73,84.07a5.91,5.91,0,0,1,2.24.42,5,5,0,0,1,1.79,1.22,5.64,5.64,0,0,1,1.18,2,8,8,0,0,1,.42,2.69.74.74,0,0,1-.09.43.34.34,0,0,1-.29.12H429.62v.27A9.71,9.71,0,0,0,430,94a5.62,5.62,0,0,0,1.07,2,4.28,4.28,0,0,0,1.67,1.25,5.48,5.48,0,0,0,2.19.42,6.44,6.44,0,0,0,1.87-.24,6.92,6.92,0,0,0,1.34-.53c.36-.2.64-.38.86-.53a.94.94,0,0,1,.46-.24.36.36,0,0,1,.29.14l.37.46a3.89,3.89,0,0,1-.92.81,6.76,6.76,0,0,1-1.26.64,9.7,9.7,0,0,1-1.5.43,8.79,8.79,0,0,1-1.61.16,6.81,6.81,0,0,1-2.68-.51,5.78,5.78,0,0,1-2.08-1.5,6.66,6.66,0,0,1-1.34-2.4,10.15,10.15,0,0,1-.48-3.25,9,9,0,0,1,.44-2.85A6.69,6.69,0,0,1,430,86.08a5.82,5.82,0,0,1,2-1.48A6.83,6.83,0,0,1,434.73,84.07Zm0,1a5.43,5.43,0,0,0-2,.34,4.33,4.33,0,0,0-1.52,1,5.12,5.12,0,0,0-1,1.55,7.1,7.1,0,0,0-.53,2h9.44a6.34,6.34,0,0,0-.31-2.07,4.44,4.44,0,0,0-.89-1.55,3.91,3.91,0,0,0-1.39-1A4.63,4.63,0,0,0,434.75,85.1Z"/><path class="cls-1" d="M452.22,90.43v8.22h-1.47V78.24H456a8.07,8.07,0,0,1,5.41,1.58,5.57,5.57,0,0,1,1.83,4.48,6.06,6.06,0,0,1-.5,2.47,5.56,5.56,0,0,1-1.43,1.94A6.79,6.79,0,0,1,459,90a9.27,9.27,0,0,1-3,.46Zm0-1.18H456a7.27,7.27,0,0,0,2.42-.38,5.18,5.18,0,0,0,1.81-1,4.37,4.37,0,0,0,1.14-1.56,4.75,4.75,0,0,0,.4-2,4.58,4.58,0,0,0-1.45-3.62A6.44,6.44,0,0,0,456,79.41h-3.79Z"/><path class="cls-1" d="M471.77,84.07a6.9,6.9,0,0,1,2.76.53,5.72,5.72,0,0,1,2.06,1.49,6.63,6.63,0,0,1,1.27,2.33,10.76,10.76,0,0,1,0,6.09,6.67,6.67,0,0,1-1.27,2.32,5.6,5.6,0,0,1-2.06,1.49,7.58,7.58,0,0,1-5.52,0A5.6,5.6,0,0,1,467,96.83a6.55,6.55,0,0,1-1.29-2.32,10.76,10.76,0,0,1,0-6.09A6.51,6.51,0,0,1,467,86.09,5.72,5.72,0,0,1,469,84.6,6.9,6.9,0,0,1,471.77,84.07Zm0,13.68a5.36,5.36,0,0,0,2.24-.43,4.32,4.32,0,0,0,1.6-1.27,5.46,5.46,0,0,0,1-2,9.9,9.9,0,0,0,.32-2.6,10,10,0,0,0-.32-2.6,5.64,5.64,0,0,0-1-2A4.32,4.32,0,0,0,474,85.6a5.8,5.8,0,0,0-4.48,0,4.24,4.24,0,0,0-1.6,1.27,5.83,5.83,0,0,0-1,2,9.6,9.6,0,0,0-.32,2.6,9.49,9.49,0,0,0,.32,2.6,5.64,5.64,0,0,0,1,2,4.24,4.24,0,0,0,1.6,1.27A5.36,5.36,0,0,0,471.77,97.75Z"/><path class="cls-1" d="M481.91,98.65V84.3h.72a.4.4,0,0,1,.47.45l.12,3A6.78,6.78,0,0,1,485.06,85a4.26,4.26,0,0,1,2.84-1,5,5,0,0,1,1.2.13,5.21,5.21,0,0,1,1,.4l-.19,1a.25.25,0,0,1-.29.23,1,1,0,0,1-.24,0,3.79,3.79,0,0,0-.4-.13,4.51,4.51,0,0,0-.58-.14,6.22,6.22,0,0,0-.8,0,3.67,3.67,0,0,0-2.67,1,7.11,7.11,0,0,0-1.69,2.91v9.33Z"/><path class="cls-1" d="M497.26,98.88a3,3,0,0,1-2.26-.81,3.39,3.39,0,0,1-.81-2.49V85.77h-2.06a.42.42,0,0,1-.26-.08.3.3,0,0,1-.1-.25v-.53l2.45-.18.34-5.13a.41.41,0,0,1,.11-.23.3.3,0,0,1,.25-.1h.64v5.48h4.51v1h-4.51v9.74a3,3,0,0,0,.15,1,1.79,1.79,0,0,0,.42.7,1.64,1.64,0,0,0,.63.41,2.45,2.45,0,0,0,.78.12,2.22,2.22,0,0,0,.89-.15,3.58,3.58,0,0,0,.65-.33,5.33,5.33,0,0,0,.45-.33.46.46,0,0,1,.27-.15.32.32,0,0,1,.23.14l.37.61a3.85,3.85,0,0,1-1.39,1A4.23,4.23,0,0,1,497.26,98.88Z"/><path class="cls-1" d="M512.79,98.65a.48.48,0,0,1-.53-.4l-.2-1.84a15.44,15.44,0,0,1-1.18,1,7,7,0,0,1-1.22.78,6,6,0,0,1-1.37.48,7.36,7.36,0,0,1-1.61.17,4.59,4.59,0,0,1-1.43-.22A3.49,3.49,0,0,1,504,98a3.23,3.23,0,0,1-.85-1.15,3.87,3.87,0,0,1-.33-1.68,3,3,0,0,1,.52-1.68A4.38,4.38,0,0,1,505,92.13a11,11,0,0,1,2.84-.92,24,24,0,0,1,4.18-.4v-1.5a4.84,4.84,0,0,0-.86-3.07,3,3,0,0,0-2.54-1.07,4.83,4.83,0,0,0-1.77.28,6.37,6.37,0,0,0-1.23.64,8.84,8.84,0,0,0-.83.63.83.83,0,0,1-.53.29.45.45,0,0,1-.43-.26l-.25-.42a8.62,8.62,0,0,1,2.37-1.7,6.62,6.62,0,0,1,2.81-.57,5.24,5.24,0,0,1,2,.36,3.8,3.8,0,0,1,1.43,1.06,4.55,4.55,0,0,1,.86,1.65,7.77,7.77,0,0,1,.29,2.18v9.34ZM507,97.88a5.6,5.6,0,0,0,2.84-.68,6.11,6.11,0,0,0,1.11-.77c.35-.3.69-.62,1-1V91.73a25.59,25.59,0,0,0-3.53.31,10.07,10.07,0,0,0-2.43.68,3.58,3.58,0,0,0-1.42,1,2.23,2.23,0,0,0-.45,1.37,3,3,0,0,0,.24,1.24,2.33,2.33,0,0,0,.62.87,2.69,2.69,0,0,0,.91.5A3.91,3.91,0,0,0,507,97.88Z"/><path class="cls-1" d="M519.44,77.67v21h-1.37v-21Z"/><circle class="cls-2" cx="32.11" cy="85.18" r="7.22"/><circle class="cls-3" cx="46.56" cy="114.17" r="2.3"/><circle class="cls-3" cx="62.86" cy="95.17" r="2.3"/><circle class="cls-3" cx="62.06" cy="70.31" r="2.3"/><circle class="cls-3" cx="41.59" cy="54.46" r="2.3"/><circle class="cls-3" cx="18.3" cy="56.14" r="2.3"/><circle class="cls-3" cx="2.3" cy="74.63" r="2.3"/><circle class="cls-3" cx="4.13" cy="99.9" r="2.3"/><circle class="cls-3" cx="22.63" cy="115.9" r="2.3"/><circle class="cls-4" cx="33.31" cy="99.1" r="3.61"/><path class="cls-4" d="M41.85,112.3a1.37,1.37,0,0,0,1.23-1.71,9.25,9.25,0,0,0-18.17,1.31,1.37,1.37,0,0,0,1.46,1.52Z"/><circle class="cls-5" cx="18.17" cy="86.19" r="3.61"/><path class="cls-5" d="M4.88,94.83A1.39,1.39,0,0,0,6.6,96.06,9.25,9.25,0,0,0,5.28,77.89a1.36,1.36,0,0,0-1.51,1.46Z"/><circle class="cls-5" cx="46.04" cy="83.98" r="3.61"/><path class="cls-5" d="M59.36,75.87a1.38,1.38,0,0,0-1.66-1.3,9.25,9.25,0,0,0,.61,18.21,1.38,1.38,0,0,0,1.57-1.41Z"/><circle class="cls-4" cx="41.25" cy="74.61" r="3.61"/><path class="cls-4" d="M44.64,59.3a1.37,1.37,0,0,0-2.08.34A9.25,9.25,0,0,0,56.33,71.56a1.37,1.37,0,0,0,0-2.11Z"/><circle class="cls-4" cx="21.66" cy="75.89" r="3.61"/><path class="cls-4" d="M6.64,72.91A1.38,1.38,0,0,0,7,75,9.25,9.25,0,0,0,18.9,61.21a1.39,1.39,0,0,0-2.11,0Z"/><circle class="cls-6" cx="31.29" cy="71.22" r="3.61"/><path class="cls-6" d="M22.57,58.14a1.38,1.38,0,0,0-1.23,1.72,9.25,9.25,0,0,0,18.17-1.32A1.38,1.38,0,0,0,38,57Z"/><circle class="cls-6" cx="22.96" cy="95.75" r="3.61"/><path class="cls-6" d="M20,111.22a1.38,1.38,0,0,0,2.09-.34A9.25,9.25,0,0,0,8.28,99a1.38,1.38,0,0,0,0,2.11Z"/><circle class="cls-6" cx="42.8" cy="94.18" r="3.61"/><path class="cls-6" d="M58.57,97.57a1.38,1.38,0,0,0-.34-2.08,9.25,9.25,0,0,0-11.92,13.77,1.37,1.37,0,0,0,2.11,0Z"/><circle class="cls-2" cx="38.66" cy="18.12" r="3.8"/><circle class="cls-3" cx="49.4" cy="4.88" r="1.21"/><circle class="cls-3" cx="36.75" cy="1.21" r="1.21"/><circle class="cls-3" cx="25.02" cy="7.01" r="1.21"/><circle class="cls-3" cx="21.89" cy="20.26" r="1.21"/><circle class="cls-3" cx="27.77" cy="31.05" r="1.21"/><circle class="cls-3" cx="40.1" cy="34.68" r="1.21"/><circle class="cls-3" cx="51.81" cy="28.31" r="1.21"/><circle class="cls-3" cx="55.44" cy="15.97" r="1.21"/><circle class="cls-7" cx="42.18" cy="24.57" r="1.9"/><path class="cls-7" d="M49.21,29.05A.73.73,0,0,0,49.43,28,4.87,4.87,0,0,0,41,32.55a.74.74,0,0,0,1,.41Z"/><circle class="cls-7" cx="35.05" cy="11.7" r="1.9"/><path class="cls-7" d="M28.27,7.09A.72.72,0,0,0,28,8.17,4.87,4.87,0,0,0,36.6,3.92a.73.73,0,0,0-1-.45Z"/><circle class="cls-8" cx="45.07" cy="14.51" r="1.9"/><path class="cls-8" d="M49.53,7.54a.73.73,0,0,0-1.09-.21A4.87,4.87,0,0,0,53,15.74a.72.72,0,0,0,.41-1Z"/><circle class="cls-8" cx="31.61" cy="16.04" r="1.9"/><path class="cls-8" d="M23.54,17.75a.72.72,0,0,0,.62.92,4.86,4.86,0,0,0,2.7-9.19.72.72,0,0,0-1,.44Z"/><circle class="cls-8" cx="36.49" cy="25.14" r="1.9"/><path class="cls-8" d="M38.33,33a.73.73,0,0,0,.93-.61,4.87,4.87,0,0,0-9.2-2.71.73.73,0,0,0,.44,1Z"/><circle class="cls-9" cx="32.16" cy="21.54" r="1.9"/><path class="cls-9" d="M27.79,28.57a.73.73,0,0,0,1.09.22,4.87,4.87,0,0,0-4.58-8.42.72.72,0,0,0-.41,1Z"/><circle class="cls-9" cx="45.72" cy="20.19" r="1.9"/><path class="cls-9" d="M53.78,18.25a.72.72,0,0,0-.62-.92,4.87,4.87,0,0,0-2.71,9.19.72.72,0,0,0,1-.44Z"/><circle class="cls-9" cx="40.64" cy="11.03" r="1.9"/><path class="cls-9" d="M38.83,2.74a.73.73,0,0,0-.92.62A4.87,4.87,0,0,0,47.1,6.07a.71.71,0,0,0-.44-1Z"/><circle class="cls-2" cx="75.9" cy="42.96" r="4.95"/><circle class="cls-3" cx="57.97" cy="56.08" r="1.58"/><circle class="cls-3" cx="72.7" cy="64.91" r="1.58"/><circle class="cls-3" cx="89.41" cy="61.5" r="1.58"/><circle class="cls-3" cx="97.76" cy="45.82" r="1.58"/><circle class="cls-3" cx="93.93" cy="30.27" r="1.58"/><circle class="cls-3" cx="79.58" cy="21.59" r="1.58"/><circle class="cls-3" cx="62.7" cy="25.75" r="1.58"/><circle class="cls-3" cx="54.03" cy="40.1" r="1.58"/><circle class="cls-10" cx="73.6" cy="33.66" r="2.48"/><path class="cls-10" d="M66.22,25.67a.94.94,0,0,0-.63,1.3,6.34,6.34,0,0,0,12.13-3,.94.94,0,0,0-1.16-.85Z"/><circle class="cls-10" cx="78.32" cy="52.25" r="2.48"/><path class="cls-10" d="M85.34,60.31A1,1,0,0,0,86,59a6.35,6.35,0,0,0-12.24,2.52.94.94,0,0,0,1.13.9Z"/><circle class="cls-11" cx="66.62" cy="45.39" r="2.48"/><path class="cls-11" d="M58.68,52.68a.94.94,0,0,0,1.3.64,6.34,6.34,0,0,0-3-12.13.93.93,0,0,0-.85,1.16Z"/><circle class="cls-11" cx="84.1" cy="47.92" r="2.48"/><path class="cls-11" d="M94.84,48.44a.93.93,0,0,0-.47-1.36,6.34,6.34,0,0,0-6.46,10.69.94.94,0,0,0,1.43-.22Z"/><circle class="cls-11" cx="80.97" cy="34.83" r="2.48"/><path class="cls-11" d="M81.25,24.33a.94.94,0,0,0-1.37.47,6.34,6.34,0,0,0,10.69,6.46.94.94,0,0,0-.22-1.43Z"/><circle class="cls-12" cx="85.24" cy="40.8" r="2.48"/><path class="cls-12" d="M93.07,33.39a1,1,0,0,0-1.3-.64,6.35,6.35,0,0,0,3,12.14,1,1,0,0,0,.86-1.17Z"/><circle class="cls-12" cx="67.69" cy="38" r="2.48"/><path class="cls-12" d="M56.88,37.77a1,1,0,0,0,.47,1.37,6.35,6.35,0,0,0,6.47-10.69.94.94,0,0,0-1.43.21Z"/><circle class="cls-12" cx="71.05" cy="51.24" r="2.48"/><path class="cls-12" d="M70.58,62.29a.94.94,0,0,0,1.36-.47,6.35,6.35,0,0,0-10.69-6.47.94.94,0,0,0,.22,1.43Z"/></g></g></svg>