<svg width="224" height="98" viewBox="0 0 224 98" fill="none" xmlns="http://www.w3.org/2000/svg">
<mask id="mask0_625:21952" style="mask-type:alpha" maskUnits="userSpaceOnUse" x="0" y="0" width="224" height="98">
<rect width="224" height="98" fill="#125E81"/>
</mask>
<g mask="url(#mask0_625:21952)">
<path fill-rule="evenodd" clip-rule="evenodd" d="M170.644 -9.00378L167.666 -14.0121C166.176 -14.6896 164.686 -15.4348 163.197 -14.6896L109.912 21.5339C109.912 22.2114 109.167 22.9566 109.167 23.6341C109.167 24.3793 109.167 25.0568 109.912 25.8004L112.89 29.9974C113.635 31.4201 115.871 31.4201 117.36 30.7426L169.899 -5.48255C170.644 -5.48255 171.457 -6.16003 171.457 -6.90527C171.457 -7.58276 171.457 -8.3263 170.644 -9.00378Z" fill="#1C76AF"/>
<path fill-rule="evenodd" clip-rule="evenodd" d="M180.327 3.79393L177.347 -1.15003C176.602 -1.15003 175.857 -1.89526 175.112 -1.89526L172.81 -1.89526C172.81 -1.89526 118.645 34.8719 117.154 36.2929L44.98 36.2929C42.746 36.2929 42.0024 37.6479 42.0024 39.0689L42.0024 44.7564C42.0024 46.1792 42.7477 47.5324 44.98 47.5324L120.203 47.5324C120.948 47.5324 121.692 47.5324 122.437 46.855L179.583 7.31347C181.072 6.63598 181.883 5.21496 180.327 3.79393Z" fill="#1C76AF"/>
<path fill-rule="evenodd" clip-rule="evenodd" d="M169.9 -5.41488C170.646 -5.41488 171.459 -6.16011 171.459 -6.8376C171.459 -7.58283 171.459 -8.25863 170.646 -9.00386L167.663 -13.9444C166.174 -14.6897 164.685 -15.4349 163.195 -14.6897L138.55 2.44057L145.253 11.6493L169.899 -5.41488L169.9 -5.41488ZM180.327 3.79386L177.348 -1.1501C176.602 -1.1501 175.857 -1.89534 175.112 -1.89534L172.81 -1.89534C172.81 -1.89534 160.759 6.6376 148.031 15.1689L154.801 24.3759L179.582 7.38115C181.072 6.63591 181.885 5.21488 180.327 3.79386Z" fill="#47337D"/>
<path fill-rule="evenodd" clip-rule="evenodd" d="M120.472 39.1378C119.659 39.8153 119.659 40.4928 116.681 40.4928C112.889 40.4928 48.2278 38.3926 48.2278 38.3926C48.2278 38.3926 101.649 38.3926 115.191 37.7151C118.172 37.7151 118.915 37.7151 120.472 36.2941C130.222 29.9968 165.633 7.45007 165.633 7.45007C165.633 7.45007 121.962 38.3943 120.472 39.1378Z" fill="white"/>
<path fill-rule="evenodd" clip-rule="evenodd" d="M161.776 -8.18913C161.031 -8.18913 115.938 20.7226 115.938 20.7226L163.333 -11.7104C164.823 -12.3879 165.569 -13.1331 166.312 -11.7104C167.057 -10.9651 170.104 -7.4439 170.104 -7.4439C168.546 -8.86662 166.312 -10.9668 161.776 -8.18913Z" fill="white"/>
<path fill-rule="evenodd" clip-rule="evenodd" d="M170.644 106.1L167.666 111.042C166.176 111.719 164.686 112.397 163.197 111.719L109.912 75.6991C109.912 75.0216 109.167 74.3442 109.167 73.5989C109.167 72.9214 109.167 72.1779 109.912 71.5004L112.89 67.2356C113.635 65.8129 115.871 65.8129 117.36 66.5581L169.899 102.578C170.644 102.578 171.457 103.256 171.457 103.933C171.457 104.679 171.457 105.356 170.644 106.101L170.644 106.1Z" fill="#1C76AF"/>
<path fill-rule="evenodd" clip-rule="evenodd" d="M179.581 89.9853L122.435 50.4438C121.692 49.6986 120.947 49.6986 120.203 49.6986L44.9783 49.6986C42.7443 49.6986 42.0008 51.1213 42.0008 52.544L42.0008 58.2298C42.0008 59.5848 42.746 61.0075 44.9783 61.0075L117.156 61.0076C118.647 62.4286 172.812 99.1263 172.812 99.1263L175.113 99.1263C175.859 99.1263 176.604 98.4488 177.349 98.4488L180.325 93.5049C181.883 92.0822 181.07 90.6594 179.58 89.9819L179.581 89.9853Z" fill="#1C76AF"/>
<path fill-rule="evenodd" clip-rule="evenodd" d="M169.9 102.578C170.646 102.578 171.459 103.255 171.459 103.933C171.459 104.678 171.459 105.355 170.646 106.101L167.665 111.041C166.176 111.719 164.687 112.396 163.197 111.719L138.551 94.7917L145.255 85.583L169.899 102.578L169.9 102.578ZM180.327 93.5045L177.348 98.4502C176.602 98.4502 175.857 99.1277 175.112 99.1277L172.81 99.1277C172.81 99.1277 160.759 90.6642 148.031 82.1329L154.801 72.8564L179.582 89.9172C181.072 90.6625 181.885 92.0852 180.327 93.5062L180.327 93.5045Z" fill="#47337D"/>
<path fill-rule="evenodd" clip-rule="evenodd" d="M121.895 52.4747C120.405 51.7294 121.15 51.7294 117.427 51.7294L47.4173 51.7294L118.916 53.8974C119.661 53.8974 172.403 86.3964 172.403 86.3964C172.403 86.3964 122.71 53.1521 121.897 52.4747L121.895 52.4747Z" fill="white"/>
<path fill-rule="evenodd" clip-rule="evenodd" d="M164.01 101.835C163.264 101.835 119.594 71.5008 119.594 71.5008L167.8 102.513C169.291 103.258 170.104 103.934 169.291 105.355C168.545 106.032 165.566 109.554 165.566 109.554C167.057 108.199 167.802 105.355 164.008 101.835L164.01 101.835Z" fill="white"/>
<path d="M170.644 -9.00378L167.666 -14.0121C166.176 -14.6896 164.686 -15.4348 163.197 -14.6896L109.912 21.5339C109.912 22.2114 109.167 22.9566 109.167 23.6341C109.167 24.3793 109.167 25.0568 109.912 25.8004L112.89 29.9974C113.635 31.4201 115.871 31.4201 117.36 30.7426L169.899 -5.48255C170.644 -5.48255 171.457 -6.16003 171.457 -6.90527C171.457 -7.58276 171.457 -8.3263 170.644 -9.00378" stroke="#58585A" stroke-width="0.8" stroke-linecap="round" stroke-linejoin="round"/>
<path d="M180.327 3.79393L177.347 -1.15003C176.602 -1.15003 175.857 -1.89526 175.112 -1.89526L172.81 -1.89526C172.81 -1.89526 118.645 34.8719 117.154 36.2929L44.98 36.2929C42.746 36.2929 42.0024 37.6479 42.0024 39.0689L42.0024 44.7564C42.0024 46.1792 42.7477 47.5324 44.98 47.5324L120.203 47.5324C120.948 47.5324 121.692 47.5324 122.437 46.855L179.583 7.31347C181.072 6.63598 181.883 5.21496 180.327 3.79393" stroke="#58585A" stroke-width="0.8" stroke-linecap="round" stroke-linejoin="round"/>
<path d="M170.644 106.1L167.666 111.042C166.176 111.719 164.686 112.397 163.197 111.719L109.912 75.6991C109.912 75.0216 109.167 74.3442 109.167 73.5989C109.167 72.9214 109.167 72.1779 109.912 71.5004L112.89 67.2356C113.635 65.8129 115.871 65.8129 117.36 66.5581L169.899 102.578C170.644 102.578 171.457 103.256 171.457 103.933C171.457 104.679 171.457 105.356 170.644 106.101" stroke="#58585A" stroke-width="0.8" stroke-linecap="round" stroke-linejoin="round"/>
<path d="M179.581 89.9853L122.435 50.4438C121.692 49.6986 120.947 49.6986 120.203 49.6986L44.9784 49.6986C42.7443 49.6986 42.0008 51.1213 42.0008 52.544L42.0008 58.2298C42.0008 59.5848 42.746 61.0075 44.9784 61.0075L117.156 61.0076C118.647 62.4286 172.812 99.1263 172.812 99.1263L175.113 99.1263C175.859 99.1263 176.604 98.4488 177.349 98.4488L180.325 93.5049C181.883 92.0822 181.07 90.6594 179.58 89.9819" stroke="#58585A" stroke-width="0.8" stroke-linecap="round" stroke-linejoin="round"/>
<rect opacity="0.8" width="224" height="98" fill="#125E81"/>
</g>
</svg>
