<?xml version="1.0" encoding="utf-8"?>
<!-- Generator: Adobe Illustrator 24.1.2, SVG Export Plug-In . SVG Version: 6.00 Build 0)  -->
<svg version="1.1" id="Layer_1" xmlns="http://www.w3.org/2000/svg" xmlns:xlink="http://www.w3.org/1999/xlink" x="0px" y="0px"
	 viewBox="0 0 98 98" style="enable-background:new 0 0 98 98;" xml:space="preserve">
<style type="text/css">
	.st0{fill:#DDDDDF;}
	.st1{fill:none;stroke:#DDDDDF;stroke-width:2;stroke-miterlimit:10;}
	.st2{fill-rule:evenodd;clip-rule:evenodd;fill:#FFFFFF;}
	.st3{fill:#FFFFFF;}
	.st4{fill:#FFFFFF;stroke:#DDDDDF;stroke-width:2.0002;stroke-miterlimit:10.0007;}
	.st5{fill:#FFFFFF;stroke:#DDDDDF;stroke-width:2;stroke-miterlimit:10;}
</style>
<rect x="5.1" y="68.2" class="st0" width="67.4" height="1.5"/>
<path class="st1" d="M5.4,68.5c0,0,19.1-4.4,31.6-29.4c2.9-5.8,8.4-8.6,13.5-6.6c0.1,0,0.2,0.1,0.2,0.1c2.3,1,4.4,3.1,5.2,6
	c2.3,8,8.2,20.9,14.2,30.7"/>
<g>
	<path class="st2" d="M95.9,69.1l-7.4,8.5L68.8,60.2l3.6-4.2l3.7-4.4L95.9,69.1z"/>
	<rect x="66.2" y="45" transform="matrix(0.6567 -0.7542 0.7542 0.6567 -15.6322 68.9878)" class="st3" width="3.5" height="13.4"/>
	<rect x="66" y="45.1" transform="matrix(0.6567 -0.7542 0.7542 0.6567 -15.5048 68.7265)" class="st4" width="3.5" height="12.6"/>
	<path class="st5" d="M95.8,68.9l-7.4,8.5L68.7,60.1l3.6-4.2l3.7-4.4L95.8,68.9z"/>
	<path class="st5" d="M35,49.3c-4-3.4-6.4-8.3-6.7-13.4c-0.1-0.8-0.1-1.4-0.1-2.2l0,0C28.4,27,32,21,37.8,17.5
		c2.7-1.6,5.6-2.6,8.8-2.8c5.8-0.4,11.5,1.8,15.6,6c1.9,2,3.4,4.4,4.3,7c0.6,1.7,1,3.5,1.1,5.3c0.1,1.6,0,3.1-0.2,4.6
		s-0.6,3-1.3,4.4c-3,6.9-9.4,11.5-16.9,12c-3.1,0.2-6.2-0.3-9.1-1.6C38.3,51.8,36.6,50.7,35,49.3L35,49.3z M60.5,45.4
		c2.9-3.4,4.3-7.7,4.1-12.2c0-0.6-0.1-1.3-0.2-1.8l0,0c-1-5.5-4.7-10.1-9.9-12.4c-2.4-1.1-5-1.5-7.7-1.3c-4.9,0.3-9.4,2.8-12.3,6.9
		c-1.4,1.9-2.3,4.1-2.8,6.4c-0.3,1.5-0.5,3.1-0.4,4.6c0.1,1.3,0.3,2.7,0.7,3.9c0.3,1.2,0.9,2.4,1.6,3.6c3.2,5.4,9.1,8.5,15.5,8.1
		c2.7-0.2,5.2-1,7.5-2.4C58,47.8,59.3,46.7,60.5,45.4L60.5,45.4z"/>
</g>
<rect x="5.1" y="23.8" class="st0" width="2.1" height="45.9"/>
</svg>
