<?xml version="1.0" encoding="utf-8"?>
<!-- Generator: Adobe Illustrator 24.1.2, SVG Export Plug-In . SVG Version: 6.00 Build 0)  -->
<svg version="1.1" id="Layer_1" xmlns="http://www.w3.org/2000/svg" xmlns:xlink="http://www.w3.org/1999/xlink" x="0px" y="0px"
	 viewBox="0 0 93 88" style="enable-background:new 0 0 93 88;" xml:space="preserve">
<style type="text/css">
	.st0{fill:#DDDDDF;}
	.st1{fill:none;stroke:#DDDDDF;stroke-width:4;}
	.st2{fill:none;stroke:#DDDDDF;stroke-width:3;}
</style>
<path class="st0" d="M62.2,27.2c-0.1,0.7,0.3,1.3,0.8,1.6c0.6,0.3,1.3,0.2,1.8-0.2c1.4-1.2,2.7-2.5,3.7-4.1c0.5-0.8,1-1.6,1.3-2.5
	c1.5-3.4,1.9-7.2,1.1-10.9c-0.2-0.9-0.5-1.8-0.8-2.7c-0.3-0.9-1.3-1.3-2.1-1c-0.9,0.3-1.3,1.3-1,2.1c0.3,0.7,0.5,1.5,0.7,2.2
	c0.6,3,0.3,6-0.9,8.8c-0.3,0.7-0.7,1.4-1.1,2c-0.8,1.3-1.8,2.4-3,3.3C62.4,26.4,62.2,26.8,62.2,27.2L62.2,27.2z"/>
<path class="st1" d="M79,2c-0.3,14.1-4.1,26.7-9.9,35.8C62.9,47.4,54.7,53,46,53s-16.9-5.6-23.1-15.2C17.1,28.7,13.4,16.1,13,2H79z"
	/>
<path class="st1" d="M78.5,9.5c5.7,0,11,2.5,11.5,9S82.3,40,68,40"/>
<path class="st1" d="M13.5,10c-5.7,0-11,2.5-11.5,9c-0.5,6.5,7.7,21.5,22,21.5"/>
<path class="st1" d="M52,54v18H40V54L52,54z"/>
<path class="st2" d="M58.5,79.5h-25v-7h25L58.5,79.5z"/>
<path class="st1" d="M62,86H30v-6h32L62,86z"/>
</svg>
