<svg id="Layer_1" data-name="Layer 1" xmlns="http://www.w3.org/2000/svg" viewBox="0 0 91 106"><defs><style>.cls-1,.cls-2,.cls-3,.cls-4,.cls-5{fill:#fff;}.cls-1{fill-opacity:0.3;}.cls-1,.cls-4,.cls-5{stroke:#000;}.cls-1,.cls-5{stroke-width:2px;}.cls-2{fill-rule:evenodd;}.cls-4{stroke-miterlimit:10;stroke-width:2px;}.cls-5{stroke-miterlimit:10;}</style></defs><path class="cls-1" d="M47.75,50.48a11.67,11.67,0,0,1,23.31,0Z"/><path class="cls-1" d="M64.53,31.57a4.88,4.88,0,1,1-4.87-4.94A4.91,4.91,0,0,1,64.53,31.57Z"/><path class="cls-2" d="M26.78,62.29l4.8,4.9,4.7,4.7-22.1,22.3-9.5-9.5Z"/><rect class="cls-3" x="28.66" y="59.57" width="16" height="4.2" transform="translate(-32.87 43.99) rotate(-45)"/><rect class="cls-4" x="29.26" y="59.2" width="15.1" height="4.2" transform="translate(-32.57 43.98) rotate(-45)"/><path class="cls-5" d="M26.88,62.09l4.8,4.9,4.7,4.7L14.28,94l-9.5-9.5Z"/><path class="cls-5" d="M75.78,56.09a22.8,22.8,0,0,1-6,4.3A23.6,23.6,0,0,1,38,50.09a20.37,20.37,0,0,1-1.9-5.2,25.05,25.05,0,0,1-.6-5.5,23,23,0,0,1,.9-6.4,23.67,23.67,0,0,1,22.7-17.2,23.76,23.76,0,0,1,23.5,21.1h0a22.6,22.6,0,0,1,.1,2.6,22.74,22.74,0,0,1-6.9,16.6ZM45,53.49a20.81,20.81,0,0,0,5.1,3.7,20.36,20.36,0,0,0,9.1,2.2A19.85,19.85,0,0,0,77,48.49a17.89,17.89,0,0,0,1.6-4.4,18.31,18.31,0,0,0,.5-4.7,20.55,20.55,0,0,0-4.7-12.9,19.8,19.8,0,0,0-15.3-7.2,19.12,19.12,0,0,0-9.1,2.2,19.93,19.93,0,0,0-10.8,15.6h0a16.2,16.2,0,0,0-.1,2.2A20.75,20.75,0,0,0,45,53.49Z"/><path d="M77.86,65.87a4.17,4.17,0,0,0-5,3.07,4.07,4.07,0,0,0,.25,2.61l-9.19,8.14a3.65,3.65,0,0,0-.88-.3,4.15,4.15,0,0,0-3.17.51l-4.15-4a4.34,4.34,0,0,0,.52-1.23,4.15,4.15,0,0,0-8.07-1.94,4.1,4.1,0,0,0,.25,2.62l-9.19,8.14A4.15,4.15,0,1,0,41,85.14l9-7.94a4.19,4.19,0,0,0,1.31.58,4.15,4.15,0,0,0,2.7-.29l4.38,4.19a5,5,0,0,0-.28.77,4.15,4.15,0,1,0,7.61-1.14l9-8a4,4,0,0,0,1.31.58,4.15,4.15,0,0,0,1.93-8.07Zm-.55,2.31a1.77,1.77,0,1,1-2.14,1.31A1.75,1.75,0,0,1,77.31,68.18ZM52.62,72a1.78,1.78,0,1,1-2.14,1.32A1.76,1.76,0,0,1,52.62,72Zm9.87,9.68A1.78,1.78,0,1,1,60.35,83,1.76,1.76,0,0,1,62.49,81.69ZM37.8,85.53a1.78,1.78,0,1,1-2.14,1.31A1.76,1.76,0,0,1,37.8,85.53Z"/></svg>