<svg id="Layer_1" data-name="Layer 1" xmlns="http://www.w3.org/2000/svg" viewBox="0 0 90 106"><defs><style>.cls-1{fill:#fff;stroke:#000;stroke-miterlimit:10;stroke-width:2px;}</style></defs><rect x="10.26" y="87.41" width="67.2" height="2.1"/><rect x="10.26" y="22.31" width="2.1" height="67.2"/><rect x="32.35" y="62.02" width="3.48" height="9.44"/><rect x="29.37" y="65" width="9.44" height="3.48"/><rect x="19.25" y="73.48" width="3.48" height="9.44"/><rect x="16.27" y="76.46" width="9.44" height="3.48"/><rect x="52.1" y="35.7" width="3.48" height="9.44"/><rect x="49.13" y="38.68" width="9.44" height="3.48"/><rect x="66.29" y="25.29" width="3.48" height="9.44"/><rect x="63.31" y="28.27" width="9.44" height="3.48"/><rect x="35.83" y="43.9" width="3.48" height="9.44"/><rect x="32.85" y="46.88" width="9.44" height="3.48"/><circle class="cls-1" cx="63.14" cy="76.44" r="17.93"/><path d="M58.38,85.29l-6.1-6.1,2-2,4.06,4.07L72.62,67l2,2Z"/></svg>