<svg id="Layer_1" data-name="Layer 1" xmlns="http://www.w3.org/2000/svg" viewBox="0 0 359 74.31"><title>ADKnowledgePortal_Logo</title><path d="M41,40.91l4.89,3.46,14.67,1.8,3.19,3.52h8.16l8.07-6,4.77-5.84s1-.2.67-6.7-7-12.46-7-12.46l-7.15-7.76L58.12,9.73,47.71,10.91l-12,7.76-7,10.65v7.29l5.22,5,7.92-2.9Z" fill="#ca4382"/><path d="M83.42,38.58a14.15,14.15,0,0,1-9.79,2.59A8.44,8.44,0,0,1,72,43.91a22.14,22.14,0,0,1-8.31,5.8,8.1,8.1,0,0,0,8.55,2.67,7.25,7.25,0,0,0,2.88-1.56,9.37,9.37,0,0,0,1.24-.31,12.31,12.31,0,0,0,8.76-13.14A8,8,0,0,1,83.42,38.58Z" fill="#e567a1"/><path d="M85.52,26.75a13.36,13.36,0,0,0-.46-2.19c0-.09-.09-.16-.09-.24a15.09,15.09,0,0,0-7.22-9.09,15.72,15.72,0,0,0-17.17-7,6.33,6.33,0,0,1-.79.24h-.08a13.94,13.94,0,0,0-16.63,3.29,13,13,0,0,0-4.28.47,12,12,0,0,0-8.31,9.18,13.58,13.58,0,0,0-4.58,13C27.39,41,33.61,45.88,42.69,42c0,.08,0,.08.08.15a9.74,9.74,0,0,1,4-7c-2.33-3.28-7.85-9.63-11.89-7.76a4.08,4.08,0,0,0-2.25,5.48c.85,1.87,2.95,3.22,6,2A1.14,1.14,0,0,1,39.45,37c-4.34,1.8-7.7-.39-8.86-3.22a6.38,6.38,0,0,1,3.34-8.46,5.32,5.32,0,0,1,2.88-.54A8,8,0,0,1,39.06,19c2.33-2.35,5.76-2.82,7.38-2.89,1.15-3.46,4.43-5.41,8.7-5.09a11,11,0,0,1,5.59,2.28,17.41,17.41,0,0,1,1.7,1.48c2.49-1.56,6-2.5,8.95-1.41,2,.7,4.51,2.5,5.37,7.28a7.12,7.12,0,0,1,3.88,4.31,6.13,6.13,0,0,1-1.09,5.24c-1,1.41-3.19,3.13-7.46,3.29h-.16c-.08,0-7.85-.79-10.64,4.78-.16.31-.31.63-.46.87a6.28,6.28,0,0,1-3.34,3c-.24.08-.46.08-.7.15a5.22,5.22,0,0,1-4.13-1.87,1.13,1.13,0,0,1,.16-1.57,1.11,1.11,0,0,1,1.55.15A3.08,3.08,0,0,0,56.54,40c.94-.08,1.86-1.09,2.79-2.82A14.2,14.2,0,0,1,60.82,35a11.64,11.64,0,0,1,6.37-3.45,14.94,14.94,0,0,1,5-.31c3.34-.15,4.89-1.33,5.68-2.35a4,4,0,0,0,.69-3.28c-.54-2-3.1-3-3.1-3.07a1,1,0,0,1-.7-.93q-.69-4.93-4-6.11c-2.73-.94-6.31.39-8.25,2.19a5.57,5.57,0,0,0-1.16,6,8.8,8.8,0,0,1,7.16,1.17,1.16,1.16,0,0,1,.3,1.57,1.13,1.13,0,0,1-1.55.31,6.86,6.86,0,0,0-5.67-.7,6.69,6.69,0,0,0-.78.24c-2.41.93-3.11,2.43-3.11,2.58a1.08,1.08,0,0,1-.61.7,1.27,1.27,0,0,1-.94,0,4.83,4.83,0,0,0-4.82,1,4.44,4.44,0,0,0-1.85,4.7,1.14,1.14,0,0,1-.55,1.33,7.48,7.48,0,0,0-3.73,6,5.64,5.64,0,0,0,2.57,4.94,9.53,9.53,0,0,0,6.77.63,8.44,8.44,0,0,0,2.33-1.09,7.24,7.24,0,0,0,4,.78,13,13,0,0,0,4.73-1.48,16.39,16.39,0,0,0,4.74-3.85,5.28,5.28,0,0,0,1.55-2.89,1.27,1.27,0,0,1,.39-.87,1.29,1.29,0,0,1,.94-.24,11.16,11.16,0,0,0,9-2A6.84,6.84,0,0,0,85.08,33a9.42,9.42,0,0,0,.37-1.23,12.35,12.35,0,0,0,.33-3C85.76,28.2,85.64,27.72,85.52,26.75Z" fill="#e567a1"/><path d="M54.9,13.34c-3.49-.24-6,1.26-6.61,4.15a1.09,1.09,0,0,1-1.16.87c-.08,0-4.27-.09-6.61,2.28A5.7,5.7,0,0,0,39,25.1v.24A14.26,14.26,0,0,1,44.25,29a34,34,0,0,1,3,3.28,7.49,7.49,0,0,1,2.49-3.45,7.1,7.1,0,0,1,6.13-1.57A8.51,8.51,0,0,1,59,24.54a7.77,7.77,0,0,1,1.55-8.31C59.57,15.3,57.39,13.51,54.9,13.34Z" fill="#e567a1"/><path d="M82.78,51.46c1.43,1.43,2.84,2.86,4.27,4.31a.92.92,0,0,0,1.3-1.29c-1.43-1.43-2.85-2.86-4.28-4.31C83.24,49.32,81.94,50.63,82.78,51.46Z" fill="#2f8e94"/><path d="M101.52,64.11,96.66,69,85.32,57.59l2.38-2.4,2.47-2.48Z" fill="#fccb71"/><path d="M85.25,43a12,12,0,0,1-3.55,8.56,11.79,11.79,0,0,1-3.06,2.23,12.14,12.14,0,0,1-16.29-5.29,11.76,11.76,0,0,1-1-2.67A12.18,12.18,0,0,1,61,43a12.09,12.09,0,0,1,2.83-7.78,12.06,12.06,0,0,1,9.28-4.33,11.94,11.94,0,0,1,5.5,1.33,12.11,12.11,0,0,1,6.55,9.46C85.21,42.14,85.25,42.58,85.25,43Z" fill="#fff" opacity="0.85" style="isolation:isolate"/><path d="M85.35,42.87A12.39,12.39,0,1,1,73,30.43,12.41,12.41,0,0,1,85.35,42.87Z" fill="none" stroke="#7ec8cc" stroke-miterlimit="10" stroke-width="2"/><path d="M120.84,36.8h-2.29a1,1,0,0,1-.63-.19,1.06,1.06,0,0,1-.36-.48l-1.19-3.25h-6.59l-1.19,3.25a1,1,0,0,1-1,.67h-2.3l6.24-15.91h3Zm-10.3-6h5.07l-1.93-5.29c-.09-.23-.19-.51-.3-.83s-.21-.67-.31-1q-.15.56-.3,1.05c-.1.32-.2.6-.29.84Z" fill="white"/><path d="M136.71,28.84a8.82,8.82,0,0,1-.58,3.22,7.58,7.58,0,0,1-1.64,2.52A7.3,7.3,0,0,1,132,36.21a8.92,8.92,0,0,1-3.29.59h-6.08V20.89h6.08a8.92,8.92,0,0,1,3.29.59,7.24,7.24,0,0,1,4.18,4.15A8.81,8.81,0,0,1,136.71,28.84Zm-3,0a7.1,7.1,0,0,0-.35-2.34,4.88,4.88,0,0,0-1-1.76,4.35,4.35,0,0,0-1.58-1.11,5.37,5.37,0,0,0-2.09-.38h-3.09V34.44h3.09a5.37,5.37,0,0,0,2.09-.38A4.35,4.35,0,0,0,132.33,33a4.88,4.88,0,0,0,1-1.76A7.12,7.12,0,0,0,133.68,28.84Z" fill="white"/><path d="M146.55,27.56h.7a1.71,1.71,0,0,0,.69-.12,1.11,1.11,0,0,0,.47-.37l4.39-5.55a1.6,1.6,0,0,1,.58-.49,1.88,1.88,0,0,1,.76-.14h2.56l-5.36,6.61a5.07,5.07,0,0,1-.48.52,2.33,2.33,0,0,1-.5.34,2.2,2.2,0,0,1,.65.37,3.44,3.44,0,0,1,.57.62l5.52,7.45h-2.61a1.6,1.6,0,0,1-.79-.15,1.23,1.23,0,0,1-.44-.44l-4.49-5.87a1.35,1.35,0,0,0-.5-.41,1.8,1.8,0,0,0-.78-.13h-.94v7h-3V20.88h3Z" fill="white"/><path d="M158.81,36.8V25.51h1.66a.67.67,0,0,1,.69.5l.19.89a6.11,6.11,0,0,1,.72-.64,5.1,5.1,0,0,1,.8-.5,4.65,4.65,0,0,1,.91-.31,4.42,4.42,0,0,1,1.06-.11,4.07,4.07,0,0,1,1.64.31,3.27,3.27,0,0,1,1.19.88,3.81,3.81,0,0,1,.72,1.35,5.63,5.63,0,0,1,.25,1.74V36.8h-2.72V29.62a2.43,2.43,0,0,0-.47-1.61,1.8,1.8,0,0,0-1.44-.56,2.74,2.74,0,0,0-1.32.32,4.46,4.46,0,0,0-1.16.87V36.8Z" fill="white"/><path d="M176.24,25.34a6.24,6.24,0,0,1,2.3.4,4.92,4.92,0,0,1,1.75,1.16,5.08,5.08,0,0,1,1.12,1.82,7.49,7.49,0,0,1,0,4.83,5.26,5.26,0,0,1-1.12,1.84,4.94,4.94,0,0,1-1.75,1.17,6.81,6.81,0,0,1-4.6,0,5,5,0,0,1-1.76-1.17A5.3,5.3,0,0,1,171,33.55a7.49,7.49,0,0,1,0-4.83,5.12,5.12,0,0,1,1.14-1.82,5,5,0,0,1,1.76-1.16A6.28,6.28,0,0,1,176.24,25.34Zm0,9.53a2.4,2.4,0,0,0,2.09-.94,4.76,4.76,0,0,0,.67-2.77,4.83,4.83,0,0,0-.67-2.79,2.38,2.38,0,0,0-2.09-1,2.43,2.43,0,0,0-2.11,1,4.81,4.81,0,0,0-.68,2.78,4.72,4.72,0,0,0,.68,2.76A2.41,2.41,0,0,0,176.24,34.87Z" fill="white"/><path d="M182.67,25.51h2.15a.86.86,0,0,1,.52.15.55.55,0,0,1,.26.36l1.62,6c.09.33.16.65.22,1l.15,1,.26-1c.1-.31.19-.63.3-1L190,26a.76.76,0,0,1,.27-.37.81.81,0,0,1,.46-.14h1.2a.89.89,0,0,1,.5.14.68.68,0,0,1,.26.37l1.85,6.16.26.91c.07.3.15.6.22.9.05-.31.11-.63.17-.95a9.78,9.78,0,0,1,.24-1l1.67-6a.59.59,0,0,1,.26-.36.81.81,0,0,1,.49-.15h2.06L196.34,36.8h-2.19c-.23,0-.4-.16-.5-.49l-2-6.52c-.07-.21-.13-.43-.18-.64s-.1-.43-.14-.65c0,.22-.09.44-.14.66s-.11.43-.18.65l-2.05,6.5a.61.61,0,0,1-.6.49h-2.08Z" fill="white"/><path d="M204.45,20.45V36.8h-2.72V20.45Z" fill="white"/><path d="M212.29,25.34a5.38,5.38,0,0,1,2,.34,4.25,4.25,0,0,1,1.55,1,4.55,4.55,0,0,1,1,1.61,6.09,6.09,0,0,1,.36,2.17c0,.21,0,.38,0,.51a1,1,0,0,1-.1.32.42.42,0,0,1-.2.17.85.85,0,0,1-.3.05h-7a3.87,3.87,0,0,0,.94,2.55,2.91,2.91,0,0,0,2.15.81,3.84,3.84,0,0,0,1.14-.15,5.63,5.63,0,0,0,.84-.34l.63-.34a1,1,0,0,1,.52-.16.51.51,0,0,1,.28.07.6.6,0,0,1,.21.18l.8,1a4.71,4.71,0,0,1-1,.88,5.28,5.28,0,0,1-1.17.57,5.47,5.47,0,0,1-1.24.3,8.69,8.69,0,0,1-1.23.09,6.08,6.08,0,0,1-2.19-.39,4.93,4.93,0,0,1-1.76-1.15,5.31,5.31,0,0,1-1.17-1.89,7.31,7.31,0,0,1-.43-2.62,6.22,6.22,0,0,1,.37-2.17A5.28,5.28,0,0,1,208.31,27,5.1,5.1,0,0,1,210,25.78,5.51,5.51,0,0,1,212.29,25.34Zm.05,1.94a2.51,2.51,0,0,0-1.85.67,3.3,3.3,0,0,0-.86,1.91h5.1a3.55,3.55,0,0,0-.14-1,2.4,2.4,0,0,0-.44-.82,2.09,2.09,0,0,0-.75-.55A2.47,2.47,0,0,0,212.34,27.28Z" fill="white"/><path d="M227.44,36.8a.67.67,0,0,1-.7-.5l-.22-1.09a6.18,6.18,0,0,1-.73.72,4.47,4.47,0,0,1-1.79.91,4.84,4.84,0,0,1-1.11.12,3.81,3.81,0,0,1-1.69-.38,3.93,3.93,0,0,1-1.33-1.12,5.33,5.33,0,0,1-.85-1.81,8.8,8.8,0,0,1-.31-2.46,7.85,7.85,0,0,1,.34-2.33A5.73,5.73,0,0,1,220,27a4.55,4.55,0,0,1,1.53-1.24,4.4,4.4,0,0,1,2-.45,3.76,3.76,0,0,1,1.61.31,4.27,4.27,0,0,1,1.2.8v-6h2.72V36.8Zm-3.62-2a2.84,2.84,0,0,0,1.44-.35,4.19,4.19,0,0,0,1.12-1V28.39a2.74,2.74,0,0,0-1-.79,3,3,0,0,0-1.17-.23,2.65,2.65,0,0,0-1.11.23,2.21,2.21,0,0,0-.85.7,3.35,3.35,0,0,0-.53,1.19,6.58,6.58,0,0,0-.19,1.7,7.36,7.36,0,0,0,.16,1.68,3.63,3.63,0,0,0,.45,1.12,1.72,1.72,0,0,0,.73.62A2.32,2.32,0,0,0,223.82,34.81Z" fill="white"/><path d="M236.05,25.31a5.9,5.9,0,0,1,1.36.15,4.65,4.65,0,0,1,1.17.44h3.24v1a.53.53,0,0,1-.13.39.73.73,0,0,1-.45.2l-1,.19a3.78,3.78,0,0,1,.17.6,3.74,3.74,0,0,1,.06.68,3.29,3.29,0,0,1-.34,1.51,3.42,3.42,0,0,1-.92,1.15,4.33,4.33,0,0,1-1.4.73,5.78,5.78,0,0,1-1.75.26,6.28,6.28,0,0,1-1.24-.12.87.87,0,0,0-.53.72.52.52,0,0,0,.31.5,2.67,2.67,0,0,0,.83.23,9.94,9.94,0,0,0,1.16.06c.43,0,.87,0,1.33.06a11.51,11.51,0,0,1,1.33.19,4.11,4.11,0,0,1,1.16.44,2.27,2.27,0,0,1,.82.81,2.48,2.48,0,0,1,.32,1.32,3.1,3.1,0,0,1-.37,1.46,3.82,3.82,0,0,1-1.07,1.25,5.31,5.31,0,0,1-1.71.89,7.11,7.11,0,0,1-2.31.34,8.62,8.62,0,0,1-2.23-.25,5.05,5.05,0,0,1-1.57-.66,2.9,2.9,0,0,1-.93-1,2.28,2.28,0,0,1-.31-1.12,1.93,1.93,0,0,1,.49-1.33,3.27,3.27,0,0,1,1.34-.86,1.82,1.82,0,0,1-.67-.62,1.77,1.77,0,0,1-.25-1,1.93,1.93,0,0,1,.08-.52,2,2,0,0,1,.27-.53,2.4,2.4,0,0,1,.46-.5,3.19,3.19,0,0,1,.65-.43,3.65,3.65,0,0,1-1.35-1.23,3.42,3.42,0,0,1,.78-4.47,4.34,4.34,0,0,1,1.42-.73A6,6,0,0,1,236.05,25.31Zm3,12a.79.79,0,0,0-.2-.55,1.31,1.31,0,0,0-.54-.33,3.31,3.31,0,0,0-.79-.17,7.54,7.54,0,0,0-1-.06h-1.06a4.57,4.57,0,0,1-1.05-.12,2.49,2.49,0,0,0-.74.6,1.2,1.2,0,0,0-.28.8,1.08,1.08,0,0,0,.15.55,1.28,1.28,0,0,0,.47.45,3,3,0,0,0,.84.29,6.6,6.6,0,0,0,1.27.1,6.29,6.29,0,0,0,1.31-.12,2.87,2.87,0,0,0,.9-.32,1.41,1.41,0,0,0,.53-.49A1.26,1.26,0,0,0,239,37.27Zm-3-6.39a2.58,2.58,0,0,0,.88-.14,1.67,1.67,0,0,0,.62-.38,1.41,1.41,0,0,0,.37-.58,2,2,0,0,0,.13-.75,1.76,1.76,0,0,0-.5-1.32,2.54,2.54,0,0,0-3,0,1.72,1.72,0,0,0-.5,1.32,2.21,2.21,0,0,0,.12.74,1.61,1.61,0,0,0,1,1A2.66,2.66,0,0,0,236.05,30.88Z" fill="white"/><path d="M248.3,25.34a5.47,5.47,0,0,1,2,.34,4.29,4.29,0,0,1,1.54,1,4.42,4.42,0,0,1,1,1.61,5.88,5.88,0,0,1,.37,2.17,3.49,3.49,0,0,1,0,.51.8.8,0,0,1-.1.32.44.44,0,0,1-.19.17.87.87,0,0,1-.31.05h-7a3.92,3.92,0,0,0,.93,2.55,2.92,2.92,0,0,0,2.16.81,3.84,3.84,0,0,0,1.14-.15,6,6,0,0,0,.83-.34l.63-.34a1,1,0,0,1,.52-.16.54.54,0,0,1,.29.07.6.6,0,0,1,.21.18l.79,1a4.66,4.66,0,0,1-1,.88,5.74,5.74,0,0,1-1.17.57,5.55,5.55,0,0,1-1.25.3,8.66,8.66,0,0,1-1.22.09,6,6,0,0,1-2.19-.39,4.85,4.85,0,0,1-1.76-1.15,5.47,5.47,0,0,1-1.18-1.89,7.31,7.31,0,0,1-.43-2.62,6.22,6.22,0,0,1,.37-2.17A5.14,5.14,0,0,1,244.33,27a5,5,0,0,1,1.7-1.19A5.51,5.51,0,0,1,248.3,25.34Zm.06,1.94a2.55,2.55,0,0,0-1.86.67,3.36,3.36,0,0,0-.86,1.91h5.11a3.22,3.22,0,0,0-.15-1,2.24,2.24,0,0,0-.44-.82,2.09,2.09,0,0,0-.75-.55A2.46,2.46,0,0,0,248.36,27.28Z" fill="white"/><path d="M263.08,31.2v5.6h-3V20.89h5.18a9.07,9.07,0,0,1,2.76.38,5.18,5.18,0,0,1,1.92,1,4.14,4.14,0,0,1,1.13,1.61,6,6,0,0,1,0,4.16,4.44,4.44,0,0,1-1.15,1.66A5.29,5.29,0,0,1,268,30.81a8.45,8.45,0,0,1-2.7.39Zm0-2.31h2.22a4.68,4.68,0,0,0,1.42-.2,2.68,2.68,0,0,0,1-.59,2.39,2.39,0,0,0,.59-.92,3.59,3.59,0,0,0,.2-1.22,3.23,3.23,0,0,0-.2-1.15,2.24,2.24,0,0,0-.59-.88,2.77,2.77,0,0,0-1-.56,4.69,4.69,0,0,0-1.42-.19h-2.22Z" fill="white"/><path d="M278.21,25.34a6.24,6.24,0,0,1,2.3.4,4.92,4.92,0,0,1,1.75,1.16,5.08,5.08,0,0,1,1.12,1.82,7.49,7.49,0,0,1,0,4.83,5.26,5.26,0,0,1-1.12,1.84,4.94,4.94,0,0,1-1.75,1.17,6.81,6.81,0,0,1-4.6,0,5,5,0,0,1-1.76-1.17A5.3,5.3,0,0,1,273,33.55a7.49,7.49,0,0,1,0-4.83,5.12,5.12,0,0,1,1.14-1.82,5,5,0,0,1,1.76-1.16A6.28,6.28,0,0,1,278.21,25.34Zm0,9.53a2.4,2.4,0,0,0,2.09-.94,4.76,4.76,0,0,0,.67-2.77,4.83,4.83,0,0,0-.67-2.79,2.38,2.38,0,0,0-2.09-1,2.42,2.42,0,0,0-2.11,1,4.81,4.81,0,0,0-.68,2.78,4.72,4.72,0,0,0,.68,2.76A2.4,2.4,0,0,0,278.21,34.87Z" fill="white"/><path d="M286,36.8V25.51h1.6a.82.82,0,0,1,.58.16.87.87,0,0,1,.22.52l.16,1.37A5.41,5.41,0,0,1,290,25.91a3,3,0,0,1,1.83-.61,2.35,2.35,0,0,1,1.39.39l-.36,2a.42.42,0,0,1-.14.28.45.45,0,0,1-.3.09A1.94,1.94,0,0,1,292,28a3,3,0,0,0-.76-.08,2.33,2.33,0,0,0-1.45.47,3.64,3.64,0,0,0-1,1.37v7Z" fill="white"/><path d="M298.82,37a3,3,0,0,1-2.26-.83,3.16,3.16,0,0,1-.79-2.29v-6.3h-1.15a.51.51,0,0,1-.37-.15.52.52,0,0,1-.17-.43V25.9l1.82-.3.57-3.08a.53.53,0,0,1,.21-.34.63.63,0,0,1,.4-.12h1.41v3.55h3v1.94h-3v6.11a1.2,1.2,0,0,0,.26.83.88.88,0,0,0,.7.3,1.33,1.33,0,0,0,.43-.07l.29-.12.23-.13a.36.36,0,0,1,.2-.06.29.29,0,0,1,.19.06.74.74,0,0,1,.17.18l.81,1.32a4.1,4.1,0,0,1-1.36.75A5,5,0,0,1,298.82,37Z" fill="white"/><path d="M312.58,36.8h-1.22a1.29,1.29,0,0,1-.61-.12.7.7,0,0,1-.33-.47l-.24-.8c-.29.26-.57.48-.84.68a5.28,5.28,0,0,1-.86.49,4,4,0,0,1-.93.29,5.35,5.35,0,0,1-1.1.1,4.25,4.25,0,0,1-1.32-.19,2.86,2.86,0,0,1-1-.58,2.66,2.66,0,0,1-.68-1,3.43,3.43,0,0,1-.24-1.33,2.6,2.6,0,0,1,.34-1.27,3.11,3.11,0,0,1,1.11-1.12,7,7,0,0,1,2.08-.84,13.34,13.34,0,0,1,3.22-.33v-.66a2.51,2.51,0,0,0-.47-1.69,1.74,1.74,0,0,0-1.39-.55,3.44,3.44,0,0,0-1.1.15,4.64,4.64,0,0,0-.77.35l-.6.34a1.12,1.12,0,0,1-.6.16.85.85,0,0,1-.48-.14,1.22,1.22,0,0,1-.32-.36l-.49-.87a6.74,6.74,0,0,1,4.7-1.78,4.45,4.45,0,0,1,1.76.33,3.61,3.61,0,0,1,1.32.9,3.81,3.81,0,0,1,.82,1.38,5.5,5.5,0,0,1,.28,1.76Zm-5.28-1.7a3.74,3.74,0,0,0,.77-.07,3,3,0,0,0,.66-.23,3.55,3.55,0,0,0,.61-.37,5.58,5.58,0,0,0,.58-.53V32a10.93,10.93,0,0,0-2,.15,5.48,5.48,0,0,0-1.28.38,1.73,1.73,0,0,0-.69.55,1.15,1.15,0,0,0-.2.67,1.19,1.19,0,0,0,.42,1A1.8,1.8,0,0,0,307.3,35.1Z" fill="white"/><path d="M318.25,20.45V36.8h-2.71V20.45Z" fill="white"/><path d="M172.33,51.1a2.27,2.27,0,0,0,.72-.11,1.66,1.66,0,0,0,.54-.31,1.43,1.43,0,0,0,.33-.47,1.64,1.64,0,0,0,.1-.6,1.38,1.38,0,0,0-.42-1.07,1.85,1.85,0,0,0-1.27-.38h-1.15V51.1Zm0-3.7a4.06,4.06,0,0,1,1.17.15,2.35,2.35,0,0,1,.83.45,1.65,1.65,0,0,1,.49.7,2.38,2.38,0,0,1,.17.91,2.27,2.27,0,0,1-.18.91,2,2,0,0,1-.51.71,2.31,2.31,0,0,1-.83.47,3.61,3.61,0,0,1-1.14.16h-1.15v2.67h-1V47.4Zm11,3.57a4.13,4.13,0,0,1-.25,1.47,3.26,3.26,0,0,1-1.83,1.9,3.95,3.95,0,0,1-2.87,0,3.26,3.26,0,0,1-1.83-1.9,4.13,4.13,0,0,1-.25-1.47,4,4,0,0,1,.25-1.47,3.29,3.29,0,0,1,1.83-1.92,4.09,4.09,0,0,1,2.87,0A3.29,3.29,0,0,1,183,49.5,4,4,0,0,1,183.29,51Zm-1,0a3.57,3.57,0,0,0-.18-1.18,2.65,2.65,0,0,0-.5-.89,2.24,2.24,0,0,0-.8-.55,2.83,2.83,0,0,0-2.09,0,2.24,2.24,0,0,0-.8.55,2.5,2.5,0,0,0-.51.89,3.57,3.57,0,0,0-.18,1.18,3.65,3.65,0,0,0,.18,1.18,2.55,2.55,0,0,0,.51.88,2.24,2.24,0,0,0,.8.55,3,3,0,0,0,2.09,0,2.24,2.24,0,0,0,.8-.55,2.7,2.7,0,0,0,.5-.88A3.65,3.65,0,0,0,182.3,51Zm12-3.57-2.23,7.13h-.87l-1.81-5.44c0-.05,0-.11,0-.17s0-.12-.05-.19,0,.13,0,.19,0,.12-.05.17l-1.82,5.44h-.86l-2.23-7.13h.8a.38.38,0,0,1,.22.06.29.29,0,0,1,.11.16l1.47,5a2.46,2.46,0,0,1,.07.29l.06.33c0-.11.05-.22.07-.33l.09-.29,1.68-5a.48.48,0,0,1,.11-.15.32.32,0,0,1,.22-.07h.27a.33.33,0,0,1,.21.06.31.31,0,0,1,.12.16l1.68,5c0,.09,0,.18.08.28s.05.21.07.32l.06-.32.06-.28,1.48-5a.27.27,0,0,1,.11-.15.31.31,0,0,1,.21-.07Zm6,6.35v.78h-4.39V47.4h4.39v.78h-3.43v2.37h2.78v.76h-2.78v2.44Zm3.82-2.9a2.41,2.41,0,0,0,.74-.1,1.42,1.42,0,0,0,.53-.29,1.06,1.06,0,0,0,.33-.45,1.32,1.32,0,0,0,.11-.57,1.15,1.15,0,0,0-.42-1,2,2,0,0,0-1.25-.32h-1.06v2.69Zm3.3,3.68h-.86a.43.43,0,0,1-.39-.2l-1.85-2.55a.5.5,0,0,0-.19-.17.55.55,0,0,0-.29-.06h-.74v3h-1V47.4h2a4.5,4.5,0,0,1,1.17.13,2.19,2.19,0,0,1,.81.4,1.48,1.48,0,0,1,.48.63,2.21,2.21,0,0,1,0,1.52,1.82,1.82,0,0,1-.34.59,2.09,2.09,0,0,1-.56.45,2.63,2.63,0,0,1-.73.27.92.92,0,0,1,.31.31Zm5.87-.78v.78h-4.39V47.4h4.39v.78h-3.43v2.37h2.78v.76h-2.78v2.44Zm8-2.78a4,4,0,0,1-.26,1.46,3.25,3.25,0,0,1-.71,1.12,3.2,3.2,0,0,1-1.12.73,3.87,3.87,0,0,1-1.43.25h-2.67V47.4h2.67a3.87,3.87,0,0,1,1.43.25A3.11,3.11,0,0,1,221,49.51,4,4,0,0,1,221.3,51Zm-1,0a3.61,3.61,0,0,0-.18-1.18,2.55,2.55,0,0,0-.51-.88,2.22,2.22,0,0,0-.8-.54,2.68,2.68,0,0,0-1-.19h-1.7v5.57h1.7a2.68,2.68,0,0,0,1-.19,2.36,2.36,0,0,0,.8-.54,2.46,2.46,0,0,0,.51-.88A3.55,3.55,0,0,0,220.31,51Zm8.43,2.8a2.48,2.48,0,0,0,.71-.1,1.34,1.34,0,0,0,.49-.26,1.11,1.11,0,0,0,.28-.41,1.5,1.5,0,0,0,.09-.52,1.09,1.09,0,0,0-.39-.88,1.87,1.87,0,0,0-1.18-.32H227.2v2.49Zm-1.54-5.61v2.43h1.27a2.5,2.5,0,0,0,.71-.09,1.38,1.38,0,0,0,.5-.25.9.9,0,0,0,.29-.38,1.35,1.35,0,0,0,.09-.5,1.08,1.08,0,0,0-.37-.92,2,2,0,0,0-1.18-.29Zm1.31-.76a4.66,4.66,0,0,1,1.13.12,2.18,2.18,0,0,1,.78.37,1.46,1.46,0,0,1,.46.59,2.13,2.13,0,0,1,.14.78,1.81,1.81,0,0,1-.08.51,1.61,1.61,0,0,1-.25.44,1.72,1.72,0,0,1-.42.38,2.22,2.22,0,0,1-.58.27,2.21,2.21,0,0,1,1.18.56,1.52,1.52,0,0,1,.39,1.08,1.9,1.9,0,0,1-.17.83,1.67,1.67,0,0,1-.48.64,2.38,2.38,0,0,1-.79.42,3.85,3.85,0,0,1-1.07.14h-2.52V47.4Zm7.11,4.29v2.84h-1V51.69L232,47.4h.84a.33.33,0,0,1,.21.06.53.53,0,0,1,.13.16l1.63,2.77.16.33a1.69,1.69,0,0,1,.13.31,2.88,2.88,0,0,1,.13-.31c0-.1.1-.21.15-.33l1.63-2.77a.37.37,0,0,1,.13-.15.27.27,0,0,1,.2-.07h.85Z" fill="white"/><path d="M266.84,48.59a.4.4,0,0,1-.1.12.25.25,0,0,1-.13,0,.32.32,0,0,1-.2-.08l-.3-.19a2.09,2.09,0,0,0-.42-.19,1.7,1.7,0,0,0-.59-.09,1.78,1.78,0,0,0-.59.09,1.44,1.44,0,0,0-.42.24,1,1,0,0,0-.25.36,1.08,1.08,0,0,0-.09.44.83.83,0,0,0,.15.51,1.36,1.36,0,0,0,.4.34,3.5,3.5,0,0,0,.55.25l.64.21c.22.08.44.16.64.25a2.42,2.42,0,0,1,.56.35,1.61,1.61,0,0,1,.4.53,1.72,1.72,0,0,1,.15.76,2.38,2.38,0,0,1-.16.89,2.11,2.11,0,0,1-.48.73,2.08,2.08,0,0,1-.77.49,2.75,2.75,0,0,1-1,.17,3.19,3.19,0,0,1-1.29-.25,3.15,3.15,0,0,1-1-.69l.29-.47a.26.26,0,0,1,.09-.09.23.23,0,0,1,.14,0,.3.3,0,0,1,.14.05l.2.14.24.17a1.33,1.33,0,0,0,.31.18,3.09,3.09,0,0,0,.4.14,2.57,2.57,0,0,0,.5.05,1.74,1.74,0,0,0,.63-.1,1.17,1.17,0,0,0,.46-.27,1.25,1.25,0,0,0,.3-.42,1.53,1.53,0,0,0,.1-.54.91.91,0,0,0-.15-.54,1.14,1.14,0,0,0-.4-.35,2.13,2.13,0,0,0-.55-.24l-.65-.2-.64-.25a2.06,2.06,0,0,1-.55-.35,1.59,1.59,0,0,1-.4-.55,2,2,0,0,1-.15-.81,1.92,1.92,0,0,1,.15-.74,2,2,0,0,1,.44-.64,2.11,2.11,0,0,1,.7-.45,2.67,2.67,0,0,1,1-.16,3.08,3.08,0,0,1,1.11.19,2.54,2.54,0,0,1,.88.56Z" fill="white"/><path d="M273.38,51.83v2.89h-1V51.83l-2.67-4.37h.87a.33.33,0,0,1,.21.06.7.7,0,0,1,.13.16l1.67,2.83.16.33a2.58,2.58,0,0,1,.13.31l.13-.31.16-.33,1.66-2.83a.58.58,0,0,1,.13-.15.28.28,0,0,1,.21-.07H276Z" fill="white"/><path d="M284.53,47.46v7.26H284a.42.42,0,0,1-.2,0,.44.44,0,0,1-.15-.13l-4.21-5.48a2.09,2.09,0,0,1,0,.25,1.77,1.77,0,0,1,0,.23v5.17h-.86V47.46h.62l.08,0,.07,0,.07.08,4.22,5.48a2.46,2.46,0,0,1,0-.26,1.93,1.93,0,0,1,0-.24V47.46Z" fill="white"/><path d="M292.17,52l-1.15-3-.1-.3c0-.12-.08-.25-.11-.38a4.55,4.55,0,0,1-.22.68l-1.14,3Zm2.05,2.69h-.76a.33.33,0,0,1-.21-.06.43.43,0,0,1-.13-.17l-.68-1.75h-3.26l-.69,1.75a.33.33,0,0,1-.11.16.32.32,0,0,1-.22.07h-.76l2.91-7.26h1Z" fill="white"/><path d="M299.49,51.22a2.13,2.13,0,0,0,.74-.11,1.37,1.37,0,0,0,.54-.31,1.27,1.27,0,0,0,.34-.48,1.7,1.7,0,0,0,.11-.61,1.43,1.43,0,0,0-.43-1.09,1.89,1.89,0,0,0-1.3-.39h-1.17v3Zm0-3.76a3.81,3.81,0,0,1,1.19.16,2.09,2.09,0,0,1,.85.45,1.77,1.77,0,0,1,.5.71,2.52,2.52,0,0,1,.17.93,2.34,2.34,0,0,1-.18.93,2,2,0,0,1-.52.72,2.59,2.59,0,0,1-.85.48,3.73,3.73,0,0,1-1.16.17h-1.17v2.71h-1V47.46Z" fill="white"/><path d="M309.58,48.59a.43.43,0,0,1-.11.12.21.21,0,0,1-.12,0,.35.35,0,0,1-.21-.08,2.09,2.09,0,0,0-.29-.19,2.76,2.76,0,0,0-.42-.19,2,2,0,0,0-1.18,0,1.22,1.22,0,0,0-.42.24,1,1,0,0,0-.26.36,1.27,1.27,0,0,0-.08.44.9.9,0,0,0,.14.51,1.67,1.67,0,0,0,.4.34,3.63,3.63,0,0,0,.56.25l.64.21.64.25a2.42,2.42,0,0,1,.56.35,1.61,1.61,0,0,1,.4.53,1.72,1.72,0,0,1,.15.76,2.6,2.6,0,0,1-.16.89,2.11,2.11,0,0,1-.48.73,2.16,2.16,0,0,1-.77.49,2.75,2.75,0,0,1-1,.17,3.16,3.16,0,0,1-1.29-.25,2.94,2.94,0,0,1-1-.69l.28-.47a.28.28,0,0,1,.1-.09.2.2,0,0,1,.13,0,.33.33,0,0,1,.15.05l.19.14.25.17a1.33,1.33,0,0,0,.31.18,2.64,2.64,0,0,0,.4.14,2.49,2.49,0,0,0,.5.05,1.72,1.72,0,0,0,.62-.1,1.19,1.19,0,0,0,.76-.69,1.33,1.33,0,0,0,.1-.54.91.91,0,0,0-.15-.54,1.2,1.2,0,0,0-.39-.35,2.2,2.2,0,0,0-.56-.24l-.64-.2-.64-.25a2.12,2.12,0,0,1-.56-.35,1.71,1.71,0,0,1-.39-.55,2,2,0,0,1-.15-.81,1.92,1.92,0,0,1,.15-.74,2,2,0,0,1,.43-.64,2.15,2.15,0,0,1,.71-.45,2.61,2.61,0,0,1,1-.16,3,3,0,0,1,1.11.19,2.58,2.58,0,0,1,.89.56Z" fill="white"/><path d="M318.27,53.92v.8h-4.49V47.46h4.49v.8h-3.5v2.41h2.83v.77h-2.83v2.48Z" fill="white"/><path d="M251.54,47.3,246.84,50l.57,1,4.69-2.71Z" fill="white"/><path d="M251.88,54.25l-4.69-2.68-.56,1,4.69,2.69Z" fill="white"/><path d="M253,53.62V48.2h1.13v5.41Z" fill="white"/><path d="M246.84,53.15a2.25,2.25,0,1,0-3.09-.82A2.25,2.25,0,0,0,246.84,53.15Zm-.57-1a1.12,1.12,0,1,0-1.54-.41A1.12,1.12,0,0,0,246.27,52.17Z" fill="white" fill-rule="evenodd"/><path d="M254.65,48.6a2.25,2.25,0,1,0-3.09-.82A2.26,2.26,0,0,0,254.65,48.6Zm-.57-1a1.13,1.13,0,1,0-1.54-.41A1.13,1.13,0,0,0,254.08,47.63Z" fill="white" fill-rule="evenodd"/><path d="M254.65,48.6a2.25,2.25,0,1,0-3.08-.81A2.24,2.24,0,0,0,254.65,48.6Zm-.57-1a1.13,1.13,0,0,0,.41-1.55,1.11,1.11,0,0,0-1.53-.4,1.12,1.12,0,1,0,1.12,2Z" fill="white" fill-rule="evenodd"/><path d="M252.26,57.21a2.26,2.26,0,1,0-.83-3.07A2.26,2.26,0,0,0,252.26,57.21Zm.56-1a1.14,1.14,0,0,0,1.54-.42,1.12,1.12,0,1,0-1.54.42Z" fill="white" fill-rule="evenodd"/><path d="M246.83,53.13a2.25,2.25,0,1,0-3.08-.81A2.26,2.26,0,0,0,246.83,53.13Zm-.56-1a1.13,1.13,0,1,0-1.54-.41A1.13,1.13,0,0,0,246.27,52.16Z" fill="white" fill-rule="evenodd"/></svg>