<svg width="100" height="98" viewBox="0 0 100 98" fill="none" xmlns="http://www.w3.org/2000/svg">
<path d="M22.9275 27.7992L1.12662 6.43453C-0.37554 4.96243 -0.37554 2.57618 1.12662 1.10408C2.62878 -0.368025 5.06375 -0.368025 6.56591 1.10408L28.3668 22.4688C29.8688 23.9407 29.8688 26.3271 28.3668 27.7992C26.8647 29.2711 24.4293 29.2711 22.9275 27.7992Z" transform="translate(29.5996 40.1416)" fill="#F47E6C"/>
<path d="M16.3396 10.6822L5.43929 2.38322e-06L7.39102e-07 5.33046L10.9003 16.0126C12.4024 17.4845 14.8374 17.4845 16.3396 16.0126C17.8415 14.5407 17.8415 12.1541 16.3396 10.6822Z" transform="translate(41.5303 51.9702)" fill="#FCCB6F"/>
<path d="M22.9274 27.7992L1.12647 6.43453C-0.37549 4.96243 -0.37549 2.57618 1.12647 1.10408C2.62863 -0.368025 5.06361 -0.368025 6.56576 1.10408L28.3667 22.4688C29.8688 23.9409 29.8688 26.3271 28.3667 27.7992C26.8647 29.2713 24.4293 29.2713 22.9274 27.7992Z" transform="translate(63.3604 7.05566)" fill="#F47E6C"/>
<path d="M16.3396 10.6822L5.43929 3.85522e-07L1.28747e-06 5.33046L10.9003 16.0126C12.4022 17.4847 14.8374 17.4847 16.3396 16.0126C17.8417 14.5407 17.8413 12.1543 16.3396 10.6822Z" transform="translate(75.29 18.8848)" fill="#FCCB6F"/>
<path d="M22.9264 27.798L1.12662 6.43446C-0.375539 4.96236 -0.375539 2.5761 1.12662 1.104C2.62878 -0.368097 5.06375 -0.367906 6.56591 1.104L28.3654 22.4674C29.8676 23.9395 29.8676 26.3257 28.3654 27.7978C26.8639 29.2699 24.4285 29.2699 22.9264 27.798Z" transform="translate(7.24414 61.9985)" fill="#63DBD0"/>
<path d="M16.3392 10.6818L5.43929 1.26171e-06L3.93393e-07 5.33046L10.8999 16.0122C12.4018 17.4841 14.837 17.4841 16.3392 16.0122C17.8409 14.5401 17.8409 12.1535 16.3392 10.6818Z" transform="translate(19.2705 73.7847)" fill="#7692D9"/>
<path d="M22.9275 27.7992L1.12662 6.43453C-0.375541 4.96243 -0.375541 2.57618 1.12662 1.10408C2.62877 -0.368025 5.06375 -0.368025 6.56591 1.10408L28.3668 22.4688C29.869 23.9407 29.869 26.3271 28.3668 27.7992C26.8649 29.2711 24.4295 29.2711 22.9275 27.7992Z" transform="translate(41.0029 28.9126)" fill="#63DBD0"/>
<path d="M16.3396 10.6822L5.43929 7.24313e-07L-2.14578e-06 5.33026L10.9003 16.0124C12.4022 17.4843 14.8374 17.4843 16.3396 16.0124C17.8413 14.5405 17.8413 12.1541 16.3396 10.6822Z" transform="translate(53.0312 40.6992)" fill="#7692D9"/>
<path d="M71.5659 37.0485C78.8228 37.8896 91.4039 38.044 98.8735 30.7243C100.375 29.2522 100.375 26.8659 98.8735 25.3938C97.3716 23.9217 94.9364 23.9217 93.4342 25.3938C88.1647 30.558 77.5 30.42 70.1403 29.2365C69.104 23.1823 68.5266 11.8844 74.088 6.43453C75.59 4.96243 75.59 2.57618 74.088 1.10408C72.5859 -0.368025 70.1509 -0.368025 68.6487 1.10408C61.1791 8.42419 61.3372 20.7538 62.1954 27.8653C37.6729 25.0238 25.4721 36.401 28.4342 60.9509C21.1773 60.11 8.59581 59.9554 1.12662 67.2751C-0.375539 68.747 -0.375539 71.1335 1.12662 72.6056C2.62878 74.0775 5.06375 74.0775 6.56591 72.6056C11.8243 67.4524 22.4611 67.5762 29.8372 68.7595C31.0436 75.9846 31.1721 86.4107 25.9125 91.5651C24.4104 93.0372 24.4104 95.4234 25.9125 96.8955C27.4147 98.3676 29.8497 98.3674 31.3518 96.8955C38.8214 89.5754 38.6634 77.246 37.8052 70.1343C62.3272 72.9757 74.5279 61.5986 71.5659 37.0485ZM63.5979 35.6739C67.0661 56.4456 59.0815 63.0544 44.4357 63.0014C41.2265 62.9899 38.3224 62.6337 36.4018 62.3257C36.0874 60.4429 35.7241 57.5976 35.7124 54.4527C35.6595 40.4464 42.0284 32.214 63.5979 35.6739Z" fill="#9DA3B3"/>
<path d="M13.0197 45.8444C37.5425 48.6858 49.7429 37.3086 46.7808 12.7588C54.0377 13.5998 66.6188 13.7543 74.0884 6.43453C75.5904 4.96243 75.5904 2.57618 74.0884 1.10408C72.5864 -0.368024 70.1513 -0.368024 68.6491 1.10408C63.385 6.26284 52.7373 6.13039 45.3779 4.95018L38.8124 11.3843C42.2806 32.156 34.296 38.7649 19.6502 38.7118C16.441 38.7004 13.5369 38.3441 11.6163 38.0362L5.05125 44.4699C6.2577 51.6951 6.38622 62.1211 1.12662 67.2755C-0.37554 68.7476 -0.37554 71.1339 1.12662 72.606C2.62878 74.0781 5.06375 74.0779 6.56591 72.606C14.0357 65.2856 13.8777 52.9561 13.0197 45.8444Z" transform="translate(24.7852 24.29)" fill="#9DA3B3"/>
</svg>
