<svg id="Layer_1" data-name="Layer 1" xmlns="http://www.w3.org/2000/svg" viewBox="0 0 130 70"><title>ADKnowledgePortal_Logo</title><path d="M40.82,40.9l4.89,3.46,14.67,1.8,3.19,3.52h8.16l8.07-6,4.77-5.84s1-.2.67-6.71-7-12.45-7-12.45l-7.16-7.77L57.94,9.72,47.53,10.89l-12,7.77-7,10.65v7.28l5.22,5,7.92-2.9Z" fill="#ca4382"/><path d="M83.24,38.57a14.15,14.15,0,0,1-9.79,2.59,8.44,8.44,0,0,1-1.64,2.74,22.14,22.14,0,0,1-8.31,5.8,8.13,8.13,0,0,0,8.55,2.67,7.38,7.38,0,0,0,2.88-1.56,9.37,9.37,0,0,0,1.24-.31,12.32,12.32,0,0,0,8.76-13.14A8,8,0,0,1,83.24,38.57Z" fill="#e567a1"/><path d="M85.34,26.74a12.69,12.69,0,0,0-.46-2.2c0-.08-.09-.15-.09-.23a15.09,15.09,0,0,0-7.22-9.09,15.72,15.72,0,0,0-17.17-7c-.24.09-.46.15-.79.24h-.08A14,14,0,0,0,42.9,11.69a13.32,13.32,0,0,0-4.28.48,12,12,0,0,0-8.31,9.17,13.61,13.61,0,0,0-4.58,13c1.48,6.58,7.7,11.52,16.78,7.67,0,.09,0,.09.08.16a9.74,9.74,0,0,1,4-7c-2.33-3.29-7.85-9.63-11.89-7.76a4.08,4.08,0,0,0-2.25,5.48c.85,1.87,2.95,3.22,6,2A1.14,1.14,0,0,1,39.27,37c-4.34,1.8-7.7-.4-8.86-3.22a6.37,6.37,0,0,1,3.34-8.46,5.32,5.32,0,0,1,2.88-.54A8,8,0,0,1,38.88,19c2.33-2.35,5.76-2.82,7.38-2.89,1.15-3.46,4.43-5.41,8.7-5.09a11,11,0,0,1,5.59,2.28,16.16,16.16,0,0,1,1.7,1.48c2.49-1.57,6-2.5,9-1.41,2,.7,4.51,2.5,5.37,7.28a7.09,7.09,0,0,1,3.88,4.31,6.13,6.13,0,0,1-1.09,5.24c-1,1.41-3.19,3.13-7.46,3.29h-.16c-.08,0-7.85-.79-10.64,4.78-.16.31-.31.63-.46.87a6.28,6.28,0,0,1-3.34,3c-.24.08-.46.08-.7.15a5.27,5.27,0,0,1-4.13-1.87,1.13,1.13,0,0,1,.16-1.57,1.11,1.11,0,0,1,1.55.15A3.08,3.08,0,0,0,56.36,40c.94-.08,1.86-1.09,2.79-2.82A14.43,14.43,0,0,1,60.64,35,11.64,11.64,0,0,1,67,31.56a14.94,14.94,0,0,1,5-.31c3.34-.15,4.89-1.33,5.68-2.35a4,4,0,0,0,.69-3.28c-.54-2.05-3.1-3-3.1-3.07a1,1,0,0,1-.69-.93c-.46-3.29-1.79-5.33-4-6.11-2.73-.94-6.31.39-8.25,2.19a5.57,5.57,0,0,0-1.16,6,8.8,8.8,0,0,1,7.16,1.17,1.16,1.16,0,0,1,.3,1.57,1.12,1.12,0,0,1-1.55.3,6.91,6.91,0,0,0-5.67-.69c-.31.08-.55.15-.78.23-2.41.94-3.11,2.44-3.11,2.59a1.08,1.08,0,0,1-.61.7,1.32,1.32,0,0,1-.94,0,4.81,4.81,0,0,0-4.82,1,4.44,4.44,0,0,0-1.85,4.7,1.14,1.14,0,0,1-.55,1.33,7.48,7.48,0,0,0-3.73,6,5.64,5.64,0,0,0,2.57,4.94,9.53,9.53,0,0,0,6.77.63,8.44,8.44,0,0,0,2.33-1.09,7.24,7.24,0,0,0,4,.78,13,13,0,0,0,4.73-1.48,16.55,16.55,0,0,0,4.74-3.85,5.28,5.28,0,0,0,1.55-2.89,1.27,1.27,0,0,1,.39-.87,1.29,1.29,0,0,1,.94-.24,11.16,11.16,0,0,0,9-2A6.84,6.84,0,0,0,84.9,33a9.42,9.42,0,0,0,.37-1.23,12.35,12.35,0,0,0,.33-3C85.58,28.19,85.46,27.71,85.34,26.74Z" fill="#e567a1"/><path d="M54.72,13.33c-3.49-.24-6,1.26-6.61,4.15a1.09,1.09,0,0,1-1.16.87c-.08,0-4.27-.09-6.61,2.28a5.7,5.7,0,0,0-1.55,4.46v.24a14.36,14.36,0,0,1,5.29,3.61A32.75,32.75,0,0,1,47,32.22a7.49,7.49,0,0,1,2.49-3.45,7.1,7.1,0,0,1,6.13-1.57,8.51,8.51,0,0,1,3.19-2.67,7.77,7.77,0,0,1,1.55-8.31C59.39,15.29,57.21,13.5,54.72,13.33Z" fill="#e567a1"/><path d="M82.6,51.45c1.43,1.43,2.84,2.86,4.27,4.31a.92.92,0,0,0,1.3-1.29c-1.43-1.43-2.85-2.86-4.28-4.31C83.06,49.31,81.76,50.62,82.6,51.45Z" fill="#2f8e94"/><path d="M101.34,64.1,96.48,69,85.14,57.58l2.38-2.4L90,52.7Z" fill="#fccb71"/><path d="M85.07,43a12.11,12.11,0,0,1-22.9,5.5,11.76,11.76,0,0,1-1-2.67A12.27,12.27,0,0,1,60.86,43a12.09,12.09,0,0,1,2.83-7.77A12.06,12.06,0,0,1,73,30.89a11.94,11.94,0,0,1,5.5,1.33A12.11,12.11,0,0,1,85,41.68C85,42.13,85.07,42.57,85.07,43Z" fill="#fff" opacity="0.85" style="isolation:isolate"/><path d="M85.17,42.86A12.39,12.39,0,1,1,72.78,30.42,12.42,12.42,0,0,1,85.17,42.86Z" fill="none" stroke="#7ec8cc" stroke-miterlimit="10" stroke-width="2"/></svg>