<?xml version="1.0" encoding="UTF-8" standalone="no"?>
<svg
   id="Layer_1"
   data-name="Layer 1"
   viewBox="0 0 75.860695 61.982624"
   version="1.1"
   sodipodi:docname="favicon.svg"
   inkscape:version="1.2.1 (9c6d41e4, 2022-07-14)"
   xmlns:inkscape="http://www.inkscape.org/namespaces/inkscape"
   xmlns:sodipodi="http://sodipodi.sourceforge.net/DTD/sodipodi-0.dtd"
   xmlns="http://www.w3.org/2000/svg"
   xmlns:svg="http://www.w3.org/2000/svg">
  <defs
     id="defs30" />
  <sodipodi:namedview
     id="namedview28"
     pagecolor="#ffffff"
     bordercolor="#000000"
     borderopacity="0.25"
     inkscape:showpageshadow="2"
     inkscape:pageopacity="0.0"
     inkscape:pagecheckerboard="0"
     inkscape:deskcolor="#d1d1d1"
     showgrid="false"
     inkscape:zoom="3.3714286"
     inkscape:cx="64.216102"
     inkscape:cy="28.771186"
     inkscape:window-width="1309"
     inkscape:window-height="456"
     inkscape:window-x="0"
     inkscape:window-y="25"
     inkscape:window-maximized="0"
     inkscape:current-layer="Layer_1" />
  <title
     id="title9">ADKnowledgePortal_Logo</title>
  <path
     d="m 15.340694,33.882623 4.89,3.46 14.67,1.8 3.19,3.52 h 8.16 l 8.07,-6 4.77,-5.84 c 0,0 1,-0.2 0.67,-6.71 -0.33,-6.51 -7,-12.45 -7,-12.45 l -7.16,-7.7700003 -13.14,-1.1899995 -10.41,1.1699995 -12,7.7700003 -7.0000005,10.65 v 7.28 l 5.22,5 7.9200005,-2.9 z"
     fill="#ca4382"
     id="path11" />
  <path
     d="m 57.760694,31.552623 a 14.15,14.15 0 0 1 -9.79,2.59 8.44,8.44 0 0 1 -1.64,2.74 22.14,22.14 0 0 1 -8.31,5.8 8.13,8.13 0 0 0 8.55,2.67 7.38,7.38 0 0 0 2.88,-1.56 9.37,9.37 0 0 0 1.24,-0.31 12.32,12.32 0 0 0 8.76,-13.14 8,8 0 0 1 -1.69,1.21 z"
     fill="#e567a1"
     id="path13" />
  <path
     d="m 59.860694,19.722623 a 12.69,12.69 0 0 0 -0.46,-2.2 c 0,-0.08 -0.09,-0.15 -0.09,-0.23 a 15.09,15.09 0 0 0 -7.22,-9.0900003 15.72,15.72 0 0 0 -17.17,-6.9999995 c -0.24,0.09 -0.46,0.15 -0.79,0.24 h -0.08 a 14,14 0 0 0 -16.63,3.2299995 13.32,13.32 0 0 0 -4.28,0.48 12,12 0 0 0 -8.3100005,9.1700003 13.61,13.61 0 0 0 -4.57999997,13 c 1.47999997,6.58 7.69999997,11.52 16.78000047,7.67 0,0.09 0,0.09 0.08,0.16 a 9.74,9.74 0 0 1 4,-7 c -2.33,-3.29 -7.85,-9.63 -11.8900004,-7.76 a 4.08,4.08 0 0 0 -2.2500001,5.48 c 0.85,1.87 2.9500001,3.22 6.0000005,2 a 1.14,1.14 0 0 1 0.82,2.11 c -4.3400004,1.8 -7.7000005,-0.4 -8.8600005,-3.22 a 6.37,6.37 0 0 1 3.34,-8.46 5.32,5.32 0 0 1 2.8800005,-0.54 8,8 0 0 1 2.25,-5.78 c 2.33,-2.3500003 5.76,-2.8200003 7.38,-2.8900003 1.15,-3.46 4.43,-5.4099995 8.7,-5.09 a 11,11 0 0 1 5.59,2.28 16.16,16.16 0 0 1 1.7,1.48 c 2.49,-1.57 6,-2.5 9,-1.41 2,0.7 4.51,2.5 5.37,7.2800003 a 7.09,7.09 0 0 1 3.88,4.31 6.13,6.13 0 0 1 -1.09,5.24 c -1,1.41 -3.19,3.13 -7.46,3.29 h -0.16 c -0.08,0 -7.85,-0.79 -10.64,4.78 -0.16,0.31 -0.31,0.63 -0.46,0.87 a 6.28,6.28 0 0 1 -3.34,3 c -0.24,0.08 -0.46,0.08 -0.7,0.15 a 5.27,5.27 0 0 1 -4.13,-1.87 1.13,1.13 0 0 1 0.16,-1.57 1.11,1.11 0 0 1 1.55,0.15 3.08,3.08 0 0 0 2.13,1 c 0.94,-0.08 1.86,-1.09 2.79,-2.82 a 14.43,14.43 0 0 1 1.49,-2.18 11.64,11.64 0 0 1 6.36,-3.44 14.94,14.94 0 0 1 5,-0.31 c 3.34,-0.15 4.89,-1.33 5.68,-2.35 a 4,4 0 0 0 0.69,-3.28 c -0.54,-2.05 -3.1,-3 -3.1,-3.07 a 1,1 0 0 1 -0.69,-0.93 c -0.46,-3.29 -1.79,-5.3300003 -4,-6.1100003 -2.73,-0.94 -6.31,0.39 -8.25,2.1900003 a 5.57,5.57 0 0 0 -1.16,6 8.8,8.8 0 0 1 7.16,1.17 1.16,1.16 0 0 1 0.3,1.57 1.12,1.12 0 0 1 -1.55,0.3 6.91,6.91 0 0 0 -5.67,-0.69 c -0.31,0.08 -0.55,0.15 -0.78,0.23 -2.41,0.94 -3.11,2.44 -3.11,2.59 a 1.08,1.08 0 0 1 -0.61,0.7 1.32,1.32 0 0 1 -0.94,0 4.81,4.81 0 0 0 -4.82,1 4.44,4.44 0 0 0 -1.85,4.7 1.14,1.14 0 0 1 -0.55,1.33 7.48,7.48 0 0 0 -3.73,6 5.64,5.64 0 0 0 2.57,4.94 9.53,9.53 0 0 0 6.77,0.63 8.44,8.44 0 0 0 2.33,-1.09 7.24,7.24 0 0 0 4,0.78 13,13 0 0 0 4.73,-1.48 16.55,16.55 0 0 0 4.74,-3.85 5.28,5.28 0 0 0 1.55,-2.89 1.27,1.27 0 0 1 0.39,-0.87 1.29,1.29 0 0 1 0.94,-0.24 11.16,11.16 0 0 0 9,-2 6.84,6.84 0 0 0 2.86,-3.53 9.42,9.42 0 0 0 0.37,-1.23 12.35,12.35 0 0 0 0.33,-3 c -0.02,-0.58 -0.14,-1.06 -0.26,-2.03 z"
     fill="#e567a1"
     id="path15" />
  <path
     d="m 29.240694,6.3126227 c -3.49,-0.24 -6,1.26 -6.61,4.1500003 a 1.09,1.09 0 0 1 -1.16,0.87 c -0.08,0 -4.27,-0.09 -6.61,2.28 a 5.7,5.7 0 0 0 -1.55,4.46 v 0.24 a 14.36,14.36 0 0 1 5.29,3.61 32.75,32.75 0 0 1 2.92,3.28 7.49,7.49 0 0 1 2.49,-3.45 7.1,7.1 0 0 1 6.13,-1.57 8.51,8.51 0 0 1 3.19,-2.67 7.77,7.77 0 0 1 1.55,-8.3100003 c -0.97,-0.93 -3.15,-2.72 -5.64,-2.89 z"
     fill="#e567a1"
     id="path17" />
  <path
     d="m 57.120694,44.432623 c 1.43,1.43 2.84,2.86 4.27,4.31 a 0.92,0.92 0 0 0 1.3,-1.29 c -1.43,-1.43 -2.85,-2.86 -4.28,-4.31 -0.83,-0.85 -2.13,0.46 -1.29,1.29 z"
     fill="#2f8e94"
     id="path19" />
  <path
     d="m 75.860694,57.082623 -4.86,4.9 -11.34,-11.42 2.38,-2.4 2.48,-2.48 z"
     fill="#fccb71"
     id="path21" />
  <path
     d="m 59.590694,35.982623 a 12.11,12.11 0 0 1 -22.9,5.5 11.76,11.76 0 0 1 -1,-2.67 12.27,12.27 0 0 1 -0.31,-2.83 12.09,12.09 0 0 1 2.83,-7.77 12.06,12.06 0 0 1 9.31,-4.34 11.94,11.94 0 0 1 5.5,1.33 12.11,12.11 0 0 1 6.5,9.46 c 0,0.45 0.07,0.89 0.07,1.32 z"
     fill="#ffffff"
     opacity="0.85"
     style="isolation:isolate"
     id="path23" />
  <path
     d="m 59.690694,35.842623 a 12.39,12.39 0 1 1 -12.39,-12.44 12.42,12.42 0 0 1 12.39,12.44 z"
     fill="none"
     stroke="#7ec8cc"
     stroke-miterlimit="10"
     stroke-width="2"
     id="path25" />
</svg>
