<svg width="24" height="21" viewBox="0 0 24 21" fill="none" xmlns="http://www.w3.org/2000/svg">
<mask id="mask0" mask-type="alpha" maskUnits="userSpaceOnUse" x="0" y="0" width="24" height="22">
<path d="M15.097 1.00836e-06C16.8911 1.00836e-06 18.5476 0.961183 19.4379 2.51874L22.5817 8.01874C23.4605 9.55619 23.4605 11.4438 22.5817 12.9813L19.4379 18.4813C18.5476 20.0388 16.8911 21 15.097 21H8.90299C7.10894 21 5.4524 20.0388 4.5621 18.4813L1.41829 12.9813C0.539483 11.4438 0.539484 9.55619 1.41829 8.01874L4.5621 2.51874C5.4524 0.961181 7.10894 1.00836e-06 8.90299 1.00836e-06H15.097Z" fill="#F5B33C"/>
</mask>
<g mask="url(#mask0)">
<path d="M15.097 1.00836e-06C16.8911 1.00836e-06 18.5476 0.961183 19.4379 2.51874L22.5817 8.01874C23.4605 9.55619 23.4605 11.4438 22.5817 12.9813L19.4379 18.4813C18.5476 20.0388 16.8911 21 15.097 21H8.90299C7.10894 21 5.4524 20.0388 4.5621 18.4813L1.41829 12.9813C0.539483 11.4438 0.539484 9.55619 1.41829 8.01874L4.5621 2.51874C5.4524 0.961181 7.10894 1.00836e-06 8.90299 1.00836e-06H15.097Z" fill="white"/>
<path d="M2.14125 -3.19189C3.93611 -3.19189 5.59327 -2.22985 6.48327 -0.67118L9.95278 5.40504C10.8301 6.94148 10.8301 8.82717 9.95278 10.3636L6.48327 16.4398C5.59327 17.9985 3.93611 18.9605 2.14125 18.9605H-4.69468C-6.48955 18.9605 -8.14671 17.9985 -9.0367 16.4398L-12.5062 10.3636C-13.3835 8.82717 -13.3835 6.94148 -12.5062 5.40504L-9.03671 -0.671175C-8.14671 -2.22984 -6.48955 -3.19189 -4.69468 -3.19189H2.14125Z" fill="#42C7BB" style="mix-blend-mode:multiply"/>
<path d="M16.0426 6.91479C17.8313 6.91479 19.4838 7.87032 20.3761 9.42059L23.726 15.2407C24.6147 16.7848 24.6147 18.6851 23.7259 20.2291L20.3761 26.0492C19.4838 27.5995 17.8313 28.555 16.0426 28.555H9.37721C7.58848 28.555 5.93602 27.5995 5.04373 26.0492L1.69388 20.2291C0.805172 18.6851 0.805171 16.7848 1.69387 15.2407L5.04373 9.4206C5.93602 7.87033 7.58849 6.91479 9.37721 6.91479H16.0426Z" fill="#B2A5D1"/>
<path d="M20.1715 -7.68311C21.9602 -7.68311 23.6126 -6.72763 24.5049 -5.17741L28.3709 1.53905C29.2597 3.08316 29.2597 4.98355 28.3709 6.52766L24.5049 13.2441C23.6126 14.7943 21.9602 15.7498 20.1715 15.7498H12.474C10.6853 15.7498 9.03287 14.7943 8.14057 13.2441L4.27458 6.52766C3.3858 4.98355 3.3858 3.08316 4.27458 1.53905L8.14056 -5.17741C9.03286 -6.72762 10.6853 -7.68311 12.474 -7.68311H20.1715Z" fill="#73C8CC" style="mix-blend-mode:multiply"/>
<path d="M24.6541 12.4023C26.4435 12.4023 28.0965 13.3586 28.9885 14.9099L31.5989 19.4495C32.4863 20.9927 32.4863 22.8913 31.5989 24.4344L28.9885 28.9741C28.0965 30.5253 26.4435 31.4816 24.6541 31.4816H19.4748C17.6853 31.4816 16.0323 30.5253 15.1403 28.9741L12.5299 24.4344C11.6425 22.8913 11.6425 20.9927 12.5299 19.4495L15.1403 14.9099C16.0323 13.3586 17.6853 12.4023 19.4748 12.4023H24.6541Z" fill="#C7D6FF" style="mix-blend-mode:multiply"/>
</g>
</svg>
