<svg id="Layer_1" data-name="Layer 1" xmlns="http://www.w3.org/2000/svg" viewBox="0 0 359 74.31"><title>ADKnowledgePortal_Logo</title><path d="M40.82,40.9l4.89,3.46,14.67,1.8,3.19,3.52h8.16l8.07-6,4.77-5.84s1-.2.67-6.71-7-12.45-7-12.45l-7.16-7.77L57.94,9.72,47.53,10.89l-12,7.77-7,10.65v7.28l5.22,5,7.92-2.9Z" fill="#ca4382"/><path d="M83.24,38.57a14.15,14.15,0,0,1-9.79,2.59,8.44,8.44,0,0,1-1.64,2.74,22.14,22.14,0,0,1-8.31,5.8,8.13,8.13,0,0,0,8.55,2.67,7.38,7.38,0,0,0,2.88-1.56,9.37,9.37,0,0,0,1.24-.31,12.32,12.32,0,0,0,8.76-13.14A8,8,0,0,1,83.24,38.57Z" fill="#e567a1"/><path d="M85.34,26.74a12.69,12.69,0,0,0-.46-2.2c0-.08-.09-.15-.09-.23a15.09,15.09,0,0,0-7.22-9.09,15.72,15.72,0,0,0-17.17-7c-.24.09-.46.15-.79.24h-.08A14,14,0,0,0,42.9,11.69a13.32,13.32,0,0,0-4.28.48,12,12,0,0,0-8.31,9.17,13.61,13.61,0,0,0-4.58,13c1.48,6.58,7.7,11.52,16.78,7.67,0,.09,0,.09.08.16a9.74,9.74,0,0,1,4-7c-2.33-3.29-7.85-9.63-11.89-7.76a4.08,4.08,0,0,0-2.25,5.48c.85,1.87,2.95,3.22,6,2A1.14,1.14,0,0,1,39.27,37c-4.34,1.8-7.7-.4-8.86-3.22a6.37,6.37,0,0,1,3.34-8.46,5.32,5.32,0,0,1,2.88-.54A8,8,0,0,1,38.88,19c2.33-2.35,5.76-2.82,7.38-2.89,1.15-3.46,4.43-5.41,8.7-5.09a11,11,0,0,1,5.59,2.28,16.16,16.16,0,0,1,1.7,1.48c2.49-1.57,6-2.5,9-1.41,2,.7,4.51,2.5,5.37,7.28a7.09,7.09,0,0,1,3.88,4.31,6.13,6.13,0,0,1-1.09,5.24c-1,1.41-3.19,3.13-7.46,3.29h-.16c-.08,0-7.85-.79-10.64,4.78-.16.31-.31.63-.46.87a6.28,6.28,0,0,1-3.34,3c-.24.08-.46.08-.7.15a5.27,5.27,0,0,1-4.13-1.87,1.13,1.13,0,0,1,.16-1.57,1.11,1.11,0,0,1,1.55.15A3.08,3.08,0,0,0,56.36,40c.94-.08,1.86-1.09,2.79-2.82A14.43,14.43,0,0,1,60.64,35,11.64,11.64,0,0,1,67,31.56a14.94,14.94,0,0,1,5-.31c3.34-.15,4.89-1.33,5.68-2.35a4,4,0,0,0,.69-3.28c-.54-2.05-3.1-3-3.1-3.07a1,1,0,0,1-.69-.93c-.46-3.29-1.79-5.33-4-6.11-2.73-.94-6.31.39-8.25,2.19a5.57,5.57,0,0,0-1.16,6,8.8,8.8,0,0,1,7.16,1.17,1.16,1.16,0,0,1,.3,1.57,1.12,1.12,0,0,1-1.55.3,6.91,6.91,0,0,0-5.67-.69c-.31.08-.55.15-.78.23-2.41.94-3.11,2.44-3.11,2.59a1.08,1.08,0,0,1-.61.7,1.32,1.32,0,0,1-.94,0,4.81,4.81,0,0,0-4.82,1,4.44,4.44,0,0,0-1.85,4.7,1.14,1.14,0,0,1-.55,1.33,7.48,7.48,0,0,0-3.73,6,5.64,5.64,0,0,0,2.57,4.94,9.53,9.53,0,0,0,6.77.63,8.44,8.44,0,0,0,2.33-1.09,7.24,7.24,0,0,0,4,.78,13,13,0,0,0,4.73-1.48,16.55,16.55,0,0,0,4.74-3.85,5.28,5.28,0,0,0,1.55-2.89,1.27,1.27,0,0,1,.39-.87,1.29,1.29,0,0,1,.94-.24,11.16,11.16,0,0,0,9-2A6.84,6.84,0,0,0,84.9,33a9.42,9.42,0,0,0,.37-1.23,12.35,12.35,0,0,0,.33-3C85.58,28.19,85.46,27.71,85.34,26.74Z" fill="#e567a1"/><path d="M54.72,13.33c-3.49-.24-6,1.26-6.61,4.15a1.09,1.09,0,0,1-1.16.87c-.08,0-4.27-.09-6.61,2.28a5.7,5.7,0,0,0-1.55,4.46v.24a14.36,14.36,0,0,1,5.29,3.61A32.75,32.75,0,0,1,47,32.22a7.49,7.49,0,0,1,2.49-3.45,7.1,7.1,0,0,1,6.13-1.57,8.51,8.51,0,0,1,3.19-2.67,7.77,7.77,0,0,1,1.55-8.31C59.39,15.29,57.21,13.5,54.72,13.33Z" fill="#e567a1"/><path d="M82.6,51.45c1.43,1.43,2.84,2.86,4.27,4.31a.92.92,0,0,0,1.3-1.29c-1.43-1.43-2.85-2.86-4.28-4.31C83.06,49.31,81.76,50.62,82.6,51.45Z" fill="#2f8e94"/><path d="M101.34,64.1,96.48,69,85.14,57.58l2.38-2.4L90,52.7Z" fill="#fccb71"/><path d="M85.07,43a12.11,12.11,0,0,1-22.9,5.5,11.76,11.76,0,0,1-1-2.67A12.27,12.27,0,0,1,60.86,43a12.09,12.09,0,0,1,2.83-7.77A12.06,12.06,0,0,1,73,30.89a11.94,11.94,0,0,1,5.5,1.33A12.11,12.11,0,0,1,85,41.68C85,42.13,85.07,42.57,85.07,43Z" fill="#fff" opacity="0.85" style="isolation:isolate"/><path d="M85.17,42.86A12.39,12.39,0,1,1,72.78,30.42,12.42,12.42,0,0,1,85.17,42.86Z" fill="none" stroke="#7ec8cc" stroke-miterlimit="10" stroke-width="2"/><path d="M120.66,46h-2.29a1,1,0,0,1-.63-.2,1.06,1.06,0,0,1-.36-.48l-1.19-3.24H109.6l-1.19,3.24a1,1,0,0,1-.34.47,1,1,0,0,1-.63.21h-2.3l6.24-15.91h3Zm-10.3-6h5.07l-1.93-5.29c-.09-.24-.19-.51-.3-.83s-.21-.67-.31-1c-.1.37-.2.72-.3,1s-.2.61-.29.85Z" fill="#3c4a63"/><path d="M136.53,38a8.73,8.73,0,0,1-.58,3.21,7.22,7.22,0,0,1-4.18,4.16,8.92,8.92,0,0,1-3.29.59h-6.07V30.08h6.07a8.92,8.92,0,0,1,3.29.59,7.47,7.47,0,0,1,2.54,1.64A7.34,7.34,0,0,1,136,34.82,8.81,8.81,0,0,1,136.53,38Zm-3,0a7.21,7.21,0,0,0-.35-2.35,5,5,0,0,0-1-1.76,4.33,4.33,0,0,0-1.58-1.1,5.37,5.37,0,0,0-2.09-.39h-3.09v11.2h3.09a5.56,5.56,0,0,0,2.09-.38,4.35,4.35,0,0,0,1.58-1.11,5,5,0,0,0,1-1.76A7.12,7.12,0,0,0,133.5,38Z" fill="#3c4a63"/><path d="M146.38,36.75h.69a1.71,1.71,0,0,0,.69-.12,1.19,1.19,0,0,0,.47-.37l4.39-5.55a1.6,1.6,0,0,1,.58-.49,1.72,1.72,0,0,1,.76-.14h2.56l-5.36,6.61a5.07,5.07,0,0,1-.48.52,2.33,2.33,0,0,1-.5.34,2.2,2.2,0,0,1,.65.37,3.13,3.13,0,0,1,.57.62L156.92,46h-2.61a1.6,1.6,0,0,1-.79-.15,1.32,1.32,0,0,1-.44-.44l-4.49-5.87a1.35,1.35,0,0,0-.5-.41,1.8,1.8,0,0,0-.78-.13h-.93v7h-3V30.07h3Z" fill="#3c4a63"/><path d="M158.63,46V34.7h1.66a.66.66,0,0,1,.69.49l.19.89a7.06,7.06,0,0,1,.72-.63,5.1,5.1,0,0,1,.8-.5,4.67,4.67,0,0,1,.91-.32,5,5,0,0,1,1.06-.11,4.07,4.07,0,0,1,1.64.32,3.27,3.27,0,0,1,1.19.88,3.72,3.72,0,0,1,.72,1.35,5.56,5.56,0,0,1,.25,1.73V46h-2.71V38.8a2.41,2.41,0,0,0-.48-1.6,1.77,1.77,0,0,0-1.44-.56,2.85,2.85,0,0,0-1.32.31,5,5,0,0,0-1.16.87V46Z" fill="#3c4a63"/><path d="M176.06,34.52a6.24,6.24,0,0,1,2.3.41,5,5,0,0,1,1.75,1.15,5.13,5.13,0,0,1,1.12,1.83,7.49,7.49,0,0,1,0,4.83,5.26,5.26,0,0,1-1.12,1.84,4.92,4.92,0,0,1-1.75,1.16,6.66,6.66,0,0,1-4.6,0A5,5,0,0,1,172,44.58a5.14,5.14,0,0,1-1.13-1.84,7.32,7.32,0,0,1,0-4.83A5,5,0,0,1,172,36.08a5.17,5.17,0,0,1,1.76-1.15A6.28,6.28,0,0,1,176.06,34.52Zm0,9.54a2.38,2.38,0,0,0,2.09-1,4.74,4.74,0,0,0,.67-2.77,4.8,4.8,0,0,0-.67-2.78,2.38,2.38,0,0,0-2.09-1,2.42,2.42,0,0,0-2.11,1,4.84,4.84,0,0,0-.68,2.78,4.78,4.78,0,0,0,.68,2.77A2.44,2.44,0,0,0,176.06,44.06Z" fill="#3c4a63"/><path d="M182.49,34.7h2.15a.94.94,0,0,1,.52.14.6.6,0,0,1,.26.37l1.62,6c.09.33.16.66.22,1s.1.63.16.95c.08-.32.16-.63.25-.95s.19-.64.3-1l1.86-6a.78.78,0,0,1,.27-.36.81.81,0,0,1,.46-.14h1.2a.89.89,0,0,1,.5.14.7.7,0,0,1,.26.36l1.85,6.16c.09.32.18.62.26.92s.15.6.22.9c.05-.32.11-.63.17-.95s.14-.64.24-1l1.67-6a.64.64,0,0,1,.26-.37.91.91,0,0,1,.49-.14h2.06L196.16,46H194c-.23,0-.4-.17-.5-.49l-2-6.52c-.07-.21-.13-.43-.18-.65s-.1-.43-.14-.64c0,.22-.09.44-.14.66s-.11.43-.18.65l-2,6.5a.62.62,0,0,1-.6.49h-2.08Z" fill="#3c4a63"/><path d="M204.27,29.64V46h-2.72V29.64Z" fill="#3c4a63"/><path d="M212.11,34.52a5.6,5.6,0,0,1,2,.34,4.27,4.27,0,0,1,1.55,1,4.55,4.55,0,0,1,1,1.61,6.06,6.06,0,0,1,.36,2.17c0,.2,0,.37,0,.51a.8.8,0,0,1-.1.32.35.35,0,0,1-.2.16.67.67,0,0,1-.3,0h-7a3.93,3.93,0,0,0,.94,2.56,2.91,2.91,0,0,0,2.15.81,3.84,3.84,0,0,0,1.14-.15,5.6,5.6,0,0,0,.84-.35c.24-.12.45-.23.63-.34a1.06,1.06,0,0,1,.52-.15.61.61,0,0,1,.28.06.76.76,0,0,1,.21.19l.8,1a4.76,4.76,0,0,1-1,.89,5.28,5.28,0,0,1-1.17.57,6.79,6.79,0,0,1-1.24.3,8.69,8.69,0,0,1-1.23.09,6.08,6.08,0,0,1-2.19-.39,5,5,0,0,1-1.76-1.16,5.22,5.22,0,0,1-1.17-1.89,7.21,7.21,0,0,1-.43-2.61,6.22,6.22,0,0,1,.37-2.17,5.28,5.28,0,0,1,1.07-1.77,5.13,5.13,0,0,1,1.71-1.2A5.67,5.67,0,0,1,212.11,34.52Zm.06,1.95a2.48,2.48,0,0,0-1.86.67,3.27,3.27,0,0,0-.86,1.9h5.1a3.53,3.53,0,0,0-.14-1,2.31,2.31,0,0,0-.44-.82,2.24,2.24,0,0,0-.75-.56A2.62,2.62,0,0,0,212.17,36.47Z" fill="#3c4a63"/><path d="M227.26,46a.68.68,0,0,1-.7-.5l-.22-1.09a8.25,8.25,0,0,1-.73.72,5.68,5.68,0,0,1-.83.55,4.39,4.39,0,0,1-1,.35,4.33,4.33,0,0,1-1.11.13,3.81,3.81,0,0,1-1.69-.38,3.93,3.93,0,0,1-1.33-1.12,5.33,5.33,0,0,1-.85-1.81,8.83,8.83,0,0,1-.31-2.47,7.63,7.63,0,0,1,.35-2.33,5.73,5.73,0,0,1,1-1.87,4.65,4.65,0,0,1,1.53-1.23,4.4,4.4,0,0,1,2-.45,3.92,3.92,0,0,1,1.61.3,4.3,4.3,0,0,1,1.2.81v-6h2.72V46Zm-3.62-2a2.75,2.75,0,0,0,1.44-.35,4.14,4.14,0,0,0,1.12-1V37.58a2.64,2.64,0,0,0-1-.79,3,3,0,0,0-1.17-.23,2.65,2.65,0,0,0-1.11.23,2.13,2.13,0,0,0-.85.7,3.35,3.35,0,0,0-.53,1.19,6.5,6.5,0,0,0-.19,1.69,7.3,7.3,0,0,0,.16,1.68,3.31,3.31,0,0,0,.46,1.12,1.73,1.73,0,0,0,.72.63A2.32,2.32,0,0,0,223.64,44Z" fill="#3c4a63"/><path d="M235.87,34.5a5.9,5.9,0,0,1,1.36.15,4.64,4.64,0,0,1,1.17.43h3.24v1a.54.54,0,0,1-.13.39.79.79,0,0,1-.45.2l-1,.19a3.78,3.78,0,0,1,.17.6,3.71,3.71,0,0,1,.06.67,3.46,3.46,0,0,1-.33,1.52,3.58,3.58,0,0,1-.93,1.15,4.53,4.53,0,0,1-1.4.73,5.78,5.78,0,0,1-1.75.26,6.28,6.28,0,0,1-1.24-.13c-.36.22-.53.46-.53.72a.54.54,0,0,0,.31.51,2.67,2.67,0,0,0,.83.23,9.94,9.94,0,0,0,1.16.06c.43,0,.87,0,1.33.06a9.68,9.68,0,0,1,1.33.19,3.83,3.83,0,0,1,1.16.44,2.2,2.2,0,0,1,.82.81,2.48,2.48,0,0,1,.32,1.32,3,3,0,0,1-.37,1.45,4,4,0,0,1-1.07,1.26,5.31,5.31,0,0,1-1.71.89,7.39,7.39,0,0,1-2.31.34,9.08,9.08,0,0,1-2.23-.25,5.58,5.58,0,0,1-1.57-.66,3,3,0,0,1-.93-.95,2.31,2.31,0,0,1-.31-1.12,2,2,0,0,1,.49-1.34,3.36,3.36,0,0,1,1.34-.85,1.9,1.9,0,0,1-.67-.62,1.79,1.79,0,0,1-.25-1,1.93,1.93,0,0,1,.08-.52,2.27,2.27,0,0,1,.27-.54,3.54,3.54,0,0,1,.46-.5,3.17,3.17,0,0,1,.65-.42A3.65,3.65,0,0,1,231.88,40a3.38,3.38,0,0,1-.49-1.81,3.29,3.29,0,0,1,.34-1.51,3.24,3.24,0,0,1,.93-1.15,4.36,4.36,0,0,1,1.42-.74A6.35,6.35,0,0,1,235.87,34.5Zm3,12a.73.73,0,0,0-.2-.55,1.31,1.31,0,0,0-.54-.33,3.85,3.85,0,0,0-.79-.18c-.31,0-.63,0-1,0h-1.06a4.57,4.57,0,0,1-1-.12,2.35,2.35,0,0,0-.74.6,1.19,1.19,0,0,0-.28.79,1.09,1.09,0,0,0,.15.56,1.18,1.18,0,0,0,.47.44,2.74,2.74,0,0,0,.84.3A6.6,6.6,0,0,0,236,48a6.29,6.29,0,0,0,1.31-.12,3.48,3.48,0,0,0,.9-.32,1.43,1.43,0,0,0,.53-.5A1.22,1.22,0,0,0,238.85,46.46Zm-3-6.39a2.58,2.58,0,0,0,.88-.14,1.67,1.67,0,0,0,.62-.38,1.62,1.62,0,0,0,.38-.58,2.27,2.27,0,0,0,.12-.75,1.76,1.76,0,0,0-.5-1.33,2.54,2.54,0,0,0-3,0,1.76,1.76,0,0,0-.5,1.33A2.25,2.25,0,0,0,234,39a1.62,1.62,0,0,0,.38.58,1.54,1.54,0,0,0,.63.39A2.56,2.56,0,0,0,235.87,40.07Z" fill="#3c4a63"/><path d="M248.12,34.52a5.7,5.7,0,0,1,2,.34,4.32,4.32,0,0,1,1.54,1,4.42,4.42,0,0,1,1,1.61,5.84,5.84,0,0,1,.37,2.17,3.68,3.68,0,0,1,0,.51.8.8,0,0,1-.1.32.37.37,0,0,1-.19.16.69.69,0,0,1-.31,0h-7a3.93,3.93,0,0,0,.93,2.56,2.92,2.92,0,0,0,2.16.81,3.84,3.84,0,0,0,1.14-.15,5.46,5.46,0,0,0,.83-.35c.24-.12.45-.23.63-.34a1.06,1.06,0,0,1,.52-.15.65.65,0,0,1,.29.06.76.76,0,0,1,.21.19l.79,1a4.71,4.71,0,0,1-1,.89,5.74,5.74,0,0,1-1.17.57,6.89,6.89,0,0,1-1.25.3,8.66,8.66,0,0,1-1.22.09,6,6,0,0,1-2.19-.39,4.87,4.87,0,0,1-1.76-1.16,5.38,5.38,0,0,1-1.18-1.89,7.21,7.21,0,0,1-.43-2.61,6.23,6.23,0,0,1,.38-2.17,5.07,5.07,0,0,1,2.77-3A5.67,5.67,0,0,1,248.12,34.52Zm.06,1.95a2.51,2.51,0,0,0-1.86.67,3.33,3.33,0,0,0-.86,1.9h5.11a3.21,3.21,0,0,0-.15-1,2.17,2.17,0,0,0-.44-.82,2.05,2.05,0,0,0-.75-.56A2.62,2.62,0,0,0,248.18,36.47Z" fill="#3c4a63"/><path d="M262.9,40.39V46h-3V30.08h5.18a9.08,9.08,0,0,1,2.76.37,5.2,5.2,0,0,1,1.92,1.05,4.18,4.18,0,0,1,1.13,1.6,5.7,5.7,0,0,1,.36,2,5.59,5.59,0,0,1-.39,2.12,4.32,4.32,0,0,1-1.15,1.65A5.16,5.16,0,0,1,267.82,40a8.45,8.45,0,0,1-2.7.39Zm0-2.31h2.22a4.38,4.38,0,0,0,1.42-.21,2.66,2.66,0,0,0,1-.58,2.39,2.39,0,0,0,.59-.92,3.63,3.63,0,0,0,.2-1.22,3.23,3.23,0,0,0-.2-1.15,2.24,2.24,0,0,0-.59-.88,2.63,2.63,0,0,0-1-.56,4.69,4.69,0,0,0-1.42-.19H262.9Z" fill="#3c4a63"/><path d="M278,34.52a6.24,6.24,0,0,1,2.3.41,5,5,0,0,1,1.75,1.15,5.13,5.13,0,0,1,1.12,1.83,7.49,7.49,0,0,1,0,4.83,5.26,5.26,0,0,1-1.12,1.84,4.92,4.92,0,0,1-1.75,1.16,6.66,6.66,0,0,1-4.6,0A5,5,0,0,1,274,44.58a5.3,5.3,0,0,1-1.14-1.84,7.49,7.49,0,0,1,0-4.83A5.17,5.17,0,0,1,274,36.08a5.07,5.07,0,0,1,1.76-1.15A6.28,6.28,0,0,1,278,34.52Zm0,9.54a2.38,2.38,0,0,0,2.09-1,4.74,4.74,0,0,0,.67-2.77,4.8,4.8,0,0,0-.67-2.78,2.38,2.38,0,0,0-2.09-1,2.42,2.42,0,0,0-2.11,1,4.84,4.84,0,0,0-.68,2.78,4.78,4.78,0,0,0,.68,2.77A2.44,2.44,0,0,0,278,44.06Z" fill="#3c4a63"/><path d="M285.83,46V34.7h1.6a.86.86,0,0,1,.58.15.93.93,0,0,1,.22.53l.16,1.37a5.41,5.41,0,0,1,1.42-1.65,3,3,0,0,1,1.83-.61,2.42,2.42,0,0,1,1.39.38l-.36,2a.42.42,0,0,1-.14.28.45.45,0,0,1-.3.08,1.83,1.83,0,0,1-.45-.07,3,3,0,0,0-.76-.08,2.33,2.33,0,0,0-1.45.47,3.64,3.64,0,0,0-1,1.37v7Z" fill="#3c4a63"/><path d="M298.64,46.16a3,3,0,0,1-2.26-.83,3.17,3.17,0,0,1-.79-2.29V36.73h-1.15a.5.5,0,0,1-.37-.14.53.53,0,0,1-.16-.43V35.08l1.81-.29.57-3.08a.53.53,0,0,1,.21-.34.63.63,0,0,1,.4-.12h1.41V34.8h3v1.93h-3v6.12a1.2,1.2,0,0,0,.26.83.92.92,0,0,0,.7.29,1.35,1.35,0,0,0,.43-.06l.29-.12.23-.13a.39.39,0,0,1,.2-.06.34.34,0,0,1,.2.06,1,1,0,0,1,.16.18l.81,1.32a4.1,4.1,0,0,1-1.36.75A5,5,0,0,1,298.64,46.16Z" fill="#3c4a63"/><path d="M312.4,46h-1.22a1.29,1.29,0,0,1-.61-.12.72.72,0,0,1-.33-.47l-.24-.8c-.29.26-.57.48-.84.68a6.13,6.13,0,0,1-.86.49,4,4,0,0,1-.93.29,5.35,5.35,0,0,1-1.1.1A4.25,4.25,0,0,1,305,46a2.86,2.86,0,0,1-1-.58,2.66,2.66,0,0,1-.68-1,3.45,3.45,0,0,1-.24-1.34,2.6,2.6,0,0,1,.34-1.26,3.13,3.13,0,0,1,1.11-1.13,7.31,7.31,0,0,1,2.08-.83,13.37,13.37,0,0,1,3.23-.33v-.67a2.53,2.53,0,0,0-.48-1.69,1.77,1.77,0,0,0-1.39-.54,3.44,3.44,0,0,0-1.1.15,4,4,0,0,0-.77.35l-.6.34a1.22,1.22,0,0,1-.6.16.78.78,0,0,1-.48-.15,1.07,1.07,0,0,1-.32-.35l-.49-.87a6.7,6.7,0,0,1,4.7-1.78,4.64,4.64,0,0,1,1.76.32,3.76,3.76,0,0,1,1.32.91,3.81,3.81,0,0,1,.82,1.38,5.46,5.46,0,0,1,.28,1.76Zm-5.28-1.7a3.74,3.74,0,0,0,.77-.07,3.68,3.68,0,0,0,.66-.23,3.62,3.62,0,0,0,.61-.38,5.37,5.37,0,0,0,.59-.52V41.2a11,11,0,0,0-2,.15,5.48,5.48,0,0,0-1.28.38,1.73,1.73,0,0,0-.69.55,1.22,1.22,0,0,0-.2.67,1.2,1.2,0,0,0,.42,1A1.8,1.8,0,0,0,307.12,44.29Z" fill="#3c4a63"/><path d="M318.07,29.64V46h-2.71V29.64Z" fill="#3c4a63"/></svg>