<?xml version="1.0" encoding="UTF-8" standalone="no"?>
<svg
   viewBox="0 0 140.10379 138.07477"
   version="1.1"
   id="svg436"
   sodipodi:docname="favicon.svg"
   inkscape:version="1.2.1 (9c6d41e4, 2022-07-14)"
   xmlns:inkscape="http://www.inkscape.org/namespaces/inkscape"
   xmlns:sodipodi="http://sodipodi.sourceforge.net/DTD/sodipodi-0.dtd"
   xmlns="http://www.w3.org/2000/svg"
   xmlns:svg="http://www.w3.org/2000/svg">
  <sodipodi:namedview
     id="namedview438"
     pagecolor="#ffffff"
     bordercolor="#000000"
     borderopacity="0.25"
     inkscape:showpageshadow="2"
     inkscape:pageopacity="0.0"
     inkscape:pagecheckerboard="0"
     inkscape:deskcolor="#d1d1d1"
     showgrid="false"
     inkscape:zoom="1.6857143"
     inkscape:cx="65.550847"
     inkscape:cy="70"
     inkscape:window-width="1309"
     inkscape:window-height="456"
     inkscape:window-x="0"
     inkscape:window-y="25"
     inkscape:window-maximized="0"
     inkscape:current-layer="svg436" />
  <defs
     id="defs412">
    <style
       id="style410">.cls-1{fill:#1fa0db;}.cls-2{fill:#df3e28;}.cls-3{fill:#84bd41;}.cls-4{fill:#404b63;}</style>
  </defs>
  <title
     id="title414">NF Logo</title>
  <g
     id="Layer_2"
     data-name="Layer 2"
     transform="translate(0.03236825,-6.9653861e-4)">
    <g
       id="Layer_1-2"
       data-name="Layer 1">
      <path
         class="cls-1"
         d="M 24.35,128.13 A 43.67,43.67 0 0 1 13.48,119 45.25,45.25 0 0 1 5.89,107.07 48.62,48.62 0 0 1 2.37,93.41 48.35,48.35 0 0 1 3.22,79.31 L 4.08,75.86 5.27,72.52 A 10.69,10.69 0 0 1 6,70.88 l 0.75,-1.61 c 0.26,-0.53 0.49,-1.08 0.77,-1.61 l 0.91,-1.53 a 43.6,43.6 0 0 1 9,-11 48.43,48.43 0 0 1 12,-7.79 48.52,48.52 0 0 1 13.9,-3.65 l 3.61,-0.27 3.64,0.09 a 31.28,31.28 0 0 1 3.61,0.35 L 56,44.09 c 0.6,0.09 1.19,0.26 1.78,0.39 1.18,0.3 2.39,0.47 3.54,0.88 l 3.47,1.16 a 49,49 0 0 1 6.59,3.22 46.8,46.8 0 0 1 11.33,9.26 49.77,49.77 0 0 1 8,12.49 46.84,46.84 0 0 1 3.8,14.51 46.11,46.11 0 0 1 -0.91,15.12 48.94,48.94 0 0 1 -15.5,26.14 c -1.09,0.87 -0.64,2.3 0.72,1.45 A 48.91,48.91 0 0 0 98.72,99.28 50.54,50.54 0 0 0 65.72,40.48 50.31,50.31 0 0 0 30.66,41.34 48.06,48.06 0 0 0 1,96.06 47.09,47.09 0 0 0 30.54,130.57 c 1.24,0.39 2.43,0.91 3.69,1.22 l 3.76,0.91 3.84,0.57 c 1.28,0.16 2.58,0.14 3.87,0.24 v -1.62 a 42.44,42.44 0 0 1 -16.71,-3.24 43.61,43.61 0 0 1 -23.73,-24.29 44.68,44.68 0 0 1 0.88,-34.7 45.64,45.64 0 0 1 26,-24 46.12,46.12 0 0 1 18.05,-2.66 44.31,44.31 0 0 1 17,4.37 45.37,45.37 0 0 1 13.98,10.63 45.93,45.93 0 0 1 8.93,15.06 46.71,46.71 0 0 1 2.62,17.25 47.26,47.26 0 0 1 -13.46,31.33 49.76,49.76 0 0 1 -31.18,14.79 c -1.6,0.2 -1.65,1.82 0,1.63 A 51.41,51.41 0 0 0 80.4,122.79 48.89,48.89 0 0 0 94.34,90.35 48.25,48.25 0 0 0 91.61,72.5 47.23,47.23 0 0 0 82.37,56.88 46.74,46.74 0 0 0 67.87,45.88 45.62,45.62 0 0 0 50.3,41.37 47.23,47.23 0 0 0 15.57,53.87 47,47 0 0 0 4.68,69 a 46.33,46.33 0 0 0 -0.95,36 45.45,45.45 0 0 0 9.85,15.17 45,45 0 0 0 14.8,10 44,44 0 0 0 17.34,3.38 c 1.53,0 1.52,-1.54 0,-1.62 -1.24,-0.09 -2.49,-0.08 -3.72,-0.23 l -3.68,-0.54 -3.62,-0.88 c -1.21,-0.29 -2.35,-0.8 -3.54,-1.17 A 45,45 0 0 1 2.64,96 46.29,46.29 0 0 1 2,80.31 47.09,47.09 0 0 1 6.81,65 a 48,48 0 0 1 9.92,-13 46.82,46.82 0 0 1 14.13,-9 49.52,49.52 0 0 1 16.69,-3.64 47.67,47.67 0 0 1 17.19,2.47 49,49 0 0 1 32.54,56.56 47.15,47.15 0 0 1 -18.9,28.7 l 0.74,1.45 a 50.5,50.5 0 0 0 16,-27 47.56,47.56 0 0 0 1,-15.63 48.24,48.24 0 0 0 -3.88,-15 A 51.13,51.13 0 0 0 84,58 48.68,48.68 0 0 0 72.18,48.39 51.84,51.84 0 0 0 65.31,45 l -3.59,-1.2 c -1.19,-0.41 -2.45,-0.6 -3.67,-0.91 -0.62,-0.13 -1.22,-0.31 -1.84,-0.4 l -1.87,-0.24 a 29.56,29.56 0 0 0 -3.75,-0.36 l -3.76,-0.1 -3.74,0.28 A 49.31,49.31 0 0 0 28.69,45.84 49.7,49.7 0 0 0 16.29,53.9 45.16,45.16 0 0 0 7,65.3 L 6.06,66.89 C 5.77,67.43 5.53,68 5.26,68.55 l -0.78,1.66 a 12,12 0 0 0 -0.71,1.7 L 2.53,75.38 1.64,79 a 49.83,49.83 0 0 0 -0.88,14.57 49.91,49.91 0 0 0 3.65,14.16 46.62,46.62 0 0 0 7.86,12.37 45.46,45.46 0 0 0 11.27,9.44 c 1.37,0.86 2.11,-0.54 0.81,-1.41 z"
         id="path416" />
      <path
         class="cls-2"
         d="m 83.84,110.5 a 39.05,39.05 0 0 1 -8.17,9.75 40.81,40.81 0 0 1 -10.7,6.8 43.59,43.59 0 0 1 -12.26,3.16 43.34,43.34 0 0 1 -12.65,-0.77 L 37,128.68 34,127.61 A 9.48,9.48 0 0 1 32.53,127 l -1.45,-0.68 c -0.47,-0.23 -1,-0.44 -1.44,-0.68 l -1.37,-0.82 a 39,39 0 0 1 -9.87,-8 43.19,43.19 0 0 1 -7,-10.73 A 43.42,43.42 0 0 1 8.12,93.58 L 7.88,90.34 8,87.08 a 27.11,27.11 0 0 1 0.31,-3.24 l 0.21,-1.62 c 0.08,-0.54 0.23,-1.07 0.34,-1.6 0.27,-1.05 0.43,-2.14 0.79,-3.18 l 1,-3.11 a 45.48,45.48 0 0 1 2.89,-5.91 42.25,42.25 0 0 1 8.32,-10.25 44.56,44.56 0 0 1 11.21,-7.17 41.62,41.62 0 0 1 13,-3.37 41.3,41.3 0 0 1 13.56,0.81 43.87,43.87 0 0 1 23.46,13.87 c 0.78,1 2.06,0.57 1.3,-0.65 A 43.87,43.87 0 0 0 58,43.81 45.32,45.32 0 0 0 5.28,73.4 45,45 0 0 0 6.05,104.83 43.9,43.9 0 0 0 40.49,132 43.82,43.82 0 0 0 55.09,131.47 42.27,42.27 0 0 0 86,104.93 c 0.35,-1.11 0.81,-2.18 1.09,-3.3 l 0.82,-3.38 0.51,-3.44 c 0.14,-1.15 0.13,-2.32 0.21,-3.47 h -1.45 a 38,38 0 0 1 -2.9,15 38.85,38.85 0 0 1 -8.67,12.8 A 39.24,39.24 0 0 1 62.5,127.67 40.1,40.1 0 0 1 31.38,126.88 41,41 0 0 1 9.88,103.54 41.47,41.47 0 0 1 7.49,87.33 39.6,39.6 0 0 1 11.41,72.11 40.86,40.86 0 0 1 34.47,51.55 41.76,41.76 0 0 1 49.93,49.19 42.38,42.38 0 0 1 78,61.27 44.65,44.65 0 0 1 91.29,89.22 c 0.17,1.43 1.63,1.48 1.45,0 A 46.08,46.08 0 0 0 79.05,60.24 43.68,43.68 0 0 0 34,50.18 42.34,42.34 0 0 0 10.1,71.47 41.22,41.22 0 0 0 6,87.23 43,43 0 0 0 8.51,104 42.36,42.36 0 0 0 30.78,128.14 41.61,41.61 0 0 0 63,129 a 40.93,40.93 0 0 0 13.6,-8.83 40.27,40.27 0 0 0 9,-13.28 39.13,39.13 0 0 0 3,-15.54 c 0,-1.38 -1.37,-1.36 -1.45,0 -0.08,1.11 -0.07,2.23 -0.21,3.33 l -0.48,3.31 -0.79,3.24 c -0.25,1.09 -0.71,2.11 -1,3.18 A 41.28,41.28 0 0 1 78,116 40.84,40.84 0 0 1 67.81,125 41.34,41.34 0 0 1 55,130 41.87,41.87 0 0 1 40.95,130.6 42.47,42.47 0 0 1 27.25,126.25 43,43 0 0 1 15.55,117.36 42.2,42.2 0 0 1 7.49,104.69 44.7,44.7 0 0 1 4.23,89.69 43,43 0 0 1 6.47,74.28 43.92,43.92 0 0 1 57.18,45.11 42.25,42.25 0 0 1 82.91,62.05 l 1.3,-0.67 A 45.36,45.36 0 0 0 60,47 a 44.89,44.89 0 0 0 -27.49,2.62 45.87,45.87 0 0 0 -11.6,7.45 43.49,43.49 0 0 0 -8.62,10.6 48,48 0 0 0 -3,6.11 L 8.23,77 C 7.86,78.07 7.69,79.2 7.41,80.29 7.29,80.84 7.13,81.38 7.05,81.94 L 6.84,83.62 A 27.11,27.11 0 0 0 6.51,87 l -0.09,3.37 0.25,3.36 a 44.52,44.52 0 0 0 3.38,12.9 44.82,44.82 0 0 0 7.23,11.13 40.82,40.82 0 0 0 10.22,8.34 l 1.43,0.84 c 0.48,0.26 1,0.47 1.49,0.71 l 1.49,0.7 a 10.29,10.29 0 0 0 1.53,0.64 l 3.1,1.1 3.21,0.8 a 44.32,44.32 0 0 0 13.1,0.79 44.59,44.59 0 0 0 12.7,-3.27 41.84,41.84 0 0 0 11.09,-7 40.47,40.47 0 0 0 8.46,-10.1 c 0.78,-1.31 -0.51,-1.98 -1.26,-0.81 z"
         id="path418" />
      <path
         class="cls-3"
         d="M 37.52,118.65 A 31.7,31.7 0 0 1 20.89,104.76 30.4,30.4 0 0 1 49.28,59.23 31,31 0 0 1 60.47,62 a 31.88,31.88 0 0 1 9.63,6.89 32.21,32.21 0 0 1 6.6,10.16 33.69,33.69 0 0 1 0.24,24.68 34.17,34.17 0 0 1 -6.86,11 34.56,34.56 0 0 1 -23.69,11.17 c -1.19,0.09 -1.18,1.09 0,1.1 A 34.79,34.79 0 0 0 60.88,124.43 35.85,35.85 0 0 0 73.18,116.1 36.31,36.31 0 0 0 83.4,89 35.78,35.78 0 0 0 71.08,63.54 35.19,35.19 0 0 0 59,56.65 34.69,34.69 0 0 0 45.5,55 34.18,34.18 0 0 0 32.81,58.55 33.24,33.24 0 0 0 22.73,66.4 a 32.2,32.2 0 0 0 -8,22.67 31.9,31.9 0 0 0 30,30.42 c 0.85,0.08 1,-0.92 0.22,-1.07 a 31.46,31.46 0 0 1 -19,-10 A 29.69,29.69 0 0 1 18.28,89 28.89,28.89 0 0 1 25.79,69 29.26,29.26 0 0 1 34.86,62.24 29.58,29.58 0 0 1 46.12,59.38 27.85,27.85 0 0 1 66.49,67 a 31.09,31.09 0 0 1 9.67,19.79 34.3,34.3 0 0 1 -5.31,21.5 38.52,38.52 0 0 1 -7.56,8.71 39.77,39.77 0 0 1 -10.23,6.38 c -1,0.47 -0.35,1.41 0.7,0.92 a 40.45,40.45 0 0 0 17.8,-15.14 36.81,36.81 0 0 0 4.58,-10.37 33.63,33.63 0 0 0 1,-11.21 32.05,32.05 0 0 0 -9,-20.25 A 30.47,30.47 0 0 0 59,60.85 29.36,29.36 0 0 0 48.23,58.27 30.06,30.06 0 0 0 17,87.85 a 30.75,30.75 0 0 0 7.61,20.71 32.88,32.88 0 0 0 20,10.9 l 0.23,-1.07 a 30.89,30.89 0 0 1 -21.34,-51.2 32.35,32.35 0 0 1 9.73,-7.61 33.17,33.17 0 0 1 12.27,-3.47 33.87,33.87 0 0 1 13,1.56 34.27,34.27 0 0 1 11.76,6.66 34.79,34.79 0 0 1 12.04,24.67 35.29,35.29 0 0 1 -9.89,26.37 35,35 0 0 1 -11.94,8.08 33.84,33.84 0 0 1 -14.08,2.48 v 1.1 A 35.6,35.6 0 0 0 70.82,115.61 35.39,35.39 0 0 0 78,104.23 35,35 0 0 0 80.32,91.31 34.37,34.37 0 0 0 77.8,78.74 33.38,33.38 0 0 0 70.99,68.22 33,33 0 0 0 61,61.07 32.24,32.24 0 0 0 27.67,64.85 31.34,31.34 0 0 0 20,105.34 32.8,32.8 0 0 0 37.28,119.72 c 0.92,0.33 1.15,-0.72 0.24,-1.07 z"
         id="path420" />
      <path
         class="cls-2"
         d="M 121.81,57.24 A 19.72,19.72 0 0 1 115.32,57.81 21,21 0 0 1 109,56.4 22.68,22.68 0 0 1 103.41,53.1 22.43,22.43 0 0 1 99.1,48.24 l -0.84,-1.4 -0.7,-1.48 A 6.21,6.21 0 0 1 97.25,44.61 L 96.97,43.84 C 96.88,43.59 96.78,43.33 96.7,43.07 l -0.2,-0.79 a 20.06,20.06 0 0 1 -0.67,-6.5 22.44,22.44 0 0 1 1.36,-6.42 22.35,22.35 0 0 1 3.33,-5.7 l 1.09,-1.27 1.21,-1.15 a 14.53,14.53 0 0 1 1.29,-1.06 l 0.66,-0.51 c 0.23,-0.17 0.47,-0.31 0.71,-0.46 0.48,-0.28 0.93,-0.62 1.44,-0.86 l 1.5,-0.75 a 23.55,23.55 0 0 1 3.19,-1.1 21.76,21.76 0 0 1 6.73,-0.7 22.7,22.7 0 0 1 6.66,1.45 21.23,21.23 0 0 1 5.94,3.5 20.74,20.74 0 0 1 4.61,5.25 22.48,22.48 0 0 1 3.45,13.5 c -0.07,0.63 0.54,1 0.71,0.23 a 22.48,22.48 0 0 0 -3.1,-16 23.23,23.23 0 0 0 -29.84,-8.38 23.07,23.07 0 0 0 -11.1,11.65 22.12,22.12 0 0 0 8.13,27.4 21.66,21.66 0 0 0 6.72,3 21.84,21.84 0 0 0 14.1,-1.4 c 0.53,-0.27 1.09,-0.49 1.6,-0.8 l 1.52,-0.93 1.43,-1.06 c 0.47,-0.36 0.89,-0.79 1.34,-1.18 L 130,51.5 a 19.44,19.44 0 0 1 -6.48,4.38 19.87,19.87 0 0 1 -7.79,1.5 20.09,20.09 0 0 1 -7.84,-1.66 20.47,20.47 0 0 1 -11,-11.57 20.86,20.86 0 0 1 0.64,-16.25 21.17,21.17 0 0 1 5,-6.74 20.31,20.31 0 0 1 6.94,-4.1 20.89,20.89 0 0 1 15.81,0.91 21.64,21.64 0 0 1 12.27,19.31 22.9,22.9 0 0 1 -5.33,14.95 c -0.45,0.58 0.06,1.12 0.54,0.51 a 23.67,23.67 0 0 0 5.54,-15.46 22.48,22.48 0 0 0 -6,-15.07 22.13,22.13 0 0 0 -6.69,-4.92 21.68,21.68 0 0 0 -16.36,-0.93 21,21 0 0 0 -7.18,4.24 21.72,21.72 0 0 0 -7.25,15.4 21.6,21.6 0 0 0 1.36,8.44 21.3,21.3 0 0 0 11.39,12 21,21 0 0 0 8.13,1.73 20.74,20.74 0 0 0 8.07,-1.55 20.15,20.15 0 0 0 6.74,-4.62 c 0.51,-0.49 0,-1 -0.52,-0.54 -0.52,0.46 -0.83,0.78 -1.28,1.14 l -1.37,1 -1.46,0.89 c -0.49,0.3 -1,0.51 -1.53,0.77 A 21,21 0 0 1 117.72,57.05 20.6,20.6 0 0 1 104.31,53.79 21.26,21.26 0 0 1 99,49 21.78,21.78 0 0 1 94.6,35 a 21.43,21.43 0 0 1 1.67,-7.52 22.56,22.56 0 0 1 4.24,-6.6 22.05,22.05 0 0 1 6.39,-4.79 22.5,22.5 0 0 1 29,7.81 21.67,21.67 0 0 1 3.1,15.44 l 0.71,0.23 a 23.28,23.28 0 0 0 -3.55,-14 21.81,21.81 0 0 0 -4.78,-5.39 22.07,22.07 0 0 0 -6.14,-3.63 23.49,23.49 0 0 0 -6.9,-1.5 22.33,22.33 0 0 0 -7,0.71 23.82,23.82 0 0 0 -3.3,1.14 l -1.56,0.77 c -0.52,0.25 -1,0.6 -1.49,0.9 a 8.21,8.21 0 0 0 -0.73,0.47 l -0.69,0.53 a 12.73,12.73 0 0 0 -1.33,1.1 l -1.26,1.18 -1.12,1.31 a 22.8,22.8 0 0 0 -3.46,5.91 23,23 0 0 0 -1.41,6.65 20.88,20.88 0 0 0 0.68,6.73 l 0.21,0.82 c 0.09,0.27 0.19,0.53 0.29,0.8 l 0.28,0.8 a 5.88,5.88 0 0 0 0.33,0.78 l 0.72,1.53 0.87,1.45 a 22.79,22.79 0 0 0 4.47,5 22.55,22.55 0 0 0 5.79,3.42 21.83,21.83 0 0 0 6.57,1.47 A 21,21 0 0 0 122,58 c 0.73,-0.2 0.51,-0.91 -0.19,-0.76 z"
         id="path422" />
      <path
         class="cls-3"
         d="m 135.42,32.17 a 17.87,17.87 0 0 1 0.51,5.82 18.72,18.72 0 0 1 -1.26,5.69 20.29,20.29 0 0 1 -3,5 20,20 0 0 1 -4.36,3.86 l -1.26,0.75 -1.32,0.63 a 5.58,5.58 0 0 1 -0.67,0.28 l -0.69,0.25 c -0.23,0.08 -0.46,0.17 -0.69,0.24 l -0.71,0.19 a 17.9,17.9 0 0 1 -5.83,0.59 20,20 0 0 1 -5.76,-1.22 19.71,19.71 0 0 1 -5.11,-3 l -1.14,-1 -1,-1.09 a 10.55,10.55 0 0 1 -1,-1.15 l -0.46,-0.6 c -0.15,-0.2 -0.27,-0.42 -0.41,-0.63 -0.25,-0.43 -0.56,-0.83 -0.77,-1.29 l -0.68,-1.35 a 21.78,21.78 0 0 1 -1,-2.85 19.18,19.18 0 0 1 -0.63,-6 20.66,20.66 0 0 1 1.3,-6 19.39,19.39 0 0 1 3.22,-5.29 19.06,19.06 0 0 1 4.67,-4.14 20.2,20.2 0 0 1 12.14,-3.1 c 0.57,0.06 0.86,-0.49 0.21,-0.63 a 20.15,20.15 0 0 0 -14.38,2.77 20.84,20.84 0 0 0 -7.52,26.76 20.71,20.71 0 0 0 10.47,10 19.8,19.8 0 0 0 24.58,-7.29 19.38,19.38 0 0 0 1.45,-18.67 c -0.25,-0.48 -0.44,-1 -0.72,-1.43 l -0.83,-1.37 -1,-1.28 c -0.33,-0.42 -0.71,-0.79 -1.06,-1.2 l -0.49,0.46 a 17.41,17.41 0 0 1 3.93,5.82 17.86,17.86 0 0 1 1.35,7 18.34,18.34 0 0 1 -11.87,16.89 18.73,18.73 0 0 1 -14.51,-0.59 19.18,19.18 0 0 1 -6.05,-4.49 18.17,18.17 0 0 1 -3.67,-6.23 18.58,18.58 0 0 1 -1,-7.17 19,19 0 0 1 6.06,-12.79 19.45,19.45 0 0 1 13,-5.21 20.48,20.48 0 0 1 13.4,4.77 c 0.53,0.41 1,0 0.47,-0.48 a 21.2,21.2 0 0 0 -13.86,-5 20.15,20.15 0 0 0 -13.47,5.38 19.92,19.92 0 0 0 -4.41,6 19.52,19.52 0 0 0 -1.85,7.22 19.31,19.31 0 0 0 1,7.43 18.82,18.82 0 0 0 3.81,6.44 19.47,19.47 0 0 0 21.34,5.26 19.18,19.18 0 0 0 6.43,-4 18.71,18.71 0 0 0 4.49,-20.7 18.19,18.19 0 0 0 -4.07,-6 c -0.44,-0.45 -0.89,0 -0.49,0.46 0.4,0.46 0.71,0.75 1,1.15 l 0.92,1.24 0.8,1.31 c 0.27,0.43 0.45,0.91 0.69,1.37 a 19,19 0 0 1 1.6,5.94 18.65,18.65 0 0 1 -0.4,6.22 19,19 0 0 1 -2.52,5.81 19.35,19.35 0 0 1 -4.34,4.7 19.59,19.59 0 0 1 -12.56,3.95 19.11,19.11 0 0 1 -6.74,-1.5 20.29,20.29 0 0 1 -5.92,-3.8 19.53,19.53 0 0 1 -4.29,-5.73 20.18,20.18 0 0 1 7,-26 19.49,19.49 0 0 1 13.87,-2.86 l 0.21,-0.64 a 20.92,20.92 0 0 0 -12.57,3.22 20.63,20.63 0 0 0 -8,9.79 20.68,20.68 0 0 0 -1.35,6.19 19.89,19.89 0 0 0 0.64,6.25 22,22 0 0 0 1,3 l 0.7,1.4 c 0.23,0.46 0.54,0.89 0.8,1.33 0.14,0.22 0.27,0.45 0.42,0.66 l 0.48,0.61 a 12.51,12.51 0 0 0 1,1.2 l 1.07,1.12 1.17,1 a 19.24,19.24 0 0 0 11.26,4.37 18.64,18.64 0 0 0 6,-0.62 l 0.73,-0.18 c 0.25,-0.08 0.48,-0.17 0.72,-0.26 l 0.71,-0.25 a 5.42,5.42 0 0 0 0.7,-0.29 l 1.38,-0.65 1.3,-0.79 a 19.46,19.46 0 0 0 7.58,-9.19 19.57,19.57 0 0 0 1.29,-5.96 18.86,18.86 0 0 0 -0.53,-6 c -0.15,-0.66 -0.79,-0.45 -0.65,0.17 z"
         id="path424" />
      <path
         class="cls-1"
         d="m 123,49.88 a 14.59,14.59 0 0 1 -9.92,0.89 14,14 0 0 1 -5.57,-24 14.37,14.37 0 0 1 4.56,-2.77 14.81,14.81 0 0 1 10.82,0.27 15.18,15.18 0 0 1 4.75,3.16 15.39,15.39 0 0 1 3.36,4.79 16,16 0 0 1 0.43,11.83 16,16 0 0 1 -3.17,5.3 c -0.35,0.42 0,0.74 0.37,0.35 a 16.18,16.18 0 0 0 3.88,-5.55 16.56,16.56 0 0 0 1.29,-6.7 16.73,16.73 0 0 0 -5.52,-12.14 16.45,16.45 0 0 0 -12.28,-4.26 16.17,16.17 0 0 0 -6.18,1.7 15.87,15.87 0 0 0 -4.91,3.85 15.6,15.6 0 0 0 -3,5.27 15.15,15.15 0 0 0 -0.73,5.83 14.78,14.78 0 0 0 4.78,10 14.68,14.68 0 0 0 19.64,0.14 c 0.3,-0.25 0,-0.64 -0.28,-0.42 a 14.51,14.51 0 0 1 -9.43,2.92 13.66,13.66 0 0 1 -8.8,-3.8 13.24,13.24 0 0 1 -4.07,-9 13.49,13.49 0 0 1 3.49,-9.73 12.77,12.77 0 0 1 9.08,-4.16 14.25,14.25 0 0 1 9.61,3.35 15.8,15.8 0 0 1 5.27,8.71 18,18 0 0 1 0.37,5.29 18.32,18.32 0 0 1 -1.25,5.4 c -0.17,0.48 0.34,0.57 0.53,0.07 a 18.59,18.59 0 0 0 0.88,-10.76 17.09,17.09 0 0 0 -1.88,-4.86 15.43,15.43 0 0 0 -3.31,-4 14.78,14.78 0 0 0 -9.5,-3.67 14,14 0 0 0 -5.08,0.89 13.47,13.47 0 0 0 -4.34,2.67 13.84,13.84 0 0 0 -3.3,4.64 13.53,13.53 0 0 0 -1.14,5.43 13.8,13.8 0 0 0 3.9,9.7 14.12,14.12 0 0 0 9.2,4.26 15.15,15.15 0 0 0 10,-2.95 l -0.27,-0.42 a 14.23,14.23 0 0 1 -9.41,3.6 14.09,14.09 0 0 1 -9.5,-3.69 14.24,14.24 0 0 1 -4.64,-9.59 14.72,14.72 0 0 1 0.69,-5.64 15,15 0 0 1 2.86,-5.08 15.31,15.31 0 0 1 4.72,-3.78 15.9,15.9 0 0 1 12.3,-0.85 16.21,16.21 0 0 1 9.7,21.63 15.46,15.46 0 0 1 -3.77,5.38 l 0.37,0.35 a 16.45,16.45 0 0 0 2.85,-17.65 16.12,16.12 0 0 0 -8.35,-8.23 15.42,15.42 0 0 0 -5.64,-1.2 15.26,15.26 0 0 0 -5.55,0.91 14.81,14.81 0 0 0 -9.61,12.06 14.4,14.4 0 0 0 10.7,15.64 15.06,15.06 0 0 0 10.29,-0.94 c 0.4,-0.21 0.12,-0.64 -0.29,-0.44 z"
         id="path426" />
      <path
         class="cls-3"
         d="m 74.69,2.49 a 12.35,12.35 0 0 1 3.22,2.43 12.76,12.76 0 0 1 2.32,3.28 13.65,13.65 0 0 1 1.2,3.8 13.88,13.88 0 0 1 0,4 l -0.2,1 -0.29,1 a 2.64,2.64 0 0 1 -0.17,0.47 l -0.19,0.47 c -0.06,0.16 -0.12,0.31 -0.19,0.47 l -0.24,0.44 a 12.35,12.35 0 0 1 -2.39,3.26 13.82,13.82 0 0 1 -3.29,2.38 13.58,13.58 0 0 1 -3.89,1.23 l -1,0.13 h -1 a 9,9 0 0 1 -1,-0.05 h -0.52 a 4.5,4.5 0 0 1 -0.51,-0.08 c -0.34,-0.07 -0.68,-0.1 -1,-0.2 l -1,-0.28 A 14.64,14.64 0 0 1 62.64,25.42 13.24,13.24 0 0 1 59.11,23 a 14,14 0 0 1 -2.46,-3.44 13.71,13.71 0 0 1 -1.24,-8.38 14,14 0 0 1 4,-7.64 c 0.3,-0.26 0.15,-0.66 -0.22,-0.4 A 13.89,13.89 0 0 0 54,11.73 14.35,14.35 0 0 0 64.19,28 a 14.22,14.22 0 0 0 9.94,-0.74 13.89,13.89 0 0 0 8,-11.34 13.72,13.72 0 0 0 -0.4,-4.61 13.44,13.44 0 0 0 -1.85,-4.14 13.75,13.75 0 0 0 -3.1,-3.22 13.3,13.3 0 0 0 -3.93,-2 C 72.5,1.85 72.15,1.72 71.79,1.65 l -1.08,-0.2 -1.1,-0.11 c -0.36,0 -0.73,0 -1.1,0 V 1.8 a 12.06,12.06 0 0 1 4.79,0.68 12.43,12.43 0 0 1 7.15,6.52 12.57,12.57 0 0 1 1.12,4.88 12.71,12.71 0 0 1 -0.87,5 13,13 0 0 1 -12.13,8.12 12.42,12.42 0 0 1 -4.88,-1 12.72,12.72 0 0 1 -4.13,-2.81 13,13 0 0 1 -2.75,-4.16 13.1,13.1 0 0 1 -1,-4.86 13.41,13.41 0 0 1 3.39,-9.06 14.12,14.12 0 0 1 8.64,-4.64 c 0.45,-0.08 0.44,-0.54 0,-0.46 a 14.61,14.61 0 0 0 -8.99,4.79 13.92,13.92 0 0 0 -3.49,9.41 13.58,13.58 0 0 0 1,5 13.39,13.39 0 0 0 7.12,7.22 12.88,12.88 0 0 0 5.05,1 A 13.42,13.42 0 0 0 81.12,19 13,13 0 0 0 77.87,4.62 12.65,12.65 0 0 0 73.52,2 a 12.25,12.25 0 0 0 -5,-0.71 c -0.44,0 -0.41,0.45 0,0.46 0.41,0.01 0.71,0 1.06,0 l 1,0.1 1,0.2 c 0.35,0.06 0.68,0.19 1,0.28 a 13.07,13.07 0 0 1 3.77,1.93 12.73,12.73 0 0 1 3,3.08 12.92,12.92 0 0 1 1.8,4 12.94,12.94 0 0 1 0.42,4.44 13.4,13.4 0 0 1 -1.16,4.4 A 13.58,13.58 0 0 1 77.94,24 13.34,13.34 0 0 1 74.06,26.75 14,14 0 0 1 69.37,28 13.67,13.67 0 0 1 64.45,27.54 13.93,13.93 0 0 1 54.41,12 a 13.43,13.43 0 0 1 5,-8.42 L 59.18,3.18 A 14.35,14.35 0 0 0 55,11 a 13.91,13.91 0 0 0 -0.05,4.46 13.77,13.77 0 0 0 1.32,4.21 13.77,13.77 0 0 0 6,6.11 15.06,15.06 0 0 0 2,0.85 l 1,0.29 c 0.35,0.1 0.71,0.14 1.06,0.21 0.17,0 0.35,0.07 0.53,0.09 h 0.53 a 9.58,9.58 0 0 0 1.07,0.05 h 1.07 l 1.06,-0.13 a 14.23,14.23 0 0 0 4,-1.27 14.16,14.16 0 0 0 3.41,-2.42 12.83,12.83 0 0 0 2.48,-3.37 l 0.24,-0.46 a 5,5 0 0 0 0.2,-0.49 l 0.2,-0.48 a 4.09,4.09 0 0 0 0.18,-0.49 l 0.3,-1 0.2,-1 A 14.15,14.15 0 0 0 81.8,12 14.09,14.09 0 0 0 80.57,8 13.36,13.36 0 0 0 78.16,4.6 12.66,12.66 0 0 0 74.9,2.08 C 74.5,1.85 74.31,2.27 74.69,2.49 Z"
         id="path428" />
      <path
         class="cls-1"
         d="m 58.05,8.34 a 11,11 0 0 1 2.18,-2.88 11.84,11.84 0 0 1 2.94,-2.09 12.61,12.61 0 0 1 3.44,-1.07 12.41,12.41 0 0 1 3.6,0 l 0.89,0.17 0.87,0.26 a 3,3 0 0 1 0.42,0.16 l 0.42,0.17 0.42,0.17 0.4,0.21 a 11.2,11.2 0 0 1 2.92,2.15 12.51,12.51 0 0 1 2.14,3 12,12 0 0 1 1.1,3.49 l 0.12,0.91 v 0.93 c 0,0.31 0,0.62 0,0.93 v 0.46 c 0,0.15 0,0.3 -0.07,0.46 -0.07,0.16 -0.09,0.61 -0.18,0.91 l -0.25,0.9 a 12.59,12.59 0 0 1 -2.95,4.75 12.91,12.91 0 0 1 -3.08,2.2 11.77,11.77 0 0 1 -3.65,1.15 11.63,11.63 0 0 1 -3.86,0 A 12.44,12.44 0 0 1 59,22 c -0.23,-0.26 -0.59,-0.13 -0.36,0.21 A 12.5,12.5 0 0 0 66.39,26.9 12.88,12.88 0 0 0 80.94,17.75 12.84,12.84 0 0 0 80.27,8.83 12.25,12.25 0 0 0 65.92,2 a 12.08,12.08 0 0 0 -3.71,1.67 12.13,12.13 0 0 0 -4.7,6.3 c -0.08,0.31 -0.2,0.62 -0.26,0.95 l -0.19,1 -0.09,1 c 0,0.33 0,0.66 0,1 h 0.41 A 10.87,10.87 0 0 1 58,9.54 11.12,11.12 0 0 1 63.88,3.18 11.44,11.44 0 0 1 72.71,3 a 11.63,11.63 0 0 1 6.44,6.31 11.82,11.82 0 0 1 0.91,4.56 11.18,11.18 0 0 1 -0.9,4.38 11.42,11.42 0 0 1 -2.52,3.7 11.62,11.62 0 0 1 -3.73,2.47 12,12 0 0 1 -12.5,-2.14 12.71,12.71 0 0 1 -4.17,-7.75 c -0.07,-0.4 -0.48,-0.4 -0.41,0 a 13,13 0 0 0 4.3,8 12.47,12.47 0 0 0 8.44,3.14 12.26,12.26 0 0 0 4.5,-0.92 12,12 0 0 0 3.86,-2.56 11.78,11.78 0 0 0 3.54,-8.36 A 12,12 0 0 0 79.53,9.1 12,12 0 0 0 72.87,2.57 11.89,11.89 0 0 0 68.24,1.75 11.66,11.66 0 0 0 60,5.5 11.45,11.45 0 0 0 57.6,9.39 11.14,11.14 0 0 0 57,13.85 c 0,0.39 0.41,0.37 0.41,0 0,-0.37 0,-0.63 0,-0.95 l 0.09,-0.94 0.18,-0.94 c 0.06,-0.31 0.17,-0.61 0.25,-0.91 A 11.71,11.71 0 0 1 62.39,4 11.81,11.81 0 0 1 66,2.4 12.06,12.06 0 0 1 70,2.03 12.12,12.12 0 0 1 77.4,5.43 12.1,12.1 0 0 1 79.87,8.91 12.9,12.9 0 0 1 81,13.11 12.49,12.49 0 0 1 66.6,26.53 12,12 0 0 1 59,22.08 l -0.36,0.21 a 12.84,12.84 0 0 0 7.08,3.71 12.15,12.15 0 0 0 4,0 12.33,12.33 0 0 0 3.78,-1.18 13.15,13.15 0 0 0 3.19,-2.28 12.54,12.54 0 0 0 2.31,-3.05 13.28,13.28 0 0 0 0.77,-1.78 l 0.26,-0.93 c 0.09,-0.31 0.12,-0.63 0.18,-1 a 3.55,3.55 0 0 0 0.08,-0.47 v -0.48 a 6.17,6.17 0 0 0 0,-1 v -1 l -0.12,-1 A 12.66,12.66 0 0 0 79.06,8.4 12.64,12.64 0 0 0 76.85,5.34 11.33,11.33 0 0 0 73.85,3.12 L 73.43,2.9 C 73.29,2.83 73.14,2.78 73,2.72 L 72.56,2.54 A 3.29,3.29 0 0 0 72.12,2.38 L 71.22,2.11 70.3,1.93 a 13,13 0 0 0 -3.73,0 A 13.15,13.15 0 0 0 63,3 a 12.32,12.32 0 0 0 -3.05,2.16 11.78,11.78 0 0 0 -2.26,3 c -0.21,0.35 0.17,0.52 0.36,0.18 z"
         id="path430" />
      <path
         class="cls-2"
         d="m 71.09,5.37 a 9.06,9.06 0 0 1 4.91,3.7 8.72,8.72 0 0 1 1.32,5.86 8.62,8.62 0 0 1 -2.88,5.33 8.79,8.79 0 0 1 -5.86,2.15 9,9 0 0 1 -3.21,-0.64 9.19,9.19 0 0 1 -4.85,-4.61 9.33,9.33 0 0 1 -0.87,-3.42 9.57,9.57 0 0 1 0.45,-3.59 9.91,9.91 0 0 1 4.7,-5.6 10,10 0 0 1 3.66,-1.11 c 0.33,0 0.32,-0.33 0,-0.32 A 10.05,10.05 0 0 0 64.38,4.06 10.24,10.24 0 0 0 61,6.6 a 10.4,10.4 0 0 0 -2.51,7.85 10.19,10.19 0 0 0 7.4,8.83 9.87,9.87 0 0 0 3.85,0.27 9.5,9.5 0 0 0 3.55,-1.19 A 9.25,9.25 0 0 0 76,20 9.09,9.09 0 0 0 69,5.23 c -0.24,0 -0.28,0.28 0,0.31 a 9,9 0 0 1 5.54,2.58 8.37,8.37 0 0 1 2.46,5.38 8.23,8.23 0 0 1 -1.84,5.8 8.46,8.46 0 0 1 -5.64,3 7.92,7.92 0 0 1 -5.89,-1.86 8.88,8.88 0 0 1 -3,-5.48 9.76,9.76 0 0 1 1.2,-6.18 10.66,10.66 0 0 1 2,-2.58 11.36,11.36 0 0 1 2.82,-2 C 66.93,4.05 66.73,3.79 66.44,3.95 a 11.47,11.47 0 0 0 -4.84,4.55 10.3,10.3 0 0 0 -1.15,3 9.25,9.25 0 0 0 -0.13,3.19 9.09,9.09 0 0 0 2.83,5.63 8.65,8.65 0 0 0 2.7,1.69 8.26,8.26 0 0 0 3.09,0.58 8.54,8.54 0 0 0 8.46,-8.84 8.73,8.73 0 0 0 -2.5,-5.7 9.32,9.32 0 0 0 -5.82,-2.81 v 0.31 a 8.75,8.75 0 0 1 8.63,7.9 8.89,8.89 0 0 1 -1.86,6.33 9.2,9.2 0 0 1 -2.65,2.3 9.47,9.47 0 0 1 -3.44,1.16 A 9.57,9.57 0 0 1 66,23 9.82,9.82 0 0 1 60,18.29 10.09,10.09 0 0 1 59.23,10.4 a 10,10 0 0 1 5.29,-6 9.58,9.58 0 0 1 4,-0.9 V 3.18 a 10.19,10.19 0 0 0 -8.71,6.82 9.93,9.93 0 0 0 0.42,7.23 9.43,9.43 0 0 0 2.09,2.89 9.2,9.2 0 0 0 6.25,2.56 9,9 0 0 0 6.08,-2.22 A 8.9,8.9 0 0 0 76.27,8.9 9.35,9.35 0 0 0 71.16,5.06 C 70.88,5 70.82,5.29 71.09,5.37 Z"
         id="path432" />
    </g>
  </g>
</svg>
