<svg width="54" height="66" viewBox="0 0 54 66" fill="none" xmlns="http://www.w3.org/2000/svg">
<path d="M11.4891 27.4287C11.2387 31.9399 12.9487 36.3243 16.1831 39.4606C18.8634 42.0594 20.3991 45.6396 20.3991 49.2821V51.3268C20.3991 53.2955 21.9994 54.8958 23.9681 54.8958H30.0375C32.0062 54.8958 33.6065 53.2955 33.6065 51.3268V49.2849C33.6065 45.5949 35.1056 42.0511 37.7212 39.5592C40.829 36.5976 42.539 32.6038 42.539 28.312C42.539 19.7455 35.5696 12.7759 27.0028 12.7759C26.4178 12.7759 25.8244 12.8096 25.2366 12.8743C17.8119 13.6955 11.9022 19.9534 11.4889 27.4291L11.4891 27.4287ZM25.4729 15.0202C25.982 14.9639 26.4967 14.9358 27.0001 14.9358C34.3743 14.9358 40.3762 20.9377 40.3762 28.312C40.3762 32.0076 38.9025 35.4444 36.2278 37.9953C33.1875 40.8921 31.4438 45.0068 31.4438 49.2849V51.3267C31.4438 52.1029 30.811 52.7357 30.0347 52.7357H23.9654C23.1891 52.7357 22.5563 52.1029 22.5563 51.3267V49.282C22.5563 45.0605 20.7817 40.9149 17.6851 37.9111C14.9007 35.2111 13.4297 31.4339 13.6435 27.5496C14.0007 21.1118 19.0857 15.7257 25.4731 15.0201L25.4729 15.0202Z" fill="#DDDDDF"/>
<path d="M27 19.2553C29.1684 19.2553 31.2666 20.0371 32.9118 21.4546C33.1143 21.6318 33.3675 21.7162 33.6178 21.7162C33.9215 21.7162 34.2225 21.5896 34.4362 21.3421C34.8271 20.8893 34.7765 20.2087 34.3237 19.8206C32.2875 18.0628 29.6859 17.0952 26.9999 17.0952C26.4036 17.0952 25.9199 17.579 25.9199 18.1752C25.9199 18.7715 26.4036 19.2552 26.9999 19.2552L27 19.2553Z" fill="#DDDDDF"/>
<path d="M36.0562 28.3114C36.0562 28.9076 36.5399 29.3914 37.1362 29.3914C37.7324 29.3914 38.2162 28.9076 38.2162 28.3114C38.2162 26.9248 37.9659 25.5692 37.468 24.2839C37.2543 23.727 36.6299 23.4514 36.073 23.6651C35.5161 23.8789 35.2406 24.5061 35.4543 25.0601C35.8536 26.0979 36.0561 27.192 36.0561 28.3113L36.0562 28.3114Z" fill="#DDDDDF"/>
<path d="M21.7713 58.5406H32.2257C32.822 58.5406 33.3057 58.0569 33.3057 57.4606C33.3057 56.8644 32.822 56.3806 32.2257 56.3806H21.7713C21.1751 56.3806 20.6913 56.8644 20.6913 57.4606C20.6913 58.0597 21.1751 58.5406 21.7713 58.5406Z" fill="#DDDDDF"/>
<path d="M21.7713 61.9715H32.2257C32.822 61.9715 33.3057 61.4878 33.3057 60.8915C33.3057 60.2953 32.822 59.8115 32.2257 59.8115H21.7713C21.1751 59.8115 20.6913 60.2953 20.6913 60.8915C20.6913 61.4878 21.1751 61.9715 21.7713 61.9715Z" fill="#DDDDDF"/>
<path d="M30.6929 64.32C30.6929 63.7237 30.2091 63.24 29.6129 63.24H24.3844C23.7882 63.24 23.3044 63.7237 23.3044 64.32C23.3044 64.9162 23.7882 65.4 24.3844 65.4H29.6129C30.2091 65.4 30.6929 64.9162 30.6929 64.32Z" fill="#DDDDDF"/>
<path d="M0.399597 27.2004C0.399597 27.7966 0.883344 28.2804 1.4796 28.2804H7.7346C8.33084 28.2804 8.8146 27.7966 8.8146 27.2004C8.8146 26.6041 8.33084 26.1204 7.7346 26.1204H1.4796C0.883344 26.1204 0.399597 26.6041 0.399597 27.2004Z" fill="#DDDDDF"/>
<path d="M52.5204 26.1204H46.2654C45.6691 26.1204 45.1854 26.6041 45.1854 27.2004C45.1854 27.7966 45.6691 28.2804 46.2654 28.2804H52.5204C53.1166 28.2804 53.6004 27.7966 53.6004 27.2004C53.6004 26.6013 53.1166 26.1204 52.5204 26.1204Z" fill="#DDDDDF"/>
<path d="M25.92 1.6801V7.9351C25.92 8.53134 26.4037 9.0151 27 9.0151C27.5962 9.0151 28.08 8.53134 28.08 7.9351V1.6801C28.08 1.08385 27.5962 0.600098 27 0.600098C26.4037 0.600098 25.92 1.08385 25.92 1.6801Z" fill="#DDDDDF"/>
<path d="M39.8585 14.342C40.0694 14.5529 40.345 14.657 40.6235 14.657C40.8991 14.657 41.1775 14.5529 41.3885 14.342L45.8097 9.92075C46.2316 9.49887 46.2316 8.8154 45.8097 8.39356C45.3878 7.97168 44.7044 7.97168 44.2825 8.39356L39.8613 12.8148C39.4366 13.2338 39.4366 13.9201 39.8585 14.342H39.8585Z" fill="#DDDDDF"/>
<path d="M12.6144 40.0598L8.19318 44.4811C7.7713 44.9029 7.7713 45.5864 8.19318 46.0082C8.40412 46.2192 8.67974 46.3232 8.95818 46.3232C9.2338 46.3232 9.51224 46.2192 9.72318 46.0082L14.1444 41.587C14.5663 41.1651 14.5663 40.4817 14.1444 40.0598C13.7197 39.6379 13.0363 39.6379 12.6144 40.0598Z" fill="#DDDDDF"/>
<path d="M9.71714 8.39038C9.29526 7.96851 8.61179 7.96851 8.18994 8.39038C7.76807 8.81226 7.76807 9.49573 8.18994 9.91757L12.6112 14.3388C12.8221 14.5497 13.0977 14.6538 13.3762 14.6538C13.6518 14.6538 13.9302 14.5497 14.1412 14.3388C14.5631 13.9169 14.5631 13.2335 14.1412 12.8116L9.71714 8.39038Z" fill="#DDDDDF"/>
<path d="M41.3856 40.0598C40.9637 39.6379 40.2802 39.6379 39.8584 40.0598C39.4365 40.4817 39.4365 41.1652 39.8584 41.587L44.2796 46.0082C44.4906 46.2192 44.7662 46.3232 45.0446 46.3232C45.3203 46.3232 45.5987 46.2192 45.8096 46.0082C46.2315 45.5864 46.2315 44.9029 45.8096 44.4811L41.3856 40.0598Z" fill="#DDDDDF"/>
</svg>
