<svg width="32" height="34" viewBox="0 0 32 54" fill="none" xmlns="http://www.w3.org/2000/svg">
<path d="M0.488931 15.4287C0.238616 19.9399 1.94859 24.3243 5.18297 27.4606C7.86332 30.0594 9.39893 33.6396 9.39893 37.2821V39.3268C9.39893 41.2955 10.9993 42.8958 12.968 42.8958H19.0374C21.0061 42.8958 22.6064 41.2955 22.6064 39.3268V37.2849C22.6064 33.5949 24.1054 30.0511 26.7211 27.5592C29.8289 24.5976 31.5389 20.6038 31.5389 16.312C31.5389 7.74548 24.5695 0.775879 16.0027 0.775879C15.4177 0.775879 14.8243 0.809629 14.2365 0.874318C6.81183 1.69555 0.902067 7.95336 0.488787 15.4291L0.488931 15.4287ZM14.4728 3.02019C14.9818 2.96394 15.4965 2.93581 16 2.93581C23.3742 2.93581 29.3761 8.93766 29.3761 16.312C29.3761 20.0076 27.9024 23.4444 25.2277 25.9953C22.1874 28.8921 20.4437 33.0068 20.4437 37.2849V39.3267C20.4437 40.1029 19.8108 40.7357 19.0346 40.7357H12.9652C12.189 40.7357 11.5562 40.1029 11.5562 39.3267V37.282C11.5562 33.0605 9.78154 28.9149 6.68496 25.9111C3.90058 23.2111 2.42962 19.4339 2.64339 15.5496C3.00057 9.11176 8.08558 3.72573 14.473 3.02013L14.4728 3.02019Z" fill="#DDDDDF"/>
<path d="M15.9998 7.25525C18.1682 7.25525 20.2664 8.0371 21.9117 9.45463C22.1142 9.63182 22.3673 9.7162 22.6176 9.7162C22.9213 9.7162 23.2223 9.58963 23.436 9.34213C23.827 8.88932 23.7763 8.20871 23.3235 7.82056C21.2873 6.06275 18.6857 5.09521 15.9997 5.09521C15.4034 5.09521 14.9197 5.57897 14.9197 6.17521C14.9197 6.77146 15.4034 7.25521 15.9997 7.25521L15.9998 7.25525Z" fill="#DDDDDF"/>
<path d="M25.0561 16.3114C25.0561 16.9076 25.5398 17.3914 26.1361 17.3914C26.7323 17.3914 27.2161 16.9076 27.2161 16.3114C27.2161 14.9248 26.9658 13.5692 26.4679 12.2839C26.2542 11.727 25.6298 11.4514 25.0729 11.6651C24.516 11.8789 24.2405 12.5061 24.4542 13.0601C24.8536 14.0979 25.0561 15.192 25.0561 16.3113L25.0561 16.3114Z" fill="#DDDDDF"/>
<path d="M10.7712 46.5406H21.2256C21.8218 46.5406 22.3056 46.0569 22.3056 45.4606C22.3056 44.8644 21.8218 44.3806 21.2256 44.3806H10.7712C10.1749 44.3806 9.69116 44.8644 9.69116 45.4606C9.69116 46.0597 10.1749 46.5406 10.7712 46.5406Z" fill="#DDDDDF"/>
<path d="M10.7712 49.9713H21.2256C21.8218 49.9713 22.3056 49.4875 22.3056 48.8913C22.3056 48.295 21.8218 47.8113 21.2256 47.8113H10.7712C10.1749 47.8113 9.69116 48.295 9.69116 48.8913C9.69116 49.4875 10.1749 49.9713 10.7712 49.9713Z" fill="#DDDDDF"/>
<path d="M19.6929 52.32C19.6929 51.7237 19.2091 51.24 18.6129 51.24H13.3844C12.7882 51.24 12.3044 51.7237 12.3044 52.32C12.3044 52.9162 12.7882 53.4 13.3844 53.4H18.6129C19.2091 53.4 19.6929 52.9162 19.6929 52.32Z" fill="#DDDDDF"/>
</svg>
