<svg width="150" height="14" viewBox="0 0 150 14" fill="none" xmlns="http://www.w3.org/2000/svg">
<path d="M3.42646 7.55C3.70313 7.55 3.94646 7.51333 4.15646 7.44C4.3698 7.36667 4.54813 7.26501 4.69146 7.135C4.83813 7.00167 4.94813 6.84333 5.02146 6.66C5.0948 6.47667 5.13146 6.275 5.13146 6.055C5.13146 5.59833 4.9898 5.24167 4.70646 4.985C4.42646 4.72833 3.9998 4.6 3.42646 4.6H2.27646V7.55H3.42646ZM3.42646 3.835C3.8798 3.835 4.27313 3.88833 4.60646 3.995C4.94313 4.09833 5.22146 4.24667 5.44146 4.44C5.66146 4.63333 5.8248 4.86667 5.93146 5.14C6.04146 5.41333 6.09646 5.71833 6.09646 6.055C6.09646 6.38833 6.03813 6.69333 5.92146 6.97C5.8048 7.24667 5.63313 7.485 5.40646 7.685C5.18313 7.885 4.9048 8.04167 4.57146 8.155C4.24146 8.265 3.8598 8.32 3.42646 8.32H2.27646V11H1.31146V3.835H3.42646ZM14.4373 7.42C14.4373 7.95668 14.3523 8.45 14.1823 8.9C14.0123 9.34667 13.7723 9.73168 13.4623 10.055C13.1523 10.3783 12.779 10.63 12.3423 10.81C11.909 10.9867 11.429 11.075 10.9023 11.075C10.3757 11.075 9.89566 10.9867 9.46232 10.81C9.02899 10.63 8.65732 10.3783 8.34732 10.055C8.03732 9.73168 7.79732 9.34667 7.62732 8.9C7.45732 8.45 7.37232 7.95668 7.37232 7.42C7.37232 6.88333 7.45732 6.39167 7.62732 5.945C7.79732 5.495 8.03732 5.10833 8.34732 4.785C8.65732 4.45833 9.02899 4.205 9.46232 4.025C9.89566 3.845 10.3757 3.755 10.9023 3.755C11.429 3.755 11.909 3.845 12.3423 4.025C12.779 4.205 13.1523 4.45833 13.4623 4.785C13.7723 5.10833 14.0123 5.495 14.1823 5.945C14.3523 6.39167 14.4373 6.88333 14.4373 7.42ZM13.4423 7.42C13.4423 6.98 13.3823 6.585 13.2623 6.235C13.1423 5.885 12.9723 5.59 12.7523 5.35C12.5323 5.10667 12.2657 4.92 11.9523 4.79C11.639 4.66 11.289 4.595 10.9023 4.595C10.519 4.595 10.1707 4.66 9.85732 4.79C9.54399 4.92 9.27566 5.10667 9.05232 5.35C8.83232 5.59 8.66232 5.885 8.54232 6.235C8.42232 6.585 8.36232 6.98 8.36232 7.42C8.36232 7.86 8.42232 8.255 8.54232 8.605C8.66232 8.95167 8.83232 9.24667 9.05232 9.49C9.27566 9.73 9.54399 9.915 9.85732 10.045C10.1707 10.1717 10.519 10.235 10.9023 10.235C11.289 10.235 11.639 10.1717 11.9523 10.045C12.2657 9.915 12.5323 9.73 12.7523 9.49C12.9723 9.24667 13.1423 8.95167 13.2623 8.605C13.3823 8.255 13.4423 7.86 13.4423 7.42ZM25.5027 3.835L23.2677 11H22.3977L20.5827 5.535C20.5661 5.48167 20.5494 5.425 20.5327 5.365C20.5194 5.305 20.5044 5.24167 20.4877 5.175C20.4711 5.24167 20.4544 5.305 20.4377 5.365C20.4211 5.425 20.4044 5.48167 20.3877 5.535L18.5627 11H17.6927L15.4577 3.835H16.2627C16.3494 3.835 16.4211 3.85667 16.4777 3.9C16.5377 3.94333 16.5761 3.99833 16.5927 4.065L18.0727 9.045C18.0961 9.135 18.1177 9.23167 18.1377 9.335C18.1611 9.43833 18.1827 9.54833 18.2027 9.665C18.2261 9.54833 18.2494 9.43833 18.2727 9.335C18.2994 9.22833 18.3277 9.13167 18.3577 9.045L20.0427 4.065C20.0627 4.00833 20.1011 3.95667 20.1577 3.91C20.2177 3.86 20.2894 3.835 20.3727 3.835H20.6527C20.7394 3.835 20.8094 3.85667 20.8627 3.9C20.9161 3.94333 20.9561 3.99833 20.9827 4.065L22.6627 9.045C22.6927 9.13167 22.7194 9.225 22.7427 9.325C22.7694 9.425 22.7944 9.53 22.8177 9.64001C22.8344 9.53 22.8527 9.425 22.8727 9.325C22.8927 9.225 22.9144 9.13167 22.9377 9.045L24.4227 4.065C24.4394 4.005 24.4761 3.95167 24.5327 3.905C24.5927 3.85833 24.6644 3.835 24.7477 3.835H25.5027ZM31.4893 10.21L31.4843 11H27.0693V3.835H31.4843V4.625H28.0393V7.005H30.8293V7.765H28.0393V10.21H31.4893ZM35.3258 7.305C35.6058 7.305 35.8524 7.27167 36.0658 7.205C36.2824 7.135 36.4624 7.03833 36.6058 6.915C36.7524 6.78833 36.8624 6.63833 36.9358 6.465C37.0091 6.29167 37.0458 6.1 37.0458 5.89C37.0458 5.46333 36.9058 5.14167 36.6258 4.925C36.3458 4.70833 35.9258 4.6 35.3658 4.6H34.3058V7.305H35.3258ZM38.6358 11H37.7758C37.5991 11 37.4691 10.9317 37.3858 10.795L35.5258 8.235C35.4691 8.155 35.4074 8.09833 35.3408 8.065C35.2774 8.02833 35.1774 8.01 35.0408 8.01H34.3058V11H33.3408V3.835H35.3658C35.8191 3.835 36.2108 3.88167 36.5408 3.975C36.8708 4.065 37.1424 4.19667 37.3558 4.37C37.5724 4.54333 37.7324 4.75333 37.8358 5C37.9391 5.24333 37.9908 5.51667 37.9908 5.82C37.9908 6.07333 37.9508 6.31 37.8708 6.53C37.7908 6.75001 37.6741 6.94833 37.5208 7.125C37.3708 7.29833 37.1858 7.44667 36.9658 7.57C36.7491 7.69334 36.5024 7.78667 36.2258 7.85C36.3491 7.92 36.4558 8.02167 36.5458 8.155L38.6358 11ZM44.5303 10.21L44.5253 11H40.1103V3.835H44.5253V4.625H41.0803V7.005H43.8703V7.765H41.0803V10.21H44.5303ZM52.5918 7.42C52.5918 7.95668 52.5068 8.445 52.3368 8.885C52.1668 9.32501 51.9268 9.70167 51.6168 10.015C51.3068 10.3283 50.9335 10.5717 50.4968 10.745C50.0635 10.915 49.5835 11 49.0568 11H46.3818V3.835H49.0568C49.5835 3.835 50.0635 3.92167 50.4968 4.095C50.9335 4.265 51.3068 4.50833 51.6168 4.825C51.9268 5.13833 52.1668 5.515 52.3368 5.955C52.5068 6.395 52.5918 6.88333 52.5918 7.42ZM51.5968 7.42C51.5968 6.98 51.5368 6.58667 51.4168 6.24C51.2968 5.89333 51.1268 5.6 50.9068 5.36C50.6868 5.12 50.4201 4.93667 50.1068 4.81C49.7935 4.68333 49.4435 4.62 49.0568 4.62H47.3518V10.215H49.0568C49.4435 10.215 49.7935 10.1517 50.1068 10.025C50.4201 9.89833 50.6868 9.71667 50.9068 9.48C51.1268 9.24 51.2968 8.94668 51.4168 8.60001C51.5368 8.25333 51.5968 7.86 51.5968 7.42ZM60.0628 10.23C60.3395 10.23 60.5778 10.1983 60.7778 10.135C60.9778 10.0717 61.1411 9.98333 61.2678 9.87C61.3978 9.75333 61.4928 9.61667 61.5528 9.46C61.6128 9.3 61.6428 9.12501 61.6428 8.93501C61.6428 8.56501 61.5111 8.27333 61.2478 8.06001C60.9845 7.84334 60.5895 7.735 60.0628 7.735H58.5128V10.23H60.0628ZM58.5128 4.6V7.045H59.7928C60.0661 7.045 60.3028 7.015 60.5028 6.955C60.7061 6.895 60.8728 6.81167 61.0028 6.705C61.1361 6.59833 61.2345 6.47001 61.2978 6.32C61.3611 6.16667 61.3928 6.00001 61.3928 5.82C61.3928 5.39667 61.2661 5.08833 61.0128 4.895C60.7595 4.69833 60.3661 4.6 59.8328 4.6H58.5128ZM59.8328 3.835C60.2728 3.835 60.6511 3.87833 60.9678 3.965C61.2878 4.05167 61.5495 4.175 61.7528 4.335C61.9595 4.495 62.1111 4.69167 62.2078 4.925C62.3045 5.155 62.3528 5.415 62.3528 5.705C62.3528 5.88167 62.3245 6.05167 62.2678 6.215C62.2145 6.37501 62.1328 6.525 62.0228 6.665C61.9128 6.805 61.7728 6.93167 61.6028 7.045C61.4361 7.155 61.2395 7.245 61.0128 7.315C61.5395 7.415 61.9345 7.60333 62.1978 7.88C62.4645 8.15334 62.5978 8.51333 62.5978 8.96C62.5978 9.26333 62.5411 9.54 62.4278 9.79C62.3178 10.04 62.1545 10.255 61.9378 10.435C61.7245 10.615 61.4611 10.755 61.1478 10.855C60.8345 10.9517 60.4778 11 60.0778 11H57.5478V3.835H59.8328ZM66.9683 8.14501V11H65.9983V8.14501L63.3733 3.835H64.2233C64.3099 3.835 64.3783 3.85667 64.4283 3.9C64.4783 3.94 64.5216 3.99333 64.5583 4.06L66.1983 6.845C66.2583 6.96167 66.3133 7.07168 66.3633 7.175C66.4133 7.275 66.4566 7.37667 66.4933 7.48C66.5299 7.37667 66.5716 7.275 66.6183 7.175C66.6649 7.07168 66.7166 6.96167 66.7733 6.845L68.4083 4.06C68.4383 4.00333 68.4799 3.95167 68.5333 3.905C68.5866 3.85833 68.6549 3.835 68.7383 3.835H69.5933L66.9683 8.14501Z" fill="white"/>
<path d="M98.316 5.03688C98.2854 5.08779 98.2514 5.12681 98.214 5.15397C98.18 5.17772 98.1375 5.18961 98.0865 5.18961C98.0287 5.18961 97.9607 5.16077 97.8825 5.10306C97.8043 5.04536 97.7056 4.98259 97.5866 4.9147C97.471 4.84343 97.3299 4.77895 97.1633 4.72125C97.0001 4.66354 96.8011 4.6347 96.5665 4.6347C96.3455 4.6347 96.1499 4.66525 95.9799 4.72634C95.8133 4.78404 95.6722 4.86379 95.5566 4.96561C95.4444 5.06743 95.3593 5.1879 95.3015 5.32706C95.2437 5.46281 95.2148 5.61045 95.2148 5.76997C95.2148 5.97361 95.2641 6.14331 95.3628 6.27906C95.4648 6.41143 95.5974 6.52513 95.7606 6.62015C95.9272 6.71518 96.1142 6.79834 96.3217 6.86961C96.5325 6.9375 96.7467 7.00877 96.9644 7.08343C97.1854 7.15808 97.3996 7.24295 97.607 7.33797C97.8179 7.42961 98.0049 7.5467 98.1681 7.68924C98.3347 7.83179 98.4674 8.00659 98.566 8.21361C98.668 8.42063 98.719 8.67517 98.719 8.97724C98.719 9.29627 98.6646 9.59663 98.5558 9.87833C98.4469 10.1566 98.2871 10.3993 98.0763 10.6063C97.8689 10.8134 97.6121 10.9763 97.3061 11.0951C97.0035 11.2139 96.6583 11.2732 96.2707 11.2732C95.7946 11.2732 95.3628 11.1884 94.9751 11.0187C94.5874 10.8456 94.2559 10.6131 93.9805 10.3212L94.2661 9.85288C94.2933 9.81554 94.3256 9.78499 94.363 9.76124C94.4038 9.73408 94.448 9.72052 94.4956 9.72052C94.5398 9.72052 94.5891 9.73917 94.6435 9.77652C94.7013 9.81045 94.766 9.85459 94.8374 9.90888C94.9088 9.96317 94.9904 10.0226 95.0822 10.0871C95.174 10.1515 95.2777 10.2109 95.3934 10.2652C95.5124 10.3195 95.6467 10.3654 95.7963 10.4027C95.9459 10.4366 96.1142 10.4536 96.3013 10.4536C96.5359 10.4536 96.745 10.4214 96.9287 10.3569C97.1123 10.2924 97.267 10.2024 97.3928 10.0871C97.522 9.96827 97.6206 9.82743 97.6887 9.66452C97.7567 9.50161 97.7907 9.32004 97.7907 9.11979C97.7907 8.89917 97.7397 8.71931 97.6377 8.58015C97.539 8.43761 97.4081 8.31881 97.2449 8.22379C97.0817 8.12877 96.8946 8.04899 96.6838 7.98452C96.473 7.91663 96.2588 7.84877 96.0411 7.78088C95.8235 7.70961 95.6093 7.62815 95.3985 7.53652C95.1876 7.44488 95.0006 7.32608 94.8374 7.18015C94.6742 7.03422 94.5415 6.85263 94.4395 6.63543C94.3409 6.41481 94.2916 6.14331 94.2916 5.82088C94.2916 5.56295 94.3409 5.3135 94.4395 5.07252C94.5415 4.83154 94.6878 4.61772 94.8782 4.43106C95.072 4.24441 95.3083 4.09506 95.5872 3.98306C95.8694 3.87106 96.1925 3.81506 96.5563 3.81506C96.9643 3.81506 97.335 3.87954 97.6682 4.00852C98.0049 4.1375 98.3007 4.32415 98.5558 4.56852L98.316 5.03688Z" fill="white"/>
<path d="M104.878 8.28497V11.1919H103.889V8.28497L101.211 3.89661H102.078C102.166 3.89661 102.236 3.91868 102.287 3.96279C102.338 4.00352 102.382 4.05781 102.42 4.1257L104.093 6.96133C104.154 7.08013 104.21 7.19213 104.261 7.29733C104.312 7.39915 104.356 7.50268 104.394 7.60788C104.431 7.50268 104.474 7.39915 104.521 7.29733C104.569 7.19213 104.621 7.08013 104.679 6.96133L106.347 4.1257C106.378 4.06799 106.42 4.0154 106.475 3.96788C106.529 3.92036 106.599 3.89661 106.684 3.89661H107.556L104.878 8.28497Z" fill="white"/>
<path d="M116.08 3.89661V11.1919H115.585C115.507 11.1919 115.441 11.1783 115.386 11.1512C115.335 11.124 115.284 11.0782 115.233 11.0137L111.005 5.51552C111.012 5.60036 111.017 5.68352 111.02 5.76497C111.024 5.84643 111.025 5.92279 111.025 5.99406V11.1919H110.158V3.89661H110.668C110.712 3.89661 110.75 3.89999 110.78 3.90679C110.811 3.91017 110.838 3.91868 110.862 3.93224C110.886 3.94242 110.91 3.9594 110.934 3.98315C110.957 4.00352 110.983 4.03068 111.01 4.06461L115.238 9.5577C115.232 9.46945 115.225 9.38461 115.218 9.30315C115.214 9.21831 115.213 9.13854 115.213 9.06388V3.89661H116.08Z" fill="white"/>
<path d="M123.743 8.48352L122.596 5.51552C122.562 5.42727 122.526 5.32545 122.489 5.21006C122.451 5.09126 122.415 4.9657 122.382 4.83333C122.31 5.10824 122.237 5.33733 122.162 5.52061L121.015 8.48352H123.743ZM125.804 11.1919H125.039C124.95 11.1919 124.879 11.1698 124.825 11.1257C124.77 11.0816 124.729 11.0256 124.702 10.9577L124.019 9.19624H120.739L120.056 10.9577C120.035 11.0188 119.996 11.0731 119.938 11.1206C119.88 11.1681 119.809 11.1919 119.724 11.1919H118.959L121.882 3.89661H122.881L125.804 11.1919Z" fill="white"/>
<path d="M131.09 7.67915C131.373 7.67915 131.621 7.64181 131.835 7.56715C132.052 7.49249 132.235 7.38897 132.381 7.25661C132.53 7.12086 132.643 6.95963 132.717 6.77297C132.792 6.58631 132.83 6.38097 132.83 6.15697C132.83 5.69199 132.685 5.32886 132.396 5.06752C132.11 4.80617 131.675 4.67552 131.09 4.67552H129.917V7.67915H131.09ZM131.09 3.89661C131.553 3.89661 131.954 3.9509 132.294 4.05952C132.637 4.16472 132.921 4.31577 133.146 4.51261C133.37 4.70945 133.537 4.94704 133.646 5.22533C133.758 5.50363 133.814 5.81417 133.814 6.15697C133.814 6.49636 133.755 6.8069 133.635 7.08861C133.516 7.37031 133.341 7.61297 133.11 7.81661C132.882 8.02024 132.598 8.17977 132.258 8.29515C131.922 8.40715 131.532 8.46315 131.09 8.46315H129.917V11.1919H128.933V3.89661H131.09Z" fill="white"/>
<path d="M141.221 5.03688C141.191 5.08779 141.157 5.12681 141.119 5.15397C141.085 5.17772 141.043 5.18961 140.992 5.18961C140.934 5.18961 140.866 5.16077 140.788 5.10306C140.71 5.04536 140.611 4.98259 140.492 4.9147C140.376 4.84343 140.235 4.77895 140.069 4.72125C139.905 4.66354 139.706 4.6347 139.472 4.6347C139.251 4.6347 139.055 4.66525 138.885 4.72634C138.719 4.78404 138.578 4.86379 138.462 4.96561C138.35 5.06743 138.265 5.1879 138.207 5.32706C138.149 5.46281 138.12 5.61045 138.12 5.76997C138.12 5.97361 138.17 6.14331 138.268 6.27906C138.37 6.41143 138.503 6.52513 138.666 6.62015C138.833 6.71518 139.02 6.79834 139.227 6.86961C139.438 6.9375 139.652 7.00877 139.87 7.08343C140.091 7.15808 140.305 7.24295 140.512 7.33797C140.723 7.42961 140.91 7.5467 141.073 7.68924C141.24 7.83179 141.373 8.00659 141.471 8.21361C141.573 8.42063 141.624 8.67517 141.624 8.97724C141.624 9.29627 141.57 9.59663 141.461 9.87833C141.352 10.1566 141.192 10.3993 140.982 10.6063C140.774 10.8134 140.517 10.9763 140.211 11.0951C139.909 11.2139 139.564 11.2732 139.176 11.2732C138.7 11.2732 138.268 11.1884 137.88 11.0187C137.493 10.8456 137.161 10.6131 136.886 10.3212L137.171 9.85288C137.199 9.81554 137.231 9.78499 137.268 9.76124C137.309 9.73408 137.353 9.72052 137.401 9.72052C137.445 9.72052 137.495 9.73917 137.549 9.77652C137.607 9.81045 137.671 9.85459 137.743 9.90888C137.814 9.96317 137.896 10.0226 137.987 10.0871C138.079 10.1515 138.183 10.2109 138.299 10.2652C138.418 10.3195 138.552 10.3654 138.702 10.4027C138.851 10.4366 139.02 10.4536 139.207 10.4536C139.441 10.4536 139.65 10.4214 139.834 10.3569C140.018 10.2924 140.172 10.2024 140.298 10.0871C140.427 9.96827 140.526 9.82743 140.594 9.66452C140.662 9.50161 140.696 9.32004 140.696 9.11979C140.696 8.89917 140.645 8.71931 140.543 8.58015C140.444 8.43761 140.313 8.31881 140.15 8.22379C139.987 8.12877 139.8 8.04899 139.589 7.98452C139.378 7.91663 139.164 7.84877 138.946 7.78088C138.729 7.70961 138.515 7.62815 138.304 7.53652C138.093 7.44488 137.906 7.32608 137.743 7.18015C137.579 7.03422 137.447 6.85263 137.345 6.63543C137.246 6.41481 137.197 6.14331 137.197 5.82088C137.197 5.56295 137.246 5.3135 137.345 5.07252C137.447 4.83154 137.593 4.61772 137.783 4.43106C137.977 4.24441 138.214 4.09506 138.492 3.98306C138.775 3.87106 139.098 3.81506 139.462 3.81506C139.87 3.81506 140.24 3.87954 140.574 4.00852C140.91 4.1375 141.206 4.32415 141.461 4.56852L141.221 5.03688Z" fill="white"/>
<path d="M149.953 10.3875L149.948 11.1919H145.444V3.89661H149.948V4.70097H146.434V7.12424H149.28V7.89806H146.434V10.3875H149.953Z" fill="white"/>
<path d="M82.9548 3.73486L78.2393 6.45746L78.8059 7.43509L83.5214 4.7125L82.9548 3.73486Z" fill="white"/>
<path d="M83.2948 10.7192L78.5916 8.02124L78.0254 9.0046L82.7286 11.7026L83.2948 10.7192Z" fill="white"/>
<path d="M84.3809 10.0839L84.3832 4.64771L85.515 4.64819L85.5127 10.0844L84.3809 10.0839Z" fill="white"/>
<path fill-rule="evenodd" clip-rule="evenodd" d="M78.2309 9.61015C79.316 8.98354 79.6883 7.60024 79.0625 6.52038C78.4366 5.44055 77.0495 5.07303 75.9644 5.69955C74.8793 6.32606 74.507 7.70936 75.1329 8.78919C75.7588 9.86905 77.1458 10.2367 78.2309 9.61015ZM77.6639 8.63229C78.2067 8.3191 78.3926 7.62737 78.0797 7.08745C77.767 6.54754 77.0735 6.36373 76.5307 6.67705C75.9881 6.99035 75.8022 7.68195 76.1149 8.22186C76.4278 8.76178 77.1214 8.94561 77.6639 8.63229Z" fill="white"/>
<path fill-rule="evenodd" clip-rule="evenodd" d="M86.0747 5.04496C87.1598 4.41834 87.5321 3.03504 86.9062 1.9552C86.2803 0.87535 84.8932 0.507852 83.8082 1.13436C82.7231 1.76086 82.3507 3.14417 82.9766 4.22402C83.6025 5.30386 84.9896 5.6715 86.0747 5.04496ZM85.5079 4.0671C86.0507 3.7539 86.2366 3.0622 85.9237 2.52228C85.611 1.98236 84.9175 1.79854 84.3747 2.11186C83.8321 2.42517 83.6462 3.11675 83.9589 3.65669C84.2718 4.19661 84.9654 4.38042 85.5079 4.0671Z" fill="white"/>
<path fill-rule="evenodd" clip-rule="evenodd" d="M86.0717 5.04672C87.1546 4.41633 87.5262 3.02937 86.9016 1.9488C86.2769 0.868219 84.8927 0.503182 83.8098 1.13345C82.7269 1.76373 82.3553 3.15068 82.9799 4.23125C83.6046 5.31185 84.9888 5.677 86.0717 5.04672ZM85.5061 4.06832C86.0478 3.75324 86.2333 3.05971 85.921 2.51941C85.609 1.97912 84.9168 1.79654 84.3751 2.11174C83.8337 2.42694 83.6482 3.12034 83.9602 3.66064C84.2725 4.20094 84.9647 4.38352 85.5061 4.06832Z" fill="white"/>
<path fill-rule="evenodd" clip-rule="evenodd" d="M83.6734 13.6932C84.7558 14.3139 86.1403 13.9366 86.7657 12.8504C87.3913 11.7643 87.021 10.3806 85.9385 9.75993C84.8562 9.13922 83.4717 9.51656 82.846 10.6027C82.2206 11.6889 82.591 13.0725 83.6734 13.6932ZM84.2397 12.71C84.7809 13.0203 85.4731 12.8316 85.7859 12.2886C86.0987 11.7455 85.9136 11.0537 85.3724 10.7433C84.8312 10.4329 84.1389 10.6216 83.826 11.1646C83.5132 11.7078 83.6985 12.3996 84.2397 12.71Z" fill="white"/>
<path fill-rule="evenodd" clip-rule="evenodd" d="M78.229 9.59576C79.3119 8.96538 79.6834 7.57844 79.0588 6.49786C78.4342 5.41729 77.0499 5.05225 75.967 5.68253C74.8841 6.31278 74.5125 7.69975 75.1371 8.7803C75.7618 9.86089 77.146 10.226 78.229 9.59576ZM77.6633 8.61736C78.205 8.30229 78.3906 7.60875 78.0783 7.06848C77.7662 6.52818 77.0741 6.34559 76.5324 6.6608C75.9909 6.976 75.8054 7.66941 76.1174 8.20968C76.4297 8.74998 77.1219 8.93257 77.6633 8.61736Z" fill="white"/>
</svg>
