<svg height="100%" width="100%" viewBox="0 0 1152 259" fill="none" xmlns="http://www.w3.org/2000/svg">
<mask id="mask0" mask-type="alpha" maskUnits="userSpaceOnUse">
<path fill-rule="evenodd" clip-rule="evenodd" d="M0 259L0 -56L1152 -56V259L0 259Z" fill="url(#paint0_linear)"/>
</mask>
<g mask="url(#mask0)">
<path fill-rule="evenodd" clip-rule="evenodd" d="M0 259L0 0L1152 0V259L0 259Z" fill="url(#paint1_linear)"/>
<g opacity="0.25">
<path opacity="0.25" d="M1163 124L1096.56 130.874C1088.95 131.678 1081.72 133.614 1075.44 136.535L1011.15 166.255C1008.44 167.482 1005.55 168.532 1002.52 169.389L931.297 190.112L926.98 191.527L855.45 218.012C852.606 219.077 849.612 219.957 846.508 220.641L780.065 235.197C775.637 236.16 771.435 237.521 767.578 239.241L731.35 255.314C721.357 259.759 709.262 261.704 697.266 260.795C685.27 259.886 674.17 256.183 665.986 250.361L623.438 220.034L620.971 218.417L575.186 190.112C565.643 184.234 552.987 181.021 539.896 181.153C526.804 181.285 514.305 184.752 505.042 190.82L476.523 209.521C467.083 215.723 454.274 219.214 440.912 219.226H396.205C387.983 219.226 379.885 217.907 372.618 215.384L329.299 200.322C322.033 197.799 313.935 196.48 305.713 196.48C297.49 196.48 289.393 197.799 282.126 200.322L260.698 207.802C251.17 211.102 240.282 212.313 229.628 211.258C218.974 210.202 209.117 206.937 201.5 201.939L164.656 177.779C155.216 171.577 142.407 168.087 129.045 168.075H102.992C93.6384 168.086 84.4744 169.803 76.5246 173.034C68.5748 176.266 62.1527 180.884 57.9767 186.372L-6 270.275V319H1163V124Z" fill="white"/>
<path opacity="0.15" d="M1163 82.549L1127.7 96.1085C1112.22 102.05 1094.02 104.22 1076.31 102.234C1058.61 100.248 1042.57 94.2329 1031.04 85.2609L1009.3 68.3868L1004.68 65.1727L986.64 53.4211C979.273 48.6358 970.474 44.8891 960.79 42.4137C951.106 39.9383 940.744 38.7874 930.348 39.0323C919.953 39.2772 909.745 40.9128 900.361 43.8374C890.977 46.762 882.616 50.9131 875.799 56.0326L854.987 71.6009C852.426 73.512 849.643 75.2917 846.662 76.9243L775.594 116.096L770.97 118.909L749.079 133.272C742.035 137.864 733.672 141.506 724.467 143.991C715.262 146.477 705.395 147.756 695.431 147.756C685.467 147.756 675.6 146.477 666.395 143.991C657.19 141.506 648.827 137.864 641.783 133.272L627.292 123.83C620.796 119.587 613.169 116.15 604.784 113.686L586.439 108.262C572.619 104.225 557.26 102.977 542.341 104.677C527.422 106.378 513.626 110.95 502.73 117.804L422.721 168.125L336.237 224.472C326.972 230.495 315.473 234.854 302.858 237.124C290.242 239.395 276.94 239.5 264.244 237.429L177.143 223.267C159.6 220.407 141.066 221.725 124.882 226.983L-6 269.57V322H1163V82.549Z" fill="white"/>
<path opacity="0.2" d="M-5.51302 271C-5.85708 270.992 -6.18724 270.909 -6.45077 270.765C-6.71431 270.62 -6.89604 270.422 -6.96696 270.202C-7.03788 269.982 -6.99389 269.753 -6.84204 269.551C-6.69018 269.349 -6.43922 269.186 -6.12917 269.088L124.646 226.431C141.144 221.046 160.047 219.69 177.941 222.608L264.97 236.794C277.396 238.789 290.399 238.661 302.728 236.423C315.056 234.186 326.296 229.913 335.364 224.017L421.777 167.576L501.721 117.172C512.805 110.143 526.87 105.454 542.088 103.713C557.306 101.973 572.974 103.262 587.055 107.413L605.385 112.846C613.938 115.359 621.716 118.871 628.336 123.209L642.816 132.666C656.755 141.715 675.61 146.795 695.264 146.795C714.918 146.795 733.773 141.715 747.713 132.666L769.74 118.279L774.515 115.462L845.524 76.2254C848.447 74.6209 851.176 72.8719 853.688 70.9938L874.483 55.3998C881.439 50.1651 889.97 45.9217 899.546 42.9337C909.121 39.9457 919.536 38.277 930.142 38.0317C940.748 37.7863 951.317 38.9694 961.192 41.5074C971.068 44.0454 980.038 47.8839 987.543 52.784L1005.57 64.555L1010.19 67.875L1031.91 84.777C1043.2 93.605 1058.95 99.5097 1076.31 101.428C1093.68 103.346 1111.53 101.152 1126.64 95.24L1161.91 81.6581C1162.25 81.5732 1162.63 81.5697 1162.97 81.6484C1163.31 81.7271 1163.6 81.8827 1163.79 82.0878C1163.97 82.2928 1164.04 82.534 1163.98 82.7685C1163.92 83.0029 1163.73 83.2155 1163.45 83.3685L1128.18 96.9504C1112.42 103.072 1093.83 105.321 1075.76 103.293C1057.69 101.264 1041.32 95.0909 1029.59 85.8836L1007.88 68.9817L1003.41 65.7623L985.387 53.9913C978.179 49.2827 969.564 45.5941 960.079 43.1552C950.593 40.7163 940.44 39.5794 930.252 39.8153C920.064 40.0513 910.06 41.655 900.863 44.5267C891.665 47.3983 883.472 51.4762 876.793 56.5065L855.998 72.1005C853.391 74.05 850.559 75.8662 847.527 77.5333L776.517 116.77L772.05 119.486L750.023 133.873C735.501 143.322 715.839 148.627 695.341 148.627C674.843 148.627 655.181 143.322 640.659 133.873L626.18 124.416C619.828 120.248 612.363 116.872 604.153 114.456L585.823 109.325C572.303 105.335 557.258 104.093 542.644 105.762C528.03 107.43 514.522 111.932 503.877 118.681L423.933 169.085L337.52 225.526C328.072 231.663 316.363 236.109 303.522 238.435C290.681 240.761 277.139 240.888 264.2 238.806L177.171 224.62C160.009 221.809 141.873 223.093 126.032 228.242L-4.74285 270.899L-5.51302 271Z" fill="white"/>
<path opacity="0.1" d="M48.39 271H-6V268.981H48.39C55.6341 268.988 62.8086 268.056 69.4994 266.237C76.1901 264.418 82.2646 261.749 87.3721 258.384L144.227 221.142C147.221 219.198 150.527 217.472 154.088 215.995L221.421 187.836C225.051 186.316 228.927 185.064 232.977 184.102L295.841 169.266C302.209 167.738 308.936 166.952 315.718 166.944H438.057C445.301 166.951 452.475 166.019 459.166 164.2C465.857 162.381 471.931 159.712 477.039 156.347L653.922 40.5839C664.867 33.4408 679.688 29.4301 695.138 29.4301C710.589 29.4301 725.409 33.4408 736.354 40.5839L818.17 94.176C827.376 100.205 839.54 103.907 852.511 104.627C865.482 105.347 878.423 103.04 889.047 98.1122L927.875 80.1472L1000.14 47.346C1003.76 45.6932 1007.07 43.7618 1010 41.5932L1070.86 -3.21834C1079.35 -9.45025 1090.71 -13.7016 1103.22 -15.3296L1162.38 -23L1163 -20.9815L1103.83 -13.311C1091.98 -11.7609 1081.21 -7.72175 1073.17 -1.80537L1012.46 43.0061C1009.35 45.2921 1005.84 47.3252 1001.99 49.0617L929.724 81.8629L890.896 99.727C879.678 104.94 866.005 107.385 852.299 106.627C838.594 105.87 825.739 101.96 816.013 95.589L734.197 41.9969C723.828 35.2236 709.782 31.42 695.138 31.42C680.494 31.42 666.448 35.2236 656.079 41.9969L479.196 157.861C473.788 161.426 467.354 164.253 460.265 166.176C453.176 168.099 445.575 169.081 437.903 169.064H315.564C309.157 169.05 302.796 169.767 296.766 171.183L234.21 185.918C230.376 186.829 226.707 188.014 223.27 189.451L155.937 217.609C152.539 219.029 149.388 220.688 146.539 222.555L89.6833 259.797C84.2758 263.362 77.841 266.189 70.7523 268.112C63.6637 270.035 56.0625 271.017 48.39 271Z" fill="white"/>
<path opacity="0.05" d="M-6 269.529H48.4043C55.8738 269.531 63.2708 268.571 70.1727 266.704C77.0747 264.837 83.3464 262.099 88.6297 258.646L145.5 221.462C148.398 219.562 151.602 217.872 155.055 216.423L222.406 188.308C225.94 186.831 229.713 185.615 233.657 184.681L296.229 169.867C302.407 168.406 308.925 167.656 315.494 167.65H437.866C445.335 167.652 452.732 166.692 459.634 164.825C466.536 162.958 472.808 160.219 478.091 156.767L539.431 116.761L617.415 65.872L655.175 41.1832C665.835 34.2358 680.272 30.3346 695.323 30.3346C710.374 30.3346 724.811 34.2358 735.471 41.1832L773.231 65.872L817.309 94.6924C826.793 100.864 839.302 104.652 852.635 105.389C865.969 106.127 879.273 103.766 890.208 98.7232L929.046 80.786L1001.33 48.0356C1005.06 46.3592 1008.48 44.397 1011.5 42.1909L1072.22 -2.55127C1080.5 -8.63711 1091.6 -12.7792 1103.82 -14.3414L1163 -22V318H-6V269.529Z" fill="white"/>
<path opacity="0.35" d="M-5.71935 271.998C-6.18126 271.994 -6.63076 271.899 -7.00982 271.726C-7.38889 271.553 -7.68013 271.31 -7.84596 271.028C-8.01179 270.745 -8.04461 270.437 -7.94015 270.142C-7.8357 269.847 -7.59877 269.58 -7.25997 269.374L69.463 220.733C71.6544 219.285 73.4751 217.616 74.8552 215.788L148.189 119.819C149.808 117.691 151.941 115.749 154.505 114.067L225.528 67.5449C227.812 66.0666 230.405 64.8093 233.231 63.8111L292.083 42.7199C297.04 40.9356 302.604 40 308.26 40C313.915 40 319.48 40.9356 324.436 42.7199L383.288 63.8111C386.114 64.8093 388.708 66.0666 390.991 67.5449L447.224 104.379C452.01 107.525 458.323 109.479 465.073 109.903C471.823 110.326 478.587 109.194 484.199 106.7L530.726 86.0123C537.584 82.957 545.921 81.6637 554.143 82.3793L614.381 87.6269C618.541 87.9753 622.565 88.831 626.244 90.1498L695.11 114.874C697.936 115.872 700.53 117.129 702.813 118.608L765.979 160.084C769.216 162.187 773.158 163.765 777.491 164.694C781.824 165.622 786.428 165.875 790.937 165.432L844.396 160.084C849.691 159.529 854.649 158.027 858.724 155.744L926.203 118.305C928.753 116.893 931.609 115.737 934.677 114.874L1006.62 94.59L1009.55 93.6818L1078.88 67.9486C1083.95 66.0506 1089.68 65.0426 1095.52 65.0221H1162.69C1163.3 65.0221 1163.89 65.1815 1164.32 65.4654C1164.76 65.7493 1165 66.1343 1165 66.5358C1165 66.9372 1164.76 67.3223 1164.32 67.6061C1163.89 67.89 1163.3 68.0495 1162.69 68.0495H1095.52C1090.44 68.0485 1085.44 68.9182 1081.04 70.5724L1011.86 96.4065L1008.47 97.5165L936.526 117.8C933.906 118.538 931.467 119.524 929.285 120.727L861.805 158.166C857.059 160.785 851.302 162.497 845.167 163.111L791.707 168.46C786.469 168.971 781.12 168.672 776.09 167.586C771.06 166.499 766.489 164.655 762.743 162.203L699.27 120.626C697.307 119.349 695.076 118.262 692.645 117.397L623.779 92.6726C620.63 91.5247 617.182 90.7718 613.611 90.4525L553.373 85.205C546.287 84.5899 539.104 85.7034 533.191 88.3333L486.664 109.021C480.174 111.916 472.346 113.238 464.528 112.76C456.71 112.281 449.392 110.031 443.834 106.397L387.602 69.5632C385.639 68.2861 383.408 67.1987 380.977 66.3339L322.279 45.3437C318.007 43.8067 313.211 43.0009 308.337 43.0009C303.462 43.0009 298.667 43.8067 294.394 45.3437L235.542 66.4349C233.111 67.2997 230.88 68.387 228.918 69.6641L157.895 116.186C155.706 117.635 153.885 119.304 152.503 121.131L79.169 217.1C77.5494 219.228 75.4165 221.17 72.8524 222.852L-3.87061 271.493C-4.10124 271.663 -4.38718 271.796 -4.70721 271.884C-5.02724 271.971 -5.37315 272.01 -5.71935 271.998Z" fill="white"/>
<path opacity="0.1" d="M1095.83 66.0689C1090.38 66.0764 1085.01 67.0167 1080.28 68.7972L1011.26 94.5653L1008.18 95.5758L936.24 115.887C933.391 116.704 930.744 117.794 928.383 119.121L860.91 156.611C856.478 159.074 851.092 160.683 845.351 161.259L791.896 166.615C787.028 167.108 782.053 166.843 777.37 165.842C772.687 164.842 768.428 163.133 764.937 160.855L701.469 119.222C699.375 117.828 696.989 116.637 694.383 115.685L625.523 90.9275C622.126 89.7182 618.418 88.9302 614.585 88.6033L554.352 83.4497C546.715 82.8109 538.985 84.0335 532.631 86.8854L485.954 107.5C479.913 110.205 472.622 111.442 465.339 110.999C458.056 110.557 451.237 108.461 446.056 105.075L389.828 68.191C387.733 66.7974 385.348 65.6065 382.741 64.6542L323.895 43.5345C319.267 41.8716 314.075 41 308.798 41C303.521 41 298.329 41.8716 293.701 43.5345L234.854 64.6542C232.248 65.6065 229.862 66.7974 227.768 68.191L156.751 114.776C154.375 116.343 152.398 118.152 150.898 120.131L77.5703 216.231C76.0694 218.211 74.0929 220.019 71.7164 221.587L-5 270.293V319H1163V66.0689H1095.83Z" fill="white"/>
<path opacity="0.3" d="M-4.22712 271L-7 270.088L56.9302 186.009C61.2147 180.335 67.8284 175.564 76.023 172.234C84.2176 168.904 93.666 167.149 103.299 167.167H129.179C135.995 167.164 142.744 168.048 149.036 169.77C155.329 171.491 161.041 174.015 165.843 177.196L202.66 201.407C210.013 206.28 219.561 209.464 229.884 210.486C240.208 211.508 250.757 210.313 259.966 207.079L281.379 199.583C288.856 196.984 297.185 195.625 305.642 195.625C314.099 195.625 322.428 196.984 329.905 199.583L373.192 214.677C380.217 217.124 388.042 218.411 395.991 218.425H440.974C447.387 218.432 453.738 217.603 459.661 215.986C465.584 214.369 470.961 211.996 475.481 209.004L503.98 190.264C513.484 183.95 526.375 180.339 539.884 180.207C553.392 180.074 566.441 183.43 576.228 189.554L621.981 217.919L624.6 219.641L667.117 250.031C675.07 255.658 685.81 259.237 697.413 260.128C709.015 261.019 720.721 259.163 730.431 254.893L766.633 238.786C770.584 237.022 774.886 235.624 779.419 234.633L846.122 219.945C849.115 219.285 852.004 218.437 854.748 217.412L926.227 190.871L930.695 189.352L1001.86 168.585C1004.79 167.72 1007.57 166.668 1010.18 165.445L1074.42 135.663C1080.9 132.681 1088.33 130.707 1096.14 129.888L1162.54 123L1163 125.026L1096.6 131.914C1089.23 132.691 1082.23 134.561 1076.12 137.385L1011.88 167.167C1009.12 168.432 1006.18 169.518 1003.1 170.409L931.927 191.175L927.614 192.593L856.289 219.235C853.351 220.343 850.255 221.259 847.046 221.971L780.497 236.457C776.234 237.403 772.191 238.733 768.481 240.407L732.28 256.514C721.958 261.058 709.51 263.035 697.172 262.088C684.834 261.141 673.414 257.333 664.961 251.348L622.443 220.958L619.978 219.337L574.226 190.973C564.996 185.244 552.729 182.112 540.039 182.244C527.349 182.377 515.239 185.763 506.29 191.682L477.791 210.422C472.99 213.603 467.278 216.127 460.985 217.848C454.692 219.57 447.943 220.454 441.128 220.451H396.454C387.972 220.457 379.617 219.101 372.114 216.5L328.826 201.407C321.78 198.95 313.926 197.665 305.95 197.665C297.974 197.665 290.12 198.95 283.074 201.407L261.661 208.903C251.87 212.358 240.643 213.643 229.652 212.566C218.661 211.49 208.492 208.109 200.658 202.926L163.84 178.715C159.32 175.723 153.944 173.35 148.021 171.733C142.098 170.116 135.746 169.287 129.333 169.294H103.453C94.3681 169.26 85.451 170.903 77.7165 174.037C69.982 177.171 63.7407 181.67 59.7031 187.022L-4.22712 271Z" fill="white"/>
</g>
<g opacity="0.5">
<path d="M989.217 224H909.569C903.24 224 898.092 218.85 898.092 212.521V52.4793C898.092 46.15 903.24 41 909.569 41H989.217C995.545 41 1000.7 46.15 1000.7 52.4793V212.521C1000.7 218.85 995.545 224 989.217 224ZM909.569 43.5112C904.624 43.5112 900.603 47.5341 900.603 52.4793V212.521C900.603 217.465 904.624 221.489 909.569 221.489H989.217C994.161 221.489 998.185 217.466 998.185 212.521V52.4793C998.185 47.5341 994.161 43.5112 989.217 43.5112H909.569Z" fill="white"/>
<path d="M986.507 194.806H912.279V55.8438H986.507V194.806ZM914.789 192.295H983.995V58.3559H914.789V192.295Z" fill="white"/>
<path d="M961.294 212.973H937.496C934.831 212.973 932.669 210.809 932.669 208.149C932.669 205.487 934.832 203.323 937.496 203.323H961.294C963.952 203.323 966.118 205.487 966.118 208.149C966.118 210.809 963.952 212.973 961.294 212.973ZM937.495 205.835C936.217 205.835 935.179 206.872 935.179 208.149C935.179 209.424 936.217 210.462 937.495 210.462H961.293C962.567 210.462 963.607 209.424 963.607 208.149C963.607 206.872 962.567 205.835 961.293 205.835H937.495Z" fill="white"/>
<path d="M983.281 206.892H974.367C973.673 206.892 973.111 207.454 973.111 208.148C973.111 208.842 973.673 209.404 974.367 209.404H983.281C983.975 209.404 984.537 208.842 984.537 208.148C984.537 207.454 983.975 206.892 983.281 206.892Z" fill="white"/>
<path d="M924.418 206.892H915.508C914.814 206.892 914.251 207.454 914.251 208.148C914.251 208.842 914.814 209.404 915.508 209.404H924.418C925.112 209.404 925.674 208.842 925.674 208.148C925.674 207.454 925.112 206.892 924.418 206.892Z" fill="white"/>
</g>
<g opacity="0.5">
<path d="M1015.03 171.671H1011.51C1010.42 171.671 1009.51 170.557 1009.51 169.212V158.493C1009.51 157.148 1010.42 156.034 1011.51 156.034H1015.72" stroke="white" stroke-width="2" stroke-miterlimit="10" stroke-linecap="round" stroke-linejoin="round"/>
<path d="M1074.82 131.247L1074.82 108.178C1074.82 107.074 1073.93 106.178 1072.82 106.178L1036.71 106.178C1035.61 106.178 1034.71 107.074 1034.71 108.178L1034.71 131.057" stroke="white" stroke-width="3"/>
<path d="M1074.82 131.247L1074.82 108.178C1074.82 107.074 1073.93 106.178 1072.82 106.178L1036.71 106.178C1035.61 106.178 1034.71 107.074 1034.71 108.178L1034.71 131.057" stroke="white" stroke-width="3"/>
<path d="M1033.92 198.369V220.588C1033.92 221.692 1034.82 222.588 1035.92 222.588H1072.92C1074.03 222.588 1074.92 221.692 1074.92 220.588V198.652" stroke="white" stroke-width="3"/>
<path d="M1033.92 198.369V220.588C1033.92 221.692 1034.82 222.588 1035.92 222.588H1072.92C1074.03 222.588 1074.92 221.692 1074.92 220.588V198.652" stroke="white" stroke-width="3"/>
<path d="M1054.55 126.476C1075.84 126.476 1093.11 143.753 1093.11 165.035C1093.11 186.317 1075.84 203.594 1054.55 203.594C1033.27 203.594 1016 186.317 1016 165.035C1016 143.715 1033.23 126.476 1054.55 126.476ZM1054.55 124.569C1032.24 124.569 1014.09 142.724 1014.09 165.035C1014.09 187.347 1032.24 205.501 1054.55 205.501C1065.35 205.501 1075.53 201.306 1083.16 193.64C1090.79 186.012 1095.02 175.829 1095.02 165.035C1094.98 142.724 1076.83 124.569 1054.55 124.569Z" fill="white"/>
<path d="M1054.55 126.476C1075.84 126.476 1093.11 143.753 1093.11 165.035C1093.11 186.317 1075.84 203.594 1054.55 203.594C1033.27 203.594 1016 186.317 1016 165.035C1016 143.715 1033.23 126.476 1054.55 126.476ZM1054.55 124.569C1032.24 124.569 1014.09 142.724 1014.09 165.035C1014.09 187.347 1032.24 205.501 1054.55 205.501C1065.35 205.501 1075.53 201.306 1083.16 193.64C1090.79 186.012 1095.02 175.829 1095.02 165.035C1094.98 142.724 1076.83 124.569 1054.55 124.569Z" stroke="white"/>
<path d="M1054.55 133.761C1071.79 133.761 1085.79 147.759 1085.79 164.998C1085.79 182.275 1071.79 196.234 1054.55 196.234C1037.32 196.234 1023.32 182.237 1023.32 164.998C1023.28 147.759 1037.28 133.761 1054.55 133.761ZM1054.55 131.854C1036.29 131.854 1021.41 146.729 1021.41 164.998C1021.41 183.266 1036.29 198.141 1054.55 198.141C1072.82 198.141 1087.7 183.266 1087.7 164.998C1087.7 146.729 1072.82 131.854 1054.55 131.854Z" fill="white"/>
<path fill-rule="evenodd" clip-rule="evenodd" d="M1074.6 158.78C1072.58 146.007 1058.94 145.027 1054.2 156.846C1049.17 145.027 1035.76 145.576 1033.67 158.78C1031.59 171.984 1054.2 186.546 1054.2 186.546C1054.2 186.546 1076.62 171.553 1074.6 158.78Z" stroke="white" stroke-width="2" stroke-linejoin="round"/>
<path d="M1030.11 172.337H1036.78C1036.78 172.337 1040.25 169.604 1041.66 169.587C1043.05 169.57 1044.26 170.773 1045.21 172.175C1045.24 172.226 1045.38 172.337 1045.47 172.337C1047.9 172.337 1050.21 172.337 1050.21 172.337L1051.96 175.574L1053.62 148.406L1055.31 178.918L1057.07 172.337H1063.59C1063.59 172.337 1067.19 167.618 1069.01 167.939C1070.84 168.26 1071.97 172.337 1072.2 172.337C1076.13 172.337 1078.92 172.337 1078.92 172.337" stroke="white" stroke-linecap="round"/>
</g>
</g>
<defs>
<linearGradient id="paint0_linear" x1="-1.95507e-05" y1="-39.5174" x2="128.122" y2="283.806" gradientUnits="userSpaceOnUse">
<stop stop-color="#8BB4CE"/>
<stop offset="1" stop-color="#3E7293"/>
</linearGradient>
<linearGradient id="paint1_linear" x1="-1.95507e-05" y1="13.5523" x2="90.6003" y2="291.622" gradientUnits="userSpaceOnUse">
<stop stop-color="#8BB4CE"/>
<stop offset="1" stop-color="#3E7293"/>
</linearGradient>
</defs>
</svg>
