<svg width="1152" height="315" viewBox="0 0 1152 315" fill="none" xmlns="http://www.w3.org/2000/svg">
<mask id="mask0" mask-type="alpha" maskUnits="userSpaceOnUse" x="0" y="0" width="1152" height="315">
<path fill-rule="evenodd" clip-rule="evenodd" d="M0 315L0 0L1152 0V315L0 315Z" fill="url(#paint0_linear)"/>
</mask>
<g mask="url(#mask0)">
<path fill-rule="evenodd" clip-rule="evenodd" d="M0 315L0 0L1152 0V315L0 315Z" fill="url(#paint1_linear)"/>
<g opacity="0.25">
<path opacity="0.25" d="M1163 180L1096.56 186.874C1088.95 187.678 1081.72 189.614 1075.44 192.535L1011.15 222.255C1008.44 223.482 1005.55 224.532 1002.52 225.389L931.297 246.112L926.98 247.527L855.45 274.012C852.606 275.077 849.612 275.957 846.508 276.641L780.065 291.197C775.637 292.16 771.435 293.521 767.578 295.241L731.35 311.314C721.357 315.759 709.262 317.704 697.266 316.795C685.27 315.886 674.17 312.183 665.986 306.361L623.438 276.034L620.971 274.417L575.186 246.112C565.643 240.234 552.987 237.021 539.896 237.153C526.804 237.285 514.305 240.752 505.042 246.82L476.523 265.521C467.083 271.723 454.274 275.214 440.912 275.226H396.205C387.983 275.226 379.885 273.907 372.618 271.384L329.299 256.322C322.033 253.799 313.935 252.48 305.713 252.48C297.49 252.48 289.393 253.799 282.126 256.322L260.698 263.802C251.17 267.102 240.282 268.313 229.628 267.258C218.974 266.202 209.117 262.937 201.5 257.939L164.656 233.779C155.216 227.577 142.407 224.087 129.045 224.075H102.992C93.6384 224.086 84.4744 225.803 76.5246 229.034C68.5748 232.266 62.1527 236.884 57.9767 242.372L-6 326.275V375H1163V180Z" fill="white"/>
<path opacity="0.15" d="M1163 138.549L1127.7 152.109C1112.22 158.05 1094.02 160.22 1076.31 158.234C1058.61 156.248 1042.57 150.233 1031.04 141.261L1009.3 124.387L1004.68 121.173L986.64 109.421C979.273 104.636 970.474 100.889 960.79 98.4137C951.106 95.9383 940.744 94.7874 930.348 95.0323C919.953 95.2772 909.745 96.9128 900.361 99.8374C890.977 102.762 882.616 106.913 875.799 112.033L854.987 127.601C852.426 129.512 849.643 131.292 846.662 132.924L775.594 172.096L770.97 174.909L749.079 189.272C742.035 193.864 733.672 197.506 724.467 199.991C715.262 202.477 705.395 203.756 695.431 203.756C685.467 203.756 675.6 202.477 666.395 199.991C657.19 197.506 648.827 193.864 641.783 189.272L627.292 179.83C620.796 175.587 613.169 172.15 604.784 169.686L586.439 164.262C572.619 160.225 557.26 158.977 542.341 160.677C527.422 162.378 513.626 166.95 502.73 173.804L422.721 224.125L336.237 280.472C326.972 286.495 315.473 290.854 302.858 293.124C290.242 295.395 276.94 295.5 264.244 293.429L177.143 279.267C159.6 276.407 141.066 277.725 124.882 282.983L-6 325.57V378H1163V138.549Z" fill="white"/>
<path opacity="0.2" d="M-5.51302 327C-5.85708 326.992 -6.18724 326.909 -6.45077 326.765C-6.71431 326.62 -6.89604 326.422 -6.96696 326.202C-7.03788 325.982 -6.99389 325.753 -6.84204 325.551C-6.69018 325.349 -6.43922 325.186 -6.12917 325.088L124.646 282.431C141.144 277.046 160.047 275.69 177.941 278.608L264.97 292.794C277.396 294.789 290.399 294.661 302.728 292.423C315.056 290.186 326.296 285.913 335.364 280.017L421.777 223.576L501.721 173.172C512.805 166.143 526.87 161.454 542.088 159.713C557.306 157.973 572.974 159.262 587.055 163.413L605.385 168.846C613.938 171.359 621.716 174.871 628.336 179.209L642.816 188.666C656.755 197.715 675.61 202.795 695.264 202.795C714.918 202.795 733.773 197.715 747.713 188.666L769.74 174.279L774.515 171.462L845.524 132.225C848.447 130.621 851.176 128.872 853.688 126.994L874.483 111.4C881.439 106.165 889.97 101.922 899.546 98.9337C909.121 95.9457 919.536 94.277 930.142 94.0317C940.748 93.7863 951.317 94.9694 961.192 97.5074C971.068 100.045 980.038 103.884 987.543 108.784L1005.57 120.555L1010.19 123.875L1031.91 140.777C1043.2 149.605 1058.95 155.51 1076.31 157.428C1093.68 159.346 1111.53 157.152 1126.64 151.24L1161.91 137.658C1162.25 137.573 1162.63 137.57 1162.97 137.648C1163.31 137.727 1163.6 137.883 1163.79 138.088C1163.97 138.293 1164.04 138.534 1163.98 138.768C1163.92 139.003 1163.73 139.216 1163.45 139.368L1128.18 152.95C1112.42 159.072 1093.83 161.321 1075.76 159.293C1057.69 157.264 1041.32 151.091 1029.59 141.884L1007.88 124.982L1003.41 121.762L985.387 109.991C978.179 105.283 969.564 101.594 960.079 99.1552C950.593 96.7163 940.44 95.5794 930.252 95.8153C920.064 96.0513 910.06 97.655 900.863 100.527C891.665 103.398 883.472 107.476 876.793 112.506L855.998 128.101C853.391 130.05 850.559 131.866 847.527 133.533L776.517 172.77L772.05 175.486L750.023 189.873C735.501 199.322 715.839 204.627 695.341 204.627C674.843 204.627 655.181 199.322 640.659 189.873L626.18 180.416C619.828 176.248 612.363 172.872 604.153 170.456L585.823 165.325C572.303 161.335 557.258 160.093 542.644 161.762C528.03 163.43 514.522 167.932 503.877 174.681L423.933 225.085L337.52 281.526C328.072 287.663 316.363 292.109 303.522 294.435C290.681 296.761 277.139 296.888 264.2 294.806L177.171 280.62C160.009 277.809 141.873 279.093 126.032 284.242L-4.74285 326.899L-5.51302 327Z" fill="white"/>
<path opacity="0.1" d="M48.39 327H-6V324.981H48.39C55.6341 324.988 62.8086 324.056 69.4994 322.237C76.1901 320.418 82.2646 317.749 87.3721 314.384L144.227 277.142C147.221 275.198 150.527 273.472 154.088 271.995L221.421 243.836C225.051 242.316 228.927 241.064 232.977 240.102L295.841 225.266C302.209 223.738 308.936 222.952 315.718 222.944H438.057C445.301 222.951 452.475 222.019 459.166 220.2C465.857 218.381 471.931 215.712 477.039 212.347L653.922 96.5839C664.867 89.4408 679.688 85.4301 695.138 85.4301C710.589 85.4301 725.409 89.4408 736.354 96.5839L818.17 150.176C827.376 156.205 839.54 159.907 852.511 160.627C865.482 161.347 878.423 159.04 889.047 154.112L927.875 136.147L1000.14 103.346C1003.76 101.693 1007.07 99.7618 1010 97.5932L1070.86 52.7817C1079.35 46.5497 1090.71 42.2984 1103.22 40.6704L1162.38 33L1163 35.0185L1103.83 42.689C1091.98 44.2391 1081.21 48.2783 1073.17 54.1946L1012.46 99.0061C1009.35 101.292 1005.84 103.325 1001.99 105.062L929.724 137.863L890.896 155.727C879.678 160.94 866.005 163.385 852.299 162.627C838.594 161.87 825.739 157.96 816.013 151.589L734.197 97.9969C723.828 91.2236 709.782 87.42 695.138 87.42C680.494 87.42 666.448 91.2236 656.079 97.9969L479.196 213.861C473.788 217.426 467.354 220.253 460.265 222.176C453.176 224.099 445.575 225.081 437.903 225.064H315.564C309.157 225.05 302.796 225.767 296.766 227.183L234.21 241.918C230.376 242.829 226.707 244.014 223.27 245.451L155.937 273.609C152.539 275.029 149.388 276.688 146.539 278.555L89.6833 315.797C84.2758 319.362 77.841 322.189 70.7523 324.112C63.6637 326.035 56.0625 327.017 48.39 327Z" fill="white"/>
<path opacity="0.05" d="M-6 325.529H48.4043C55.8738 325.531 63.2708 324.571 70.1727 322.704C77.0747 320.837 83.3464 318.099 88.6297 314.646L145.5 277.462C148.398 275.562 151.602 273.872 155.055 272.423L222.406 244.308C225.94 242.831 229.713 241.615 233.657 240.681L296.229 225.867C302.407 224.406 308.925 223.656 315.494 223.65H437.866C445.335 223.652 452.732 222.692 459.634 220.825C466.536 218.958 472.808 216.219 478.091 212.767L539.431 172.761L617.415 121.872L655.175 97.1832C665.835 90.2358 680.272 86.3346 695.323 86.3346C710.374 86.3346 724.811 90.2358 735.471 97.1832L773.231 121.872L817.309 150.692C826.793 156.864 839.302 160.652 852.635 161.389C865.969 162.127 879.273 159.766 890.208 154.723L929.046 136.786L1001.33 104.036C1005.06 102.359 1008.48 100.397 1011.5 98.1909L1072.22 53.4487C1080.5 47.3629 1091.6 43.2208 1103.82 41.6586L1163 34V374H-6V325.529Z" fill="white"/>
<path opacity="0.35" d="M-5.71935 327.998C-6.18126 327.994 -6.63076 327.899 -7.00982 327.726C-7.38889 327.553 -7.68013 327.31 -7.84596 327.028C-8.01179 326.745 -8.04461 326.437 -7.94015 326.142C-7.8357 325.847 -7.59877 325.58 -7.25997 325.374L69.463 276.733C71.6544 275.285 73.4751 273.616 74.8552 271.788L148.189 175.819C149.808 173.691 151.941 171.749 154.505 170.067L225.528 123.545C227.812 122.067 230.405 120.809 233.231 119.811L292.083 98.7199C297.04 96.9356 302.604 96 308.26 96C313.915 96 319.48 96.9356 324.436 98.7199L383.288 119.811C386.114 120.809 388.708 122.067 390.991 123.545L447.224 160.379C452.01 163.525 458.323 165.479 465.073 165.903C471.823 166.326 478.587 165.194 484.199 162.7L530.726 142.012C537.584 138.957 545.921 137.664 554.143 138.379L614.381 143.627C618.541 143.975 622.565 144.831 626.244 146.15L695.11 170.874C697.936 171.872 700.53 173.129 702.813 174.608L765.979 216.084C769.216 218.187 773.158 219.765 777.491 220.694C781.824 221.622 786.428 221.875 790.937 221.432L844.396 216.084C849.691 215.529 854.649 214.027 858.724 211.744L926.203 174.305C928.753 172.893 931.609 171.737 934.677 170.874L1006.62 150.59L1009.55 149.682L1078.88 123.949C1083.95 122.051 1089.68 121.043 1095.52 121.022H1162.69C1163.3 121.022 1163.89 121.182 1164.32 121.465C1164.76 121.749 1165 122.134 1165 122.536C1165 122.937 1164.76 123.322 1164.32 123.606C1163.89 123.89 1163.3 124.049 1162.69 124.049H1095.52C1090.44 124.048 1085.44 124.918 1081.04 126.572L1011.86 152.406L1008.47 153.517L936.526 173.8C933.906 174.538 931.467 175.524 929.285 176.727L861.805 214.166C857.059 216.785 851.302 218.497 845.167 219.111L791.707 224.46C786.469 224.971 781.12 224.672 776.09 223.586C771.06 222.499 766.489 220.655 762.743 218.203L699.27 176.626C697.307 175.349 695.076 174.262 692.645 173.397L623.779 148.673C620.63 147.525 617.182 146.772 613.611 146.453L553.373 141.205C546.287 140.59 539.104 141.703 533.191 144.333L486.664 165.021C480.174 167.916 472.346 169.238 464.528 168.76C456.71 168.281 449.392 166.031 443.834 162.397L387.602 125.563C385.639 124.286 383.408 123.199 380.977 122.334L322.279 101.344C318.007 99.8067 313.211 99.0009 308.337 99.0009C303.462 99.0009 298.667 99.8067 294.394 101.344L235.542 122.435C233.111 123.3 230.88 124.387 228.918 125.664L157.895 172.186C155.706 173.635 153.885 175.304 152.503 177.131L79.169 273.1C77.5494 275.228 75.4165 277.17 72.8524 278.852L-3.87061 327.493C-4.10124 327.663 -4.38718 327.796 -4.70721 327.884C-5.02724 327.971 -5.37315 328.01 -5.71935 327.998Z" fill="white"/>
<path opacity="0.1" d="M1095.83 122.069C1090.38 122.076 1085.01 123.017 1080.28 124.797L1011.26 150.565L1008.18 151.576L936.24 171.887C933.391 172.704 930.744 173.794 928.383 175.121L860.91 212.611C856.478 215.074 851.092 216.683 845.351 217.259L791.896 222.615C787.028 223.108 782.053 222.843 777.37 221.842C772.687 220.842 768.428 219.133 764.937 216.855L701.469 175.222C699.375 173.828 696.989 172.637 694.383 171.685L625.523 146.927C622.126 145.718 618.418 144.93 614.585 144.603L554.352 139.45C546.715 138.811 538.985 140.033 532.631 142.885L485.954 163.5C479.913 166.205 472.622 167.442 465.339 166.999C458.056 166.557 451.237 164.461 446.056 161.075L389.828 124.191C387.733 122.797 385.348 121.607 382.741 120.654L323.895 99.5345C319.267 97.8716 314.075 97 308.798 97C303.521 97 298.329 97.8716 293.701 99.5345L234.854 120.654C232.248 121.607 229.862 122.797 227.768 124.191L156.751 170.776C154.375 172.343 152.398 174.152 150.898 176.131L77.5703 272.231C76.0694 274.211 74.0929 276.019 71.7164 277.587L-5 326.293V375H1163V122.069H1095.83Z" fill="white"/>
<path opacity="0.3" d="M-4.22712 327L-7 326.088L56.9302 242.009C61.2147 236.335 67.8284 231.564 76.023 228.234C84.2176 224.904 93.666 223.149 103.299 223.167H129.179C135.995 223.164 142.744 224.048 149.036 225.77C155.329 227.491 161.041 230.015 165.843 233.196L202.66 257.407C210.013 262.28 219.561 265.464 229.884 266.486C240.208 267.508 250.757 266.313 259.966 263.079L281.379 255.583C288.856 252.984 297.185 251.625 305.642 251.625C314.099 251.625 322.428 252.984 329.905 255.583L373.192 270.677C380.217 273.124 388.042 274.411 395.991 274.425H440.974C447.387 274.432 453.738 273.603 459.661 271.986C465.584 270.369 470.961 267.996 475.481 265.004L503.98 246.264C513.484 239.95 526.375 236.339 539.884 236.207C553.392 236.074 566.441 239.43 576.228 245.554L621.981 273.919L624.6 275.641L667.117 306.031C675.07 311.658 685.81 315.237 697.413 316.128C709.015 317.019 720.721 315.163 730.431 310.893L766.633 294.786C770.584 293.022 774.886 291.624 779.419 290.633L846.122 275.945C849.115 275.285 852.004 274.437 854.748 273.412L926.227 246.871L930.695 245.352L1001.86 224.585C1004.79 223.72 1007.57 222.668 1010.18 221.445L1074.42 191.663C1080.9 188.681 1088.33 186.707 1096.14 185.888L1162.54 179L1163 181.026L1096.6 187.914C1089.23 188.691 1082.23 190.561 1076.12 193.385L1011.88 223.167C1009.12 224.432 1006.18 225.518 1003.1 226.409L931.927 247.175L927.614 248.593L856.289 275.235C853.351 276.343 850.255 277.259 847.046 277.971L780.497 292.457C776.234 293.403 772.191 294.733 768.481 296.407L732.28 312.514C721.958 317.058 709.51 319.035 697.172 318.088C684.834 317.141 673.414 313.333 664.961 307.348L622.443 276.958L619.978 275.337L574.226 246.973C564.996 241.244 552.729 238.112 540.039 238.244C527.349 238.377 515.239 241.763 506.29 247.682L477.791 266.422C472.99 269.603 467.278 272.127 460.985 273.848C454.692 275.57 447.943 276.454 441.128 276.451H396.454C387.972 276.457 379.617 275.101 372.114 272.5L328.826 257.407C321.78 254.95 313.926 253.665 305.95 253.665C297.974 253.665 290.12 254.95 283.074 257.407L261.661 264.903C251.87 268.358 240.643 269.643 229.652 268.566C218.661 267.49 208.492 264.109 200.658 258.926L163.84 234.715C159.32 231.723 153.944 229.35 148.021 227.733C142.098 226.116 135.746 225.287 129.333 225.294H103.453C94.3681 225.26 85.451 226.903 77.7165 230.037C69.982 233.171 63.7407 237.67 59.7031 243.022L-4.22712 327Z" fill="white"/>
</g>
<g opacity="0.5">
<path d="M989.503 294.874H897.288C889.96 294.874 884 288.911 884 281.583V96.2905C884 88.9625 889.96 83 897.288 83H989.503C996.83 83 1002.79 88.9625 1002.79 96.2905V281.583C1002.79 288.911 996.83 294.874 989.503 294.874ZM897.288 85.9074C891.563 85.9074 886.907 90.5651 886.907 96.2905V281.583C886.907 287.308 891.563 291.967 897.288 291.967H989.503C995.227 291.967 999.886 287.309 999.886 281.583V96.2905C999.886 90.5651 995.227 85.9074 989.503 85.9074H897.288Z" fill="white"/>
<path d="M986.365 261.074H900.426V100.186H986.365V261.074ZM903.332 258.167H983.457V103.095H903.332V258.167Z" fill="white"/>
<path d="M957.173 282.107H929.621C926.536 282.107 924.032 279.601 924.032 276.522C924.032 273.44 926.537 270.934 929.621 270.934H957.173C960.252 270.934 962.759 273.44 962.759 276.522C962.759 279.601 960.252 282.107 957.173 282.107ZM929.62 273.843C928.14 273.843 926.939 275.044 926.939 276.522C926.939 277.998 928.14 279.2 929.62 279.2H957.172C958.648 279.2 959.851 277.998 959.851 276.522C959.851 275.044 958.648 273.843 957.172 273.843H929.62Z" fill="white"/>
<path d="M982.63 275.066H972.31C971.507 275.066 970.856 275.717 970.856 276.521C970.856 277.324 971.507 277.975 972.31 277.975H982.63C983.433 277.975 984.084 277.324 984.084 276.521C984.084 275.717 983.433 275.066 982.63 275.066Z" fill="white"/>
<path d="M914.48 275.066H904.163C903.36 275.066 902.709 275.717 902.709 276.521C902.709 277.324 903.36 277.975 904.163 277.975H914.48C915.283 277.975 915.935 277.324 915.935 276.521C915.935 275.717 915.283 275.066 914.48 275.066Z" fill="white"/>
</g>
<g opacity="0.5">
<path d="M1019.39 234.287H1015.31C1014.05 234.287 1013 232.997 1013 231.441V219.03C1013 217.473 1014.05 216.183 1015.31 216.183H1020.19" stroke="white" stroke-width="3" stroke-miterlimit="10" stroke-linecap="round" stroke-linejoin="round"/>
<path d="M1088.95 188.144L1088.95 161C1088.95 159.895 1088.05 159 1086.95 159L1043.48 159C1042.38 159 1041.48 159.895 1041.48 161L1041.48 187.923" stroke="white" stroke-width="3"/>
<path d="M1088.95 188.144L1088.95 161C1088.95 159.895 1088.05 159 1086.95 159L1043.48 159C1042.38 159 1041.48 159.895 1041.48 161L1041.48 187.923" stroke="white" stroke-width="3"/>
<path d="M1041.26 265.197V291.237C1041.26 292.342 1042.16 293.237 1043.26 293.237H1086.73C1087.83 293.237 1088.73 292.342 1088.73 291.237V265.524" stroke="white" stroke-width="3"/>
<path d="M1041.26 265.197V291.237C1041.26 292.342 1042.16 293.237 1043.26 293.237H1086.73C1087.83 293.237 1088.73 292.342 1088.73 291.237V265.524" stroke="white" stroke-width="3"/>
<path d="M1065.15 181.961C1089.79 181.961 1109.79 201.964 1109.79 226.604C1109.79 251.244 1089.79 271.247 1065.15 271.247C1040.51 271.247 1020.51 251.244 1020.51 226.604C1020.51 201.92 1040.47 181.961 1065.15 181.961ZM1065.15 179.753C1039.32 179.753 1018.3 200.772 1018.3 226.604C1018.3 252.436 1039.32 273.455 1065.15 273.455C1077.65 273.455 1089.44 268.597 1098.27 259.722C1107.1 250.89 1112 239.1 1112 226.604C1111.96 200.772 1090.94 179.753 1065.15 179.753Z" fill="white"/>
<path d="M1065.15 181.961C1089.79 181.961 1109.79 201.964 1109.79 226.604C1109.79 251.244 1089.79 271.247 1065.15 271.247C1040.51 271.247 1020.51 251.244 1020.51 226.604C1020.51 201.92 1040.47 181.961 1065.15 181.961ZM1065.15 179.753C1039.32 179.753 1018.3 200.772 1018.3 226.604C1018.3 252.436 1039.32 273.455 1065.15 273.455C1077.65 273.455 1089.44 268.597 1098.27 259.722C1107.1 250.89 1112 239.1 1112 226.604C1111.96 200.772 1090.94 179.753 1065.15 179.753Z" stroke="white"/>
<path d="M1065.15 190.396C1085.11 190.396 1101.31 206.601 1101.31 226.56C1101.31 246.564 1085.11 262.725 1065.15 262.725C1045.19 262.725 1028.98 246.519 1028.98 226.56C1028.94 206.601 1045.15 190.396 1065.15 190.396ZM1065.15 188.188C1044 188.188 1026.78 205.409 1026.78 226.56C1026.78 247.712 1044 264.933 1065.15 264.933C1086.3 264.933 1103.52 247.712 1103.52 226.56C1103.52 205.409 1086.3 188.188 1065.15 188.188Z" fill="white"/>
<path fill-rule="evenodd" clip-rule="evenodd" d="M1088.36 219.362C1086.03 204.574 1070.23 203.44 1064.74 217.123C1058.92 203.44 1043.39 204.075 1040.98 219.362C1038.56 234.65 1064.74 251.509 1064.74 251.509C1064.74 251.509 1090.69 234.151 1088.36 219.362Z" stroke="white" stroke-width="2" stroke-linejoin="round"/>
<path d="M1036.84 235.059H1044.57C1044.57 235.059 1048.59 231.895 1050.22 231.875C1051.84 231.855 1053.23 233.248 1054.33 234.871C1054.37 234.93 1054.53 235.059 1054.63 235.059C1057.44 235.059 1060.12 235.059 1060.12 235.059L1062.15 238.806L1064.07 207.352L1066.03 242.678L1068.06 235.059H1075.61C1075.61 235.059 1079.77 229.595 1081.89 229.966C1084.01 230.338 1085.32 235.059 1085.58 235.059C1090.13 235.059 1093.37 235.059 1093.37 235.059" stroke="white" stroke-width="2" stroke-linecap="round"/>
</g>
</g>
<defs>
<linearGradient id="paint0_linear" x1="-1.95507e-05" y1="16.4826" x2="128.122" y2="339.806" gradientUnits="userSpaceOnUse">
<stop stop-color="#8BB4CE"/>
<stop offset="1" stop-color="#3E7293"/>
</linearGradient>
<linearGradient id="paint1_linear" x1="-1.95507e-05" y1="16.4826" x2="128.122" y2="339.806" gradientUnits="userSpaceOnUse">
<stop stop-color="#8BB4CE"/>
<stop offset="1" stop-color="#3E7293"/>
</linearGradient>
</defs>
</svg>
