<svg viewBox="0 0 16 16" fill="none" xmlns="http://www.w3.org/2000/svg">
<g clip-path="url(#clip0)">
<rect width="16" height="16" fill="white"/>
<path fill-rule="evenodd" clip-rule="evenodd" d="M-1 17L-1 -1L17 -1L17 17L-1 17Z" fill="url(#paint0_linear)"/>
<path d="M6.55944 2C6.51693 2.00048 6.47493 2.00933 6.43584 2.02604C6.39675 2.04275 6.36133 2.067 6.33161 2.0974C6.30189 2.1278 6.27845 2.16376 6.26263 2.20322C6.24681 2.24268 6.23892 2.28487 6.2394 2.32738V13.6591C6.2394 13.7443 6.27322 13.8259 6.33341 13.8861C6.3936 13.9463 6.47524 13.9801 6.56036 13.9801C6.64549 13.9801 6.72712 13.9463 6.78732 13.8861C6.84751 13.8259 6.88132 13.7443 6.88132 13.6591V2.32738C6.88181 2.28472 6.87385 2.24238 6.85792 2.2028C6.84198 2.16322 6.81838 2.12718 6.78846 2.09676C6.75855 2.06633 6.72292 2.04212 6.68361 2.02552C6.64431 2.00891 6.60211 2.00024 6.55944 2V2Z" fill="#4091AA"/>
<path d="M7.78818 8.94112C7.70941 8.93579 7.63169 8.96165 7.57181 9.01312C7.51194 9.06459 7.4747 9.13754 7.46814 9.21623V13.7097C7.47447 13.7885 7.51164 13.8616 7.57157 13.9131C7.6315 13.9646 7.70935 13.9904 7.78818 13.9848C7.86711 13.9904 7.94506 13.9646 8.00514 13.9131C8.06522 13.8616 8.10259 13.7885 8.10914 13.7097V9.21623C8.10236 9.13746 8.06492 9.06451 8.0049 9.01306C7.94488 8.96161 7.86706 8.93578 7.78818 8.94112V8.94112Z" fill="#3FA4B2"/>
<path d="M7.78825 7.91611C7.92702 7.91611 8.03952 7.80361 8.03952 7.66484C8.03952 7.52607 7.92702 7.41357 7.78825 7.41357C7.64948 7.41357 7.53699 7.52607 7.53699 7.66484C7.53699 7.80361 7.64948 7.91611 7.78825 7.91611Z" fill="#3FA4B2"/>
<path d="M7.78818 8.71626C7.96494 8.71626 8.10823 8.57297 8.10823 8.39622C8.10823 8.21946 7.96494 8.07617 7.78818 8.07617C7.61143 8.07617 7.46814 8.21946 7.46814 8.39622C7.46814 8.57297 7.61143 8.71626 7.78818 8.71626Z" fill="#3FA4B2"/>
<path d="M10.2559 13.3467C10.1926 13.3469 10.1308 13.3658 10.0783 13.4011C10.0258 13.4363 9.98495 13.4864 9.96087 13.5449C9.93678 13.6034 9.93058 13.6677 9.94303 13.7297C9.95548 13.7917 9.98604 13.8487 10.0308 13.8934C10.0756 13.938 10.1327 13.9684 10.1947 13.9807C10.2568 13.993 10.3211 13.9866 10.3795 13.9623C10.4379 13.9381 10.4879 13.897 10.523 13.8444C10.5581 13.7918 10.5769 13.73 10.5769 13.6667C10.5769 13.6246 10.5685 13.5829 10.5524 13.544C10.5363 13.5051 10.5126 13.4698 10.4828 13.4401C10.453 13.4104 10.4176 13.3868 10.3787 13.3708C10.3397 13.3547 10.298 13.3466 10.2559 13.3467V13.3467Z" fill="#3DD6C8"/>
<path d="M10.2495 4.47607C10.1625 4.47607 10.079 4.51066 10.0174 4.57223C9.95582 4.6338 9.92123 4.7173 9.92123 4.80437V12.7825C9.91888 12.8271 9.92561 12.8716 9.94103 12.9134C9.95644 12.9552 9.9802 12.9935 10.0109 13.0258C10.0416 13.0582 10.0785 13.0839 10.1194 13.1015C10.1604 13.1191 10.2045 13.1282 10.2491 13.1282C10.2936 13.1282 10.3378 13.1191 10.3787 13.1015C10.4197 13.0839 10.4566 13.0582 10.4873 13.0258C10.5179 12.9935 10.5417 12.9552 10.5571 12.9134C10.5725 12.8716 10.5793 12.8271 10.5769 12.7825V4.80437C10.577 4.7613 10.5687 4.71863 10.5523 4.67881C10.5359 4.63898 10.5118 4.60278 10.4813 4.57229C10.4509 4.54179 10.4148 4.51759 10.375 4.50108C10.3352 4.48457 10.2926 4.47607 10.2495 4.47607V4.47607Z" fill="#3DD6C8"/>
<path d="M5.3206 5.44443C5.45937 5.44443 5.57187 5.33193 5.57187 5.19316C5.57187 5.05439 5.45937 4.94189 5.3206 4.94189C5.18183 4.94189 5.06934 5.05439 5.06934 5.19316C5.06934 5.33193 5.18183 5.44443 5.3206 5.44443Z" fill="#407BA0"/>
<path d="M5.32053 6.24458C5.49729 6.24458 5.64058 6.10129 5.64058 5.92454C5.64058 5.74778 5.49729 5.60449 5.32053 5.60449C5.14378 5.60449 5.00049 5.74778 5.00049 5.92454C5.00049 6.10129 5.14378 6.24458 5.32053 6.24458Z" fill="#407BA0"/>
<path d="M9.04644 11.3623C8.95937 11.3623 8.87586 11.3969 8.8143 11.4585C8.75273 11.52 8.71814 11.6035 8.71814 11.6906V13.6586C8.71814 13.7456 8.75273 13.8291 8.8143 13.8907C8.87586 13.9523 8.95937 13.9869 9.04644 13.9869C9.13351 13.9869 9.21701 13.9523 9.27858 13.8907C9.34015 13.8291 9.37473 13.7456 9.37473 13.6586V11.6906C9.37473 11.6035 9.34015 11.52 9.27858 11.4585C9.21701 11.3969 9.13351 11.3623 9.04644 11.3623Z" fill="#3FBBBD"/>
<path d="M9.04644 6.00391C8.95937 6.00391 8.87586 6.03849 8.8143 6.10006C8.75273 6.16163 8.71814 6.24513 8.71814 6.3322V10.9247C8.71814 11.0118 8.75273 11.0953 8.8143 11.1568C8.87586 11.2184 8.95937 11.253 9.04644 11.253C9.13351 11.253 9.21701 11.2184 9.27858 11.1568C9.34015 11.0953 9.37473 11.0118 9.37473 10.9247V6.3322C9.37473 6.24513 9.34015 6.16163 9.27858 6.10006C9.21701 6.03849 9.13351 6.00391 9.04644 6.00391V6.00391Z" fill="#3FBBBD"/>
<path d="M5.32876 8.19043C5.24169 8.19043 5.15818 8.22502 5.09661 8.28659C5.03505 8.34815 5.00046 8.43166 5.00046 8.51873V13.6541C4.9981 13.6986 5.00484 13.7431 5.02025 13.785C5.03566 13.8268 5.05943 13.865 5.0901 13.8974C5.12078 13.9297 5.15772 13.9555 5.19867 13.9731C5.23962 13.9907 5.28372 13.9997 5.3283 13.9997C5.37287 13.9997 5.41698 13.9907 5.45793 13.9731C5.49888 13.9555 5.53582 13.9297 5.56649 13.8974C5.59717 13.865 5.62093 13.8268 5.63635 13.785C5.65176 13.7431 5.65849 13.6986 5.65614 13.6541V8.51873C5.65626 8.47566 5.64788 8.43299 5.63148 8.39316C5.61508 8.35334 5.59099 8.31714 5.56057 8.28664C5.53016 8.25614 5.49403 8.23195 5.45425 8.21544C5.41447 8.19893 5.37183 8.19043 5.32876 8.19043V8.19043Z" fill="#407BA0"/>
<path d="M5.32876 6.44141C5.24184 6.44141 5.15848 6.47587 5.09694 6.53724C5.0354 6.59861 5.0007 6.68188 5.00046 6.76879V7.75368C4.9981 7.79819 5.00484 7.84271 5.02025 7.88454C5.03566 7.92636 5.05943 7.96461 5.0901 7.99695C5.12078 8.02929 5.15772 8.05504 5.19867 8.07264C5.23962 8.09024 5.28372 8.09932 5.3283 8.09932C5.37287 8.09932 5.41698 8.09024 5.45793 8.07264C5.49888 8.05504 5.53582 8.02929 5.56649 7.99695C5.59717 7.96461 5.62093 7.92636 5.63635 7.88454C5.65176 7.84271 5.65849 7.79819 5.65614 7.75368V6.76879C5.65614 6.68196 5.62164 6.59869 5.56025 6.53729C5.49885 6.4759 5.41558 6.44141 5.32876 6.44141Z" fill="#407BA0"/>
</g>
<defs>
<linearGradient id="paint0_linear" x1="15" y1="0.500001" x2="14.1765" y2="12.1822" gradientUnits="userSpaceOnUse">
<stop stop-color="#387399"/>
<stop offset="1" stop-color="#113F5B"/>
</linearGradient>
<clipPath id="clip0">
<rect width="16" height="16" fill="white"/>
</clipPath>
</defs>
</svg>
