<svg width="189" height="41" viewBox="0 0 189 41" fill="none" xmlns="http://www.w3.org/2000/svg">
<g clip-path="url(#clip0)">
<path d="M34.0571 23.2069C34.0672 23.9482 33.9347 24.6845 33.6667 25.3757C33.4187 26.0101 33.0433 26.5869 32.5637 27.0705C32.0775 27.5521 31.496 27.9268 30.8565 28.1705C30.1512 28.4383 29.4018 28.5707 28.6474 28.5608H24.5699V17.8653H28.6474C29.4021 17.8549 30.1518 17.9885 30.8565 18.2588C31.494 18.5011 32.0734 18.8745 32.5575 19.3549C33.0416 19.8352 33.4195 20.4118 33.6667 21.0473C33.9335 21.7357 34.0661 22.4687 34.0571 23.2069ZM32.0246 23.2069C32.0329 22.6719 31.9534 22.1391 31.7891 21.6298C31.648 21.1945 31.4192 20.7928 31.1168 20.4493C30.8235 20.1241 30.4601 19.8698 30.054 19.7057C29.606 19.5264 29.1268 19.4379 28.6443 19.4455H26.5684V26.9559H28.6443C29.126 26.9674 29.6052 26.8831 30.054 26.708C30.4587 26.5444 30.821 26.2913 31.1137 25.9675C31.4178 25.6248 31.6478 25.2229 31.7891 24.787C31.9537 24.2768 32.0333 23.743 32.0246 23.2069Z" fill="#245879"/>
<path d="M37.7287 18.7574C37.7304 18.9105 37.6976 19.0619 37.6326 19.2005C37.572 19.3366 37.4857 19.4596 37.3785 19.563C37.2715 19.6685 37.1453 19.7526 37.0067 19.8109C36.8618 19.8728 36.7058 19.9044 36.5482 19.9038C36.3936 19.9044 36.2406 19.8728 36.0989 19.8109C35.9627 19.7517 35.8387 19.6677 35.7333 19.563C35.629 19.4592 35.5458 19.3361 35.4886 19.2005C35.4261 19.0612 35.3944 18.9101 35.3956 18.7574C35.3946 18.5998 35.4263 18.4437 35.4886 18.2989C35.5458 18.1614 35.6289 18.0363 35.7333 17.9302C35.8394 17.8263 35.9632 17.7424 36.0989 17.6823C36.2406 17.6204 36.3936 17.5888 36.5482 17.5894C36.7058 17.5888 36.8618 17.6204 37.0067 17.6823C37.1447 17.7417 37.2707 17.8257 37.3785 17.9302C37.4859 18.0358 37.5721 18.161 37.6326 18.2989C37.6973 18.443 37.73 18.5995 37.7287 18.7574ZM37.456 20.9666V28.5483H35.6311V20.9666H37.456Z" fill="#245879"/>
<path d="M42.1376 20.8362C42.4502 20.8323 42.7623 20.8656 43.0671 20.9354C43.3401 20.9972 43.6038 21.0952 43.851 21.2266H46.0198V21.9052C46.0261 22.0018 45.995 22.0972 45.9331 22.1716C45.8469 22.2484 45.7382 22.2952 45.6232 22.3049L44.9416 22.4319C44.9932 22.563 45.0316 22.699 45.0562 22.8378C45.0841 22.9859 45.0976 23.1363 45.0965 23.2871C45.1036 23.6302 45.0309 23.9703 44.8842 24.2806C44.7374 24.5908 44.5205 24.8627 44.2507 25.0748C43.9743 25.2956 43.659 25.4627 43.3211 25.5674C42.9389 25.6856 42.5407 25.7441 42.1407 25.741C41.8609 25.741 41.5818 25.7141 41.3072 25.6604C41.0686 25.8029 40.9509 25.9702 40.9509 26.1437C40.9484 26.2146 40.9671 26.2846 41.0047 26.3448C41.0422 26.4049 41.0968 26.4525 41.1616 26.4815C41.3366 26.5634 41.524 26.6157 41.7162 26.6364C41.9753 26.6665 42.2361 26.681 42.497 26.6798C42.7862 26.6798 43.0836 26.6921 43.3893 26.7169C43.6903 26.741 43.9894 26.7844 44.2847 26.8471C44.5578 26.9021 44.8204 27.0004 45.0624 27.1383C45.2907 27.27 45.4815 27.4576 45.617 27.6836C45.7671 27.9541 45.84 28.2607 45.8277 28.5698C45.8272 28.9116 45.7421 29.248 45.5798 29.5488C45.4042 29.8785 45.1602 30.1669 44.8641 30.3947C44.5182 30.658 44.1293 30.8592 43.7146 30.9896C43.2138 31.148 42.6907 31.2243 42.1655 31.2158C41.6607 31.2233 41.157 31.1681 40.6658 31.0515C40.2932 30.9614 39.9375 30.8118 39.6124 30.6085C39.3581 30.4466 39.1457 30.2268 38.9927 29.9671C38.8576 29.7392 38.7859 29.4792 38.7851 29.2142C38.771 28.8872 38.8818 28.5671 39.095 28.3188C39.3441 28.0561 39.6536 27.8583 39.9966 27.7425C39.8143 27.6444 39.6589 27.5028 39.5442 27.3304C39.4247 27.1272 39.3666 26.8936 39.3769 26.6581C39.3773 26.5379 39.3972 26.4186 39.4358 26.3049C39.4781 26.178 39.5386 26.0579 39.6155 25.9485C39.7041 25.8233 39.8082 25.7098 39.9253 25.6108C40.0591 25.4997 40.2058 25.405 40.3622 25.3289C39.9928 25.1365 39.6808 24.8501 39.4575 24.4985C39.2314 24.1356 39.1162 23.7145 39.126 23.2871C39.1199 22.9427 39.194 22.6016 39.3424 22.2908C39.4909 21.98 39.7095 21.708 39.9811 21.4962C40.2654 21.2734 40.5891 21.1062 40.9354 21.0036C41.3256 20.8884 41.7308 20.832 42.1376 20.8362ZM44.1391 28.8672C44.141 28.7323 44.0898 28.6022 43.9966 28.5047C43.8975 28.4012 43.7739 28.3244 43.6372 28.2816C43.4631 28.2239 43.2834 28.1845 43.1012 28.1639C42.8852 28.1384 42.6679 28.126 42.4505 28.1267H41.741C41.5032 28.127 41.2662 28.1 41.0346 28.0461C40.8433 28.1462 40.6738 28.2831 40.5357 28.4489C40.4119 28.5999 40.345 28.7896 40.3467 28.9849C40.3466 29.1154 40.3808 29.2436 40.4459 29.3567C40.5206 29.4851 40.6273 29.5918 40.7557 29.6666C40.9322 29.761 41.1225 29.8269 41.3196 29.8618C41.6006 29.913 41.886 29.9369 42.1717 29.933C42.4727 29.9327 42.7728 29.9005 43.0671 29.837C43.2841 29.7972 43.4933 29.723 43.6867 29.617C43.8317 29.5397 43.9536 29.4253 44.04 29.2855C44.1097 29.1573 44.1449 29.0131 44.1422 28.8672H44.1391ZM42.1376 24.5729C42.3388 24.577 42.5391 24.5455 42.7294 24.4799C42.8857 24.4268 43.0284 24.3401 43.1476 24.2259C43.2577 24.1148 43.3432 23.9817 43.3986 23.8355C43.4557 23.6743 43.484 23.5044 43.4823 23.3335C43.4906 23.1698 43.4652 23.0061 43.4077 22.8526C43.3501 22.6991 43.2616 22.5591 43.1476 22.4412C42.8542 22.2276 42.5005 22.1125 42.1376 22.1125C41.7746 22.1125 41.421 22.2276 41.1275 22.4412C41.0135 22.5591 40.925 22.6991 40.8675 22.8526C40.8099 23.0061 40.7845 23.1698 40.7929 23.3335C40.7914 23.5014 40.8197 23.6682 40.8765 23.8262C40.9318 23.9743 41.0173 24.1094 41.1275 24.2228C41.2476 24.3397 41.3927 24.4277 41.552 24.4799C41.7402 24.5451 41.9384 24.5765 42.1376 24.5729Z" fill="#245879"/>
<path d="M49.3816 18.7575C49.3833 18.9105 49.3505 19.062 49.2855 19.2005C49.2249 19.3366 49.1387 19.4597 49.0315 19.563C48.9232 19.6686 48.796 19.7527 48.6566 19.8109C48.5128 19.8731 48.3577 19.9048 48.2011 19.9039C48.0465 19.9044 47.8935 19.8728 47.7518 19.8109C47.4734 19.6915 47.2516 19.4697 47.1322 19.1912C47.0721 19.0513 47.0415 18.9005 47.0423 18.7482C47.0419 18.5909 47.0724 18.4351 47.1322 18.2896C47.1919 18.1528 47.2759 18.0279 47.38 17.9209C47.4861 17.8171 47.6099 17.7331 47.7456 17.673C47.8873 17.6112 48.0403 17.5795 48.1949 17.5801C48.3515 17.5792 48.5066 17.6109 48.6504 17.673C48.7894 17.7321 48.9164 17.8161 49.0253 17.9209C49.1326 18.0266 49.2188 18.1517 49.2793 18.2896C49.3475 18.4361 49.3824 18.5959 49.3816 18.7575ZM49.1089 20.9666V28.5483H47.284V20.9666H49.1089Z" fill="#245879"/>
<path d="M53.6604 28.666C53.383 28.6835 53.1049 28.643 52.844 28.5469C52.5831 28.4509 52.3452 28.3015 52.1453 28.1083C51.7696 27.6828 51.578 27.1257 51.6124 26.5591V22.336H50.844C50.7504 22.3363 50.6599 22.3021 50.5899 22.24C50.5523 22.2025 50.5232 22.1573 50.5045 22.1076C50.4858 22.0579 50.4779 22.0048 50.4815 21.9518V21.2268L51.7022 21.0254L52.0864 18.9588C52.1005 18.8676 52.1494 18.7854 52.2228 18.7295C52.3007 18.6726 52.3959 18.6441 52.4923 18.649H53.4373V21.0347H55.4327V22.336H53.4373V26.4444C53.4261 26.6443 53.4902 26.8411 53.617 26.9959C53.6758 27.0621 53.7486 27.1145 53.83 27.1493C53.9114 27.1841 53.9995 27.2005 54.088 27.1973C54.1846 27.2006 54.2811 27.187 54.373 27.1571C54.4421 27.1329 54.5094 27.1039 54.5744 27.0703C54.6254 27.0451 54.6751 27.0172 54.7231 26.9867C54.7629 26.9611 54.8091 26.9471 54.8564 26.9464C54.9042 26.9435 54.9514 26.9578 54.9896 26.9867C55.0312 27.0226 55.0686 27.0631 55.1011 27.1075L55.6465 27.9936C55.3775 28.2212 55.0672 28.3948 54.7324 28.5048C54.3858 28.6145 54.024 28.6689 53.6604 28.666Z" fill="#245879"/>
<path d="M62.8316 28.5483H62.0105C61.871 28.5555 61.7317 28.5289 61.6046 28.4708C61.5486 28.4367 61.5 28.3918 61.4617 28.3385C61.4233 28.2853 61.3961 28.2249 61.3816 28.161L61.2204 27.6219C61.041 27.7842 60.8516 27.9353 60.6534 28.0742C60.4742 28.204 60.2822 28.3151 60.0803 28.4057C59.8816 28.4945 59.6738 28.561 59.4606 28.604C59.2164 28.6494 58.9684 28.6712 58.7201 28.6691C58.4199 28.673 58.1209 28.6302 57.8339 28.5421C57.5764 28.463 57.3388 28.3299 57.1368 28.1517C56.9382 27.974 56.7825 27.7537 56.6813 27.5072C56.5671 27.2217 56.5113 26.9162 56.5171 26.6087C56.5211 26.3113 56.5988 26.0196 56.7433 25.7597C56.9258 25.4488 57.1837 25.1888 57.4931 25.0037C57.9267 24.7455 58.3983 24.5573 58.8905 24.446C59.6016 24.2832 60.33 24.2083 61.0593 24.2229V23.7737C61.0949 23.3698 60.985 22.9666 60.7495 22.6366C60.6311 22.5107 60.4865 22.4124 60.3258 22.3487C60.1652 22.2849 59.9925 22.2574 59.82 22.2679C59.57 22.2608 59.3206 22.2964 59.0826 22.3732C58.9036 22.4328 58.7313 22.5107 58.5683 22.6056C58.4226 22.6924 58.2894 22.7698 58.1655 22.838C58.0412 22.9064 57.9014 22.9416 57.7596 22.9402C57.6488 22.9416 57.5403 22.908 57.4497 22.8442C57.3638 22.7804 57.2911 22.7004 57.236 22.6087L56.9044 22.0231C57.7616 21.2316 58.8921 20.8029 60.0586 20.8271C60.4648 20.8206 60.8683 20.8954 61.2452 21.0471C61.5797 21.1825 61.8809 21.3886 62.1283 21.6513C62.3746 21.9195 62.5624 22.2361 62.6798 22.5808C62.8081 22.9621 62.872 23.3621 62.8688 23.7644L62.8316 28.5483ZM59.284 27.4112C59.4577 27.4128 59.6311 27.3962 59.8014 27.3616C59.9559 27.3282 60.1057 27.2762 60.2476 27.2067C60.3907 27.1365 60.5267 27.0524 60.6534 26.9557C60.7898 26.8473 60.9182 26.7292 61.0376 26.6025V25.3353C60.5905 25.3291 60.1436 25.3623 59.7023 25.4344C59.4066 25.4842 59.1183 25.5705 58.844 25.6916C58.6596 25.7703 58.4992 25.8965 58.3793 26.0572C58.2906 26.1914 58.2432 26.3487 58.2429 26.5095C58.2308 26.6396 58.2504 26.7707 58.3001 26.8916C58.3497 27.0125 58.4279 27.1195 58.528 27.2036C58.7503 27.354 59.016 27.427 59.284 27.4112Z" fill="#245879"/>
<path d="M66.5682 17.5674H64.7433V28.548H66.5682V17.5674Z" fill="#245879"/>
<path d="M80.6007 28.5484H78.5991V23.8792H73.5891V28.5484H71.5875V17.8652H73.5891V22.4601H78.5991V17.8652H80.6007V28.5484Z" fill="#245879"/>
<path d="M85.7873 20.8488C86.2375 20.8447 86.6848 20.9224 87.1072 21.0781C87.4979 21.2227 87.8522 21.4511 88.1452 21.7473C88.4448 22.0549 88.6761 22.4223 88.8237 22.8255C88.9942 23.2928 89.0772 23.7875 89.0685 24.2849C89.0699 24.3998 89.0637 24.5147 89.0499 24.6288C89.0432 24.7038 89.0211 24.7766 88.9848 24.8426C88.9549 24.8931 88.9092 24.9323 88.8547 24.9541C88.7883 24.9785 88.7178 24.9901 88.6471 24.9882H83.9655C84.0213 25.7659 84.2288 26.336 84.5852 26.7016C84.7761 26.8906 85.004 27.0382 85.2545 27.1352C85.5051 27.2323 85.7729 27.2766 86.0414 27.2655C86.2994 27.2697 86.5564 27.2341 86.8036 27.1602C86.9979 27.1003 87.1866 27.0236 87.3675 26.9309C87.5255 26.8472 87.6773 26.7729 87.7858 26.7016C87.8926 26.6373 88.0143 26.6021 88.139 26.5993C88.2056 26.5983 88.2714 26.6132 88.3311 26.6427C88.386 26.6747 88.4335 26.718 88.4705 26.7698L89.0034 27.4328C88.8083 27.6651 88.5783 27.8657 88.3218 28.0277C88.0756 28.1865 87.8114 28.3154 87.5348 28.4119C87.2644 28.5073 86.9852 28.5758 86.7013 28.6164C86.4284 28.6555 86.1529 28.6751 85.8772 28.6752C85.3745 28.6801 84.8753 28.5907 84.4055 28.4119C83.9599 28.2434 83.5569 27.979 83.225 27.6373C82.8761 27.2734 82.6071 26.8407 82.4349 26.367C82.2318 25.8039 82.1331 25.2086 82.1436 24.6102C82.1412 24.1125 82.2273 23.6184 82.3977 23.1509C82.5555 22.7103 82.7999 22.3058 83.1165 21.9611C83.439 21.6179 83.8294 21.3457 84.2629 21.1617C84.7435 20.9516 85.2629 20.845 85.7873 20.8488ZM85.8245 22.1563C85.5975 22.1461 85.3708 22.1817 85.1578 22.261C84.9449 22.3403 84.7501 22.4617 84.5852 22.618C84.2603 22.9701 84.0581 23.4179 84.0089 23.8945H87.4387C87.4392 23.6689 87.4069 23.4445 87.3427 23.2283C87.2785 23.0251 87.173 22.8374 87.0329 22.6768C86.8967 22.5155 86.7249 22.3882 86.5309 22.305C86.3091 22.2047 86.068 22.154 85.8245 22.1563Z" fill="#245879"/>
<path d="M96.4952 28.5484H95.6742C95.5346 28.5553 95.3955 28.5288 95.2683 28.471C95.2124 28.4371 95.164 28.3922 95.1261 28.3389C95.0883 28.2856 95.0618 28.2251 95.0483 28.1611L94.8841 27.622C94.7051 27.7836 94.5168 27.9347 94.3202 28.0744C94.1401 28.2029 93.9482 28.3139 93.747 28.4059C93.5483 28.4944 93.3405 28.5609 93.1273 28.6042C92.8842 28.6496 92.6372 28.6714 92.3899 28.6693C92.0887 28.6732 91.7887 28.6304 91.5007 28.5422C91.2356 28.4643 90.9904 28.3301 90.7819 28.1487C90.5833 27.9711 90.4276 27.7508 90.3264 27.5043C90.2133 27.2185 90.1585 26.913 90.1653 26.6058C90.1678 26.3082 90.2456 26.0162 90.3915 25.7568C90.5731 25.4452 90.8312 25.185 91.1413 25.0008C91.5746 24.742 92.0462 24.5538 92.5386 24.4431C93.2497 24.2798 93.9781 24.2049 94.7075 24.22V23.7739C94.743 23.37 94.6331 22.9668 94.3977 22.6368C94.279 22.5112 94.1343 22.4131 93.9738 22.3494C93.8132 22.2857 93.6406 22.258 93.4682 22.2681C93.2171 22.2608 92.9667 22.2964 92.7276 22.3734C92.5497 22.433 92.3783 22.5108 92.2164 22.6058L91.8136 22.8382C91.6862 22.9029 91.5443 22.9339 91.4015 22.928C91.2907 22.9296 91.1822 22.896 91.0917 22.832C91.0042 22.77 90.9312 22.6896 90.8779 22.5965L90.5433 22.0109C91.4018 21.2195 92.5332 20.7909 93.7005 20.8149C94.1068 20.8087 94.5102 20.8835 94.8872 21.0349C95.2209 21.17 95.5212 21.3762 95.7671 21.6391C96.0146 21.9065 96.2025 22.2233 96.3186 22.5686C96.4485 22.9495 96.5124 23.3498 96.5076 23.7522L96.4952 28.5484ZM92.9507 27.4113C93.1245 27.4132 93.2979 27.3966 93.4682 27.3618C93.6226 27.3284 93.7724 27.2764 93.9143 27.2068C94.0589 27.1374 94.1959 27.0533 94.3233 26.9559C94.4628 26.8478 94.5944 26.7298 94.7168 26.6027V25.3354C94.2706 25.3293 93.8248 25.3625 93.3845 25.4346C93.088 25.4848 92.7987 25.5712 92.5231 25.6917C92.339 25.7695 92.1794 25.8959 92.0615 26.0573C91.9532 26.2372 91.909 26.4483 91.936 26.6565C91.963 26.8646 92.0596 27.0575 92.2102 27.2037C92.4281 27.3511 92.6879 27.4239 92.9507 27.4113Z" fill="#245879"/>
<path d="M100.235 17.5674H98.41V28.548H100.235V17.5674Z" fill="#245879"/>
<path d="M104.786 28.666C104.509 28.6837 104.231 28.6432 103.97 28.5472C103.709 28.4512 103.471 28.3016 103.271 28.1083C103.085 27.898 102.941 27.6529 102.85 27.387C102.758 27.1211 102.721 26.8397 102.738 26.5591V22.336H101.97C101.876 22.3369 101.786 22.3026 101.716 22.24C101.678 22.2025 101.649 22.1573 101.631 22.1076C101.612 22.0579 101.604 22.0048 101.608 21.9518V21.2268L102.828 21.0254L103.212 18.9588C103.227 18.8676 103.275 18.7854 103.349 18.7295C103.427 18.6726 103.522 18.6441 103.618 18.649H104.563V21.0347H106.559V22.336H104.563V26.4444C104.551 26.6445 104.615 26.8419 104.743 26.9959C104.802 27.0621 104.875 27.1145 104.956 27.1493C105.037 27.1841 105.126 27.2005 105.214 27.1973C105.311 27.2004 105.407 27.1867 105.499 27.1571C105.567 27.1335 105.634 27.1045 105.697 27.0703C105.75 27.0457 105.8 27.0178 105.849 26.9867C105.889 26.9608 105.935 26.9468 105.982 26.9464C106.03 26.9435 106.077 26.9578 106.116 26.9867C106.157 27.0226 106.195 27.0631 106.227 27.1075L106.772 27.9936C106.503 28.2206 106.193 28.3941 105.858 28.5049C105.512 28.6143 105.15 28.6687 104.786 28.666Z" fill="#245879"/>
<path d="M108.015 28.548V17.5674H109.84V21.7874C110.128 21.5115 110.457 21.2825 110.816 21.1088C111.204 20.9288 111.628 20.8398 112.055 20.8485C112.432 20.8421 112.807 20.9138 113.155 21.0592C113.465 21.1915 113.74 21.3941 113.958 21.651C114.179 21.9179 114.345 22.2266 114.444 22.5588C114.559 22.9363 114.616 23.3292 114.611 23.7238V28.548H112.786V23.7238C112.814 23.3401 112.704 22.9592 112.477 22.6487C112.355 22.5166 112.205 22.4137 112.038 22.3477C111.872 22.2817 111.692 22.2543 111.513 22.2676C111.205 22.2659 110.9 22.3392 110.627 22.4814C110.336 22.6341 110.072 22.8317 109.843 23.067V28.548H108.015Z" fill="#245879"/>
<path d="M128.647 23.318C128.657 24.0568 128.534 24.7914 128.284 25.4868C128.063 26.101 127.716 26.6624 127.265 27.1352C126.824 27.5984 126.286 27.96 125.691 28.1948C125.043 28.443 124.353 28.566 123.659 28.5573H119.844V18.0941H123.659C124.353 18.0859 125.042 18.2078 125.691 18.4535C126.285 18.6841 126.822 19.0403 127.265 19.4977C127.711 19.9716 128.054 20.5329 128.272 21.146C128.527 21.8415 128.654 22.5773 128.647 23.318ZM127.863 23.318C127.871 22.6545 127.766 21.9945 127.553 21.366C127.378 20.8319 127.096 20.3395 126.723 19.9191C126.353 19.523 125.899 19.2149 125.394 19.0175C124.846 18.8048 124.262 18.6996 123.674 18.7076H120.622V27.9345H123.674C124.262 27.9426 124.846 27.8374 125.394 27.6247C125.898 27.426 126.352 27.1181 126.723 26.7231C127.104 26.3046 127.394 25.812 127.575 25.2761C127.781 24.6444 127.878 23.9823 127.863 23.318Z" fill="#777F95"/>
<path d="M135.414 28.5486C135.351 28.5551 135.288 28.5376 135.237 28.4997C135.187 28.4618 135.152 28.4062 135.141 28.3441L135.036 27.4146C134.834 27.6098 134.633 27.7864 134.435 27.9444C134.243 28.0988 134.035 28.2328 133.815 28.3441C133.592 28.4552 133.355 28.5384 133.112 28.5919C132.84 28.6499 132.562 28.6779 132.284 28.6756C132.037 28.6772 131.79 28.6406 131.553 28.5672C131.326 28.4952 131.116 28.3794 130.934 28.2263C130.744 28.0659 130.594 27.8646 130.494 27.6376C130.376 27.3673 130.318 27.0743 130.326 26.7794C130.327 26.4701 130.419 26.168 130.593 25.9119C130.809 25.6149 131.095 25.3764 131.426 25.2178C131.886 24.9942 132.375 24.8357 132.879 24.7469C133.586 24.6168 134.302 24.5474 135.02 24.5393V23.7616C135.055 23.2033 134.9 22.6497 134.58 22.1907C134.421 22.0035 134.22 21.8561 133.994 21.7603C133.767 21.6646 133.521 21.6231 133.276 21.6392C132.968 21.6311 132.661 21.6815 132.371 21.7879C132.154 21.8743 131.946 21.9833 131.752 22.1133C131.604 22.2066 131.463 22.3101 131.33 22.4231C131.26 22.5033 131.163 22.556 131.057 22.5718C131.012 22.5728 130.966 22.5608 130.927 22.5373C130.887 22.5137 130.855 22.4795 130.834 22.4386L130.71 22.2248C131.055 21.8773 131.456 21.5912 131.897 21.379C132.35 21.1772 132.842 21.0767 133.338 21.0846C133.692 21.0769 134.044 21.1412 134.373 21.2736C134.658 21.3908 134.91 21.5758 135.107 21.8127C135.31 22.0625 135.46 22.3515 135.547 22.6617C135.65 23.0233 135.7 23.398 135.696 23.774V28.5486H135.414ZM132.458 28.1582C132.723 28.1606 132.988 28.1294 133.245 28.0652C133.476 28.0058 133.7 27.9194 133.911 27.8081C134.11 27.6956 134.297 27.5627 134.469 27.4115C134.648 27.2596 134.822 27.1016 134.996 26.9157V25.004C134.39 25.0141 133.787 25.0669 133.189 25.1621C132.763 25.2265 132.347 25.3442 131.95 25.5122C131.668 25.6261 131.419 25.8081 131.225 26.042C131.071 26.2418 130.99 26.4873 130.992 26.7391C130.987 26.958 131.028 27.1756 131.113 27.3774C131.183 27.5461 131.288 27.6974 131.423 27.8204C131.558 27.9381 131.716 28.0258 131.888 28.0776C132.073 28.1327 132.265 28.1599 132.458 28.1582Z" fill="#777F95"/>
<path d="M139.916 28.6663C139.704 28.6795 139.492 28.6498 139.293 28.579C139.093 28.5082 138.91 28.3977 138.754 28.2542C138.603 28.0789 138.489 27.8756 138.418 27.6559C138.347 27.4363 138.32 27.2047 138.339 26.9746V21.9521H137.282C137.234 21.9539 137.188 21.9373 137.152 21.9056C137.134 21.8908 137.12 21.8717 137.11 21.8501C137.101 21.8286 137.097 21.8051 137.099 21.7817V21.5091L138.354 21.4192L138.531 18.7887C138.534 18.7439 138.554 18.702 138.586 18.671C138.603 18.6535 138.622 18.6398 138.644 18.6307C138.666 18.6216 138.69 18.6174 138.714 18.6183H139.042V21.4254H141.353V21.9521H139.042V26.9374C139.037 27.1141 139.063 27.2903 139.119 27.4579C139.164 27.5915 139.237 27.714 139.333 27.8173C139.42 27.9086 139.526 27.9795 139.643 28.0249C139.772 28.069 139.907 28.091 140.043 28.09C140.199 28.0939 140.355 28.0676 140.501 28.0125C140.617 27.9675 140.728 27.9114 140.833 27.8452C140.912 27.7926 140.989 27.7358 141.062 27.6748C141.099 27.6341 141.148 27.6069 141.202 27.5973C141.226 27.5997 141.249 27.6076 141.269 27.6205C141.29 27.6335 141.307 27.651 141.319 27.6717L141.511 27.9815C141.312 28.1961 141.069 28.366 140.799 28.4804C140.52 28.6016 140.22 28.6648 139.916 28.6663Z" fill="#777F95"/>
<path d="M147.872 28.5486C147.809 28.5551 147.746 28.5376 147.696 28.4997C147.645 28.4618 147.611 28.4062 147.6 28.3441L147.494 27.4146C147.293 27.6098 147.091 27.7864 146.893 27.9444C146.701 28.0987 146.493 28.2327 146.274 28.3441C146.051 28.4552 145.816 28.5384 145.573 28.5919C145.301 28.6499 145.024 28.6779 144.746 28.6756C144.498 28.6772 144.252 28.6406 144.015 28.5672C143.788 28.4952 143.577 28.3794 143.395 28.2263C143.206 28.0659 143.055 27.8646 142.955 27.6376C142.837 27.3673 142.78 27.0743 142.788 26.7794C142.788 26.4701 142.881 26.168 143.054 25.9119C143.27 25.6157 143.555 25.3773 143.885 25.2178C144.346 24.9947 144.836 24.8362 145.341 24.7469C146.047 24.6168 146.764 24.5474 147.482 24.5393V23.7616C147.517 23.2033 147.362 22.6497 147.042 22.1907C146.883 22.0035 146.682 21.8561 146.455 21.7603C146.229 21.6646 145.983 21.6231 145.738 21.6392C145.429 21.6311 145.122 21.6815 144.833 21.7879C144.615 21.8737 144.407 21.9828 144.213 22.1133C144.066 22.2066 143.925 22.3101 143.792 22.4231C143.721 22.5033 143.625 22.556 143.519 22.5718C143.473 22.5728 143.428 22.5608 143.388 22.5373C143.349 22.5137 143.317 22.4795 143.296 22.4386L143.172 22.2248C143.516 21.8776 143.916 21.5915 144.356 21.379C144.809 21.1772 145.3 21.0767 145.796 21.0846C146.151 21.0769 146.503 21.1412 146.831 21.2736C147.116 21.3908 147.368 21.5758 147.566 21.8127C147.769 22.0625 147.919 22.3515 148.006 22.6617C148.109 23.0233 148.159 23.398 148.154 23.774V28.5486H147.872ZM144.916 28.1582C145.182 28.1606 145.446 28.1294 145.703 28.0652C145.935 28.0058 146.158 27.9194 146.37 27.8081C146.573 27.6956 146.764 27.5627 146.94 27.4115C147.119 27.2596 147.293 27.1016 147.466 26.9157V25.004C146.861 25.0141 146.258 25.0669 145.66 25.1621C145.234 25.2265 144.818 25.3442 144.421 25.5122C144.139 25.6261 143.89 25.8081 143.696 26.042C143.539 26.2406 143.454 26.4862 143.454 26.7391C143.449 26.958 143.49 27.1756 143.575 27.3774C143.644 27.5461 143.75 27.6974 143.885 27.8204C144.02 27.9381 144.178 28.0258 144.349 28.0776C144.533 28.1324 144.725 28.1596 144.916 28.1582Z" fill="#777F95"/>
<path d="M154.552 24.3374V28.5481H153.796V18.0942H156.495C157.734 18.0942 158.645 18.3607 159.284 18.8998C159.6 19.1885 159.849 19.5447 160.009 19.942C160.17 20.3394 160.24 20.7678 160.213 21.1957C160.218 21.6302 160.131 22.0609 159.959 22.4598C159.791 22.8414 159.54 23.1811 159.225 23.4544C158.882 23.7455 158.485 23.9666 158.057 24.1051C157.556 24.2662 157.033 24.3447 156.507 24.3374H154.552ZM154.552 23.7178H156.495C156.916 23.725 157.335 23.6601 157.734 23.5257C158.076 23.412 158.392 23.2319 158.664 22.9958C158.916 22.7781 159.118 22.5086 159.256 22.2058C159.394 21.8871 159.463 21.543 159.46 21.1957C159.482 20.85 159.427 20.5038 159.298 20.1822C159.17 19.8607 158.971 19.5718 158.717 19.3367C158.224 18.9029 157.477 18.686 156.504 18.686H154.562L154.552 23.7178Z" fill="#777F95"/>
<path d="M164.572 21.0689C165.057 21.0607 165.538 21.1524 165.985 21.3384C166.39 21.5098 166.751 21.7716 167.039 22.1037C167.335 22.4534 167.557 22.8591 167.693 23.2966C167.848 23.7981 167.924 24.3208 167.919 24.8458C167.925 25.3708 167.849 25.8937 167.693 26.3949C167.557 26.8314 167.334 27.236 167.039 27.5847C166.751 27.9159 166.391 28.1758 165.985 28.3438C165.076 28.699 164.066 28.699 163.157 28.3438C162.751 28.1742 162.39 27.9147 162.1 27.5847C161.802 27.237 161.579 26.8321 161.443 26.3949C161.287 25.8937 161.21 25.3708 161.217 24.8458C161.211 24.3208 161.288 23.7981 161.443 23.2966C161.578 22.8582 161.802 22.4522 162.1 22.1037C162.391 21.7729 162.752 21.5114 163.157 21.3384C163.605 21.1525 164.087 21.0607 164.572 21.0689ZM164.572 28.0805C164.966 28.0893 165.357 28.0132 165.719 27.8574C166.041 27.7117 166.323 27.4894 166.54 27.2098C166.77 26.9073 166.938 26.5618 167.033 26.1936C167.248 25.3184 167.248 24.4041 167.033 23.529C166.938 23.1589 166.77 22.8113 166.54 22.5065C166.323 22.2255 166.041 22.0012 165.719 21.8527C165.355 21.7015 164.965 21.6236 164.571 21.6236C164.177 21.6236 163.787 21.7015 163.423 21.8527C163.101 22.0012 162.819 22.2255 162.602 22.5065C162.372 22.8118 162.203 23.1592 162.106 23.529C161.887 24.4037 161.887 25.3188 162.106 26.1936C162.203 26.5615 162.372 26.9067 162.602 27.2098C162.819 27.4894 163.101 27.7117 163.423 27.8574C163.785 28.0164 164.177 28.0956 164.572 28.0897V28.0805Z" fill="#777F95"/>
<path d="M169.765 28.5483V21.1958H170.137C170.201 21.1905 170.265 21.2093 170.317 21.2485C170.36 21.2969 170.382 21.3604 170.379 21.4251L170.438 22.9743C170.63 22.4395 170.949 21.9591 171.367 21.5738C171.774 21.2329 172.292 21.0532 172.823 21.0688C173.032 21.0659 173.24 21.0888 173.443 21.137C173.628 21.1837 173.807 21.2524 173.976 21.3415L173.88 21.8279C173.876 21.8636 173.858 21.8962 173.83 21.9189C173.803 21.9415 173.767 21.9522 173.731 21.9487C173.689 21.9445 173.647 21.934 173.607 21.9178L173.403 21.8527C173.301 21.8238 173.197 21.801 173.093 21.7845C172.959 21.7646 172.823 21.7552 172.687 21.7566C172.439 21.7503 172.192 21.793 171.961 21.8823C171.73 21.9717 171.518 22.1058 171.339 22.2772C170.936 22.698 170.638 23.2088 170.472 23.7675V28.5483H169.765Z" fill="#777F95"/>
<path d="M177.635 28.6659C177.424 28.6788 177.213 28.649 177.014 28.5782C176.815 28.5074 176.632 28.397 176.476 28.2538C176.326 28.0785 176.212 27.8752 176.141 27.6555C176.069 27.4359 176.042 27.2043 176.061 26.9741V21.9517H175.005C174.956 21.9534 174.908 21.9368 174.871 21.9052C174.854 21.8897 174.841 21.8705 174.832 21.849C174.824 21.8275 174.82 21.8044 174.822 21.7813V21.5086L176.061 21.4188L176.238 18.7883C176.242 18.7442 176.26 18.7027 176.29 18.6705C176.307 18.6529 176.327 18.639 176.35 18.6299C176.372 18.6208 176.396 18.6167 176.421 18.6179H176.749V21.425H179.085V21.9517H176.774V26.937C176.769 27.1137 176.795 27.2898 176.851 27.4575C176.894 27.592 176.967 27.7149 177.065 27.8169C177.151 27.9088 177.257 27.9798 177.375 28.0245C177.502 28.0689 177.637 28.0909 177.771 28.0896C177.928 28.0941 178.084 28.0678 178.23 28.0121C178.347 27.967 178.459 27.911 178.565 27.8448C178.644 27.7922 178.721 27.7353 178.794 27.6744C178.83 27.6337 178.88 27.6064 178.933 27.5969C178.957 27.5995 178.98 27.6075 179.001 27.6204C179.021 27.6333 179.038 27.6507 179.051 27.6713L179.243 27.9811C179.043 28.1956 178.801 28.3656 178.531 28.48C178.248 28.6024 177.943 28.6657 177.635 28.6659Z" fill="#777F95"/>
<path d="M185.592 28.5485C185.529 28.5551 185.465 28.5378 185.414 28.4999C185.363 28.462 185.328 28.4064 185.316 28.344L185.214 27.4145C185.012 27.6097 184.811 27.7863 184.613 27.9443C184.42 28.098 184.212 28.2319 183.993 28.344C183.771 28.4551 183.535 28.5384 183.293 28.5919C183.02 28.6497 182.741 28.6777 182.462 28.6756C182.215 28.6769 181.968 28.6404 181.731 28.5671C181.504 28.4955 181.294 28.3796 181.111 28.2263C180.922 28.0658 180.772 27.8646 180.671 27.6376C180.553 27.3673 180.496 27.0743 180.504 26.7794C180.504 26.4701 180.597 26.1679 180.771 25.9118C180.986 25.6157 181.271 25.3773 181.601 25.2178C182.062 24.9942 182.552 24.8357 183.057 24.7468C183.763 24.617 184.478 24.5475 185.195 24.5392V23.7616C185.231 23.2037 185.077 22.6501 184.758 22.1907C184.599 22.0034 184.398 21.856 184.171 21.7603C183.945 21.6645 183.699 21.623 183.454 21.6392C183.145 21.6317 182.837 21.6821 182.546 21.7879C182.328 21.8734 182.12 21.9825 181.926 22.1132C181.779 22.2066 181.638 22.3101 181.505 22.4231C181.433 22.5035 181.336 22.5561 181.229 22.5718C181.184 22.5725 181.139 22.5604 181.1 22.5369C181.061 22.5133 181.03 22.4792 181.009 22.4386L180.882 22.2248C181.229 21.8773 181.632 21.5913 182.075 21.3789C182.527 21.1718 183.019 21.0661 183.516 21.0691C183.87 21.0607 184.222 21.125 184.551 21.2581C184.835 21.3761 185.086 21.5623 185.282 21.8003C185.484 22.0509 185.634 22.3396 185.722 22.6492C185.822 23.0113 185.871 23.3858 185.867 23.7616V28.5485H185.592ZM182.636 28.1581C182.901 28.1606 183.166 28.1294 183.423 28.0652C183.653 28.0057 183.876 27.9194 184.086 27.808C184.291 27.6965 184.485 27.5636 184.662 27.4114C184.839 27.2596 185.015 27.1016 185.186 26.9157V25.004C184.581 25.0142 183.977 25.067 183.379 25.162C182.953 25.2269 182.537 25.3445 182.14 25.5121C181.86 25.6273 181.612 25.8092 181.418 26.042C181.264 26.2415 181.181 26.4869 181.183 26.7391C181.178 26.9582 181.221 27.1758 181.307 27.3773C181.377 27.5454 181.483 27.6964 181.617 27.8204C181.753 27.9375 181.912 28.0251 182.084 28.0776C182.264 28.1312 182.451 28.1583 182.639 28.1581H182.636Z" fill="#777F95"/>
<path d="M189 17.7969H188.297V28.5482H189V17.7969Z" fill="#777F95"/>
<path d="M5.26707 0C5.12344 0.00161834 4.98153 0.0315136 4.84945 0.0879787C4.71737 0.144444 4.59771 0.226373 4.4973 0.329087C4.39689 0.431801 4.31769 0.553288 4.26423 0.686612C4.21078 0.819935 4.1841 0.962483 4.18574 1.10611V39.3926C4.18574 39.6802 4.29999 39.956 4.50336 40.1594C4.70673 40.3627 4.98256 40.477 5.27017 40.477C5.55777 40.477 5.8336 40.3627 6.03697 40.1594C6.24034 39.956 6.35459 39.6802 6.35459 39.3926V1.10611C6.35623 0.961966 6.32935 0.818915 6.27551 0.68519C6.22166 0.551465 6.14191 0.429704 6.04085 0.326908C5.93978 0.224112 5.81939 0.142311 5.68659 0.0862081C5.5538 0.0301051 5.41122 0.00080748 5.26707 0V0Z" fill="#4091AA"/>
<path d="M9.41891 23.4515C9.15275 23.4335 8.89017 23.5209 8.68787 23.6948C8.48556 23.8687 8.35975 24.1152 8.33759 24.3811V39.563C8.35897 39.8292 8.48456 40.0761 8.68705 40.2502C8.88954 40.4243 9.15256 40.5114 9.41891 40.4925C9.68559 40.5114 9.94896 40.4244 10.1519 40.2504C10.3549 40.0764 10.4812 39.8294 10.5033 39.563V24.3811C10.4804 24.1149 10.3539 23.8685 10.1511 23.6946C9.94833 23.5208 9.68541 23.4335 9.41891 23.4515Z" fill="#3FA4B2"/>
<path d="M9.4189 19.9875C9.88776 19.9875 10.2678 19.6074 10.2678 19.1385C10.2678 18.6696 9.88776 18.2896 9.4189 18.2896C8.95003 18.2896 8.56995 18.6696 8.56995 19.1385C8.56995 19.6074 8.95003 19.9875 9.4189 19.9875Z" fill="#3FA4B2"/>
<path d="M9.41891 22.6924C10.0161 22.6924 10.5002 22.2083 10.5002 21.6111C10.5002 21.0139 10.0161 20.5298 9.41891 20.5298C8.82171 20.5298 8.33759 21.0139 8.33759 21.6111C8.33759 22.2083 8.82171 22.6924 9.41891 22.6924Z" fill="#3FA4B2"/>
<path d="M17.7567 38.1719C17.5421 38.1719 17.3323 38.2356 17.1539 38.3549C16.9755 38.4742 16.8365 38.6437 16.7545 38.842C16.6725 39.0404 16.6512 39.2586 16.6933 39.469C16.7354 39.6794 16.839 39.8727 16.991 40.0242C17.1429 40.1757 17.3364 40.2788 17.547 40.3203C17.7576 40.3618 17.9757 40.3398 18.1738 40.2573C18.3719 40.1747 18.5411 40.0353 18.6598 39.8565C18.7786 39.6778 18.8417 39.4678 18.8411 39.2532C18.8411 39.1109 18.813 38.9701 18.7585 38.8387C18.7039 38.7073 18.624 38.5879 18.5233 38.4875C18.4225 38.387 18.303 38.3075 18.1714 38.2533C18.0399 38.1991 17.8989 38.1715 17.7567 38.1719Z" fill="#3DD6C8"/>
<path d="M17.7349 8.46777C17.4408 8.46777 17.1586 8.58464 16.9506 8.79265C16.7426 9.00067 16.6257 9.2828 16.6257 9.57699V36.5606C16.6407 36.8442 16.764 37.1113 16.9701 37.3068C17.1761 37.5023 17.4494 37.6112 17.7334 37.6112C18.0174 37.6112 18.2906 37.5023 18.4967 37.3068C18.7028 37.1113 18.8261 36.8442 18.8411 36.5606V9.60487C18.8452 9.45703 18.8197 9.30986 18.7659 9.17206C18.7122 9.03426 18.6314 8.90864 18.5283 8.80262C18.4251 8.69661 18.3018 8.61235 18.1655 8.55483C18.0293 8.49732 17.8828 8.46772 17.7349 8.46777Z" fill="#3DD6C8"/>
<path d="M1.08131 11.7521C1.55017 11.7521 1.93026 11.372 1.93026 10.9031C1.93026 10.4343 1.55017 10.0542 1.08131 10.0542C0.612449 10.0542 0.232361 10.4343 0.232361 10.9031C0.232361 11.372 0.612449 11.7521 1.08131 11.7521Z" fill="#407BA0"/>
<path d="M1.08133 14.4537C1.67853 14.4537 2.16266 13.9695 2.16266 13.3723C2.16266 12.7751 1.67853 12.291 1.08133 12.291C0.484127 12.291 0 12.7751 0 13.3723C0 13.9695 0.484127 14.4537 1.08133 14.4537Z" fill="#407BA0"/>
<path d="M13.6699 31.7456C13.3776 31.7448 13.0969 31.8597 12.8891 32.0652C12.6812 32.2707 12.5632 32.5501 12.5607 32.8424V39.5039C12.5607 39.7981 12.6776 40.0802 12.8856 40.2882C13.0936 40.4963 13.3758 40.6131 13.6699 40.6131C13.9641 40.6131 14.2463 40.4963 14.4543 40.2882C14.6623 40.0802 14.7792 39.7981 14.7792 39.5039V32.8424C14.7767 32.5501 14.6587 32.2707 14.4508 32.0652C14.243 31.8597 13.9622 31.7448 13.6699 31.7456Z" fill="#3FBBBD"/>
<path d="M13.6699 13.6328C13.5244 13.6324 13.3803 13.6607 13.2457 13.7161C13.1111 13.7715 12.9888 13.8529 12.8858 13.9557C12.7828 14.0584 12.701 14.1805 12.6452 14.3149C12.5894 14.4493 12.5607 14.5934 12.5607 14.7389V30.2679C12.5607 30.5621 12.6776 30.8442 12.8856 31.0522C13.0936 31.2603 13.3758 31.3771 13.6699 31.3771C13.9641 31.3771 14.2463 31.2603 14.4543 31.0522C14.6623 30.8442 14.7792 30.5621 14.7792 30.2679V14.7482C14.7804 14.6019 14.7526 14.4568 14.6973 14.3214C14.6421 14.1859 14.5606 14.0627 14.4574 13.959C14.3542 13.8552 14.2315 13.773 14.0963 13.717C13.9612 13.661 13.8162 13.6324 13.6699 13.6328Z" fill="#3FBBBD"/>
<path d="M1.10921 21.0283C0.815031 21.0283 0.532899 21.1452 0.324881 21.3532C0.116863 21.5612 0 21.8433 0 22.1375L0 39.5038C0.0150065 39.7875 0.138251 40.0546 0.344332 40.25C0.550414 40.4455 0.823627 40.5544 1.10766 40.5544C1.3917 40.5544 1.66491 40.4455 1.871 40.25C2.07708 40.0546 2.20032 39.7875 2.21533 39.5038V22.153C2.21738 22.0063 2.1903 21.8607 2.13567 21.7245C2.08104 21.5883 1.99994 21.4644 1.89706 21.3598C1.79419 21.2552 1.67158 21.172 1.53634 21.1151C1.40111 21.0582 1.25593 21.0287 1.10921 21.0283Z" fill="#407BA0"/>
<path d="M1.10911 15.1201C0.963597 15.1197 0.819429 15.148 0.684871 15.2034C0.550313 15.2588 0.42801 15.3402 0.324969 15.443C0.221929 15.5458 0.140176 15.6678 0.0843947 15.8022C0.0286136 15.9366 -9.92718e-05 16.0807 -9.87009e-05 16.2262V19.5508C-0.00805532 19.7012 0.0146957 19.8516 0.0667678 19.9929C0.11884 20.1342 0.199142 20.2634 0.30278 20.3727C0.406419 20.482 0.531222 20.569 0.669583 20.6285C0.807945 20.6879 0.956966 20.7186 1.10757 20.7186C1.25816 20.7186 1.40719 20.6879 1.54555 20.6285C1.68391 20.569 1.80871 20.482 1.91235 20.3727C2.01599 20.2634 2.09629 20.1342 2.14836 19.9929C2.20043 19.8516 2.22319 19.7012 2.21523 19.5508V16.2262C2.21523 15.9329 2.09869 15.6515 1.89126 15.4441C1.68382 15.2367 1.40247 15.1201 1.10911 15.1201Z" fill="#407BA0"/>
</g>
<defs>
<clipPath id="clip0">
<rect width="189" height="40.6102" fill="white"/>
</clipPath>
</defs>
</svg>
