<svg xmlns="http://www.w3.org/2000/svg" viewBox="0 0 509.88 130.71"><defs><style>.cls-1{fill:#245879;}.cls-2{fill:#777f95;}.cls-3{fill:#4091aa;}.cls-4{fill:#3fa4b2;}.cls-5{fill:#3dd6c8;}.cls-6{fill:#407ba0;}.cls-7{fill:#3fbbbd;}</style></defs><g id="Layer_2" data-name="Layer 2"><g id="Layer_1-2" data-name="Layer 1"><path class="cls-1" d="M102.57,79.65a1.54,1.54,0,0,1-1.6-1.14L100.46,76a16.63,16.63,0,0,1-1.71,1.66,11.34,11.34,0,0,1-1.93,1.28,10,10,0,0,1-2.22.82A10.39,10.39,0,0,1,92,80a8.53,8.53,0,0,1-3.92-.9A8.63,8.63,0,0,1,85,76.56a12.41,12.41,0,0,1-2-4.2,21.45,21.45,0,0,1-.7-5.71,18.09,18.09,0,0,1,.79-5.41,13.32,13.32,0,0,1,2.27-4.33A10.57,10.57,0,0,1,89,54a10.18,10.18,0,0,1,4.64-1,9.06,9.06,0,0,1,3.75.7,10.06,10.06,0,0,1,2.78,1.87V41.76h6.29V79.65ZM94.18,75a6.36,6.36,0,0,0,3.34-.82,9.78,9.78,0,0,0,2.61-2.32V60.17a6.25,6.25,0,0,0-2.34-1.83,6.79,6.79,0,0,0-2.71-.54,6,6,0,0,0-2.59.54,5,5,0,0,0-2,1.62,8,8,0,0,0-1.23,2.75,15.74,15.74,0,0,0-.44,3.94,17.88,17.88,0,0,0,.37,3.89,7.71,7.71,0,0,0,1.06,2.6A4,4,0,0,0,92,74.59,5.29,5.29,0,0,0,94.18,75Z"/><path class="cls-1" d="M145.21,79.65H138.3V63.54H121V79.65H114.1V42.78H121V58.64H138.3V42.78h6.91Z"/><path class="cls-1" d="M163.62,53.08a12.82,12.82,0,0,1,4.55.79,10.08,10.08,0,0,1,3.59,2.31,10.54,10.54,0,0,1,2.34,3.72,14.13,14.13,0,0,1,.84,5,9.77,9.77,0,0,1-.06,1.19,1.9,1.9,0,0,1-.23.74.93.93,0,0,1-.45.38,1.79,1.79,0,0,1-.71.11H157.32q.28,4,2.17,5.92a6.75,6.75,0,0,0,5,1.89,8.6,8.6,0,0,0,2.64-.36,12.24,12.24,0,0,0,1.93-.79c.56-.29,1-.55,1.46-.79a2.4,2.4,0,0,1,1.21-.36,1.37,1.37,0,0,1,.66.15,1.57,1.57,0,0,1,.49.44l1.83,2.29a10.59,10.59,0,0,1-2.34,2.06,13.38,13.38,0,0,1-2.72,1.32,14.41,14.41,0,0,1-2.88.7,20.12,20.12,0,0,1-2.84.21,14.1,14.1,0,0,1-5.08-.91,11.28,11.28,0,0,1-4.08-2.68A12.74,12.74,0,0,1,152,72.07a17,17,0,0,1-1-6.06,14.41,14.41,0,0,1,.87-5,12,12,0,0,1,2.48-4.11,11.83,11.83,0,0,1,3.95-2.77A13.07,13.07,0,0,1,163.62,53.08Zm.13,4.52a5.83,5.83,0,0,0-4.31,1.55,7.68,7.68,0,0,0-2,4.41h11.83a7.85,7.85,0,0,0-.33-2.3,5.2,5.2,0,0,0-1-1.9,4.77,4.77,0,0,0-1.73-1.29A5.85,5.85,0,0,0,163.75,57.6Z"/><path class="cls-1" d="M201.08,79.65h-2.83a3,3,0,0,1-1.4-.26,1.73,1.73,0,0,1-.77-1.09l-.56-1.86a20,20,0,0,1-2,1.57,11.57,11.57,0,0,1-2,1.13,9.65,9.65,0,0,1-2.17.69,12.42,12.42,0,0,1-2.54.23,10.24,10.24,0,0,1-3.06-.44,6.53,6.53,0,0,1-2.41-1.35,5.94,5.94,0,0,1-1.57-2.22,7.83,7.83,0,0,1-.56-3.1,6.2,6.2,0,0,1,.77-2.93,7.39,7.39,0,0,1,2.59-2.61,16.47,16.47,0,0,1,4.82-1.93,30.9,30.9,0,0,1,7.47-.77V63.17a5.86,5.86,0,0,0-1.11-3.92A4,4,0,0,0,190.6,58a7.75,7.75,0,0,0-2.55.36,9.12,9.12,0,0,0-1.77.8c-.51.3-1,.57-1.39.8a2.84,2.84,0,0,1-1.41.36,1.81,1.81,0,0,1-1.09-.33,2.53,2.53,0,0,1-.74-.82l-1.15-2A15.53,15.53,0,0,1,191.39,53a10.54,10.54,0,0,1,4.09.75,8.68,8.68,0,0,1,3.05,2.09,8.93,8.93,0,0,1,1.9,3.2,12.38,12.38,0,0,1,.65,4.08Zm-12.24-3.92a8.26,8.26,0,0,0,1.78-.18,6.75,6.75,0,0,0,1.55-.53,8.24,8.24,0,0,0,1.4-.86,12.35,12.35,0,0,0,1.36-1.22V68.56a25.63,25.63,0,0,0-4.6.35,12.14,12.14,0,0,0-3,.89,3.68,3.68,0,0,0-1.59,1.25,3.14,3.14,0,0,0,.51,4A4.2,4.2,0,0,0,188.84,75.73Z"/><path class="cls-1" d="M214.49,41.76V79.65h-6.3V41.76Z"/><path class="cls-1" d="M230.71,80.06a6.91,6.91,0,0,1-5.23-1.92,7.42,7.42,0,0,1-1.83-5.32V58.21H221a1.21,1.21,0,0,1-1.25-1.33v-2.5L224,53.7l1.33-7.14a1.28,1.28,0,0,1,.47-.8,1.55,1.55,0,0,1,.93-.28h3.26v8.24h6.89v4.49h-6.89V72.39a2.78,2.78,0,0,0,.62,1.91,2.06,2.06,0,0,0,1.63.69,3,3,0,0,0,1-.14,5.69,5.69,0,0,0,.69-.3l.52-.29a.91.91,0,0,1,.46-.14.74.74,0,0,1,.46.14,2,2,0,0,1,.38.42l1.89,3.06a9.45,9.45,0,0,1-3.16,1.74A11.83,11.83,0,0,1,230.71,80.06Z"/><path class="cls-1" d="M242.36,79.65V41.76h6.3V56.32A13.07,13.07,0,0,1,252,54a9.67,9.67,0,0,1,4.31-.9,9.5,9.5,0,0,1,3.8.73,7.54,7.54,0,0,1,2.76,2A9.11,9.11,0,0,1,264.59,59a13.35,13.35,0,0,1,.57,4V79.65h-6.3V63a5.61,5.61,0,0,0-1.11-3.71A4.13,4.13,0,0,0,254.42,58a6.64,6.64,0,0,0-3.06.74,10.89,10.89,0,0,0-2.7,2V79.65Z"/><path class="cls-2" d="M102,100.91a12.13,12.13,0,0,1-.77,4.4,9.75,9.75,0,0,1-2.16,3.39,9.53,9.53,0,0,1-3.34,2.18,11.53,11.53,0,0,1-4.32.77h-8V90.16h8a11.74,11.74,0,0,1,4.32.77,9.7,9.7,0,0,1,3.34,2.19,9.88,9.88,0,0,1,2.16,3.4A12.08,12.08,0,0,1,102,100.91Zm-3,0a10.79,10.79,0,0,0-.54-3.54A7.46,7.46,0,0,0,97,94.73a6.65,6.65,0,0,0-2.4-1.65,8.27,8.27,0,0,0-3.13-.57H86.33V109.3h5.12a8.27,8.27,0,0,0,3.13-.57,6.62,6.62,0,0,0,2.4-1.64,7.46,7.46,0,0,0,1.53-2.64A10.79,10.79,0,0,0,99.05,100.91Z"/><path class="cls-2" d="M109.45,91.69a1.81,1.81,0,0,1-.16.73,2.49,2.49,0,0,1-.42.6,2.11,2.11,0,0,1-.61.41,1.8,1.8,0,0,1-.73.15,1.77,1.77,0,0,1-.73-.15,1.94,1.94,0,0,1-.6-.41,2,2,0,0,1-.41-.6,1.8,1.8,0,0,1-.15-.73,2,2,0,0,1,.56-1.36,1.94,1.94,0,0,1,.6-.41,1.77,1.77,0,0,1,.73-.15,1.8,1.8,0,0,1,.73.15,2.11,2.11,0,0,1,.61.41,2.26,2.26,0,0,1,.42.62A1.86,1.86,0,0,1,109.45,91.69Zm-.6,4.77v15.19h-2.67V96.46Z"/><path class="cls-2" d="M119,96.2a7.75,7.75,0,0,1,1.85.22,6,6,0,0,1,1.57.64h4.13v1q0,.49-.63.63l-1.73.24a4.91,4.91,0,0,1,.08,4.19,4.51,4.51,0,0,1-1.18,1.55,5.24,5.24,0,0,1-1.8,1A7.28,7.28,0,0,1,119,106a7.69,7.69,0,0,1-2-.26,2.66,2.66,0,0,0-.73.67,1.26,1.26,0,0,0-.24.7.94.94,0,0,0,.43.84,3,3,0,0,0,1.16.42,10,10,0,0,0,1.63.12h1.87a10.57,10.57,0,0,1,1.87.17,5.68,5.68,0,0,1,1.63.54,3.18,3.18,0,0,1,1.16,1,3.13,3.13,0,0,1,.43,1.73,4,4,0,0,1-.49,1.91,5.06,5.06,0,0,1-1.4,1.65,7.22,7.22,0,0,1-2.23,1.16,9.55,9.55,0,0,1-3,.43,11.57,11.57,0,0,1-2.92-.33,6.83,6.83,0,0,1-2.07-.89,3.86,3.86,0,0,1-1.24-1.28,3,3,0,0,1-.41-1.52,2.73,2.73,0,0,1,.71-1.92,4.91,4.91,0,0,1,2-1.25,2.7,2.7,0,0,1-1-.8,2.15,2.15,0,0,1-.38-1.34,2.18,2.18,0,0,1,.12-.69,2.86,2.86,0,0,1,.36-.69,4.15,4.15,0,0,1,.61-.66,4,4,0,0,1,.84-.56,4.64,4.64,0,0,1-1.76-1.67,4.94,4.94,0,0,1-.21-4.45,4.41,4.41,0,0,1,1.19-1.55,5.58,5.58,0,0,1,1.82-1A7.47,7.47,0,0,1,119,96.2Zm4.74,16.23a1.37,1.37,0,0,0-.31-.94,2.11,2.11,0,0,0-.86-.54,5.82,5.82,0,0,0-1.24-.28,11.77,11.77,0,0,0-1.49-.1h-1.59a5.56,5.56,0,0,1-1.54-.2,4.34,4.34,0,0,0-1.39,1,2,2,0,0,0-.53,1.4,1.82,1.82,0,0,0,.26,1,2.18,2.18,0,0,0,.8.76,4.39,4.39,0,0,0,1.36.51,8.4,8.4,0,0,0,1.93.19A8.67,8.67,0,0,0,121,115a4.67,4.67,0,0,0,1.45-.57,2.72,2.72,0,0,0,.91-.87A2,2,0,0,0,123.71,112.43Zm-4.74-8.2a4.16,4.16,0,0,0,1.43-.23,2.89,2.89,0,0,0,1-.63,2.59,2.59,0,0,0,.63-1,3.55,3.55,0,0,0,.21-1.24,3,3,0,0,0-.85-2.22,3.41,3.41,0,0,0-2.47-.83,3.36,3.36,0,0,0-2.45.83,2.94,2.94,0,0,0-.85,2.22,3.33,3.33,0,0,0,.22,1.24,2.61,2.61,0,0,0,.64,1,2.88,2.88,0,0,0,1,.63A4.09,4.09,0,0,0,119,104.23Z"/><path class="cls-2" d="M133.06,91.69a1.81,1.81,0,0,1-.16.73,2.49,2.49,0,0,1-.42.6,2.11,2.11,0,0,1-.61.41,1.8,1.8,0,0,1-.73.15,1.77,1.77,0,0,1-.73-.15,1.94,1.94,0,0,1-.6-.41,2,2,0,0,1-.41-.6,1.8,1.8,0,0,1-.15-.73,2,2,0,0,1,.56-1.36,1.94,1.94,0,0,1,.6-.41,1.77,1.77,0,0,1,.73-.15,1.8,1.8,0,0,1,.73.15,2.11,2.11,0,0,1,.61.41,2.26,2.26,0,0,1,.42.62A1.86,1.86,0,0,1,133.06,91.69Zm-.6,4.77v15.19h-2.67V96.46Z"/><path class="cls-2" d="M142.07,111.89a3.67,3.67,0,0,1-2.77-1,4,4,0,0,1-1-2.9v-9.3h-1.83a.59.59,0,0,1-.41-.14.54.54,0,0,1-.16-.44V97l2.49-.31L139,92a.54.54,0,0,1,.2-.36.6.6,0,0,1,.42-.15H141v5.24h4.35v1.93H141v9.12a2,2,0,0,0,.46,1.43,1.62,1.62,0,0,0,1.2.46,2,2,0,0,0,.73-.11,2.9,2.9,0,0,0,.53-.25l.38-.24a.5.5,0,0,1,.28-.12.47.47,0,0,1,.38.26l.78,1.27a5.1,5.1,0,0,1-1.67,1A5.76,5.76,0,0,1,142.07,111.89Z"/><path class="cls-2" d="M160.12,111.65h-1.19a1.41,1.41,0,0,1-.63-.12A.66.66,0,0,1,158,111l-.31-1.41a14,14,0,0,1-1.17,1,6.31,6.31,0,0,1-2.54,1.16,7.64,7.64,0,0,1-1.58.15,5.6,5.6,0,0,1-1.66-.24,3.91,3.91,0,0,1-1.34-.75,3.59,3.59,0,0,1-.91-1.26,4.43,4.43,0,0,1-.34-1.79,3.34,3.34,0,0,1,.5-1.74,4.38,4.38,0,0,1,1.6-1.49,10.4,10.4,0,0,1,2.89-1.06,19.92,19.92,0,0,1,4.36-.41V102a4.12,4.12,0,0,0-.76-2.7,2.73,2.73,0,0,0-2.24-.91,4.6,4.6,0,0,0-1.64.25,6.27,6.27,0,0,0-1.16.55l-.84.56a1.23,1.23,0,0,1-.69.24.78.78,0,0,1-.48-.14,1.07,1.07,0,0,1-.32-.35l-.48-.86a8.75,8.75,0,0,1,2.71-1.81,8.41,8.41,0,0,1,3.23-.6,5.81,5.81,0,0,1,2.27.42,4.63,4.63,0,0,1,1.66,1.17,4.93,4.93,0,0,1,1,1.81,7.56,7.56,0,0,1,.35,2.34ZM153.18,110a5.6,5.6,0,0,0,1.29-.14,5.07,5.07,0,0,0,1.11-.41,6,6,0,0,0,1-.64,9,9,0,0,0,.92-.85v-3.14a17.6,17.6,0,0,0-3.14.24,8.6,8.6,0,0,0-2.09.61,2.91,2.91,0,0,0-1.18.89,1.88,1.88,0,0,0-.37,1.15,2.38,2.38,0,0,0,.2,1,1.9,1.9,0,0,0,.52.71,2,2,0,0,0,.78.41A3.39,3.39,0,0,0,153.18,110Z"/><path class="cls-2" d="M167.43,89.56v22.09h-2.67V89.56Z"/><path class="cls-2" d="M196.38,111.65h-2.92v-9.78H181.88v9.78H179V90.16h2.93v9.58h11.58V90.16h2.92Z"/><path class="cls-2" d="M207.53,96.22a6.68,6.68,0,0,1,2.52.46A5.51,5.51,0,0,1,212,98a6,6,0,0,1,1.32,2.13,8.28,8.28,0,0,1,.47,2.88,1.7,1.7,0,0,1-.14.84.56.56,0,0,1-.51.21H203.07a8.42,8.42,0,0,0,.39,2.51,5.18,5.18,0,0,0,1,1.78,4,4,0,0,0,1.5,1.06,5.06,5.06,0,0,0,2,.35,5.64,5.64,0,0,0,1.74-.23,7.92,7.92,0,0,0,1.25-.5c.35-.18.64-.35.88-.5a1.11,1.11,0,0,1,.6-.24.59.59,0,0,1,.51.26l.75,1a5,5,0,0,1-1.18,1,7.51,7.51,0,0,1-1.48.72,8.88,8.88,0,0,1-1.63.43,9.38,9.38,0,0,1-1.66.14,7.6,7.6,0,0,1-2.9-.53,6.27,6.27,0,0,1-2.3-1.56,7.18,7.18,0,0,1-1.51-2.54,10.34,10.34,0,0,1-.54-3.48,9,9,0,0,1,.49-3,7,7,0,0,1,1.4-2.39,6.35,6.35,0,0,1,2.24-1.59A7.25,7.25,0,0,1,207.53,96.22Zm.06,2a4.13,4.13,0,0,0-3.05,1.12,5.28,5.28,0,0,0-1.38,3.1h8.27a5.37,5.37,0,0,0-.26-1.7,3.82,3.82,0,0,0-.75-1.34,3.5,3.5,0,0,0-1.2-.87A4.19,4.19,0,0,0,207.59,98.18Z"/><path class="cls-2" d="M228.69,111.65h-1.18a1.41,1.41,0,0,1-.63-.12.67.67,0,0,1-.32-.51l-.3-1.41c-.4.36-.79.69-1.17,1a6.16,6.16,0,0,1-1.2.72,5.85,5.85,0,0,1-1.34.44,7.64,7.64,0,0,1-1.58.15,5.6,5.6,0,0,1-1.66-.24,3.91,3.91,0,0,1-1.34-.75,3.59,3.59,0,0,1-.91-1.26,4.43,4.43,0,0,1-.34-1.79,3.34,3.34,0,0,1,.5-1.74,4.38,4.38,0,0,1,1.6-1.49,10.44,10.44,0,0,1,2.88-1.06,20.09,20.09,0,0,1,4.37-.41V102a4.12,4.12,0,0,0-.76-2.7,2.73,2.73,0,0,0-2.24-.91,4.6,4.6,0,0,0-1.64.25,6.27,6.27,0,0,0-1.16.55c-.32.21-.6.39-.84.56a1.23,1.23,0,0,1-.7.24.77.77,0,0,1-.47-.14,1.07,1.07,0,0,1-.32-.35l-.48-.86a8.64,8.64,0,0,1,2.71-1.81,8.41,8.41,0,0,1,3.23-.6,5.73,5.73,0,0,1,2.26.42,4.66,4.66,0,0,1,1.67,1.17,4.93,4.93,0,0,1,1,1.81,7.56,7.56,0,0,1,.34,2.34ZM221.76,110a5.73,5.73,0,0,0,1.29-.14,5.27,5.27,0,0,0,1.11-.41,6,6,0,0,0,1-.64,9,9,0,0,0,.92-.85v-3.14a17.52,17.52,0,0,0-3.14.24,8.56,8.56,0,0,0-2.1.61,2.87,2.87,0,0,0-1.17.89,1.88,1.88,0,0,0-.37,1.15,2.54,2.54,0,0,0,.19,1,1.92,1.92,0,0,0,.53.71,2,2,0,0,0,.78.41A3.35,3.35,0,0,0,221.76,110Z"/><path class="cls-2" d="M236,89.56v22.09h-2.67V89.56Z"/><path class="cls-2" d="M245.63,111.89a3.67,3.67,0,0,1-2.77-1,4,4,0,0,1-1-2.9v-9.3h-1.83a.56.56,0,0,1-.4-.14.54.54,0,0,1-.17-.44V97l2.49-.31.62-4.7a.53.53,0,0,1,.19-.36.6.6,0,0,1,.42-.15h1.35v5.24h4.35v1.93h-4.35v9.12a2,2,0,0,0,.47,1.43,1.62,1.62,0,0,0,1.2.46,2,2,0,0,0,.73-.11,2.9,2.9,0,0,0,.53-.25l.38-.24a.5.5,0,0,1,.28-.12.46.46,0,0,1,.37.26l.78,1.27a5,5,0,0,1-1.66,1A5.76,5.76,0,0,1,245.63,111.89Z"/><path class="cls-2" d="M252.51,111.65V89.56h2.67V98.5a8.32,8.32,0,0,1,2.16-1.66,5.84,5.84,0,0,1,2.73-.62,5.6,5.6,0,0,1,2.2.41,4.45,4.45,0,0,1,1.59,1.17,5.29,5.29,0,0,1,1,1.82,8,8,0,0,1,.33,2.36v9.67h-2.67V102a4.14,4.14,0,0,0-.79-2.68,3,3,0,0,0-2.41-1,4.47,4.47,0,0,0-2.21.57,7.19,7.19,0,0,0-1.9,1.54v11.19Z"/><path class="cls-2" d="M279.2,99.58h1.09a2.52,2.52,0,0,0,.91-.14,1.89,1.89,0,0,0,.64-.49l7.15-8.1a2.11,2.11,0,0,1,.64-.53,1.68,1.68,0,0,1,.79-.16h2.47l-8.19,9.25a6.55,6.55,0,0,1-.59.59,2.74,2.74,0,0,1-.59.39,2.07,2.07,0,0,1,.73.4,6.18,6.18,0,0,1,.66.68l8.55,10.18h-2.52a2.21,2.21,0,0,1-.48,0,1.27,1.27,0,0,1-.33-.12,1.05,1.05,0,0,1-.27-.2,2.89,2.89,0,0,1-.24-.25l-7.42-8.54a4.16,4.16,0,0,0-.31-.3,1.27,1.27,0,0,0-.33-.22,1.8,1.8,0,0,0-.43-.13,5,5,0,0,0-.61,0H279.2v9.84h-2.9V90.16h2.9Z"/><path class="cls-2" d="M296.31,111.65V96.46h1.59a.68.68,0,0,1,.72.55l.21,1.65a8.49,8.49,0,0,1,2.22-1.77,5.71,5.71,0,0,1,2.82-.67,5.6,5.6,0,0,1,2.2.41,4.36,4.36,0,0,1,1.59,1.17,5.12,5.12,0,0,1,1,1.82A8,8,0,0,1,309,102v9.67h-2.67V102a4.14,4.14,0,0,0-.79-2.68,3,3,0,0,0-2.41-1,4.47,4.47,0,0,0-2.21.57,7.19,7.19,0,0,0-1.9,1.54v11.19Z"/><path class="cls-2" d="M319.44,96.22a7.8,7.8,0,0,1,3,.55,6.35,6.35,0,0,1,2.28,1.58,6.8,6.8,0,0,1,1.44,2.47,10.72,10.72,0,0,1,0,6.47,6.84,6.84,0,0,1-1.44,2.46,6.33,6.33,0,0,1-2.28,1.57,8.63,8.63,0,0,1-6,0,6.37,6.37,0,0,1-2.29-1.57,7,7,0,0,1-1.46-2.46,10.52,10.52,0,0,1,0-6.47,7,7,0,0,1,1.46-2.47,6.39,6.39,0,0,1,2.29-1.58A7.75,7.75,0,0,1,319.44,96.22Zm0,13.56a3.89,3.89,0,0,0,3.36-1.51,7,7,0,0,0,1.11-4.21,7.06,7.06,0,0,0-1.11-4.23,3.89,3.89,0,0,0-3.36-1.51,4.66,4.66,0,0,0-2,.39,3.72,3.72,0,0,0-1.4,1.12,5.22,5.22,0,0,0-.84,1.81,10.6,10.6,0,0,0,0,4.84,5,5,0,0,0,.84,1.79,3.72,3.72,0,0,0,1.4,1.12A4.66,4.66,0,0,0,319.44,109.78Z"/><path class="cls-2" d="M328.29,96.46h2.1a.85.85,0,0,1,.54.16.84.84,0,0,1,.29.39l2.91,9.78c.08.36.15.71.22,1s.13.67.18,1c.08-.34.17-.68.27-1s.21-.69.32-1L338.33,97a.81.81,0,0,1,.26-.37.73.73,0,0,1,.47-.15h1.16a.77.77,0,0,1,.49.15A.76.76,0,0,1,341,97l3.14,9.84c.11.35.21.7.29,1s.17.67.25,1c0-.33.11-.67.19-1s.17-.7.26-1l3-9.78a.73.73,0,0,1,.28-.39.79.79,0,0,1,.5-.16h2L346,111.65h-2.12q-.39,0-.54-.51l-3.36-10.3a5.56,5.56,0,0,1-.19-.7l-.15-.7-.15.71a5.6,5.6,0,0,1-.2.7l-3.4,10.29a.63.63,0,0,1-.62.51h-2Z"/><path class="cls-2" d="M356.52,89.56v22.09h-2.67V89.56Z"/><path class="cls-2" d="M367.55,96.22a6.68,6.68,0,0,1,2.52.46,5.51,5.51,0,0,1,2,1.32,6,6,0,0,1,1.32,2.13,8.28,8.28,0,0,1,.47,2.88,1.7,1.7,0,0,1-.14.84.56.56,0,0,1-.51.21H363.09a8.42,8.42,0,0,0,.39,2.51,5.18,5.18,0,0,0,1,1.78,4,4,0,0,0,1.5,1.06,5.06,5.06,0,0,0,1.95.35,5.64,5.64,0,0,0,1.74-.23,7.92,7.92,0,0,0,1.25-.5c.35-.18.64-.35.88-.5a1.11,1.11,0,0,1,.6-.24.59.59,0,0,1,.51.26l.75,1a5,5,0,0,1-1.18,1,7.79,7.79,0,0,1-1.48.72,8.88,8.88,0,0,1-1.63.43,9.38,9.38,0,0,1-1.66.14,7.6,7.6,0,0,1-2.9-.53,6.27,6.27,0,0,1-2.3-1.56,7.18,7.18,0,0,1-1.51-2.54,10.34,10.34,0,0,1-.54-3.48,9,9,0,0,1,.49-3,6.86,6.86,0,0,1,1.4-2.39,6.35,6.35,0,0,1,2.24-1.59A7.25,7.25,0,0,1,367.55,96.22Zm.06,2a4.13,4.13,0,0,0-3.05,1.12,5.28,5.28,0,0,0-1.38,3.1h8.27a5.37,5.37,0,0,0-.26-1.7,3.82,3.82,0,0,0-.75-1.34,3.5,3.5,0,0,0-1.2-.87A4.19,4.19,0,0,0,367.61,98.18Z"/><path class="cls-2" d="M388.25,111.65a.68.68,0,0,1-.72-.55l-.24-1.85a8,8,0,0,1-2.23,1.9,5.66,5.66,0,0,1-2.87.71,5.41,5.41,0,0,1-2.37-.5,4.89,4.89,0,0,1-1.82-1.48,7,7,0,0,1-1.15-2.43,12.46,12.46,0,0,1-.41-3.34,10.53,10.53,0,0,1,.45-3.13,7.57,7.57,0,0,1,1.3-2.51A6,6,0,0,1,383,96.19a5.6,5.6,0,0,1,2.39.47A5.81,5.81,0,0,1,387.17,98V89.56h2.67v22.09Zm-5.18-2a4.32,4.32,0,0,0,2.29-.6,6.65,6.65,0,0,0,1.81-1.69v-7.35a4.26,4.26,0,0,0-1.62-1.39,4.71,4.71,0,0,0-1.94-.4,3.85,3.85,0,0,0-3.27,1.52,7.08,7.08,0,0,0-1.14,4.32,10.91,10.91,0,0,0,.26,2.54,4.81,4.81,0,0,0,.75,1.74,2.9,2.9,0,0,0,1.21,1A4.08,4.08,0,0,0,383.07,109.7Z"/><path class="cls-2" d="M399.74,96.2a7.82,7.82,0,0,1,1.85.22,6.09,6.09,0,0,1,1.57.64h4.12v1q0,.49-.63.63l-1.72.24a4.6,4.6,0,0,1,.51,2.17,4.75,4.75,0,0,1-.43,2,4.53,4.53,0,0,1-1.19,1.55,5.07,5.07,0,0,1-1.8,1,7.17,7.17,0,0,1-2.28.35,7.69,7.69,0,0,1-2-.26,2.52,2.52,0,0,0-.73.67,1.2,1.2,0,0,0-.25.7.94.94,0,0,0,.44.84,3,3,0,0,0,1.15.42,10.08,10.08,0,0,0,1.64.12h1.86a10.49,10.49,0,0,1,1.87.17,5.75,5.75,0,0,1,1.64.54,2.91,2.91,0,0,1,1.59,2.78,4.08,4.08,0,0,1-.49,1.91,5.19,5.19,0,0,1-1.4,1.65,7.28,7.28,0,0,1-2.24,1.16,9.49,9.49,0,0,1-3,.43,11.51,11.51,0,0,1-2.92-.33,6.79,6.79,0,0,1-2.08-.89,4,4,0,0,1-1.24-1.28,3.1,3.1,0,0,1-.41-1.52,2.78,2.78,0,0,1,.71-1.92,5,5,0,0,1,2-1.25,2.78,2.78,0,0,1-1-.8,2.22,2.22,0,0,1-.38-1.34,2.18,2.18,0,0,1,.12-.69,2.59,2.59,0,0,1,.37-.69,3.73,3.73,0,0,1,.61-.66,4,4,0,0,1,.84-.56,4.74,4.74,0,0,1-1.77-1.67,4.62,4.62,0,0,1-.63-2.44,4.7,4.7,0,0,1,.42-2,4.56,4.56,0,0,1,1.2-1.55,5.58,5.58,0,0,1,1.82-1A7.43,7.43,0,0,1,399.74,96.2Zm4.74,16.23a1.37,1.37,0,0,0-.32-.94,2.08,2.08,0,0,0-.85-.54,5.92,5.92,0,0,0-1.25-.28,11.6,11.6,0,0,0-1.48-.1H399a5.63,5.63,0,0,1-1.55-.2,4.45,4.45,0,0,0-1.39,1,2,2,0,0,0-.53,1.4,1.92,1.92,0,0,0,.26,1,2.29,2.29,0,0,0,.81.76,4.43,4.43,0,0,0,1.35.51,8.46,8.46,0,0,0,1.93.19,8.77,8.77,0,0,0,1.94-.2,4.51,4.51,0,0,0,1.44-.57,2.63,2.63,0,0,0,.91-.87A2.05,2.05,0,0,0,404.48,112.43Zm-4.74-8.2a4.2,4.2,0,0,0,1.43-.23,2.93,2.93,0,0,0,1-.63,2.59,2.59,0,0,0,.63-1,3.55,3.55,0,0,0,.21-1.24A2.94,2.94,0,0,0,402.2,99a4.06,4.06,0,0,0-4.92,0,3,3,0,0,0-.84,2.22,3.55,3.55,0,0,0,.21,1.24,2.74,2.74,0,0,0,.64,1,2.93,2.93,0,0,0,1,.63A4.09,4.09,0,0,0,399.74,104.23Z"/><path class="cls-2" d="M416.27,96.22a6.68,6.68,0,0,1,2.52.46,5.51,5.51,0,0,1,2,1.32,5.86,5.86,0,0,1,1.31,2.13,8.05,8.05,0,0,1,.48,2.88,1.7,1.7,0,0,1-.14.84.56.56,0,0,1-.51.21H411.81a8.42,8.42,0,0,0,.39,2.51,5.18,5.18,0,0,0,1,1.78,4,4,0,0,0,1.5,1.06,5.06,5.06,0,0,0,1.95.35,5.53,5.53,0,0,0,1.73-.23,7.68,7.68,0,0,0,1.26-.5,9.86,9.86,0,0,0,.87-.5,1.16,1.16,0,0,1,.61-.24.59.59,0,0,1,.51.26l.75,1a5,5,0,0,1-1.18,1,7.79,7.79,0,0,1-1.48.72,9.1,9.1,0,0,1-1.63.43,9.38,9.38,0,0,1-1.66.14,7.69,7.69,0,0,1-2.91-.53,6.23,6.23,0,0,1-2.29-1.56,7,7,0,0,1-1.51-2.54,10.34,10.34,0,0,1-.54-3.48,8.73,8.73,0,0,1,.49-3,6.86,6.86,0,0,1,1.4-2.39,6.35,6.35,0,0,1,2.24-1.59A7.25,7.25,0,0,1,416.27,96.22Zm.06,2a4.13,4.13,0,0,0-3.05,1.12,5.28,5.28,0,0,0-1.38,3.1h8.27a5.37,5.37,0,0,0-.26-1.7,3.82,3.82,0,0,0-.75-1.34,3.44,3.44,0,0,0-1.21-.87A4.1,4.1,0,0,0,416.33,98.18Z"/><path class="cls-2" d="M436,103.61v8h-2.9V90.16h6.35a12,12,0,0,1,3.54.47,6.86,6.86,0,0,1,2.5,1.34,5.55,5.55,0,0,1,1.48,2.1,7.52,7.52,0,0,1,.49,2.75,7,7,0,0,1-.53,2.74,5.87,5.87,0,0,1-1.54,2.15,7,7,0,0,1-2.51,1.4,10.63,10.63,0,0,1-3.43.5Zm0-2.31h3.45a6.64,6.64,0,0,0,2.19-.33,4.26,4.26,0,0,0,1.6-.92,3.81,3.81,0,0,0,1-1.42,4.82,4.82,0,0,0,.33-1.81,4.14,4.14,0,0,0-1.27-3.21,5.53,5.53,0,0,0-3.83-1.16H436Z"/><path class="cls-2" d="M456.69,96.22a7.84,7.84,0,0,1,3,.55A6.44,6.44,0,0,1,462,98.35a7.09,7.09,0,0,1,1.44,2.47,10.72,10.72,0,0,1,0,6.47,7.14,7.14,0,0,1-1.44,2.46,6.42,6.42,0,0,1-2.28,1.57,8.66,8.66,0,0,1-6,0,6.42,6.42,0,0,1-2.28-1.57,7,7,0,0,1-1.46-2.46,10.52,10.52,0,0,1,0-6.47,7,7,0,0,1,1.46-2.47,6.44,6.44,0,0,1,2.28-1.58A7.84,7.84,0,0,1,456.69,96.22Zm0,13.56a3.89,3.89,0,0,0,3.36-1.51,7,7,0,0,0,1.11-4.21,7.06,7.06,0,0,0-1.11-4.23,3.89,3.89,0,0,0-3.36-1.51,4.66,4.66,0,0,0-2,.39,3.65,3.65,0,0,0-1.4,1.12,4.89,4.89,0,0,0-.84,1.81,10.6,10.6,0,0,0,0,4.84,4.72,4.72,0,0,0,.84,1.79,3.65,3.65,0,0,0,1.4,1.12A4.66,4.66,0,0,0,456.69,109.78Z"/><path class="cls-2" d="M467.52,111.65V96.46h1.53a.85.85,0,0,1,.6.16,1,1,0,0,1,.23.57l.17,2.37A7.26,7.26,0,0,1,472,97.08a4.29,4.29,0,0,1,2.69-.89,4.59,4.59,0,0,1,1.15.14,4.16,4.16,0,0,1,.94.4l-.34,2a.47.47,0,0,1-.47.38,2.53,2.53,0,0,1-.65-.14,3.84,3.84,0,0,0-1.21-.15,3.43,3.43,0,0,0-2.33.81,6.05,6.05,0,0,0-1.57,2.36v9.67Z"/><path class="cls-2" d="M484.52,111.89a3.66,3.66,0,0,1-2.77-1,4,4,0,0,1-1-2.9v-9.3H479a.56.56,0,0,1-.4-.14.54.54,0,0,1-.17-.44V97l2.49-.31.62-4.7a.53.53,0,0,1,.19-.36.6.6,0,0,1,.42-.15h1.35v5.24h4.35v1.93h-4.35v9.12a2,2,0,0,0,.47,1.43,1.62,1.62,0,0,0,1.2.46,2,2,0,0,0,.72-.11,2.72,2.72,0,0,0,.54-.25l.38-.24A.48.48,0,0,1,487,109a.46.46,0,0,1,.37.26l.78,1.27a5,5,0,0,1-1.66,1A5.76,5.76,0,0,1,484.52,111.89Z"/><path class="cls-2" d="M502.56,111.65h-1.18a1.41,1.41,0,0,1-.63-.12.67.67,0,0,1-.32-.51l-.3-1.41c-.4.36-.79.69-1.17,1a6.16,6.16,0,0,1-1.2.72,6,6,0,0,1-1.34.44,7.71,7.71,0,0,1-1.58.15,5.55,5.55,0,0,1-1.66-.24,3.82,3.82,0,0,1-1.34-.75,3.47,3.47,0,0,1-.91-1.26,4.27,4.27,0,0,1-.34-1.79,3.34,3.34,0,0,1,.5-1.74,4.43,4.43,0,0,1,1.59-1.49,10.65,10.65,0,0,1,2.89-1.06,20.05,20.05,0,0,1,4.36-.41V102a4.18,4.18,0,0,0-.75-2.7,2.76,2.76,0,0,0-2.25-.91,4.68,4.68,0,0,0-1.64.25,6.16,6.16,0,0,0-1.15.55c-.33.21-.61.39-.84.56a1.26,1.26,0,0,1-.7.24.75.75,0,0,1-.47-.14,1,1,0,0,1-.33-.35l-.47-.86A8.64,8.64,0,0,1,494,96.79a8.39,8.39,0,0,1,3.22-.6,5.74,5.74,0,0,1,2.27.42,4.66,4.66,0,0,1,1.67,1.17,5.24,5.24,0,0,1,1,1.81,7.56,7.56,0,0,1,.34,2.34ZM495.63,110a5.73,5.73,0,0,0,1.29-.14,5,5,0,0,0,1.1-.41,5.23,5.23,0,0,0,1-.64,8.06,8.06,0,0,0,.92-.85v-3.14a17.48,17.48,0,0,0-3.13.24,8.56,8.56,0,0,0-2.1.61,3,3,0,0,0-1.18.89,1.94,1.94,0,0,0-.36,1.15,2.54,2.54,0,0,0,.19,1,1.92,1.92,0,0,0,.53.71,1.82,1.82,0,0,0,.78.41A3.35,3.35,0,0,0,495.63,110Z"/><path class="cls-2" d="M509.88,89.56v22.09h-2.67V89.56Z"/><path class="cls-3" d="M17,0h0a3.53,3.53,0,0,0-3.49,3.57V127.14a3.49,3.49,0,1,0,7,0V3.57A3.53,3.53,0,0,0,17,0Z"/><path class="cls-4" d="M30.4,75.69h0a3.28,3.28,0,0,0-3.49,3v49a3.27,3.27,0,0,0,3.49,3,3.28,3.28,0,0,0,3.5-3v-49A3.29,3.29,0,0,0,30.4,75.69Z"/><circle class="cls-4" cx="30.4" cy="61.77" r="2.74"/><circle class="cls-4" cx="30.4" cy="69.75" r="3.49"/><path class="cls-5" d="M57.31,123.73a3.49,3.49,0,1,0,3.5,3.49A3.49,3.49,0,0,0,57.31,123.73Z"/><path class="cls-5" d="M57.24,27a3.58,3.58,0,0,0-3.58,3.58v87a3.58,3.58,0,1,0,7.15,0v-87A3.57,3.57,0,0,0,57.24,27Z"/><circle class="cls-6" cx="3.49" cy="34.82" r="2.74"/><circle class="cls-6" cx="3.49" cy="42.8" r="3.49"/><path class="cls-7" d="M44.12,102.09a3.58,3.58,0,0,0-3.58,3.58v21.46a3.58,3.58,0,0,0,7.16,0V105.67A3.58,3.58,0,0,0,44.12,102.09Z"/><path class="cls-7" d="M44.12,43.66a3.58,3.58,0,0,0-3.58,3.58V97.32a3.58,3.58,0,0,0,7.16,0V47.24A3.58,3.58,0,0,0,44.12,43.66Z"/><path class="cls-6" d="M3.58,67.51A3.58,3.58,0,0,0,0,71.09v56a3.58,3.58,0,1,0,7.15,0v-56A3.57,3.57,0,0,0,3.58,67.51Z"/><path class="cls-6" d="M3.58,48.43A3.58,3.58,0,0,0,0,52V62.74a3.58,3.58,0,1,0,7.15,0V52A3.57,3.57,0,0,0,3.58,48.43Z"/></g></g></svg>