<svg width="144" height="39" viewBox="0 0 144 39" fill="none" xmlns="http://www.w3.org/2000/svg">
<path d="M30.5247 22.4941C30.4194 22.5019 30.3146 22.4728 30.2285 22.4118C30.1423 22.3509 30.0801 22.2618 30.0526 22.16L29.9032 21.423C29.7489 21.5961 29.5821 21.7576 29.4042 21.9063C29.2289 22.0493 29.0397 22.1743 28.8394 22.2793C28.6326 22.3854 28.4139 22.4666 28.1879 22.521C27.9423 22.5799 27.6905 22.609 27.4379 22.6075C27.042 22.611 26.6509 22.521 26.2964 22.3449C25.9429 22.1662 25.636 21.9078 25.3999 21.5901C25.1249 21.2216 24.9221 20.8045 24.8023 20.3608C24.6574 19.8158 24.588 19.2537 24.5961 18.6899C24.5914 18.1549 24.67 17.6224 24.8292 17.1115C24.9685 16.6509 25.1935 16.2207 25.4926 15.8435C25.7738 15.4908 26.1287 15.2037 26.5325 15.002C26.9561 14.7979 27.4218 14.6958 27.8921 14.7037C28.2678 14.6971 28.6406 14.7703 28.9858 14.9185C29.2874 15.0531 29.5634 15.2389 29.8016 15.4675V11.4097H31.6453V22.4941H30.5247ZM28.0654 21.1455C28.4077 21.1553 28.7462 21.0728 29.0456 20.9068C29.3377 20.7278 29.5957 20.4985 29.8076 20.2295V16.7982C29.6261 16.5661 29.3914 16.3809 29.1233 16.2582C28.8709 16.1564 28.6005 16.1067 28.3284 16.112C28.0671 16.1079 27.808 16.1608 27.5694 16.2671C27.3406 16.3748 27.1423 16.5379 26.9927 16.7415C26.8219 16.9847 26.6992 17.2581 26.6311 17.5471C26.5416 17.9244 26.4994 18.3112 26.5056 18.6989C26.499 19.0816 26.5351 19.4639 26.6131 19.8386C26.6651 20.1084 26.7664 20.3663 26.912 20.5995C27.033 20.7844 27.2039 20.9312 27.405 21.0232C27.6138 21.111 27.839 21.1527 28.0654 21.1455Z" fill="#245879"/>
<path d="M43.0304 22.4941H41.0044V17.7828H35.9244V22.4941H33.9014V11.708H35.9244V16.3506H40.9895V11.708H43.0304V22.4941Z" fill="#245879"/>
<path d="M48.4092 14.7244C48.8638 14.7187 49.3155 14.7966 49.7419 14.9542C50.1393 15.0998 50.5002 15.3299 50.7997 15.6285C51.1027 15.9394 51.3369 16.3105 51.487 16.7175C51.6572 17.193 51.7382 17.6957 51.7261 18.2005C51.7266 18.3161 51.7196 18.4318 51.7052 18.5466C51.6987 18.6229 51.6763 18.6971 51.6394 18.7644C51.6084 18.8141 51.5624 18.8528 51.508 18.8748C51.4414 18.9008 51.3702 18.913 51.2988 18.9106H46.5624C46.6162 19.6963 46.8284 20.2721 47.1989 20.6381C47.3921 20.8253 47.6218 20.9709 47.8737 21.0659C48.1255 21.1608 48.3943 21.2031 48.6632 21.1901C48.9241 21.1965 49.1843 21.1612 49.4341 21.0857C49.6296 21.0256 49.8196 20.9487 50.0019 20.8559C50.1633 20.7724 50.3007 20.6948 50.4292 20.6262C50.5359 20.559 50.6587 20.5219 50.7848 20.5188C50.8508 20.5163 50.9163 20.531 50.975 20.5613C51.0336 20.5916 51.0834 20.6366 51.1195 20.6918L51.6574 21.3632C51.4596 21.5954 51.2279 21.7966 50.9701 21.9599C50.721 22.1194 50.4543 22.2495 50.1752 22.3478C49.9012 22.4454 49.6178 22.5144 49.3295 22.5537C49.0543 22.5922 48.7767 22.6121 48.4988 22.6133C47.9886 22.6184 47.4819 22.5283 47.0047 22.3478C46.554 22.1772 46.1461 21.9104 45.8094 21.5661C45.4576 21.198 45.1859 20.7612 45.0115 20.2831C44.8049 19.7153 44.7036 19.1148 44.7127 18.5108C44.7087 18.0083 44.7947 17.5091 44.9667 17.0368C45.128 16.5946 45.3759 16.1889 45.6958 15.8433C46.0208 15.4964 46.4147 15.221 46.8523 15.0347C47.3437 14.8233 47.8741 14.7176 48.4092 14.7244ZM48.445 16.0432C48.2148 16.0298 47.9842 16.0633 47.7674 16.1418C47.5506 16.2203 47.3521 16.3421 47.184 16.4997C46.8488 16.8524 46.6388 17.3053 46.5863 17.7887H50.0527C50.0541 17.5602 50.0209 17.3329 49.9541 17.1144C49.8928 16.9104 49.7911 16.7206 49.6553 16.5564C49.516 16.395 49.3424 16.2666 49.1473 16.1805C48.9254 16.0859 48.6862 16.0392 48.445 16.0432Z" fill="#245879"/>
<path d="M59.3821 22.4939H58.5513C58.4106 22.5016 58.2701 22.4749 58.1419 22.4163C58.0283 22.3447 57.9477 22.2309 57.9178 22.1001L57.7535 21.554C57.5726 21.7185 57.382 21.8719 57.1827 22.0135C57.0011 22.1431 56.8069 22.2541 56.603 22.3447C56.4001 22.4359 56.1876 22.504 55.9695 22.5476C55.7233 22.5948 55.4731 22.6178 55.2224 22.6162C54.9186 22.619 54.6162 22.5747 54.326 22.485C54.0644 22.3999 53.8233 22.2617 53.6178 22.0792C53.4176 21.9001 53.2612 21.6776 53.1606 21.4287C53.0466 21.1443 52.9908 20.8399 52.9962 20.5336C52.9989 20.2337 53.077 19.9392 53.2233 19.6773C53.4072 19.3624 53.6684 19.0996 53.9823 18.9135C54.4195 18.652 54.8956 18.4616 55.3928 18.3495C56.1099 18.1853 56.8445 18.1092 57.5802 18.1228V17.6722C57.613 17.2641 57.4985 16.8577 57.2574 16.5265C57.1368 16.3985 56.9893 16.2987 56.8256 16.2343C56.6618 16.1698 56.4858 16.1422 56.3102 16.1535C56.0571 16.1474 55.8047 16.1827 55.5631 16.258C55.3839 16.3206 55.2109 16.3995 55.0461 16.4937L54.6397 16.7294C54.5134 16.7987 54.3715 16.8347 54.2274 16.8338C54.1133 16.8369 54.0013 16.8034 53.9076 16.7383C53.8192 16.6746 53.745 16.5934 53.6895 16.4997L53.3548 15.9029C54.2227 15.1078 55.3657 14.68 56.5432 14.7094C56.9524 14.703 57.3587 14.7781 57.7385 14.9302C58.0783 15.0667 58.3842 15.2754 58.635 15.5419C58.8847 15.8102 59.0742 16.1286 59.1908 16.4758C59.3222 16.8598 59.3869 17.2635 59.3821 17.6693V22.4939ZM55.7962 21.3482C55.9719 21.3495 56.1473 21.3315 56.3191 21.2945C56.4753 21.2627 56.6269 21.2116 56.7703 21.1423C56.9158 21.0714 57.0539 20.9865 57.1827 20.8887C57.3233 20.7786 57.4561 20.659 57.5802 20.5306V19.2506C57.1288 19.2434 56.6777 19.2774 56.2325 19.3521C55.9328 19.4018 55.6407 19.489 55.3629 19.6117C55.1758 19.6932 55.0147 19.8242 54.8967 19.9906C54.7835 20.171 54.7365 20.385 54.7637 20.5962C54.791 20.8073 54.8908 21.0024 55.0461 21.1483C55.2683 21.2933 55.5312 21.3634 55.7962 21.3482Z" fill="#245879"/>
<path d="M63.3116 11.4097V22.4941H61.4648V11.4097H63.3116Z" fill="#245879"/>
<path d="M68.063 22.6165C67.7826 22.6348 67.5015 22.594 67.2379 22.4969C66.9744 22.3997 66.7342 22.2484 66.533 22.0526C66.153 21.6255 65.9585 21.0653 65.9921 20.4951V16.2224H65.2152C65.1646 16.2249 65.114 16.2164 65.067 16.1974C65.02 16.1785 64.9777 16.1495 64.9431 16.1126C64.9084 16.0757 64.8822 16.0318 64.8662 15.9837C64.8502 15.9357 64.8449 15.8848 64.8506 15.8345V15.1035L66.0847 14.9006L66.4702 12.812C66.487 12.7208 66.5371 12.6389 66.6107 12.5823C66.6895 12.5251 66.7852 12.4957 66.8826 12.4987H67.8329V14.9185H69.8499V16.2314H67.8329V20.3787C67.8207 20.5805 67.8846 20.7796 68.0122 20.9367C68.0714 21.0042 68.1452 21.0576 68.228 21.0927C68.3108 21.1278 68.4004 21.1438 68.4903 21.1396C68.5915 21.1426 68.6926 21.1285 68.7891 21.0978C68.8589 21.074 68.9268 21.0451 68.9923 21.0113C69.0491 20.9844 69.0999 20.9546 69.1447 20.9277C69.1849 20.9018 69.2314 20.8874 69.2792 20.8859C69.3274 20.8846 69.3747 20.8993 69.4136 20.9277C69.4565 20.9636 69.4946 21.0047 69.5272 21.05L70.077 21.9452C69.8044 22.1714 69.491 22.3436 69.1537 22.4524C68.8011 22.5644 68.4329 22.6198 68.063 22.6165Z" fill="#245879"/>
<path d="M71.4756 22.4941V11.4097H73.3223V15.6704C73.6134 15.3919 73.9461 15.1604 74.3084 14.9841C74.7037 14.8034 75.1349 14.7147 75.5695 14.7246C75.9518 14.7164 76.3315 14.7886 76.6841 14.9364C76.9971 15.0693 77.2744 15.2737 77.4939 15.5331C77.721 15.8013 77.8908 16.1131 77.9929 16.4491C78.1091 16.83 78.1655 17.2266 78.1603 17.6247V22.4941H76.3165V17.6247C76.3417 17.2354 76.2261 16.8501 75.9908 16.5387C75.8671 16.4032 75.7138 16.298 75.5428 16.2312C75.3717 16.1645 75.1876 16.138 75.0047 16.1538C74.6926 16.1529 74.385 16.2277 74.1082 16.3716C73.8143 16.5274 73.547 16.7288 73.3163 16.9683V22.4941H71.4756Z" fill="#245879"/>
<path d="M31.5496 30.6905C31.5567 31.213 31.4655 31.7322 31.2807 32.2211C31.1188 32.6628 30.8637 33.0645 30.5327 33.3991C30.2017 33.7337 29.8025 33.9934 29.3623 34.1605C28.886 34.3445 28.3788 34.4357 27.8681 34.4291H25.0532V26.9489H27.8562C28.3667 26.9438 28.8736 27.0349 29.3503 27.2175C29.7883 27.3859 30.1855 27.6452 30.5157 27.9783C30.8474 28.3193 31.1039 28.7258 31.2688 29.1718C31.4561 29.6562 31.5514 30.1712 31.5496 30.6905ZM30.5068 30.6905C30.5131 30.2721 30.4494 29.8557 30.3185 29.4582C30.2063 29.1187 30.0253 28.8058 29.7866 28.5392C29.555 28.2872 29.2688 28.0912 28.9499 27.9664C28.6015 27.8304 28.2302 27.7625 27.8562 27.7665H26.0632V33.6115H27.8562C28.2303 33.6169 28.6019 33.549 28.9499 33.4116C29.268 33.2867 29.554 33.0919 29.7866 32.8417C30.0258 32.5756 30.207 32.2626 30.3185 31.9228C30.4497 31.5254 30.5133 31.1089 30.5068 30.6905Z" fill="#777F95"/>
<path d="M34.1315 27.4796C34.131 27.573 34.1085 27.665 34.0658 27.7481C34.0285 27.8252 33.9791 27.8957 33.9194 27.957C33.7949 28.0815 33.6264 28.1522 33.4502 28.1539C33.3627 28.1543 33.2761 28.1359 33.1962 28.1002C33.1178 28.0666 33.0468 28.0179 32.9871 27.957C32.9369 27.8943 32.8975 27.8237 32.8705 27.7481C32.8352 27.6683 32.8179 27.5818 32.8197 27.4945C32.8184 27.4064 32.8357 27.3189 32.8705 27.2379C32.9041 27.1578 32.9528 27.0849 33.0139 27.0231C33.0737 26.9622 33.1447 26.9135 33.2231 26.8799C33.303 26.8442 33.3896 26.8258 33.4771 26.8262C33.6533 26.8279 33.8218 26.8986 33.9463 27.0231C34.0074 27.0855 34.057 27.1583 34.0927 27.2379C34.1214 27.3152 34.1346 27.3973 34.1315 27.4796ZM33.9224 29.1415V34.4287H32.993V29.1415H33.9224Z" fill="#777F95"/>
<path d="M37.4515 29.0524C37.6689 29.0504 37.8857 29.0754 38.097 29.1269C38.2896 29.1733 38.474 29.2488 38.6438 29.3507H40.0841V29.6938C40.0841 29.8102 40.0094 29.8818 39.863 29.9146L39.2654 29.9982C39.3856 30.2314 39.4462 30.4908 39.4417 30.7531C39.4455 30.9957 39.3955 31.2362 39.2952 31.4572C39.1971 31.6648 39.0554 31.849 38.8799 31.9973C38.6955 32.1519 38.4822 32.2685 38.2524 32.3404C37.9947 32.4239 37.7253 32.4652 37.4545 32.4627C37.2185 32.4641 36.9833 32.434 36.7552 32.3732C36.6563 32.4337 36.57 32.5127 36.5012 32.6059C36.4487 32.676 36.4185 32.7602 36.4146 32.8476C36.4111 32.9064 36.4234 32.965 36.4502 33.0175C36.477 33.0699 36.5173 33.1143 36.567 33.146C36.6907 33.2197 36.8278 33.2684 36.9704 33.2892C37.1582 33.3181 37.3481 33.3321 37.5382 33.331H38.1896C38.4081 33.3312 38.6261 33.3512 38.841 33.3907C39.0396 33.4248 39.2319 33.4881 39.4118 33.5786C39.5898 33.6674 39.7374 33.8069 39.8358 33.9796C39.9342 34.1522 39.9791 34.3502 39.9646 34.5483C39.9635 34.7807 39.9049 35.0093 39.7943 35.2137C39.6752 35.4375 39.509 35.6329 39.3072 35.7866C39.0728 35.9653 38.8088 36.1016 38.5273 36.1894C38.1905 36.2926 37.8396 36.3429 37.4874 36.3386C37.1443 36.3432 36.802 36.3051 36.4684 36.2252C36.2123 36.1669 35.9678 36.066 35.7452 35.9268C35.5692 35.8139 35.4219 35.6617 35.3149 35.4822C35.2215 35.3207 35.172 35.1376 35.1715 34.9511C35.165 34.7048 35.2538 34.4654 35.4195 34.2828C35.6079 34.0846 35.8417 33.9351 36.1008 33.8472C35.9603 33.7855 35.8371 33.6902 35.7422 33.5697C35.6486 33.4319 35.6025 33.2675 35.6107 33.1012C35.6106 33.0208 35.6247 32.941 35.6526 32.8655C35.681 32.7781 35.7245 32.6963 35.7811 32.6238C35.8409 32.5388 35.9112 32.4617 35.9903 32.3941C36.0811 32.3169 36.1815 32.2517 36.2891 32.2002C36.0412 32.0567 35.8351 31.851 35.6914 31.6034C35.538 31.3467 35.4603 31.0519 35.4673 30.7531C35.4648 30.5112 35.5158 30.2718 35.6167 30.0519C35.714 29.8446 35.8558 29.6612 36.0321 29.5148C36.2205 29.3612 36.4366 29.2447 36.6686 29.1717C36.9218 29.0917 37.1859 29.0515 37.4515 29.0524ZM39.104 34.6975C39.1098 34.5805 39.0714 34.4655 38.9964 34.3753C38.9147 34.2873 38.8118 34.2216 38.6976 34.1843C38.5571 34.1362 38.4118 34.1032 38.2643 34.0859C38.0918 34.065 37.9181 34.055 37.7444 34.056H37.1915C37.0098 34.0569 36.8288 34.0328 36.6536 33.9844C36.4702 34.0653 36.3054 34.1831 36.1696 34.3305C36.046 34.4619 35.9794 34.6367 35.9843 34.8169C35.9842 34.9333 36.0152 35.0476 36.0739 35.1481C36.1446 35.258 36.241 35.3491 36.3548 35.4136C36.5024 35.4965 36.6615 35.5568 36.827 35.5926C37.0481 35.6384 37.2735 35.6604 37.4993 35.6583C37.7263 35.6602 37.9528 35.6372 38.1747 35.5896C38.352 35.5499 38.5223 35.4835 38.6797 35.3927C38.8059 35.3177 38.914 35.2158 38.9964 35.0944C39.0691 34.9749 39.1064 34.8373 39.104 34.6975ZM37.4515 31.8451C37.622 31.8474 37.7917 31.8212 37.9535 31.7675C38.0887 31.7211 38.2121 31.6457 38.3151 31.5467C38.4132 31.4534 38.4888 31.3392 38.5362 31.2126C38.5854 31.0737 38.6097 30.9272 38.608 30.7799C38.6145 30.6375 38.5913 30.4952 38.5398 30.3622C38.4884 30.2292 38.4098 30.1083 38.3091 30.0071C38.062 29.8212 37.7609 29.7207 37.4515 29.7207C37.1421 29.7207 36.841 29.8212 36.5939 30.0071C36.4932 30.1083 36.4146 30.2292 36.3632 30.3622C36.3117 30.4952 36.2885 30.6375 36.2951 30.7799C36.2939 30.9277 36.3203 31.0744 36.3728 31.2126C36.4202 31.3392 36.4958 31.4534 36.5939 31.5467C36.6969 31.6457 36.8203 31.7211 36.9555 31.7675C37.1151 31.8216 37.2829 31.8479 37.4515 31.8451Z" fill="#777F95"/>
<path d="M42.364 27.4799C42.3639 27.5676 42.3446 27.6541 42.3072 27.7335C42.2721 27.8117 42.2224 27.8826 42.1608 27.9424C42.1012 28.0048 42.0289 28.0537 41.9486 28.0856C41.8687 28.1213 41.7821 28.1396 41.6946 28.1393C41.6082 28.1384 41.5229 28.1206 41.4434 28.0868C41.3639 28.053 41.2919 28.0039 41.2314 27.9424C41.1698 27.8833 41.1209 27.8122 41.088 27.7335C41.0517 27.6539 41.0333 27.5673 41.0342 27.4799C41.0339 27.3915 41.0522 27.3041 41.088 27.2233C41.1368 27.1041 41.2192 27.0016 41.3254 26.9285C41.4315 26.8554 41.5567 26.8147 41.6856 26.8115C41.7732 26.8112 41.8598 26.8295 41.9396 26.8652C42.0199 26.8971 42.0923 26.946 42.1518 27.0085C42.2148 27.0693 42.2647 27.1424 42.2982 27.2233C42.3381 27.3032 42.3605 27.3907 42.364 27.4799ZM42.1548 29.1418V34.4289H41.2374V29.1418H42.1548Z" fill="#777F95"/>
<path d="M45.5047 34.5157C45.3282 34.5264 45.1514 34.5007 44.9853 34.4402C44.8192 34.3796 44.6674 34.2854 44.5395 34.1636C44.2994 33.8857 44.1791 33.5242 44.2048 33.1581V29.9178H43.5653C43.5142 29.9198 43.4641 29.9028 43.4249 29.87C43.4044 29.8501 43.3886 29.8258 43.3788 29.7989C43.369 29.7721 43.3653 29.7433 43.3681 29.7149V29.3449L44.2257 29.2405L44.4409 27.6084C44.4432 27.5835 44.4505 27.5594 44.4623 27.5373C44.4741 27.5153 44.4902 27.4958 44.5096 27.4801C44.5502 27.4454 44.6025 27.4272 44.656 27.4294H45.1222V29.2405H46.6402V29.9118H45.1222V33.0865C45.1148 33.1761 45.1252 33.2662 45.1529 33.3517C45.1806 33.4373 45.225 33.5165 45.2835 33.5847C45.3387 33.6386 45.4042 33.6806 45.4761 33.7083C45.548 33.736 45.6249 33.7488 45.7019 33.7459C45.7882 33.7482 45.8742 33.7351 45.9559 33.7071C46.0205 33.6848 46.0826 33.6558 46.1412 33.6206C46.1879 33.5948 46.2328 33.5659 46.2756 33.534C46.3026 33.5114 46.3361 33.4978 46.3712 33.4952C46.3991 33.4972 46.426 33.5066 46.4491 33.5223C46.4722 33.538 46.4907 33.5596 46.5027 33.5847L46.7747 34.0263C46.607 34.182 46.4099 34.3027 46.1949 34.3814C45.9745 34.4662 45.7409 34.5117 45.5047 34.5157Z" fill="#777F95"/>
<path d="M51.7981 34.4291H51.3976C51.3229 34.4327 51.2484 34.4194 51.1795 34.3904C51.1486 34.3709 51.1226 34.3447 51.1034 34.3137C51.0842 34.2826 51.0724 34.2476 51.0689 34.2113L50.9494 33.716C50.809 33.8384 50.6745 33.9517 50.543 34.0502C50.4135 34.1493 50.2731 34.2334 50.1246 34.3008C49.9745 34.3699 49.8172 34.4219 49.6555 34.456C49.4736 34.4933 49.2883 34.5113 49.1027 34.5097C48.9071 34.5108 48.7126 34.4816 48.5259 34.4232C48.3543 34.3675 48.1951 34.2793 48.0568 34.1636C47.9215 34.0413 47.8135 33.8918 47.74 33.725C47.658 33.5265 47.6183 33.3131 47.6235 33.0984C47.6259 32.8875 47.6858 32.6812 47.7968 32.5017C47.9351 32.2852 48.1264 32.1076 48.3526 31.9855C48.6683 31.8142 49.0077 31.6906 49.3597 31.6185C49.8594 31.5121 50.3697 31.463 50.8807 31.4723V31.0576C50.9047 30.7242 50.8117 30.393 50.6177 30.1207C50.5203 30.0113 50.3991 29.9256 50.2634 29.8702C50.1277 29.8149 49.981 29.7914 49.8348 29.8014C49.6409 29.7968 49.4478 29.8261 49.264 29.8879C49.1231 29.9381 48.9878 30.0032 48.8606 30.0819C48.7471 30.1535 48.6485 30.2162 48.5618 30.2758C48.4917 30.3279 48.4071 30.3571 48.3198 30.3594C48.2605 30.3604 48.2022 30.3438 48.1524 30.3116C48.1073 30.2791 48.0697 30.2374 48.0418 30.1893L47.8745 29.8909C48.1476 29.6224 48.469 29.4078 48.8218 29.2584C49.1791 29.1163 49.5608 29.0453 49.9454 29.0495C50.2154 29.0457 50.4836 29.0954 50.7342 29.1957C50.9558 29.2868 51.1539 29.4265 51.314 29.6045C51.476 29.7867 51.5972 30.0013 51.6696 30.2341C51.7534 30.4984 51.7947 30.7743 51.7921 31.0516L51.7981 34.4291ZM49.3806 33.8622C49.5325 33.8631 49.6839 33.8461 49.8318 33.8115C49.9641 33.7792 50.0924 33.7321 50.2143 33.6713C50.337 33.6084 50.4531 33.5334 50.5609 33.4475C50.6741 33.3554 50.781 33.2557 50.8807 33.1491V32.0571C50.5154 32.0522 50.1505 32.0792 49.79 32.1377C49.5375 32.1768 49.2914 32.2491 49.0578 32.3525C48.8979 32.4166 48.7563 32.5191 48.6455 32.6509C48.5619 32.7674 48.5169 32.9073 48.517 33.0507C48.5142 33.1755 48.5376 33.2995 48.5857 33.4147C48.6267 33.5101 48.689 33.5948 48.768 33.6623C48.8473 33.7291 48.94 33.7779 49.0399 33.8055C49.1503 33.8403 49.2649 33.8593 49.3806 33.8622Z" fill="#777F95"/>
<path d="M54.3498 26.7397V34.4288H53.4175V26.7397H54.3498Z" fill="#777F95"/>
<path d="M64.441 34.4289H63.4221V31.0304H59.385V34.4348H58.366V26.9487H59.385V30.2845H63.4221V26.9487H64.441V34.4289Z" fill="#777F95"/>
<path d="M68.3259 29.0581C68.6261 29.0553 68.9241 29.109 69.2045 29.2163C69.4666 29.3183 69.7039 29.475 69.9007 29.6758C70.1032 29.889 70.2589 30.142 70.3579 30.4187C70.4726 30.7403 70.5283 31.0799 70.5223 31.4212C70.5312 31.5228 70.5158 31.6251 70.4774 31.7196C70.4559 31.7454 70.4282 31.7655 70.3969 31.778C70.3656 31.7905 70.3316 31.7951 70.2981 31.7912H66.772C66.7744 32.0868 66.8207 32.3804 66.9095 32.6625C66.9815 32.8907 67.0995 33.1019 67.2561 33.2831C67.3996 33.4449 67.5786 33.5715 67.7791 33.653C67.9951 33.7372 68.2255 33.7788 68.4574 33.7754C68.6595 33.7789 68.8611 33.7517 69.055 33.6948C69.2051 33.6484 69.3511 33.5895 69.4913 33.5188C69.6138 33.4561 69.7154 33.3994 69.7901 33.3457C69.8517 33.2991 69.9253 33.2712 70.0023 33.2652C70.0367 33.2632 70.0709 33.2702 70.1018 33.2853C70.1327 33.3005 70.1592 33.3234 70.1786 33.3517L70.4416 33.6918C70.3226 33.8337 70.1825 33.9564 70.0262 34.0558C69.8642 34.1581 69.692 34.2431 69.5122 34.3095C69.3277 34.375 69.1377 34.4239 68.9445 34.4557C68.753 34.4887 68.5591 34.5057 68.3648 34.5064C68.0184 34.5098 67.6745 34.447 67.3517 34.3214C67.0488 34.2 66.7756 34.0148 66.5509 33.7784C66.316 33.5191 66.137 33.2144 66.025 32.8832C65.8933 32.4932 65.8296 32.0834 65.8367 31.6719C65.8339 31.3205 65.8915 30.9714 66.007 30.6395C66.1125 30.3319 66.2792 30.0487 66.4971 29.807C66.7139 29.568 66.98 29.3787 67.277 29.2521C67.609 29.1141 67.9665 29.048 68.3259 29.0581ZM68.3468 29.7414C68.1529 29.7305 67.9587 29.7592 67.7763 29.8259C67.5939 29.8926 67.427 29.9959 67.286 30.1293C67.0113 30.4268 66.8422 30.8064 66.8049 31.2094H69.6856C69.6883 31.0069 69.658 30.8054 69.5959 30.6126C69.542 30.4414 69.4536 30.283 69.3359 30.1472C69.2195 30.0177 69.0755 29.9157 68.9146 29.8488C68.7348 29.7744 68.5415 29.7378 68.3468 29.7414Z" fill="#777F95"/>
<path d="M75.7038 34.429H75.3034C75.2286 34.4326 75.1541 34.4193 75.0852 34.3902C75.0543 34.3708 75.0283 34.3446 75.0091 34.3136C74.9899 34.2825 74.9782 34.2475 74.9746 34.2112L74.8701 33.7219C74.7296 33.8442 74.5951 33.9576 74.4607 34.0561C74.3316 34.1558 74.1912 34.2399 74.0423 34.3067C73.8932 34.3757 73.7369 34.4278 73.5762 34.4619C73.3943 34.4992 73.209 34.5172 73.0233 34.5156C72.8278 34.5166 72.6332 34.4874 72.4466 34.429C72.275 34.3733 72.1157 34.2852 71.9774 34.1695C71.8421 34.0471 71.7342 33.8977 71.6607 33.7308C71.5787 33.5323 71.539 33.3189 71.5441 33.1043C71.5465 32.8933 71.6065 32.687 71.7175 32.5075C71.8558 32.2911 72.0471 32.1134 72.2733 31.9913C72.589 31.8201 72.9283 31.6964 73.2803 31.6244C73.7801 31.5179 74.2904 31.4689 74.8013 31.4782V31.0634C74.8254 30.7301 74.7324 30.3988 74.5384 30.1265C74.441 30.0171 74.3198 29.9315 74.184 29.8761C74.0483 29.8208 73.9017 29.7972 73.7554 29.8073C73.5616 29.8024 73.3684 29.8317 73.1847 29.8938C73.0437 29.944 72.9085 30.009 72.7813 30.0877C72.6677 30.1594 72.5691 30.222 72.4825 30.2817C72.4112 30.3338 72.3257 30.363 72.2374 30.3652C72.179 30.3668 72.1215 30.3501 72.0731 30.3175C72.028 30.285 71.9903 30.2433 71.9625 30.1952L71.7952 29.8968C72.0677 29.629 72.388 29.4145 72.7394 29.2642C73.098 29.1227 73.4805 29.0518 73.866 29.0554C74.1361 29.0515 74.4042 29.1012 74.6549 29.2016C74.8764 29.2927 75.0746 29.4324 75.2346 29.6104C75.3967 29.7926 75.5179 30.0072 75.5902 30.2399C75.673 30.5044 75.7133 30.7804 75.7098 31.0574L75.7038 34.429ZM73.2893 33.8621C73.4402 33.8632 73.5907 33.8462 73.7375 33.8114C73.871 33.7795 74.0003 33.7325 74.123 33.6712C74.2457 33.6083 74.3618 33.5333 74.4696 33.4474C74.5828 33.3553 74.6897 33.2556 74.7894 33.149V32.057C74.4232 32.0523 74.0572 32.0792 73.6957 32.1376C73.4433 32.1772 73.1972 32.2494 72.9636 32.3524C72.8045 32.4165 72.6638 32.519 72.5542 32.6507C72.4692 32.7667 72.4242 32.9069 72.4257 33.0506C72.4229 33.1754 72.4463 33.2993 72.4944 33.4146C72.5343 33.5106 72.5968 33.5956 72.6767 33.6622C72.756 33.7289 72.8487 33.7778 72.9486 33.8054C73.059 33.8401 73.1736 33.8592 73.2893 33.8621Z" fill="#777F95"/>
<path d="M78.2558 26.7397V34.4288H77.3264V26.7397H78.2558Z" fill="#777F95"/>
<path d="M81.6085 34.5156C81.432 34.5264 81.2552 34.5007 81.0891 34.4401C80.923 34.3796 80.7713 34.2854 80.6433 34.1636C80.4024 33.8859 80.281 33.5246 80.3056 33.1581V29.9178H79.6691C79.618 29.9198 79.568 29.9028 79.5287 29.87C79.5077 29.8503 79.4914 29.8261 79.481 29.7993C79.4707 29.7724 79.4665 29.7435 79.4689 29.7149V29.3449L80.3385 29.2345L80.5536 27.6024C80.5588 27.553 80.5823 27.5072 80.6194 27.4741C80.6606 27.4403 80.7125 27.4224 80.7658 27.4234H81.2379V29.2405H82.753V29.9118H81.2379V33.0864C81.2305 33.176 81.241 33.2662 81.2687 33.3517C81.2964 33.4372 81.3408 33.5164 81.3993 33.5847C81.4544 33.6385 81.52 33.6806 81.5919 33.7083C81.6638 33.736 81.7406 33.7488 81.8177 33.7458C81.904 33.7482 81.99 33.7351 82.0717 33.7071C82.1363 33.6848 82.1984 33.6558 82.2569 33.6205C82.3037 33.5948 82.3486 33.5659 82.3914 33.534C82.4184 33.5113 82.4519 33.4978 82.487 33.4952C82.5147 33.4978 82.5413 33.5074 82.5643 33.523C82.5873 33.5387 82.606 33.5599 82.6185 33.5847L82.8904 34.0263C82.7223 34.1814 82.5253 34.302 82.3107 34.3814C82.0865 34.4676 81.8487 34.5131 81.6085 34.5156Z" fill="#777F95"/>
<path d="M84.0081 34.4288V26.7397H84.9404V29.8517C85.1576 29.6186 85.4121 29.423 85.6934 29.2729C85.9879 29.1252 86.3141 29.0514 86.6437 29.0581C86.9068 29.0529 87.1681 29.1016 87.4116 29.2013C87.6257 29.2906 87.8152 29.4298 87.9645 29.6071C88.1189 29.7939 88.2338 30.0101 88.3021 30.2426C88.3826 30.5086 88.4219 30.7853 88.4187 31.0631V34.4288H87.4863V31.0631C87.5062 30.7294 87.409 30.3992 87.2114 30.1292C87.1047 30.0122 86.9722 29.9214 86.8245 29.8639C86.6768 29.8065 86.5177 29.7839 86.3598 29.798C86.0897 29.7962 85.8239 29.8652 85.5888 29.998C85.3397 30.1382 85.1164 30.3198 84.9284 30.535V34.4138L84.0081 34.4288Z" fill="#777F95"/>
<path d="M98.6924 30.6905C98.7004 31.2128 98.6102 31.732 98.4264 32.2211C98.2645 32.6628 98.0094 33.0645 97.6784 33.3991C97.3474 33.7337 96.9483 33.9934 96.508 34.1605C96.0317 34.3443 95.5245 34.4354 95.0139 34.4291H92.2109V26.9489H95.0139C95.5244 26.944 96.0313 27.0351 96.508 27.2175C96.946 27.3859 97.3432 27.6452 97.6734 27.9783C98.0051 28.3193 98.2616 28.7258 98.4264 29.1718C98.6087 29.6572 98.6989 30.1722 98.6924 30.6905ZM97.6525 30.6905C97.6588 30.2721 97.5952 29.8557 97.4642 29.4582C97.3521 29.1186 97.171 28.8058 96.9323 28.5392C96.7001 28.2879 96.4141 28.0921 96.0956 27.9664C95.7473 27.8304 95.376 27.7625 95.0019 27.7665H93.209V33.6115H95.0019C95.3761 33.6169 95.7477 33.549 96.0956 33.4116C96.4134 33.286 96.6992 33.0913 96.9323 32.8417C97.1716 32.5756 97.3527 32.2626 97.4642 31.9228C97.5954 31.5254 97.659 31.1089 97.6525 30.6905Z" fill="#777F95"/>
<path d="M103.922 34.429H103.509C103.435 34.4326 103.36 34.4193 103.291 34.3902C103.26 34.3708 103.234 34.3446 103.215 34.3136C103.196 34.2825 103.184 34.2475 103.181 34.2112L103.076 33.7219C102.936 33.8442 102.801 33.9576 102.667 34.0561C102.538 34.1558 102.397 34.2399 102.248 34.3067C102.099 34.3757 101.943 34.4278 101.782 34.4619C101.6 34.4992 101.415 34.5172 101.229 34.5156C101.034 34.5166 100.839 34.4874 100.653 34.429C100.481 34.374 100.321 34.2858 100.184 34.1695C100.047 34.0479 99.9392 33.8983 99.8667 33.7308C99.7847 33.5323 99.745 33.3189 99.7502 33.1043C99.7526 32.8933 99.8125 32.687 99.9235 32.5075C100.062 32.2911 100.253 32.1134 100.479 31.9913C100.795 31.8201 101.134 31.6964 101.486 31.6244C101.986 31.5178 102.496 31.4687 103.007 31.4782V31.0634C103.031 30.7301 102.938 30.3988 102.744 30.1265C102.647 30.0171 102.526 29.9315 102.39 29.8761C102.254 29.8208 102.108 29.7972 101.961 29.8073C101.767 29.8027 101.573 29.8319 101.388 29.8938C101.248 29.9446 101.114 30.0096 100.987 30.0877C100.874 30.1594 100.775 30.222 100.689 30.2817C100.617 30.3338 100.532 30.363 100.443 30.3652C100.385 30.3668 100.328 30.3501 100.279 30.3175C100.233 30.2858 100.195 30.2439 100.169 30.1952L100.001 29.8968C100.274 29.629 100.594 29.4145 100.945 29.2642C101.304 29.1222 101.687 29.0513 102.072 29.0554C102.342 29.0515 102.61 29.1012 102.861 29.2016C103.082 29.2927 103.281 29.4324 103.441 29.6104C103.603 29.7926 103.724 30.0072 103.796 30.2399C103.879 30.5044 103.919 30.7804 103.916 31.0574L103.922 34.429ZM101.507 33.8621C101.658 33.8632 101.809 33.8462 101.956 33.8114C102.089 33.7795 102.218 33.7325 102.341 33.6712C102.463 33.6089 102.578 33.5339 102.685 33.4474C102.8 33.3561 102.907 33.2564 103.007 33.149V32.057C102.641 32.0523 102.275 32.0792 101.914 32.1376C101.661 32.1772 101.415 32.2494 101.182 32.3524C101.022 32.4165 100.882 32.519 100.772 32.6507C100.687 32.7667 100.642 32.9069 100.644 33.0506C100.638 33.1757 100.658 33.3008 100.703 33.4176C100.743 33.5136 100.806 33.5985 100.886 33.6652C100.965 33.7319 101.058 33.7808 101.158 33.8084C101.271 33.843 101.389 33.861 101.507 33.8621Z" fill="#777F95"/>
<path d="M107.044 34.5156C106.868 34.5263 106.692 34.5006 106.527 34.44C106.361 34.3794 106.21 34.2853 106.082 34.1635C105.841 33.8859 105.72 33.5245 105.745 33.158V29.9177H105.108C105.057 29.9203 105.007 29.9032 104.968 29.87C104.947 29.8503 104.93 29.8261 104.92 29.7992C104.91 29.7724 104.905 29.7435 104.908 29.7148V29.3448L105.783 29.2404L105.999 27.6083C106 27.5836 106.007 27.5595 106.018 27.5375C106.03 27.5155 106.045 27.4959 106.064 27.48C106.105 27.4458 106.157 27.4277 106.211 27.4293H106.68V29.2404H108.195V29.9117H106.68V33.0864C106.673 33.176 106.683 33.2661 106.711 33.3517C106.738 33.4372 106.783 33.5164 106.841 33.5847C106.896 33.6385 106.962 33.6805 107.034 33.7082C107.106 33.7359 107.183 33.7487 107.26 33.7458C107.346 33.7482 107.432 33.735 107.514 33.707C107.578 33.6847 107.64 33.6557 107.699 33.6205C107.745 33.594 107.79 33.5651 107.833 33.534C107.86 33.5113 107.894 33.4977 107.929 33.4952C107.957 33.4977 107.983 33.5073 108.006 33.523C108.029 33.5386 108.048 33.5599 108.06 33.5847L108.332 34.0263C108.164 34.1813 107.967 34.3019 107.753 34.3813C107.527 34.4682 107.287 34.5137 107.044 34.5156Z" fill="#777F95"/>
<path d="M113.335 34.4286H112.922C112.847 34.4318 112.771 34.4186 112.701 34.3898C112.671 34.3697 112.646 34.3433 112.627 34.3123C112.609 34.2814 112.597 34.2467 112.594 34.2108L112.489 33.7215C112.349 33.8438 112.214 33.9572 112.08 34.0556C111.95 34.1553 111.81 34.2395 111.661 34.3063C111.512 34.3753 111.356 34.4273 111.195 34.4614C111.013 34.4988 110.828 34.5168 110.642 34.5151C110.447 34.5162 110.252 34.487 110.065 34.4286C109.894 34.3736 109.734 34.2854 109.596 34.169C109.46 34.0475 109.352 33.8978 109.28 33.7304C109.198 33.5319 109.158 33.3185 109.163 33.1038C109.166 32.8934 109.225 32.6875 109.333 32.5071C109.474 32.2913 109.666 32.1138 109.892 31.9909C110.208 31.8196 110.547 31.696 110.899 31.6239C111.399 31.5173 111.909 31.4683 112.42 31.4777V31.063C112.443 30.7298 112.35 30.399 112.157 30.1261C112.06 30.0168 111.938 29.9313 111.803 29.876C111.667 29.8206 111.521 29.797 111.374 29.8068C111.18 29.8022 110.985 29.8315 110.801 29.8934C110.66 29.9429 110.526 30.008 110.4 30.0873C110.287 30.1589 110.188 30.2216 110.101 30.2812C110.03 30.3334 109.945 30.3625 109.856 30.3648C109.798 30.3663 109.74 30.3496 109.692 30.317C109.646 30.2846 109.607 30.2429 109.578 30.1947L109.411 29.8963C109.685 29.6285 110.006 29.414 110.358 29.2638C110.716 29.122 111.097 29.051 111.482 29.0549C111.753 29.0507 112.022 29.1004 112.274 29.2011C112.495 29.2929 112.693 29.4325 112.854 29.6099C113.014 29.7929 113.136 30.0073 113.209 30.2395C113.292 30.504 113.332 30.7799 113.329 31.057L113.335 34.4286ZM110.92 33.8617C111.071 33.8627 111.222 33.8457 111.368 33.811C111.502 33.7791 111.631 33.732 111.754 33.6707C111.876 33.6085 111.991 33.5335 112.097 33.447C112.212 33.3556 112.32 33.2559 112.42 33.1486V32.0565C112.054 32.0518 111.688 32.0788 111.327 32.1371C111.074 32.1767 110.828 32.2489 110.594 32.3519C110.435 32.4153 110.294 32.5179 110.185 32.6503C110.1 32.7662 110.055 32.9065 110.057 33.0501C110.054 33.1749 110.077 33.2989 110.125 33.4141C110.165 33.5101 110.228 33.5951 110.308 33.6618C110.387 33.7285 110.48 33.7774 110.579 33.805C110.69 33.8397 110.804 33.8588 110.92 33.8617Z" fill="#777F95"/>
<path d="M118.235 31.627V34.4227H117.225V26.9486H119.437C119.855 26.9402 120.272 26.9956 120.674 27.1127C120.994 27.2054 121.291 27.3639 121.546 27.5781C121.774 27.7783 121.95 28.03 122.06 28.3121C122.178 28.6166 122.235 28.9407 122.231 29.2669C122.235 29.5942 122.173 29.9189 122.048 30.2217C121.928 30.5078 121.744 30.7628 121.51 30.9676C121.255 31.1891 120.957 31.3557 120.635 31.4569C120.249 31.5793 119.845 31.6388 119.44 31.633L118.235 31.627ZM118.235 30.8214H119.431C119.691 30.826 119.951 30.7867 120.199 30.7051C120.404 30.6389 120.594 30.5301 120.754 30.3858C120.904 30.2486 121.021 30.0793 121.095 29.8905C121.174 29.69 121.212 29.4762 121.209 29.2609C121.22 29.0539 121.187 28.8468 121.111 28.6537C121.035 28.4606 120.919 28.2861 120.769 28.1421C120.389 27.8504 119.914 27.71 119.437 27.7482H118.241L118.235 30.8214Z" fill="#777F95"/>
<path d="M125.458 29.0584C125.817 29.053 126.173 29.1179 126.507 29.2494C126.807 29.3737 127.077 29.5609 127.299 29.7984C127.521 30.0491 127.692 30.3411 127.801 30.6577C128.032 31.3909 128.032 32.1772 127.801 32.9104C127.692 33.2264 127.522 33.5175 127.299 33.7667C127.079 34.0065 126.807 34.1932 126.504 34.3127C125.83 34.5657 125.086 34.5657 124.412 34.3127C124.108 34.1939 123.835 34.0072 123.614 33.7667C123.387 33.5194 123.215 33.2278 123.106 32.9104C122.871 32.1779 122.871 31.3903 123.106 30.6577C123.215 30.3397 123.388 30.0473 123.614 29.7984C123.835 29.557 124.107 29.3666 124.409 29.2405C124.743 29.1115 125.1 29.0496 125.458 29.0584ZM125.458 33.7787C125.681 33.7937 125.905 33.7537 126.109 33.6621C126.314 33.5706 126.492 33.4302 126.629 33.2535C126.91 32.8185 127.045 32.3054 127.015 31.7885C127.045 31.2689 126.91 30.753 126.629 30.3146C126.492 30.1379 126.314 29.9976 126.109 29.906C125.905 29.8144 125.681 29.7744 125.458 29.7895C125.221 29.7837 124.985 29.8295 124.768 29.9237C124.575 30.0124 124.407 30.1466 124.278 30.3146C124.138 30.5029 124.036 30.7168 123.979 30.9441C123.911 31.2204 123.879 31.5042 123.883 31.7885C123.879 32.072 123.911 32.3548 123.979 32.6299C124.035 32.8558 124.137 33.0679 124.278 33.2535C124.406 33.4215 124.575 33.5548 124.768 33.6414C124.985 33.7381 125.221 33.785 125.458 33.7787Z" fill="#777F95"/>
<path d="M129.232 34.4289V29.1418H129.767C129.841 29.1339 129.916 29.1541 129.976 29.1985C130.02 29.2555 130.047 29.3238 130.054 29.3954L130.117 30.2219C130.272 29.8865 130.502 29.5907 130.789 29.3566C130.978 29.2164 131.196 29.1203 131.427 29.0753C131.658 29.0304 131.897 29.0378 132.125 29.0971C132.24 29.128 132.35 29.1741 132.453 29.2343L132.334 29.9295C132.327 29.9672 132.307 30.0012 132.278 30.0253C132.248 30.0495 132.211 30.0621 132.172 30.0608C132.095 30.0545 132.018 30.0375 131.945 30.0101C131.808 29.9719 131.666 29.9548 131.524 29.9593C131.225 29.9539 130.935 30.0603 130.711 30.2577C130.467 30.4846 130.28 30.7657 130.164 31.0782V34.4439L129.232 34.4289Z" fill="#777F95"/>
<path d="M135.158 34.5157C134.981 34.5268 134.804 34.5013 134.638 34.4407C134.472 34.3801 134.32 34.2858 134.193 34.1636C133.952 33.886 133.83 33.5246 133.855 33.1581V29.9178H133.218C133.166 29.92 133.115 29.903 133.075 29.8701C133.055 29.8497 133.04 29.8254 133.03 29.7986C133.02 29.7719 133.016 29.7433 133.018 29.7149V29.3449L133.888 29.2345L134.1 27.6025C134.106 27.5527 134.131 27.507 134.169 27.4742C134.21 27.4399 134.262 27.4219 134.315 27.4234H134.787V29.2405H136.302V29.9118H134.787V33.0865C134.78 33.1761 134.79 33.2662 134.818 33.3518C134.846 33.4373 134.89 33.5165 134.949 33.5848C135.004 33.6386 135.069 33.6806 135.141 33.7083C135.213 33.736 135.29 33.7488 135.367 33.7459C135.453 33.7483 135.539 33.7351 135.621 33.7071C135.685 33.6842 135.747 33.6553 135.806 33.6206L135.941 33.5341C135.968 33.5114 136.001 33.4978 136.036 33.4953C136.064 33.4979 136.091 33.5074 136.114 33.5231C136.137 33.5387 136.155 33.56 136.168 33.5848L136.44 34.0264C136.271 34.1821 136.073 34.3027 135.857 34.3814C135.634 34.4676 135.397 34.5131 135.158 34.5157Z" fill="#777F95"/>
<path d="M141.448 34.429H141.045C140.969 34.4322 140.893 34.419 140.823 34.3902C140.793 34.3702 140.768 34.3437 140.75 34.3128C140.731 34.2818 140.719 34.2471 140.716 34.2112L140.611 33.7219C140.471 33.8442 140.336 33.9576 140.202 34.0561C140.073 34.1558 139.932 34.2399 139.784 34.3067C139.634 34.3757 139.478 34.4277 139.317 34.4618C139.135 34.4992 138.95 34.5172 138.765 34.5155C138.569 34.5166 138.374 34.4874 138.188 34.429C138.016 34.3747 137.856 34.2864 137.719 34.1694C137.582 34.0479 137.474 33.8983 137.402 33.7308C137.32 33.5323 137.28 33.3189 137.285 33.1043C137.288 32.8938 137.347 32.688 137.456 32.5075C137.596 32.2917 137.788 32.1143 138.014 31.9913C138.328 31.8219 138.664 31.6993 139.013 31.6273C139.512 31.5207 140.023 31.4717 140.534 31.4811V31.0664C140.556 30.7332 140.463 30.4024 140.271 30.1295C140.173 30.0203 140.052 29.9347 139.916 29.8794C139.78 29.8241 139.634 29.8004 139.488 29.8102C139.293 29.8056 139.099 29.8349 138.914 29.8968C138.774 29.9463 138.639 30.0114 138.514 30.0907C138.4 30.1623 138.301 30.225 138.215 30.2847C138.143 30.3368 138.058 30.3659 137.97 30.3682C137.911 30.3697 137.854 30.3531 137.805 30.3205C137.759 30.288 137.721 30.2464 137.692 30.1981L137.524 29.8998C137.798 29.6319 138.119 29.4174 138.472 29.2672C138.829 29.1254 139.211 29.0545 139.595 29.0583C139.866 29.0542 140.136 29.1039 140.387 29.2046C140.608 29.2963 140.806 29.4359 140.967 29.6133C141.128 29.7963 141.249 30.0107 141.322 30.2429C141.405 30.5074 141.446 30.7833 141.442 31.0604L141.448 34.429ZM139.033 33.8621C139.184 33.8632 139.335 33.8461 139.482 33.8114C139.615 33.7795 139.744 33.7325 139.867 33.6712C139.989 33.6089 140.105 33.5339 140.211 33.4474C140.326 33.3561 140.434 33.2563 140.534 33.149V32.057C140.167 32.0521 139.801 32.0791 139.44 32.1375C139.188 32.1772 138.941 32.2494 138.708 32.3524C138.548 32.4157 138.407 32.5183 138.298 32.6507C138.213 32.7667 138.168 32.9069 138.17 33.0505C138.167 33.1753 138.191 33.2993 138.239 33.4146C138.278 33.5106 138.341 33.5955 138.421 33.6622C138.5 33.7289 138.593 33.7778 138.693 33.8054C138.803 33.8401 138.918 33.8592 139.033 33.8621Z" fill="#777F95"/>
<path d="M144 26.7397V34.4288H143.071V26.7397H144Z" fill="#777F95"/>
<path d="M5.07983 0C4.9413 0.00155845 4.80444 0.0303474 4.67705 0.084723C4.54967 0.139099 4.43426 0.217996 4.33742 0.316909C4.24058 0.415822 4.16419 0.532814 4.11264 0.661203C4.06108 0.789593 4.03536 0.926866 4.03693 1.06518V37.9348C4.03693 38.2118 4.14712 38.4774 4.34327 38.6732C4.53941 38.8691 4.80543 38.9791 5.08281 38.9791C5.3602 38.9791 5.62622 38.8691 5.82236 38.6732C6.0185 38.4774 6.1287 38.2118 6.1287 37.9348V1.06518C6.13027 0.926368 6.10435 0.788611 6.05242 0.659834C6.00049 0.531058 5.92358 0.413802 5.8261 0.314811C5.72863 0.215819 5.61251 0.137045 5.48444 0.0830179C5.35637 0.0289911 5.21886 0.000777599 5.07983 0V0Z" fill="#4091AA"/>
<path d="M9.08415 22.5838C8.82745 22.5664 8.57421 22.6506 8.37909 22.8181C8.18398 22.9855 8.06264 23.2229 8.04126 23.4789V38.099C8.06188 38.3554 8.18301 38.5932 8.3783 38.7608C8.5736 38.9284 8.82726 39.0123 9.08415 38.9942C9.34136 39.0123 9.59536 38.9285 9.79113 38.761C9.9869 38.5934 10.1087 38.3556 10.13 38.099V23.4789C10.1079 23.2226 9.98594 22.9853 9.79035 22.8179C9.59476 22.6505 9.34118 22.5664 9.08415 22.5838Z" fill="#3FA4B2"/>
<path d="M9.08416 19.2479C9.53635 19.2479 9.90293 18.8818 9.90293 18.4303C9.90293 17.9788 9.53635 17.6128 9.08416 17.6128C8.63196 17.6128 8.26538 17.9788 8.26538 18.4303C8.26538 18.8818 8.63196 19.2479 9.08416 19.2479Z" fill="#3FA4B2"/>
<path d="M9.08415 21.8526C9.66013 21.8526 10.127 21.3864 10.127 20.8113C10.127 20.2362 9.66013 19.77 9.08415 19.77C8.50818 19.77 8.04126 20.2362 8.04126 20.8113C8.04126 21.3864 8.50818 21.8526 9.08415 21.8526Z" fill="#3FA4B2"/>
<path d="M17.1256 36.9175C16.9195 36.9181 16.7181 36.9796 16.547 37.0944C16.3759 37.2092 16.2427 37.372 16.1642 37.5624C16.0857 37.7527 16.0655 37.962 16.1061 38.1638C16.1467 38.3656 16.2462 38.5508 16.3922 38.6962C16.5382 38.8415 16.724 38.9404 16.9262 38.9803C17.1284 39.0203 17.338 38.9995 17.5284 38.9206C17.7188 38.8417 17.8815 38.7082 17.9959 38.537C18.1104 38.3658 18.1715 38.1646 18.1715 37.9588C18.1715 37.8218 18.1444 37.6861 18.0918 37.5596C18.0392 37.4331 17.9621 37.3182 17.865 37.2214C17.7678 37.1247 17.6525 37.048 17.5256 36.9959C17.3987 36.9437 17.2628 36.9171 17.1256 36.9175Z" fill="#3DD6C8"/>
<path d="M17.1045 8.05615C16.8208 8.05615 16.5487 8.16869 16.348 8.36901C16.1474 8.56933 16.0347 8.84102 16.0347 9.12432V35.0825C16.027 35.2274 16.049 35.3722 16.0992 35.5083C16.1494 35.6444 16.2269 35.7688 16.3268 35.8741C16.4268 35.9793 16.5471 36.0631 16.6806 36.1203C16.814 36.1776 16.9577 36.2071 17.103 36.2071C17.2482 36.2071 17.392 36.1776 17.5254 36.1203C17.6588 36.0631 17.7792 35.9793 17.8792 35.8741C17.9791 35.7688 18.0566 35.6444 18.1068 35.5083C18.157 35.3722 18.179 35.2274 18.1713 35.0825V9.12432C18.1717 8.98419 18.1444 8.84535 18.0909 8.71577C18.0375 8.5862 17.959 8.46842 17.8599 8.36919C17.7608 8.26996 17.643 8.19124 17.5134 8.13752C17.3838 8.0838 17.2448 8.05615 17.1045 8.05615Z" fill="#3DD6C8"/>
<path d="M1.0429 11.2068C1.49509 11.2068 1.86167 10.8408 1.86167 10.3893C1.86167 9.9378 1.49509 9.57178 1.0429 9.57178C0.5907 9.57178 0.224121 9.9378 0.224121 10.3893C0.224121 10.8408 0.5907 11.2068 1.0429 11.2068Z" fill="#407BA0"/>
<path d="M1.04289 13.8116C1.61887 13.8116 2.08579 13.3454 2.08579 12.7703C2.08579 12.1952 1.61887 11.729 1.04289 11.729C0.466919 11.729 0 12.1952 0 12.7703C0 13.3454 0.466919 13.8116 1.04289 13.8116Z" fill="#407BA0"/>
<path d="M13.184 30.4609C12.9003 30.4609 12.6282 30.5735 12.4276 30.7738C12.227 30.9741 12.1143 31.2458 12.1143 31.5291V37.9321C12.1143 38.2154 12.227 38.4871 12.4276 38.6874C12.6282 38.8878 12.9003 39.0003 13.184 39.0003C13.4678 39.0003 13.7399 38.8878 13.9405 38.6874C14.1411 38.4871 14.2538 38.2154 14.2538 37.9321V31.5291C14.2538 31.2458 14.1411 30.9741 13.9405 30.7738C13.7399 30.5735 13.4678 30.4609 13.184 30.4609Z" fill="#3FBBBD"/>
<path d="M13.184 13.0269C12.9003 13.0269 12.6282 13.1394 12.4276 13.3397C12.227 13.54 12.1143 13.8117 12.1143 14.095V29.0374C12.1143 29.3207 12.227 29.5924 12.4276 29.7927C12.6282 29.993 12.9003 30.1056 13.184 30.1056C13.4678 30.1056 13.7399 29.993 13.9405 29.7927C14.1411 29.5924 14.2538 29.3207 14.2538 29.0374V14.095C14.2538 13.8117 14.1411 13.54 13.9405 13.3397C13.7399 13.1394 13.4678 13.0269 13.184 13.0269Z" fill="#3FBBBD"/>
<path d="M1.06982 20.1431C0.786092 20.1431 0.513987 20.2556 0.313363 20.4559C0.112739 20.6562 2.93389e-05 20.9279 2.93389e-05 21.2112V37.92C-0.00764447 38.0648 0.0142979 38.2097 0.0645192 38.3458C0.11474 38.4818 0.192189 38.6063 0.292143 38.7115C0.392098 38.8167 0.512465 38.9005 0.645908 38.9578C0.779352 39.0151 0.923077 39.0446 1.06832 39.0446C1.21357 39.0446 1.35729 39.0151 1.49074 38.9578C1.62418 38.9005 1.74455 38.8167 1.8445 38.7115C1.94446 38.6063 2.02191 38.4818 2.07213 38.3458C2.12235 38.2097 2.14429 38.0648 2.13662 37.92V21.2112C2.13701 21.0711 2.10971 20.9323 2.05627 20.8027C2.00283 20.6731 1.92432 20.5553 1.82522 20.4561C1.72612 20.3569 1.60838 20.2782 1.47875 20.2244C1.34913 20.1707 1.21016 20.1431 1.06982 20.1431Z" fill="#407BA0"/>
<path d="M1.06982 14.4502C0.786609 14.4502 0.514956 14.5623 0.314417 14.762C0.113879 14.9617 0.000820424 15.2326 2.93389e-05 15.5154V18.7199C-0.00764447 18.8647 0.0142979 19.0096 0.0645192 19.1456C0.11474 19.2817 0.192189 19.4062 0.292143 19.5114C0.392098 19.6166 0.512465 19.7004 0.645908 19.7577C0.779352 19.8149 0.923077 19.8445 1.06832 19.8445C1.21357 19.8445 1.35729 19.8149 1.49074 19.7577C1.62418 19.7004 1.74455 19.6166 1.8445 19.5114C1.94446 19.4062 2.02191 19.2817 2.07213 19.1456C2.12235 19.0096 2.14429 18.8647 2.13662 18.7199V15.5154C2.13662 15.2329 2.02422 14.9619 1.82416 14.7622C1.62409 14.5624 1.35275 14.4502 1.06982 14.4502Z" fill="#407BA0"/>
</svg>
