<svg width="24" height="21" viewBox="0 0 24 21" fill="none" xmlns="http://www.w3.org/2000/svg">
<rect width="24" height="21" fill="black" fill-opacity="0"/>
<mask id="mask0" mask-type="alpha" maskUnits="userSpaceOnUse" x="0" y="0" width="24" height="22">
<path d="M15.097 1.00836e-06C16.8911 1.00836e-06 18.5476 0.961183 19.4379 2.51874L22.5817 8.01874C23.4605 9.55619 23.4605 11.4438 22.5817 12.9813L19.4379 18.4813C18.5476 20.0388 16.8911 21 15.097 21H8.90299C7.10894 21 5.4524 20.0388 4.5621 18.4813L1.41829 12.9813C0.539483 11.4438 0.539484 9.55619 1.41829 8.01874L4.5621 2.51874C5.4524 0.961181 7.10894 1.00836e-06 8.90299 1.00836e-06H15.097Z" fill="#F5B33C"/>
</mask>
<g mask="url(#mask0)">
<path d="M15.097 1.00836e-06C16.8911 1.00836e-06 18.5476 0.961183 19.4379 2.51874L22.5817 8.01874C23.4605 9.55619 23.4605 11.4438 22.5817 12.9813L19.4379 18.4813C18.5476 20.0388 16.8911 21 15.097 21H8.90299C7.10894 21 5.4524 20.0388 4.5621 18.4813L1.41829 12.9813C0.539483 11.4438 0.539484 9.55619 1.41829 8.01874L4.5621 2.51874C5.4524 0.961181 7.10894 1.00836e-06 8.90299 1.00836e-06H15.097Z" fill="white"/>
<path d="M2.14149 -3.19189C3.93636 -3.19189 5.59352 -2.22985 6.48351 -0.67118L9.95302 5.40504C10.8303 6.94148 10.8303 8.82717 9.95303 10.3636L6.48351 16.4398C5.59352 17.9985 3.93636 18.9605 2.14149 18.9605H-4.69444C-6.4893 18.9605 -8.14646 17.9985 -9.03646 16.4398L-12.506 10.3636C-13.3833 8.82717 -13.3833 6.94148 -12.506 5.40504L-9.03646 -0.671175C-8.14646 -2.22984 -6.4893 -3.19189 -4.69444 -3.19189H2.14149Z" fill="#42C7BB" style="mix-blend-mode:multiply"/>
<path d="M16.0424 6.91479C17.8311 6.91479 19.4836 7.87032 20.3758 9.42059L23.7257 15.2407C24.6144 16.7848 24.6144 18.6851 23.7257 20.2291L20.3758 26.0492C19.4836 27.5995 17.8311 28.555 16.0424 28.555H9.37696C7.58824 28.555 5.93578 27.5995 5.04349 26.0492L1.69363 20.2291C0.804928 18.6851 0.804926 16.7848 1.69363 15.2407L5.04349 9.4206C5.93577 7.87033 7.58824 6.91479 9.37696 6.91479H16.0424Z" fill="#B2A5D1"/>
<path d="M20.1712 -7.68311C21.9599 -7.68311 23.6124 -6.72763 24.5047 -5.17741L28.3706 1.53905C29.2594 3.08316 29.2594 4.98355 28.3706 6.52766L24.5047 13.2441C23.6124 14.7943 21.9599 15.7498 20.1712 15.7498H12.4737C10.6851 15.7498 9.03262 14.7943 8.14032 13.2441L4.27434 6.52766C3.38555 4.98355 3.38555 3.08316 4.27434 1.53905L8.14032 -5.17741C9.03262 -6.72762 10.6851 -7.68311 12.4737 -7.68311H20.1712Z" fill="#73C8CC" style="mix-blend-mode:multiply"/>
<path d="M24.6541 12.4025C26.4435 12.4025 28.0965 13.3588 28.9885 14.91L31.5989 19.4497C32.4863 20.9928 32.4863 22.8914 31.5989 24.4345L28.9885 28.9742C28.0965 30.5254 26.4435 31.4817 24.6541 31.4817H19.4748C17.6853 31.4817 16.0323 30.5254 15.1403 28.9742L12.5299 24.4345C11.6425 22.8914 11.6425 20.9928 12.5299 19.4497L15.1403 14.91C16.0323 13.3588 17.6853 12.4025 19.4748 12.4025H24.6541Z" fill="#C7D6FF" style="mix-blend-mode:multiply"/>
</g>
</svg>
