<svg xmlns="http://www.w3.org/2000/svg" viewBox="0 0 266.25 30"><defs><style>.cls-1,.cls-6{fill:#fff;}.cls-2{fill:#ca4382;}.cls-3{fill:#e567a1;}.cls-4{fill:#2f8e94;}.cls-5{fill:#fccb71;}.cls-6{opacity:0.85;isolation:isolate;}.cls-7{fill:none;stroke:#7ec8cc;stroke-miterlimit:10;stroke-width:2px;}</style></defs><title>Asset 1</title><g id="Layer_2" data-name="Layer 2"><g id="Layer_1-2" data-name="Layer 1"><path class="cls-1" d="M55.11,15.15l-1.59-4.33c-.07-.19-.16-.42-.24-.68s-.17-.55-.25-.86c-.08.31-.16.59-.24.86s-.17.5-.25.7L51,15.15Zm4.27,4.91H57.51a.81.81,0,0,1-.51-.15,1.08,1.08,0,0,1-.3-.4l-1-2.65H50.34l-1,2.65a.92.92,0,0,1-.28.38.76.76,0,0,1-.52.17H46.68l5.12-13h2.47Zm15.46-13v13H72.71v-8.4c0-.34,0-.7.05-1.09L68.83,18a.92.92,0,0,1-.86.53h-.34a.91.91,0,0,1-.85-.53l-4-7.42c0,.2,0,.39,0,.59a4.88,4.88,0,0,1,0,.53v8.4H60.73v-13h2.11a.65.65,0,0,1,.2,0,.43.43,0,0,1,.17.12.78.78,0,0,1,.16.22l3.89,7.22a4.11,4.11,0,0,1,.28.6c.09.2.18.41.26.63.09-.23.17-.44.26-.64s.19-.41.29-.61l3.85-7.2a.61.61,0,0,1,.15-.22.66.66,0,0,1,.17-.12.78.78,0,0,1,.22,0h2.1ZM82,13.59a3.72,3.72,0,0,0,1.17-.16A2,2,0,0,0,84,13a1.9,1.9,0,0,0,.5-.75,2.91,2.91,0,0,0,.16-1,2.59,2.59,0,0,0-.16-.95A1.89,1.89,0,0,0,84,9.53a2,2,0,0,0-.82-.45A3.72,3.72,0,0,0,82,8.92h-1.8v4.67Zm0-6.54a7.54,7.54,0,0,1,2.26.3,4.43,4.43,0,0,1,1.58.86,3.43,3.43,0,0,1,.92,1.31A4.56,4.56,0,0,1,87,11.2a4.59,4.59,0,0,1-.31,1.73,3.49,3.49,0,0,1-1,1.35,4.4,4.4,0,0,1-1.58.89,7,7,0,0,1-2.22.31h-1.8v4.58H77.74v-13Zm6.3,6.65h4.66v1.85H88.27Zm14,1.45-1.59-4.33c-.08-.19-.16-.42-.24-.68s-.17-.55-.25-.86c-.08.31-.16.59-.25.86s-.16.5-.24.7l-1.57,4.31Zm4.27,4.91h-1.87a.81.81,0,0,1-.51-.15,1,1,0,0,1-.3-.4l-1-2.65H97.52l-1,2.65a.81.81,0,0,1-.27.38.76.76,0,0,1-.52.17H93.86L99,7.05h2.47Zm12.9-6.5a6.94,6.94,0,0,1-.47,2.62,5.94,5.94,0,0,1-3.42,3.41,7.5,7.5,0,0,1-2.7.47h-5v-13h5a7.29,7.29,0,0,1,2.7.48,6,6,0,0,1,3.42,3.4A7,7,0,0,1,119.46,13.56Zm-2.48,0a6,6,0,0,0-.29-1.92,3.77,3.77,0,0,0-.82-1.44,3.4,3.4,0,0,0-1.29-.91A4.45,4.45,0,0,0,112.87,9h-2.53v9.17h2.53a4.45,4.45,0,0,0,1.71-.32,3.49,3.49,0,0,0,1.29-.9,3.77,3.77,0,0,0,.82-1.44A6,6,0,0,0,117,13.56ZM128.4,12.5H129a1.49,1.49,0,0,0,.56-.09,1,1,0,0,0,.39-.3l3.59-4.55a1.27,1.27,0,0,1,.47-.39,1.48,1.48,0,0,1,.63-.12h2.09l-4.38,5.41a2.45,2.45,0,0,1-.81.7,1.62,1.62,0,0,1,.54.31,2,2,0,0,1,.45.5L137,20.06h-2.13a1.55,1.55,0,0,1-.65-.11,1.2,1.2,0,0,1-.35-.36l-3.68-4.81a.92.92,0,0,0-.4-.34,1.56,1.56,0,0,0-.64-.1h-.77v5.72H126v-13h2.42ZM140.05,12a7,7,0,0,1,.58-.51,3.8,3.8,0,0,1,.66-.41,3.49,3.49,0,0,1,.75-.26,3.83,3.83,0,0,1,.86-.1,3.18,3.18,0,0,1,1.34.27,2.4,2.4,0,0,1,1,.72,3,3,0,0,1,.6,1.1,4.56,4.56,0,0,1,.2,1.42v5.87h-2.22V14.19a2,2,0,0,0-.39-1.31,1.43,1.43,0,0,0-1.17-.47,2.4,2.4,0,0,0-1.09.26,4.13,4.13,0,0,0-.95.71v6.68H138V10.83h1.36a.53.53,0,0,1,.56.4Zm12.16-1.28a5.06,5.06,0,0,1,1.87.34,4,4,0,0,1,2.36,2.44,5.54,5.54,0,0,1,.33,2,5.63,5.63,0,0,1-.33,2,4,4,0,0,1-2.36,2.45,4.87,4.87,0,0,1-1.87.34,5,5,0,0,1-1.88-.34,4.2,4.2,0,0,1-1.45-.95,4.36,4.36,0,0,1-.92-1.5,5.63,5.63,0,0,1-.33-2,5.54,5.54,0,0,1,.33-2,4.36,4.36,0,0,1,.92-1.5,4.17,4.17,0,0,1,1.45-.94A5.16,5.16,0,0,1,152.21,10.68Zm0,7.81a2,2,0,0,0,1.71-.78,3.85,3.85,0,0,0,.55-2.26,3.92,3.92,0,0,0-.55-2.28,2.28,2.28,0,0,0-3.44,0,3.9,3.9,0,0,0-.56,2.27,3.86,3.86,0,0,0,.56,2.26A2,2,0,0,0,152.21,18.49Zm19.28-7.66-2.93,9.23h-1.78c-.21,0-.35-.13-.43-.39l-1.65-5.34c-.06-.18-.11-.36-.16-.53s-.07-.36-.1-.54c0,.18-.08.36-.13.55s-.09.36-.14.54l-1.69,5.32a.46.46,0,0,1-.47.39H160.3l-2.93-9.23h1.77a.72.72,0,0,1,.42.12.49.49,0,0,1,.22.29l1.33,4.93c.06.27.12.54.17.8s.1.51.13.77l.21-.77.24-.8,1.53-5a.61.61,0,0,1,.21-.29.65.65,0,0,1,.39-.12h1a.65.65,0,0,1,.39.12.54.54,0,0,1,.23.29l1.48,5c.08.27.15.54.22.81l.21.77a12,12,0,0,1,.33-1.58l1.36-4.93a.53.53,0,0,1,.22-.29.65.65,0,0,1,.39-.12ZM175,6.69V20.06h-2.23V6.69Zm8.16,7.69a2.45,2.45,0,0,0-.13-.81,1.71,1.71,0,0,0-1-1.12,1.91,1.91,0,0,0-.86-.17,2.06,2.06,0,0,0-1.52.55,2.64,2.64,0,0,0-.7,1.55Zm-4.24,1.34a4.68,4.68,0,0,0,.25,1.24,2.65,2.65,0,0,0,.52.85,2.35,2.35,0,0,0,.77.51,3.11,3.11,0,0,0,1,.16,2.86,2.86,0,0,0,.93-.13,3.31,3.31,0,0,0,.68-.28,5.58,5.58,0,0,0,.51-.28.94.94,0,0,1,.44-.12.46.46,0,0,1,.41.21l.64.81a3.77,3.77,0,0,1-.83.72,4.74,4.74,0,0,1-1,.47,5.07,5.07,0,0,1-1,.25,8.55,8.55,0,0,1-1,.07,5,5,0,0,1-1.79-.32,4.09,4.09,0,0,1-1.44-.94,4.42,4.42,0,0,1-1-1.55,5.89,5.89,0,0,1-.35-2.14,5.24,5.24,0,0,1,.3-1.78A4.29,4.29,0,0,1,177.9,12a4,4,0,0,1,1.39-1,4.88,4.88,0,0,1,3.47-.08,3.44,3.44,0,0,1,1.27.82,3.63,3.63,0,0,1,.83,1.32,4.62,4.62,0,0,1,.31,1.77,1.46,1.46,0,0,1-.11.68.43.43,0,0,1-.41.17Zm13.7-2.53a2.08,2.08,0,0,0-.83-.65,2.3,2.3,0,0,0-1-.19,2.06,2.06,0,0,0-.91.19,1.79,1.79,0,0,0-.69.57,2.77,2.77,0,0,0-.44,1,5.13,5.13,0,0,0-.16,1.38,6.74,6.74,0,0,0,.13,1.38,2.9,2.9,0,0,0,.38.92,1.51,1.51,0,0,0,.59.51,2,2,0,0,0,.78.15,2.27,2.27,0,0,0,1.18-.28,3.67,3.67,0,0,0,.92-.82Zm2.22-6.5V20.06H193.5a.52.52,0,0,1-.56-.4l-.19-.89a4.58,4.58,0,0,1-1.29,1,3.37,3.37,0,0,1-1.68.4,3.06,3.06,0,0,1-1.39-.32A3.15,3.15,0,0,1,187.3,19a4.52,4.52,0,0,1-.7-1.48,7.72,7.72,0,0,1-.24-2,6.21,6.21,0,0,1,.28-1.91,4.65,4.65,0,0,1,.8-1.53,3.67,3.67,0,0,1,1.25-1,3.53,3.53,0,0,1,1.64-.37,3.31,3.31,0,0,1,1.32.24,3.25,3.25,0,0,1,1,.66V6.69Zm5.57,8.53a2.18,2.18,0,0,0,.72-.11,1.42,1.42,0,0,0,.51-.31,1.09,1.09,0,0,0,.3-.48,1.54,1.54,0,0,0,.11-.61,1.43,1.43,0,0,0-.41-1.08,1.67,1.67,0,0,0-1.23-.41,1.71,1.71,0,0,0-1.23.41,1.43,1.43,0,0,0-.4,1.08,1.93,1.93,0,0,0,.09.6,1.64,1.64,0,0,0,.31.49,1.62,1.62,0,0,0,.51.31A2.27,2.27,0,0,0,200.42,15.22Zm2.51,5.26a.6.6,0,0,0-.16-.44,1,1,0,0,0-.44-.27,3.29,3.29,0,0,0-.66-.14c-.24,0-.51-.05-.79-.06l-.86-.05a8.28,8.28,0,0,1-.87-.07,2.25,2.25,0,0,0-.6.49,1,1,0,0,0-.22.64.94.94,0,0,0,.11.45,1.07,1.07,0,0,0,.39.37,2.22,2.22,0,0,0,.69.24,5.16,5.16,0,0,0,1,.09,5.49,5.49,0,0,0,1.07-.1,2.45,2.45,0,0,0,.74-.26,1,1,0,0,0,.43-.4A.92.92,0,0,0,202.93,20.48Zm2.22-9.34V12c0,.27-.16.43-.48.49l-.83.15a2.94,2.94,0,0,1-.09,2.29,2.8,2.8,0,0,1-.75.93,3.82,3.82,0,0,1-1.15.61,5,5,0,0,1-1.43.2l-.52,0-.49-.08c-.29.18-.44.37-.44.59a.45.45,0,0,0,.26.41,1.91,1.91,0,0,0,.68.18,8.62,8.62,0,0,0,1,.07l1.11.06a8,8,0,0,1,1.11.16,3.13,3.13,0,0,1,1,.35,1.9,1.9,0,0,1,.68.67A2,2,0,0,1,205,20.1a2.57,2.57,0,0,1-.31,1.19,3.2,3.2,0,0,1-.87,1,4.45,4.45,0,0,1-1.41.72,5.78,5.78,0,0,1-1.89.28,6.92,6.92,0,0,1-1.81-.21,4,4,0,0,1-1.29-.54,2.36,2.36,0,0,1-.77-.77,1.9,1.9,0,0,1-.25-.92,1.56,1.56,0,0,1,.39-1.08,2.67,2.67,0,0,1,1.08-.7,1.61,1.61,0,0,1-.59-.5,1.48,1.48,0,0,1-.21-.83,1.23,1.23,0,0,1,.07-.42,2.33,2.33,0,0,1,.22-.45,2.83,2.83,0,0,1,.38-.4,2.56,2.56,0,0,1,.53-.35,3,3,0,0,1-1.1-1,2.67,2.67,0,0,1-.4-1.48,2.77,2.77,0,0,1,.27-1.23,2.7,2.7,0,0,1,.77-.94,3.38,3.38,0,0,1,1.16-.61,5.26,5.26,0,0,1,1.46-.2,5,5,0,0,1,1.12.12,3.81,3.81,0,0,1,1,.35Zm7.2,3.24a2.45,2.45,0,0,0-.13-.81,1.71,1.71,0,0,0-1-1.12,1.91,1.91,0,0,0-.86-.17,2.06,2.06,0,0,0-1.52.55,2.64,2.64,0,0,0-.7,1.55Zm-4.24,1.34a4.68,4.68,0,0,0,.25,1.24,2.65,2.65,0,0,0,.52.85,2.35,2.35,0,0,0,.77.51,3.11,3.11,0,0,0,1,.16,2.86,2.86,0,0,0,.93-.13,3.31,3.31,0,0,0,.68-.28,5.58,5.58,0,0,0,.51-.28.94.94,0,0,1,.44-.12.46.46,0,0,1,.41.21l.64.81a3.77,3.77,0,0,1-.83.72,4.74,4.74,0,0,1-1,.47,5.07,5.07,0,0,1-1,.25,8.55,8.55,0,0,1-1,.07,5,5,0,0,1-1.79-.32,4.09,4.09,0,0,1-1.44-.94,4.42,4.42,0,0,1-1-1.55,5.89,5.89,0,0,1-.35-2.14,5.24,5.24,0,0,1,.3-1.78,4.29,4.29,0,0,1,.88-1.44,4,4,0,0,1,1.39-1,4.88,4.88,0,0,1,3.47-.08,3.44,3.44,0,0,1,1.27.82A3.63,3.63,0,0,1,214,13.1a4.62,4.62,0,0,1,.31,1.77,1.46,1.46,0,0,1-.11.68.43.43,0,0,1-.41.17ZM225,13.59a3.65,3.65,0,0,0,1.16-.16A2.07,2.07,0,0,0,227,13a1.9,1.9,0,0,0,.5-.75,2.91,2.91,0,0,0,.16-1,2.59,2.59,0,0,0-.16-.95,1.89,1.89,0,0,0-.49-.72,2,2,0,0,0-.82-.45A3.72,3.72,0,0,0,225,8.92h-1.81v4.67Zm0-6.54a7.54,7.54,0,0,1,2.26.3,4.43,4.43,0,0,1,1.58.86,3.43,3.43,0,0,1,.92,1.31,4.56,4.56,0,0,1,.3,1.68,4.59,4.59,0,0,1-.31,1.73,3.49,3.49,0,0,1-.95,1.35,4.4,4.4,0,0,1-1.58.89,7,7,0,0,1-2.22.31h-1.81v4.58h-2.42v-13Zm10.23,3.63a5,5,0,0,1,1.86.34,3.87,3.87,0,0,1,1.44.94,4.1,4.1,0,0,1,.93,1.5,5.54,5.54,0,0,1,.32,2,5.64,5.64,0,0,1-.32,2,4.1,4.1,0,0,1-.93,1.5,3.9,3.9,0,0,1-1.44.95,4.82,4.82,0,0,1-1.86.34,4.92,4.92,0,0,1-1.88-.34,4.11,4.11,0,0,1-1.45-.95,4.38,4.38,0,0,1-.93-1.5,5.87,5.87,0,0,1-.32-2,5.77,5.77,0,0,1,.32-2,4.38,4.38,0,0,1,.93-1.5,4.08,4.08,0,0,1,1.45-.94A5.12,5.12,0,0,1,235.2,10.68Zm0,7.81a1.93,1.93,0,0,0,1.7-.78,3.84,3.84,0,0,0,.56-2.26,3.91,3.91,0,0,0-.56-2.28,1.93,1.93,0,0,0-1.7-.78,2,2,0,0,0-1.74.79,3.9,3.9,0,0,0-.55,2.27,3.87,3.87,0,0,0,.55,2.26A2,2,0,0,0,235.2,18.49Zm8.35-6.06a4.15,4.15,0,0,1,1-1.3,2.24,2.24,0,0,1,1.41-.47,1.67,1.67,0,0,1,1,.28l-.14,1.66a.46.46,0,0,1-.14.24.34.34,0,0,1-.22.06,2.93,2.93,0,0,1-.41-.05,2.92,2.92,0,0,0-.51,0,1.76,1.76,0,0,0-.66.11,1.63,1.63,0,0,0-.52.31,2.19,2.19,0,0,0-.4.49,5.61,5.61,0,0,0-.33.65v5.69h-2.22V10.83h1.31a.72.72,0,0,1,.47.12.72.72,0,0,1,.18.44Zm7.69,7.78a2.45,2.45,0,0,1-1.85-.68,2.61,2.61,0,0,1-.64-1.88V12.49h-.94a.47.47,0,0,1-.31-.11.48.48,0,0,1-.13-.35v-.89l1.49-.24.47-2.52a.48.48,0,0,1,.17-.28.53.53,0,0,1,.32-.1H251v2.91h2.47v1.58H251v5a1,1,0,0,0,.21.67.75.75,0,0,0,.59.25,1.11,1.11,0,0,0,.34-.05l.24-.11.19-.1a.33.33,0,0,1,.16-.05.25.25,0,0,1,.16.05.51.51,0,0,1,.14.15l.66,1.08a3.33,3.33,0,0,1-1.11.61A4.13,4.13,0,0,1,251.24,20.21Zm8.5-4.09a12.44,12.44,0,0,0-1.62.17,4,4,0,0,0-1.05.31,1.27,1.27,0,0,0-.57.44,1,1,0,0,0-.17.55.94.94,0,0,0,.34.83,1.53,1.53,0,0,0,.91.26,2.54,2.54,0,0,0,1.18-.25,3.47,3.47,0,0,0,1-.75Zm-5.09-4a5.44,5.44,0,0,1,3.83-1.46,3.71,3.71,0,0,1,1.45.27,2.85,2.85,0,0,1,1.08.74,3.07,3.07,0,0,1,.67,1.12,4.44,4.44,0,0,1,.23,1.44v5.83h-1a1,1,0,0,1-.48-.09.6.6,0,0,1-.27-.38l-.2-.67a8.09,8.09,0,0,1-.69.56,3.93,3.93,0,0,1-.69.39,3.85,3.85,0,0,1-.77.25,4.16,4.16,0,0,1-.9.09,3.4,3.4,0,0,1-1.08-.16,2.32,2.32,0,0,1-.86-.47,2.18,2.18,0,0,1-.56-.79,2.8,2.8,0,0,1-.19-1.09,2.07,2.07,0,0,1,.11-.69,2.21,2.21,0,0,1,.38-.66,3.46,3.46,0,0,1,.69-.6,4.57,4.57,0,0,1,1-.48,9,9,0,0,1,1.44-.34,14,14,0,0,1,1.87-.16v-.54a2,2,0,0,0-.4-1.37,1.43,1.43,0,0,0-1.14-.45,2.6,2.6,0,0,0-.9.13,3.23,3.23,0,0,0-.62.29l-.49.28a1,1,0,0,1-.49.12.65.65,0,0,1-.4-.12,1.37,1.37,0,0,1-.26-.28Zm11.6-5.43V20.06H264V6.69Z"/><path class="cls-2" d="M7.84,16.82l2.32,1.65,7,.85L18.66,21h3.88l3.84-2.86,2.27-2.78s.47-.1.32-3.19-3.33-5.92-3.33-5.92L22.23,2.56,16,2l-5,.56L5.33,6.25,2,11.31v3.47l2.48,2.38,3.77-1.37Z"/><path class="cls-3" d="M28.18,15.55a6.64,6.64,0,0,1-4.56,1.18A3.62,3.62,0,0,1,22.86,18,10.14,10.14,0,0,1,19,20.63a3.81,3.81,0,0,0,4,1.22,3.38,3.38,0,0,0,1.34-.71,3.77,3.77,0,0,0,.58-.14A5.62,5.62,0,0,0,29,15,3.81,3.81,0,0,1,28.18,15.55Z"/><path class="cls-3" d="M28.88,9.5a6.9,6.9,0,0,0-.22-1.06s-.05-.07-.05-.11A7.27,7.27,0,0,0,25.13,4,7.59,7.59,0,0,0,16.85.57l-.37.12h-.05a6.74,6.74,0,0,0-8,1.57,6.56,6.56,0,0,0-2.06.23,5.78,5.78,0,0,0-4,4.41A6.53,6.53,0,0,0,.14,13.16c.71,3.16,3.71,5.54,8.09,3.69,0,0,0,0,0,.07a4.66,4.66,0,0,1,1.91-3.35C9.06,12,6.4,8.93,4.45,9.83a2,2,0,0,0-1.08,2.64,2,2,0,0,0,2.88.94.54.54,0,0,1,.71.3.53.53,0,0,1-.29.71A3.11,3.11,0,1,1,4,8.81,2.59,2.59,0,0,1,5.4,8.55,3.83,3.83,0,0,1,6.48,5.76,5.49,5.49,0,0,1,10,4.37a3.8,3.8,0,0,1,4.19-2.45A5.3,5.3,0,0,1,16.93,3a8.57,8.57,0,0,1,.82.71,5.16,5.16,0,0,1,4.31-.68c1,.34,2.18,1.2,2.59,3.5a3.44,3.44,0,0,1,1.87,2.07A3,3,0,0,1,26,11.14a4.31,4.31,0,0,1-3.59,1.58h-.08s-3.78-.37-5.13,2.3c-.07.15-.15.3-.22.42a3,3,0,0,1-1.61,1.43c-.12,0-.22,0-.34.07a2.48,2.48,0,0,1-2-.9.54.54,0,0,1,.08-.75.53.53,0,0,1,.75.08,1.49,1.49,0,0,0,1.05.52c.45,0,.89-.52,1.34-1.36a6.74,6.74,0,0,1,.72-1A5.63,5.63,0,0,1,20,11.81a7.23,7.23,0,0,1,2.4-.14,3.39,3.39,0,0,0,2.73-1.13A1.88,1.88,0,0,0,25.51,9C25.25,8,24,7.53,24,7.49A.5.5,0,0,1,23.68,7c-.22-1.58-.86-2.57-1.92-2.94a4.39,4.39,0,0,0-4,1.05,2.68,2.68,0,0,0-.56,2.9,4.25,4.25,0,0,1,3.45.56.56.56,0,0,1,.15.76.54.54,0,0,1-.75.14,3.34,3.34,0,0,0-2.73-.33L17,9.29a2.38,2.38,0,0,0-1.5,1.25.52.52,0,0,1-.29.33.58.58,0,0,1-.45,0,2.35,2.35,0,0,0-2.33.49,2.13,2.13,0,0,0-.89,2.26.54.54,0,0,1-.27.64,3.62,3.62,0,0,0-1.8,2.9,2.72,2.72,0,0,0,1.24,2.37,4.59,4.59,0,0,0,3.27.3,4,4,0,0,0,1.12-.52,3.55,3.55,0,0,0,1.95.38A6.29,6.29,0,0,0,19.3,19a7.82,7.82,0,0,0,2.28-1.85,2.49,2.49,0,0,0,.75-1.39.58.58,0,0,1,.19-.41A.6.6,0,0,1,23,15.2a5.39,5.39,0,0,0,4.35-.94,3.25,3.25,0,0,0,1.34-1.77,3.59,3.59,0,0,0,.18-.59A5.68,5.68,0,0,0,29,10.46C29,10.19,28.93,10,28.88,9.5Z"/><path class="cls-3" d="M14.38,3a2.63,2.63,0,0,0-3.06,2.2.52.52,0,0,1-.54.46,4.29,4.29,0,0,0-3.06,1.2A3.29,3.29,0,0,0,7,9.23v.13a6.6,6.6,0,0,1,2.45,1.9A17.19,17.19,0,0,1,10.81,13,4.13,4.13,0,0,1,12,11.17a3,3,0,0,1,2.84-.82,4,4,0,0,1,1.47-1.42A4.57,4.57,0,0,1,17,4.54,4.52,4.52,0,0,0,14.38,3Z"/><path class="cls-4" d="M28.09,21.77c.47.69.93,1.39,1.4,2.1.27.41.69-.23.42-.63l-1.4-2.11C28.24,20.72,27.81,21.36,28.09,21.77Z"/><path class="cls-5" d="M37,27.6,34.6,30,29,24.4l1.18-1.18L31.4,22Z"/><path class="cls-6" d="M29,18a6,6,0,0,1-11.35,2.73,5.74,5.74,0,0,1-.49-1.33A5.89,5.89,0,0,1,17,18a6,6,0,0,1,.23-1.64,5.94,5.94,0,0,1,1.17-2.22A6,6,0,0,1,23,12a5.85,5.85,0,0,1,2.73.66A6,6,0,0,1,29,17.35C29,17.57,29,17.78,29,18Z"/><path class="cls-7" d="M29,18a6,6,0,1,1-6-6A6,6,0,0,1,29,18Z"/></g></g></svg>