<svg width="60" height="64" viewBox="0 0 60 64" fill="none" xmlns="http://www.w3.org/2000/svg">
<path d="M39.4564 51.6269C39.4564 53.1714 40.7083 54.4282 42.2453 54.4282C43.7823 54.4282 45.0329 53.1714 45.0329 51.6269C45.0329 50.081 43.7823 48.8242 42.2453 48.8242C40.7083 48.8242 39.4564 50.081 39.4564 51.6269ZM43.0842 51.6269C43.0842 52.0921 42.7076 52.4706 42.2446 52.4706C41.7804 52.4706 41.4038 52.0921 41.4038 51.6269C41.4038 51.1603 41.7804 50.7818 42.2446 50.7818C42.7076 50.7818 43.0842 51.1603 43.0842 51.6269Z" fill="#DCDCDC"/>
<path d="M37.3488 15.0186H28.9211V16.9762H37.3488V15.0186Z" fill="white"/>
<path d="M26.2502 15H12V16.9576H26.2502V15Z" fill="white"/>
<path d="M26.3402 18.9326H17.2334V20.8902H26.3402V18.9326Z" fill="white"/>
<path d="M34.6781 18.9336H28.9211V20.8912H34.6781V18.9336Z" fill="white"/>
<path d="M14.6671 18.9336H12.0906V20.8912H14.6671V18.9336Z" fill="white"/>
<path d="M31.5365 22.8486H26.3237V24.8062H31.5365V22.8486Z" fill="white"/>
<path d="M23.7415 22.8486H12.0906V24.8062H23.7415V22.8486Z" fill="white"/>
<path d="M19.8484 26.7637H12.1104V28.7213H19.8484V26.7637Z" fill="white"/>
<path d="M30.8279 26.7646H22.4282V28.7223H30.8279V26.7646Z" fill="white"/>
<path d="M20.5332 30.6787H12.0906V32.6363H20.5332V30.6787Z" fill="white"/>
<path d="M12.0064 34.6039L12.0103 36.5615L17.8841 36.5497L17.8802 34.5921L12.0064 34.6039Z" fill="white"/>
<path d="M36.4467 5.22998H15V7.18758H36.4467V5.22998Z" fill="white"/>
<path d="M32.6742 10H19V11.9576H32.6742V10Z" fill="white"/>
<path d="M50.8854 54.8658H48.051V51.4159C55.0709 48.3561 60 41.3335 60 33.1664C60 26.2978 56.4689 19.9571 50.723 16.3277L52.7879 12.7355L54.4697 13.7111L55.4437 12.0158L53.7619 11.0396L45.005 5.95895L43.3116 4.97689L42.3376 6.67217L44.0304 7.65424L42.2064 10.8282V0.0535079L7.79066 0V25.5272H0V40.3978C0 42.6373 1.58956 44.5094 3.69404 44.9349V45.0269L35.13 45.0686L32.2269 51.4093L33.2048 51.78C34.2346 52.1715 35.2898 52.4697 36.3625 52.6811V54.8658H24.6745V64H50.8854C53.4106 64 55.4651 61.9504 55.4651 59.4323C55.4651 56.9141 53.4106 54.8658 50.8854 54.8658ZM7.79066 40.3978C7.79066 41.8699 6.59849 43.068 5.13295 43.068H4.60505C3.14016 43.068 1.94799 41.8699 1.94799 40.3978V27.4854H7.79066V40.3978ZM48.9802 33.1664C48.9802 37.3368 46.0823 40.8324 42.2064 41.7459V31.1527L45.2044 25.9344C47.5692 27.5879 48.9802 30.2574 48.9802 33.1664ZM38.3897 30.1713L36.3274 33.7602L33.7151 32.2444L35.7774 28.6548L38.3897 30.1713ZM51.1009 11.7567L40.963 29.4039L35.5781 26.2802L45.7174 8.63304L46.2563 8.94561L51.1009 11.7567ZM8.88737 43.0758C9.42372 42.3202 9.73929 41.3962 9.73929 40.3978V1.96022L40.2591 2.0085V14.2187L32.9171 26.9967L34.0905 27.6773L31.0542 32.9615L37.0404 36.4343L40.0766 31.1501L40.2591 31.2558V41.9848C40.2403 41.9848 40.2221 41.9874 40.2032 41.9874C39.6487 41.9874 39.1 41.9286 38.5598 41.8256L39.724 39.8001L26.3121 32.0186C26.0271 31.8529 25.7024 31.7654 25.3726 31.7654C24.7005 31.7654 24.0752 32.1276 23.7395 32.7103L23.2876 33.4966C22.7687 34.4004 23.0785 35.5599 23.9778 36.0826L36.0397 43.0804L36.0261 43.1123L8.88737 43.0758ZM36.6761 41.1893L25.007 34.4193L25.394 33.7465L37.0631 40.5166L36.6761 41.1893ZM37.9027 43.6951C38.6559 43.8608 39.426 43.945 40.2032 43.945C46.1167 43.945 50.9289 39.1097 50.9289 33.1664C50.9289 29.7504 49.3484 26.5928 46.6628 24.5595L49.2815 18.8374L49.7555 18.0132C54.8995 21.2922 58.052 26.9973 58.052 33.1658C58.052 40.3319 53.8418 46.5186 47.7822 49.3884C47.0744 47.2116 45.0414 45.6324 42.6473 45.6324H41.7675C38.9202 45.6324 36.5865 47.8628 36.3839 50.6778C35.8794 50.5682 35.3781 50.4462 34.8833 50.2902L37.9027 43.6951ZM46.1031 51.0765V58.1285H38.3111V51.0765C38.3111 49.1548 39.861 47.5907 41.7668 47.5907H42.6467C44.5531 47.5914 46.1031 49.1548 46.1031 51.0765ZM50.8854 62.0424H26.6225V56.8234H36.3625V60.0861H48.0504V56.8234H50.8847C52.3353 56.8234 53.5164 57.9934 53.5164 59.4336C53.5171 60.8724 52.336 62.0424 50.8854 62.0424Z" fill="white"/>
</svg>
