<svg width="378" height="49" viewBox="0 0 378 49" fill="none" xmlns="http://www.w3.org/2000/svg">
<circle cx="24.5" cy="24.5" r="24.5" fill="white"/>
<path d="M67.379 12.353C67.307 12.479 67.229 12.572 67.145 12.632C67.067 12.686 66.968 12.713 66.848 12.713C66.722 12.713 66.584 12.668 66.434 12.578C66.29 12.482 66.116 12.377 65.912 12.263C65.708 12.149 65.468 12.047 65.192 11.957C64.922 11.861 64.601 11.813 64.229 11.813C63.893 11.813 63.599 11.855 63.347 11.939C63.095 12.017 62.882 12.128 62.708 12.272C62.54 12.416 62.414 12.59 62.33 12.794C62.246 12.992 62.204 13.211 62.204 13.451C62.204 13.757 62.288 14.012 62.456 14.216C62.63 14.42 62.858 14.594 63.14 14.738C63.422 14.882 63.743 15.011 64.103 15.125C64.463 15.239 64.832 15.362 65.21 15.494C65.588 15.62 65.957 15.77 66.317 15.944C66.677 16.112 66.998 16.328 67.28 16.592C67.562 16.85 67.787 17.168 67.955 17.546C68.129 17.924 68.216 18.383 68.216 18.923C68.216 19.511 68.114 20.063 67.91 20.579C67.712 21.089 67.418 21.536 67.028 21.92C66.644 22.298 66.173 22.598 65.615 22.82C65.057 23.036 64.418 23.144 63.698 23.144C63.284 23.144 62.876 23.102 62.474 23.018C62.072 22.94 61.685 22.826 61.313 22.676C60.947 22.526 60.602 22.346 60.278 22.136C59.954 21.926 59.666 21.692 59.414 21.434L60.125 20.273C60.185 20.189 60.263 20.12 60.359 20.066C60.455 20.006 60.557 19.976 60.665 19.976C60.815 19.976 60.977 20.039 61.151 20.165C61.325 20.285 61.532 20.42 61.772 20.57C62.012 20.72 62.291 20.858 62.609 20.984C62.933 21.104 63.32 21.164 63.77 21.164C64.46 21.164 64.994 21.002 65.372 20.678C65.75 20.348 65.939 19.877 65.939 19.265C65.939 18.923 65.852 18.644 65.678 18.428C65.51 18.212 65.285 18.032 65.003 17.888C64.721 17.738 64.4 17.612 64.04 17.51C63.68 17.408 63.314 17.297 62.942 17.177C62.57 17.057 62.204 16.913 61.844 16.745C61.484 16.577 61.163 16.358 60.881 16.088C60.599 15.818 60.371 15.482 60.197 15.08C60.029 14.672 59.945 14.171 59.945 13.577C59.945 13.103 60.038 12.641 60.224 12.191C60.416 11.741 60.692 11.342 61.052 10.994C61.412 10.646 61.856 10.367 62.384 10.157C62.912 9.947 63.518 9.842 64.202 9.842C64.97 9.842 65.678 9.962 66.326 10.202C66.974 10.442 67.526 10.778 67.982 11.21L67.379 12.353ZM79.4179 11.975H75.4939V23H73.0729V11.975H69.1489V9.986H79.4179V11.975ZM93.0924 16.493C93.0924 17.447 92.9334 18.332 92.6154 19.148C92.3034 19.958 91.8594 20.66 91.2834 21.254C90.7074 21.848 90.0144 22.313 89.2044 22.649C88.3944 22.979 87.4944 23.144 86.5044 23.144C85.5204 23.144 84.6234 22.979 83.8134 22.649C83.0034 22.313 82.3074 21.848 81.7254 21.254C81.1494 20.66 80.7024 19.958 80.3844 19.148C80.0664 18.332 79.9074 17.447 79.9074 16.493C79.9074 15.539 80.0664 14.657 80.3844 13.847C80.7024 13.031 81.1494 12.326 81.7254 11.732C82.3074 11.138 83.0034 10.676 83.8134 10.346C84.6234 10.01 85.5204 9.842 86.5044 9.842C87.1644 9.842 87.7854 9.92 88.3674 10.076C88.9494 10.226 89.4834 10.442 89.9694 10.724C90.4554 11 90.8904 11.339 91.2744 11.741C91.6644 12.137 91.9944 12.581 92.2644 13.073C92.5344 13.565 92.7384 14.099 92.8764 14.675C93.0204 15.251 93.0924 15.857 93.0924 16.493ZM90.6174 16.493C90.6174 15.779 90.5214 15.14 90.3294 14.576C90.1374 14.006 89.8644 13.523 89.5104 13.127C89.1564 12.731 88.7244 12.428 88.2144 12.218C87.7104 12.008 87.1404 11.903 86.5044 11.903C85.8684 11.903 85.2954 12.008 84.7854 12.218C84.2814 12.428 83.8494 12.731 83.4894 13.127C83.1354 13.523 82.8624 14.006 82.6704 14.576C82.4784 15.14 82.3824 15.779 82.3824 16.493C82.3824 17.207 82.4784 17.849 82.6704 18.419C82.8624 18.983 83.1354 19.463 83.4894 19.859C83.8494 20.249 84.2814 20.549 84.7854 20.759C85.2954 20.969 85.8684 21.074 86.5044 21.074C87.1404 21.074 87.7104 20.969 88.2144 20.759C88.7244 20.549 89.1564 20.249 89.5104 19.859C89.8644 19.463 90.1374 18.983 90.3294 18.419C90.5214 17.849 90.6174 17.207 90.6174 16.493ZM99.4485 16.529C99.8925 16.529 100.28 16.475 100.61 16.367C100.94 16.253 101.213 16.094 101.429 15.89C101.651 15.68 101.816 15.428 101.924 15.134C102.032 14.834 102.086 14.501 102.086 14.135C102.086 13.787 102.032 13.472 101.924 13.19C101.816 12.908 101.654 12.668 101.438 12.47C101.222 12.272 100.949 12.122 100.619 12.02C100.289 11.912 99.8985 11.858 99.4485 11.858H97.6395V16.529H99.4485ZM99.4485 9.986C100.319 9.986 101.072 10.088 101.708 10.292C102.344 10.496 102.869 10.781 103.283 11.147C103.697 11.513 104.003 11.951 104.201 12.461C104.405 12.971 104.507 13.529 104.507 14.135C104.507 14.765 104.402 15.344 104.192 15.872C103.982 16.394 103.667 16.844 103.247 17.222C102.827 17.6 102.299 17.894 101.663 18.104C101.033 18.314 100.295 18.419 99.4485 18.419H97.6395V23H95.2185V9.986H99.4485ZM105.747 16.637H110.409V18.491H105.747V16.637ZM119.761 18.086L118.177 13.757C118.099 13.565 118.018 13.337 117.934 13.073C117.85 12.809 117.766 12.524 117.682 12.218C117.604 12.524 117.523 12.812 117.439 13.082C117.355 13.346 117.274 13.577 117.196 13.775L115.621 18.086H119.761ZM124.036 23H122.164C121.954 23 121.783 22.949 121.651 22.847C121.519 22.739 121.42 22.607 121.354 22.451L120.382 19.796H114.991L114.019 22.451C113.971 22.589 113.878 22.715 113.74 22.829C113.602 22.943 113.431 23 113.227 23H111.337L116.458 9.986H118.924L124.036 23ZM136.939 16.493C136.939 17.447 136.78 18.323 136.462 19.121C136.144 19.919 135.697 20.606 135.121 21.182C134.545 21.758 133.852 22.205 133.042 22.523C132.232 22.841 131.332 23 130.342 23H125.383V9.986H130.342C131.332 9.986 132.232 10.148 133.042 10.472C133.852 10.79 134.545 11.237 135.121 11.813C135.697 12.383 136.144 13.067 136.462 13.865C136.78 14.663 136.939 15.539 136.939 16.493ZM134.455 16.493C134.455 15.779 134.359 15.14 134.167 14.576C133.981 14.006 133.708 13.526 133.348 13.136C132.994 12.74 132.562 12.437 132.052 12.227C131.548 12.017 130.978 11.912 130.342 11.912H127.813V21.074H130.342C130.978 21.074 131.548 20.969 132.052 20.759C132.562 20.549 132.994 20.249 133.348 19.859C133.708 19.463 133.981 18.983 134.167 18.419C134.359 17.849 134.455 17.207 134.455 16.493ZM152.39 19.931C152.522 19.931 152.639 19.982 152.741 20.084L153.695 21.119C153.167 21.773 152.516 22.274 151.742 22.622C150.974 22.97 150.05 23.144 148.97 23.144C148.004 23.144 147.134 22.979 146.36 22.649C145.592 22.319 144.935 21.86 144.389 21.272C143.843 20.684 143.423 19.982 143.129 19.166C142.841 18.35 142.697 17.459 142.697 16.493C142.697 15.515 142.853 14.621 143.165 13.811C143.477 12.995 143.915 12.293 144.479 11.705C145.049 11.117 145.727 10.661 146.513 10.337C147.299 10.007 148.169 9.842 149.123 9.842C150.071 9.842 150.911 9.998 151.643 10.31C152.381 10.622 153.008 11.03 153.524 11.534L152.714 12.659C152.666 12.731 152.603 12.794 152.525 12.848C152.453 12.902 152.351 12.929 152.219 12.929C152.129 12.929 152.036 12.905 151.94 12.857C151.844 12.803 151.739 12.74 151.625 12.668C151.511 12.59 151.379 12.506 151.229 12.416C151.079 12.326 150.905 12.245 150.707 12.173C150.509 12.095 150.278 12.032 150.014 11.984C149.756 11.93 149.456 11.903 149.114 11.903C148.532 11.903 147.998 12.008 147.512 12.218C147.032 12.422 146.618 12.722 146.27 13.118C145.922 13.508 145.652 13.988 145.46 14.558C145.268 15.122 145.172 15.767 145.172 16.493C145.172 17.225 145.274 17.876 145.478 18.446C145.688 19.016 145.97 19.496 146.324 19.886C146.678 20.276 147.095 20.576 147.575 20.786C148.055 20.99 148.571 21.092 149.123 21.092C149.453 21.092 149.75 21.074 150.014 21.038C150.284 21.002 150.53 20.945 150.752 20.867C150.98 20.789 151.193 20.69 151.391 20.57C151.595 20.444 151.796 20.291 151.994 20.111C152.054 20.057 152.117 20.015 152.183 19.985C152.249 19.949 152.318 19.931 152.39 19.931ZM158.895 13.622C159.579 13.622 160.2 13.733 160.758 13.955C161.322 14.177 161.802 14.492 162.198 14.9C162.6 15.308 162.909 15.806 163.125 16.394C163.341 16.982 163.449 17.639 163.449 18.365C163.449 19.097 163.341 19.757 163.125 20.345C162.909 20.933 162.6 21.434 162.198 21.848C161.802 22.262 161.322 22.58 160.758 22.802C160.2 23.024 159.579 23.135 158.895 23.135C158.205 23.135 157.578 23.024 157.014 22.802C156.45 22.58 155.967 22.262 155.565 21.848C155.169 21.434 154.86 20.933 154.638 20.345C154.422 19.757 154.314 19.097 154.314 18.365C154.314 17.639 154.422 16.982 154.638 16.394C154.86 15.806 155.169 15.308 155.565 14.9C155.967 14.492 156.45 14.177 157.014 13.955C157.578 13.733 158.205 13.622 158.895 13.622ZM158.895 21.425C159.663 21.425 160.23 21.167 160.596 20.651C160.968 20.135 161.154 19.379 161.154 18.383C161.154 17.387 160.968 16.628 160.596 16.106C160.23 15.584 159.663 15.323 158.895 15.323C158.115 15.323 157.536 15.587 157.158 16.115C156.786 16.637 156.6 17.393 156.6 18.383C156.6 19.373 156.786 20.129 157.158 20.651C157.536 21.167 158.115 21.425 158.895 21.425ZM165.145 23V13.766H166.504C166.792 13.766 166.981 13.901 167.071 14.171L167.215 14.855C167.377 14.675 167.545 14.51 167.719 14.36C167.899 14.21 168.088 14.081 168.286 13.973C168.49 13.865 168.706 13.781 168.934 13.721C169.168 13.655 169.423 13.622 169.699 13.622C170.281 13.622 170.758 13.781 171.13 14.099C171.508 14.411 171.79 14.828 171.976 15.35C172.12 15.044 172.3 14.783 172.516 14.567C172.732 14.345 172.969 14.165 173.227 14.027C173.485 13.889 173.758 13.787 174.046 13.721C174.34 13.655 174.634 13.622 174.928 13.622C175.438 13.622 175.891 13.7 176.287 13.856C176.683 14.012 177.016 14.24 177.286 14.54C177.556 14.84 177.76 15.206 177.898 15.638C178.042 16.07 178.114 16.565 178.114 17.123V23H175.891V17.123C175.891 16.535 175.762 16.094 175.504 15.8C175.246 15.5 174.868 15.35 174.37 15.35C174.142 15.35 173.929 15.389 173.731 15.467C173.539 15.545 173.368 15.659 173.218 15.809C173.074 15.953 172.96 16.136 172.876 16.358C172.792 16.58 172.75 16.835 172.75 17.123V23H170.518V17.123C170.518 16.505 170.392 16.055 170.14 15.773C169.894 15.491 169.531 15.35 169.051 15.35C168.727 15.35 168.424 15.431 168.142 15.593C167.866 15.749 167.608 15.965 167.368 16.241V23H165.145ZM182.45 20.606C182.702 20.912 182.975 21.128 183.269 21.254C183.569 21.38 183.893 21.443 184.241 21.443C184.577 21.443 184.88 21.38 185.15 21.254C185.42 21.128 185.648 20.936 185.834 20.678C186.026 20.42 186.173 20.096 186.275 19.706C186.377 19.31 186.428 18.845 186.428 18.311C186.428 17.771 186.383 17.315 186.293 16.943C186.209 16.565 186.086 16.259 185.924 16.025C185.762 15.791 185.564 15.62 185.33 15.512C185.102 15.404 184.841 15.35 184.547 15.35C184.085 15.35 183.692 15.449 183.368 15.647C183.044 15.839 182.738 16.112 182.45 16.466V20.606ZM182.333 15.026C182.711 14.6 183.14 14.255 183.62 13.991C184.1 13.727 184.664 13.595 185.312 13.595C185.816 13.595 186.275 13.7 186.689 13.91C187.109 14.12 187.469 14.426 187.769 14.828C188.075 15.224 188.309 15.716 188.471 16.304C188.639 16.886 188.723 17.555 188.723 18.311C188.723 19.001 188.63 19.64 188.444 20.228C188.258 20.816 187.991 21.326 187.643 21.758C187.301 22.19 186.884 22.529 186.392 22.775C185.906 23.015 185.36 23.135 184.754 23.135C184.238 23.135 183.797 23.057 183.431 22.901C183.065 22.739 182.738 22.517 182.45 22.235V26.015H180.227V13.766H181.586C181.874 13.766 182.063 13.901 182.153 14.171L182.333 15.026ZM194.543 13.622C195.227 13.622 195.848 13.733 196.406 13.955C196.97 14.177 197.45 14.492 197.846 14.9C198.248 15.308 198.557 15.806 198.773 16.394C198.989 16.982 199.097 17.639 199.097 18.365C199.097 19.097 198.989 19.757 198.773 20.345C198.557 20.933 198.248 21.434 197.846 21.848C197.45 22.262 196.97 22.58 196.406 22.802C195.848 23.024 195.227 23.135 194.543 23.135C193.853 23.135 193.226 23.024 192.662 22.802C192.098 22.58 191.615 22.262 191.213 21.848C190.817 21.434 190.508 20.933 190.286 20.345C190.07 19.757 189.962 19.097 189.962 18.365C189.962 17.639 190.07 16.982 190.286 16.394C190.508 15.806 190.817 15.308 191.213 14.9C191.615 14.492 192.098 14.177 192.662 13.955C193.226 13.733 193.853 13.622 194.543 13.622ZM194.543 21.425C195.311 21.425 195.878 21.167 196.244 20.651C196.616 20.135 196.802 19.379 196.802 18.383C196.802 17.387 196.616 16.628 196.244 16.106C195.878 15.584 195.311 15.323 194.543 15.323C193.763 15.323 193.184 15.587 192.806 16.115C192.434 16.637 192.248 17.393 192.248 18.383C192.248 19.373 192.434 20.129 192.806 20.651C193.184 21.167 193.763 21.425 194.543 21.425ZM208.749 13.766V23H207.39C207.096 23 206.91 22.865 206.832 22.595L206.679 21.857C206.301 22.241 205.884 22.553 205.428 22.793C204.972 23.027 204.435 23.144 203.817 23.144C203.313 23.144 202.866 23.06 202.476 22.892C202.092 22.718 201.768 22.475 201.504 22.163C201.24 21.851 201.039 21.482 200.901 21.056C200.769 20.624 200.703 20.15 200.703 19.634V13.766H202.926V19.634C202.926 20.198 203.055 20.636 203.313 20.948C203.577 21.254 203.97 21.407 204.492 21.407C204.876 21.407 205.236 21.323 205.572 21.155C205.908 20.981 206.226 20.744 206.526 20.444V13.766H208.749ZM213.032 14.9C213.218 14.714 213.413 14.543 213.617 14.387C213.827 14.225 214.046 14.09 214.274 13.982C214.508 13.868 214.757 13.781 215.021 13.721C215.285 13.655 215.573 13.622 215.885 13.622C216.389 13.622 216.836 13.709 217.226 13.883C217.616 14.051 217.94 14.291 218.198 14.603C218.462 14.909 218.66 15.278 218.792 15.71C218.93 16.136 218.999 16.607 218.999 17.123V23H216.776V17.123C216.776 16.559 216.647 16.124 216.389 15.818C216.131 15.506 215.738 15.35 215.21 15.35C214.826 15.35 214.466 15.437 214.13 15.611C213.794 15.785 213.476 16.022 213.176 16.322V23H210.953V13.766H212.312C212.6 13.766 212.789 13.901 212.879 14.171L213.032 14.9ZM226.91 16.124C226.658 15.818 226.382 15.602 226.082 15.476C225.788 15.35 225.47 15.287 225.128 15.287C224.792 15.287 224.489 15.35 224.219 15.476C223.949 15.602 223.718 15.794 223.526 16.052C223.334 16.304 223.187 16.628 223.085 17.024C222.983 17.414 222.932 17.876 222.932 18.41C222.932 18.95 222.974 19.409 223.058 19.787C223.148 20.159 223.274 20.465 223.436 20.705C223.598 20.939 223.796 21.11 224.03 21.218C224.264 21.32 224.525 21.371 224.813 21.371C225.275 21.371 225.668 21.275 225.992 21.083C226.316 20.891 226.622 20.618 226.91 20.264V16.124ZM229.133 9.626V23H227.774C227.48 23 227.294 22.865 227.216 22.595L227.027 21.704C226.655 22.13 226.226 22.475 225.74 22.739C225.26 23.003 224.699 23.135 224.057 23.135C223.553 23.135 223.091 23.03 222.671 22.82C222.251 22.61 221.888 22.307 221.582 21.911C221.282 21.509 221.048 21.014 220.88 20.426C220.718 19.838 220.637 19.166 220.637 18.41C220.637 17.726 220.73 17.09 220.916 16.502C221.102 15.914 221.369 15.404 221.717 14.972C222.065 14.54 222.482 14.204 222.968 13.964C223.454 13.718 224 13.595 224.606 13.595C225.122 13.595 225.563 13.676 225.929 13.838C226.295 14 226.622 14.219 226.91 14.495V9.626H229.133ZM242.984 12.353C242.912 12.479 242.834 12.572 242.75 12.632C242.672 12.686 242.573 12.713 242.453 12.713C242.327 12.713 242.189 12.668 242.039 12.578C241.895 12.482 241.721 12.377 241.517 12.263C241.313 12.149 241.073 12.047 240.797 11.957C240.527 11.861 240.206 11.813 239.834 11.813C239.498 11.813 239.204 11.855 238.952 11.939C238.7 12.017 238.487 12.128 238.313 12.272C238.145 12.416 238.019 12.59 237.935 12.794C237.851 12.992 237.809 13.211 237.809 13.451C237.809 13.757 237.893 14.012 238.061 14.216C238.235 14.42 238.463 14.594 238.745 14.738C239.027 14.882 239.348 15.011 239.708 15.125C240.068 15.239 240.437 15.362 240.815 15.494C241.193 15.62 241.562 15.77 241.922 15.944C242.282 16.112 242.603 16.328 242.885 16.592C243.167 16.85 243.392 17.168 243.56 17.546C243.734 17.924 243.821 18.383 243.821 18.923C243.821 19.511 243.719 20.063 243.515 20.579C243.317 21.089 243.023 21.536 242.633 21.92C242.249 22.298 241.778 22.598 241.22 22.82C240.662 23.036 240.023 23.144 239.303 23.144C238.889 23.144 238.481 23.102 238.079 23.018C237.677 22.94 237.29 22.826 236.918 22.676C236.552 22.526 236.207 22.346 235.883 22.136C235.559 21.926 235.271 21.692 235.019 21.434L235.73 20.273C235.79 20.189 235.868 20.12 235.964 20.066C236.06 20.006 236.162 19.976 236.27 19.976C236.42 19.976 236.582 20.039 236.756 20.165C236.93 20.285 237.137 20.42 237.377 20.57C237.617 20.72 237.896 20.858 238.214 20.984C238.538 21.104 238.925 21.164 239.375 21.164C240.065 21.164 240.599 21.002 240.977 20.678C241.355 20.348 241.544 19.877 241.544 19.265C241.544 18.923 241.457 18.644 241.283 18.428C241.115 18.212 240.89 18.032 240.608 17.888C240.326 17.738 240.005 17.612 239.645 17.51C239.285 17.408 238.919 17.297 238.547 17.177C238.175 17.057 237.809 16.913 237.449 16.745C237.089 16.577 236.768 16.358 236.486 16.088C236.204 15.818 235.976 15.482 235.802 15.08C235.634 14.672 235.55 14.171 235.55 13.577C235.55 13.103 235.643 12.641 235.829 12.191C236.021 11.741 236.297 11.342 236.657 10.994C237.017 10.646 237.461 10.367 237.989 10.157C238.517 9.947 239.123 9.842 239.807 9.842C240.575 9.842 241.283 9.962 241.931 10.202C242.579 10.442 243.131 10.778 243.587 11.21L242.984 12.353ZM253.38 13.766V23H252.021C251.727 23 251.541 22.865 251.463 22.595L251.31 21.857C250.932 22.241 250.515 22.553 250.059 22.793C249.603 23.027 249.066 23.144 248.448 23.144C247.944 23.144 247.497 23.06 247.107 22.892C246.723 22.718 246.399 22.475 246.135 22.163C245.871 21.851 245.67 21.482 245.532 21.056C245.4 20.624 245.334 20.15 245.334 19.634V13.766H247.557V19.634C247.557 20.198 247.686 20.636 247.944 20.948C248.208 21.254 248.601 21.407 249.123 21.407C249.507 21.407 249.867 21.323 250.203 21.155C250.539 20.981 250.857 20.744 251.157 20.444V13.766H253.38ZM257.807 20.606C258.059 20.912 258.332 21.128 258.626 21.254C258.926 21.38 259.241 21.443 259.571 21.443C259.913 21.443 260.219 21.383 260.489 21.263C260.765 21.137 260.999 20.945 261.191 20.687C261.383 20.423 261.53 20.09 261.632 19.688C261.734 19.28 261.785 18.794 261.785 18.23C261.785 17.216 261.617 16.484 261.281 16.034C260.945 15.578 260.462 15.35 259.832 15.35C259.406 15.35 259.034 15.449 258.716 15.647C258.398 15.839 258.095 16.112 257.807 16.466V20.606ZM257.807 14.9C258.179 14.51 258.59 14.201 259.04 13.973C259.496 13.739 260.015 13.622 260.597 13.622C261.131 13.622 261.611 13.727 262.037 13.937C262.469 14.147 262.835 14.45 263.135 14.846C263.441 15.236 263.675 15.71 263.837 16.268C263.999 16.826 264.08 17.453 264.08 18.149C264.08 18.899 263.987 19.58 263.801 20.192C263.615 20.804 263.348 21.329 263 21.767C262.658 22.199 262.244 22.535 261.758 22.775C261.272 23.015 260.732 23.135 260.138 23.135C259.85 23.135 259.589 23.105 259.355 23.045C259.121 22.991 258.905 22.913 258.707 22.811C258.509 22.709 258.326 22.586 258.158 22.442C257.996 22.292 257.84 22.127 257.69 21.947L257.591 22.568C257.555 22.724 257.492 22.835 257.402 22.901C257.318 22.967 257.201 23 257.051 23H255.584V9.626H257.807V14.9ZM265.797 23V13.766H267.156C267.444 13.766 267.633 13.901 267.723 14.171L267.867 14.855C268.029 14.675 268.197 14.51 268.371 14.36C268.551 14.21 268.74 14.081 268.938 13.973C269.142 13.865 269.358 13.781 269.586 13.721C269.82 13.655 270.075 13.622 270.351 13.622C270.933 13.622 271.41 13.781 271.782 14.099C272.16 14.411 272.442 14.828 272.628 15.35C272.772 15.044 272.952 14.783 273.168 14.567C273.384 14.345 273.621 14.165 273.879 14.027C274.137 13.889 274.41 13.787 274.698 13.721C274.992 13.655 275.286 13.622 275.58 13.622C276.09 13.622 276.543 13.7 276.939 13.856C277.335 14.012 277.668 14.24 277.938 14.54C278.208 14.84 278.412 15.206 278.55 15.638C278.694 16.07 278.766 16.565 278.766 17.123V23H276.543V17.123C276.543 16.535 276.414 16.094 276.156 15.8C275.898 15.5 275.52 15.35 275.022 15.35C274.794 15.35 274.581 15.389 274.383 15.467C274.191 15.545 274.02 15.659 273.87 15.809C273.726 15.953 273.612 16.136 273.528 16.358C273.444 16.58 273.402 16.835 273.402 17.123V23H271.17V17.123C271.17 16.505 271.044 16.055 270.792 15.773C270.546 15.491 270.183 15.35 269.703 15.35C269.379 15.35 269.076 15.431 268.794 15.593C268.518 15.749 268.26 15.965 268.02 16.241V23H265.797ZM283.183 13.766V23H280.951V13.766H283.183ZM283.489 11.075C283.489 11.267 283.45 11.447 283.372 11.615C283.294 11.783 283.189 11.93 283.057 12.056C282.931 12.182 282.781 12.284 282.607 12.362C282.433 12.434 282.247 12.47 282.049 12.47C281.857 12.47 281.674 12.434 281.5 12.362C281.332 12.284 281.185 12.182 281.059 12.056C280.933 11.93 280.831 11.783 280.753 11.615C280.681 11.447 280.645 11.267 280.645 11.075C280.645 10.877 280.681 10.691 280.753 10.517C280.831 10.343 280.933 10.193 281.059 10.067C281.185 9.941 281.332 9.842 281.5 9.77C281.674 9.692 281.857 9.653 282.049 9.653C282.247 9.653 282.433 9.692 282.607 9.77C282.781 9.842 282.931 9.941 283.057 10.067C283.189 10.193 283.294 10.343 283.372 10.517C283.45 10.691 283.489 10.877 283.489 11.075ZM291.084 15.566C291.024 15.662 290.961 15.731 290.895 15.773C290.829 15.809 290.745 15.827 290.643 15.827C290.535 15.827 290.418 15.797 290.292 15.737C290.172 15.677 290.031 15.611 289.869 15.539C289.707 15.461 289.521 15.392 289.311 15.332C289.107 15.272 288.864 15.242 288.582 15.242C288.144 15.242 287.799 15.335 287.547 15.521C287.301 15.707 287.178 15.95 287.178 16.25C287.178 16.448 287.241 16.616 287.367 16.754C287.499 16.886 287.67 17.003 287.88 17.105C288.096 17.207 288.339 17.3 288.609 17.384C288.879 17.462 289.152 17.549 289.428 17.645C289.71 17.741 289.986 17.852 290.256 17.978C290.526 18.098 290.766 18.254 290.976 18.446C291.192 18.632 291.363 18.857 291.489 19.121C291.621 19.385 291.687 19.703 291.687 20.075C291.687 20.519 291.606 20.93 291.444 21.308C291.288 21.68 291.054 22.004 290.742 22.28C290.43 22.55 290.043 22.763 289.581 22.919C289.125 23.069 288.597 23.144 287.997 23.144C287.679 23.144 287.367 23.114 287.061 23.054C286.761 23 286.47 22.922 286.188 22.82C285.912 22.718 285.654 22.598 285.414 22.46C285.18 22.322 284.973 22.172 284.793 22.01L285.306 21.164C285.372 21.062 285.45 20.984 285.54 20.93C285.63 20.876 285.744 20.849 285.882 20.849C286.02 20.849 286.149 20.888 286.269 20.966C286.395 21.044 286.539 21.128 286.701 21.218C286.863 21.308 287.052 21.392 287.268 21.47C287.49 21.548 287.769 21.587 288.105 21.587C288.369 21.587 288.594 21.557 288.78 21.497C288.972 21.431 289.128 21.347 289.248 21.245C289.374 21.143 289.464 21.026 289.518 20.894C289.578 20.756 289.608 20.615 289.608 20.471C289.608 20.255 289.542 20.078 289.41 19.94C289.284 19.802 289.113 19.682 288.897 19.58C288.687 19.478 288.444 19.388 288.168 19.31C287.898 19.226 287.619 19.136 287.331 19.04C287.049 18.944 286.77 18.833 286.494 18.707C286.224 18.575 285.981 18.41 285.765 18.212C285.555 18.014 285.384 17.771 285.252 17.483C285.126 17.195 285.063 16.847 285.063 16.439C285.063 16.061 285.138 15.701 285.288 15.359C285.438 15.017 285.657 14.72 285.945 14.468C286.239 14.21 286.602 14.006 287.034 13.856C287.472 13.7 287.976 13.622 288.546 13.622C289.182 13.622 289.761 13.727 290.283 13.937C290.805 14.147 291.24 14.423 291.588 14.765L291.084 15.566ZM298.994 15.566C298.934 15.662 298.871 15.731 298.805 15.773C298.739 15.809 298.655 15.827 298.553 15.827C298.445 15.827 298.328 15.797 298.202 15.737C298.082 15.677 297.941 15.611 297.779 15.539C297.617 15.461 297.431 15.392 297.221 15.332C297.017 15.272 296.774 15.242 296.492 15.242C296.054 15.242 295.709 15.335 295.457 15.521C295.211 15.707 295.088 15.95 295.088 16.25C295.088 16.448 295.151 16.616 295.277 16.754C295.409 16.886 295.58 17.003 295.79 17.105C296.006 17.207 296.249 17.3 296.519 17.384C296.789 17.462 297.062 17.549 297.338 17.645C297.62 17.741 297.896 17.852 298.166 17.978C298.436 18.098 298.676 18.254 298.886 18.446C299.102 18.632 299.273 18.857 299.399 19.121C299.531 19.385 299.597 19.703 299.597 20.075C299.597 20.519 299.516 20.93 299.354 21.308C299.198 21.68 298.964 22.004 298.652 22.28C298.34 22.55 297.953 22.763 297.491 22.919C297.035 23.069 296.507 23.144 295.907 23.144C295.589 23.144 295.277 23.114 294.971 23.054C294.671 23 294.38 22.922 294.098 22.82C293.822 22.718 293.564 22.598 293.324 22.46C293.09 22.322 292.883 22.172 292.703 22.01L293.216 21.164C293.282 21.062 293.36 20.984 293.45 20.93C293.54 20.876 293.654 20.849 293.792 20.849C293.93 20.849 294.059 20.888 294.179 20.966C294.305 21.044 294.449 21.128 294.611 21.218C294.773 21.308 294.962 21.392 295.178 21.47C295.4 21.548 295.679 21.587 296.015 21.587C296.279 21.587 296.504 21.557 296.69 21.497C296.882 21.431 297.038 21.347 297.158 21.245C297.284 21.143 297.374 21.026 297.428 20.894C297.488 20.756 297.518 20.615 297.518 20.471C297.518 20.255 297.452 20.078 297.32 19.94C297.194 19.802 297.023 19.682 296.807 19.58C296.597 19.478 296.354 19.388 296.078 19.31C295.808 19.226 295.529 19.136 295.241 19.04C294.959 18.944 294.68 18.833 294.404 18.707C294.134 18.575 293.891 18.41 293.675 18.212C293.465 18.014 293.294 17.771 293.162 17.483C293.036 17.195 292.973 16.847 292.973 16.439C292.973 16.061 293.048 15.701 293.198 15.359C293.348 15.017 293.567 14.72 293.855 14.468C294.149 14.21 294.512 14.006 294.944 13.856C295.382 13.7 295.886 13.622 296.456 13.622C297.092 13.622 297.671 13.727 298.193 13.937C298.715 14.147 299.15 14.423 299.498 14.765L298.994 15.566ZM303.574 13.766V23H301.342V13.766H303.574ZM303.88 11.075C303.88 11.267 303.841 11.447 303.763 11.615C303.685 11.783 303.58 11.93 303.448 12.056C303.322 12.182 303.172 12.284 302.998 12.362C302.824 12.434 302.638 12.47 302.44 12.47C302.248 12.47 302.065 12.434 301.891 12.362C301.723 12.284 301.576 12.182 301.45 12.056C301.324 11.93 301.222 11.783 301.144 11.615C301.072 11.447 301.036 11.267 301.036 11.075C301.036 10.877 301.072 10.691 301.144 10.517C301.222 10.343 301.324 10.193 301.45 10.067C301.576 9.941 301.723 9.842 301.891 9.77C302.065 9.692 302.248 9.653 302.44 9.653C302.638 9.653 302.824 9.692 302.998 9.77C303.172 9.842 303.322 9.941 303.448 10.067C303.58 10.193 303.685 10.343 303.763 10.517C303.841 10.691 303.88 10.877 303.88 11.075ZM309.926 13.622C310.61 13.622 311.231 13.733 311.789 13.955C312.353 14.177 312.833 14.492 313.229 14.9C313.631 15.308 313.94 15.806 314.156 16.394C314.372 16.982 314.48 17.639 314.48 18.365C314.48 19.097 314.372 19.757 314.156 20.345C313.94 20.933 313.631 21.434 313.229 21.848C312.833 22.262 312.353 22.58 311.789 22.802C311.231 23.024 310.61 23.135 309.926 23.135C309.236 23.135 308.609 23.024 308.045 22.802C307.481 22.58 306.998 22.262 306.596 21.848C306.2 21.434 305.891 20.933 305.669 20.345C305.453 19.757 305.345 19.097 305.345 18.365C305.345 17.639 305.453 16.982 305.669 16.394C305.891 15.806 306.2 15.308 306.596 14.9C306.998 14.492 307.481 14.177 308.045 13.955C308.609 13.733 309.236 13.622 309.926 13.622ZM309.926 21.425C310.694 21.425 311.261 21.167 311.627 20.651C311.999 20.135 312.185 19.379 312.185 18.383C312.185 17.387 311.999 16.628 311.627 16.106C311.261 15.584 310.694 15.323 309.926 15.323C309.146 15.323 308.567 15.587 308.189 16.115C307.817 16.637 307.631 17.393 307.631 18.383C307.631 19.373 307.817 20.129 308.189 20.651C308.567 21.167 309.146 21.425 309.926 21.425ZM318.255 14.9C318.441 14.714 318.636 14.543 318.84 14.387C319.05 14.225 319.269 14.09 319.497 13.982C319.731 13.868 319.98 13.781 320.244 13.721C320.508 13.655 320.796 13.622 321.108 13.622C321.612 13.622 322.059 13.709 322.449 13.883C322.839 14.051 323.163 14.291 323.421 14.603C323.685 14.909 323.883 15.278 324.015 15.71C324.153 16.136 324.222 16.607 324.222 17.123V23H321.999V17.123C321.999 16.559 321.87 16.124 321.612 15.818C321.354 15.506 320.961 15.35 320.433 15.35C320.049 15.35 319.689 15.437 319.353 15.611C319.017 15.785 318.699 16.022 318.399 16.322V23H316.176V13.766H317.535C317.823 13.766 318.012 13.901 318.102 14.171L318.255 14.9ZM335.294 16.529C335.738 16.529 336.125 16.475 336.455 16.367C336.785 16.253 337.058 16.094 337.274 15.89C337.496 15.68 337.661 15.428 337.769 15.134C337.877 14.834 337.931 14.501 337.931 14.135C337.931 13.787 337.877 13.472 337.769 13.19C337.661 12.908 337.499 12.668 337.283 12.47C337.067 12.272 336.794 12.122 336.464 12.02C336.134 11.912 335.744 11.858 335.294 11.858H333.485V16.529H335.294ZM335.294 9.986C336.164 9.986 336.917 10.088 337.553 10.292C338.189 10.496 338.714 10.781 339.128 11.147C339.542 11.513 339.848 11.951 340.046 12.461C340.25 12.971 340.352 13.529 340.352 14.135C340.352 14.765 340.247 15.344 340.037 15.872C339.827 16.394 339.512 16.844 339.092 17.222C338.672 17.6 338.144 17.894 337.508 18.104C336.878 18.314 336.14 18.419 335.294 18.419H333.485V23H331.064V9.986H335.294ZM345.522 13.622C346.206 13.622 346.827 13.733 347.385 13.955C347.949 14.177 348.429 14.492 348.825 14.9C349.227 15.308 349.536 15.806 349.752 16.394C349.968 16.982 350.076 17.639 350.076 18.365C350.076 19.097 349.968 19.757 349.752 20.345C349.536 20.933 349.227 21.434 348.825 21.848C348.429 22.262 347.949 22.58 347.385 22.802C346.827 23.024 346.206 23.135 345.522 23.135C344.832 23.135 344.205 23.024 343.641 22.802C343.077 22.58 342.594 22.262 342.192 21.848C341.796 21.434 341.487 20.933 341.265 20.345C341.049 19.757 340.941 19.097 340.941 18.365C340.941 17.639 341.049 16.982 341.265 16.394C341.487 15.806 341.796 15.308 342.192 14.9C342.594 14.492 343.077 14.177 343.641 13.955C344.205 13.733 344.832 13.622 345.522 13.622ZM345.522 21.425C346.29 21.425 346.857 21.167 347.223 20.651C347.595 20.135 347.781 19.379 347.781 18.383C347.781 17.387 347.595 16.628 347.223 16.106C346.857 15.584 346.29 15.323 345.522 15.323C344.742 15.323 344.163 15.587 343.785 16.115C343.413 16.637 343.227 17.393 343.227 18.383C343.227 19.373 343.413 20.129 343.785 20.651C344.163 21.167 344.742 21.425 345.522 21.425ZM353.869 15.368C354.157 14.816 354.499 14.384 354.895 14.072C355.291 13.754 355.759 13.595 356.299 13.595C356.725 13.595 357.067 13.688 357.325 13.874L357.181 15.539C357.151 15.647 357.106 15.725 357.046 15.773C356.992 15.815 356.917 15.836 356.821 15.836C356.731 15.836 356.596 15.821 356.416 15.791C356.242 15.761 356.071 15.746 355.903 15.746C355.657 15.746 355.438 15.782 355.246 15.854C355.054 15.926 354.88 16.031 354.724 16.169C354.574 16.301 354.439 16.463 354.319 16.655C354.205 16.847 354.097 17.066 353.995 17.312V23H351.772V13.766H353.077C353.305 13.766 353.464 13.808 353.554 13.892C353.644 13.97 353.704 14.114 353.734 14.324L353.869 15.368ZM361.565 23.144C360.761 23.144 360.143 22.919 359.711 22.469C359.285 22.013 359.072 21.386 359.072 20.588V15.431H358.127C358.007 15.431 357.905 15.392 357.821 15.314C357.737 15.236 357.695 15.119 357.695 14.963V14.081L359.18 13.838L359.648 11.318C359.678 11.198 359.735 11.105 359.819 11.039C359.903 10.973 360.011 10.94 360.143 10.94H361.295V13.847H363.761V15.431H361.295V20.435C361.295 20.723 361.364 20.948 361.502 21.11C361.646 21.272 361.841 21.353 362.087 21.353C362.225 21.353 362.339 21.338 362.429 21.308C362.525 21.272 362.606 21.236 362.672 21.2C362.744 21.164 362.807 21.131 362.861 21.101C362.915 21.065 362.969 21.047 363.023 21.047C363.089 21.047 363.143 21.065 363.185 21.101C363.227 21.131 363.272 21.179 363.32 21.245L363.986 22.325C363.662 22.595 363.29 22.799 362.87 22.937C362.45 23.075 362.015 23.144 361.565 23.144ZM370.062 19.058C369.42 19.088 368.88 19.145 368.442 19.229C368.004 19.307 367.653 19.409 367.389 19.535C367.125 19.661 366.936 19.808 366.822 19.976C366.708 20.144 366.651 20.327 366.651 20.525C366.651 20.915 366.765 21.194 366.993 21.362C367.227 21.53 367.53 21.614 367.902 21.614C368.358 21.614 368.751 21.533 369.081 21.371C369.417 21.203 369.744 20.951 370.062 20.615V19.058ZM364.968 15.053C366.03 14.081 367.308 13.595 368.802 13.595C369.342 13.595 369.825 13.685 370.251 13.865C370.677 14.039 371.037 14.285 371.331 14.603C371.625 14.915 371.847 15.29 371.997 15.728C372.153 16.166 372.231 16.646 372.231 17.168V23H371.223C371.013 23 370.851 22.97 370.737 22.91C370.623 22.844 370.533 22.715 370.467 22.523L370.269 21.857C370.035 22.067 369.807 22.253 369.585 22.415C369.363 22.571 369.132 22.703 368.892 22.811C368.652 22.919 368.394 23 368.118 23.054C367.848 23.114 367.548 23.144 367.218 23.144C366.828 23.144 366.468 23.093 366.138 22.991C365.808 22.883 365.523 22.724 365.283 22.514C365.043 22.304 364.857 22.043 364.725 21.731C364.593 21.419 364.527 21.056 364.527 20.642C364.527 20.408 364.566 20.177 364.644 19.949C364.722 19.715 364.848 19.493 365.022 19.283C365.202 19.073 365.433 18.875 365.715 18.689C365.997 18.503 366.342 18.341 366.75 18.203C367.164 18.065 367.644 17.954 368.19 17.87C368.736 17.78 369.36 17.726 370.062 17.708V17.168C370.062 16.55 369.93 16.094 369.666 15.8C369.402 15.5 369.021 15.35 368.523 15.35C368.163 15.35 367.863 15.392 367.623 15.476C367.389 15.56 367.182 15.656 367.002 15.764C366.822 15.866 366.657 15.959 366.507 16.043C366.363 16.127 366.201 16.169 366.021 16.169C365.865 16.169 365.733 16.13 365.625 16.052C365.517 15.968 365.43 15.872 365.364 15.764L364.968 15.053ZM376.575 9.626V23H374.352V9.626H376.575Z" fill="white"/>
<path d="M231.427 39.5499C231.703 39.5499 231.947 39.5132 232.157 39.4399C232.37 39.3666 232.548 39.2649 232.692 39.1349C232.838 39.0016 232.948 38.8432 233.022 38.6599C233.095 38.4766 233.132 38.2749 233.132 38.0549C233.132 37.5982 232.99 37.2416 232.707 36.9849C232.427 36.7282 232 36.5999 231.427 36.5999H230.277V39.5499H231.427ZM231.427 35.8349C231.88 35.8349 232.273 35.8882 232.607 35.9949C232.943 36.0982 233.222 36.2466 233.442 36.4399C233.662 36.6332 233.825 36.8666 233.932 37.1399C234.042 37.4132 234.097 37.7182 234.097 38.0549C234.097 38.3882 234.038 38.6932 233.922 38.9699C233.805 39.2466 233.633 39.4849 233.407 39.6849C233.183 39.8849 232.905 40.0416 232.572 40.1549C232.242 40.2649 231.86 40.3199 231.427 40.3199H230.277V42.9999H229.312V35.8349H231.427ZM242.437 39.4199C242.437 39.9566 242.352 40.4499 242.182 40.8999C242.012 41.3466 241.772 41.7316 241.462 42.0549C241.152 42.3782 240.779 42.6299 240.342 42.8099C239.909 42.9866 239.429 43.0749 238.902 43.0749C238.376 43.0749 237.896 42.9866 237.462 42.8099C237.029 42.6299 236.657 42.3782 236.347 42.0549C236.037 41.7316 235.797 41.3466 235.627 40.8999C235.457 40.4499 235.372 39.9566 235.372 39.4199C235.372 38.8832 235.457 38.3916 235.627 37.9449C235.797 37.4949 236.037 37.1082 236.347 36.7849C236.657 36.4582 237.029 36.2049 237.462 36.0249C237.896 35.8449 238.376 35.7549 238.902 35.7549C239.429 35.7549 239.909 35.8449 240.342 36.0249C240.779 36.2049 241.152 36.4582 241.462 36.7849C241.772 37.1082 242.012 37.4949 242.182 37.9449C242.352 38.3916 242.437 38.8832 242.437 39.4199ZM241.442 39.4199C241.442 38.9799 241.382 38.5849 241.262 38.2349C241.142 37.8849 240.972 37.5899 240.752 37.3499C240.532 37.1066 240.266 36.9199 239.952 36.7899C239.639 36.6599 239.289 36.5949 238.902 36.5949C238.519 36.5949 238.171 36.6599 237.857 36.7899C237.544 36.9199 237.276 37.1066 237.052 37.3499C236.832 37.5899 236.662 37.8849 236.542 38.2349C236.422 38.5849 236.362 38.9799 236.362 39.4199C236.362 39.8599 236.422 40.2549 236.542 40.6049C236.662 40.9516 236.832 41.2466 237.052 41.4899C237.276 41.7299 237.544 41.9149 237.857 42.0449C238.171 42.1716 238.519 42.2349 238.902 42.2349C239.289 42.2349 239.639 42.1716 239.952 42.0449C240.266 41.9149 240.532 41.7299 240.752 41.4899C240.972 41.2466 241.142 40.9516 241.262 40.6049C241.382 40.2549 241.442 39.8599 241.442 39.4199ZM253.503 35.8349L251.268 42.9999H250.398L248.583 37.5349C248.566 37.4816 248.549 37.4249 248.533 37.3649C248.519 37.3049 248.504 37.2416 248.488 37.1749C248.471 37.2416 248.454 37.3049 248.438 37.3649C248.421 37.4249 248.404 37.4816 248.388 37.5349L246.563 42.9999H245.693L243.458 35.8349H244.263C244.349 35.8349 244.421 35.8566 244.478 35.8999C244.538 35.9432 244.576 35.9982 244.593 36.0649L246.073 41.0449C246.096 41.1349 246.118 41.2316 246.138 41.3349C246.161 41.4382 246.183 41.5482 246.203 41.6649C246.226 41.5482 246.249 41.4382 246.273 41.3349C246.299 41.2282 246.328 41.1316 246.358 41.0449L248.043 36.0649C248.063 36.0082 248.101 35.9566 248.158 35.9099C248.218 35.8599 248.289 35.8349 248.373 35.8349H248.653C248.739 35.8349 248.809 35.8566 248.863 35.8999C248.916 35.9432 248.956 35.9982 248.983 36.0649L250.663 41.0449C250.693 41.1316 250.719 41.2249 250.743 41.3249C250.769 41.4249 250.794 41.5299 250.818 41.6399C250.834 41.5299 250.853 41.4249 250.873 41.3249C250.893 41.2249 250.914 41.1316 250.938 41.0449L252.423 36.0649C252.439 36.0049 252.476 35.9516 252.533 35.9049C252.593 35.8582 252.664 35.8349 252.748 35.8349H253.503ZM259.489 42.2099L259.484 42.9999H255.069V35.8349H259.484V36.6249H256.039V39.0049H258.829V39.7649H256.039V42.2099H259.489ZM263.326 39.3049C263.606 39.3049 263.852 39.2716 264.066 39.2049C264.282 39.1349 264.462 39.0382 264.606 38.9149C264.752 38.7882 264.862 38.6382 264.936 38.4649C265.009 38.2916 265.046 38.0999 265.046 37.8899C265.046 37.4632 264.906 37.1416 264.626 36.9249C264.346 36.7082 263.926 36.5999 263.366 36.5999H262.306V39.3049H263.326ZM266.636 42.9999H265.776C265.599 42.9999 265.469 42.9316 265.386 42.7949L263.526 40.2349C263.469 40.1549 263.407 40.0982 263.341 40.0649C263.277 40.0282 263.177 40.0099 263.041 40.0099H262.306V42.9999H261.341V35.8349H263.366C263.819 35.8349 264.211 35.8816 264.541 35.9749C264.871 36.0649 265.142 36.1966 265.356 36.3699C265.572 36.5432 265.732 36.7532 265.836 36.9999C265.939 37.2432 265.991 37.5166 265.991 37.8199C265.991 38.0732 265.951 38.3099 265.871 38.5299C265.791 38.7499 265.674 38.9482 265.521 39.1249C265.371 39.2982 265.186 39.4466 264.966 39.5699C264.749 39.6932 264.502 39.7866 264.226 39.8499C264.349 39.9199 264.456 40.0216 264.546 40.1549L266.636 42.9999ZM272.53 42.2099L272.525 42.9999H268.11V35.8349H272.525V36.6249H269.08V39.0049H271.87V39.7649H269.08V42.2099H272.53ZM280.592 39.4199C280.592 39.9566 280.507 40.4449 280.337 40.8849C280.167 41.3249 279.927 41.7016 279.617 42.0149C279.307 42.3282 278.934 42.5716 278.497 42.7449C278.064 42.9149 277.584 42.9999 277.057 42.9999H274.382V35.8349H277.057C277.584 35.8349 278.064 35.9216 278.497 36.0949C278.934 36.2649 279.307 36.5082 279.617 36.8249C279.927 37.1382 280.167 37.5149 280.337 37.9549C280.507 38.3949 280.592 38.8832 280.592 39.4199ZM279.597 39.4199C279.597 38.9799 279.537 38.5866 279.417 38.2399C279.297 37.8932 279.127 37.5999 278.907 37.3599C278.687 37.1199 278.42 36.9366 278.107 36.8099C277.794 36.6832 277.444 36.6199 277.057 36.6199H275.352V42.2149H277.057C277.444 42.2149 277.794 42.1516 278.107 42.0249C278.42 41.8982 278.687 41.7166 278.907 41.4799C279.127 41.2399 279.297 40.9466 279.417 40.5999C279.537 40.2532 279.597 39.8599 279.597 39.4199ZM288.063 42.2299C288.34 42.2299 288.578 42.1982 288.778 42.1349C288.978 42.0716 289.141 41.9832 289.268 41.8699C289.398 41.7532 289.493 41.6166 289.553 41.4599C289.613 41.2999 289.643 41.1249 289.643 40.9349C289.643 40.5649 289.511 40.2732 289.248 40.0599C288.985 39.8432 288.59 39.7349 288.063 39.7349H286.513V42.2299H288.063ZM286.513 36.5999V39.0449H287.793C288.066 39.0449 288.303 39.0149 288.503 38.9549C288.706 38.8949 288.873 38.8116 289.003 38.7049C289.136 38.5982 289.235 38.4699 289.298 38.3199C289.361 38.1666 289.393 37.9999 289.393 37.8199C289.393 37.3966 289.266 37.0882 289.013 36.8949C288.76 36.6982 288.366 36.5999 287.833 36.5999H286.513ZM287.833 35.8349C288.273 35.8349 288.651 35.8782 288.968 35.9649C289.288 36.0516 289.55 36.1749 289.753 36.3349C289.96 36.4949 290.111 36.6916 290.208 36.9249C290.305 37.1549 290.353 37.4149 290.353 37.7049C290.353 37.8816 290.325 38.0516 290.268 38.2149C290.215 38.3749 290.133 38.5249 290.023 38.6649C289.913 38.8049 289.773 38.9316 289.603 39.0449C289.436 39.1549 289.24 39.2449 289.013 39.3149C289.54 39.4149 289.935 39.6032 290.198 39.8799C290.465 40.1532 290.598 40.5132 290.598 40.9599C290.598 41.2632 290.541 41.5399 290.428 41.7899C290.318 42.0399 290.155 42.2549 289.938 42.4349C289.725 42.6149 289.461 42.7549 289.148 42.8549C288.835 42.9516 288.478 42.9999 288.078 42.9999H285.548V35.8349H287.833ZM294.968 40.1449V42.9999H293.998V40.1449L291.373 35.8349H292.223C292.31 35.8349 292.378 35.8566 292.428 35.8999C292.478 35.9399 292.522 35.9932 292.558 36.0599L294.198 38.8449C294.258 38.9616 294.313 39.0716 294.363 39.1749C294.413 39.2749 294.457 39.3766 294.493 39.4799C294.53 39.3766 294.572 39.2749 294.618 39.1749C294.665 39.0716 294.717 38.9616 294.773 38.8449L296.408 36.0599C296.438 36.0032 296.48 35.9516 296.533 35.9049C296.587 35.8582 296.655 35.8349 296.738 35.8349H297.593L294.968 40.1449Z" fill="white"/>
<path d="M326.316 37.0368C326.285 37.0877 326.251 37.1267 326.214 37.1539C326.18 37.1776 326.137 37.1895 326.086 37.1895C326.029 37.1895 325.961 37.1607 325.882 37.1029C325.804 37.0452 325.706 36.9825 325.587 36.9146C325.471 36.8433 325.33 36.7788 325.163 36.7211C325 36.6634 324.801 36.6346 324.566 36.6346C324.345 36.6346 324.15 36.6651 323.98 36.7262C323.813 36.7839 323.672 36.8637 323.557 36.9655C323.444 37.0673 323.359 37.1878 323.301 37.3269C323.244 37.4627 323.215 37.6103 323.215 37.7699C323.215 37.9735 323.264 38.1432 323.363 38.2789C323.465 38.4113 323.597 38.525 323.761 38.62C323.927 38.7151 324.114 38.7982 324.322 38.8695C324.532 38.9374 324.747 39.0087 324.964 39.0833C325.185 39.158 325.4 39.2428 325.607 39.3379C325.818 39.4295 326.005 39.5466 326.168 39.6891C326.335 39.8317 326.467 40.0065 326.566 40.2135C326.668 40.4205 326.719 40.6751 326.719 40.9771C326.719 41.2962 326.665 41.5965 326.556 41.8782C326.447 42.1565 326.287 42.3992 326.076 42.6062C325.869 42.8133 325.612 42.9762 325.306 43.095C325.003 43.2138 324.658 43.2731 324.271 43.2731C323.795 43.2731 323.363 43.1883 322.975 43.0186C322.587 42.8455 322.256 42.613 321.98 42.3211L322.266 41.8528C322.293 41.8154 322.326 41.7849 322.363 41.7611C322.404 41.734 322.448 41.7204 322.496 41.7204C322.54 41.7204 322.589 41.7391 322.643 41.7764C322.701 41.8103 322.766 41.8545 322.837 41.9088C322.909 41.9631 322.99 42.0225 323.082 42.087C323.174 42.1514 323.278 42.2108 323.393 42.2651C323.512 42.3194 323.647 42.3653 323.796 42.4026C323.946 42.4365 324.114 42.4535 324.301 42.4535C324.536 42.4535 324.745 42.4213 324.929 42.3568C325.112 42.2923 325.267 42.2023 325.393 42.087C325.522 41.9682 325.621 41.8273 325.689 41.6644C325.757 41.5015 325.791 41.3199 325.791 41.1197C325.791 40.8991 325.74 40.7192 325.638 40.58C325.539 40.4375 325.408 40.3187 325.245 40.2237C325.082 40.1287 324.895 40.0489 324.684 39.9844C324.473 39.9165 324.259 39.8487 324.041 39.7808C323.823 39.7095 323.609 39.628 323.398 39.5364C323.188 39.4448 323.001 39.326 322.837 39.18C322.674 39.0341 322.541 38.8525 322.439 38.6353C322.341 38.4147 322.292 38.1432 322.292 37.8208C322.292 37.5628 322.341 37.3134 322.439 37.0724C322.541 36.8314 322.688 36.6176 322.878 36.4309C323.072 36.2443 323.308 36.0949 323.587 35.9829C323.869 35.8709 324.192 35.8149 324.556 35.8149C324.964 35.8149 325.335 35.8794 325.668 36.0084C326.005 36.1374 326.301 36.324 326.556 36.5684L326.316 37.0368Z" fill="white"/>
<path d="M332.878 40.2851V43.192H331.889V40.2851L329.211 35.8967H330.078C330.166 35.8967 330.236 35.9188 330.287 35.9629C330.338 36.0036 330.382 36.0579 330.42 36.1258L332.093 38.9614C332.154 39.0802 332.21 39.1922 332.261 39.2974C332.312 39.3993 332.356 39.5028 332.394 39.608C332.431 39.5028 332.474 39.3993 332.521 39.2974C332.569 39.1922 332.621 39.0802 332.679 38.9614L334.347 36.1258C334.378 36.0681 334.42 36.0155 334.475 35.968C334.529 35.9205 334.599 35.8967 334.684 35.8967H335.556L332.878 40.2851Z" fill="white"/>
<path d="M344.08 35.8967V43.192H343.585C343.507 43.192 343.441 43.1784 343.386 43.1513C343.335 43.1241 343.284 43.0783 343.233 43.0138L339.005 37.5156C339.012 37.6005 339.017 37.6836 339.02 37.7651C339.024 37.8465 339.025 37.9229 339.025 37.9942V43.192H338.158V35.8967H338.668C338.712 35.8967 338.75 35.9001 338.78 35.9069C338.811 35.9103 338.838 35.9188 338.862 35.9324C338.886 35.9425 338.91 35.9595 338.934 35.9833C338.957 36.0036 338.983 36.0308 339.01 36.0647L343.238 41.5578C343.232 41.4696 343.225 41.3847 343.218 41.3033C343.214 41.2184 343.213 41.1387 343.213 41.064V35.8967H344.08Z" fill="white"/>
<path d="M351.743 40.4836L350.596 37.5156C350.562 37.4274 350.526 37.3256 350.489 37.2102C350.451 37.0914 350.415 36.9658 350.382 36.8334C350.31 37.1084 350.237 37.3374 350.162 37.5207L349.015 40.4836H351.743ZM353.804 43.192H353.039C352.95 43.192 352.879 43.1699 352.825 43.1258C352.77 43.0817 352.729 43.0257 352.702 42.9578L352.019 41.1964H348.739L348.056 42.9578C348.035 43.0189 347.996 43.0732 347.938 43.1207C347.88 43.1682 347.809 43.192 347.724 43.192H346.959L349.882 35.8967H350.881L353.804 43.192Z" fill="white"/>
<path d="M359.09 39.6793C359.373 39.6793 359.621 39.6419 359.835 39.5673C360.052 39.4926 360.235 39.3891 360.381 39.2567C360.53 39.121 360.643 38.9597 360.717 38.7731C360.792 38.5864 360.83 38.3811 360.83 38.1571C360.83 37.6921 360.685 37.329 360.396 37.0676C360.11 36.8063 359.675 36.6756 359.09 36.6756H357.917V39.6793H359.09ZM359.09 35.8967C359.553 35.8967 359.954 35.951 360.294 36.0596C360.637 36.1648 360.921 36.3159 361.146 36.5127C361.37 36.7096 361.537 36.9472 361.646 37.2254C361.758 37.5037 361.814 37.8143 361.814 38.1571C361.814 38.4965 361.755 38.807 361.635 39.0887C361.516 39.3704 361.341 39.6131 361.11 39.8167C360.882 40.0204 360.598 40.1799 360.258 40.2953C359.922 40.4073 359.532 40.4633 359.09 40.4633H357.917V43.192H356.933V35.8967H359.09Z" fill="white"/>
<path d="M369.221 37.0368C369.191 37.0877 369.157 37.1267 369.119 37.1539C369.085 37.1776 369.043 37.1895 368.992 37.1895C368.934 37.1895 368.866 37.1607 368.788 37.1029C368.71 37.0452 368.611 36.9825 368.492 36.9146C368.376 36.8433 368.235 36.7788 368.069 36.7211C367.905 36.6634 367.706 36.6346 367.472 36.6346C367.251 36.6346 367.055 36.6651 366.885 36.7262C366.719 36.7839 366.578 36.8637 366.462 36.9655C366.35 37.0673 366.265 37.1878 366.207 37.3269C366.149 37.4627 366.12 37.6103 366.12 37.7699C366.12 37.9735 366.17 38.1432 366.268 38.2789C366.37 38.4113 366.503 38.525 366.666 38.62C366.833 38.7151 367.02 38.7982 367.227 38.8695C367.438 38.9374 367.652 39.0087 367.87 39.0833C368.091 39.158 368.305 39.2428 368.512 39.3379C368.723 39.4295 368.91 39.5466 369.073 39.6891C369.24 39.8317 369.373 40.0065 369.471 40.2135C369.573 40.4205 369.624 40.6751 369.624 40.9771C369.624 41.2962 369.57 41.5965 369.461 41.8782C369.352 42.1565 369.192 42.3992 368.982 42.6062C368.774 42.8133 368.517 42.9762 368.211 43.095C367.909 43.2138 367.564 43.2731 367.176 43.2731C366.7 43.2731 366.268 43.1883 365.88 43.0186C365.493 42.8455 365.161 42.613 364.886 42.3211L365.171 41.8528C365.199 41.8154 365.231 41.7849 365.268 41.7611C365.309 41.734 365.353 41.7204 365.401 41.7204C365.445 41.7204 365.495 41.7391 365.549 41.7764C365.607 41.8103 365.671 41.8545 365.743 41.9088C365.814 41.9631 365.896 42.0225 365.987 42.087C366.079 42.1514 366.183 42.2108 366.299 42.2651C366.418 42.3194 366.552 42.3653 366.702 42.4026C366.851 42.4365 367.02 42.4535 367.207 42.4535C367.441 42.4535 367.65 42.4213 367.834 42.3568C368.018 42.2923 368.172 42.2023 368.298 42.087C368.427 41.9682 368.526 41.8273 368.594 41.6644C368.662 41.5015 368.696 41.3199 368.696 41.1197C368.696 40.8991 368.645 40.7192 368.543 40.58C368.444 40.4375 368.313 40.3187 368.15 40.2237C367.987 40.1287 367.8 40.0489 367.589 39.9844C367.378 39.9165 367.164 39.8487 366.946 39.7808C366.729 39.7095 366.515 39.628 366.304 39.5364C366.093 39.4448 365.906 39.326 365.743 39.18C365.579 39.0341 365.447 38.8525 365.345 38.6353C365.246 38.4147 365.197 38.1432 365.197 37.8208C365.197 37.5628 365.246 37.3134 365.345 37.0724C365.447 36.8314 365.593 36.6176 365.783 36.4309C365.977 36.2443 366.214 36.0949 366.492 35.9829C366.775 35.8709 367.098 35.8149 367.462 35.8149C367.87 35.8149 368.24 35.8794 368.574 36.0084C368.91 36.1374 369.206 36.324 369.461 36.5684L369.221 37.0368Z" fill="white"/>
<path d="M377.953 42.3876L377.948 43.192H373.444V35.8967H377.948V36.7011H374.434V39.1244H377.28V39.8982H374.434V42.3876H377.953Z" fill="white"/>
<path d="M310.955 35.7349L306.239 38.4575L306.806 39.4351L311.521 36.7125L310.955 35.7349Z" fill="white"/>
<path d="M311.295 42.7192L306.592 40.0212L306.025 41.0046L310.729 43.7026L311.295 42.7192Z" fill="white"/>
<path d="M312.381 42.0839L312.383 36.6477L313.515 36.6482L313.513 42.0844L312.381 42.0839Z" fill="white"/>
<path fill-rule="evenodd" clip-rule="evenodd" d="M306.231 41.6103C307.316 40.9837 307.688 39.6004 307.062 38.5205C306.437 37.4407 305.049 37.0732 303.964 37.6997C302.879 38.3262 302.507 39.7095 303.133 40.7893C303.759 41.8692 305.146 42.2368 306.231 41.6103ZM305.664 40.6324C306.207 40.3192 306.393 39.6275 306.08 39.0876C305.767 38.5477 305.073 38.3639 304.531 38.6772C303.988 38.9905 303.802 39.6821 304.115 40.222C304.428 40.7619 305.121 40.9457 305.664 40.6324Z" fill="white"/>
<path fill-rule="evenodd" clip-rule="evenodd" d="M314.075 37.0451C315.16 36.4185 315.532 35.0352 314.906 33.9553C314.28 32.8755 312.893 32.508 311.808 33.1345C310.723 33.761 310.351 35.1443 310.977 36.2241C311.603 37.304 312.99 37.6716 314.075 37.0451ZM313.508 36.0672C314.051 35.754 314.237 35.0623 313.924 34.5224C313.611 33.9825 312.918 33.7987 312.375 34.112C311.832 34.4253 311.646 35.1169 311.959 35.6568C312.272 36.1967 312.965 36.3805 313.508 36.0672Z" fill="white"/>
<path fill-rule="evenodd" clip-rule="evenodd" d="M314.072 37.0466C315.155 36.4162 315.526 35.0292 314.902 33.9487C314.277 32.8681 312.893 32.5031 311.81 33.1333C310.727 33.7636 310.355 35.1506 310.98 36.2311C311.605 37.3117 312.989 37.6769 314.072 37.0466ZM313.506 36.0682C314.048 35.7531 314.233 35.0596 313.921 34.5193C313.609 33.979 312.917 33.7964 312.375 34.1116C311.834 34.4268 311.648 35.1202 311.96 35.6605C312.272 36.2008 312.965 36.3834 313.506 36.0682Z" fill="white"/>
<path fill-rule="evenodd" clip-rule="evenodd" d="M311.673 45.6931C312.756 46.3138 314.14 45.9365 314.766 44.8503C315.391 43.7642 315.021 42.3805 313.939 41.7598C312.856 41.1391 311.472 41.5164 310.846 42.6026C310.221 43.6888 310.591 45.0724 311.673 45.6931ZM312.24 44.7099C312.781 45.0202 313.473 44.8315 313.786 44.2885C314.099 43.7454 313.914 43.0536 313.372 42.7432C312.831 42.4328 312.139 42.6215 311.826 43.1645C311.513 43.7077 311.699 44.3995 312.24 44.7099Z" fill="white"/>
<path fill-rule="evenodd" clip-rule="evenodd" d="M306.229 41.5956C307.312 40.9653 307.683 39.5783 307.059 38.4977C306.434 37.4172 305.05 37.0521 303.967 37.6824C302.884 38.3127 302.513 39.6996 303.137 40.7802C303.762 41.8608 305.146 42.2259 306.229 41.5956ZM305.663 40.6172C306.205 40.3022 306.391 39.6086 306.078 39.0684C305.766 38.5281 305.074 38.3455 304.532 38.6607C303.991 38.9759 303.805 39.6693 304.117 40.2096C304.43 40.7499 305.122 40.9324 305.663 40.6172Z" fill="white"/>
<path fill-rule="evenodd" clip-rule="evenodd" d="M27.2728 21.0997L29.6483 19.867V14.9579L26.8747 14.0415L24.5674 14.9606V19.8697L27.2728 21.0997Z" fill="#F0EFF0"/>
<path fill-rule="evenodd" clip-rule="evenodd" d="M25.7617 30.495C26.1635 30.7507 26.63 30.886 27.1062 30.885C27.7787 30.8836 28.4233 30.616 28.8991 30.1407C29.3749 29.6654 29.6432 29.0212 29.6453 28.3487V19.8669C29.4483 19.9663 29.2306 20.0182 29.0099 20.0182C28.7891 20.0182 28.5715 19.9663 28.3744 19.8669C28.1778 19.7674 27.9606 19.7156 27.7403 19.7156C27.52 19.7156 27.3028 19.7674 27.1062 19.8669C26.9092 19.9663 26.6915 20.0182 26.4708 20.0182C26.25 20.0182 26.0324 19.9663 25.8353 19.8669C25.6388 19.7674 25.4215 19.7156 25.2012 19.7156C24.9809 19.7156 24.7637 19.7674 24.5672 19.8669V25.275C24.4499 28.4223 24.2235 29.5841 25.7617 30.495Z" fill="#21AB9F"/>
<path fill-rule="evenodd" clip-rule="evenodd" d="M24.567 14.9607H29.9343C30.0018 14.9599 30.0663 14.9326 30.1138 14.8846C30.1613 14.8366 30.1879 14.7718 30.1879 14.7043V12.9179C30.1879 12.8507 30.1612 12.7862 30.1136 12.7386C30.0661 12.691 30.0016 12.6643 29.9343 12.6643H24.2725C24.205 12.6643 24.1402 12.6909 24.0922 12.7384C24.0442 12.7859 24.0168 12.8504 24.0161 12.9179V14.7043C24.0161 14.7723 24.0431 14.8375 24.0912 14.8856C24.1393 14.9337 24.2045 14.9607 24.2725 14.9607H24.567Z" fill="#CED2DB"/>
<path fill-rule="evenodd" clip-rule="evenodd" d="M18.8182 29.9498C21.5236 29.4452 23.2827 29.3416 25.7482 28.0407C25.5386 27.0507 25.1375 26.1112 24.5672 25.2752C23.9676 24.3201 23.0678 23.591 22.0091 23.2025C21.7582 23.1234 21.5427 23.0552 21.5427 22.8916V19.3243L19.2109 18.408L16.7563 19.3243V22.8889C16.7563 23.0525 16.5409 23.1234 16.29 23.2025C14.3809 23.8107 12.9791 25.9843 12.5591 28.0325L18.8182 29.9498Z" fill="#F0EFF0"/>
<path fill-rule="evenodd" clip-rule="evenodd" d="M16.7568 19.3242H21.7286C21.7966 19.3242 21.8618 19.2972 21.9098 19.2491C21.9579 19.201 21.9849 19.1358 21.9849 19.0678V17.2815C21.9849 17.2479 21.9783 17.2147 21.9654 17.1838C21.9525 17.1528 21.9335 17.1248 21.9097 17.1012C21.8858 17.0776 21.8576 17.059 21.8265 17.0464C21.7954 17.0338 21.7621 17.0275 21.7286 17.0278H16.5686C16.5013 17.0278 16.4368 17.0546 16.3892 17.1021C16.3417 17.1497 16.3149 17.2142 16.3149 17.2815V19.0678C16.3149 19.1354 16.3416 19.2002 16.3891 19.2482C16.4366 19.2962 16.5011 19.3235 16.5686 19.3242H16.7568Z" fill="#CED2DB"/>
<path fill-rule="evenodd" clip-rule="evenodd" d="M19.65 36.0397C21.1369 35.9167 22.5416 35.3068 23.6466 34.3043C24.7516 33.3019 25.4951 31.963 25.7618 30.4952C25.8343 30.091 25.8708 29.6812 25.8709 29.2706C25.8682 28.8553 25.8234 28.4414 25.7373 28.0352C25.2599 28.2966 24.7243 28.4336 24.18 28.4336C23.6357 28.4336 23.1002 28.2966 22.6228 28.0352C22.0622 27.7147 21.4276 27.5461 20.7819 27.5461C20.1361 27.5461 19.5015 27.7147 18.9409 28.0352C18.4691 28.2986 17.9377 28.4369 17.3973 28.4369C16.8569 28.4369 16.3255 28.2986 15.8537 28.0352C14.1628 27.1352 12.8537 27.6343 12.5591 28.0352C12.4737 28.4424 12.4299 28.8573 12.4282 29.2733C12.4258 30.9767 13.0643 32.6185 14.2169 33.8726C15.3694 35.1268 16.9517 35.9013 18.6491 36.0424L19.65 36.0397Z" fill="#6CB46C"/>
<path fill-rule="evenodd" clip-rule="evenodd" d="M20.3752 30.5551C20.3719 30.7182 20.4175 30.8785 20.506 31.0154C20.5945 31.1524 20.722 31.2598 20.8719 31.3238C21.0219 31.3879 21.1876 31.4056 21.3478 31.3748C21.5079 31.344 21.6552 31.266 21.7707 31.1509C21.8863 31.0358 21.9647 30.8887 21.9961 30.7287C22.0275 30.5686 22.0103 30.4029 21.9467 30.2527C21.8832 30.1025 21.7763 29.9747 21.6396 29.8857C21.5029 29.7967 21.3428 29.7506 21.1797 29.7533C20.9668 29.7533 20.7626 29.8377 20.6118 29.988C20.461 30.1383 20.3759 30.3422 20.3752 30.5551Z" fill="#85C185"/>
<path fill-rule="evenodd" clip-rule="evenodd" d="M17.4055 32.4208C17.5911 32.4208 17.7726 32.3657 17.927 32.2625C18.0813 32.1593 18.2016 32.0126 18.2725 31.841C18.3434 31.6694 18.3618 31.4806 18.3254 31.2986C18.289 31.1165 18.1994 30.9494 18.0679 30.8183C17.9364 30.6872 17.769 30.598 17.5868 30.5621C17.4047 30.5262 17.2159 30.5452 17.0446 30.6166C16.8732 30.6881 16.7268 30.8087 16.6241 30.9634C16.5213 31.118 16.4667 31.2997 16.4673 31.4853C16.468 31.7337 16.5672 31.9716 16.743 32.147C16.9189 32.3223 17.1571 32.4208 17.4055 32.4208V32.4208Z" fill="#85C185"/>
<path fill-rule="evenodd" clip-rule="evenodd" d="M26.8226 23.0362C26.9791 23.0362 27.132 22.9898 27.2621 22.9029C27.3921 22.816 27.4935 22.6924 27.5534 22.5479C27.6132 22.4034 27.6289 22.2444 27.5984 22.091C27.5678 21.9375 27.4925 21.7966 27.3819 21.686C27.2713 21.5754 27.1304 21.5001 26.9769 21.4695C26.8235 21.439 26.6645 21.4547 26.52 21.5146C26.3755 21.5744 26.2519 21.6758 26.165 21.8058C26.0781 21.9359 26.0317 22.0888 26.0317 22.2453C26.0317 22.455 26.1151 22.6562 26.2634 22.8045C26.4117 22.9528 26.6129 23.0362 26.8226 23.0362Z" fill="#3ABDAD"/>
<path fill-rule="evenodd" clip-rule="evenodd" d="M27.425 26.167C27.5813 26.1665 27.7339 26.1196 27.8636 26.0324C27.9933 25.9452 28.0943 25.8215 28.1537 25.6769C28.2132 25.5323 28.2285 25.3734 28.1976 25.2201C28.1668 25.0669 28.0913 24.9262 27.9805 24.8159C27.8698 24.7056 27.7289 24.6305 27.5756 24.6002C27.4222 24.5699 27.2633 24.5857 27.119 24.6457C26.9746 24.7056 26.8512 24.807 26.7645 24.937C26.6777 25.067 26.6313 25.2198 26.6313 25.3761C26.6313 25.4802 26.6519 25.5833 26.6918 25.6794C26.7317 25.7755 26.7902 25.8629 26.864 25.9363C26.9377 26.0098 27.0252 26.068 27.1215 26.1076C27.2177 26.1472 27.3209 26.1674 27.425 26.167V26.167Z" fill="#3ABDAD"/>
<path d="M14.7494 7.64338C14.9134 7.45445 15.1138 7.30048 15.3385 7.19066C15.5628 7.08111 15.8066 7.01715 16.0558 7.00247C16.3034 6.98965 16.551 7.02675 16.784 7.11156C17.0188 7.19807 17.2339 7.33067 17.4167 7.50156L21.1531 10.9788C21.3396 11.1499 21.4899 11.3567 21.5949 11.587C21.8103 12.0545 21.8357 12.5875 21.6658 13.0734C21.5845 13.3125 21.4566 13.5331 21.2894 13.7225C21.1245 13.9115 20.9232 14.0654 20.6976 14.1752C20.4747 14.2853 20.2315 14.3485 19.9831 14.3606C19.7346 14.3737 19.486 14.3366 19.2522 14.2516C19.018 14.1638 18.8031 14.0313 18.6194 13.8616L14.8831 10.387C14.7022 10.214 14.5568 10.0074 14.4549 9.77883C14.2392 9.31138 14.2138 8.77834 14.384 8.29247C14.462 8.05421 14.5862 7.83365 14.7494 7.64338V7.64338Z" fill="#FBE5BD"/>
<path d="M19.3171 9.27434L17.408 7.50434C17.2262 7.33343 17.0116 7.20111 16.7772 7.11533C16.5429 7.02956 16.2936 6.99211 16.0444 7.00525C15.7951 7.01922 15.5511 7.08287 15.3268 7.19246C15.1024 7.30205 14.9023 7.45538 14.738 7.64343C14.4008 8.02927 14.2265 8.53098 14.252 9.04279C14.2774 9.55461 14.5005 10.0366 14.8744 10.3871L16.7835 12.1571L19.3171 9.27434Z" fill="#F9CC7D"/>
<path fill-rule="evenodd" clip-rule="evenodd" d="M29.3046 33.1432L31.7346 35.6114C32.2064 36.0914 32.9427 35.3387 32.4682 34.8641C31.6591 34.0405 30.85 33.2223 30.0409 32.4096C29.5664 31.9132 28.83 32.6605 29.3046 33.1432Z" fill="#333F56"/>
<path fill-rule="evenodd" clip-rule="evenodd" d="M38.9999 39.6942L36.6299 42.0833L31.0908 36.506L32.2554 35.336L33.4608 34.1196L38.9999 39.6942Z" fill="#F5B33C"/>
<path d="M31.5462 28.289C31.5478 29.0657 31.3956 29.835 31.0984 30.5526C30.8011 31.2702 30.3647 31.9218 29.8144 32.4699C29.1544 33.1294 28.3479 33.6234 27.4606 33.9116C26.5733 34.1999 25.6304 34.2742 24.7089 34.1284C23.7874 33.9827 22.9134 33.6211 22.1584 33.0731C21.4033 32.5251 20.7886 31.8063 20.3644 30.9753C19.9381 30.1443 19.7173 29.223 19.7207 28.289C19.7215 26.7771 20.3013 25.323 21.3411 24.2255C22.3809 23.1279 23.8015 22.4704 25.3112 22.3879C26.8208 22.3055 28.3046 22.8045 29.4577 23.7824C30.6107 24.7602 31.3454 26.1426 31.5107 27.6453V27.6453C31.5333 27.8592 31.5452 28.074 31.5462 28.289" stroke="#4A5F82"/>
<path d="M11.392 18.4053C12.7009 18.4053 13.762 17.3442 13.762 16.0353C13.762 14.7264 12.7009 13.6653 11.392 13.6653C10.0831 13.6653 9.02197 14.7264 9.02197 16.0353C9.02197 17.3442 10.0831 18.4053 11.392 18.4053Z" fill="#F9CC7D"/>
<path fill-rule="evenodd" clip-rule="evenodd" d="M10.7182 18.3069C10.1139 18.134 9.60298 17.7281 9.29789 17.1786C8.9928 16.629 8.91853 15.9808 9.0914 15.3764C9.26427 14.7721 9.67013 14.2612 10.2197 13.9561C10.7693 13.651 11.4175 13.5767 12.0219 13.7496" fill="#FBE5BD"/>
</svg>
