<?xml version="1.0" encoding="utf-8"?>
<svg id="Layer_1" data-name="Layer 1" xmlns="http://www.w3.org/2000/svg" viewBox="0 0 103.2841 97.7312"><path d="M63.3449,37.0315a1.1788,1.1788,0,0,0,.5434,1.1956,1.3725,1.3725,0,0,0,1.3043-.1087A12.138,12.138,0,0,0,67.91,35.0751a9.9471,9.9471,0,0,0,.9782-1.8477,13.5764,13.5764,0,0,0,.8695-8.0429,13.14,13.14,0,0,0-.5435-1.9564,1.2029,1.2029,0,1,0-2.2824.7608c.2174.5435.326,1.0869.5434,1.63a11.186,11.186,0,0,1-.6521,6.5213,6.9335,6.9335,0,0,1-.87,1.5217,9.484,9.484,0,0,1-2.1738,2.5.9886.9886,0,0,0-.4347.87Z" fill="#dddddf"/><path d="M75.7353,18.3371c-.2174,10.4341-3.0433,19.7813-7.3908,26.52C63.78,52.03,57.6931,56.1606,51.2805,56.1606S38.7814,52.03,34.1078,44.857c-4.3475-6.7386-7.0648-16.0858-7.3908-26.52Z" fill="none" stroke="#dddddf" stroke-width="2"/><path d="M75.4092,23.88c4.2389,0,8.1517,1.8477,8.5864,6.63.3261,4.7823-5.76,15.9772-16.3032,15.9772" fill="none" stroke="#dddddf" stroke-width="2"/><path d="M27.1517,24.2063c-4.2388,0-8.1516,1.8477-8.5863,6.63-.3261,4.7822,5.76,15.9771,16.3032,15.9771" fill="none" stroke="#dddddf" stroke-width="2"/><path d="M55.7367,56.9214V70.29H46.8243V56.9214Z" fill="none" stroke="#dddddf" stroke-width="2"/><path d="M60.519,75.8331H42.042v-5.217H60.519Z" fill="none" stroke="#dddddf" stroke-width="2"/><path d="M63.1275,80.6154H39.4335V76.1592H63.2362v4.4562Z" fill="none" stroke="#dddddf" stroke-width="2"/></svg>
