<?xml version="1.0" encoding="utf-8"?>
<!-- Generator: Adobe Illustrator 24.1.2, SVG Export Plug-In . SVG Version: 6.00 Build 0)  -->
<svg version="1.1" id="Layer_1" xmlns="http://www.w3.org/2000/svg" xmlns:xlink="http://www.w3.org/1999/xlink" x="0px" y="0px"
	 viewBox="0 0 100 112" style="enable-background:new 0 0 100 112;" xml:space="preserve">
<style type="text/css">
	.st0{fill:#DDDDDF;stroke:#DDDDDF;stroke-width:0.4;stroke-miterlimit:10;}
	.st1{stroke:#000000;stroke-width:0.25;stroke-miterlimit:10;}
	.st2{fill:#DDDDDF;}
	.st3{fill-rule:evenodd;clip-rule:evenodd;fill:#FFFFFF;}
	.st4{fill:#FFFFFF;}
	.st5{fill:#FFFFFF;stroke:#DDDDDF;stroke-width:2;stroke-miterlimit:10;}
	.st6{fill:#DDDDDF;stroke:#DDDDDF;stroke-width:0.5;stroke-miterlimit:10;}
	.st7{fill:#DDDDDF;stroke:#DDDDDF;stroke-width:0.25;stroke-miterlimit:10;}
</style>
<path class="st0" d="M96.4,39.9c-0.2,2.5-1.9,4.7-4.3,5.6l-18.8,7c-3.5,1.3-7.3-0.5-8.6-3.9c-0.4-1-0.5-2-0.4-3
	c0.2-2.5,1.9-4.7,4.3-5.6l18.8-7c1.7-0.6,3.5-0.6,5.1,0.2c1.6,0.7,2.9,2.1,3.5,3.8C96.3,37.9,96.5,38.9,96.4,39.9z M65.9,45.8
	c-0.1,0.7,0,1.5,0.3,2.2c0.9,2.6,3.8,3.9,6.3,2.9c0,0,0.1,0,0.1,0l18.8-7c1.8-0.7,3-2.3,3.2-4.2c0.1-0.7,0-1.5-0.3-2.2
	c-0.5-1.2-1.4-2.2-2.6-2.8c-1.2-0.6-2.6-0.6-3.8-0.1l-18.8,7C67.3,42.3,66.1,43.9,65.9,45.8z"/>
<path class="st1" d="M77.5,37.6l1.6-0.6l4.1,11l-1.6,0.6L77.5,37.6z"/>
<path class="st2" d="M49.8,61.1c-3.1-0.3-5.8-2.4-6.8-5.3L34.5,33c-1.6-4.2,0.6-8.9,4.8-10.5c1.2-0.4,2.4-0.6,3.6-0.5
	c3.1,0.3,5.8,2.4,6.8,5.3l8.5,22.8c0.8,2,0.7,4.2-0.2,6.2c-0.9,2-2.5,3.5-4.6,4.2C52.3,61,51,61.2,49.8,61.1z M42.6,24.2
	c-0.9-0.1-1.9,0-2.7,0.4c-3.1,1.2-4.7,4.7-3.6,7.8l8.5,22.8c0.8,2.2,2.8,3.7,5.1,3.9c0.9,0.1,1.9,0,2.7-0.4c1.5-0.6,2.7-1.7,3.4-3.2
	c0.7-1.4,0.7-3.1,0.2-4.6l-8.5-22.8C46.9,25.9,44.9,24.4,42.6,24.2z"/>
<path class="st2" d="M52.6,38.2l0.7,1.9l-13.3,5l-0.7-1.9L52.6,38.2z"/>
<path class="st3" d="M26.2,73.3l4.8,4.9l4.7,4.7l-22.1,22.3l-9.5-9.5L26.2,73.3z"/>
<rect x="28.1" y="70.6" transform="matrix(0.7071 -0.7071 0.7071 0.7071 -40.8336 46.7934)" class="st4" width="16" height="4.2"/>
<rect x="28.7" y="70.2" transform="matrix(0.7071 -0.7071 0.7071 0.7071 -40.5213 46.792)" class="st5" width="15.1" height="4.2"/>
<path class="st5" d="M26.3,73.1l4.8,4.9l4.7,4.7L13.7,105l-9.5-9.5L26.3,73.1z"/>
<path class="st5" d="M75.2,67.1c-1.8,1.7-3.8,3.2-6,4.3c-11.6,5.9-25.8,1.4-31.8-10.2c0,0,0,0,0-0.1c-0.9-1.6-1.5-3.4-1.9-5.2
	c-0.4-1.8-0.6-3.7-0.6-5.5c0-2.2,0.3-4.3,0.9-6.4c2.9-10.2,12.1-17.2,22.7-17.2c12.1,0.1,22.2,9.1,23.5,21.1l0,0
	c0.1,0.9,0.1,1.7,0.1,2.6C82.2,56.7,79.7,62.7,75.2,67.1z M44.4,64.5c1.5,1.5,3.2,2.7,5.1,3.7c2.8,1.4,5.9,2.2,9.1,2.2
	c7.5,0,14.4-4.2,17.8-10.9c0.7-1.4,1.3-2.9,1.6-4.4c0.4-1.5,0.5-3.1,0.5-4.7c0-4.7-1.7-9.3-4.7-12.9c-3.8-4.6-9.4-7.2-15.3-7.2
	c-3.2,0-6.3,0.7-9.1,2.2c-6,3-10.1,8.9-10.8,15.6l0,0c-0.1,0.7-0.1,1.5-0.1,2.2C38.6,55.6,40.7,60.7,44.4,64.5z"/>
<path class="st6" d="M57.3,16.1c0.5-2.2,2.2-4,4.4-4.5L79,7.3c3.2-0.8,6.4,1.2,7.2,4.4c0.2,0.9,0.2,1.8,0,2.7
	c-0.5,2.2-2.2,4-4.4,4.5l-17.3,4.2c-1.5,0.4-3.2,0.1-4.5-0.7C57.8,21.1,56.7,18.6,57.3,16.1z M84.7,14c0.1-0.7,0.1-1.3,0-2
	c-0.6-2.4-3-3.8-5.3-3.2c0,0,0,0-0.1,0L62.1,13c-1.7,0.4-3,1.7-3.3,3.4c-0.1,0.7-0.1,1.3,0,2c0.3,1.1,1,2.1,2,2.7
	c1,0.6,2.2,0.8,3.4,0.5l17.3-4.2C83.1,17,84.4,15.7,84.7,14z"/>
<path class="st7" d="M73.7,20.1l-1.5,0.4l-2.5-10.1l1.5-0.4L73.7,20.1z"/>
</svg>
