<?xml version="1.0" encoding="utf-8"?>
<!-- Generator: Adobe Illustrator 24.1.2, SVG Export Plug-In . SVG Version: 6.00 Build 0)  -->
<svg version="1.1" id="Layer_1" xmlns="http://www.w3.org/2000/svg" xmlns:xlink="http://www.w3.org/1999/xlink" x="0px" y="0px"
	 viewBox="0 0 91 106" style="enable-background:new 0 0 91 106;" xml:space="preserve">
<style type="text/css">
	.st0{fill:#FFFFFF;fill-opacity:0.3;stroke:#DDDDDF;stroke-width:2;}
	.st1{fill-rule:evenodd;clip-rule:evenodd;fill:#FFFFFF;}
	.st2{fill:#FFFFFF;}
	.st3{fill:#FFFFFF;stroke:#DDDDDF;stroke-width:2;stroke-miterlimit:10;}
	.st4{fill:#DDDDDF;}
</style>
<path class="st0" d="M47.8,50.5C48.1,44,53.6,39.1,60,39.4c6,0.3,10.8,5.1,11.1,11.1H47.8z"/>
<path class="st0" d="M64.5,31.6c0,2.7-2.2,4.9-4.9,4.8s-4.9-2.2-4.8-4.9c0-2.7,2.2-4.8,4.9-4.8C62.4,26.7,64.5,28.9,64.5,31.6z"/>
<path class="st1" d="M26.8,62.3l4.8,4.9l4.7,4.7L14.2,94.2l-9.5-9.5L26.8,62.3z"/>
<rect x="28.7" y="59.6" transform="matrix(0.7071 -0.7071 0.7071 0.7071 -32.8732 43.9865)" class="st2" width="16" height="4.2"/>
<rect x="29.3" y="59.2" transform="matrix(0.7071 -0.7071 0.7071 0.7071 -32.5638 43.978)" class="st3" width="15.1" height="4.2"/>
<path class="st3" d="M26.9,62.1l4.8,4.9l4.7,4.7L14.3,94l-9.5-9.5L26.9,62.1z"/>
<path class="st3" d="M75.8,56.1c-1.8,1.7-3.8,3.2-6,4.3C58.2,66.3,44,61.7,38,50.1c0,0,0,0,0,0c-0.9-1.6-1.5-3.4-1.9-5.2
	c-0.4-1.8-0.6-3.7-0.6-5.5c0-2.2,0.3-4.3,0.9-6.4c2.9-10.2,12.1-17.2,22.7-17.2c12.1,0.1,22.2,9.1,23.5,21.1l0,0
	c0.1,0.9,0.1,1.7,0.1,2.6C82.8,45.7,80.3,51.7,75.8,56.1L75.8,56.1z M45,53.5c1.5,1.5,3.2,2.7,5.1,3.7c2.8,1.4,5.9,2.2,9.1,2.2
	c7.5,0,14.4-4.2,17.8-10.9c0.7-1.4,1.3-2.9,1.6-4.4c0.4-1.5,0.5-3.1,0.5-4.7c0-4.7-1.7-9.3-4.7-12.9c-3.8-4.6-9.4-7.2-15.3-7.2
	c-3.2,0-6.3,0.7-9.1,2.2c-6,3-10.1,8.9-10.8,15.6l0,0c-0.1,0.7-0.1,1.5-0.1,2.2C39.2,44.6,41.3,49.7,45,53.5z"/>
<path class="st4" d="M77.9,65.9c-2.2-0.5-4.5,0.8-5,3.1c-0.2,0.9-0.1,1.8,0.2,2.6l-9.2,8.1c-0.3-0.1-0.6-0.2-0.9-0.3
	c-1.1-0.3-2.2-0.1-3.2,0.5l-4.2-4c0.2-0.4,0.4-0.8,0.5-1.2c0.5-2.2-0.9-4.5-3.1-5c-2.2-0.5-4.4,0.8-5,3.1c-0.2,0.9-0.1,1.8,0.2,2.6
	l-9.2,8.1c-2.1-1-4.5-0.2-5.6,1.9c-1,2.1-0.2,4.5,1.9,5.6c2.1,1,4.5,0.2,5.6-1.9c0.6-1.2,0.6-2.7-0.1-3.9l9-7.9
	c0.4,0.3,0.8,0.5,1.3,0.6c0.9,0.2,1.9,0.1,2.7-0.3l4.4,4.2c-0.1,0.2-0.2,0.5-0.3,0.8c-0.5,2.2,0.8,4.5,3.1,5s4.5-0.8,5-3.1
	c0.3-1,0.1-2.1-0.5-3.1l9-8c0.4,0.3,0.8,0.5,1.3,0.6c2.2,0.5,4.4-0.9,4.9-3.2C81.4,68.5,80.1,66.4,77.9,65.9L77.9,65.9z M77.3,68.2
	c0.9,0.2,1.5,1.2,1.3,2.1c-0.2,0.9-1.2,1.5-2.1,1.3c-0.9-0.2-1.5-1.2-1.3-2.1C75.4,68.5,76.3,68,77.3,68.2
	C77.3,68.2,77.3,68.2,77.3,68.2z M52.6,72c1,0.2,1.5,1.2,1.3,2.1c-0.2,1-1.2,1.5-2.1,1.3c-1-0.2-1.5-1.2-1.3-2.1c0,0,0,0,0,0
	C50.7,72.4,51.6,71.8,52.6,72C52.6,72,52.6,72,52.6,72z M62.5,81.7c1,0.2,1.5,1.2,1.3,2.1c-0.2,1-1.2,1.5-2.1,1.3
	c-1-0.2-1.5-1.2-1.3-2.1c0,0,0,0,0,0C60.6,82.1,61.5,81.5,62.5,81.7C62.5,81.7,62.5,81.7,62.5,81.7L62.5,81.7z M37.8,85.5
	c1,0.2,1.5,1.2,1.3,2.1S37.9,89.2,37,89s-1.5-1.2-1.3-2.1c0,0,0,0,0,0C35.9,85.9,36.8,85.3,37.8,85.5C37.8,85.5,37.8,85.5,37.8,85.5
	z"/>
</svg>
