<?xml version="1.0" encoding="utf-8"?>
<!-- Generator: Adobe Illustrator 24.1.2, SVG Export Plug-In . SVG Version: 6.00 Build 0)  -->
<svg version="1.1" id="Layer_1" xmlns="http://www.w3.org/2000/svg" xmlns:xlink="http://www.w3.org/1999/xlink" x="0px" y="0px"
	 viewBox="0 0 90 106" style="enable-background:new 0 0 90 106;" xml:space="preserve">
<style type="text/css">
	.st0{fill:#DDDDDF;}
	.st1{fill:#FFFFFF;stroke:#DDDDDF;stroke-width:2;stroke-miterlimit:10;}
</style>
<rect x="10.3" y="87.4" class="st0" width="67.2" height="2.1"/>
<rect x="10.3" y="22.3" class="st0" width="2.1" height="67.2"/>
<rect x="32.3" y="62" class="st0" width="3.5" height="9.4"/>
<rect x="29.4" y="65" class="st0" width="9.4" height="3.5"/>
<rect x="19.2" y="73.5" class="st0" width="3.5" height="9.4"/>
<rect x="16.3" y="76.5" class="st0" width="9.4" height="3.5"/>
<rect x="52.1" y="35.7" class="st0" width="3.5" height="9.4"/>
<rect x="49.1" y="38.7" class="st0" width="9.4" height="3.5"/>
<rect x="66.3" y="25.3" class="st0" width="3.5" height="9.4"/>
<rect x="63.3" y="28.3" class="st0" width="9.4" height="3.5"/>
<rect x="35.8" y="43.9" class="st0" width="3.5" height="9.4"/>
<rect x="32.8" y="46.9" class="st0" width="9.4" height="3.5"/>
<circle class="st1" cx="63.1" cy="76.4" r="17.9"/>
<path class="st0" d="M58.4,85.3l-6.1-6.1l2-2l4.1,4.1L72.6,67l2,2L58.4,85.3z"/>
</svg>
