<svg xmlns="http://www.w3.org/2000/svg" viewBox="0 0 595.95 138.07"><defs><style>.cls-1{fill:#1fa0db;}.cls-2{fill:#df3e28;}.cls-3{fill:#84bd41;}.cls-4{fill:#404b63;}</style></defs><title>Asset 11</title><g id="Layer_2" data-name="Layer 2"><g id="Layer_1-2" data-name="Layer 1"><path class="cls-1" d="M24.35,128.13A43.67,43.67,0,0,1,13.48,119a45.25,45.25,0,0,1-7.59-11.93A48.62,48.62,0,0,1,2.37,93.41a48.35,48.35,0,0,1,.85-14.1l.86-3.45,1.19-3.34A10.69,10.69,0,0,1,6,70.88l.75-1.61c.26-.53.49-1.08.77-1.61l.91-1.53a43.6,43.6,0,0,1,9-11,48.43,48.43,0,0,1,12-7.79,48.52,48.52,0,0,1,13.9-3.65l3.61-.27,3.64.09a31.28,31.28,0,0,1,3.61.35l1.81.23c.6.09,1.19.26,1.78.39,1.18.3,2.39.47,3.54.88l3.47,1.16a49,49,0,0,1,6.59,3.22A46.8,46.8,0,0,1,82.71,59a49.77,49.77,0,0,1,8,12.49A46.84,46.84,0,0,1,94.51,86a46.11,46.11,0,0,1-.91,15.12,48.94,48.94,0,0,1-15.5,26.14c-1.09.87-.64,2.3.72,1.45a48.91,48.91,0,0,0,19.9-29.43,50.54,50.54,0,0,0-33-58.8,50.31,50.31,0,0,0-35.06.86A48.06,48.06,0,0,0,1,96.06a47.09,47.09,0,0,0,29.54,34.51c1.24.39,2.43.91,3.69,1.22l3.76.91,3.84.57c1.28.16,2.58.14,3.87.24l0-1.62a42.44,42.44,0,0,1-16.71-3.24A43.61,43.61,0,0,1,5.26,104.36a44.68,44.68,0,0,1,.88-34.7,45.64,45.64,0,0,1,26-24A46.12,46.12,0,0,1,50.19,43a44.31,44.31,0,0,1,17,4.37A45.37,45.37,0,0,1,81.17,58,45.93,45.93,0,0,1,90.1,73.06a46.71,46.71,0,0,1,2.62,17.25,47.26,47.26,0,0,1-13.46,31.33,49.76,49.76,0,0,1-31.18,14.79c-1.6.2-1.65,1.82,0,1.63A51.41,51.41,0,0,0,80.4,122.79,48.89,48.89,0,0,0,94.34,90.35,48.25,48.25,0,0,0,91.61,72.5a47.23,47.23,0,0,0-9.24-15.62,46.74,46.74,0,0,0-14.5-11A45.62,45.62,0,0,0,50.3,41.37a47.23,47.23,0,0,0-34.73,12.5A47,47,0,0,0,4.68,69a46.33,46.33,0,0,0-.95,36,45.45,45.45,0,0,0,9.85,15.17,45,45,0,0,0,14.8,10,44,44,0,0,0,17.34,3.38c1.53,0,1.52-1.54,0-1.62-1.24-.09-2.49-.08-3.72-.23l-3.68-.54-3.62-.88c-1.21-.29-2.35-.8-3.54-1.17A45,45,0,0,1,2.64,96,46.29,46.29,0,0,1,2,80.31,47.09,47.09,0,0,1,6.81,65,48,48,0,0,1,16.73,52a46.82,46.82,0,0,1,14.13-9,49.52,49.52,0,0,1,16.69-3.64,47.67,47.67,0,0,1,17.19,2.47A49,49,0,0,1,97.28,98.39a47.15,47.15,0,0,1-18.9,28.7l.74,1.45a50.5,50.5,0,0,0,16-27,47.56,47.56,0,0,0,1-15.63,48.24,48.24,0,0,0-3.88-15A51.13,51.13,0,0,0,84,58a48.68,48.68,0,0,0-11.82-9.61A51.84,51.84,0,0,0,65.31,45L61.72,43.8c-1.19-.41-2.45-.6-3.67-.91-.62-.13-1.22-.31-1.84-.4l-1.87-.24a29.56,29.56,0,0,0-3.75-.36l-3.76-.1-3.74.28a49.31,49.31,0,0,0-14.4,3.77,49.7,49.7,0,0,0-12.4,8.06A45.16,45.16,0,0,0,7,65.3l-.94,1.59c-.29.54-.53,1.11-.8,1.66l-.78,1.66a12,12,0,0,0-.71,1.7L2.53,75.38,1.64,79A49.83,49.83,0,0,0,.76,93.57a49.91,49.91,0,0,0,3.65,14.16,46.62,46.62,0,0,0,7.86,12.37,45.46,45.46,0,0,0,11.27,9.44C24.91,130.4,25.65,129,24.35,128.13Z"/><path class="cls-2" d="M83.84,110.5a39.05,39.05,0,0,1-8.17,9.75,40.81,40.81,0,0,1-10.7,6.8,43.59,43.59,0,0,1-12.26,3.16,43.34,43.34,0,0,1-12.65-.77L37,128.68l-3-1.07a9.48,9.48,0,0,1-1.47-.61l-1.45-.68c-.47-.23-1-.44-1.44-.68l-1.37-.82a39,39,0,0,1-9.87-8,43.19,43.19,0,0,1-7-10.73A43.42,43.42,0,0,1,8.12,93.58l-.24-3.24L8,87.08a27.11,27.11,0,0,1,.31-3.24l.21-1.62c.08-.54.23-1.07.34-1.6.27-1.05.43-2.14.79-3.18l1-3.11a45.48,45.48,0,0,1,2.89-5.91,42.25,42.25,0,0,1,8.32-10.25A44.56,44.56,0,0,1,33.07,51a41.62,41.62,0,0,1,13-3.37,41.3,41.3,0,0,1,13.56.81A43.87,43.87,0,0,1,83.09,62.31c.78,1,2.06.57,1.3-.65A43.87,43.87,0,0,0,58,43.81,45.32,45.32,0,0,0,5.28,73.4a45,45,0,0,0,.77,31.43A43.9,43.9,0,0,0,40.49,132a43.82,43.82,0,0,0,14.6-.53A42.27,42.27,0,0,0,86,104.93c.35-1.11.81-2.18,1.09-3.3l.82-3.38.51-3.44c.14-1.15.13-2.32.21-3.47l-1.45,0a38,38,0,0,1-2.9,15,38.85,38.85,0,0,1-8.67,12.8,39.24,39.24,0,0,1-13.11,8.53,40.1,40.1,0,0,1-31.12-.79A41,41,0,0,1,9.88,103.54,41.47,41.47,0,0,1,7.49,87.33a39.6,39.6,0,0,1,3.92-15.22A40.86,40.86,0,0,1,34.47,51.55a41.76,41.76,0,0,1,15.46-2.36A42.38,42.38,0,0,1,78,61.27,44.65,44.65,0,0,1,91.29,89.22c.17,1.43,1.63,1.48,1.45,0A46.08,46.08,0,0,0,79.05,60.24,43.68,43.68,0,0,0,34,50.18,42.34,42.34,0,0,0,10.1,71.47,41.22,41.22,0,0,0,6,87.23,43,43,0,0,0,8.51,104a42.36,42.36,0,0,0,22.27,24.14A41.61,41.61,0,0,0,63,129a40.93,40.93,0,0,0,13.6-8.83,40.27,40.27,0,0,0,9-13.28,39.13,39.13,0,0,0,3-15.54c0-1.38-1.37-1.36-1.45,0-.08,1.11-.07,2.23-.21,3.33l-.48,3.31-.79,3.24c-.25,1.09-.71,2.11-1,3.18A41.28,41.28,0,0,1,78,116a40.84,40.84,0,0,1-10.19,9A41.34,41.34,0,0,1,55,130a41.87,41.87,0,0,1-14.05.6,42.47,42.47,0,0,1-13.7-4.35,43,43,0,0,1-11.7-8.89,42.2,42.2,0,0,1-8.06-12.67,44.7,44.7,0,0,1-3.26-15A43,43,0,0,1,6.47,74.28,43.92,43.92,0,0,1,57.18,45.11,42.25,42.25,0,0,1,82.91,62.05l1.3-.67A45.36,45.36,0,0,0,60,47a44.89,44.89,0,0,0-27.49,2.62,45.87,45.87,0,0,0-11.6,7.45,43.49,43.49,0,0,0-8.62,10.6,48,48,0,0,0-3,6.11L8.23,77c-.37,1.07-.54,2.2-.82,3.29-.12.55-.28,1.09-.36,1.65l-.21,1.68A27.11,27.11,0,0,0,6.51,87l-.09,3.37.25,3.36a44.52,44.52,0,0,0,3.38,12.9,44.82,44.82,0,0,0,7.23,11.13,40.82,40.82,0,0,0,10.22,8.34l1.43.84c.48.26,1,.47,1.49.71l1.49.7a10.29,10.29,0,0,0,1.53.64l3.1,1.1,3.21.8a44.32,44.32,0,0,0,13.1.79,44.59,44.59,0,0,0,12.7-3.27,41.84,41.84,0,0,0,11.09-7,40.47,40.47,0,0,0,8.46-10.1C85.88,110,84.59,109.33,83.84,110.5Z"/><path class="cls-3" d="M37.52,118.65a31.7,31.7,0,0,1-16.63-13.89A30.4,30.4,0,0,1,49.28,59.23,31,31,0,0,1,60.47,62a31.88,31.88,0,0,1,9.63,6.89,32.21,32.21,0,0,1,6.6,10.16,33.69,33.69,0,0,1,.24,24.68,34.17,34.17,0,0,1-6.86,11A34.56,34.56,0,0,1,46.39,125.9c-1.19.09-1.18,1.09,0,1.1a34.79,34.79,0,0,0,14.49-2.57,35.85,35.85,0,0,0,12.3-8.33A36.31,36.31,0,0,0,83.4,89,35.78,35.78,0,0,0,71.08,63.54,35.19,35.19,0,0,0,59,56.65,34.69,34.69,0,0,0,45.5,55a34.18,34.18,0,0,0-12.69,3.55A33.24,33.24,0,0,0,22.73,66.4a32.2,32.2,0,0,0-8,22.67,31.9,31.9,0,0,0,30,30.42c.85.08,1-.92.22-1.07a31.46,31.46,0,0,1-19-10A29.69,29.69,0,0,1,18.28,89a28.89,28.89,0,0,1,7.51-20,29.26,29.26,0,0,1,9.07-6.76,29.58,29.58,0,0,1,11.26-2.86A27.85,27.85,0,0,1,66.49,67a31.09,31.09,0,0,1,9.67,19.79,34.3,34.3,0,0,1-5.31,21.5A38.52,38.52,0,0,1,63.29,117a39.77,39.77,0,0,1-10.23,6.38c-1,.47-.35,1.41.7.92a40.45,40.45,0,0,0,17.8-15.14,36.81,36.81,0,0,0,4.58-10.37,33.63,33.63,0,0,0,1-11.21,32.05,32.05,0,0,0-9-20.25A30.47,30.47,0,0,0,59,60.85a29.36,29.36,0,0,0-10.77-2.58A30.06,30.06,0,0,0,17,87.85a30.75,30.75,0,0,0,7.61,20.71,32.88,32.88,0,0,0,20,10.9l.23-1.07A30.89,30.89,0,0,1,23.5,67.19a32.35,32.35,0,0,1,9.73-7.61A33.17,33.17,0,0,1,45.5,56.11a33.87,33.87,0,0,1,13,1.56,34.27,34.27,0,0,1,11.76,6.66A34.79,34.79,0,0,1,82.3,89a35.29,35.29,0,0,1-9.89,26.37,35,35,0,0,1-11.94,8.08,33.84,33.84,0,0,1-14.08,2.48l0,1.1a35.6,35.6,0,0,0,24.43-11.42A35.39,35.39,0,0,0,78,104.23a35,35,0,0,0,2.32-12.92,34.37,34.37,0,0,0-2.52-12.57,33.38,33.38,0,0,0-6.81-10.52A33,33,0,0,0,61,61.07a32.24,32.24,0,0,0-33.33,3.78A31.34,31.34,0,0,0,20,105.34a32.8,32.8,0,0,0,17.28,14.38C38.2,120.05,38.43,119,37.52,118.65Z"/><path class="cls-2" d="M121.81,57.24a19.72,19.72,0,0,1-6.49.57A21,21,0,0,1,109,56.4a22.68,22.68,0,0,1-5.59-3.3,22.43,22.43,0,0,1-4.31-4.86l-.84-1.4-.7-1.48a6.21,6.21,0,0,1-.31-.75l-.28-.77c-.09-.25-.19-.51-.27-.77l-.2-.79a20.06,20.06,0,0,1-.67-6.5,22.44,22.44,0,0,1,1.36-6.42,22.35,22.35,0,0,1,3.33-5.7l1.09-1.27,1.21-1.15a14.53,14.53,0,0,1,1.29-1.06l.66-.51c.23-.17.47-.31.71-.46.48-.28.93-.62,1.44-.86l1.5-.75a23.55,23.55,0,0,1,3.19-1.1,21.76,21.76,0,0,1,6.73-.7A22.7,22.7,0,0,1,125,17.25a21.23,21.23,0,0,1,5.94,3.5A20.74,20.74,0,0,1,135.55,26,22.48,22.48,0,0,1,139,39.5c-.07.63.54,1,.71.23a22.48,22.48,0,0,0-3.1-16,23.23,23.23,0,0,0-29.84-8.38A23.07,23.07,0,0,0,95.67,27,22.12,22.12,0,0,0,103.8,54.4a21.66,21.66,0,0,0,6.72,3A21.84,21.84,0,0,0,124.62,56c.53-.27,1.09-.49,1.6-.8l1.52-.93,1.43-1.06c.47-.36.89-.79,1.34-1.18L130,51.5a19.44,19.44,0,0,1-6.48,4.38,19.87,19.87,0,0,1-7.79,1.5,20.09,20.09,0,0,1-7.84-1.66,20.47,20.47,0,0,1-11-11.57,20.86,20.86,0,0,1,.64-16.25,21.17,21.17,0,0,1,5-6.74,20.31,20.31,0,0,1,6.94-4.1,20.89,20.89,0,0,1,15.81.91,21.64,21.64,0,0,1,12.27,19.31,22.9,22.9,0,0,1-5.33,14.95c-.45.58.06,1.12.54.51a23.67,23.67,0,0,0,5.54-15.46,22.48,22.48,0,0,0-6-15.07,22.13,22.13,0,0,0-6.69-4.92,21.68,21.68,0,0,0-16.36-.93,21,21,0,0,0-7.18,4.24A21.72,21.72,0,0,0,94.82,36a21.6,21.6,0,0,0,1.36,8.44,21.3,21.3,0,0,0,11.39,12,21,21,0,0,0,8.13,1.73,20.74,20.74,0,0,0,8.07-1.55A20.15,20.15,0,0,0,130.51,52c.51-.49,0-1-.52-.54s-.83.78-1.28,1.14l-1.37,1-1.46.89c-.49.3-1,.51-1.53.77a21,21,0,0,1-6.63,1.79,20.6,20.6,0,0,1-13.41-3.26A21.26,21.26,0,0,1,99,49a21.78,21.78,0,0,1-4.4-14,21.43,21.43,0,0,1,1.67-7.52,22.56,22.56,0,0,1,4.24-6.6,22.05,22.05,0,0,1,6.39-4.79,22.5,22.5,0,0,1,29,7.81A21.67,21.67,0,0,1,139,39.34l.71.23a23.28,23.28,0,0,0-3.55-14,21.81,21.81,0,0,0-4.78-5.39,22.07,22.07,0,0,0-6.14-3.63,23.49,23.49,0,0,0-6.9-1.5,22.33,22.33,0,0,0-7,.71,23.82,23.82,0,0,0-3.3,1.14l-1.56.77c-.52.25-1,.6-1.49.9a8.21,8.21,0,0,0-.73.47l-.69.53a12.73,12.73,0,0,0-1.33,1.1l-1.26,1.18-1.12,1.31a22.8,22.8,0,0,0-3.46,5.91,23,23,0,0,0-1.41,6.65,20.88,20.88,0,0,0,.68,6.73l.21.82c.09.27.19.53.29.8l.28.8a5.88,5.88,0,0,0,.33.78l.72,1.53.87,1.45a22.79,22.79,0,0,0,4.47,5,22.55,22.55,0,0,0,5.79,3.42,21.83,21.83,0,0,0,6.57,1.47A21,21,0,0,0,122,58C122.73,57.8,122.51,57.09,121.81,57.24Z"/><path class="cls-3" d="M135.42,32.17a17.87,17.87,0,0,1,.51,5.82,18.72,18.72,0,0,1-1.26,5.69,20.29,20.29,0,0,1-3,5,20,20,0,0,1-4.36,3.86l-1.26.75-1.32.63a5.58,5.58,0,0,1-.67.28l-.69.25c-.23.08-.46.17-.69.24l-.71.19a17.9,17.9,0,0,1-5.83.59,20,20,0,0,1-5.76-1.22,19.71,19.71,0,0,1-5.11-3l-1.14-1-1-1.09a10.55,10.55,0,0,1-1-1.15l-.46-.6c-.15-.2-.27-.42-.41-.63-.25-.43-.56-.83-.77-1.29l-.68-1.35a21.78,21.78,0,0,1-1-2.85,19.18,19.18,0,0,1-.63-6,20.66,20.66,0,0,1,1.3-6A19.39,19.39,0,0,1,102.7,24a19.06,19.06,0,0,1,4.67-4.14,20.2,20.2,0,0,1,12.14-3.1c.57.06.86-.49.21-.63a20.15,20.15,0,0,0-14.38,2.77,20.84,20.84,0,0,0-7.52,26.76,20.71,20.71,0,0,0,10.47,10,19.8,19.8,0,0,0,24.58-7.29,19.38,19.38,0,0,0,1.45-18.67c-.25-.48-.44-1-.72-1.43l-.83-1.37-1-1.28c-.33-.42-.71-.79-1.06-1.2l-.49.46a17.41,17.41,0,0,1,3.93,5.82,17.86,17.86,0,0,1,1.35,7,18.34,18.34,0,0,1-11.87,16.89A18.73,18.73,0,0,1,109.12,54a19.18,19.18,0,0,1-6.05-4.49,18.17,18.17,0,0,1-3.67-6.23,18.58,18.58,0,0,1-1-7.17,19,19,0,0,1,6.06-12.79,19.45,19.45,0,0,1,13-5.21,20.48,20.48,0,0,1,13.4,4.77c.53.41,1,0,.47-.48a21.2,21.2,0,0,0-13.86-5A20.15,20.15,0,0,0,104,22.78a19.92,19.92,0,0,0-4.41,6A19.52,19.52,0,0,0,97.74,36a19.31,19.31,0,0,0,1,7.43,18.82,18.82,0,0,0,3.81,6.44,19.47,19.47,0,0,0,21.34,5.26,19.18,19.18,0,0,0,6.43-4,18.71,18.71,0,0,0,4.49-20.7,18.19,18.19,0,0,0-4.07-6c-.44-.45-.89,0-.49.46s.71.75,1,1.15l.92,1.24.8,1.31c.27.43.45.91.69,1.37a19,19,0,0,1,1.6,5.94,18.65,18.65,0,0,1-.4,6.22,19,19,0,0,1-2.52,5.81A19.35,19.35,0,0,1,128,52.63a19.59,19.59,0,0,1-12.56,3.95,19.11,19.11,0,0,1-6.74-1.5,20.29,20.29,0,0,1-5.92-3.8,19.53,19.53,0,0,1-4.29-5.73,20.18,20.18,0,0,1,7-26,19.49,19.49,0,0,1,13.87-2.86l.21-.64A20.92,20.92,0,0,0,107,19.27,20.63,20.63,0,0,0,99,29.06a20.68,20.68,0,0,0-1.35,6.19,19.89,19.89,0,0,0,.64,6.25,22,22,0,0,0,1,3l.7,1.4c.23.46.54.89.8,1.33.14.22.27.45.42.66l.48.61a12.51,12.51,0,0,0,1,1.2l1.07,1.12,1.17,1a19.24,19.24,0,0,0,11.26,4.37,18.64,18.64,0,0,0,6-.62l.73-.18c.25-.08.48-.17.72-.26l.71-.25a5.42,5.42,0,0,0,.7-.29l1.38-.65,1.3-.79a19.46,19.46,0,0,0,7.58-9.19A19.57,19.57,0,0,0,136.6,38a18.86,18.86,0,0,0-.53-6C135.92,31.34,135.28,31.55,135.42,32.17Z"/><path class="cls-1" d="M123,49.88a14.59,14.59,0,0,1-9.92.89,14,14,0,0,1-5.57-24A14.37,14.37,0,0,1,112.07,24a14.81,14.81,0,0,1,10.82.27,15.18,15.18,0,0,1,4.75,3.16A15.39,15.39,0,0,1,131,32.22a16,16,0,0,1,.43,11.83,16,16,0,0,1-3.17,5.3c-.35.42,0,.74.37.35a16.18,16.18,0,0,0,3.88-5.55,16.56,16.56,0,0,0,1.29-6.7,16.73,16.73,0,0,0-5.52-12.14A16.45,16.45,0,0,0,116,21.05a16.17,16.17,0,0,0-6.18,1.7,15.87,15.87,0,0,0-4.91,3.85,15.6,15.6,0,0,0-3,5.27,15.15,15.15,0,0,0-.73,5.83,14.78,14.78,0,0,0,4.78,10,14.68,14.68,0,0,0,19.64.14c.3-.25,0-.64-.28-.42a14.51,14.51,0,0,1-9.43,2.92,13.66,13.66,0,0,1-8.8-3.8,13.24,13.24,0,0,1-4.07-9,13.49,13.49,0,0,1,3.49-9.73,12.77,12.77,0,0,1,9.08-4.16A14.25,14.25,0,0,1,125.2,27a15.8,15.8,0,0,1,5.27,8.71,18,18,0,0,1,.37,5.29,18.32,18.32,0,0,1-1.25,5.4c-.17.48.34.57.53.07A18.59,18.59,0,0,0,131,35.71a17.09,17.09,0,0,0-1.88-4.86,15.43,15.43,0,0,0-3.31-4,14.78,14.78,0,0,0-9.5-3.67,14,14,0,0,0-5.08.89,13.47,13.47,0,0,0-4.34,2.67,13.84,13.84,0,0,0-3.3,4.64,13.53,13.53,0,0,0-1.14,5.43,13.8,13.8,0,0,0,3.9,9.7,14.12,14.12,0,0,0,9.2,4.26,15.15,15.15,0,0,0,10-2.95l-.27-.42A14.23,14.23,0,0,1,115.87,51a14.09,14.09,0,0,1-9.5-3.69,14.24,14.24,0,0,1-4.64-9.59,14.72,14.72,0,0,1,.69-5.64A15,15,0,0,1,105.28,27,15.31,15.31,0,0,1,110,23.22a15.9,15.9,0,0,1,12.3-.85A16.21,16.21,0,0,1,132,44a15.46,15.46,0,0,1-3.77,5.38l.37.35a16.45,16.45,0,0,0,2.85-17.65,16.12,16.12,0,0,0-8.35-8.23,15.42,15.42,0,0,0-5.64-1.2,15.26,15.26,0,0,0-5.55.91,14.81,14.81,0,0,0-9.61,12.06A14.4,14.4,0,0,0,113,51.26a15.06,15.06,0,0,0,10.29-.94C123.69,50.11,123.41,49.68,123,49.88Z"/><path class="cls-3" d="M74.69,2.49a12.35,12.35,0,0,1,3.22,2.43A12.76,12.76,0,0,1,80.23,8.2,13.65,13.65,0,0,1,81.43,12a13.88,13.88,0,0,1,0,4l-.2,1-.29,1a2.64,2.64,0,0,1-.17.47l-.19.47c-.06.16-.12.31-.19.47l-.24.44a12.35,12.35,0,0,1-2.39,3.26,13.82,13.82,0,0,1-3.29,2.38,13.58,13.58,0,0,1-3.89,1.23l-1,.13-1,0a9,9,0,0,1-1-.05l-.52,0a4.5,4.5,0,0,1-.51-.08c-.34-.07-.68-.1-1-.2l-1-.28a14.64,14.64,0,0,1-1.91-.82A13.24,13.24,0,0,1,59.11,23a14,14,0,0,1-2.46-3.44,13.71,13.71,0,0,1-1.24-8.38,14,14,0,0,1,4-7.64c.3-.26.15-.66-.22-.4A13.89,13.89,0,0,0,54,11.73,14.35,14.35,0,0,0,64.19,28a14.22,14.22,0,0,0,9.94-.74,13.89,13.89,0,0,0,8-11.34,13.72,13.72,0,0,0-.4-4.61,13.44,13.44,0,0,0-1.85-4.14,13.75,13.75,0,0,0-3.1-3.22,13.3,13.3,0,0,0-3.93-2c-.35-.1-.7-.23-1.06-.3l-1.08-.2-1.1-.11c-.36,0-.73,0-1.1,0v.46a12.06,12.06,0,0,1,4.79.68A12.43,12.43,0,0,1,80.45,9a12.57,12.57,0,0,1,1.12,4.88,12.71,12.71,0,0,1-.87,5A13,13,0,0,1,68.57,27a12.42,12.42,0,0,1-4.88-1,12.72,12.72,0,0,1-4.13-2.81,13,13,0,0,1-2.75-4.16,13.1,13.1,0,0,1-1-4.86A13.41,13.41,0,0,1,59.2,5.11,14.12,14.12,0,0,1,67.84.47c.45-.08.44-.54,0-.46A14.61,14.61,0,0,0,58.85,4.8a13.92,13.92,0,0,0-3.49,9.41,13.58,13.58,0,0,0,1,5,13.39,13.39,0,0,0,7.12,7.22,12.88,12.88,0,0,0,5.05,1A13.42,13.42,0,0,0,81.12,19,13,13,0,0,0,77.87,4.62,12.65,12.65,0,0,0,73.52,2a12.25,12.25,0,0,0-5-.71c-.44,0-.41.45,0,.46s.71,0,1.06,0l1,.1,1,.2c.35.06.68.19,1,.28a13.07,13.07,0,0,1,3.77,1.93,12.73,12.73,0,0,1,3,3.08,12.92,12.92,0,0,1,1.8,4,12.94,12.94,0,0,1,.42,4.44,13.4,13.4,0,0,1-1.16,4.4A13.58,13.58,0,0,1,77.94,24a13.34,13.34,0,0,1-3.88,2.75A14,14,0,0,1,69.37,28a13.67,13.67,0,0,1-4.92-.46A13.93,13.93,0,0,1,54.41,12a13.43,13.43,0,0,1,5-8.42l-.23-.4A14.35,14.35,0,0,0,55,11a13.91,13.91,0,0,0-.05,4.46,13.77,13.77,0,0,0,1.32,4.21,13.77,13.77,0,0,0,6,6.11,15.06,15.06,0,0,0,2,.85l1,.29c.35.1.71.14,1.06.21.17,0,.35.07.53.09l.53,0a9.58,9.58,0,0,0,1.07.05l1.07,0,1.06-.13a14.23,14.23,0,0,0,4-1.27A14.16,14.16,0,0,0,78,23.45a12.83,12.83,0,0,0,2.48-3.37l.24-.46a5,5,0,0,0,.2-.49l.2-.48a4.09,4.09,0,0,0,.18-.49l.3-1,.2-1a14.15,14.15,0,0,0,0-4.16,14.09,14.09,0,0,0-1.23-4,13.36,13.36,0,0,0-2.41-3.4A12.66,12.66,0,0,0,74.9,2.08C74.5,1.85,74.31,2.27,74.69,2.49Z"/><path class="cls-1" d="M58.05,8.34a11,11,0,0,1,2.18-2.88,11.84,11.84,0,0,1,2.94-2.09A12.61,12.61,0,0,1,66.61,2.3a12.41,12.41,0,0,1,3.6,0l.89.17.87.26a3,3,0,0,1,.42.16l.42.17.42.17.4.21a11.2,11.2,0,0,1,2.92,2.15,12.51,12.51,0,0,1,2.14,3,12,12,0,0,1,1.1,3.49l.12.91,0,.93c0,.31,0,.62,0,.93l0,.46c0,.15,0,.3-.07.46s-.09.61-.18.91l-.25.9a12.59,12.59,0,0,1-2.95,4.75,12.91,12.91,0,0,1-3.08,2.2,11.77,11.77,0,0,1-3.65,1.15,11.63,11.63,0,0,1-3.86,0A12.44,12.44,0,0,1,59,22c-.23-.26-.59-.13-.36.21a12.5,12.5,0,0,0,7.75,4.69,12.88,12.88,0,0,0,14.55-9.15,12.84,12.84,0,0,0-.67-8.92A12.25,12.25,0,0,0,65.92,2a12.08,12.08,0,0,0-3.71,1.67,12.13,12.13,0,0,0-4.7,6.3c-.08.31-.2.62-.26.95l-.19,1-.09,1c0,.33,0,.66,0,1h.41A10.87,10.87,0,0,1,58,9.54a11.12,11.12,0,0,1,5.88-6.36A11.44,11.44,0,0,1,72.71,3a11.63,11.63,0,0,1,6.44,6.31,11.82,11.82,0,0,1,.91,4.56,11.18,11.18,0,0,1-.9,4.38,11.42,11.42,0,0,1-2.52,3.7,11.62,11.62,0,0,1-3.73,2.47,12,12,0,0,1-12.5-2.14,12.71,12.71,0,0,1-4.17-7.75c-.07-.4-.48-.4-.41,0a13,13,0,0,0,4.3,8,12.47,12.47,0,0,0,8.44,3.14,12.26,12.26,0,0,0,4.5-.92,12,12,0,0,0,3.86-2.56,11.78,11.78,0,0,0,3.54-8.36,12,12,0,0,0-.94-4.73,12,12,0,0,0-6.66-6.53,11.89,11.89,0,0,0-4.63-.82A11.66,11.66,0,0,0,60,5.5,11.45,11.45,0,0,0,57.6,9.39,11.14,11.14,0,0,0,57,13.85c0,.39.41.37.41,0s0-.63,0-.95l.09-.94.18-.94c.06-.31.17-.61.25-.91A11.71,11.71,0,0,1,62.39,4,11.81,11.81,0,0,1,66,2.4a12.06,12.06,0,0,1,4-.37,12.12,12.12,0,0,1,7.4,3.4,12.1,12.1,0,0,1,2.47,3.48A12.9,12.9,0,0,1,81,13.11a12.49,12.49,0,0,1-14.4,13.42A12,12,0,0,1,59,22.08l-.36.21A12.84,12.84,0,0,0,65.72,26a12.15,12.15,0,0,0,4,0,12.33,12.33,0,0,0,3.78-1.18,13.15,13.15,0,0,0,3.19-2.28A12.54,12.54,0,0,0,79,19.49a13.28,13.28,0,0,0,.77-1.78l.26-.93c.09-.31.12-.63.18-1a3.55,3.55,0,0,0,.08-.47l0-.48a6.17,6.17,0,0,0,0-1l0-1-.12-1A12.66,12.66,0,0,0,79.06,8.4a12.64,12.64,0,0,0-2.21-3.06,11.33,11.33,0,0,0-3-2.22l-.42-.22c-.14-.07-.29-.12-.43-.18l-.44-.18a3.29,3.29,0,0,0-.44-.16l-.9-.27-.92-.18a13,13,0,0,0-3.73,0A13.15,13.15,0,0,0,63,3a12.32,12.32,0,0,0-3.05,2.16,11.78,11.78,0,0,0-2.26,3C57.48,8.51,57.86,8.68,58.05,8.34Z"/><path class="cls-2" d="M71.09,5.37A9.06,9.06,0,0,1,76,9.07a8.72,8.72,0,0,1,1.32,5.86,8.62,8.62,0,0,1-2.88,5.33,8.79,8.79,0,0,1-5.86,2.15,9,9,0,0,1-3.21-.64,9.19,9.19,0,0,1-4.85-4.61,9.33,9.33,0,0,1-.87-3.42,9.57,9.57,0,0,1,.45-3.59,9.91,9.91,0,0,1,4.7-5.6,10,10,0,0,1,3.66-1.11c.33,0,.32-.33,0-.32a10.05,10.05,0,0,0-4.08.94A10.24,10.24,0,0,0,61,6.6a10.4,10.4,0,0,0-2.51,7.85,10.19,10.19,0,0,0,7.4,8.83,9.87,9.87,0,0,0,3.85.27,9.5,9.5,0,0,0,3.55-1.19A9.25,9.25,0,0,0,76,20,9.09,9.09,0,0,0,69,5.23c-.24,0-.28.28,0,.31a9,9,0,0,1,5.54,2.58A8.37,8.37,0,0,1,77,13.5a8.23,8.23,0,0,1-1.84,5.8,8.46,8.46,0,0,1-5.64,3,7.92,7.92,0,0,1-5.89-1.86,8.88,8.88,0,0,1-3-5.48,9.76,9.76,0,0,1,1.2-6.18,10.66,10.66,0,0,1,2-2.58,11.36,11.36,0,0,1,2.82-2c.28-.15.08-.41-.21-.25a11.47,11.47,0,0,0-4.84,4.55,10.3,10.3,0,0,0-1.15,3,9.25,9.25,0,0,0-.13,3.19,9.09,9.09,0,0,0,2.83,5.63,8.65,8.65,0,0,0,2.7,1.69,8.26,8.26,0,0,0,3.09.58,8.54,8.54,0,0,0,8.46-8.84A8.73,8.73,0,0,0,74.9,8.05a9.32,9.32,0,0,0-5.82-2.81l0,.31a8.75,8.75,0,0,1,8.63,7.9,8.89,8.89,0,0,1-1.86,6.33,9.2,9.2,0,0,1-2.65,2.3,9.47,9.47,0,0,1-3.44,1.16A9.57,9.57,0,0,1,66,23a9.82,9.82,0,0,1-6-4.71,10.09,10.09,0,0,1-.77-7.89,10,10,0,0,1,5.29-6,9.58,9.58,0,0,1,4-.9l0-.32A10.19,10.19,0,0,0,59.81,10a9.93,9.93,0,0,0,.42,7.23,9.43,9.43,0,0,0,2.09,2.89,9.2,9.2,0,0,0,6.25,2.56,9,9,0,0,0,6.08-2.22A8.9,8.9,0,0,0,76.27,8.9a9.35,9.35,0,0,0-5.11-3.84C70.88,5,70.82,5.29,71.09,5.37Z"/><path class="cls-4" d="M154.21,81.47A2.09,2.09,0,0,1,157.79,83v37.89a2.07,2.07,0,0,1-.59,1.49,2,2,0,0,1-1.51.62,1.77,1.77,0,0,1-1.56-.7L128.31,88.43v32.45a2.09,2.09,0,0,1-.59,1.48,2,2,0,0,1-1.51.62,2.07,2.07,0,0,1-1.51-.59,2,2,0,0,1-.59-1.51V83a2,2,0,0,1,.6-1.51,2,2,0,0,1,1.5-.59,2,2,0,0,1,1.62.75l25.77,33.84V83A2,2,0,0,1,154.21,81.47Z"/><path class="cls-4" d="M188.35,100.36a1.94,1.94,0,0,1,.6,1.48,2,2,0,0,1-.6,1.46,2,2,0,0,1-1.51.59H170v17a2.08,2.08,0,0,1-.6,1.49,2,2,0,0,1-1.51.62,2.12,2.12,0,0,1-2.1-2.11V83a2,2,0,0,1,.62-1.51,2.07,2.07,0,0,1,1.48-.59h25.28a2,2,0,0,1,1.51.59,2,2,0,0,1,.59,1.45,1.89,1.89,0,0,1-.59,1.43,2.1,2.1,0,0,1-1.51.57H170V99.8h16.87A2.08,2.08,0,0,1,188.35,100.36Z"/><path class="cls-4" d="M242.36,83.57A19,19,0,0,1,249.82,91a23.52,23.52,0,0,1,0,21.75,19.08,19.08,0,0,1-7.47,7.49,21.76,21.76,0,0,1-10.88,2.7h-9.71a2,2,0,0,1-2.1-2.1V83a2,2,0,0,1,2.1-2.11h9.7A21.83,21.83,0,0,1,242.36,83.57ZM240.21,117a15.8,15.8,0,0,0,6-6.18,19.45,19.45,0,0,0,0-17.78,15.74,15.74,0,0,0-6-6.15,17.16,17.16,0,0,0-8.73-2.21h-7.6V119.2h7.6A17,17,0,0,0,240.21,117Z"/><path class="cls-4" d="M292.44,120.86a2,2,0,0,1-.62,1.48,2.15,2.15,0,0,1-3.48-.67l-3.61-8.73H263.87l-3.61,8.73a1.84,1.84,0,0,1-1.94,1.29,1.88,1.88,0,0,1-1.48-.62,2.09,2.09,0,0,1-.57-1.48,2.25,2.25,0,0,1,.16-.91l15.84-37.63a2.08,2.08,0,0,1,2.05-1.45,2,2,0,0,1,2,1.45L292.22,120A1.72,1.72,0,0,1,292.44,120.86Zm-9.17-11.54-8.95-21.61-8.94,21.62Z"/><path class="cls-4" d="M323.32,81.4a1.93,1.93,0,0,1,.53,1.4,1.79,1.79,0,0,1-.53,1.35,1.9,1.9,0,0,1-1.4.54H309.09v36.17a2.09,2.09,0,0,1-.59,1.48,2.11,2.11,0,0,1-3,0,2,2,0,0,1-.62-1.48V84.69H292.11a1.88,1.88,0,0,1-1.4-.54,1.83,1.83,0,0,1-.54-1.35,1.85,1.85,0,0,1,1.94-1.94h29.8A1.91,1.91,0,0,1,323.32,81.4Z"/><path class="cls-4" d="M358.09,120.85A2.12,2.12,0,0,1,356,123a2,2,0,0,1-2-1.29l-3.61-8.73H329.52l-3.61,8.73A1.84,1.84,0,0,1,324,123a1.91,1.91,0,0,1-1.48-.62,2.14,2.14,0,0,1-.57-1.49,2.25,2.25,0,0,1,.16-.91l15.84-37.63A2.08,2.08,0,0,1,340,80.86a2,2,0,0,1,2,1.45L357.87,120A1.74,1.74,0,0,1,358.09,120.85Zm-9.17-11.53L340,87.7,331,109.32Z"/><path class="cls-4" d="M384.66,122.36a2.23,2.23,0,0,1-3,0,2,2,0,0,1-.59-1.51V83a2,2,0,0,1,2.1-2.11h10.78a14.14,14.14,0,0,1,7,1.75,12.48,12.48,0,0,1,4.82,4.85,14.35,14.35,0,0,1,1.73,7.09,14.09,14.09,0,0,1-1.73,7,12.14,12.14,0,0,1-4.82,4.79,14.12,14.12,0,0,1-7,1.73h-8.68v12.78A2.07,2.07,0,0,1,384.66,122.36Zm14.17-19.54a8.73,8.73,0,0,0,3.37-3.37,9.85,9.85,0,0,0,1.21-4.91,10,10,0,0,0-1.21-5,8.82,8.82,0,0,0-3.37-3.43,9.73,9.73,0,0,0-4.91-1.24h-8.67V104h8.68A9.91,9.91,0,0,0,398.83,102.82Z"/><path class="cls-4" d="M445.05,83.11a20.11,20.11,0,0,1,7.71,7.71,23.47,23.47,0,0,1,0,22.12,20.05,20.05,0,0,1-7.71,7.74,23.14,23.14,0,0,1-22.07,0A20.15,20.15,0,0,1,415.3,113a23.41,23.41,0,0,1,0-22.13A20.17,20.17,0,0,1,423,83.11a23.14,23.14,0,0,1,22.07,0Zm-19.94,3.5A16.71,16.71,0,0,0,418.88,93a18.83,18.83,0,0,0,0,17.89,16.78,16.78,0,0,0,6.23,6.34,18.25,18.25,0,0,0,17.79,0,16.66,16.66,0,0,0,6.22-6.33,18.85,18.85,0,0,0,0-17.9,16.83,16.83,0,0,0-6.23-6.33,18.26,18.26,0,0,0-17.78,0Z"/><path class="cls-4" d="M491.54,121.16a1.6,1.6,0,0,1-.59,1.29,2.43,2.43,0,0,1-1.57.49,2,2,0,0,1-1.07-.27,2.39,2.39,0,0,1-.76-.81l-9.7-15.42H469v14.4a2.11,2.11,0,1,1-4.21,0V83a2,2,0,0,1,2.1-2.11h10.08a14.71,14.71,0,0,1,7,1.64,12.22,12.22,0,0,1,4.82,4.61,13,13,0,0,1,1.75,6.74,12.07,12.07,0,0,1-8.29,11.75l8.84,14.12A2.94,2.94,0,0,1,491.54,121.16ZM476.93,102.4a10.74,10.74,0,0,0,4.88-1.1,8.31,8.31,0,0,0,3.39-3,8.16,8.16,0,0,0,1.22-4.42,9,9,0,0,0-1.22-4.64A8.4,8.4,0,0,0,481.83,86a10.41,10.41,0,0,0-4.9-1.13h-8V102.4Z"/><path class="cls-4" d="M527.16,81.37a1.91,1.91,0,0,1,.54,1.41,1.82,1.82,0,0,1-.54,1.34,1.88,1.88,0,0,1-1.4.54H512.93v36.17a2.07,2.07,0,0,1-.59,1.48,2.12,2.12,0,0,1-3.61-1.48V84.66H496a1.87,1.87,0,0,1-1.4-.54,1.83,1.83,0,0,1-.54-1.35,1.88,1.88,0,0,1,.53-1.4,1.9,1.9,0,0,1,1.4-.54h29.81A1.92,1.92,0,0,1,527.16,81.37Z"/><path class="cls-4" d="M561.93,120.82a2.13,2.13,0,0,1-4.09.81l-3.61-8.73H533.37l-3.61,8.74a1.84,1.84,0,0,1-1.94,1.29,2,2,0,0,1-1.49-.62,2.15,2.15,0,0,1-.56-1.48,2.3,2.3,0,0,1,.16-.92l15.84-37.62a2.09,2.09,0,0,1,2.05-1.46,2,2,0,0,1,2,1.46L561.72,120A1.74,1.74,0,0,1,561.93,120.82Zm-9.16-11.53-8.95-21.61-8.94,21.61Z"/><path class="cls-4" d="M595.35,119.5a2,2,0,0,1,0,2.86,2.12,2.12,0,0,1-1.51.56H570.67a2.12,2.12,0,0,1-2.11-2.11V82.93a2.12,2.12,0,0,1,2.1-2.1,2.07,2.07,0,0,1,1.51.59,2,2,0,0,1,.59,1.51v36h21.07A2.08,2.08,0,0,1,595.35,119.5Z"/></g></g></svg>