<svg width="72" height="76" viewBox="0 0 72 76" fill="none" xmlns="http://www.w3.org/2000/svg">
<path d="M60.4264 65.1532H57.0606V61.0563C65.3968 57.4229 71.25 49.0836 71.25 39.3851C71.25 31.2287 67.0569 23.6991 60.2336 19.3892L62.6856 15.1234L64.6827 16.2819L65.8393 14.2687L63.8423 13.1095L53.4435 7.07625L51.4325 5.91005L50.2759 7.9232L52.2861 9.08941L50.1201 12.8585V0.0635407L9.2514 0V30.3135H0V47.9724C0 50.6318 1.8876 52.8549 4.38667 53.3602V53.4694L41.7169 53.519L38.2694 61.0486L39.4307 61.4887C40.6536 61.9536 41.9066 62.3078 43.1804 62.5588V65.1532H29.301V76H60.4264C63.4251 76 65.8648 73.5661 65.8648 70.5758C65.8648 67.5855 63.4251 65.1532 60.4264 65.1532ZM9.2514 47.9724C9.2514 49.7205 7.8357 51.1432 6.09538 51.1432H5.46849C3.72894 51.1432 2.31324 49.7205 2.31324 47.9724V32.639H9.2514V47.9724ZM58.164 39.3851C58.164 44.3374 54.7227 48.4885 50.1201 49.5733V36.9938L53.6802 30.7971C56.4885 32.7606 58.164 35.9307 58.164 39.3851ZM45.5877 35.8284L43.1388 40.0903L40.0367 38.2902L42.4857 34.0275L45.5877 35.8284ZM60.6824 13.9611L48.6435 34.9171L42.249 31.2077L54.2894 10.2517L54.9294 10.6229L60.6824 13.9611ZM10.5538 51.1525C11.1907 50.2552 11.5654 49.158 11.5654 47.9724V2.32776L47.8077 2.3851V16.8848L39.0891 32.0586L40.4824 32.8668L36.8769 39.1418L43.9854 43.2657L47.591 36.9907L47.8077 37.1162V49.8569C47.7853 49.8569 47.7637 49.86 47.7413 49.86C47.0828 49.86 46.4313 49.7903 45.7897 49.6678L47.1723 47.2626L31.2457 38.0221C30.9072 37.8253 30.5216 37.7214 30.1299 37.7214C29.3318 37.7214 28.5893 38.1515 28.1906 38.8435L27.654 39.7772C27.0379 40.8504 27.4057 42.2274 28.4736 42.8481L42.7972 51.1579L42.781 51.1959L10.5538 51.1525ZM43.5528 48.9123L29.6958 40.8729L30.1554 40.074L44.0124 48.1134L43.5528 48.9123ZM45.0094 51.8879C45.9039 52.0847 46.8184 52.1847 47.7413 52.1847C54.7636 52.1847 60.478 46.4428 60.478 39.3851C60.478 35.3286 58.6012 31.5789 55.412 29.1644L58.5218 22.3694L59.0847 21.3907C65.1932 25.2845 68.9368 32.0593 68.9368 39.3843C68.9368 47.8941 63.9371 55.2408 56.7414 58.6488C55.9009 56.0637 53.4867 54.1885 50.6437 54.1885H49.5989C46.2177 54.1885 43.4464 56.8371 43.2059 60.1799C42.6067 60.0498 42.0115 59.9049 41.4239 59.7197L45.0094 51.8879ZM54.7474 60.6534V69.0276H45.4944V60.6534C45.4944 58.3714 47.335 56.514 49.5981 56.514H50.6429C52.9068 56.5147 54.7474 58.3714 54.7474 60.6534ZM60.4264 73.6753H31.6142V67.4778H43.1804V71.3522H57.0598V67.4778H60.4256C62.1482 67.4778 63.5508 68.8672 63.5508 70.5773C63.5516 72.286 62.149 73.6753 60.4264 73.6753Z" fill="#DDDDDF"/>
</svg>
