<?xml version="1.0" encoding="UTF-8" standalone="no"?>
<svg
   viewBox="0 0 102.24516 131.74199"
   version="1.1"
   id="svg370"
   sodipodi:docname="favicon.svg"
   inkscape:version="1.2.1 (9c6d41e4, 2022-07-14)"
   xmlns:inkscape="http://www.inkscape.org/namespaces/inkscape"
   xmlns:sodipodi="http://sodipodi.sourceforge.net/DTD/sodipodi-0.dtd"
   xmlns="http://www.w3.org/2000/svg"
   xmlns:svg="http://www.w3.org/2000/svg">
  <defs
     id="defs374" />
  <sodipodi:namedview
     id="namedview372"
     pagecolor="#ffffff"
     bordercolor="#000000"
     borderopacity="0.25"
     inkscape:showpageshadow="2"
     inkscape:pageopacity="0.0"
     inkscape:pagecheckerboard="0"
     inkscape:deskcolor="#d1d1d1"
     showgrid="false"
     inkscape:zoom="1.7744361"
     inkscape:cx="75.235169"
     inkscape:cy="66.5"
     inkscape:window-width="1309"
     inkscape:window-height="456"
     inkscape:window-x="0"
     inkscape:window-y="25"
     inkscape:window-maximized="0"
     inkscape:current-layer="svg370" />
  <title
     id="title322">PsychENCODE Logo</title>
  <g
     id="Layer_2"
     data-name="Layer 2"
     transform="translate(-0.00134426,1.1073976e-4)">
    <g
       id="Layer_1-2"
       data-name="Layer 1">
      <path
         d="m 53.32,130.82 a 3.49,3.49 0 0 1 -5.63,-1.34 94.67,94.67 0 0 0 -6.53,-13.95 c -1.54,-2.66 -3.38,-5.39 -6.28,-6.39 a 14.15,14.15 0 0 0 -5.27,-0.3 c -3.49,0.3 -7,0.53 -10.48,0.83 -3,0.24 -6.52,0.18 -8.06,-2.37 -1.89,-3.08 0.3,-7.28 -0.59,-10.72 C 10.13,95 9.3,94.75 8.59,93.44 7.59,91.84 8.88,90.13 8,88.65 A 7.44,7.44 0 0 0 6.81,87.46 C 4.56,85.09 6.93,80.3 4.26,78.34 3.32,77.63 1.96,77.63 1.07,76.86 -0.35,75.74 -0.12,73.49 0.42,71.77 2.25,66.2 6.34,61.35 6.87,55.54 7.28,50.99 5.51,46.54 5.15,42.04 A 30.13,30.13 0 0 1 7.76,27.89 C 9.3,24.28 19.07,-0.06 57.44,0 99.54,0.06 113.22,51.28 93.15,73 84.29,82.55 83.32,93.58 85,99 a 3.42,3.42 0 0 1 -0.9,3.58 z"
         fill="#ffffff"
         id="path324" />
      <g
         opacity="0.5"
         id="g328">
        <path
           d="m 53.32,130.82 a 3.49,3.49 0 0 1 -5.63,-1.34 94.67,94.67 0 0 0 -6.53,-13.95 c -1.54,-2.66 -3.38,-5.39 -6.28,-6.39 a 14.15,14.15 0 0 0 -5.27,-0.3 c -3.49,0.3 -7,0.53 -10.48,0.83 -3,0.24 -6.52,0.18 -8.06,-2.37 -1.89,-3.08 0.3,-7.28 -0.59,-10.72 C 10.13,95 9.3,94.75 8.59,93.44 7.59,91.84 8.88,90.13 8,88.65 A 7.44,7.44 0 0 0 6.81,87.46 C 4.56,85.09 6.93,80.3 4.26,78.34 3.32,77.63 1.96,77.63 1.07,76.86 -0.35,75.74 -0.12,73.49 0.42,71.77 2.25,66.2 6.34,61.35 6.87,55.54 7.28,50.99 5.51,46.54 5.15,42.04 A 30.13,30.13 0 0 1 7.76,27.89 C 9.3,24.28 19.07,-0.06 57.44,0 99.54,0.06 113.22,51.28 93.15,73 84.29,82.55 83.32,93.58 85,99 a 3.42,3.42 0 0 1 -0.9,3.58 z"
           fill="#2699a7"
           id="path326" />
      </g>
      <g
         opacity="0.9"
         id="g332">
        <path
           d="m 93,38.32 a 19.2,19.2 0 0 0 0.39,-3.88 c 0,-0.78 -0.17,-1.44 -0.32,-2.74 a 14.68,14.68 0 0 0 -0.62,-2.94 c 0,-0.11 -0.11,-0.21 -0.11,-0.32 A 20.36,20.36 0 0 0 82.65,16.24 21.1,21.1 0 0 0 59.62,6.77 c -0.31,0.1 -0.62,0.21 -1,0.31 h -0.1 A 18.74,18.74 0 0 0 44.92,5.93 19.2,19.2 0 0 0 36.16,11.5 18.12,18.12 0 0 0 30.43,12.13 16.11,16.11 0 0 0 19.27,24.44 c -4.79,4.11 -7.61,11 -6.15,17.47 2,8.81 10.27,15.42 22.41,10.35 l 0.17,0.12 v 0 0 l 3.35,2.37 a 7.63,7.63 0 0 0 3.32,5 12.77,12.77 0 0 0 9.07,0.84 10.84,10.84 0 0 0 3.13,-1.47 9.69,9.69 0 0 0 5.42,1 7.6,7.6 0 0 0 1.59,-0.2 l 2.24,2.48 H 63.74 A 10.91,10.91 0 0 0 75.21,65.98 9.91,9.91 0 0 0 79.12,64 9.32,9.32 0 0 0 80.79,63.57 16.54,16.54 0 0 0 92.53,45.94 v 0 C 92.85,45.07 93.2,43 93,38.32 Z"
           fill="#ffffff"
           opacity="0.7"
           id="path330" />
      </g>
      <path
         d="M 35.31,52 A 0.18,0.18 0 0 1 35.26,51.84 H 35.15 Z"
         fill="#ffffff"
         id="path334" />
      <path
         d="m 48.15,21.66 -3.63,8.7 -3.45,8.24 a 1.4903859,1.4903859 0 1 0 2.75,1.15 l 3.44,-8.25 3.64,-8.7 a 1.49,1.49 0 0 0 -2.75,-1.14 z"
         fill="#799941"
         id="path336" />
      <path
         d="m 52.31,27.16 -2.31,5.49 -2.29,5.5 a 1.4903859,1.4903859 0 1 0 2.75,1.15 l 2.29,-5.5 2.3,-5.5 A 1.49,1.49 0 0 0 52.3,27.16 Z"
         fill="#f26624"
         id="path338" />
      <path
         d="M 43.38,17.62 39,28.06 34.66,38.5 a 1.4903859,1.4903859 0 1 0 2.75,1.15 l 4.36,-10.44 4.36,-10.44 a 1.4903859,1.4903859 0 1 0 -2.75,-1.15 z"
         fill="#f26624"
         id="path340" />
      <path
         d="m 50.1,20.86 a 1.49,1.49 0 0 0 -2,0.8 l -3.63,8.7 2.74,1.14 3.64,-8.7 A 1.47,1.47 0 0 0 50.1,20.86 Z"
         fill="#96c647"
         id="path342" />
      <path
         d="m 54.26,26.36 a 1.49,1.49 0 0 0 -1.95,0.8 l -2.31,5.49 2.75,1.15 2.3,-5.5 a 1.47,1.47 0 0 0 -0.79,-1.94 z"
         fill="#f4a632"
         id="path344" />
      <path
         d="m 45.33,16.82 a 1.49,1.49 0 0 0 -1.95,0.8 L 39,28.06 l 2.75,1.15 4.36,-10.44 a 1.49,1.49 0 0 0 -0.78,-1.95 z"
         fill="#f4a632"
         id="path346" />
      <path
         d="m 61.46,43.89 2.3,-5.5 2.29,-5.49 a 1.49,1.49 0 1 0 -2.74,-1.15 l -2.31,5.5 -2.3,5.49 a 1.4903859,1.4903859 0 1 0 2.75,1.15 z"
         fill="#f26624"
         id="path348" />
      <path
         d="m 65.62,49.39 3.64,-8.7 3.44,-8.25 A 1.49,1.49 0 0 0 70,31.3 l -3.44,8.24 -3.64,8.7 a 1.4903859,1.4903859 0 1 0 2.75,1.15 z"
         fill="#799941"
         id="path350" />
      <path
         d="M 76.37,31.4 72,41.84 67.64,52.28 a 1.4903859,1.4903859 0 1 0 2.75,1.15 L 74.75,43 79.11,32.56 a 1.49,1.49 0 1 0 -2.74,-1.15 z"
         fill="#f26624"
         id="path352" />
      <path
         d="m 65.25,31 a 1.47,1.47 0 0 0 -1.94,0.8 L 61,37.25 63.75,38.39 66.04,32.9 A 1.49,1.49 0 0 0 65.25,31 Z"
         fill="#96c647"
         id="path354" />
      <path
         d="m 71.9,30.5 a 1.49,1.49 0 0 0 -2,0.8 l -3.44,8.24 2.75,1.15 3.44,-8.25 A 1.47,1.47 0 0 0 71.9,30.5 Z"
         fill="#96c647"
         id="path356" />
      <path
         d="m 78.31,30.6 a 1.47,1.47 0 0 0 -1.94,0.8 L 72,41.84 74.75,43 79.11,32.56 a 1.49,1.49 0 0 0 -0.8,-1.96 z"
         fill="#f4a632"
         id="path358" />
      <path
         d="m 56.13,34.24 c -0.34,0.2 -0.7,0.35 -1,0.53 a 28.63,28.63 0 0 1 -24.31,1.15 1.49,1.49 0 0 0 -1.14,2.75 31.64,31.64 0 0 0 28,-1.86 c 0.34,-0.2 0.7,-0.35 1,-0.54 A 28.63,28.63 0 0 1 83,35.13 a 1.4903859,1.4903859 0 0 0 1.15,-2.75 31.63,31.63 0 0 0 -28,1.86 z"
         fill="#00565e"
         id="path360" />
      <path
         d="m 83,35.13 a 1.4903859,1.4903859 0 0 0 1.15,-2.75 31.63,31.63 0 0 0 -28,1.86 c -0.34,0.2 -0.7,0.35 -1,0.53 l 3.59,1.5 A 28.63,28.63 0 0 1 83,35.13 Z"
         fill="#177680"
         id="path362" />
      <path
         d="m 38,14.73 a 1.5,1.5 0 0 0 0.8,1.95 28.59,28.59 0 0 1 16.29,18.09 c 0.11,0.38 0.26,0.74 0.35,1.12 A 31.65,31.65 0 0 0 73.8,57.12 1.5002083,1.5002083 0 0 0 75,54.37 28.64,28.64 0 0 1 58.73,36.27 C 58.62,35.9 58.48,35.54 58.38,35.16 A 31.59,31.59 0 0 0 40,13.93 a 1.49,1.49 0 0 0 -1.95,0.8 z"
         fill="#00565e"
         id="path364" />
      <path
         d="m 40,13.93 a 1.4903859,1.4903859 0 0 0 -1.15,2.75 28.59,28.59 0 0 1 16.24,18.09 l 3.59,1.5 C 58.57,35.9 58.43,35.54 58.33,35.16 A 31.59,31.59 0 0 0 40,13.93 Z"
         fill="#177680"
         id="path366" />
    </g>
  </g>
</svg>
