<svg xmlns="http://www.w3.org/2000/svg" viewBox="0 0 150 133"><title>PsychENCODE Logo</title><g id="Layer_2" data-name="Layer 2"><g id="Layer_1-2" data-name="Layer 1"><path d="M53.32,130.82a3.49,3.49,0,0,1-5.63-1.34,94.67,94.67,0,0,0-6.53-13.95c-1.54-2.66-3.38-5.39-6.28-6.39a14.15,14.15,0,0,0-5.27-.3c-3.49.3-7,.53-10.48.83-3,.24-6.52.18-8.06-2.37-1.89-3.08.3-7.28-.59-10.72C10.13,95,9.3,94.75,8.59,93.44c-1-1.6.29-3.31-.59-4.79a7.44,7.44,0,0,0-1.19-1.19c-2.25-2.37.12-7.16-2.55-9.12-.94-.71-2.3-.71-3.19-1.48C-.35,75.74-.12,73.49.42,71.77,2.25,66.2,6.34,61.35,6.87,55.54c.41-4.55-1.36-9-1.72-13.5A30.13,30.13,0,0,1,7.76,27.89C9.3,24.28,19.07-.06,57.44,0c42.1.06,55.78,51.28,35.71,73C84.29,82.55,83.32,93.58,85,99a3.42,3.42,0,0,1-.9,3.58Z" fill="#fff"/><g opacity="0.5"><path d="M53.32,130.82a3.49,3.49,0,0,1-5.63-1.34,94.67,94.67,0,0,0-6.53-13.95c-1.54-2.66-3.38-5.39-6.28-6.39a14.15,14.15,0,0,0-5.27-.3c-3.49.3-7,.53-10.48.83-3,.24-6.52.18-8.06-2.37-1.89-3.08.3-7.28-.59-10.72C10.13,95,9.3,94.75,8.59,93.44c-1-1.6.29-3.31-.59-4.79a7.44,7.44,0,0,0-1.19-1.19c-2.25-2.37.12-7.16-2.55-9.12-.94-.71-2.3-.71-3.19-1.48C-.35,75.74-.12,73.49.42,71.77,2.25,66.2,6.34,61.35,6.87,55.54c.41-4.55-1.36-9-1.72-13.5A30.13,30.13,0,0,1,7.76,27.89C9.3,24.28,19.07-.06,57.44,0c42.1.06,55.78,51.28,35.71,73C84.29,82.55,83.32,93.58,85,99a3.42,3.42,0,0,1-.9,3.58Z" fill="#2699a7"/></g><g opacity="0.9"><path d="M93,38.32a19.2,19.2,0,0,0,.39-3.88c0-.78-.17-1.44-.32-2.74a14.68,14.68,0,0,0-.62-2.94c0-.11-.11-.21-.11-.32a20.36,20.36,0,0,0-9.69-12.2A21.1,21.1,0,0,0,59.62,6.77c-.31.1-.62.21-1,.31h-.1A18.74,18.74,0,0,0,44.92,5.93a19.2,19.2,0,0,0-8.76,5.57,18.12,18.12,0,0,0-5.73.63A16.11,16.11,0,0,0,19.27,24.44c-4.79,4.11-7.61,11-6.15,17.47,2,8.81,10.27,15.42,22.41,10.35l.17.12,0,0h0l3.35,2.37a7.63,7.63,0,0,0,3.32,5,12.77,12.77,0,0,0,9.07.84,10.84,10.84,0,0,0,3.13-1.47,9.69,9.69,0,0,0,5.42,1,7.6,7.6,0,0,0,1.59-.2l2.24,2.48-.08,0a10.91,10.91,0,0,0,11.47,3.58A9.91,9.91,0,0,0,79.12,64a9.32,9.32,0,0,0,1.67-.43A16.54,16.54,0,0,0,92.53,45.94h0C92.85,45.07,93.2,43,93,38.32Z" fill="#fff" opacity="0.7"/></g><path d="M35.31,52a.18.18,0,0,1-.05-.16l-.11,0Z" fill="#fff"/><path d="M48.15,21.66l-3.63,8.7L41.07,38.6a1.49,1.49,0,1,0,2.75,1.15l3.44-8.25,3.64-8.7a1.49,1.49,0,0,0-2.75-1.14Z" fill="#799941"/><path d="M52.31,27.16,50,32.65l-2.29,5.5a1.49,1.49,0,1,0,2.75,1.15l2.29-5.5,2.3-5.5a1.49,1.49,0,0,0-2.75-1.14Z" fill="#f26624"/><path d="M43.38,17.62,39,28.06,34.66,38.5a1.49,1.49,0,1,0,2.75,1.15l4.36-10.44,4.36-10.44a1.49,1.49,0,1,0-2.75-1.15Z" fill="#f26624"/><path d="M50.1,20.86a1.49,1.49,0,0,0-2,.8l-3.63,8.7,2.74,1.14,3.64-8.7A1.47,1.47,0,0,0,50.1,20.86Z" fill="#96c647"/><path d="M54.26,26.36a1.49,1.49,0,0,0-1.95.8L50,32.65l2.75,1.15,2.3-5.5A1.47,1.47,0,0,0,54.26,26.36Z" fill="#f4a632"/><path d="M45.33,16.82a1.49,1.49,0,0,0-1.95.8L39,28.06l2.75,1.15,4.36-10.44A1.49,1.49,0,0,0,45.33,16.82Z" fill="#f4a632"/><path d="M61.46,43.89l2.3-5.5,2.29-5.49a1.49,1.49,0,1,0-2.74-1.15L61,37.25l-2.3,5.49a1.49,1.49,0,1,0,2.75,1.15Z" fill="#f26624"/><path d="M65.62,49.39l3.64-8.7,3.44-8.25A1.49,1.49,0,0,0,70,31.3l-3.44,8.24-3.64,8.7a1.49,1.49,0,1,0,2.75,1.15Z" fill="#799941"/><path d="M76.37,31.4,72,41.84,67.64,52.28a1.49,1.49,0,1,0,2.75,1.15L74.75,43l4.36-10.44a1.49,1.49,0,1,0-2.74-1.15Z" fill="#f26624"/><path d="M65.25,31a1.47,1.47,0,0,0-1.94.8L61,37.25l2.75,1.14,2.29-5.49A1.49,1.49,0,0,0,65.25,31Z" fill="#96c647"/><path d="M71.9,30.5a1.49,1.49,0,0,0-2,.8l-3.44,8.24,2.75,1.15,3.44-8.25A1.47,1.47,0,0,0,71.9,30.5Z" fill="#96c647"/><path d="M78.31,30.6a1.47,1.47,0,0,0-1.94.8L72,41.84,74.75,43l4.36-10.44A1.49,1.49,0,0,0,78.31,30.6Z" fill="#f4a632"/><path d="M56.13,34.24c-.34.2-.7.35-1,.53a28.63,28.63,0,0,1-24.31,1.15,1.49,1.49,0,0,0-1.14,2.75,31.64,31.64,0,0,0,28-1.86c.34-.2.7-.35,1-.54A28.63,28.63,0,0,1,83,35.13a1.49,1.49,0,0,0,1.15-2.75,31.63,31.63,0,0,0-28,1.86Z" fill="#00565e"/><path d="M83,35.13a1.49,1.49,0,0,0,1.15-2.75,31.63,31.63,0,0,0-28,1.86c-.34.2-.7.35-1,.53l3.59,1.5A28.63,28.63,0,0,1,83,35.13Z" fill="#177680"/><path d="M38,14.73a1.5,1.5,0,0,0,.8,1.95A28.59,28.59,0,0,1,55.09,34.77c.11.38.26.74.35,1.12A31.65,31.65,0,0,0,73.8,57.12,1.49,1.49,0,0,0,75,54.37a28.64,28.64,0,0,1-16.27-18.1c-.11-.37-.25-.73-.35-1.11A31.59,31.59,0,0,0,40,13.93a1.49,1.49,0,0,0-1.95.8Z" fill="#00565e"/><path d="M40,13.93a1.49,1.49,0,0,0-1.15,2.75A28.59,28.59,0,0,1,55.09,34.77l3.59,1.5c-.11-.37-.25-.73-.35-1.11A31.59,31.59,0,0,0,40,13.93Z" fill="#177680"/></g></g></svg>