<svg  fill="none" xmlns="http://www.w3.org/2000/svg"
  transform="translate(0 7)"
>
<path d="M4.679 7.529C5.123 7.529 5.51 7.475 5.84 7.367C6.17 7.253 6.443 7.094 6.659 6.89C6.881 6.68 7.046 6.428 7.154 6.134C7.262 5.834 7.316 5.501 7.316 5.135C7.316 4.787 7.262 4.472 7.154 4.19C7.046 3.908 6.884 3.668 6.668 3.47C6.452 3.272 6.179 3.122 5.849 3.02C5.519 2.912 5.129 2.858 4.679 2.858H2.87V7.529H4.679ZM4.679 0.985999C5.549 0.985999 6.302 1.088 6.938 1.292C7.574 1.496 8.099 1.781 8.513 2.147C8.927 2.513 9.233 2.951 9.431 3.461C9.635 3.971 9.737 4.529 9.737 5.135C9.737 5.765 9.632 6.344 9.422 6.872C9.212 7.394 8.897 7.844 8.477 8.222C8.057 8.6 7.529 8.894 6.893 9.104C6.263 9.314 5.525 9.419 4.679 9.419H2.87V14H0.449V0.985999H4.679ZM16.6656 6.566C16.6056 6.662 16.5426 6.731 16.4766 6.773C16.4106 6.809 16.3266 6.827 16.2246 6.827C16.1166 6.827 15.9996 6.797 15.8736 6.737C15.7536 6.677 15.6126 6.611 15.4506 6.539C15.2886 6.461 15.1026 6.392 14.8926 6.332C14.6886 6.272 14.4456 6.242 14.1636 6.242C13.7256 6.242 13.3806 6.335 13.1286 6.521C12.8826 6.707 12.7596 6.95 12.7596 7.25C12.7596 7.448 12.8226 7.616 12.9486 7.754C13.0806 7.886 13.2516 8.003 13.4616 8.105C13.6776 8.207 13.9206 8.3 14.1906 8.384C14.4606 8.462 14.7336 8.549 15.0096 8.645C15.2916 8.741 15.5676 8.852 15.8376 8.978C16.1076 9.098 16.3476 9.254 16.5576 9.446C16.7736 9.632 16.9446 9.857 17.0706 10.121C17.2026 10.385 17.2686 10.703 17.2686 11.075C17.2686 11.519 17.1876 11.93 17.0256 12.308C16.8696 12.68 16.6356 13.004 16.3236 13.28C16.0116 13.55 15.6246 13.763 15.1626 13.919C14.7066 14.069 14.1786 14.144 13.5786 14.144C13.2606 14.144 12.9486 14.114 12.6426 14.054C12.3426 14 12.0516 13.922 11.7696 13.82C11.4936 13.718 11.2356 13.598 10.9956 13.46C10.7616 13.322 10.5546 13.172 10.3746 13.01L10.8876 12.164C10.9536 12.062 11.0316 11.984 11.1216 11.93C11.2116 11.876 11.3256 11.849 11.4636 11.849C11.6016 11.849 11.7306 11.888 11.8506 11.966C11.9766 12.044 12.1206 12.128 12.2826 12.218C12.4446 12.308 12.6336 12.392 12.8496 12.47C13.0716 12.548 13.3506 12.587 13.6866 12.587C13.9506 12.587 14.1756 12.557 14.3616 12.497C14.5536 12.431 14.7096 12.347 14.8296 12.245C14.9556 12.143 15.0456 12.026 15.0996 11.894C15.1596 11.756 15.1896 11.615 15.1896 11.471C15.1896 11.255 15.1236 11.078 14.9916 10.94C14.8656 10.802 14.6946 10.682 14.4786 10.58C14.2686 10.478 14.0256 10.388 13.7496 10.31C13.4796 10.226 13.2006 10.136 12.9126 10.04C12.6306 9.944 12.3516 9.833 12.0756 9.707C11.8056 9.575 11.5626 9.41 11.3466 9.212C11.1366 9.014 10.9656 8.771 10.8336 8.483C10.7076 8.195 10.6446 7.847 10.6446 7.439C10.6446 7.061 10.7196 6.701 10.8696 6.359C11.0196 6.017 11.2386 5.72 11.5266 5.468C11.8206 5.21 12.1836 5.006 12.6156 4.856C13.0536 4.7 13.5576 4.622 14.1276 4.622C14.7636 4.622 15.3426 4.727 15.8646 4.937C16.3866 5.147 16.8216 5.423 17.1696 5.765L16.6656 6.566ZM27.154 4.766L22.123 16.538C22.057 16.694 21.97 16.811 21.862 16.889C21.76 16.973 21.601 17.015 21.385 17.015H19.729L21.457 13.307L17.722 4.766H19.675C19.849 4.766 19.984 4.808 20.08 4.892C20.182 4.976 20.257 5.072 20.305 5.18L22.267 9.968C22.333 10.13 22.387 10.292 22.429 10.454C22.477 10.616 22.522 10.781 22.564 10.949C22.618 10.781 22.672 10.616 22.726 10.454C22.78 10.286 22.84 10.121 22.906 9.959L24.76 5.18C24.808 5.06 24.886 4.961 24.994 4.883C25.108 4.805 25.234 4.766 25.372 4.766H27.154ZM34.5919 6.719C34.5259 6.803 34.4599 6.869 34.3939 6.917C34.3339 6.965 34.2439 6.989 34.1239 6.989C34.0099 6.989 33.8989 6.956 33.7909 6.89C33.6829 6.818 33.5539 6.74 33.4039 6.656C33.2539 6.566 33.0739 6.488 32.8639 6.422C32.6599 6.35 32.4049 6.314 32.0989 6.314C31.7089 6.314 31.3669 6.386 31.0729 6.53C30.7789 6.668 30.5329 6.869 30.3349 7.133C30.1429 7.397 29.9989 7.718 29.9029 8.096C29.8069 8.468 29.7589 8.891 29.7589 9.365C29.7589 9.857 29.8099 10.295 29.9119 10.679C30.0199 11.063 30.1729 11.387 30.3709 11.651C30.5689 11.909 30.8089 12.107 31.0909 12.245C31.3729 12.377 31.6909 12.443 32.0449 12.443C32.3989 12.443 32.6839 12.401 32.8999 12.317C33.1219 12.227 33.3079 12.131 33.4579 12.029C33.6079 11.921 33.7369 11.825 33.8449 11.741C33.9589 11.651 34.0849 11.606 34.2229 11.606C34.4029 11.606 34.5379 11.675 34.6279 11.813L35.2669 12.623C35.0209 12.911 34.7539 13.154 34.4659 13.352C34.1779 13.544 33.8779 13.7 33.5659 13.82C33.2599 13.934 32.9419 14.015 32.6119 14.063C32.2879 14.111 31.9639 14.135 31.6399 14.135C31.0699 14.135 30.5329 14.03 30.0289 13.82C29.5249 13.604 29.0839 13.292 28.7059 12.884C28.3279 12.476 28.0279 11.978 27.8059 11.39C27.5899 10.796 27.4819 10.121 27.4819 9.365C27.4819 8.687 27.5779 8.06 27.7699 7.484C27.9679 6.902 28.2559 6.401 28.6339 5.981C29.0119 5.555 29.4799 5.222 30.0379 4.982C30.5959 4.742 31.2379 4.622 31.9639 4.622C32.6539 4.622 33.2569 4.733 33.7729 4.955C34.2949 5.177 34.7629 5.495 35.1769 5.909L34.5919 6.719ZM38.8835 5.756C39.2435 5.42 39.6395 5.147 40.0715 4.937C40.5035 4.727 41.0105 4.622 41.5925 4.622C42.0965 4.622 42.5435 4.709 42.9335 4.883C43.3235 5.051 43.6475 5.291 43.9055 5.603C44.1695 5.909 44.3675 6.278 44.4995 6.71C44.6375 7.136 44.7065 7.607 44.7065 8.123V14H42.4835V8.123C42.4835 7.559 42.3545 7.124 42.0965 6.818C41.8385 6.506 41.4455 6.35 40.9175 6.35C40.5335 6.35 40.1735 6.437 39.8375 6.611C39.5015 6.785 39.1835 7.022 38.8835 7.322V14H36.6605V0.625999H38.8835V5.756ZM49.4083 2.912V6.521H53.9623V8.384H49.4083V12.065H55.1863V14H46.9783V0.985999H55.1863V2.912H49.4083ZM68.3028 0.985999V14H67.0608C66.8688 14 66.7068 13.97 66.5748 13.91C66.4488 13.844 66.3258 13.736 66.2058 13.586L59.4108 4.91C59.4468 5.306 59.4648 5.672 59.4648 6.008V14H57.3318V0.985999H58.6008C58.7028 0.985999 58.7898 0.991999 58.8618 1.004C58.9398 1.01 59.0058 1.028 59.0598 1.058C59.1198 1.082 59.1768 1.121 59.2308 1.175C59.2848 1.223 59.3448 1.289 59.4108 1.373L66.2328 10.085C66.2148 9.875 66.1998 9.668 66.1878 9.464C66.1758 9.26 66.1698 9.071 66.1698 8.897V0.985999H68.3028ZM80.138 10.931C80.27 10.931 80.387 10.982 80.489 11.084L81.443 12.119C80.915 12.773 80.264 13.274 79.49 13.622C78.722 13.97 77.798 14.144 76.718 14.144C75.752 14.144 74.882 13.979 74.108 13.649C73.34 13.319 72.683 12.86 72.137 12.272C71.591 11.684 71.171 10.982 70.877 10.166C70.589 9.35 70.445 8.459 70.445 7.493C70.445 6.515 70.601 5.621 70.913 4.811C71.225 3.995 71.663 3.293 72.227 2.705C72.797 2.117 73.475 1.661 74.261 1.337C75.047 1.007 75.917 0.842 76.871 0.842C77.819 0.842 78.659 0.998 79.391 1.31C80.129 1.622 80.756 2.03 81.272 2.534L80.462 3.659C80.414 3.731 80.351 3.794 80.273 3.848C80.201 3.902 80.099 3.929 79.967 3.929C79.877 3.929 79.784 3.905 79.688 3.857C79.592 3.803 79.487 3.74 79.373 3.668C79.259 3.59 79.127 3.506 78.977 3.416C78.827 3.326 78.653 3.245 78.455 3.173C78.257 3.095 78.026 3.032 77.762 2.984C77.504 2.93 77.204 2.903 76.862 2.903C76.28 2.903 75.746 3.008 75.26 3.218C74.78 3.422 74.366 3.722 74.018 4.118C73.67 4.508 73.4 4.988 73.208 5.558C73.016 6.122 72.92 6.767 72.92 7.493C72.92 8.225 73.022 8.876 73.226 9.446C73.436 10.016 73.718 10.496 74.072 10.886C74.426 11.276 74.843 11.576 75.323 11.786C75.803 11.99 76.319 12.092 76.871 12.092C77.201 12.092 77.498 12.074 77.762 12.038C78.032 12.002 78.278 11.945 78.5 11.867C78.728 11.789 78.941 11.69 79.139 11.57C79.343 11.444 79.544 11.291 79.742 11.111C79.802 11.057 79.865 11.015 79.931 10.985C79.997 10.949 80.066 10.931 80.138 10.931ZM95.2311 7.493C95.2311 8.447 95.0721 9.332 94.7541 10.148C94.4421 10.958 93.9981 11.66 93.4221 12.254C92.8461 12.848 92.1531 13.313 91.3431 13.649C90.5331 13.979 89.6331 14.144 88.6431 14.144C87.6591 14.144 86.7621 13.979 85.9521 13.649C85.1421 13.313 84.4461 12.848 83.8641 12.254C83.2881 11.66 82.8411 10.958 82.5231 10.148C82.2051 9.332 82.0461 8.447 82.0461 7.493C82.0461 6.539 82.2051 5.657 82.5231 4.847C82.8411 4.031 83.2881 3.326 83.8641 2.732C84.4461 2.138 85.1421 1.676 85.9521 1.346C86.7621 1.01 87.6591 0.842 88.6431 0.842C89.3031 0.842 89.9241 0.92 90.5061 1.076C91.0881 1.226 91.6221 1.442 92.1081 1.724C92.5941 2 93.0291 2.339 93.4131 2.741C93.8031 3.137 94.1331 3.581 94.4031 4.073C94.6731 4.565 94.8771 5.099 95.0151 5.675C95.1591 6.251 95.2311 6.857 95.2311 7.493ZM92.7561 7.493C92.7561 6.779 92.6601 6.14 92.4681 5.576C92.2761 5.006 92.0031 4.523 91.6491 4.127C91.2951 3.731 90.8631 3.428 90.3531 3.218C89.8491 3.008 89.2791 2.903 88.6431 2.903C88.0071 2.903 87.4341 3.008 86.9241 3.218C86.4201 3.428 85.9881 3.731 85.6281 4.127C85.2741 4.523 85.0011 5.006 84.8091 5.576C84.6171 6.14 84.5211 6.779 84.5211 7.493C84.5211 8.207 84.6171 8.849 84.8091 9.419C85.0011 9.983 85.2741 10.463 85.6281 10.859C85.9881 11.249 86.4201 11.549 86.9241 11.759C87.4341 11.969 88.0071 12.074 88.6431 12.074C89.2791 12.074 89.8491 11.969 90.3531 11.759C90.8631 11.549 91.2951 11.249 91.6491 10.859C92.0031 10.463 92.2761 9.983 92.4681 9.419C92.6601 8.849 92.7561 8.207 92.7561 7.493ZM108.913 7.493C108.913 8.447 108.754 9.323 108.436 10.121C108.118 10.919 107.671 11.606 107.095 12.182C106.519 12.758 105.826 13.205 105.016 13.523C104.206 13.841 103.306 14 102.316 14H97.3572V0.985999H102.316C103.306 0.985999 104.206 1.148 105.016 1.472C105.826 1.79 106.519 2.237 107.095 2.813C107.671 3.383 108.118 4.067 108.436 4.865C108.754 5.663 108.913 6.539 108.913 7.493ZM106.429 7.493C106.429 6.779 106.333 6.14 106.141 5.576C105.955 5.006 105.682 4.526 105.322 4.136C104.968 3.74 104.536 3.437 104.026 3.227C103.522 3.017 102.952 2.912 102.316 2.912H99.7872V12.074H102.316C102.952 12.074 103.522 11.969 104.026 11.759C104.536 11.549 104.968 11.249 105.322 10.859C105.682 10.463 105.955 9.983 106.141 9.419C106.333 8.849 106.429 8.207 106.429 7.493ZM113.481 2.912V6.521H118.035V8.384H113.481V12.065H119.259V14H111.051V0.985999H119.259V2.912H113.481ZM128.202 6.44H128.769C128.997 6.44 129.186 6.41 129.336 6.35C129.486 6.284 129.615 6.182 129.723 6.044L133.314 1.499C133.464 1.307 133.62 1.175 133.782 1.103C133.95 1.025 134.16 0.985999 134.412 0.985999H136.5L132.117 6.395C131.859 6.725 131.592 6.959 131.316 7.097C131.514 7.169 131.691 7.271 131.847 7.403C132.009 7.529 132.162 7.697 132.306 7.907L136.824 14H134.691C134.403 14 134.187 13.961 134.043 13.883C133.905 13.799 133.788 13.679 133.692 13.523L130.011 8.717C129.897 8.555 129.765 8.441 129.615 8.375C129.465 8.309 129.249 8.276 128.967 8.276H128.202V14H125.781V0.985999H128.202V6.44ZM139.849 5.9C140.035 5.714 140.23 5.543 140.434 5.387C140.644 5.225 140.863 5.09 141.091 4.982C141.325 4.868 141.574 4.781 141.838 4.721C142.102 4.655 142.39 4.622 142.702 4.622C143.206 4.622 143.653 4.709 144.043 4.883C144.433 5.051 144.757 5.291 145.015 5.603C145.279 5.909 145.477 6.278 145.609 6.71C145.747 7.136 145.816 7.607 145.816 8.123V14H143.593V8.123C143.593 7.559 143.464 7.124 143.206 6.818C142.948 6.506 142.555 6.35 142.027 6.35C141.643 6.35 141.283 6.437 140.947 6.611C140.611 6.785 140.293 7.022 139.993 7.322V14H137.77V4.766H139.129C139.417 4.766 139.606 4.901 139.696 5.171L139.849 5.9ZM152.016 4.622C152.7 4.622 153.321 4.733 153.879 4.955C154.443 5.177 154.923 5.492 155.319 5.9C155.721 6.308 156.03 6.806 156.246 7.394C156.462 7.982 156.57 8.639 156.57 9.365C156.57 10.097 156.462 10.757 156.246 11.345C156.03 11.933 155.721 12.434 155.319 12.848C154.923 13.262 154.443 13.58 153.879 13.802C153.321 14.024 152.7 14.135 152.016 14.135C151.326 14.135 150.699 14.024 150.135 13.802C149.571 13.58 149.088 13.262 148.686 12.848C148.29 12.434 147.981 11.933 147.759 11.345C147.543 10.757 147.435 10.097 147.435 9.365C147.435 8.639 147.543 7.982 147.759 7.394C147.981 6.806 148.29 6.308 148.686 5.9C149.088 5.492 149.571 5.177 150.135 4.955C150.699 4.733 151.326 4.622 152.016 4.622ZM152.016 12.425C152.784 12.425 153.351 12.167 153.717 11.651C154.089 11.135 154.275 10.379 154.275 9.383C154.275 8.387 154.089 7.628 153.717 7.106C153.351 6.584 152.784 6.323 152.016 6.323C151.236 6.323 150.657 6.587 150.279 7.115C149.907 7.637 149.721 8.393 149.721 9.383C149.721 10.373 149.907 11.129 150.279 11.651C150.657 12.167 151.236 12.425 152.016 12.425ZM171.293 4.766L168.359 14H166.577C166.373 14 166.232 13.868 166.154 13.604L164.498 8.267C164.444 8.087 164.393 7.91 164.345 7.736C164.303 7.556 164.267 7.376 164.237 7.196C164.201 7.376 164.159 7.559 164.111 7.745C164.069 7.925 164.021 8.105 163.967 8.285L162.284 13.604C162.212 13.868 162.053 14 161.807 14H160.097L157.172 4.766H158.945C159.107 4.766 159.245 4.805 159.359 4.883C159.473 4.961 159.548 5.06 159.584 5.18L160.907 10.112C160.973 10.382 161.03 10.646 161.078 10.904C161.132 11.162 161.177 11.42 161.213 11.678C161.279 11.42 161.348 11.162 161.42 10.904C161.498 10.646 161.579 10.382 161.663 10.112L163.193 5.162C163.229 5.042 163.298 4.943 163.4 4.865C163.508 4.787 163.637 4.748 163.787 4.748H164.768C164.924 4.748 165.056 4.787 165.164 4.865C165.278 4.943 165.353 5.042 165.389 5.162L166.874 10.112C166.952 10.382 167.024 10.649 167.09 10.913C167.162 11.171 167.231 11.429 167.297 11.687C167.375 11.177 167.486 10.652 167.63 10.112L168.989 5.18C169.031 5.06 169.106 4.961 169.214 4.883C169.322 4.805 169.451 4.766 169.601 4.766H171.293ZM174.807 0.625999V14H172.584V0.625999H174.807ZM182.971 8.321C182.971 8.033 182.929 7.763 182.845 7.511C182.767 7.253 182.647 7.028 182.485 6.836C182.323 6.644 182.116 6.494 181.864 6.386C181.618 6.272 181.33 6.215 181 6.215C180.358 6.215 179.851 6.398 179.479 6.764C179.113 7.13 178.879 7.649 178.777 8.321H182.971ZM178.732 9.662C178.768 10.136 178.852 10.547 178.984 10.895C179.116 11.237 179.29 11.522 179.506 11.75C179.722 11.972 179.977 12.14 180.271 12.254C180.571 12.362 180.901 12.416 181.261 12.416C181.621 12.416 181.93 12.374 182.188 12.29C182.452 12.206 182.68 12.113 182.872 12.011C183.07 11.909 183.241 11.816 183.385 11.732C183.535 11.648 183.679 11.606 183.817 11.606C184.003 11.606 184.141 11.675 184.231 11.813L184.87 12.623C184.624 12.911 184.348 13.154 184.042 13.352C183.736 13.544 183.415 13.7 183.079 13.82C182.749 13.934 182.41 14.015 182.062 14.063C181.72 14.111 181.387 14.135 181.063 14.135C180.421 14.135 179.824 14.03 179.272 13.82C178.72 13.604 178.24 13.289 177.832 12.875C177.424 12.455 177.103 11.939 176.869 11.327C176.635 10.709 176.518 9.995 176.518 9.185C176.518 8.555 176.62 7.964 176.824 7.412C177.028 6.854 177.319 6.371 177.697 5.963C178.081 5.549 178.546 5.222 179.092 4.982C179.644 4.742 180.265 4.622 180.955 4.622C181.537 4.622 182.074 4.715 182.566 4.901C183.058 5.087 183.481 5.36 183.835 5.72C184.189 6.074 184.465 6.512 184.663 7.034C184.867 7.55 184.969 8.141 184.969 8.807C184.969 9.143 184.933 9.371 184.861 9.491C184.789 9.605 184.651 9.662 184.447 9.662H178.732ZM192.433 7.124C192.181 6.818 191.905 6.602 191.605 6.476C191.311 6.35 190.993 6.287 190.651 6.287C190.315 6.287 190.012 6.35 189.742 6.476C189.472 6.602 189.241 6.794 189.049 7.052C188.857 7.304 188.71 7.628 188.608 8.024C188.506 8.414 188.455 8.876 188.455 9.41C188.455 9.95 188.497 10.409 188.581 10.787C188.671 11.159 188.797 11.465 188.959 11.705C189.121 11.939 189.319 12.11 189.553 12.218C189.787 12.32 190.048 12.371 190.336 12.371C190.798 12.371 191.191 12.275 191.515 12.083C191.839 11.891 192.145 11.618 192.433 11.264V7.124ZM194.656 0.625999V14H193.297C193.003 14 192.817 13.865 192.739 13.595L192.55 12.704C192.178 13.13 191.749 13.475 191.263 13.739C190.783 14.003 190.222 14.135 189.58 14.135C189.076 14.135 188.614 14.03 188.194 13.82C187.774 13.61 187.411 13.307 187.105 12.911C186.805 12.509 186.571 12.014 186.403 11.426C186.241 10.838 186.16 10.166 186.16 9.41C186.16 8.726 186.253 8.09 186.439 7.502C186.625 6.914 186.892 6.404 187.24 5.972C187.588 5.54 188.005 5.204 188.491 4.964C188.977 4.718 189.523 4.595 190.129 4.595C190.645 4.595 191.086 4.676 191.452 4.838C191.818 5 192.145 5.219 192.433 5.495V0.625999H194.656ZM200.225 9.158C200.501 9.158 200.741 9.122 200.945 9.05C201.149 8.972 201.317 8.867 201.449 8.735C201.587 8.603 201.689 8.444 201.755 8.258C201.827 8.072 201.863 7.868 201.863 7.646C201.863 7.19 201.725 6.83 201.449 6.566C201.179 6.296 200.771 6.161 200.225 6.161C199.679 6.161 199.268 6.296 198.992 6.566C198.722 6.83 198.587 7.19 198.587 7.646C198.587 7.862 198.62 8.063 198.686 8.249C198.758 8.435 198.86 8.597 198.992 8.735C199.13 8.867 199.301 8.972 199.505 9.05C199.715 9.122 199.955 9.158 200.225 9.158ZM202.736 14.414C202.736 14.234 202.682 14.087 202.574 13.973C202.466 13.859 202.319 13.772 202.133 13.712C201.947 13.646 201.728 13.598 201.476 13.568C201.23 13.538 200.966 13.517 200.684 13.505C200.408 13.487 200.12 13.472 199.82 13.46C199.526 13.448 199.238 13.424 198.956 13.388C198.71 13.526 198.509 13.688 198.353 13.874C198.203 14.06 198.128 14.276 198.128 14.522C198.128 14.684 198.167 14.834 198.245 14.972C198.329 15.116 198.458 15.239 198.632 15.341C198.812 15.443 199.043 15.521 199.325 15.575C199.607 15.635 199.952 15.665 200.36 15.665C200.774 15.665 201.131 15.632 201.431 15.566C201.731 15.506 201.977 15.419 202.169 15.305C202.367 15.197 202.511 15.065 202.601 14.909C202.691 14.759 202.736 14.594 202.736 14.414ZM204.95 5.081V5.909C204.95 6.173 204.791 6.335 204.473 6.395L203.645 6.548C203.771 6.866 203.834 7.214 203.834 7.592C203.834 8.048 203.741 8.462 203.555 8.834C203.375 9.2 203.123 9.512 202.799 9.77C202.475 10.028 202.091 10.229 201.647 10.373C201.209 10.511 200.735 10.58 200.225 10.58C200.045 10.58 199.871 10.571 199.703 10.553C199.535 10.535 199.37 10.511 199.208 10.481C198.92 10.655 198.776 10.85 198.776 11.066C198.776 11.252 198.86 11.39 199.028 11.48C199.202 11.564 199.43 11.624 199.712 11.66C199.994 11.696 200.315 11.72 200.675 11.732C201.035 11.738 201.404 11.756 201.782 11.786C202.16 11.816 202.529 11.87 202.889 11.948C203.249 12.02 203.57 12.137 203.852 12.299C204.134 12.461 204.359 12.683 204.527 12.965C204.701 13.241 204.788 13.598 204.788 14.036C204.788 14.444 204.686 14.84 204.482 15.224C204.284 15.608 203.993 15.95 203.609 16.25C203.231 16.55 202.763 16.79 202.205 16.97C201.653 17.156 201.023 17.249 200.315 17.249C199.619 17.249 199.013 17.18 198.497 17.042C197.981 16.91 197.552 16.73 197.21 16.502C196.868 16.28 196.613 16.022 196.445 15.728C196.277 15.434 196.193 15.128 196.193 14.81C196.193 14.378 196.322 14.018 196.58 13.73C196.844 13.436 197.204 13.202 197.66 13.028C197.414 12.902 197.219 12.734 197.075 12.524C196.931 12.314 196.859 12.038 196.859 11.696C196.859 11.558 196.883 11.417 196.931 11.273C196.985 11.123 197.06 10.976 197.156 10.832C197.258 10.688 197.384 10.553 197.534 10.427C197.684 10.295 197.861 10.178 198.065 10.076C197.597 9.824 197.228 9.488 196.958 9.068C196.694 8.648 196.562 8.156 196.562 7.592C196.562 7.136 196.652 6.725 196.832 6.359C197.018 5.987 197.273 5.672 197.597 5.414C197.927 5.15 198.314 4.949 198.758 4.811C199.208 4.673 199.697 4.604 200.225 4.604C200.621 4.604 200.993 4.646 201.341 4.73C201.689 4.808 202.007 4.925 202.295 5.081H204.95ZM212.151 8.321C212.151 8.033 212.109 7.763 212.025 7.511C211.947 7.253 211.827 7.028 211.665 6.836C211.503 6.644 211.296 6.494 211.044 6.386C210.798 6.272 210.51 6.215 210.18 6.215C209.538 6.215 209.031 6.398 208.659 6.764C208.293 7.13 208.059 7.649 207.957 8.321H212.151ZM207.912 9.662C207.948 10.136 208.032 10.547 208.164 10.895C208.296 11.237 208.47 11.522 208.686 11.75C208.902 11.972 209.157 12.14 209.451 12.254C209.751 12.362 210.081 12.416 210.441 12.416C210.801 12.416 211.11 12.374 211.368 12.29C211.632 12.206 211.86 12.113 212.052 12.011C212.25 11.909 212.421 11.816 212.565 11.732C212.715 11.648 212.859 11.606 212.997 11.606C213.183 11.606 213.321 11.675 213.411 11.813L214.05 12.623C213.804 12.911 213.528 13.154 213.222 13.352C212.916 13.544 212.595 13.7 212.259 13.82C211.929 13.934 211.59 14.015 211.242 14.063C210.9 14.111 210.567 14.135 210.243 14.135C209.601 14.135 209.004 14.03 208.452 13.82C207.9 13.604 207.42 13.289 207.012 12.875C206.604 12.455 206.283 11.939 206.049 11.327C205.815 10.709 205.698 9.995 205.698 9.185C205.698 8.555 205.8 7.964 206.004 7.412C206.208 6.854 206.499 6.371 206.877 5.963C207.261 5.549 207.726 5.222 208.272 4.982C208.824 4.742 209.445 4.622 210.135 4.622C210.717 4.622 211.254 4.715 211.746 4.901C212.238 5.087 212.661 5.36 213.015 5.72C213.369 6.074 213.645 6.512 213.843 7.034C214.047 7.55 214.149 8.141 214.149 8.807C214.149 9.143 214.113 9.371 214.041 9.491C213.969 9.605 213.831 9.662 213.627 9.662H207.912ZM224.775 7.529C225.219 7.529 225.606 7.475 225.936 7.367C226.266 7.253 226.539 7.094 226.755 6.89C226.977 6.68 227.142 6.428 227.25 6.134C227.358 5.834 227.412 5.501 227.412 5.135C227.412 4.787 227.358 4.472 227.25 4.19C227.142 3.908 226.98 3.668 226.764 3.47C226.548 3.272 226.275 3.122 225.945 3.02C225.615 2.912 225.225 2.858 224.775 2.858H222.966V7.529H224.775ZM224.775 0.985999C225.645 0.985999 226.398 1.088 227.034 1.292C227.67 1.496 228.195 1.781 228.609 2.147C229.023 2.513 229.329 2.951 229.527 3.461C229.731 3.971 229.833 4.529 229.833 5.135C229.833 5.765 229.728 6.344 229.518 6.872C229.308 7.394 228.993 7.844 228.573 8.222C228.153 8.6 227.625 8.894 226.989 9.104C226.359 9.314 225.621 9.419 224.775 9.419H222.966V14H220.545V0.985999H224.775ZM235.002 4.622C235.686 4.622 236.307 4.733 236.865 4.955C237.429 5.177 237.909 5.492 238.305 5.9C238.707 6.308 239.016 6.806 239.232 7.394C239.448 7.982 239.556 8.639 239.556 9.365C239.556 10.097 239.448 10.757 239.232 11.345C239.016 11.933 238.707 12.434 238.305 12.848C237.909 13.262 237.429 13.58 236.865 13.802C236.307 14.024 235.686 14.135 235.002 14.135C234.312 14.135 233.685 14.024 233.121 13.802C232.557 13.58 232.074 13.262 231.672 12.848C231.276 12.434 230.967 11.933 230.745 11.345C230.529 10.757 230.421 10.097 230.421 9.365C230.421 8.639 230.529 7.982 230.745 7.394C230.967 6.806 231.276 6.308 231.672 5.9C232.074 5.492 232.557 5.177 233.121 4.955C233.685 4.733 234.312 4.622 235.002 4.622ZM235.002 12.425C235.77 12.425 236.337 12.167 236.703 11.651C237.075 11.135 237.261 10.379 237.261 9.383C237.261 8.387 237.075 7.628 236.703 7.106C236.337 6.584 235.77 6.323 235.002 6.323C234.222 6.323 233.643 6.587 233.265 7.115C232.893 7.637 232.707 8.393 232.707 9.383C232.707 10.373 232.893 11.129 233.265 11.651C233.643 12.167 234.222 12.425 235.002 12.425ZM243.349 6.368C243.637 5.816 243.979 5.384 244.375 5.072C244.771 4.754 245.239 4.595 245.779 4.595C246.205 4.595 246.547 4.688 246.805 4.874L246.661 6.539C246.631 6.647 246.586 6.725 246.526 6.773C246.472 6.815 246.397 6.836 246.301 6.836C246.211 6.836 246.076 6.821 245.896 6.791C245.722 6.761 245.551 6.746 245.383 6.746C245.137 6.746 244.918 6.782 244.726 6.854C244.534 6.926 244.36 7.031 244.204 7.169C244.054 7.301 243.919 7.463 243.799 7.655C243.685 7.847 243.577 8.066 243.475 8.312V14H241.252V4.766H242.557C242.785 4.766 242.944 4.808 243.034 4.892C243.124 4.97 243.184 5.114 243.214 5.324L243.349 6.368ZM251.045 14.144C250.241 14.144 249.623 13.919 249.191 13.469C248.765 13.013 248.552 12.386 248.552 11.588V6.431H247.607C247.487 6.431 247.385 6.392 247.301 6.314C247.217 6.236 247.175 6.119 247.175 5.963V5.081L248.66 4.838L249.128 2.318C249.158 2.198 249.215 2.105 249.299 2.039C249.383 1.973 249.491 1.94 249.623 1.94H250.775V4.847H253.241V6.431H250.775V11.435C250.775 11.723 250.844 11.948 250.982 12.11C251.126 12.272 251.321 12.353 251.567 12.353C251.705 12.353 251.819 12.338 251.909 12.308C252.005 12.272 252.086 12.236 252.152 12.2C252.224 12.164 252.287 12.131 252.341 12.101C252.395 12.065 252.449 12.047 252.503 12.047C252.569 12.047 252.623 12.065 252.665 12.101C252.707 12.131 252.752 12.179 252.8 12.245L253.466 13.325C253.142 13.595 252.77 13.799 252.35 13.937C251.93 14.075 251.495 14.144 251.045 14.144ZM259.542 10.058C258.9 10.088 258.36 10.145 257.922 10.229C257.484 10.307 257.133 10.409 256.869 10.535C256.605 10.661 256.416 10.808 256.302 10.976C256.188 11.144 256.131 11.327 256.131 11.525C256.131 11.915 256.245 12.194 256.473 12.362C256.707 12.53 257.01 12.614 257.382 12.614C257.838 12.614 258.231 12.533 258.561 12.371C258.897 12.203 259.224 11.951 259.542 11.615V10.058ZM254.448 6.053C255.51 5.081 256.788 4.595 258.282 4.595C258.822 4.595 259.305 4.685 259.731 4.865C260.157 5.039 260.517 5.285 260.811 5.603C261.105 5.915 261.327 6.29 261.477 6.728C261.633 7.166 261.711 7.646 261.711 8.168V14H260.703C260.493 14 260.331 13.97 260.217 13.91C260.103 13.844 260.013 13.715 259.947 13.523L259.749 12.857C259.515 13.067 259.287 13.253 259.065 13.415C258.843 13.571 258.612 13.703 258.372 13.811C258.132 13.919 257.874 14 257.598 14.054C257.328 14.114 257.028 14.144 256.698 14.144C256.308 14.144 255.948 14.093 255.618 13.991C255.288 13.883 255.003 13.724 254.763 13.514C254.523 13.304 254.337 13.043 254.205 12.731C254.073 12.419 254.007 12.056 254.007 11.642C254.007 11.408 254.046 11.177 254.124 10.949C254.202 10.715 254.328 10.493 254.502 10.283C254.682 10.073 254.913 9.875 255.195 9.689C255.477 9.503 255.822 9.341 256.23 9.203C256.644 9.065 257.124 8.954 257.67 8.87C258.216 8.78 258.84 8.726 259.542 8.708V8.168C259.542 7.55 259.41 7.094 259.146 6.8C258.882 6.5 258.501 6.35 258.003 6.35C257.643 6.35 257.343 6.392 257.103 6.476C256.869 6.56 256.662 6.656 256.482 6.764C256.302 6.866 256.137 6.959 255.987 7.043C255.843 7.127 255.681 7.169 255.501 7.169C255.345 7.169 255.213 7.13 255.105 7.052C254.997 6.968 254.91 6.872 254.844 6.764L254.448 6.053ZM266.055 0.625999V14H263.832V0.625999H266.055Z" fill="white"/>
<path d="M120.427 30.55C120.703 30.55 120.947 30.5133 121.157 30.44C121.37 30.3667 121.548 30.265 121.692 30.135C121.838 30.0017 121.948 29.8433 122.022 29.66C122.095 29.4767 122.132 29.275 122.132 29.055C122.132 28.5983 121.99 28.2417 121.707 27.985C121.427 27.7283 121 27.6 120.427 27.6H119.277V30.55H120.427ZM120.427 26.835C120.88 26.835 121.273 26.8883 121.607 26.995C121.943 27.0983 122.222 27.2467 122.442 27.44C122.662 27.6333 122.825 27.8667 122.932 28.14C123.042 28.4133 123.097 28.7183 123.097 29.055C123.097 29.3883 123.038 29.6933 122.922 29.97C122.805 30.2467 122.633 30.485 122.407 30.685C122.183 30.885 121.905 31.0417 121.572 31.155C121.242 31.265 120.86 31.32 120.427 31.32H119.277V34H118.312V26.835H120.427ZM131.437 30.42C131.437 30.9567 131.352 31.45 131.182 31.9C131.012 32.3467 130.772 32.7317 130.462 33.055C130.152 33.3783 129.779 33.63 129.342 33.81C128.909 33.9867 128.429 34.075 127.902 34.075C127.376 34.075 126.896 33.9867 126.462 33.81C126.029 33.63 125.657 33.3783 125.347 33.055C125.037 32.7317 124.797 32.3467 124.627 31.9C124.457 31.45 124.372 30.9567 124.372 30.42C124.372 29.8833 124.457 29.3917 124.627 28.945C124.797 28.495 125.037 28.1083 125.347 27.785C125.657 27.4583 126.029 27.205 126.462 27.025C126.896 26.845 127.376 26.755 127.902 26.755C128.429 26.755 128.909 26.845 129.342 27.025C129.779 27.205 130.152 27.4583 130.462 27.785C130.772 28.1083 131.012 28.495 131.182 28.945C131.352 29.3917 131.437 29.8833 131.437 30.42ZM130.442 30.42C130.442 29.98 130.382 29.585 130.262 29.235C130.142 28.885 129.972 28.59 129.752 28.35C129.532 28.1067 129.266 27.92 128.952 27.79C128.639 27.66 128.289 27.595 127.902 27.595C127.519 27.595 127.171 27.66 126.857 27.79C126.544 27.92 126.276 28.1067 126.052 28.35C125.832 28.59 125.662 28.885 125.542 29.235C125.422 29.585 125.362 29.98 125.362 30.42C125.362 30.86 125.422 31.255 125.542 31.605C125.662 31.9517 125.832 32.2467 126.052 32.49C126.276 32.73 126.544 32.915 126.857 33.045C127.171 33.1717 127.519 33.235 127.902 33.235C128.289 33.235 128.639 33.1717 128.952 33.045C129.266 32.915 129.532 32.73 129.752 32.49C129.972 32.2467 130.142 31.9517 130.262 31.605C130.382 31.255 130.442 30.86 130.442 30.42ZM142.503 26.835L140.268 34H139.398L137.583 28.535C137.566 28.4817 137.549 28.425 137.533 28.365C137.519 28.305 137.504 28.2417 137.488 28.175C137.471 28.2417 137.454 28.305 137.438 28.365C137.421 28.425 137.404 28.4817 137.388 28.535L135.563 34H134.693L132.458 26.835H133.263C133.349 26.835 133.421 26.8567 133.478 26.9C133.538 26.9433 133.576 26.9983 133.593 27.065L135.073 32.045C135.096 32.135 135.118 32.2317 135.138 32.335C135.161 32.4383 135.183 32.5483 135.203 32.665C135.226 32.5483 135.249 32.4383 135.273 32.335C135.299 32.2283 135.328 32.1317 135.358 32.045L137.043 27.065C137.063 27.0083 137.101 26.9567 137.158 26.91C137.218 26.86 137.289 26.835 137.373 26.835H137.653C137.739 26.835 137.809 26.8567 137.863 26.9C137.916 26.9433 137.956 26.9983 137.983 27.065L139.663 32.045C139.693 32.1317 139.719 32.225 139.743 32.325C139.769 32.425 139.794 32.53 139.818 32.64C139.834 32.53 139.853 32.425 139.873 32.325C139.893 32.225 139.914 32.1317 139.938 32.045L141.423 27.065C141.439 27.005 141.476 26.9517 141.533 26.905C141.593 26.8583 141.664 26.835 141.748 26.835H142.503ZM148.489 33.21L148.484 34H144.069V26.835H148.484V27.625H145.039V30.005H147.829V30.765H145.039V33.21H148.489ZM152.326 30.305C152.606 30.305 152.852 30.2717 153.066 30.205C153.282 30.135 153.462 30.0383 153.606 29.915C153.752 29.7883 153.862 29.6383 153.936 29.465C154.009 29.2917 154.046 29.1 154.046 28.89C154.046 28.4633 153.906 28.1417 153.626 27.925C153.346 27.7083 152.926 27.6 152.366 27.6H151.306V30.305H152.326ZM155.636 34H154.776C154.599 34 154.469 33.9317 154.386 33.795L152.526 31.235C152.469 31.155 152.407 31.0983 152.341 31.065C152.277 31.0283 152.177 31.01 152.041 31.01H151.306V34H150.341V26.835H152.366C152.819 26.835 153.211 26.8817 153.541 26.975C153.871 27.065 154.142 27.1967 154.356 27.37C154.572 27.5433 154.732 27.7533 154.836 28C154.939 28.2433 154.991 28.5167 154.991 28.82C154.991 29.0733 154.951 29.31 154.871 29.53C154.791 29.75 154.674 29.9483 154.521 30.125C154.371 30.2983 154.186 30.4467 153.966 30.57C153.749 30.6933 153.502 30.7867 153.226 30.85C153.349 30.92 153.456 31.0217 153.546 31.155L155.636 34ZM161.53 33.21L161.525 34H157.11V26.835H161.525V27.625H158.08V30.005H160.87V30.765H158.08V33.21H161.53ZM169.592 30.42C169.592 30.9567 169.507 31.445 169.337 31.885C169.167 32.325 168.927 32.7017 168.617 33.015C168.307 33.3283 167.934 33.5717 167.497 33.745C167.064 33.915 166.584 34 166.057 34H163.382V26.835H166.057C166.584 26.835 167.064 26.9217 167.497 27.095C167.934 27.265 168.307 27.5083 168.617 27.825C168.927 28.1383 169.167 28.515 169.337 28.955C169.507 29.395 169.592 29.8833 169.592 30.42ZM168.597 30.42C168.597 29.98 168.537 29.5867 168.417 29.24C168.297 28.8933 168.127 28.6 167.907 28.36C167.687 28.12 167.42 27.9367 167.107 27.81C166.794 27.6833 166.444 27.62 166.057 27.62H164.352V33.215H166.057C166.444 33.215 166.794 33.1517 167.107 33.025C167.42 32.8983 167.687 32.7167 167.907 32.48C168.127 32.24 168.297 31.9467 168.417 31.6C168.537 31.2533 168.597 30.86 168.597 30.42ZM177.063 33.23C177.34 33.23 177.578 33.1983 177.778 33.135C177.978 33.0717 178.141 32.9833 178.268 32.87C178.398 32.7533 178.493 32.6167 178.553 32.46C178.613 32.3 178.643 32.125 178.643 31.935C178.643 31.565 178.511 31.2733 178.248 31.06C177.985 30.8433 177.59 30.735 177.063 30.735H175.513V33.23H177.063ZM175.513 27.6V30.045H176.793C177.066 30.045 177.303 30.015 177.503 29.955C177.706 29.895 177.873 29.8117 178.003 29.705C178.136 29.5983 178.235 29.47 178.298 29.32C178.361 29.1667 178.393 29 178.393 28.82C178.393 28.3967 178.266 28.0883 178.013 27.895C177.76 27.6983 177.366 27.6 176.833 27.6H175.513ZM176.833 26.835C177.273 26.835 177.651 26.8783 177.968 26.965C178.288 27.0517 178.55 27.175 178.753 27.335C178.96 27.495 179.111 27.6917 179.208 27.925C179.305 28.155 179.353 28.415 179.353 28.705C179.353 28.8817 179.325 29.0517 179.268 29.215C179.215 29.375 179.133 29.525 179.023 29.665C178.913 29.805 178.773 29.9317 178.603 30.045C178.436 30.155 178.24 30.245 178.013 30.315C178.54 30.415 178.935 30.6033 179.198 30.88C179.465 31.1533 179.598 31.5133 179.598 31.96C179.598 32.2633 179.541 32.54 179.428 32.79C179.318 33.04 179.155 33.255 178.938 33.435C178.725 33.615 178.461 33.755 178.148 33.855C177.835 33.9517 177.478 34 177.078 34H174.548V26.835H176.833ZM183.968 31.145V34H182.998V31.145L180.373 26.835H181.223C181.31 26.835 181.378 26.8567 181.428 26.9C181.478 26.94 181.522 26.9933 181.558 27.06L183.198 29.845C183.258 29.9617 183.313 30.0717 183.363 30.175C183.413 30.275 183.457 30.3767 183.493 30.48C183.53 30.3767 183.572 30.275 183.618 30.175C183.665 30.0717 183.717 29.9617 183.773 29.845L185.408 27.06C185.438 27.0033 185.48 26.9517 185.533 26.905C185.587 26.8583 185.655 26.835 185.738 26.835H186.593L183.968 31.145Z" fill="white"/>
<path d="M215.316 28.0369C215.285 28.0878 215.251 28.1268 215.214 28.154C215.18 28.1777 215.137 28.1896 215.086 28.1896C215.029 28.1896 214.961 28.1608 214.882 28.1031C214.804 28.0454 214.706 27.9826 214.587 27.9147C214.471 27.8434 214.33 27.779 214.163 27.7213C214 27.6635 213.801 27.6347 213.566 27.6347C213.345 27.6347 213.15 27.6653 212.98 27.7263C212.813 27.784 212.672 27.8638 212.557 27.9656C212.444 28.0674 212.359 28.1879 212.301 28.3271C212.244 28.4628 212.215 28.6105 212.215 28.77C212.215 28.9736 212.264 29.1433 212.363 29.2791C212.465 29.4114 212.597 29.5251 212.761 29.6202C212.927 29.7152 213.114 29.7983 213.322 29.8696C213.532 29.9375 213.747 30.0088 213.964 30.0834C214.185 30.1581 214.4 30.243 214.607 30.338C214.818 30.4296 215.005 30.5467 215.168 30.6892C215.335 30.8318 215.467 31.0066 215.566 31.2136C215.668 31.4206 215.719 31.6752 215.719 31.9772C215.719 32.2963 215.665 32.5966 215.556 32.8783C215.447 33.1566 215.287 33.3993 215.076 33.6063C214.869 33.8134 214.612 33.9763 214.306 34.0951C214.003 34.2139 213.658 34.2732 213.271 34.2732C212.795 34.2732 212.363 34.1884 211.975 34.0187C211.587 33.8456 211.256 33.6131 210.98 33.3212L211.266 32.8529C211.293 32.8155 211.326 32.785 211.363 32.7612C211.404 32.7341 211.448 32.7205 211.496 32.7205C211.54 32.7205 211.589 32.7392 211.643 32.7765C211.701 32.8105 211.766 32.8546 211.837 32.9089C211.909 32.9632 211.99 33.0226 212.082 33.0871C212.174 33.1515 212.278 33.2109 212.393 33.2652C212.512 33.3195 212.647 33.3654 212.796 33.4027C212.946 33.4366 213.114 33.4536 213.301 33.4536C213.536 33.4536 213.745 33.4214 213.929 33.3569C214.112 33.2924 214.267 33.2024 214.393 33.0871C214.522 32.9683 214.621 32.8274 214.689 32.6645C214.757 32.5016 214.791 32.32 214.791 32.1198C214.791 31.8992 214.74 31.7193 214.638 31.5802C214.539 31.4376 214.408 31.3188 214.245 31.2238C214.082 31.1288 213.895 31.049 213.684 30.9845C213.473 30.9166 213.259 30.8488 213.041 30.7809C212.823 30.7096 212.609 30.6282 212.398 30.5365C212.188 30.4449 212.001 30.3261 211.837 30.1802C211.674 30.0342 211.541 29.8526 211.439 29.6354C211.341 29.4148 211.292 29.1433 211.292 28.8209C211.292 28.563 211.341 28.3135 211.439 28.0725C211.541 27.8315 211.688 27.6177 211.878 27.4311C212.072 27.2444 212.308 27.0951 212.587 26.9831C212.869 26.8711 213.192 26.8151 213.556 26.8151C213.964 26.8151 214.335 26.8795 214.668 27.0085C215.005 27.1375 215.301 27.3242 215.556 27.5685L215.316 28.0369Z" fill="white"/>
<path d="M221.878 31.285V34.1919H220.889V31.285L218.211 26.8966H219.078C219.166 26.8966 219.236 26.9187 219.287 26.9628C219.338 27.0035 219.382 27.0578 219.42 27.1257L221.093 29.9613C221.154 30.0801 221.21 30.1921 221.261 30.2973C221.312 30.3991 221.356 30.5027 221.394 30.6079C221.431 30.5027 221.474 30.3991 221.521 30.2973C221.569 30.1921 221.621 30.0801 221.679 29.9613L223.347 27.1257C223.378 27.068 223.42 27.0154 223.475 26.9679C223.529 26.9204 223.599 26.8966 223.684 26.8966H224.556L221.878 31.285Z" fill="white"/>
<path d="M233.08 26.8966V34.1919H232.585C232.507 34.1919 232.441 34.1783 232.386 34.1512C232.335 34.124 232.284 34.0782 232.233 34.0137L228.005 28.5155C228.012 28.6004 228.017 28.6835 228.02 28.765C228.024 28.8464 228.025 28.9228 228.025 28.9941V34.1919H227.158V26.8966H227.668C227.712 26.8966 227.75 26.9 227.78 26.9068C227.811 26.9102 227.838 26.9187 227.862 26.9322C227.886 26.9424 227.91 26.9594 227.934 26.9831C227.957 27.0035 227.983 27.0307 228.01 27.0646L232.238 32.5577C232.232 32.4694 232.225 32.3846 232.218 32.3031C232.214 32.2183 232.213 32.1385 232.213 32.0639V26.8966H233.08Z" fill="white"/>
<path d="M240.743 31.4835L239.596 28.5155C239.562 28.4273 239.526 28.3254 239.489 28.2101C239.451 28.0913 239.415 27.9657 239.382 27.8333C239.31 28.1082 239.237 28.3373 239.162 28.5206L238.015 31.4835H240.743ZM242.804 34.1919H242.039C241.95 34.1919 241.879 34.1698 241.825 34.1257C241.77 34.0816 241.729 34.0256 241.702 33.9577L241.019 32.1962H237.739L237.056 33.9577C237.035 34.0188 236.996 34.0731 236.938 34.1206C236.88 34.1681 236.809 34.1919 236.724 34.1919H235.959L238.882 26.8966H239.881L242.804 34.1919Z" fill="white"/>
<path d="M248.09 30.6791C248.373 30.6791 248.621 30.6418 248.835 30.5671C249.052 30.4925 249.235 30.389 249.381 30.2566C249.53 30.1209 249.643 29.9596 249.717 29.773C249.792 29.5863 249.83 29.381 249.83 29.157C249.83 28.692 249.685 28.3289 249.396 28.0675C249.11 27.8062 248.675 27.6755 248.09 27.6755H246.917V30.6791H248.09ZM248.09 26.8966C248.553 26.8966 248.954 26.9509 249.294 27.0595C249.637 27.1647 249.921 27.3158 250.146 27.5126C250.37 27.7094 250.537 27.947 250.646 28.2253C250.758 28.5036 250.814 28.8142 250.814 29.157C250.814 29.4964 250.755 29.8069 250.635 30.0886C250.516 30.3703 250.341 30.613 250.11 30.8166C249.882 31.0202 249.598 31.1798 249.258 31.2951C248.922 31.4071 248.532 31.4631 248.09 31.4631H246.917V34.1919H245.933V26.8966H248.09Z" fill="white"/>
<path d="M258.221 28.0369C258.191 28.0878 258.157 28.1268 258.119 28.154C258.085 28.1777 258.043 28.1896 257.992 28.1896C257.934 28.1896 257.866 28.1608 257.788 28.1031C257.71 28.0454 257.611 27.9826 257.492 27.9147C257.376 27.8434 257.235 27.779 257.069 27.7213C256.905 27.6635 256.706 27.6347 256.472 27.6347C256.251 27.6347 256.055 27.6653 255.885 27.7263C255.719 27.784 255.578 27.8638 255.462 27.9656C255.35 28.0674 255.265 28.1879 255.207 28.3271C255.149 28.4628 255.12 28.6105 255.12 28.77C255.12 28.9736 255.17 29.1433 255.268 29.2791C255.37 29.4114 255.503 29.5251 255.666 29.6202C255.833 29.7152 256.02 29.7983 256.227 29.8696C256.438 29.9375 256.652 30.0088 256.87 30.0834C257.091 30.1581 257.305 30.243 257.512 30.338C257.723 30.4296 257.91 30.5467 258.073 30.6892C258.24 30.8318 258.373 31.0066 258.471 31.2136C258.573 31.4206 258.624 31.6752 258.624 31.9772C258.624 32.2963 258.57 32.5966 258.461 32.8783C258.352 33.1566 258.192 33.3993 257.982 33.6063C257.774 33.8134 257.517 33.9763 257.211 34.0951C256.909 34.2139 256.564 34.2732 256.176 34.2732C255.7 34.2732 255.268 34.1884 254.88 34.0187C254.493 33.8456 254.161 33.6131 253.886 33.3212L254.171 32.8529C254.199 32.8155 254.231 32.785 254.268 32.7612C254.309 32.7341 254.353 32.7205 254.401 32.7205C254.445 32.7205 254.495 32.7392 254.549 32.7765C254.607 32.8105 254.671 32.8546 254.743 32.9089C254.814 32.9632 254.896 33.0226 254.987 33.0871C255.079 33.1515 255.183 33.2109 255.299 33.2652C255.418 33.3195 255.552 33.3654 255.702 33.4027C255.851 33.4366 256.02 33.4536 256.207 33.4536C256.441 33.4536 256.65 33.4214 256.834 33.3569C257.018 33.2924 257.172 33.2024 257.298 33.0871C257.427 32.9683 257.526 32.8274 257.594 32.6645C257.662 32.5016 257.696 32.32 257.696 32.1198C257.696 31.8992 257.645 31.7193 257.543 31.5802C257.444 31.4376 257.313 31.3188 257.15 31.2238C256.987 31.1288 256.8 31.049 256.589 30.9845C256.378 30.9166 256.164 30.8488 255.946 30.7809C255.729 30.7096 255.515 30.6282 255.304 30.5365C255.093 30.4449 254.906 30.3261 254.743 30.1802C254.579 30.0342 254.447 29.8526 254.345 29.6354C254.246 29.4148 254.197 29.1433 254.197 28.8209C254.197 28.563 254.246 28.3135 254.345 28.0725C254.447 27.8315 254.593 27.6177 254.783 27.4311C254.977 27.2444 255.214 27.0951 255.492 26.9831C255.775 26.8711 256.098 26.8151 256.462 26.8151C256.87 26.8151 257.24 26.8795 257.574 27.0085C257.91 27.1375 258.206 27.3242 258.461 27.5685L258.221 28.0369Z" fill="white"/>
<path d="M266.953 33.3875L266.948 34.1919H262.444V26.8966H266.948V27.701H263.434V30.1242H266.28V30.8981H263.434V33.3875H266.953Z" fill="white"/>
<path d="M199.955 26.7349L195.239 29.4575L195.806 30.4351L200.521 27.7125L199.955 26.7349Z" fill="white"/>
<path d="M200.295 33.7192L195.592 31.0212L195.025 32.0046L199.729 34.7026L200.295 33.7192Z" fill="white"/>
<path d="M201.381 33.0839L201.383 27.6477L202.515 27.6482L202.513 33.0844L201.381 33.0839Z" fill="white"/>
<path fill-rule="evenodd" clip-rule="evenodd" d="M203.072 28.0467C204.155 27.4163 204.526 26.0294 203.902 24.9488C203.277 23.8682 201.893 23.5032 200.81 24.1335C199.727 24.7637 199.355 26.1507 199.98 27.2313C200.605 28.3119 201.989 28.677 203.072 28.0467ZM202.506 27.0683C203.048 26.7532 203.233 26.0597 202.921 25.5194C202.609 24.9791 201.917 24.7965 201.375 25.1117C200.834 25.4269 200.648 26.1203 200.96 26.6606C201.272 27.2009 201.965 27.3835 202.506 27.0683Z" fill="white"/>
<path fill-rule="evenodd" clip-rule="evenodd" d="M200.673 36.6932C201.756 37.3139 203.14 36.9366 203.766 35.8504C204.391 34.7643 204.021 33.3806 202.939 32.7599C201.856 32.1392 200.472 32.5166 199.846 33.6027C199.221 34.6889 199.591 36.0725 200.673 36.6932ZM201.24 35.71C201.781 36.0203 202.473 35.8316 202.786 35.2886C203.099 34.7455 202.914 34.0537 202.372 33.7433C201.831 33.4329 201.139 33.6216 200.826 34.1646C200.513 34.7078 200.699 35.3996 201.24 35.71Z" fill="white"/>
<path fill-rule="evenodd" clip-rule="evenodd" d="M195.229 32.5958C196.312 31.9654 196.683 30.5784 196.059 29.4979C195.434 28.4173 194.05 28.0523 192.967 28.6825C191.884 29.3128 191.513 30.6998 192.137 31.7803C192.762 32.8609 194.146 33.226 195.229 32.5958ZM194.663 31.6174C195.205 31.3023 195.391 30.6088 195.078 30.0685C194.766 29.5282 194.074 29.3456 193.532 29.6608C192.991 29.976 192.805 30.6694 193.117 31.2097C193.43 31.75 194.122 31.9326 194.663 31.6174Z" fill="white"/>
</svg>
