<svg width="87" height="115" viewBox="0 0 87 115" fill="none" xmlns="http://www.w3.org/2000/svg">
<path d="M54.8547 67.3076C54.8547 69.1418 56.3414 70.6342 58.1665 70.6342C59.9917 70.6342 61.4768 69.1418 61.4768 67.3076C61.4768 65.4719 59.9917 63.9795 58.1665 63.9795C56.3414 63.9795 54.8547 65.4719 54.8547 67.3076ZM59.1628 67.3076C59.1628 67.8601 58.7155 68.3096 58.1657 68.3096C57.6144 68.3096 57.1672 67.8601 57.1672 67.3076C57.1672 66.7536 57.6144 66.3041 58.1657 66.3041C58.7155 66.3041 59.1628 66.7536 59.1628 67.3076Z" fill="#DDDDDF"/>
<path d="M51.1642 26.21H41.1564V28.5346H51.1642V26.21Z" fill="#DDDDDF"/>
<path d="M38.0915 26.21H21.1694V28.5346H38.0915V26.21Z" fill="#DDDDDF"/>
<path d="M38.0914 30.8574H27.277V33.1821H38.0914V30.8574Z" fill="#DDDDDF"/>
<path d="M47.9928 30.8584H41.1564V33.1831H47.9928V30.8584Z" fill="#DDDDDF"/>
<path d="M24.2291 30.8584H21.1694V33.1831H24.2291V30.8584Z" fill="#DDDDDF"/>
<path d="M44.2622 35.5078H38.072V37.8325H44.2622V35.5078Z" fill="#DDDDDF"/>
<path d="M35.0049 35.5078H21.1694V37.8325H35.0049V35.5078Z" fill="#DDDDDF"/>
<path d="M30.3827 40.1572H21.1937V42.4819H30.3827V40.1572Z" fill="#DDDDDF"/>
<path d="M43.4204 40.1582H33.4457V42.4829H43.4204V40.1582Z" fill="#DDDDDF"/>
<path d="M31.195 44.8057H21.1694V47.1303H31.195V44.8057Z" fill="#DDDDDF"/>
<path d="M21.0703 49.4664L21.075 51.791L28.0501 51.777L28.0455 49.4523L21.0703 49.4664Z" fill="#DDDDDF"/>
<path d="M49.7006 14.5859H24.2327V16.9106H49.7006V14.5859Z" fill="#DDDDDF"/>
<path d="M45.0575 19.2354H28.8193V21.56H45.0575V19.2354Z" fill="#DDDDDF"/>
<path d="M68.4264 71.1532H65.0606V67.0563C73.3968 63.4229 79.25 55.0836 79.25 45.3851C79.25 37.2287 75.0569 29.6991 68.2336 25.3892L70.6856 21.1234L72.6827 22.2819L73.8393 20.2687L71.8423 19.1095L61.4435 13.0763L59.4325 11.9101L58.2759 13.9232L60.2861 15.0894L58.1201 18.8585V6.06354L17.2514 6V36.3135H8V53.9724C8 56.6318 9.8876 58.8549 12.3867 59.3602V59.4694L49.7169 59.519L46.2694 67.0486L47.4307 67.4887C48.6536 67.9536 49.9066 68.3078 51.1804 68.5588V71.1532H37.301V82H68.4264C71.4251 82 73.8648 79.5661 73.8648 76.5758C73.8648 73.5855 71.4251 71.1532 68.4264 71.1532ZM17.2514 53.9724C17.2514 55.7205 15.8357 57.1432 14.0954 57.1432H13.4685C11.7289 57.1432 10.3132 55.7205 10.3132 53.9724V38.639H17.2514V53.9724ZM66.164 45.3851C66.164 50.3374 62.7227 54.4885 58.1201 55.5733V42.9938L61.6802 36.7971C64.4885 38.7606 66.164 41.9307 66.164 45.3851ZM53.5877 41.8284L51.1388 46.0903L48.0367 44.2902L50.4857 40.0275L53.5877 41.8284ZM68.6824 19.9611L56.6435 40.9171L50.249 37.2077L62.2894 16.2517L62.9294 16.6229L68.6824 19.9611ZM18.5538 57.1525C19.1907 56.2552 19.5654 55.158 19.5654 53.9724V8.32776L55.8077 8.3851V22.8848L47.0891 38.0586L48.4824 38.8668L44.8769 45.1418L51.9854 49.2657L55.591 42.9907L55.8077 43.1162V55.8569C55.7853 55.8569 55.7637 55.86 55.7413 55.86C55.0828 55.86 54.4313 55.7903 53.7897 55.6678L55.1723 53.2626L39.2457 44.0221C38.9072 43.8253 38.5216 43.7214 38.1299 43.7214C37.3318 43.7214 36.5893 44.1515 36.1906 44.8435L35.654 45.7772C35.0379 46.8504 35.4057 48.2274 36.4736 48.8481L50.7972 57.1579L50.781 57.1959L18.5538 57.1525ZM51.5528 54.9123L37.6958 46.8729L38.1554 46.074L52.0124 54.1134L51.5528 54.9123ZM53.0094 57.8879C53.9039 58.0847 54.8184 58.1847 55.7413 58.1847C62.7636 58.1847 68.478 52.4428 68.478 45.3851C68.478 41.3286 66.6012 37.5789 63.412 35.1644L66.5218 28.3694L67.0847 27.3907C73.1932 31.2845 76.9368 38.0593 76.9368 45.3843C76.9368 53.8941 71.9371 61.2408 64.7414 64.6488C63.9009 62.0637 61.4867 60.1885 58.6437 60.1885H57.5989C54.2177 60.1885 51.4464 62.8371 51.2059 66.1799C50.6067 66.0498 50.0115 65.9049 49.4239 65.7197L53.0094 57.8879ZM62.7474 66.6534V75.0276H53.4944V66.6534C53.4944 64.3714 55.335 62.514 57.5981 62.514H58.6429C60.9068 62.5147 62.7474 64.3714 62.7474 66.6534ZM68.4264 79.6753H39.6142V73.4778H51.1804V77.3522H65.0598V73.4778H68.4256C70.1482 73.4778 71.5508 74.8672 71.5508 76.5773C71.5516 78.286 70.149 79.6753 68.4264 79.6753Z" fill="#DDDDDF"/>
<path d="M25.8329 102.255L24.3419 98.356C24.2346 98.09 24.1273 97.754 24.0199 97.348C23.9686 97.5487 23.9149 97.7353 23.8589 97.908C23.8076 98.0807 23.7563 98.2347 23.7049 98.37L22.2209 102.255H25.8329ZM28.7799 106H27.6319C27.5013 106 27.3939 105.967 27.3099 105.902C27.2259 105.837 27.1653 105.753 27.1279 105.65L26.2389 103.319H21.8079L20.9189 105.65C20.8863 105.739 20.8256 105.82 20.7369 105.895C20.6483 105.965 20.5409 106 20.4149 106H19.2669L23.2709 95.948H24.7759L28.7799 106ZM36.7825 103.844C36.8665 103.844 36.9388 103.877 36.9995 103.942L37.5875 104.586C37.1768 105.071 36.6751 105.447 36.0825 105.713C35.4945 105.979 34.7851 106.112 33.9545 106.112C33.2265 106.112 32.5661 105.986 31.9735 105.734C31.3855 105.482 30.8815 105.13 30.4615 104.677C30.0461 104.224 29.7241 103.683 29.4955 103.053C29.2668 102.423 29.1525 101.73 29.1525 100.974C29.1525 100.218 29.2715 99.525 29.5095 98.895C29.7521 98.265 30.0905 97.7237 30.5245 97.271C30.9585 96.8183 31.4765 96.466 32.0785 96.214C32.6851 95.962 33.3548 95.836 34.0875 95.836C34.8015 95.836 35.4361 95.9527 35.9915 96.186C36.5468 96.4193 37.0298 96.7297 37.4405 97.117L36.9505 97.81C36.9178 97.8613 36.8758 97.9033 36.8245 97.936C36.7778 97.9687 36.7148 97.985 36.6355 97.985C36.5468 97.985 36.4418 97.9407 36.3205 97.852C36.2038 97.7633 36.0475 97.6653 35.8515 97.558C35.6601 97.446 35.4221 97.3457 35.1375 97.257C34.8528 97.1683 34.4981 97.124 34.0735 97.124C33.5741 97.124 33.1168 97.2127 32.7015 97.39C32.2861 97.5627 31.9268 97.8147 31.6235 98.146C31.3248 98.4727 31.0915 98.8763 30.9235 99.357C30.7601 99.833 30.6785 100.372 30.6785 100.974C30.6785 101.585 30.7648 102.129 30.9375 102.605C31.1101 103.081 31.3481 103.485 31.6515 103.816C31.9548 104.147 32.3118 104.399 32.7225 104.572C33.1331 104.745 33.5765 104.831 34.0525 104.831C34.3418 104.831 34.6008 104.815 34.8295 104.782C35.0628 104.745 35.2751 104.691 35.4665 104.621C35.6625 104.551 35.8468 104.462 36.0195 104.355C36.1921 104.243 36.3625 104.11 36.5305 103.956C36.5678 103.923 36.6075 103.898 36.6495 103.879C36.6915 103.856 36.7358 103.844 36.7825 103.844ZM45.9387 97.194H42.7467V106H41.2627V97.194H38.0567V95.948H45.9387V97.194ZM48.8825 106H47.3845V95.948H48.8825V106ZM59.651 95.948L55.563 106H54.226L50.138 95.948H51.328C51.4587 95.948 51.5637 95.9807 51.643 96.046C51.727 96.1113 51.79 96.1953 51.832 96.298L54.548 103.13C54.6134 103.298 54.6764 103.482 54.737 103.683C54.8024 103.884 54.8607 104.094 54.912 104.313C54.9587 104.094 55.01 103.884 55.066 103.683C55.122 103.482 55.1827 103.298 55.248 103.13L57.957 96.298C57.9897 96.2047 58.048 96.123 58.132 96.053C58.2207 95.983 58.328 95.948 58.454 95.948H59.651ZM67.143 104.789L67.136 106H60.906V95.948H67.136V97.159H62.404V100.344H66.212V101.513H62.404V104.789H67.143Z" fill="#898989"/>
<rect x="9" width="16" height="16" rx="6" fill="#5171C0"/>
<path d="M20.7333 5.33353L18.6 7.46686H20.2C20.2 8.31556 19.8628 9.12949 19.2627 9.7296C18.6626 10.3297 17.8487 10.6669 17 10.6669C16.4666 10.6669 15.9493 10.5335 15.5066 10.2935L14.728 11.0722C15.384 11.4882 16.1626 11.7335 17 11.7335C18.1316 11.7335 19.2168 11.284 20.017 10.4839C20.8171 9.6837 21.2666 8.59845 21.2666 7.46686H22.8666L20.7333 5.33353ZM13.8 7.46686C13.8 6.61817 14.1371 5.80424 14.7372 5.20412C15.3373 4.604 16.1513 4.26686 17 4.26686C17.5333 4.26686 18.0506 4.4002 18.4933 4.6402L19.272 3.86153C18.616 3.44553 17.8373 3.2002 17 3.2002C15.8684 3.2002 14.7831 3.64972 13.983 4.44987C13.1828 5.25003 12.7333 6.33527 12.7333 7.46686H11.1333L13.2666 9.6002L15.4 7.46686" fill="white"/>
</svg>
