<svg width="87" height="115" viewBox="0 0 87 115" fill="none" xmlns="http://www.w3.org/2000/svg">
<path d="M54.8545 69.3071C54.8545 71.1413 56.3411 72.6337 58.1663 72.6337C59.9914 72.6337 61.4765 71.1413 61.4765 69.3071C61.4765 67.4714 59.9914 65.979 58.1663 65.979C56.3411 65.979 54.8545 67.4714 54.8545 69.3071ZM59.1625 69.3071C59.1625 69.8596 58.7153 70.3091 58.1655 70.3091C57.6142 70.3091 57.167 69.8596 57.167 69.3071C57.167 68.7531 57.6142 68.3037 58.1655 68.3037C58.7153 68.3037 59.1625 68.7531 59.1625 69.3071Z" fill="white"/>
<path d="M51.1641 28.21H41.1562V30.5346H51.1641V28.21Z" fill="white"/>
<path d="M38.092 28.21H21.1699V30.5346H38.092V28.21Z" fill="white"/>
<path d="M38.0917 32.8574H27.2773V35.1821H38.0917V32.8574Z" fill="white"/>
<path d="M47.9926 32.8584H41.1562V35.1831H47.9926V32.8584Z" fill="white"/>
<path d="M24.2296 32.8584H21.1699V35.1831H24.2296V32.8584Z" fill="white"/>
<path d="M44.2625 37.5078H38.0723V39.8325H44.2625V37.5078Z" fill="white"/>
<path d="M35.0054 37.5078H21.1699V39.8325H35.0054V37.5078Z" fill="white"/>
<path d="M30.3823 42.1572H21.1934V44.4819H30.3823V42.1572Z" fill="white"/>
<path d="M43.421 42.1577H33.4463V44.4824H43.421V42.1577Z" fill="white"/>
<path d="M31.1955 46.8057H21.1699V49.1303H31.1955V46.8057Z" fill="white"/>
<path d="M21.0706 51.4668L21.0752 53.7915L28.0504 53.7775L28.0457 51.4528L21.0706 51.4668Z" fill="white"/>
<path d="M49.7004 16.5854H24.2324V18.9101H49.7004V16.5854Z" fill="white"/>
<path d="M45.0565 21.2349H28.8184V23.5595H45.0565V21.2349Z" fill="white"/>
<path d="M68.4264 73.1532H65.0606V69.0563C73.3967 65.4229 79.25 57.0836 79.25 47.3851C79.25 39.2287 75.0569 31.6991 68.2336 27.3892L70.6856 23.1234L72.6827 24.2819L73.8393 22.2687L71.8423 21.1095L61.4435 15.0763L59.4325 13.9101L58.2759 15.9232L60.2861 17.0894L58.1201 20.8585V8.06354L17.2514 8V38.3135H8V55.9724C8 58.6318 9.8876 60.8549 12.3867 61.3602V61.4694L49.7169 61.519L46.2694 69.0486L47.4307 69.4887C48.6536 69.9536 49.9066 70.3078 51.1804 70.5588V73.1532H37.301V84H68.4264C71.4251 84 73.8648 81.5661 73.8648 78.5758C73.8648 75.5855 71.4251 73.1532 68.4264 73.1532ZM17.2514 55.9724C17.2514 57.7205 15.8357 59.1432 14.0954 59.1432H13.4685C11.7289 59.1432 10.3132 57.7205 10.3132 55.9724V40.639H17.2514V55.9724ZM66.164 47.3851C66.164 52.3374 62.7227 56.4885 58.1201 57.5733V44.9938L61.6802 38.7971C64.4885 40.7606 66.164 43.9307 66.164 47.3851ZM53.5877 43.8284L51.1388 48.0903L48.0367 46.2902L50.4857 42.0276L53.5877 43.8284ZM68.6824 21.9611L56.6435 42.9171L50.249 39.2077L62.2894 18.2517L62.9294 18.6229L68.6824 21.9611ZM18.5538 59.1525C19.1907 58.2552 19.5654 57.158 19.5654 55.9724V10.3278L55.8077 10.3851V24.8848L47.0891 40.0586L48.4824 40.8668L44.8768 47.1418L51.9854 51.2657L55.591 44.9907L55.8077 45.1162V57.8569C55.7853 57.8569 55.7637 57.86 55.7413 57.86C55.0828 57.86 54.4313 57.7903 53.7897 57.6678L55.1723 55.2626L39.2457 46.0221C38.9072 45.8253 38.5216 45.7214 38.1299 45.7214C37.3318 45.7214 36.5893 46.1515 36.1906 46.8435L35.654 47.7772C35.0379 48.8504 35.4057 50.2274 36.4736 50.8481L50.7972 59.1579L50.781 59.1959L18.5538 59.1525ZM51.5528 56.9123L37.6958 48.8729L38.1554 48.074L52.0124 56.1134L51.5528 56.9123ZM53.0094 59.8879C53.9039 60.0847 54.8184 60.1847 55.7413 60.1847C62.7636 60.1847 68.478 54.4428 68.478 47.3851C68.478 43.3286 66.6012 39.5789 63.412 37.1644L66.5218 30.3694L67.0847 29.3907C73.1932 33.2845 76.9368 40.0593 76.9368 47.3843C76.9368 55.8941 71.9371 63.2408 64.7414 66.6488C63.9009 64.0637 61.4867 62.1885 58.6437 62.1885H57.5989C54.2177 62.1885 51.4464 64.8371 51.2059 68.1799C50.6067 68.0498 50.0115 67.9049 49.4239 67.7197L53.0094 59.8879ZM62.7474 68.6534V77.0276H53.4944V68.6534C53.4944 66.3714 55.335 64.514 57.5981 64.514H58.6429C60.9068 64.5147 62.7474 66.3714 62.7474 68.6534ZM68.4264 81.6753H39.6142V75.4778H51.1804V79.3522H65.0598V75.4778H68.4256C70.1482 75.4778 71.5508 76.8672 71.5508 78.5774C71.5516 80.286 70.149 81.6753 68.4264 81.6753Z" fill="white"/>
<path d="M25.8329 102.255L24.3419 98.356C24.2346 98.09 24.1273 97.754 24.0199 97.348C23.9686 97.5487 23.9149 97.7353 23.8589 97.908C23.8076 98.0807 23.7563 98.2347 23.7049 98.37L22.2209 102.255H25.8329ZM28.7799 106H27.6319C27.5013 106 27.3939 105.967 27.3099 105.902C27.2259 105.837 27.1653 105.753 27.1279 105.65L26.2389 103.319H21.8079L20.9189 105.65C20.8863 105.739 20.8256 105.82 20.7369 105.895C20.6483 105.965 20.5409 106 20.4149 106H19.2669L23.2709 95.948H24.7759L28.7799 106ZM36.7825 103.844C36.8665 103.844 36.9388 103.877 36.9995 103.942L37.5875 104.586C37.1768 105.071 36.6751 105.447 36.0825 105.713C35.4945 105.979 34.7851 106.112 33.9545 106.112C33.2265 106.112 32.5661 105.986 31.9735 105.734C31.3855 105.482 30.8815 105.13 30.4615 104.677C30.0461 104.224 29.7241 103.683 29.4955 103.053C29.2668 102.423 29.1525 101.73 29.1525 100.974C29.1525 100.218 29.2715 99.525 29.5095 98.895C29.7521 98.265 30.0905 97.7237 30.5245 97.271C30.9585 96.8183 31.4765 96.466 32.0785 96.214C32.6851 95.962 33.3548 95.836 34.0875 95.836C34.8015 95.836 35.4361 95.9527 35.9915 96.186C36.5468 96.4193 37.0298 96.7297 37.4405 97.117L36.9505 97.81C36.9178 97.8613 36.8758 97.9033 36.8245 97.936C36.7778 97.9687 36.7148 97.985 36.6355 97.985C36.5468 97.985 36.4418 97.9407 36.3205 97.852C36.2038 97.7633 36.0475 97.6653 35.8515 97.558C35.6601 97.446 35.4221 97.3457 35.1375 97.257C34.8528 97.1683 34.4981 97.124 34.0735 97.124C33.5741 97.124 33.1168 97.2127 32.7015 97.39C32.2861 97.5627 31.9268 97.8147 31.6235 98.146C31.3248 98.4727 31.0915 98.8763 30.9235 99.357C30.7601 99.833 30.6785 100.372 30.6785 100.974C30.6785 101.585 30.7648 102.129 30.9375 102.605C31.1101 103.081 31.3481 103.485 31.6515 103.816C31.9548 104.147 32.3118 104.399 32.7225 104.572C33.1331 104.745 33.5765 104.831 34.0525 104.831C34.3418 104.831 34.6008 104.815 34.8295 104.782C35.0628 104.745 35.2751 104.691 35.4665 104.621C35.6625 104.551 35.8468 104.462 36.0195 104.355C36.1921 104.243 36.3625 104.11 36.5305 103.956C36.5678 103.923 36.6075 103.898 36.6495 103.879C36.6915 103.856 36.7358 103.844 36.7825 103.844ZM45.9387 97.194H42.7467V106H41.2627V97.194H38.0567V95.948H45.9387V97.194ZM48.8825 106H47.3845V95.948H48.8825V106ZM59.651 95.948L55.563 106H54.226L50.138 95.948H51.328C51.4587 95.948 51.5637 95.9807 51.643 96.046C51.727 96.1113 51.79 96.1953 51.832 96.298L54.548 103.13C54.6134 103.298 54.6764 103.482 54.737 103.683C54.8024 103.884 54.8607 104.094 54.912 104.313C54.9587 104.094 55.01 103.884 55.066 103.683C55.122 103.482 55.1827 103.298 55.248 103.13L57.957 96.298C57.9897 96.2047 58.048 96.123 58.132 96.053C58.2207 95.983 58.328 95.948 58.454 95.948H59.651ZM67.143 104.789L67.136 106H60.906V95.948H67.136V97.159H62.404V100.344H66.212V101.513H62.404V104.789H67.143Z" fill="white"/>
<rect x="5" width="16" height="16" rx="6" fill="white"/>
<path d="M16.7338 5.33353L14.6005 7.46686H16.2005C16.2005 8.31556 15.8633 9.12949 15.2632 9.7296C14.6631 10.3297 13.8491 10.6669 13.0005 10.6669C12.4671 10.6669 11.9498 10.5335 11.5071 10.2935L10.7285 11.0722C11.3845 11.4882 12.1631 11.7335 13.0005 11.7335C14.132 11.7335 15.2173 11.284 16.0174 10.4839C16.8176 9.6837 17.2671 8.59845 17.2671 7.46686H18.8671L16.7338 5.33353ZM9.80046 7.46686C9.80046 6.61817 10.1376 5.80424 10.7377 5.20412C11.3378 4.604 12.1518 4.26686 13.0005 4.26686C13.5338 4.26686 14.0511 4.4002 14.4938 4.6402L15.2725 3.86153C14.6165 3.44553 13.8378 3.2002 13.0005 3.2002C11.8689 3.2002 10.7836 3.64972 9.98347 4.44987C9.18331 5.25003 8.73379 6.33527 8.73379 7.46686H7.13379L9.26712 9.6002L11.4005 7.46686" fill="#1C76AF"/>
</svg>
