<svg width="1152" height="315" viewBox="0 0 1152 315" fill="none" xmlns="http://www.w3.org/2000/svg">
<g opacity="0.8">
<path fill-rule="evenodd" clip-rule="evenodd" d="M81.3124 10.5845C80.9402 11.5183 80.4156 12.3294 79.7839 12.9983L99.2211 35.6614C101.851 32.0568 106.474 30.6648 110.545 32.5786C115.406 34.8633 117.64 40.9944 115.536 46.2728C115.021 47.5645 114.294 48.6855 113.419 49.6085L133.507 65.5805C134.771 62.984 137.683 61.8413 140.207 63.0277C142.034 63.8864 143.181 65.7411 143.342 67.7535L170.869 62.1373C170.73 61.1237 170.841 60.0568 171.243 59.047C172.391 56.1679 175.471 54.8442 178.122 56.0904C180.773 57.3367 181.992 60.6809 180.844 63.56C180.739 63.8238 180.618 64.0745 180.482 64.3113L204.292 81.0181C205.219 79.0152 207.436 78.1229 209.355 79.0247C211.343 79.9593 212.257 82.4675 211.397 84.6268C210.536 86.7862 208.226 87.7789 206.238 86.8443C204.481 86.0184 203.563 83.9642 203.966 82.0075L179.912 65.1296C178.92 66.3125 177.509 66.9839 176.046 66.9854L175.045 74.2854C175.714 74.789 175.985 75.7505 175.65 76.5927C175.267 77.5524 174.241 77.9936 173.357 77.5782C172.473 77.1628 172.067 76.048 172.449 75.0883C172.739 74.3624 173.396 73.9331 174.082 73.9468L175.051 66.882C174.686 66.8049 174.322 66.6839 173.966 66.5166C172.55 65.8507 171.542 64.586 171.086 63.1133L143.339 68.7743C143.288 69.3536 143.154 69.9343 142.93 70.4972C142.316 72.0381 141.148 73.1335 139.789 73.6278L153.576 104.683C155.014 103.916 156.742 103.812 158.328 104.558C158.933 104.842 159.47 105.228 159.928 105.688L167.245 95.3104C165.528 94.2496 164.786 91.9315 165.589 89.917C166.449 87.7577 168.759 86.7649 170.747 87.6996C172.736 88.6342 173.65 91.1424 172.789 93.3017C172.006 95.2672 170.022 96.2661 168.173 95.7249L160.589 106.48C161.785 108.192 162.12 110.537 161.278 112.65C161.031 113.267 160.703 113.819 160.313 114.295L179 137.955C180.101 136.694 181.851 136.247 183.405 136.978C185.393 137.912 186.307 140.421 185.447 142.58C185.336 142.858 185.201 143.117 185.046 143.355L192.756 148.076C193.618 145.918 195.926 144.927 197.914 145.861C198.182 145.987 198.43 146.141 198.657 146.32L208.011 138.514C207.689 137.795 207.647 136.933 207.963 136.142C208.536 134.702 210.076 134.04 211.402 134.663C212.727 135.287 213.337 136.959 212.763 138.398C212.189 139.838 210.65 140.5 209.324 139.877C209.039 139.743 208.788 139.561 208.574 139.343L199.361 147.031C200.284 148.227 200.566 149.933 199.956 151.463C199.675 152.168 199.24 152.748 198.712 153.178L221.167 192.938C221.828 192.592 222.617 192.549 223.343 192.89C224.668 193.513 225.278 195.185 224.704 196.624C224.13 198.064 222.59 198.726 221.265 198.103C221.179 198.062 221.096 198.017 221.016 197.968C220.832 197.993 220.642 197.986 220.45 197.943C219.696 197.774 219.157 197.1 219.07 196.313L204.097 198.25C204.162 198.841 204.142 199.453 204.025 200.068C203.442 203.141 200.676 205.119 197.846 204.486C196.283 204.136 195.027 203.062 194.314 201.652L185.871 206.677C186.67 208.283 186.972 210.193 186.607 212.121C186.487 212.75 186.303 213.347 186.063 213.905L215.366 240.996C216.113 240.301 217.009 239.806 217.978 239.564L216.958 232.871C216.25 232.506 215.836 231.651 216.001 230.78C216.196 229.756 217.118 229.096 218.061 229.307C219.004 229.518 219.611 230.52 219.417 231.544C219.267 232.334 218.685 232.906 217.994 233.031L218.966 239.41C219.492 239.375 220.03 239.414 220.571 239.535C220.923 239.614 221.261 239.724 221.584 239.862L245.974 206.211C245.954 206.183 245.934 206.154 245.914 206.126C244.163 203.631 244.606 200.066 246.904 198.165C247.092 198.009 247.286 197.87 247.486 197.746L243.734 187.686C242.805 187.464 242.21 186.471 242.402 185.455C242.597 184.431 243.519 183.772 244.462 183.983C245.405 184.194 246.012 185.195 245.818 186.219C245.696 186.863 245.286 187.362 244.765 187.592L248.387 197.304C249.805 196.78 251.365 196.946 252.658 197.742L256.808 191.923C256.432 191.123 256.624 190.121 257.305 189.557C258.071 188.923 259.165 189.084 259.749 189.916C260.332 190.747 260.185 191.936 259.419 192.569C258.839 193.049 258.072 193.074 257.48 192.698L253.453 198.345C253.737 198.606 254 198.905 254.235 199.24C255.17 200.573 255.479 202.211 255.214 203.738L281.965 213.54C282.27 213.062 282.648 212.627 283.097 212.255C284.327 211.237 285.839 210.902 287.247 211.193L289.211 176.783C287.611 176.688 286.057 175.861 285.01 174.368C284.61 173.798 284.316 173.177 284.124 172.532L273.067 177.696C274.087 179.534 273.69 181.95 272.082 183.28C270.359 184.707 267.897 184.346 266.584 182.474C265.271 180.603 265.603 177.929 267.326 176.503C268.906 175.196 271.105 175.39 272.472 176.872L283.909 171.531C283.622 169.39 284.385 167.148 286.082 165.743C286.566 165.343 287.09 165.04 287.634 164.832L281.993 134.269C280.472 134.766 278.761 134.223 277.742 132.77C276.428 130.899 276.761 128.226 278.484 126.799C278.696 126.625 278.918 126.476 279.148 126.355L274.554 118.149C272.832 119.543 270.394 119.175 269.089 117.315C268.906 117.055 268.755 116.779 268.636 116.494L256.973 118.331C256.937 119.139 256.585 119.925 255.946 120.454C254.797 121.405 253.156 121.164 252.281 119.917C251.405 118.669 251.627 116.887 252.776 115.936C253.925 114.985 255.566 115.226 256.441 116.474C256.629 116.741 256.767 117.034 256.855 117.338L268.354 115.526C268.087 113.992 268.61 112.355 269.831 111.344C270.387 110.885 271.019 110.611 271.665 110.513L269.99 63.901C269.266 63.8451 268.568 63.4648 268.094 62.7893C267.219 61.5417 267.44 59.7595 268.589 58.8088C269.738 57.858 271.379 58.0987 272.255 59.3464C273.13 60.594 272.909 62.3762 271.76 63.3269C271.519 63.5258 271.257 63.6726 270.986 63.7689L272.665 110.501C273.059 110.552 273.446 110.666 273.811 110.843L281.658 96.1273C281.568 96.0316 281.483 95.9277 281.405 95.8158C280.529 94.5681 280.751 92.7859 281.9 91.8352C283.048 90.8844 284.69 91.1251 285.565 92.3728C286.441 93.6204 286.219 95.4026 285.07 96.3533C284.3 96.9906 283.309 97.0926 282.475 96.7148L274.648 111.395C274.898 111.61 275.127 111.862 275.33 112.151C276.444 113.738 276.373 115.903 275.274 117.394L280.098 126.008C281.52 125.703 283.044 126.269 283.983 127.606C285.296 129.477 284.963 132.151 283.24 133.577C283.137 133.662 283.032 133.74 282.925 133.812L288.601 164.564C289.81 164.35 291.058 164.567 292.147 165.186L300.716 154.452C300.563 154.316 300.423 154.158 300.298 153.98C299.422 152.732 299.644 150.95 300.793 149.999C301.227 149.64 301.733 149.45 302.24 149.422L300.47 134.285C299.953 134.277 299.445 134.02 299.107 133.54C298.524 132.708 298.671 131.52 299.437 130.886C300.203 130.252 301.297 130.412 301.881 131.244C302.465 132.076 302.317 133.264 301.551 133.898C301.515 133.928 301.478 133.956 301.441 133.982L303.266 149.587C303.724 149.766 304.141 150.085 304.458 150.537C305.334 151.785 305.112 153.567 303.963 154.518C303.258 155.101 302.368 155.236 301.582 154.964L292.968 165.755C293.357 166.079 293.713 166.464 294.024 166.908C295.291 168.713 295.497 171.033 294.755 172.99L305.443 181.935C307.297 180.856 309.65 181.366 310.966 183.241C312.425 185.321 312.056 188.291 310.141 189.875C308.226 191.46 305.491 191.059 304.032 188.979C302.633 186.987 302.914 184.176 304.625 182.551L294.313 173.92C293.962 174.525 293.507 175.074 292.952 175.533C292.124 176.218 291.178 176.617 290.215 176.746L288.23 211.507C289.073 211.876 289.838 212.488 290.428 213.33C292.064 215.661 291.785 218.926 289.867 220.896L300.376 245.933C303.749 245.35 307.302 246.749 309.518 249.906C310.194 250.87 310.692 251.92 311.017 253.01L323.256 252.17C323.506 250.885 324.166 249.687 325.203 248.829C327.176 247.196 329.874 247.32 331.707 248.967L346.434 235.313C344.93 232.809 344.958 229.641 346.345 227.202L339.154 222.187C338.808 222.993 338.282 223.723 337.585 224.299C335.287 226.201 332.005 225.719 330.254 223.224C328.503 220.729 328.946 217.164 331.244 215.263C333.542 213.361 336.824 213.843 338.575 216.338C339.585 217.777 339.865 219.572 339.48 221.199L346.894 226.369C347.229 225.928 347.616 225.521 348.053 225.159C351.117 222.624 355.493 223.265 357.828 226.593C357.974 226.8 358.108 227.014 358.231 227.232L385.483 215.366C384.918 213.188 385.59 210.76 387.348 209.305C389.646 207.404 392.928 207.885 394.679 210.38C395.45 211.478 395.795 212.783 395.745 214.062L404.724 218.844C405.798 218.35 407.083 218.685 407.823 219.739C408.698 220.986 408.477 222.769 407.328 223.719L407.303 223.74L406.853 233.284C407.42 233.575 407.936 234.004 408.357 234.563L432.976 224.905C432.889 223.668 433.364 222.409 434.34 221.601C435.872 220.334 438.06 220.655 439.227 222.318C440.395 223.982 440.099 226.358 438.567 227.626C437.035 228.893 434.847 228.572 433.68 226.909C433.459 226.594 433.291 226.254 433.173 225.9L408.878 235.431C409.259 236.251 409.403 237.154 409.322 238.032L420.759 249.859C422.084 249.474 423.552 249.964 424.435 251.223C425.603 252.886 425.307 255.263 423.775 256.53C422.244 257.798 420.055 257.477 418.888 255.814C417.721 254.15 418.016 251.774 419.548 250.506C419.574 250.485 419.599 250.464 419.625 250.444C419.641 250.432 419.657 250.42 419.673 250.408C419.697 250.39 419.721 250.372 419.745 250.355C419.766 250.34 419.787 250.325 419.808 250.31L409.072 239.207C408.795 240.021 408.309 240.762 407.626 241.327C406.675 242.114 405.522 242.411 404.423 242.256L395.65 258.917C395.871 259.816 395.588 260.811 394.865 261.41C393.907 262.202 392.54 262.002 391.81 260.962C391.081 259.922 391.265 258.437 392.223 257.645C393.101 256.918 394.324 257.027 395.084 257.852L403.437 241.988C402.7 241.685 402.03 241.161 401.517 240.431C400.058 238.352 400.427 235.381 402.342 233.797C403.387 232.932 404.676 232.659 405.869 232.927L406.278 224.241C405.322 224.457 404.294 224.081 403.662 223.182C402.873 222.057 402.975 220.499 403.844 219.506L395.612 215.121C395.344 216.36 394.694 217.51 393.689 218.341C391.391 220.243 388.109 219.762 386.358 217.266C386.145 216.962 385.964 216.642 385.815 216.311L358.665 228.131C359.874 231.107 359.199 234.671 356.882 236.875L363.477 251.561C364.848 251.421 366.245 251.871 367.332 252.861L375.45 245.455L375.439 245.44L375.426 245.423L375.414 245.406L375.401 245.388L375.397 245.382C374.521 244.134 374.743 242.352 375.892 241.401C377.041 240.451 378.682 240.691 379.557 241.939C380.433 243.187 380.211 244.969 379.062 245.92C378.204 246.63 377.07 246.675 376.187 246.132L368.004 253.597C368.024 253.625 368.045 253.652 368.065 253.68C368.088 253.711 368.11 253.742 368.133 253.774C368.866 254.82 369.215 256.053 369.203 257.274L380.427 261.471C381.559 260.707 383.061 260.99 383.885 262.164C384.177 262.58 384.347 263.056 384.401 263.541C384.763 264.042 384.884 264.729 384.666 265.37C384.559 265.683 384.384 265.947 384.166 266.149L396.595 288.843C397.195 288.764 397.82 288.836 398.425 289.079C400.457 289.896 401.494 292.348 400.741 294.554C400.641 294.848 400.514 295.123 400.364 295.377L421.144 316.682C422.234 315.771 423.591 315.274 424.989 315.303L420.626 271.943C419.87 272.16 419.048 272.135 418.26 271.818C416.228 271.001 415.191 268.55 415.944 266.343C416.697 264.137 418.954 263.011 420.986 263.828C421.619 264.083 422.156 264.497 422.571 265.012L431.793 257.741C431.463 257.246 431.359 256.587 431.569 255.971C431.904 254.99 432.907 254.49 433.81 254.853C434.713 255.216 435.174 256.306 434.839 257.286C434.505 258.267 433.501 258.768 432.598 258.404L432.575 258.394L423.105 265.861C423.596 266.89 423.702 268.131 423.302 269.303C422.971 270.272 422.351 271.032 421.587 271.511L426.005 315.418C426.336 315.486 426.665 315.585 426.991 315.717C427.509 315.925 427.985 316.201 428.414 316.533L432.349 311.68C431.824 311.178 431.609 310.357 431.867 309.601C432.201 308.621 433.205 308.12 434.108 308.483C435.011 308.847 435.471 309.936 435.137 310.917C434.847 311.766 434.056 312.255 433.264 312.135L429.152 317.206C429.876 317.98 430.407 318.937 430.703 319.979L468.758 313.848C468.825 313.226 468.961 312.603 469.171 311.989C469.8 310.143 470.988 308.698 472.449 307.794L467.736 298.677C466.445 299.463 464.856 299.652 463.358 299.05C460.649 297.96 459.267 294.691 460.271 291.75C460.471 291.161 460.753 290.63 461.096 290.165L449.338 279.913C448.881 280.531 448.095 280.793 447.373 280.502C446.47 280.139 446.009 279.05 446.343 278.069C446.678 277.088 447.681 276.588 448.584 276.951C449.345 277.258 449.792 278.08 449.714 278.918L461.758 289.421C463.154 288.116 465.144 287.652 466.993 288.396C467.74 288.697 468.386 289.163 468.909 289.743L475.62 282.589C475.162 282.082 474.987 281.314 475.23 280.604C475.564 279.624 476.567 279.123 477.47 279.487C478.373 279.85 478.834 280.939 478.5 281.92C478.194 282.816 477.33 283.311 476.495 283.113L469.516 290.552C470.422 292.017 470.688 293.916 470.081 295.697C469.754 296.653 469.216 297.457 468.545 298.069L473.331 307.329C474.986 306.599 476.887 306.512 478.694 307.239C480.213 307.85 481.437 308.944 482.274 310.302L509.441 289.89C509.073 288.931 509.026 287.825 509.384 286.774C510.137 284.567 512.394 283.441 514.426 284.259C516.458 285.076 517.494 287.527 516.742 289.734C515.989 291.94 513.732 293.066 511.7 292.249C510.956 291.949 510.346 291.431 509.908 290.787L482.75 311.192C483.632 313.112 483.809 315.409 483.068 317.581C482.934 317.974 482.775 318.349 482.593 318.704L546.183 365.205C546.719 364.843 547.31 364.579 547.928 364.427L542.965 348.741C542.012 349.29 540.855 349.412 539.763 348.973C537.732 348.156 536.695 345.704 537.448 343.498C537.803 342.456 538.494 341.655 539.338 341.186L527.937 324.133C527.481 324.491 526.874 324.604 526.307 324.376C525.404 324.013 524.943 322.923 525.277 321.943C525.612 320.962 526.615 320.461 527.518 320.825C528.42 321.188 528.881 322.275 528.549 323.254L540.289 340.815C540.998 340.646 541.758 340.689 542.489 340.983C543.053 341.21 543.54 341.562 543.934 342.001L551.498 332.919C551.054 332.189 550.924 331.247 551.226 330.363C551.728 328.892 553.233 328.142 554.587 328.687C555.942 329.232 556.633 330.866 556.131 332.337C555.629 333.808 554.124 334.558 552.77 334.013C552.552 333.926 552.351 333.81 552.169 333.671L544.524 342.849C545.087 343.908 545.227 345.222 544.805 346.458C544.586 347.101 544.239 347.652 543.807 348.09L548.929 364.28C549.663 364.245 550.415 364.364 551.147 364.659C553.719 365.694 555.187 368.54 554.779 371.373L566.196 376.564C567.124 374.766 569.143 373.919 570.979 374.657C573.011 375.475 574.047 377.926 573.295 380.132C572.542 382.339 570.285 383.465 568.253 382.647C566.321 381.87 565.288 379.615 565.839 377.498L554.556 372.369C554.536 372.435 554.515 372.501 554.492 372.567C553.561 375.296 551.037 376.881 548.488 376.539L541.764 396.249C543.528 397.21 544.381 399.479 543.68 401.535C542.927 403.741 540.669 404.867 538.638 404.05C536.606 403.232 535.569 400.781 536.322 398.575C537.009 396.56 538.952 395.446 540.831 395.891L547.511 376.311C547.466 376.296 547.42 376.28 547.375 376.263C547.319 376.243 547.264 376.222 547.209 376.2C545.531 375.525 544.323 374.078 543.799 372.367L538.676 374.382C538.73 374.826 538.688 375.29 538.534 375.739C538.033 377.21 536.528 377.96 535.173 377.415C533.819 376.87 533.128 375.236 533.629 373.765C534.131 372.294 535.636 371.544 536.991 372.089C537.617 372.341 538.102 372.826 538.392 373.421L543.579 371.381C543.433 370.375 543.515 369.315 543.864 368.292C544.194 367.325 544.724 366.501 545.384 365.857L482.083 319.566C481.648 320.206 481.133 320.765 480.559 321.23L490.08 345.953C490.67 345.685 491.351 345.649 491.998 345.91C493.353 346.455 494.044 348.089 493.542 349.56C493.04 351.031 491.535 351.781 490.181 351.236C488.826 350.691 488.135 349.057 488.637 347.586C488.773 347.187 488.983 346.841 489.244 346.559L479.717 321.821C478.011 322.848 475.944 323.142 473.958 322.483L461.527 358.919C463.292 359.88 464.144 362.149 463.443 364.205C463.431 364.24 463.419 364.275 463.406 364.309C463.394 364.343 463.381 364.377 463.367 364.41L474.066 383.517C474.501 383.438 474.959 383.478 475.401 383.656C475.712 383.781 475.987 383.963 476.222 384.187L481.365 377.844C480.839 377.341 480.625 376.521 480.883 375.765C481.217 374.784 482.22 374.284 483.123 374.647C484.026 375.011 484.487 376.1 484.153 377.081C483.863 377.93 483.072 378.419 482.279 378.299L476.822 385.029C477.117 385.657 477.197 386.402 477.002 387.12L497.133 393.548C497.145 393.507 497.157 393.465 497.171 393.424C497.506 392.444 498.509 391.943 499.412 392.307C500.315 392.67 500.776 393.759 500.441 394.74C500.107 395.721 499.103 396.221 498.2 395.858C497.657 395.639 497.274 395.158 497.128 394.595L476.579 388.034C475.901 389.007 474.692 389.428 473.584 388.983C472.23 388.438 471.538 386.803 472.04 385.333C472.253 384.708 472.647 384.213 473.134 383.892L462.796 365.431C461.764 366.795 460.011 367.368 458.401 366.72C456.369 365.902 455.333 363.451 456.085 361.245C456.773 359.23 458.715 358.116 460.595 358.561L473.033 322.102C470.371 320.781 468.737 317.916 468.707 314.869L430.909 320.958C431.056 322.027 430.964 323.149 430.594 324.233C430.127 325.6 429.29 326.7 428.252 327.449L435.5 339.275C436.519 338.5 437.861 338.263 439.116 338.768C441.148 339.586 442.184 342.037 441.432 344.243C440.679 346.45 438.422 347.576 436.39 346.758C434.358 345.941 433.321 343.489 434.074 341.283C434.24 340.798 434.478 340.365 434.771 339.993L427.398 327.963C425.983 328.662 424.324 328.778 422.751 328.145C419.59 326.874 417.978 323.061 419.149 319.629C419.443 318.766 419.885 318.009 420.433 317.38L399.752 296.177C398.701 297.249 397.143 297.65 395.699 297.069C393.668 296.252 392.631 293.8 393.384 291.594C393.785 290.418 394.614 289.548 395.608 289.117L383.269 266.588C383.074 266.617 382.873 266.611 382.673 266.565C381.632 266.964 380.43 266.612 379.724 265.607C379.016 264.597 379.026 263.238 379.664 262.252L369.106 258.304C368.87 259.623 368.204 260.856 367.143 261.735C366.285 262.445 365.289 262.823 364.288 262.888L360.387 280.266C360.899 281.276 360.667 282.568 359.797 283.288C358.839 284.08 357.472 283.88 356.742 282.84C356.013 281.8 356.197 280.315 357.155 279.523C357.875 278.926 358.828 278.893 359.567 279.356L363.273 262.846C361.946 262.652 360.687 261.908 359.811 260.66C358.06 258.165 358.504 254.6 360.802 252.699C361.32 252.27 361.888 251.962 362.478 251.772L356.083 237.533C353.172 239.594 349.285 239.003 347.007 236.141L332.383 249.699C332.435 249.766 332.485 249.834 332.534 249.904C334.285 252.399 333.842 255.964 331.544 257.865C329.246 259.767 325.964 259.285 324.213 256.79C323.457 255.713 323.11 254.436 323.145 253.18L311.262 253.996C312.029 257.826 310.763 261.969 307.703 264.501C307.289 264.844 306.858 265.144 306.415 265.402L313.216 295.749C315.597 295.429 318.067 296.454 319.626 298.675C321.961 302.003 321.37 306.755 318.306 309.29C315.242 311.826 310.866 311.184 308.531 307.857C306.197 304.53 306.788 299.777 309.851 297.242C310.587 296.633 311.398 296.208 312.239 295.958L305.496 265.871C301.585 267.597 296.944 266.352 294.262 262.53C291.052 257.956 291.865 251.421 296.078 247.935C297.098 247.091 298.223 246.503 299.389 246.161L289.068 221.571C287.639 222.557 285.906 222.701 284.404 222.082C284.15 223.016 283.275 223.598 282.381 223.398C282.089 223.333 281.829 223.192 281.615 222.998L260.163 235.015C260.797 235.953 261.076 237.167 260.843 238.395C260.406 240.7 258.331 242.183 256.209 241.708C254.7 241.371 253.574 240.135 253.206 238.621L225.324 244.718C225.482 245.566 225.488 246.462 225.317 247.363C224.637 250.948 221.409 253.256 218.108 252.517C216.451 252.146 215.09 251.078 214.232 249.653L202.129 255.612C202.203 256.109 202.196 256.629 202.097 257.151C201.66 259.456 199.585 260.939 197.463 260.464C195.341 259.99 193.975 257.737 194.412 255.432C194.849 253.127 196.924 251.644 199.046 252.119C200.357 252.412 201.38 253.384 201.867 254.628L213.781 248.763C213.266 247.53 213.092 246.116 213.362 244.689C213.577 243.556 214.047 242.551 214.692 241.729L185.596 214.83C184.086 217.396 181.306 218.886 178.406 218.479L171.182 256.562C172.989 257.268 174.09 259.327 173.692 261.429C173.254 263.734 171.18 265.217 169.058 264.742C167.376 264.366 166.169 262.873 165.958 261.122L148.187 270.839C148.443 271.391 148.536 272.037 148.412 272.69C148.121 274.226 146.738 275.215 145.323 274.898C144.165 274.639 143.345 273.587 143.245 272.371L122.614 266.122C122.216 266.515 121.656 266.704 121.088 266.577C120.145 266.366 119.538 265.364 119.732 264.34C119.926 263.316 120.849 262.656 121.792 262.867C122.735 263.078 123.342 264.08 123.148 265.104C123.14 265.147 123.13 265.189 123.119 265.231L143.331 271.353C143.513 270.645 143.931 270.068 144.472 269.703L143.117 260.816C142.41 260.45 141.995 259.596 142.16 258.725C142.355 257.701 143.277 257.041 144.22 257.252C145.163 257.463 145.77 258.465 145.576 259.489C145.426 260.278 144.844 260.851 144.153 260.975L145.424 269.314C145.732 269.258 146.054 269.262 146.378 269.335C146.856 269.442 147.276 269.684 147.612 270.016L165.963 259.982C165.975 259.891 165.99 259.801 166.007 259.71C166.414 257.562 168.244 256.128 170.209 256.327L177.429 218.27C175.408 217.683 173.789 216.229 172.846 214.357L152.712 229.858C152.806 230.26 152.819 230.692 152.737 231.126C152.445 232.662 151.062 233.651 149.648 233.334C148.233 233.018 147.322 231.516 147.614 229.979C147.905 228.443 149.288 227.454 150.703 227.771C151.379 227.922 151.939 228.343 152.309 228.91L172.44 213.412C172.18 212.687 172.015 211.917 171.959 211.124L95.6886 213.996C95.9342 214.923 95.9824 215.926 95.7908 216.935C95.5908 217.989 95.1537 218.924 94.5524 219.688L97.9657 224.412C98.4952 224.09 99.1296 223.965 99.7706 224.109C101.185 224.425 102.096 225.927 101.805 227.464C101.513 229 100.13 229.989 98.7151 229.672C97.3004 229.356 96.3898 227.854 96.6812 226.318C96.7702 225.849 96.9607 225.431 97.2228 225.086L93.8586 220.43C92.5801 221.581 90.8498 222.113 89.0971 221.721C88.9948 221.698 88.8937 221.672 88.7939 221.644L84.9141 242.095C86.7213 242.801 87.8227 244.86 87.4239 246.962C86.9867 249.267 84.912 250.75 82.7899 250.275C80.6677 249.801 79.3018 247.547 79.739 245.243C80.1465 243.095 81.9764 241.661 83.9414 241.86L87.8469 221.273C85.5182 220.098 84.1497 217.302 84.6903 214.452C84.704 214.38 84.7188 214.308 84.7347 214.237L72.6626 212.101C72.1012 214.219 70.123 215.543 68.1019 215.09C65.9797 214.616 64.6138 212.363 65.051 210.058C65.4882 207.754 67.563 206.27 69.6851 206.745C71.6021 207.174 72.902 209.054 72.8131 211.112L85.029 213.274C86.0645 210.636 88.698 209.065 91.384 209.666C92.1633 209.841 92.872 210.181 93.4852 210.646L105.701 199.878C105.538 199.244 105.507 198.561 105.638 197.873C105.88 196.595 106.626 195.57 107.603 194.991L105.59 182.792C105.38 182.802 105.165 182.784 104.949 182.736C103.534 182.419 102.624 180.917 102.915 179.381C103.207 177.844 104.59 176.856 106.005 177.172C107.419 177.489 108.33 178.991 108.039 180.527C107.863 181.45 107.294 182.175 106.561 182.539L108.551 194.592C109.098 194.447 109.683 194.428 110.272 194.56C111.051 194.734 111.727 195.147 112.251 195.715L130.733 187.586C130.736 187.57 130.739 187.555 130.742 187.54C130.936 186.515 131.858 185.856 132.801 186.067C133.744 186.278 134.351 187.279 134.157 188.304C133.963 189.328 133.041 189.987 132.097 189.776C131.505 189.644 131.045 189.199 130.833 188.632L112.846 196.544C113.334 197.427 113.529 198.504 113.323 199.592C112.886 201.896 110.811 203.38 108.689 202.905C107.549 202.65 106.627 201.881 106.085 200.867L94.2282 211.32C94.684 211.811 95.0599 212.383 95.3397 213.008L171.945 210.124C171.963 209.71 172.011 209.292 172.091 208.873C172.518 206.621 173.773 204.785 175.44 203.66L162.347 170.727C161.671 171.009 160.915 171.091 160.153 170.92C158.031 170.446 156.665 168.193 157.102 165.888C157.539 163.584 159.614 162.1 161.736 162.575C163.858 163.05 165.224 165.303 164.787 167.607C164.579 168.705 163.999 169.617 163.219 170.219L176.313 203.155C177.685 202.485 179.258 202.26 180.844 202.615C182.746 203.041 184.326 204.222 185.374 205.812L193.938 200.716C193.656 199.798 193.586 198.791 193.779 197.776C194.128 195.931 195.265 194.481 196.73 193.754L194.43 183.395C193.65 183.068 193.179 182.167 193.354 181.248C193.548 180.224 194.47 179.565 195.413 179.776C196.356 179.987 196.963 180.988 196.769 182.012C196.628 182.754 196.106 183.304 195.47 183.471L197.675 193.399C198.401 193.208 199.177 193.184 199.957 193.358C201.899 193.793 203.365 195.343 203.907 197.266L219.223 195.285C219.364 194.959 219.585 194.689 219.854 194.499C219.87 194.455 219.886 194.411 219.903 194.368C220.023 194.067 220.186 193.8 220.38 193.571L197.864 153.704C197.504 153.866 197.123 153.971 196.732 154.012L196.517 171.024C196.631 171.059 196.745 171.102 196.857 171.155C198.182 171.778 198.792 173.45 198.218 174.89C197.644 176.329 196.104 176.991 194.779 176.368C193.453 175.745 192.844 174.073 193.417 172.633C193.802 171.668 194.621 171.053 195.518 170.939L195.732 153.978C195.417 153.923 195.103 153.825 194.797 153.681C193.11 152.888 192.196 150.962 192.483 149.078L184.396 144.127C183.293 145.149 181.709 145.465 180.288 144.797C178.3 143.863 177.385 141.355 178.246 139.195C178.297 139.067 178.354 138.942 178.415 138.822L159.612 115.016C158.663 115.837 157.489 116.31 156.273 116.357L153.633 130.278C153.816 130.316 153.999 130.377 154.178 130.461C155.504 131.084 156.113 132.756 155.539 134.196C155.318 134.751 154.953 135.19 154.512 135.485L162.874 147.745C163.333 147.464 163.903 147.412 164.424 147.657C165.307 148.072 165.714 149.187 165.331 150.146C164.949 151.106 163.922 151.547 163.038 151.132C162.155 150.717 161.748 149.602 162.131 148.642C162.149 148.597 162.168 148.553 162.189 148.51L153.568 135.87C153.088 135.957 152.58 135.9 152.1 135.674C150.775 135.051 150.165 133.379 150.739 131.939C151.091 131.056 151.807 130.465 152.614 130.285L155.267 116.297C154.781 116.221 154.297 116.074 153.826 115.853C151.9 114.947 150.672 113.02 150.446 110.908L137.113 108.786C135.988 110.731 133.694 111.547 131.692 110.607C129.483 109.568 128.467 106.781 129.424 104.382C130.38 101.983 132.946 100.88 135.156 101.918C137.273 102.913 138.294 105.514 137.534 107.841L150.416 109.891C150.45 109.176 150.599 108.456 150.877 107.761C151.292 106.718 151.942 105.863 152.73 105.238L138.807 73.8743C137.9 74.0037 136.951 73.8767 136.052 73.4538C133.574 72.2894 132.348 69.2935 133.133 66.5567L112.69 50.3024C110.009 52.6026 106.281 53.27 102.926 51.6931C101.909 51.2153 101.008 50.5691 100.236 49.7977L89.9302 57.0394C90.2839 58.2872 90.2455 59.6729 89.7305 60.965C88.7505 63.4236 86.3617 64.748 84.0338 64.3063L77.3352 84.05C79.7602 85.4454 81.1505 88.2226 81.0321 91.0809L89.5653 91.6351C89.5004 90.741 89.63 89.8171 89.981 88.9368C91.1285 86.0577 94.2081 84.7339 96.8593 85.9802C99.5105 87.2264 100.729 90.5706 99.5819 93.4497C98.4343 96.3288 95.3547 97.6525 92.7035 96.4063C91.1742 95.6875 90.1215 94.2705 89.7246 92.6475L80.9294 92.0763C80.8359 92.6394 80.6818 93.1999 80.4634 93.7477C78.9333 97.5865 74.8273 99.3514 71.2923 97.6898C71.0829 97.5914 70.8802 97.4831 70.6845 97.3658L52.2538 122.2C53.7084 123.8 54.2048 126.259 53.3318 128.449C52.1843 131.328 49.1047 132.652 46.4535 131.406C45.2822 130.855 44.3905 129.895 43.8589 128.747L33.8916 129.344C33.1797 130.357 31.8998 130.755 30.7742 130.226C29.4486 129.602 28.8392 127.93 29.413 126.491C29.4201 126.473 29.4273 126.455 29.4347 126.438L25.5368 117.895C24.9174 117.944 24.2799 117.85 23.6656 117.595L6.5286 139.114C7.14494 140.143 7.28998 141.477 6.80746 142.687C6.04241 144.607 3.98937 145.489 2.22189 144.658C0.45441 143.828 -0.358214 141.598 0.406844 139.679C1.1719 137.759 3.22493 136.877 4.99242 137.708C5.32681 137.865 5.62701 138.072 5.88883 138.318L22.7859 117.099C22.0726 116.579 21.5346 115.852 21.2113 115.028L5.94976 110.799C4.96768 111.86 3.45208 112.224 2.10288 111.59C0.335399 110.759 -0.477229 108.53 0.287832 106.611C1.0529 104.691 3.10593 103.809 4.87341 104.64C6.64089 105.47 7.45352 107.7 6.68846 109.619C6.64613 109.725 6.59986 109.828 6.54991 109.928L20.9151 113.909C20.7901 113.052 20.8804 112.148 21.2213 111.292C21.6931 110.109 22.5565 109.241 23.5756 108.789L23.7219 89.5641C23.1412 88.8969 22.9484 87.8929 23.3055 86.997C23.7836 85.7973 25.0668 85.2458 26.1714 85.7651C27.2761 86.2843 27.784 87.6778 27.3058 88.8774C26.8672 89.9778 25.7512 90.5329 24.717 90.2164L24.5779 108.49C25.3569 108.363 26.1771 108.464 26.9533 108.828C29.1626 109.867 30.1784 112.654 29.2221 115.053C28.7003 116.362 27.699 117.286 26.538 117.686L30.0936 125.478C30.8297 124.782 31.8966 124.563 32.8521 125.013C34.0468 125.574 34.6598 126.988 34.3493 128.315L43.505 127.766C43.1798 126.544 43.229 125.196 43.7309 123.936C44.8785 121.057 47.958 119.734 50.6093 120.98C50.9326 121.132 51.2346 121.315 51.5137 121.525L69.8686 96.7926C67.4636 94.8309 66.4487 91.342 67.499 88.1776L55.1517 78.8878C54.024 79.7489 52.6036 80.11 51.2079 79.8347L47.4609 90.6147L47.4832 90.6248L47.5049 90.6349C48.8305 91.258 49.44 92.9301 48.8662 94.3696C48.2924 95.8092 46.7526 96.471 45.427 95.8479C44.1014 95.2248 43.4919 93.5527 44.0657 92.1131C44.4945 91.0372 45.463 90.3957 46.4783 90.4004L50.2525 79.542C50.1883 79.515 50.1243 79.4865 50.0605 79.4566C48.9476 78.9334 48.087 78.0405 47.5479 76.9675L35.8737 79.2679C35.2321 80.5395 33.792 81.0941 32.5423 80.5067C31.2167 79.8836 30.6072 78.2115 31.181 76.7719C31.7548 75.3324 33.2946 74.6705 34.6202 75.2936C35.6929 75.7979 36.2966 76.989 36.1839 78.1879L47.1708 76.023C46.7827 74.7469 46.8077 73.3173 47.338 71.987C47.7667 70.9115 48.465 70.053 49.3099 69.4644L44.8849 52.2366C43.982 51.6282 43.6017 50.3773 44.0364 49.2867C44.5146 48.087 45.7977 47.5355 46.9024 48.0548C48.0071 48.574 48.515 49.9675 48.0368 51.1671C47.6769 52.0701 46.8609 52.6058 46.0082 52.5942L50.2124 68.9621C51.4573 68.4267 52.8904 68.4072 54.2163 69.0304C56.8676 70.2767 58.0865 73.6209 56.9389 76.5C56.6801 77.1494 56.323 77.7196 55.8947 78.1991L67.8859 87.2211C69.4969 83.8769 73.1526 82.3272 76.4287 83.6139L83.0763 64.0204C83.0013 63.9895 82.9266 63.9565 82.8522 63.9215C80.201 62.6753 78.982 59.3311 80.1296 56.452C81.2772 53.5729 84.3567 52.2492 87.008 53.4954C88.1527 54.0335 89.0304 54.9627 89.5659 56.0767L99.5629 49.0523C97.1677 46.1192 96.406 41.834 97.9347 37.999C98.1411 37.4809 98.3817 36.9904 98.6523 36.5291L79.0503 13.6739C77.1175 15.2178 74.502 15.6363 72.1413 14.5266C68.6063 12.865 66.9811 8.40603 68.5112 4.56724C70.0413 0.728445 74.1474 -1.03649 77.6823 0.625142C81.2173 2.28677 82.8426 6.74575 81.3124 10.5845ZM281.891 219.885C280.884 218.219 280.784 216.157 281.5 214.434L254.962 204.71C254.626 205.666 254.049 206.535 253.245 207.201C251.239 208.861 248.482 208.705 246.649 206.978L222.472 240.336C223.681 241.121 224.594 242.336 225.072 243.75L253.077 237.626C253.071 237.313 253.097 236.995 253.158 236.676C253.595 234.372 255.67 232.888 257.792 233.363C258.44 233.508 259.017 233.819 259.494 234.246L281.081 222.153C280.984 221.845 280.96 221.504 281.025 221.161C281.132 220.597 281.46 220.143 281.891 219.885ZM113.374 111.281C111.844 115.12 107.738 116.885 104.203 115.223C103.863 115.063 103.541 114.878 103.238 114.67L93.2154 131.835C95.6587 133.513 97.0212 136.505 96.8463 139.561L122.95 144.719C123.01 144.398 123.101 144.078 123.225 143.766C124.182 141.366 126.748 140.263 128.957 141.302C131.167 142.34 132.183 145.127 131.226 147.526C130.27 149.926 127.704 151.029 125.494 149.99C123.872 149.228 122.894 147.523 122.866 145.722L96.7343 140.558C96.6288 141.184 96.4566 141.807 96.2137 142.416C95.595 143.969 94.6019 145.22 93.3988 146.098L94.51 148.488C95.4398 147.887 96.6133 147.762 97.6824 148.265C99.4499 149.096 100.263 151.325 99.4975 153.245C98.7324 155.164 96.6794 156.047 94.9119 155.216C93.1444 154.385 92.3318 152.155 93.0968 150.236C93.2564 149.836 93.4721 149.48 93.7295 149.176L92.5495 146.638C90.5433 147.737 88.1193 147.896 85.8961 146.851C84.3433 146.121 83.118 144.912 82.3038 143.451L59.4241 154.727C59.4723 155.461 59.3631 156.218 59.0753 156.94C58.4127 158.602 56.9774 159.642 55.4233 159.779L54.7108 168.675C55.1985 168.663 55.6963 168.763 56.1734 168.987C57.9408 169.818 58.7535 172.047 57.9884 173.967C57.2234 175.886 55.1703 176.769 53.4028 175.938C51.6354 175.107 50.8227 172.878 51.5878 170.958C51.9989 169.927 52.7817 169.195 53.6924 168.867L54.4233 159.741C54.0595 159.681 53.6969 159.57 53.3434 159.404C51.134 158.365 50.1182 155.578 51.0745 153.179C51.1537 152.98 51.244 152.791 51.3441 152.61L48.7576 148.691C48.4117 148.723 48.0539 148.664 47.7131 148.504C46.6084 147.985 46.1005 146.591 46.5787 145.392C47.0569 144.192 48.34 143.641 49.4447 144.16C50.5494 144.679 51.0573 146.073 50.5791 147.272C50.3949 147.734 50.0912 148.1 49.7242 148.346L51.9648 151.741C53.1913 150.386 55.1048 149.915 56.8065 150.715C58.0343 151.292 58.8935 152.409 59.2504 153.7L81.868 142.553C80.9854 140.439 80.8965 137.945 81.8123 135.647C83.5337 131.328 88.153 129.343 92.1298 131.212C92.1685 131.23 92.2069 131.249 92.2451 131.268C92.27 131.28 92.2949 131.292 92.3196 131.305L92.3586 131.324L102.451 114.04C100.176 111.939 99.3248 108.395 100.573 105.264C102.103 101.425 106.209 99.6598 109.744 101.321C113.279 102.983 114.904 107.442 113.374 111.281ZM327.247 192.384C330.31 189.849 334.687 190.491 337.021 193.818C337.246 194.137 337.443 194.47 337.614 194.813L354.087 185.166C352.717 182.414 352.871 179.092 354.386 176.524L333.939 158.155C333.747 158.395 333.529 158.618 333.287 158.818C331.372 160.403 328.637 160.002 327.178 157.922C325.719 155.843 326.088 152.873 328.003 151.288C329.918 149.703 332.653 150.105 334.112 152.184C335.183 153.71 335.269 155.717 334.482 157.303L354.947 175.689C355.322 175.198 355.753 174.746 356.239 174.344C357.473 173.323 358.896 172.76 360.335 172.629L360.442 169.954C359.366 169.978 358.294 169.463 357.592 168.463C356.425 166.799 356.72 164.423 358.252 163.155C359.784 161.887 361.972 162.208 363.14 163.872C364.307 165.536 364.012 167.912 362.48 169.179C362.16 169.444 361.812 169.639 361.45 169.768L361.336 172.608C363.581 172.716 365.767 173.864 367.235 175.957C368.263 177.422 368.787 179.133 368.837 180.843L393.866 183.162C394.155 182.492 394.593 181.885 395.173 181.405C396.507 180.301 398.24 180.161 399.661 180.881L404.289 173.501C403.849 173.252 403.451 172.896 403.13 172.439C401.963 170.776 402.258 168.399 403.79 167.132C405.322 165.864 407.51 166.185 408.678 167.849C409.198 168.59 409.427 169.472 409.387 170.335L451.703 168.264C451.726 167.529 451.925 166.79 452.315 166.125C453.14 164.718 454.599 164.015 456.029 164.175L456.726 151.58C456.44 151.509 456.16 151.385 455.898 151.204C454.68 150.362 454.321 148.606 455.097 147.283C455.873 145.96 457.49 145.57 458.708 146.413C459.926 147.256 460.285 149.012 459.509 150.335C459.093 151.044 458.434 151.486 457.725 151.612L457.016 164.429C457.262 164.531 457.502 164.661 457.732 164.82C459.559 166.084 460.097 168.717 458.933 170.702L458.933 170.702L466.856 174.989C466.951 174.715 467.073 174.448 467.223 174.191C468.387 172.206 470.812 171.622 472.64 172.886C474.081 173.883 474.72 175.73 474.356 177.44L502.872 180.979C503.016 180.345 503.255 179.725 503.596 179.144C504.731 177.21 506.695 176.196 508.663 176.303L512.617 163.437C511.183 162.075 510.84 159.743 511.895 157.945C513.059 155.96 515.484 155.376 517.312 156.64C519.139 157.904 519.677 160.537 518.513 162.522C517.427 164.373 515.244 165.006 513.472 164.056L509.661 176.455C510.269 176.608 510.864 176.874 511.42 177.259C512.878 178.267 513.768 179.879 513.989 181.603L545.399 176.589C545.013 175.09 545.194 173.426 546.025 172.009C546.328 171.492 546.696 171.046 547.109 170.676L535.869 142.551C534.491 142.967 532.961 142.77 531.659 141.869C531.332 141.643 531.036 141.384 530.772 141.098L525.929 145.931C526.324 146.54 526.365 147.372 525.974 148.039C525.456 148.921 524.379 149.181 523.566 148.619C522.754 148.057 522.515 146.887 523.032 146.005C523.495 145.215 524.407 144.924 525.175 145.274L530.16 140.301C529.322 138.979 529.034 137.316 529.383 135.745L503.028 123.578C501.762 125.038 499.681 125.364 498.066 124.247C496.239 122.983 495.701 120.349 496.865 118.365C498.029 116.38 500.454 115.796 502.281 117.06C504.047 118.281 504.609 120.782 503.594 122.74L529.683 134.784C529.789 134.525 529.913 134.272 530.057 134.027C531.609 131.38 534.843 130.602 537.279 132.287C539.716 133.972 540.433 137.484 538.881 140.13C538.349 141.037 537.619 141.725 536.792 142.169L547.941 170.068C549.557 169.117 551.587 169.122 553.247 170.27C555.571 171.878 556.331 175.148 555.048 177.743L578.495 186.854C578.707 185.543 579.155 184.254 579.854 183.061C582.7 178.21 588.628 176.782 593.095 179.871C596.848 182.467 598.376 187.426 597.081 191.822L625.265 196.596C625.418 195.638 625.744 194.697 626.255 193.827C628.324 190.299 632.635 189.26 635.884 191.507C638.966 193.639 639.985 197.96 638.316 201.41L649.967 210.198C650.746 209.93 651.595 209.899 652.417 210.141L656.12 182.379C655.778 182.325 655.437 182.214 655.109 182.043C653.373 181.136 652.643 178.873 653.478 176.989C654.313 175.104 656.397 174.311 658.132 175.218C659.868 176.124 660.598 178.387 659.763 180.272C659.242 181.448 658.235 182.199 657.129 182.377L653.37 210.558C653.954 210.905 654.439 211.379 654.808 211.933L663.24 209.557C663.247 209.54 663.253 209.523 663.26 209.507C663.271 209.481 663.281 209.456 663.292 209.431C663.919 208.018 665.481 207.423 666.783 208.103C667.869 208.67 668.43 209.945 668.223 211.172L674.371 219.798C675.505 219.498 676.738 219.607 677.871 220.199C680.475 221.559 681.57 224.954 680.317 227.781C679.369 229.921 677.348 231.122 675.293 230.99L670.075 262.388C670.186 262.433 670.297 262.482 670.407 262.533C670.495 262.575 670.582 262.618 670.669 262.663C674.141 264.477 675.601 269.003 673.931 272.772C673.693 273.31 673.404 273.803 673.073 274.249L679.229 281.094C680.619 280.357 682.294 280.293 683.796 281.077C686.399 282.437 687.495 285.832 686.242 288.659C684.99 291.486 681.864 292.675 679.261 291.315C676.657 289.955 675.562 286.561 676.815 283.734C677.192 282.883 677.739 282.18 678.39 281.651L672.42 275.013C670.506 276.963 667.673 277.628 665.124 276.551L655.77 294.974C657.608 296.594 658.254 299.426 657.183 301.844C656.63 303.092 655.711 304.021 654.634 304.552L656.347 317.786C657.37 317.919 658.39 318.234 659.37 318.746C662.664 320.467 664.641 323.964 664.795 327.67L689.494 333.806C690.885 331.369 693.773 330.415 696.205 331.685C697.109 332.157 697.83 332.874 698.335 333.727L729.253 324.626C729.16 323.551 729.327 322.434 729.79 321.389C730.092 320.707 730.495 320.112 730.971 319.617L721.109 310.386C719.987 312.533 717.509 313.398 715.43 312.312C713.26 311.178 712.348 308.35 713.391 305.994C714.435 303.638 717.04 302.647 719.209 303.78C721.164 304.801 722.099 307.199 721.501 309.387L731.724 318.957C733.339 317.775 735.472 317.529 737.353 318.512C737.816 318.753 738.235 319.055 738.606 319.403L746.604 308.067C746.201 307.286 746.143 306.312 746.528 305.444C747.154 304.031 748.717 303.436 750.018 304.116C750.49 304.362 750.862 304.742 751.116 305.193L765.558 303.992C765.575 303.947 765.593 303.902 765.612 303.858C766.03 302.915 767.071 302.519 767.939 302.972C768.807 303.426 769.172 304.557 768.755 305.499C768.337 306.442 767.295 306.838 766.428 306.385C765.901 306.11 765.559 305.584 765.465 305.003L751.458 306.168C751.554 306.738 751.491 307.345 751.242 307.907C750.615 309.32 749.052 309.915 747.751 309.235C747.566 309.139 747.397 309.022 747.244 308.889L739.288 320.165C740.063 321.198 740.509 322.481 740.56 323.808L769.44 323.653C769.484 323.524 769.533 323.396 769.589 323.27C770.529 321.15 772.873 320.258 774.825 321.278C776.22 322.007 777.038 323.514 777.049 325.089L785.79 328.484C786.914 327.015 788.852 326.504 790.508 327.37C790.809 327.527 791.083 327.72 791.328 327.942L802.992 316.661C802.484 315.85 802.376 314.775 802.796 313.827C803.422 312.414 804.985 311.819 806.287 312.499C807.588 313.179 808.136 314.876 807.51 316.29C806.883 317.704 805.321 318.298 804.019 317.618C803.894 317.553 803.776 317.479 803.666 317.396L791.979 328.699C792.219 329.058 792.406 329.454 792.533 329.872L835.023 322.247C835.055 321.939 835.135 321.63 835.266 321.335C835.892 319.921 837.455 319.327 838.756 320.007C840.058 320.687 840.606 322.384 839.979 323.797C839.353 325.211 837.79 325.806 836.489 325.125C835.759 324.744 835.266 324.043 835.084 323.252L792.718 330.854C792.775 331.587 792.658 332.345 792.343 333.056C791.677 334.558 790.306 335.444 788.869 335.47L789.55 348.066C789.842 348.099 790.134 348.186 790.413 348.332C791.715 349.012 792.262 350.709 791.636 352.123C791.01 353.536 789.447 354.131 788.145 353.451C786.844 352.771 786.296 351.074 786.922 349.66C787.258 348.902 787.864 348.379 788.554 348.162L787.86 335.344C787.605 335.275 787.353 335.177 787.107 335.048C785.154 334.028 784.333 331.482 785.272 329.362L785.275 329.356L776.939 326.118C776.875 326.404 776.782 326.688 776.66 326.964C775.721 329.084 773.376 329.976 771.424 328.956C769.884 328.152 769.048 326.399 769.224 324.654L740.522 324.809C740.449 325.457 740.278 326.104 740.003 326.725C739.088 328.79 737.251 330.048 735.287 330.197L732.764 343.485C734.333 344.654 734.926 346.923 734.075 348.842C733.136 350.963 730.792 351.855 728.839 350.835C726.887 349.815 726.065 347.269 727.004 345.149C727.881 343.17 729.98 342.261 731.843 342.977L734.274 330.175C733.654 330.101 733.034 329.913 732.44 329.603C730.882 328.789 729.823 327.303 729.415 325.62L698.774 334.639C699.32 336.078 699.322 337.754 698.652 339.267C698.407 339.82 698.09 340.31 697.72 340.73L711.948 367.211C713.272 366.621 714.812 366.62 716.203 367.347C716.553 367.529 716.875 367.749 717.168 367.998L721.451 362.577C720.992 362.023 720.86 361.202 721.176 360.489C721.594 359.547 722.635 359.15 723.503 359.604C724.371 360.057 724.736 361.189 724.319 362.131C723.947 362.971 723.079 363.377 722.28 363.135L717.869 368.719C718.841 369.924 719.307 371.534 719.132 373.135L746.629 381.827C747.726 380.214 749.757 379.623 751.482 380.524C753.435 381.544 754.256 384.09 753.317 386.21C752.378 388.331 750.034 389.223 748.081 388.202C746.193 387.216 745.362 384.802 746.16 382.726L718.94 374.123C718.896 374.28 718.845 374.436 718.787 374.59C718.745 374.704 718.699 374.816 718.65 374.928C717.397 377.755 714.271 378.945 711.668 377.585C709.065 376.225 707.97 372.83 709.222 370.003C709.653 369.031 710.305 368.252 711.081 367.705L696.967 341.437C695.466 342.592 693.446 342.851 691.67 341.923C689.185 340.625 688.074 337.473 689.068 334.73L664.791 328.699C664.724 330.03 664.42 331.369 663.855 332.645C661.558 337.828 655.828 340.009 651.055 337.515C647.045 335.42 644.986 330.691 645.794 326.159L617.288 325.045C617.24 326.016 617.019 326.993 616.606 327.923C614.937 331.693 610.769 333.279 607.298 331.465C603.827 329.652 602.366 325.126 604.036 321.357C605.706 317.587 609.874 316.001 613.345 317.815C615.663 319.026 617.084 321.447 617.275 324.044L646.017 325.167C646.161 324.643 646.345 324.124 646.571 323.616C648.239 319.85 651.72 317.669 655.33 317.715L653.673 304.91C652.547 305.2 651.325 305.088 650.201 304.5C647.598 303.14 646.503 299.746 647.755 296.919C649.007 294.092 652.133 292.903 654.736 294.263C654.778 294.284 654.819 294.307 654.86 294.329C654.891 294.347 654.922 294.364 654.952 294.382L664.236 276.096C661.195 274.25 659.88 270.234 661.153 266.722L647.022 262.788C646.969 263.453 646.805 264.12 646.523 264.757C645.271 267.585 642.145 268.774 639.542 267.414C638.24 266.734 637.315 265.545 636.872 264.172L622.727 271.439C623.294 272.131 623.455 273.152 623.063 274.039C622.541 275.217 621.238 275.712 620.154 275.146C619.069 274.579 618.613 273.165 619.134 271.987C619.622 270.887 620.789 270.382 621.825 270.781L636.64 263.17C636.482 262.071 636.618 260.91 637.095 259.832C637.674 258.526 638.653 257.569 639.795 257.052L634.108 246.617C633.347 247.495 632.123 247.779 631.069 247.229C629.768 246.549 629.22 244.852 629.846 243.438C630.472 242.025 632.035 241.43 633.337 242.11C634.542 242.74 635.101 244.242 634.68 245.583L640.755 256.731C641.839 256.488 643.003 256.615 644.077 257.176C644.139 257.209 644.201 257.243 644.262 257.278L649.348 247.07C648.68 246.239 648.492 245.025 648.96 243.968C649.587 242.555 651.149 241.96 652.451 242.64C653.753 243.32 654.3 245.017 653.674 246.431C653.048 247.844 651.485 248.439 650.183 247.759C650.166 247.75 650.15 247.741 650.133 247.732L645.084 257.864C646.199 258.834 646.882 260.248 647.017 261.749L661.556 265.797C663.067 262.851 666.166 261.391 669.113 262.082L674.307 230.823C673.979 230.731 673.653 230.603 673.336 230.437C670.733 229.077 669.637 225.683 670.89 222.856C671.438 221.619 672.344 220.696 673.407 220.163L667.794 212.288C667.074 213.413 665.689 213.835 664.515 213.222C663.577 212.732 663.031 211.713 663.033 210.653L655.281 212.837C655.763 214.052 655.776 215.478 655.207 216.764C654.163 219.12 651.558 220.111 649.389 218.978C648.627 218.58 648.02 217.972 647.598 217.25L634.971 229.329C635.868 229.971 636.213 231.25 635.734 232.331C635.212 233.509 633.91 234.004 632.825 233.438C631.74 232.871 631.284 231.457 631.806 230.279C632.206 229.376 633.064 228.874 633.932 228.944L647.167 216.283C646.796 215.138 646.828 213.84 647.351 212.66C647.723 211.82 648.293 211.154 648.971 210.695L637.821 202.286C635.684 205.554 631.539 206.461 628.391 204.284C626.221 202.783 625.074 200.197 625.168 197.593L596.75 192.78C596.55 193.282 596.311 193.774 596.032 194.25C593.965 197.774 590.27 199.492 586.691 198.983L586.939 211.911C588.089 211.768 589.29 212.036 590.342 212.763C592.778 214.449 593.496 217.96 591.944 220.606C590.392 223.252 587.158 224.031 584.722 222.346C584.653 222.299 584.586 222.25 584.521 222.2L573.307 239.163C576.125 241.387 576.993 245.543 575.346 248.867L588.949 254.591C589.074 253.937 589.309 253.297 589.659 252.7C591.211 250.054 594.444 249.275 596.881 250.96C598.099 251.803 598.888 253.103 599.178 254.522L614.016 249.126C613.529 248.366 613.48 247.332 613.966 246.502C614.613 245.399 615.96 245.075 616.976 245.777C617.991 246.479 618.29 247.942 617.643 249.045C617.038 250.077 615.819 250.427 614.832 249.892L599.299 255.541C599.337 256.655 599.076 257.792 598.483 258.803C597.766 260.026 596.69 260.85 595.499 261.216L600.008 272.309C600.859 271.536 602.106 271.411 603.092 272.093C604.31 272.936 604.669 274.691 603.893 276.014C603.117 277.337 601.5 277.727 600.282 276.884C599.156 276.106 598.765 274.549 599.322 273.273L594.502 261.413C593.401 261.512 592.264 261.236 591.261 260.543C591.202 260.502 591.145 260.46 591.088 260.418L584.924 269.9C585.497 270.81 585.551 272.04 584.971 273.029C584.195 274.352 582.578 274.742 581.36 273.899C580.142 273.056 579.783 271.301 580.559 269.978C581.335 268.655 582.952 268.265 584.17 269.108C584.188 269.121 584.207 269.133 584.225 269.147L590.342 259.737C589.337 258.63 588.812 257.138 588.84 255.629L574.843 249.738C573.02 252.466 569.785 253.515 566.936 252.45L558.369 282.822C558.685 282.955 558.994 283.124 559.291 283.329C561.728 285.015 562.445 288.526 560.893 291.172C560.214 292.329 559.214 293.129 558.099 293.522L562.814 302.063C563.652 301.04 565.074 300.798 566.172 301.558C567.05 302.165 567.481 303.247 567.363 304.299L575.299 303.128C574.953 301.859 575.095 300.442 575.801 299.238C577.094 297.033 579.789 296.384 581.819 297.789C582.533 298.282 583.069 298.963 583.409 299.735L597.265 289.365C596.444 288.612 596.242 287.297 596.835 286.286C597.481 285.183 598.829 284.859 599.844 285.561C600.859 286.263 601.158 287.726 600.511 288.829C600.013 289.678 599.1 290.066 598.243 289.878L583.73 300.74C583.977 301.927 583.804 303.217 583.154 304.324C582.693 305.11 582.054 305.699 581.331 306.067L592.42 316.752C592.468 316.651 592.521 316.552 592.578 316.454C593.613 314.69 595.768 314.171 597.393 315.295C599.017 316.418 599.495 318.759 598.461 320.523C597.426 322.287 595.271 322.807 593.646 321.683C592.416 320.832 591.843 319.283 592.087 317.815L580.277 306.435C579.477 306.597 578.635 306.518 577.849 306.173L571.143 333.263C571.478 333.361 571.804 333.515 572.111 333.727C573.736 334.851 574.214 337.192 573.179 338.956C572.145 340.72 569.989 341.239 568.365 340.116C566.74 338.992 566.262 336.651 567.297 334.887C567.943 333.785 569.027 333.169 570.146 333.136L576.952 305.639C576.406 305.219 575.975 304.684 575.668 304.084L567.04 305.358C567.019 305.399 566.996 305.439 566.973 305.479C566.197 306.802 564.58 307.192 563.362 306.349C562.349 305.649 561.93 304.318 562.263 303.129L557.092 293.762C555.937 293.911 554.729 293.643 553.671 292.912C551.234 291.226 550.517 287.715 552.069 285.069C553.245 283.065 555.385 282.132 557.413 282.529L566.018 252.025C565.911 251.965 565.804 251.901 565.698 251.834C565.616 251.783 565.535 251.729 565.454 251.673C562.205 249.426 561.249 244.744 563.318 241.216C563.613 240.713 563.954 240.26 564.331 239.86L558.965 232.271C557.505 232.824 555.834 232.672 554.428 231.7C551.992 230.015 551.274 226.503 552.826 223.857C554.378 221.211 557.612 220.432 560.048 222.118C562.485 223.803 563.202 227.314 561.65 229.96C561.185 230.754 560.568 231.38 559.867 231.821L565.071 239.179C567.185 237.493 570.071 237.201 572.483 238.602L583.779 221.514C582.126 219.669 581.791 216.769 583.12 214.503C583.805 213.335 584.817 212.531 585.944 212.142L585.687 198.78C584.686 198.517 583.708 198.073 582.791 197.439C579.708 195.307 578.127 191.58 578.378 187.88L554.522 178.61C552.875 180.85 549.903 181.427 547.627 179.852C546.78 179.267 546.141 178.461 545.733 177.548L514.042 182.607C514.017 183.688 513.73 184.777 513.156 185.756C512.781 186.395 512.316 186.933 511.79 187.364L520.575 197.798C521.923 195.811 524.479 195.271 526.424 196.617C528.455 198.021 529.053 200.947 527.759 203.152C526.466 205.357 523.772 206.006 521.741 204.602C519.914 203.338 519.247 200.843 520.073 198.75L510.961 187.927C509.23 188.888 507.09 188.856 505.332 187.64C504.898 187.34 504.515 186.987 504.185 186.594L495.007 196.822C495.321 197.648 495.273 198.623 494.796 199.435C494.02 200.758 492.404 201.148 491.185 200.305C490.744 200 490.416 199.575 490.213 199.095L475.741 198.429C475.724 198.465 475.705 198.5 475.685 198.535L475.673 198.556C475.156 199.438 474.078 199.697 473.266 199.136C472.453 198.574 472.214 197.403 472.732 196.521C473.249 195.639 474.327 195.38 475.139 195.942C475.632 196.283 475.914 196.848 475.944 197.438L489.98 198.083C489.947 197.505 490.076 196.91 490.384 196.384C491.16 195.061 492.777 194.671 493.995 195.514C494.171 195.635 494.328 195.775 494.467 195.93L503.596 185.758C502.935 184.631 502.631 183.296 502.725 181.968L474.031 178.407C473.974 178.53 473.911 178.65 473.841 178.768C472.677 180.753 470.252 181.337 468.425 180.073C467.119 179.17 466.472 177.568 466.633 176.003L458.323 171.507C457.047 172.821 455.067 173.079 453.517 172.007C453.235 171.812 452.985 171.585 452.766 171.333L439.953 181.035C440.369 181.905 440.359 182.986 439.839 183.873C439.063 185.196 437.446 185.586 436.228 184.743C435.009 183.9 434.651 182.145 435.427 180.822C436.203 179.498 437.819 179.109 439.038 179.952L439.061 179.968L439.094 179.992C439.122 180.012 439.151 180.034 439.178 180.056C439.245 180.109 439.31 180.165 439.371 180.224L452.206 170.506C452.004 170.116 451.861 169.696 451.78 169.262L409.212 171.345C408.998 172.041 408.596 172.678 408.018 173.156C407.195 173.837 406.182 174.06 405.24 173.862L400.492 181.433C400.782 181.679 401.048 181.968 401.282 182.301C402.741 184.38 402.372 187.351 400.457 188.935C400.306 189.06 400.151 189.172 399.992 189.272L400.486 194.095C400.79 194.252 401.065 194.488 401.283 194.798C402.012 195.838 401.828 197.323 400.87 198.116C399.913 198.908 398.545 198.707 397.816 197.668C397.086 196.628 397.271 195.143 398.228 194.35C398.597 194.045 399.027 193.887 399.457 193.868L399.032 189.717C397.352 190.247 395.471 189.641 394.348 188.039C393.537 186.884 393.29 185.453 393.56 184.138L368.813 181.845C368.63 184.158 367.584 186.381 365.75 187.898C362.303 190.751 357.38 190.029 354.754 186.286C354.695 186.202 354.638 186.117 354.582 186.032L338.003 195.741C339.061 198.791 338.211 202.356 335.701 204.433C332.637 206.968 328.261 206.326 325.926 202.999C323.592 199.672 324.183 194.92 327.247 192.384ZM533.633 231.909C530.384 229.662 529.428 224.98 531.497 221.452C533.567 217.924 537.878 216.885 541.127 219.133C544.376 221.38 545.332 226.061 543.263 229.59C541.577 232.464 538.403 233.686 535.528 232.825L528.006 251.593C528.047 251.62 528.087 251.647 528.128 251.674L528.162 251.697L528.21 251.73C531.865 254.258 532.941 259.525 530.613 263.494C529.375 265.606 527.422 266.925 525.316 267.316L529.497 293.904C530.681 293.501 532.014 293.647 533.143 294.428C534.707 295.51 535.421 297.494 535.075 299.357L538.92 299.468C538.902 299.001 539.011 298.522 539.26 298.097C539.906 296.995 541.254 296.67 542.269 297.373C543.284 298.075 543.583 299.538 542.936 300.64C542.29 301.743 540.943 302.067 539.927 301.365C539.597 301.137 539.342 300.827 539.171 300.476L534.783 300.349C534.696 300.558 534.595 300.764 534.478 300.964C533.185 303.169 530.49 303.818 528.459 302.413C528.135 302.189 527.846 301.925 527.597 301.631L521.048 307.405C521.308 308.408 521.189 309.522 520.633 310.47C519.599 312.234 517.443 312.753 515.819 311.63C514.194 310.506 513.716 308.165 514.751 306.401C515.785 304.637 517.941 304.118 519.565 305.241C520.019 305.555 520.383 305.963 520.65 306.427L527.032 300.8C526.24 299.319 526.219 297.422 527.125 295.878C527.5 295.237 527.995 294.727 528.557 294.361L524.322 267.431C522.772 267.503 521.187 267.077 519.78 266.104C517.737 264.69 516.499 262.421 516.212 260.001L513.615 260.363C513.528 260.765 513.378 261.158 513.162 261.526C512.127 263.29 509.972 263.81 508.347 262.686C506.723 261.562 506.245 259.222 507.279 257.458C508.314 255.693 510.469 255.174 512.094 256.298C513.095 256.99 513.661 258.144 513.705 259.341L516.148 259.001C516.132 257.405 516.529 255.786 517.377 254.339C517.705 253.779 518.084 253.275 518.503 252.829L499.914 232.226C498.525 233.211 496.676 233.287 495.186 232.256C493.155 230.852 492.557 227.925 493.851 225.72C495.144 223.515 497.839 222.866 499.869 224.271C501.9 225.675 502.497 228.601 501.204 230.806C501.042 231.083 500.858 231.334 500.656 231.561L519.228 252.146C521.457 250.296 524.489 249.852 527.127 251.103L534.596 232.467C534.267 232.311 533.945 232.125 533.633 231.909ZM1151.99 310.35C1151.26 311.003 1150.69 311.784 1150.27 312.638L1124.83 298.627C1127.31 294.883 1127.26 289.661 1124.44 285.935C1121.07 281.495 1115.03 280.861 1110.94 284.518C1109.94 285.412 1109.15 286.48 1108.57 287.649L1088.88 271.109C1090.83 269.071 1091.03 265.717 1089.28 263.412C1088.04 261.766 1086.11 261.079 1084.31 261.434L1081.66 231.158C1082.57 231.012 1083.45 230.604 1084.21 229.924C1086.44 227.929 1086.76 224.349 1084.93 221.927C1083.09 219.506 1079.79 219.16 1077.56 221.154C1077.36 221.335 1077.17 221.528 1077 221.732L1055.63 201.512C1057.14 199.989 1057.31 197.434 1055.98 195.685C1054.61 193.869 1052.14 193.609 1050.46 195.105C1048.79 196.601 1048.55 199.286 1049.93 201.103C1051.15 202.707 1053.22 203.097 1054.84 202.134L1076.43 222.562C1075.65 223.945 1075.45 225.633 1075.88 227.178L1069.73 230.226C1069.1 229.619 1068.14 229.583 1067.47 230.183C1066.72 230.848 1066.62 232.041 1067.23 232.849C1067.84 233.656 1068.94 233.771 1069.69 233.106C1070.25 232.603 1070.45 231.798 1070.24 231.086L1076.23 228.119C1076.4 228.479 1076.6 228.825 1076.85 229.15C1077.83 230.444 1079.23 231.146 1080.66 231.214L1083.33 261.735C1082.83 261.948 1082.36 262.249 1081.92 262.639C1080.73 263.706 1080.08 265.228 1080.02 266.783L1048.72 260.994C1049 259.28 1048.62 257.449 1047.52 256C1047.1 255.447 1046.61 254.994 1046.08 254.644L1053.23 244.135C1054.65 245.634 1056.9 245.766 1058.46 244.371C1060.14 242.875 1060.37 240.19 1059 238.374C1057.62 236.557 1055.15 236.298 1053.47 237.794C1051.95 239.155 1051.62 241.501 1052.61 243.281L1045.19 254.173C1043.34 253.399 1041.18 253.699 1039.54 255.163C1039.06 255.598 1038.65 256.103 1038.34 256.654L1012.23 243.705C1013.06 242.202 1012.97 240.237 1011.89 238.808C1010.51 236.992 1008.04 236.732 1006.37 238.228C1006.16 238.417 1005.97 238.624 1005.8 238.845L999.495 232.109C1001.15 230.61 1001.38 227.937 1000.01 226.127C999.835 225.895 999.641 225.688 999.433 225.507L1003.76 213.564C1004.47 213.686 1005.23 213.489 1005.83 212.951C1006.94 211.953 1007.1 210.163 1006.19 208.952C1005.27 207.742 1003.62 207.569 1002.5 208.566C1001.39 209.563 1001.23 211.353 1002.15 212.564C1002.35 212.824 1002.58 213.036 1002.83 213.199L998.576 224.941C997.261 224.309 995.675 224.487 994.489 225.548C993.93 226.048 993.531 226.682 993.299 227.371L951.909 214.95C952.049 214.149 951.872 213.29 951.358 212.612C951.347 212.598 951.337 212.584 951.326 212.57C951.315 212.556 951.303 212.542 951.292 212.528C951.282 212.516 951.271 212.503 951.26 212.491C950.692 211.75 949.791 211.342 948.85 211.5C947.695 211.694 946.834 212.682 946.664 213.873L936.535 208.768C937.207 207.639 937.515 206.249 937.311 204.817C937.145 203.652 936.665 202.625 935.978 201.823L944.251 186.384C945.279 186.051 945.948 184.938 945.779 183.755C945.595 182.463 944.482 181.578 943.292 181.778C942.103 181.978 941.288 183.187 941.472 184.479C941.61 185.451 942.275 186.193 943.103 186.415L935.233 201.102C934.152 200.243 932.77 199.832 931.342 200.071C928.487 200.551 926.531 203.453 926.973 206.554C927.072 207.253 927.285 207.902 927.588 208.484L913.889 213.929C913.107 210.252 909.93 207.751 906.461 208.098L904.58 187.317C904.611 187.314 904.642 187.31 904.673 187.305C904.722 187.299 904.771 187.291 904.819 187.283C907.674 186.803 909.631 183.901 909.189 180.801C908.747 177.7 906.075 175.576 903.22 176.056C901.987 176.263 900.922 176.921 900.145 177.853L892.103 168.317C895.102 166.135 896.835 162.197 896.247 158.067C896.167 157.509 896.048 156.968 895.894 156.448L920.171 139.702C921.683 141.725 924.116 142.847 926.658 142.42C930.465 141.78 933.074 137.911 932.485 133.777C931.896 129.643 928.333 126.81 924.526 127.45C920.719 128.089 918.111 131.959 918.7 136.093C918.844 137.106 919.167 138.04 919.628 138.865L895.553 155.472C893.85 151.252 889.694 148.63 885.303 149.367C880.069 150.246 876.482 155.567 877.292 161.251C877.491 162.648 877.937 163.937 878.575 165.074L855.421 175.028C854.807 172.16 852.25 170.248 849.527 170.705C847.563 171.035 846.025 172.511 845.399 174.409L820.068 161.433C820.435 160.493 820.574 159.434 820.419 158.351C819.978 155.251 817.305 153.126 814.45 153.606C811.595 154.085 809.639 156.988 810.081 160.088C810.122 160.377 810.182 160.658 810.261 160.929L783.338 170.573C782.913 168.373 780.97 166.894 778.9 167.242C776.759 167.602 775.291 169.778 775.623 172.104C775.954 174.429 777.958 176.022 780.099 175.663C781.991 175.345 783.357 173.609 783.421 171.605L810.618 161.862C811.303 163.278 812.512 164.314 813.927 164.717L813.2 172.056C812.436 172.36 811.951 173.216 812.08 174.122C812.227 175.156 813.118 175.864 814.069 175.704C815.021 175.544 815.673 174.577 815.526 173.543C815.415 172.762 814.878 172.166 814.211 171.991L814.914 164.89C815.286 164.915 815.666 164.898 816.05 164.833C817.575 164.577 818.844 163.629 819.627 162.329L845.162 175.408C845.076 175.983 845.071 176.581 845.157 177.188C845.394 178.847 846.269 180.227 847.469 181.077L826.914 207.351C825.7 206.214 824.053 205.641 822.345 205.928C821.693 206.038 821.084 206.264 820.534 206.584L815.864 194.537C817.773 193.981 819.029 191.941 818.72 189.772C818.389 187.447 816.384 185.853 814.243 186.213C812.102 186.573 810.635 188.749 810.966 191.074C811.266 193.184 812.943 194.691 814.85 194.684L819.695 207.182C818.149 208.512 817.288 210.682 817.611 212.95C817.707 213.623 817.899 214.253 818.171 214.826L794.593 232.601C793.824 231.068 792.228 230.148 790.548 230.43C788.406 230.789 786.939 232.966 787.27 235.291C787.314 235.596 787.386 235.888 787.483 236.164L778.923 238.621L778.921 238.61C778.59 236.285 776.586 234.691 774.445 235.051C774.163 235.098 773.893 235.177 773.638 235.283L766.393 225.158C766.863 224.552 767.099 223.737 766.978 222.893C766.758 221.343 765.421 220.281 763.994 220.52C762.566 220.76 761.588 222.211 761.809 223.762C762.03 225.312 763.366 226.374 764.794 226.134C765.1 226.083 765.386 225.975 765.643 225.823L772.773 235.787C771.601 236.691 770.932 238.265 771.167 239.913C771.276 240.679 771.567 241.366 771.985 241.929L742.391 272.821C740.84 272.096 739.096 272.427 737.869 273.543L717.164 255.476C717.531 254.979 717.852 254.43 718.117 253.831C718.801 252.287 719.018 250.63 718.829 249.048L721.218 248.396C721.394 249.577 722.081 250.649 723.149 251.207C724.885 252.114 726.969 251.321 727.804 249.436C728.638 247.552 727.908 245.289 726.173 244.382C724.437 243.475 722.353 244.268 721.519 246.153C721.344 246.546 721.238 246.956 721.195 247.366L718.656 248.06C718.107 245.694 716.631 243.6 714.448 242.459C712.942 241.673 711.321 241.455 709.788 241.726L702.646 215.533C703.166 215.097 703.603 214.526 703.907 213.84C704.637 212.193 704.411 210.316 703.468 208.947L709.192 202.539C709.506 202.962 709.91 203.318 710.392 203.569C712.127 204.476 714.211 203.683 715.046 201.798C715.881 199.914 715.151 197.651 713.415 196.744C711.68 195.837 709.596 196.63 708.761 198.515C708.312 199.528 708.316 200.649 708.684 201.611L702.811 208.187C702.531 207.928 702.216 207.703 701.869 207.522C699.699 206.388 697.095 207.379 696.051 209.735C695.957 209.948 695.878 210.165 695.815 210.385L691.444 210.823C691.236 210.496 690.949 210.222 690.596 210.037C689.511 209.471 688.209 209.966 687.687 211.144C687.165 212.322 687.622 213.737 688.706 214.303C689.791 214.87 691.094 214.374 691.615 213.196C691.816 212.743 691.872 212.254 691.803 211.792L695.633 211.408C695.493 213.302 696.418 215.18 698.089 216.053C699.295 216.683 700.635 216.657 701.767 216.105L708.819 241.967C706.77 242.627 704.975 244.188 703.976 246.444C702.097 250.684 703.74 255.776 707.645 257.816C707.715 257.853 707.786 257.888 707.857 257.923L702.434 277.528C699.487 277.047 696.473 278.668 695.113 281.737C693.443 285.506 694.904 290.032 698.375 291.845C701.846 293.659 706.014 292.073 707.683 288.304C709.353 284.534 707.893 280.008 704.422 278.195C704.088 278.021 703.749 277.878 703.405 277.765L708.789 258.299C711.548 259.203 714.513 258.37 716.525 256.241L737.211 274.291C737.032 274.544 736.875 274.82 736.743 275.118C735.699 277.474 736.612 280.303 738.781 281.436C740.951 282.57 743.556 281.579 744.599 279.223C745.524 277.137 744.914 274.68 743.256 273.358L772.671 242.654C772.982 242.911 773.329 243.117 773.7 243.264L769.956 259.783C769.926 259.783 769.896 259.784 769.865 259.786C769.82 259.789 769.774 259.792 769.728 259.797C769.683 259.802 769.637 259.809 769.592 259.816C768.164 260.056 767.186 261.507 767.407 263.057C767.628 264.608 768.964 265.67 770.391 265.43C771.819 265.19 772.797 263.739 772.576 262.189C772.428 261.15 771.779 260.33 770.937 259.975L774.67 243.503C774.988 243.536 775.314 243.527 775.644 243.472C777.461 243.166 778.792 241.554 778.952 239.652L787.928 237.076C788.758 238.367 790.217 239.107 791.747 238.85C793.888 238.491 795.356 236.314 795.024 233.989C795.005 233.85 794.979 233.715 794.948 233.582L818.673 215.697C819.4 216.75 820.425 217.529 821.589 217.908L820.91 232.102C820.724 232.09 820.535 232.098 820.343 232.13C818.916 232.37 817.937 233.821 818.158 235.371C818.245 235.977 818.501 236.508 818.867 236.916L807.928 246.489C807.548 246.081 807.002 245.868 806.434 245.963C805.483 246.123 804.831 247.09 804.978 248.124C805.125 249.157 806.016 249.865 806.967 249.706C807.919 249.546 808.571 248.578 808.424 247.545C808.422 247.534 808.421 247.522 808.419 247.511C808.417 247.497 808.414 247.482 808.412 247.468L808.406 247.437L808.402 247.421L808.398 247.401L819.677 237.531C820.121 237.747 820.626 237.831 821.143 237.744C822.57 237.504 823.549 236.053 823.328 234.503C823.192 233.552 822.637 232.784 821.898 232.389L822.58 218.127C823.067 218.186 823.57 218.176 824.077 218.091C826.152 217.743 827.788 216.214 828.497 214.231L841.891 215.831C842.528 218.022 844.558 219.44 846.714 219.078C849.093 218.679 850.723 216.26 850.355 213.677C849.987 211.093 847.76 209.322 845.381 209.722C843.101 210.105 841.509 212.342 841.704 214.801L828.762 213.256C828.895 212.555 828.918 211.817 828.811 211.069C828.65 209.938 828.215 208.927 827.591 208.103L848.344 181.577C849.196 181.956 850.15 182.097 851.126 181.933C853.794 181.485 855.677 178.922 855.552 176.058L879.111 165.93C881.17 168.89 884.623 170.558 888.235 169.951C889.323 169.768 890.34 169.393 891.261 168.864L899.559 178.703C898.934 179.81 898.653 181.154 898.85 182.538C899.227 185.182 901.226 187.116 903.577 187.331L905.473 208.274C902.807 208.963 900.821 211.266 900.272 214.06L891.886 212.259C892.156 211.412 892.245 210.483 892.11 209.536C891.668 206.436 888.996 204.311 886.141 204.791C883.286 205.27 881.33 208.173 881.771 211.273C882.213 214.373 884.885 216.498 887.74 216.018C889.387 215.742 890.735 214.659 891.496 213.197L900.14 215.054C900.099 215.624 900.118 216.209 900.202 216.799C900.791 220.933 904.354 223.765 908.161 223.126C908.38 223.089 908.595 223.042 908.806 222.984L920.874 252.069C919.104 253.222 918.06 255.46 918.395 257.811C918.836 260.911 921.509 263.036 924.364 262.556C925.623 262.345 926.707 261.662 927.488 260.699L937.002 264.011C937.458 265.181 938.601 265.912 939.81 265.709C941.238 265.469 942.216 264.018 941.995 262.468C941.991 262.44 941.987 262.412 941.982 262.385L947.723 255.205C948.31 255.426 948.949 255.512 949.603 255.437L961.192 280.967C960.366 281.794 959.923 283.038 960.107 284.334C960.402 286.401 962.183 287.817 964.087 287.497C965.99 287.178 967.294 285.243 967 283.176C966.705 281.109 964.924 279.693 963.02 280.012C962.66 280.073 962.322 280.191 962.011 280.357L950.59 255.196C951.403 254.887 952.093 254.33 952.598 253.618L968.342 253.707C969.045 255.006 970.429 255.776 971.883 255.531C973.787 255.212 975.091 253.277 974.797 251.21C974.502 249.143 972.721 247.727 970.817 248.046C968.914 248.366 967.61 250.301 967.904 252.368C967.913 252.431 967.923 252.494 967.935 252.556C967.939 252.577 967.944 252.598 967.948 252.62C967.954 252.648 967.96 252.676 967.966 252.705L953.141 252.621C953.461 251.826 953.584 250.926 953.453 250.005C953.271 248.729 952.635 247.651 951.751 246.935L956.074 228.299C956.795 227.814 957.218 226.893 957.08 225.925C956.896 224.633 955.782 223.748 954.593 223.948C953.403 224.148 952.588 225.357 952.772 226.649C952.941 227.834 953.892 228.677 954.966 228.654L950.855 246.374C950.131 246.038 949.314 245.911 948.478 246.051C946.099 246.451 944.469 248.869 944.837 251.453C945.038 252.863 945.792 254.03 946.823 254.735L941.572 261.302C941.021 260.427 940.04 259.923 939.011 260.096C937.724 260.312 936.803 261.512 936.795 262.881L928.063 259.842C928.661 258.748 928.927 257.43 928.734 256.074C928.292 252.974 925.62 250.849 922.765 251.329C922.416 251.387 922.082 251.482 921.763 251.608L909.747 222.648C912.535 221.406 914.328 218.3 914.04 214.944L928.137 209.34C929.026 210.487 930.317 211.23 931.733 211.35L932.855 222.81L932.818 222.816C931.39 223.055 930.412 224.507 930.633 226.057C930.854 227.607 932.19 228.669 933.618 228.429C935.045 228.19 936.023 226.739 935.802 225.188C935.637 224.03 934.849 223.144 933.866 222.87L932.736 211.329C932.804 211.32 932.873 211.31 932.942 211.299C934.136 211.098 935.173 210.473 935.944 209.587L946.717 215.017C946.828 215.489 947.046 215.907 947.337 216.245C948.258 217.436 949.894 217.602 951.002 216.61C951.235 216.402 951.427 216.158 951.575 215.893L993.086 228.351C993.039 228.797 993.056 229.252 993.14 229.696L978.171 234.622C978.1 234.487 978.017 234.357 977.923 234.233C977.004 233.022 975.356 232.849 974.241 233.847C973.126 234.844 972.967 236.634 973.885 237.845C974.804 239.055 976.452 239.229 977.567 238.231C978.314 237.563 978.632 236.538 978.484 235.57L993.433 230.651C993.569 230.965 993.743 231.265 993.955 231.545C995.124 233.085 997.081 233.506 998.668 232.685L1005.29 239.753C1004.69 241.187 1004.85 242.928 1005.83 244.225C1007.21 246.042 1009.68 246.301 1011.35 244.805C1011.42 244.751 1011.47 244.695 1011.53 244.638C1011.57 244.602 1011.6 244.564 1011.64 244.526L1037.91 257.556C1037.44 258.794 1037.35 260.175 1037.66 261.477L1026.09 268.079C1026 267.877 1025.88 267.683 1025.75 267.502C1024.83 266.291 1023.18 266.118 1022.07 267.116C1021.62 267.51 1021.33 268.029 1021.2 268.587L1008.04 263.256C1008.17 262.688 1008.06 262.059 1007.69 261.571C1007.08 260.764 1005.98 260.649 1005.24 261.314C1004.5 261.979 1004.39 263.172 1005 263.979C1005.62 264.786 1006.71 264.902 1007.46 264.237C1007.49 264.206 1007.53 264.173 1007.56 264.14L1021.13 269.636C1021.19 270.161 1021.38 270.676 1021.71 271.114C1022.63 272.325 1024.28 272.498 1025.39 271.5C1026.07 270.888 1026.4 269.978 1026.34 269.086L1037.98 262.445C1038.18 262.93 1038.44 263.395 1038.77 263.825C1040.09 265.565 1042.11 266.316 1044.02 265.994L1049.61 279.365C1048.24 281.079 1048.17 283.661 1049.54 285.469C1051.07 287.487 1053.82 287.776 1055.68 286.114C1057.53 284.452 1057.8 281.468 1056.27 279.45C1054.8 277.516 1052.22 277.171 1050.37 278.608L1044.99 265.733C1045.61 265.5 1046.21 265.144 1046.75 264.663C1047.57 263.925 1048.16 262.987 1048.49 261.967L1080.06 267.808C1080.19 268.813 1080.57 269.794 1081.21 270.635C1082.92 272.897 1085.92 273.348 1088.12 271.771L1108.16 288.604C1106.87 292.037 1107.31 296.113 1109.63 299.177C1110.33 300.09 1111.13 300.843 1112.01 301.43L1108.45 314.218C1107.26 314.207 1106.07 314.631 1105.08 315.514C1103.17 317.227 1102.66 320.111 1103.72 322.426L1088.12 334.873C1086.23 332.721 1083.4 332.02 1080.91 332.904L1078.06 324.161C1078.84 323.975 1079.6 323.589 1080.26 322.996C1082.49 321.002 1082.81 317.422 1080.97 315C1079.14 312.578 1075.84 312.232 1073.61 314.227C1071.38 316.222 1071.06 319.802 1072.9 322.223C1073.96 323.62 1075.5 324.326 1077.05 324.291L1079.99 333.311C1079.52 333.564 1079.06 333.88 1078.64 334.26C1075.67 336.919 1075.24 341.692 1077.69 344.921C1077.84 345.111 1077.99 345.291 1078.14 345.461L1061.27 371.571C1059.45 370.499 1057.14 370.663 1055.45 372.179C1053.22 374.173 1052.9 377.753 1054.73 380.175C1055.53 381.22 1056.59 381.879 1057.73 382.129L1059.98 392.801C1059.34 393.818 1059.36 395.211 1060.12 396.209C1061.04 397.42 1062.69 397.593 1063.8 396.596C1063.83 396.566 1063.87 396.535 1063.9 396.504L1072.47 398.193C1072.59 398.873 1072.85 399.533 1073.26 400.121L1058.96 423.967C1057.88 423.614 1056.66 423.833 1055.73 424.669C1054.24 425.999 1054.03 428.385 1055.25 430C1056.48 431.614 1058.68 431.845 1060.16 430.515C1061.65 429.185 1061.86 426.799 1060.64 425.184C1060.4 424.879 1060.14 424.623 1059.85 424.418L1073.95 400.911C1074.59 401.495 1075.35 401.852 1076.15 401.971L1084.15 416.794C1083.52 418.104 1083.63 419.755 1084.55 420.969C1085.77 422.583 1087.97 422.814 1089.46 421.484C1090.94 420.155 1091.15 417.768 1089.93 416.153C1088.71 414.539 1086.51 414.308 1085.02 415.638C1084.99 415.669 1084.95 415.701 1084.92 415.733C1084.87 415.777 1084.83 415.822 1084.79 415.868L1077.29 401.98C1078.08 401.873 1078.85 401.529 1079.52 400.936C1080.46 400.097 1080.99 398.92 1081.09 397.701L1097.96 392.258C1098.73 392.738 1099.72 392.681 1100.44 392.035C1101.37 391.204 1101.5 389.713 1100.73 388.704C1099.97 387.695 1098.6 387.55 1097.67 388.382C1096.81 389.144 1096.63 390.462 1097.2 391.454L1081.07 396.658C1080.96 395.81 1080.65 394.982 1080.11 394.273C1078.58 392.255 1075.83 391.966 1073.97 393.629C1072.96 394.536 1072.42 395.836 1072.39 397.158L1064.51 395.605C1064.92 394.644 1064.82 393.471 1064.16 392.598C1063.33 391.507 1061.91 391.258 1060.82 391.95L1058.77 382.244C1059.94 382.245 1061.12 381.82 1062.1 380.948C1064.33 378.953 1064.65 375.373 1062.81 372.952C1062.59 372.656 1062.34 372.392 1062.08 372.159L1078.88 346.158C1081.28 348.124 1084.64 348.218 1087.15 346.25L1098.8 356.565C1098.34 357.993 1098.42 359.59 1099.07 360.978L1090.58 367.866C1090.56 367.841 1090.54 367.815 1090.52 367.79C1089.6 366.579 1087.95 366.406 1086.84 367.404C1085.72 368.401 1085.56 370.191 1086.48 371.402C1087.4 372.612 1089.05 372.786 1090.16 371.788C1091 371.043 1091.3 369.855 1091.01 368.797L1099.57 361.852C1099.62 361.912 1099.66 361.97 1099.7 362.029C1100.46 363.021 1101.45 363.665 1102.52 363.942L1103.73 376.858C1102.85 377.884 1102.78 379.487 1103.62 380.6C1104.54 381.811 1106.19 381.984 1107.31 380.986C1108.42 379.989 1108.58 378.199 1107.66 376.988C1106.92 376.009 1105.7 375.708 1104.67 376.158L1103.54 364.094C1104.78 364.145 1106.04 363.723 1107.07 362.802C1107.92 362.038 1108.49 361.041 1108.77 359.966L1125.15 359.815C1125.93 360.663 1127.19 360.743 1128.07 359.962C1129 359.131 1129.13 357.64 1128.36 356.631C1127.6 355.622 1126.22 355.478 1125.3 356.309C1124.6 356.934 1124.35 357.934 1124.59 358.82L1108.95 358.965C1109.08 357.518 1108.7 356.017 1107.78 354.806C1105.94 352.384 1102.65 352.038 1100.42 354.033C1099.91 354.483 1099.51 355.013 1099.2 355.593L1087.9 345.577C1090.41 342.971 1090.77 338.727 1088.72 335.664L1104.22 323.303C1104.27 323.373 1104.32 323.442 1104.37 323.51C1106.21 325.931 1109.5 326.277 1111.73 324.283C1113.96 322.288 1114.28 318.708 1112.45 316.287C1111.65 315.241 1110.59 314.582 1109.45 314.332L1112.9 301.955C1116.16 303.643 1120.16 303.251 1123.13 300.594C1123.53 300.236 1123.9 299.849 1124.24 299.439L1149.89 313.566C1149.05 316.01 1149.41 318.855 1151.04 321.012C1153.49 324.24 1157.89 324.702 1160.86 322.042C1163.83 319.383 1164.26 314.61 1161.81 311.381C1159.36 308.152 1154.97 307.691 1151.99 310.35ZM1054.02 304.771C1051.04 307.431 1050.62 312.204 1053.07 315.433C1053.3 315.743 1053.55 316.028 1053.82 316.286L1041.41 331.497C1039.26 329.427 1036.27 328.828 1033.62 329.826L1021.83 304.006C1022.08 303.861 1022.32 303.687 1022.54 303.485C1024.4 301.823 1024.67 298.839 1023.14 296.821C1021.61 294.803 1018.86 294.515 1017 296.177C1015.14 297.839 1014.88 300.823 1016.41 302.84C1017.53 304.322 1019.31 304.871 1020.91 304.401L1032.72 330.24C1032.19 330.524 1031.69 330.876 1031.22 331.298C1030 332.388 1029.16 333.794 1028.72 335.316L1026.3 334.819C1026.6 333.666 1026.39 332.379 1025.63 331.385C1024.41 329.77 1022.21 329.54 1020.72 330.869C1019.24 332.199 1019.03 334.586 1020.25 336.2C1021.47 337.814 1023.67 338.045 1025.16 336.715C1025.47 336.438 1025.72 336.115 1025.92 335.762L1028.49 336.291C1028.08 338.688 1028.61 341.262 1030.15 343.292C1031.21 344.691 1032.59 345.628 1034.09 346.081L1030.44 373.113C1029.8 373.272 1029.19 373.59 1028.65 374.073C1027.34 375.242 1026.82 377.064 1027.16 378.744L1019.49 381.95C1019.37 381.411 1019.14 380.893 1018.79 380.436C1017.56 378.822 1015.37 378.591 1013.88 379.921C1012.39 381.251 1012.18 383.637 1013.41 385.252C1014.63 386.866 1016.83 387.097 1018.31 385.767C1019.11 385.053 1019.54 384.033 1019.58 382.992L1027.45 379.703C1027.61 380.066 1027.81 380.413 1028.05 380.736C1029.58 382.754 1032.33 383.043 1034.19 381.381C1034.35 381.232 1034.51 381.073 1034.65 380.905L1038.79 382.504C1038.86 382.892 1039.01 383.268 1039.26 383.594C1040.02 384.603 1041.39 384.747 1042.32 383.916C1043.25 383.085 1043.39 381.593 1042.62 380.584C1041.86 379.575 1040.48 379.431 1039.55 380.262C1039.19 380.582 1038.95 381.001 1038.84 381.452L1035.21 380.053C1036.07 378.399 1035.96 376.271 1034.78 374.717C1033.93 373.596 1032.7 373.008 1031.46 372.993L1035.07 346.306C1037.18 346.642 1039.41 346.044 1041.19 344.452C1044.54 341.46 1045.02 336.09 1042.26 332.458C1042.2 332.384 1042.15 332.311 1042.09 332.24L1054.59 316.926C1057.08 318.726 1060.45 318.636 1062.88 316.464C1065.86 313.804 1066.28 309.031 1063.83 305.802C1061.38 302.573 1056.99 302.112 1054.02 304.771ZM864.283 224.749C864.872 228.883 868.435 231.715 872.242 231.076C872.607 231.015 872.962 230.923 873.304 230.805L879.015 250.161C876.26 251.115 874.246 253.639 873.706 256.644L847.249 254.485C847.266 254.157 847.252 253.822 847.204 253.484C846.836 250.901 844.609 249.13 842.23 249.53C839.851 249.93 838.22 252.348 838.588 254.932C838.956 257.515 841.183 259.286 843.563 258.886C845.309 258.593 846.652 257.211 847.097 255.475L873.584 257.637C873.54 258.272 873.562 258.922 873.656 259.579C873.895 261.258 874.57 262.746 875.537 263.928L873.907 265.936C873.147 265.089 872.034 264.641 870.876 264.836C868.972 265.155 867.668 267.09 867.963 269.157C868.257 271.224 870.039 272.64 871.942 272.321C873.845 272.001 875.149 270.066 874.855 267.999C874.794 267.568 874.667 267.165 874.489 266.8L876.221 264.668C877.907 266.28 880.215 267.099 882.609 266.697C884.275 266.417 885.737 265.587 886.863 264.403L906.39 281.588C906.177 282.28 906.109 283.036 906.219 283.806C906.474 285.597 907.622 286.997 909.095 287.555L907.718 296.359C907.248 296.213 906.743 296.173 906.228 296.259C904.515 296.547 903.287 298.144 903.274 299.968L886.696 299.392C886.43 298.638 885.964 297.958 885.314 297.454C884.825 297.075 884.282 296.835 883.727 296.727L886.402 284.831C887.208 284.821 887.999 284.408 888.503 283.641C889.342 282.365 889.069 280.591 887.894 279.679C886.718 278.768 885.085 279.064 884.245 280.341C883.406 281.617 883.679 283.391 884.855 284.303C885.034 284.442 885.225 284.553 885.422 284.637L882.715 296.675C881.604 296.775 880.54 297.384 879.841 298.446C879.46 299.027 879.232 299.675 879.148 300.336L863.98 304.807C863.591 304.103 863.066 303.471 862.411 302.964C860.179 301.233 857.185 301.512 855.255 303.469L844.891 296.121C845.739 294.278 845.252 291.988 843.659 290.753C841.895 289.386 839.445 289.83 838.186 291.745C836.927 293.66 837.336 296.321 839.1 297.688C840.774 298.986 843.067 298.651 844.372 296.976L854.615 304.237C854.578 304.289 854.542 304.343 854.506 304.397C852.949 306.765 853.159 309.923 854.85 312.022L843.604 329.129C841.881 328.083 839.673 328.59 838.5 330.375C837.241 332.29 837.65 334.951 839.414 336.318C841.177 337.685 843.627 337.241 844.886 335.326C846.039 333.571 845.793 331.19 844.387 329.752L855.557 312.76C855.589 312.788 855.621 312.815 855.654 312.842C855.71 312.889 855.767 312.936 855.826 312.981C857.282 314.11 859.063 314.384 860.661 313.894L862.001 319.63C861.633 319.831 861.303 320.129 861.047 320.518C860.208 321.795 860.48 323.569 861.656 324.48C862.832 325.391 864.465 325.095 865.304 323.819C866.144 322.542 865.871 320.768 864.695 319.857C864.171 319.45 863.555 319.284 862.959 319.338L861.597 313.508C862.421 313.073 863.16 312.415 863.731 311.548C864.282 310.709 864.612 309.77 864.733 308.815L935.544 339.72C935.3 340.471 935.164 341.247 935.131 342.024L910.946 347.345C910.819 346.664 910.464 346.032 909.902 345.597C908.726 344.686 907.093 344.982 906.254 346.259C905.414 347.535 905.687 349.309 906.863 350.22C908.038 351.132 909.672 350.836 910.511 349.559C910.753 349.191 910.902 348.782 910.965 348.364L935.148 343.044C935.308 345.178 936.247 347.23 937.882 348.659L917.092 380.284C915.37 379.238 913.162 379.745 911.989 381.53C911.969 381.56 911.949 381.59 911.93 381.621C911.917 381.643 911.903 381.665 911.89 381.687C911.872 381.716 911.855 381.746 911.839 381.775L891.332 382.882C891.15 382.424 890.854 382.012 890.452 381.701C890.183 381.493 889.89 381.347 889.587 381.262L891.534 373.079C892.212 373.269 892.958 373.002 893.389 372.346C893.949 371.495 893.767 370.312 892.983 369.704C892.199 369.097 891.111 369.294 890.551 370.145C890.074 370.87 890.136 371.836 890.649 372.482L888.575 381.199C887.943 381.294 887.344 381.639 886.914 382.208L870.715 367.723C870.74 367.69 870.764 367.655 870.788 367.62C871.347 366.769 871.166 365.586 870.382 364.979C869.598 364.371 868.509 364.568 867.95 365.42C867.39 366.271 867.572 367.453 868.356 368.061C868.819 368.42 869.389 368.498 869.893 368.326L886.447 383.127C886.099 384.277 886.459 385.585 887.413 386.325C888.589 387.236 890.222 386.94 891.062 385.663C891.418 385.121 891.574 384.489 891.545 383.872L911.418 382.8C910.958 384.493 911.504 386.389 912.902 387.473C914.666 388.84 917.116 388.396 918.375 386.481C919.528 384.726 919.281 382.346 917.875 380.908L938.676 349.266C941.179 350.929 944.288 350.792 946.632 349.104L963.209 386.493C962.312 386.961 961.508 387.673 960.89 388.615C960.11 389.8 959.742 391.17 959.754 392.524L946.673 392.649C946.691 391.298 946.119 389.959 945.029 389.114C943.266 387.747 940.816 388.192 939.557 390.107C938.298 392.022 938.707 394.682 940.47 396.049C942.234 397.416 944.684 396.972 945.943 395.057C946.231 394.619 946.432 394.142 946.549 393.65L959.832 393.523C960.083 395.208 960.93 396.789 962.311 397.859C965.054 399.986 968.865 399.295 970.824 396.316C971.316 395.567 971.644 394.745 971.816 393.9L999.584 400.583C999.356 402.129 999.925 403.755 1001.18 404.726C1002.94 406.093 1005.39 405.649 1006.65 403.734C1007.32 402.713 1007.52 401.48 1007.29 400.344L1031.39 398.787C1031.51 399.059 1031.69 399.302 1031.94 399.49C1032.72 400.097 1033.81 399.9 1034.37 399.049C1034.93 398.198 1034.75 397.015 1033.96 396.408C1033.18 395.8 1032.09 395.997 1031.53 396.848C1031.34 397.138 1031.24 397.466 1031.21 397.797L1006.97 399.363C1006.7 398.756 1006.28 398.212 1005.74 397.791C1003.97 396.424 1001.52 396.868 1000.27 398.783C1000.09 399.049 999.949 399.328 999.838 399.616L971.947 392.903C972.037 391.401 971.655 389.888 970.842 388.639L1006.34 368.22C1006.59 369.021 1007.07 369.746 1007.76 370.277C1009.52 371.644 1011.97 371.2 1013.23 369.284C1014.49 367.369 1014.08 364.709 1012.32 363.342C1011.77 362.916 1011.15 362.665 1010.52 362.581L1010.89 350.212C1011.45 350.231 1012.01 349.954 1012.36 349.419C1012.92 348.568 1012.74 347.386 1011.96 346.778C1011.17 346.171 1010.09 346.368 1009.53 347.219C1008.97 348.059 1009.14 349.221 1009.9 349.835L1009.52 362.585C1008.48 362.735 1007.5 363.334 1006.84 364.334C1006.28 365.196 1006.05 366.209 1006.13 367.187L970.229 387.84C969.979 387.563 969.704 387.305 969.403 387.071C968.953 386.723 968.475 386.45 967.981 386.251L969.471 379.99C970.149 380.18 970.895 379.913 971.326 379.257C971.886 378.406 971.704 377.223 970.92 376.615C970.136 376.008 969.047 376.205 968.488 377.056C968.011 377.781 968.073 378.747 968.586 379.393L967.024 385.959C966.057 385.755 965.064 385.81 964.13 386.108L947.429 348.441C947.847 348.042 948.229 347.585 948.566 347.072C949.619 345.469 950.054 343.591 949.923 341.771L959.517 340.888C959.642 342.49 960.39 344.024 961.69 345.032C964.041 346.855 967.308 346.262 968.986 343.709C969.322 343.198 969.569 342.647 969.73 342.078L984.144 346.89C983.929 347.647 984.171 348.501 984.798 348.987C985.582 349.595 986.67 349.397 987.23 348.546C987.789 347.695 987.608 346.513 986.824 345.905C986.156 345.387 985.266 345.454 984.671 346.013L969.923 341.089C970.143 339.095 969.38 337.035 967.768 335.785C967.12 335.283 966.402 334.964 965.667 334.819L967.351 324.772C967.995 324.899 968.678 324.625 969.083 324.009C969.642 323.158 969.461 321.975 968.677 321.368C967.893 320.76 966.804 320.957 966.245 321.808C965.743 322.571 965.837 323.6 966.426 324.243L964.668 334.728C963.058 334.75 961.479 335.576 960.472 337.108C959.914 337.957 959.602 338.915 959.52 339.884L949.794 340.778C949.431 338.858 948.426 337.075 946.84 335.846C945.522 334.824 944.001 334.338 942.496 334.348L942.802 298.475C943.739 298.267 944.609 297.689 945.209 296.777C946.468 294.862 946.059 292.201 944.296 290.834C942.532 289.467 940.082 289.911 938.823 291.826C937.564 293.741 937.973 296.402 939.737 297.769C940.366 298.257 941.083 298.514 941.801 298.556L941.495 334.428C939.557 334.727 937.731 335.854 936.504 337.72C936.277 338.065 936.079 338.423 935.909 338.79L864.782 307.747C864.758 307.056 864.627 306.372 864.395 305.727L879.134 301.381C879.251 302.547 879.807 303.655 880.755 304.389C882.518 305.756 884.968 305.312 886.227 303.397C886.822 302.493 887.044 301.422 886.928 300.4L903.39 300.972C903.84 302.823 905.514 304.043 907.295 303.744C909.198 303.424 910.502 301.489 910.208 299.423C910.05 298.312 909.462 297.389 908.657 296.823L910.07 287.792C910.436 287.833 910.812 287.825 911.193 287.761C913.572 287.361 915.202 284.943 914.834 282.359C914.803 282.137 914.758 281.921 914.7 281.712L918.097 278.643C918.43 278.774 918.798 278.819 919.173 278.756C920.363 278.556 921.178 277.347 920.994 276.055C920.81 274.764 919.696 273.878 918.507 274.078C917.317 274.278 916.502 275.487 916.686 276.779C916.757 277.277 916.966 277.714 917.264 278.052L914.307 280.724C913.435 279.077 911.693 278.097 909.86 278.405C908.538 278.627 907.447 279.472 906.802 280.623L887.505 263.641C888.85 261.837 889.516 259.448 889.164 256.973C888.501 252.323 884.493 249.136 880.21 249.855C880.133 249.868 880.056 249.883 879.979 249.898L874.227 230.404C876.907 228.989 878.547 225.799 878.068 222.433C877.479 218.299 873.916 215.467 870.109 216.106C866.303 216.746 863.694 220.615 864.283 224.749Z" fill="url(#paint0_linear)"/>
</g>
<defs>
<linearGradient id="paint0_linear" x1="82.154" y1="52.9958" x2="455.008" y2="295.198" gradientUnits="userSpaceOnUse">
<stop stop-color="#2F8E94"/>
<stop offset="1" stop-color="#4DB7AD"/>
</linearGradient>
</defs>
</svg>
