<svg width="215" height="43" viewBox="0 0 215 43" fill="none" xmlns="http://www.w3.org/2000/svg">
<path d="M7.56174 39.9272C6.29112 39.1764 5.15237 38.2235 4.19062 37.1063C3.21696 36.0081 2.42263 34.7643 1.83673 33.4203C1.26884 32.0739 0.901083 30.6521 0.745073 29.1999C0.618398 27.7427 0.707216 26.2749 1.00868 24.8434L1.2754 23.7775L1.64445 22.7456C1.70552 22.5706 1.78125 22.4011 1.87085 22.2388L2.10344 21.7414C2.18408 21.5777 2.25541 21.4077 2.34224 21.244L2.62446 20.7713C3.362 19.4939 4.30492 18.3458 5.41563 17.3726C6.52971 16.3912 7.78391 15.5801 9.1372 14.9658C10.51 14.3788 11.9628 13.9987 13.448 13.838L14.5676 13.7546L15.6965 13.7824C16.0714 13.7969 16.4452 13.833 16.816 13.8906L17.3774 13.9616C17.5634 13.9894 17.7464 14.042 17.9294 14.0821C18.2953 14.1748 18.6706 14.2273 19.0272 14.354L20.1034 14.7124C20.8086 14.9927 21.4918 15.3253 22.1472 15.7073C23.4618 16.4715 24.6475 17.437 25.6609 18.5683C26.6768 19.724 27.5131 21.0247 28.142 22.4273C28.774 23.8489 29.1719 25.3627 29.3205 26.9104C29.4855 28.4725 29.3902 30.051 29.0383 31.582C28.3368 34.7141 26.6532 37.5427 24.2312 39.6584C23.8932 39.9272 24.0328 40.369 24.4545 40.1064C27.583 37.9532 29.7856 34.708 30.6261 31.0135C31.4638 27.2613 30.8828 23.3331 28.9945 19.9811C27.1061 16.629 24.0431 14.0886 20.3918 12.8463C16.8528 11.6327 12.9937 11.727 9.51866 13.112C6.22158 14.385 3.4862 16.7844 1.80117 19.8814C0.116136 22.9785 -0.40878 26.5715 0.320195 30.0186C0.820746 32.4214 1.92318 34.6589 3.52494 36.5231C5.12671 38.3874 7.17575 39.8177 9.48144 40.6811C9.866 40.8016 10.2351 40.9622 10.6258 41.058L11.7919 41.3392L12.9828 41.5153C13.3798 41.5647 13.7829 41.5585 14.183 41.5894V41.0889C12.4055 41.1073 10.6426 40.7668 9.00074 40.0878C7.33262 39.3908 5.82181 38.3674 4.55771 37.0784C3.29362 35.7893 2.30194 34.2607 1.64135 32.583C0.966624 30.8682 0.643171 29.0363 0.690041 27.195C0.736912 25.3537 1.15316 23.5404 1.91426 21.8619C2.69518 20.1534 3.81067 18.6175 5.1953 17.3441C6.57993 16.0708 8.20583 15.0858 9.97765 14.4467C11.77 13.8041 13.6732 13.5247 15.5755 13.6249C17.4057 13.7202 19.1983 14.1792 20.8477 14.975C22.4938 15.778 23.9666 16.8937 25.1833 18.2594C26.3974 19.6191 27.3377 21.1988 27.9528 22.9124C28.5572 24.6223 28.8329 26.4304 28.7653 28.2421C28.6315 31.8738 27.1431 35.3253 24.591 37.922C22.0181 40.5456 18.5884 42.1663 14.9211 42.4916C14.4249 42.5534 14.4094 43.0539 14.9211 42.9952C18.7212 42.6677 22.2774 40.9938 24.9445 38.2773C27.5885 35.5895 29.1302 32.0153 29.2677 28.2544C29.3364 26.3794 29.0492 24.5083 28.4211 22.7394C27.788 20.9613 26.8149 19.3223 25.5555 17.9133C24.2945 16.4978 22.7666 15.3431 21.0586 14.5147C19.3542 13.6915 17.5013 13.2177 15.6096 13.1212C13.646 13.0116 11.6803 13.2971 9.82982 13.9606C7.97932 14.6242 6.2819 15.6522 4.83879 16.9833C3.41102 18.3013 2.26266 19.8907 1.46147 21.658C0.66961 23.3985 0.235581 25.2794 0.184981 27.1897C0.13438 29.1 0.468232 31.0011 1.16685 32.7808C1.85963 34.5312 2.89846 36.1251 4.22163 37.4678C5.52901 38.7929 7.08973 39.8435 8.81156 40.5575C10.5148 41.2642 12.3442 41.6195 14.1892 41.6018C14.6637 41.6018 14.6606 41.126 14.1892 41.1013C13.8047 41.0734 13.417 41.0765 13.0355 41.0302L11.8943 40.8634L10.7716 40.5915C10.3963 40.5019 10.0428 40.3443 9.67372 40.23C7.44849 39.4138 5.46869 38.0463 3.92114 36.2565C2.37359 34.4666 1.30934 32.3134 0.828808 30.0001C0.486008 28.4072 0.418881 26.7678 0.630325 25.1524C0.852234 23.5022 1.3568 21.9022 2.12205 20.4221C2.9094 18.9178 3.94999 17.5592 5.19854 16.4056C6.47957 15.2237 7.96404 14.2818 9.58068 13.6249C11.2276 12.9541 12.979 12.5736 14.7568 12.5002C16.5657 12.4273 18.3727 12.6859 20.0879 13.2634C23.6305 14.4333 26.617 16.8612 28.4782 20.084C30.3393 23.3069 30.9449 27.0994 30.1795 30.7385C29.415 34.3236 27.322 37.4899 24.3181 39.6059L24.5476 40.0539C27.049 37.8688 28.7869 34.9469 29.5097 31.7118C29.8802 30.1302 29.985 28.4983 29.8198 26.8826C29.6719 25.2833 29.2656 23.7183 28.6165 22.2481C27.9705 20.7983 27.109 19.4536 26.061 18.2594C25.0031 17.0841 23.766 16.0821 22.3953 15.2902C21.712 14.8892 20.9998 14.5391 20.2647 14.2428L19.1513 13.872C18.7822 13.7454 18.3915 13.6867 18.0131 13.5909C17.8208 13.5507 17.6348 13.4951 17.4425 13.4673L16.8625 13.3931C16.4776 13.3315 16.0892 13.2943 15.6996 13.2819L14.5335 13.251L13.3736 13.3375C11.8344 13.4984 10.3286 13.8912 8.9077 14.5023C7.50834 15.1367 6.21212 15.9761 5.06209 16.9926C3.91499 18.002 2.94172 19.1918 2.18098 20.5148L1.88945 21.0061C1.79952 21.1729 1.72508 21.349 1.64135 21.519L1.39945 22.0318C1.31265 22.201 1.23903 22.3766 1.17926 22.5571L0.794694 23.6292L0.518678 24.7477C0.2064 26.2267 0.114443 27.7435 0.245763 29.2493C0.405441 30.7551 0.786859 32.2292 1.37774 33.6243C1.98294 35.0183 2.80564 36.3082 3.81536 37.4462C4.81386 38.6009 5.99435 39.586 7.31053 40.3628C7.73541 40.6285 7.9649 40.196 7.56174 39.9272Z" fill="white"/>
<path d="M26.2244 34.1671C25.5482 35.3148 24.6889 36.3436 23.6809 37.2124C22.6876 38.0901 21.5636 38.8068 20.3497 39.3363C19.1321 39.8499 17.8462 40.1824 16.5329 40.3233C15.2154 40.4372 13.8885 40.3561 12.5946 40.0828L11.6419 39.8454L10.708 39.5112C10.5503 39.4607 10.3973 39.397 10.2503 39.3207L9.79888 39.1083C9.65256 39.0365 9.48755 38.9709 9.35057 38.8959L8.92405 38.6398C7.77054 37.981 6.73251 37.1369 5.85127 36.1411C4.96281 35.1389 4.22831 34.0093 3.67199 32.7897C3.13909 31.5457 2.79489 30.2286 2.65084 28.8823L2.57612 27.8704L2.61348 26.8521C2.62542 26.5132 2.65765 26.1752 2.70999 25.8402L2.77537 25.3342C2.80028 25.1655 2.84697 25 2.88122 24.8344C2.96528 24.5065 3.01509 24.166 3.12717 23.8412L3.43849 22.8698C3.69359 22.2335 3.99429 21.6166 4.33823 21.0239C5.02909 19.8272 5.90317 18.7468 6.92846 17.8224C7.97349 16.9049 9.14993 16.15 10.4184 15.583C11.7018 15.0146 13.0687 14.6591 14.4657 14.5304C15.8771 14.3804 17.3036 14.4659 18.6872 14.7834C21.5185 15.4129 24.0765 16.9302 25.9909 19.1155C26.2338 19.4278 26.6323 19.2935 26.3957 18.9125C24.4502 16.0868 21.518 14.0971 18.1798 13.3372C14.7898 12.5813 11.241 13.1062 8.2127 14.8114C5.18439 16.5166 2.88928 19.2824 1.76667 22.5793C0.667541 25.7741 0.752645 29.2592 2.0064 32.3961C2.89483 34.6298 4.3532 36.5897 6.23515 38.0792C8.1171 39.5687 10.3564 40.5354 12.7285 40.8824C14.2421 41.0828 15.7786 41.0268 17.2738 40.7168C19.444 40.2604 21.4641 39.2612 23.1465 37.812C24.8288 36.3628 26.1189 34.5106 26.8969 32.4274C27.0059 32.0807 27.1491 31.7465 27.2362 31.3967L27.4915 30.341L27.6503 29.2665C27.6939 28.9073 27.6908 28.5419 27.7157 28.1827H27.2643C27.2826 29.7896 26.9754 31.3835 26.3614 32.8678C25.7377 34.3684 24.8198 35.7279 23.6622 36.8657C22.4937 38.0196 21.1056 38.9256 19.5807 39.53C18.031 40.1388 16.3755 40.4307 14.7117 40.3883C13.0478 40.3459 11.4093 39.9702 9.89228 39.2832C8.34972 38.5752 6.9633 37.5659 5.81402 36.3142C4.66475 35.0626 3.77568 33.5936 3.19877 31.9932C2.61758 30.372 2.36462 28.6507 2.4547 26.9302C2.54084 25.2797 2.95581 23.6633 3.6751 22.1764C5.13822 19.1757 7.71573 16.8702 10.8543 15.7547C12.3981 15.2071 14.0311 14.9571 15.6674 15.0176C18.9467 15.1412 22.0624 16.4864 24.4063 18.7907C26.7787 21.1127 28.2461 24.2088 28.5438 27.5205C28.5967 27.9672 29.0513 27.9828 28.9952 27.5205C28.6999 24.0889 27.1877 20.8773 24.7332 18.469C22.9211 16.6835 20.6469 15.4428 18.1681 14.8874C15.6893 14.3321 13.105 14.4843 10.708 15.3268C7.45599 16.4813 4.78468 18.8686 3.26726 21.9765C2.51974 23.5159 2.0858 25.1893 1.99083 26.899C1.90218 28.6797 2.16782 30.4603 2.77226 32.1369C3.36942 33.7934 4.29029 35.3137 5.48085 36.6084C6.67142 37.9031 8.10771 38.9463 9.70548 39.6768C11.2756 40.3885 12.9716 40.7789 14.694 40.825C16.4164 40.8712 18.1306 40.5721 19.7364 39.9454C21.3169 39.3185 22.7565 38.3808 23.9704 37.1874C25.1722 36.0073 26.1251 34.5967 26.7724 33.0396C27.41 31.5024 27.7278 29.8507 27.7063 28.1858C27.7063 27.7548 27.2798 27.761 27.2549 28.1858C27.23 28.5325 27.2331 28.8823 27.1895 29.2259L27.0401 30.2597L26.7942 31.2717C26.7163 31.6122 26.5731 31.9308 26.4828 32.265C25.9914 33.5768 25.29 34.7995 24.4063 35.885C23.5128 36.9932 22.4405 37.9434 21.2339 38.696C20.0007 39.4363 18.6527 39.9642 17.2458 40.2577C15.8087 40.5671 14.3298 40.6305 12.8717 40.4451C11.3833 40.2386 9.94095 39.7792 8.6065 39.0864C7.24252 38.3774 6.01037 37.4381 4.96399 36.3097C3.89847 35.1517 3.04859 33.8114 2.4547 32.3524C1.84965 30.8611 1.50628 29.2761 1.43978 27.6673C1.37833 26.0337 1.61466 24.4026 2.13715 22.8542C3.19369 19.6552 5.38701 16.9583 8.29876 15.2779C11.2105 13.5975 14.6369 13.0512 17.9245 13.7433C21.1632 14.4327 24.0236 16.3221 25.9349 19.0343L26.3396 18.825C24.3658 16.5636 21.7261 14.9907 18.8024 14.3336C15.9348 13.6974 12.9403 13.9837 10.2441 15.1519C8.93031 15.7406 7.71277 16.5251 6.6327 17.4789C5.56987 18.4337 4.66416 19.5511 3.94907 20.7896C3.59312 21.4028 3.28101 22.0405 3.01509 22.698L2.68509 23.7038C2.56989 24.038 2.51697 24.3909 2.4298 24.7314C2.39244 24.9031 2.34263 25.0718 2.31772 25.2467L2.25234 25.7714C2.19614 26.1208 2.16183 26.4734 2.14961 26.8271L2.12159 27.8797L2.19942 28.9292C2.34655 30.3176 2.70129 31.6759 3.2517 32.9583C3.82588 34.2228 4.58449 35.3944 5.50258 36.4347C6.41539 37.4703 7.49 38.3501 8.68433 39.0396L9.12953 39.3019C9.27896 39.3832 9.44085 39.4487 9.5934 39.5237L10.0573 39.7423C10.2104 39.8217 10.3697 39.8886 10.5336 39.9422L11.4987 40.2858L12.4981 40.5357C13.8378 40.8205 15.2123 40.9037 16.5764 40.7824C17.9374 40.6393 19.2697 40.2952 20.5303 39.7611C21.7885 39.2189 22.9537 38.4811 23.9829 37.5747C25.0267 36.6746 25.9164 35.6089 26.6167 34.4201C26.8595 34.0109 26.4579 33.8017 26.2244 34.1671Z" fill="white"/>
<path d="M11.9711 36.444C9.83188 35.6715 8.03339 34.1716 6.89097 32.2075C6.04916 30.7517 5.61956 29.0947 5.64814 27.4139C5.67672 25.7332 6.1624 24.0917 7.05322 22.6653C7.94404 21.2389 9.20649 20.081 10.7055 19.3157C12.2045 18.5504 13.8837 18.2064 15.5635 18.3205C16.7458 18.3862 17.9053 18.6728 18.9818 19.1653C20.0852 19.6763 21.083 20.3891 21.9235 21.2668C22.7858 22.1632 23.47 23.2147 23.9397 24.3657C24.9169 26.7753 24.9431 29.4652 24.013 31.8933C23.5353 33.135 22.8239 34.2738 21.9174 35.2484C20.0463 37.2881 17.4471 38.5117 14.6806 38.6553C14.3171 38.6828 14.3202 38.9878 14.6806 38.9908C16.1952 39.0477 17.7044 38.7804 19.107 38.207C20.5234 37.6313 21.8033 36.7658 22.8644 35.6663C23.9249 34.5761 24.7494 33.2797 25.2865 31.8577C25.8236 30.4356 26.0618 28.9185 25.9864 27.4006C25.9205 25.9187 25.5528 24.4659 24.9057 23.1307C24.2587 21.7956 23.3458 20.6061 22.2229 19.6351C21.1451 18.6964 19.8905 17.982 18.5327 17.5336C17.2048 17.0958 15.8032 16.9247 14.4088 17.0303C13.0585 17.1367 11.7419 17.5045 10.5323 18.1131C9.36045 18.7049 8.31474 19.518 7.45305 20.5074C5.77497 22.4108 4.89927 24.8885 5.00923 27.4219C5.11693 29.8263 6.11334 32.1055 7.80593 33.8192C9.49853 35.5328 11.7672 36.5593 14.1735 36.7002C14.4332 36.7246 14.479 36.4196 14.2408 36.3739C12.0077 36.0682 9.95329 34.9886 8.43669 33.3238C6.96318 31.6978 6.13065 29.5931 6.09368 27.4006C6.04966 25.1492 6.87055 22.9664 8.38781 21.3004C9.16825 20.4397 10.1094 19.7393 11.1585 19.2385C12.236 18.7236 13.4051 18.4271 14.5982 18.3662C15.7385 18.317 16.877 18.4975 17.9461 18.8968C19.0151 19.296 19.9927 19.906 20.8207 20.6904C22.5101 22.2751 23.5608 24.4219 23.7747 26.7265C23.9751 29.0313 23.4046 31.3375 22.1526 33.2842C21.5207 34.2804 20.7422 35.176 19.8432 35.9408C18.9066 36.7442 17.8528 37.4004 16.7182 37.8867C16.4127 38.0301 16.6113 38.3168 16.932 38.1673C19.16 37.1957 21.0515 35.5894 22.3695 33.5495C22.9966 32.5737 23.4686 31.5067 23.7686 30.3866C24.062 29.2721 24.1653 28.1162 24.0741 26.9674C23.9223 24.6477 22.9476 22.458 21.3248 20.791C20.5244 19.9656 19.5778 19.2954 18.5327 18.8146C17.496 18.3463 16.3794 18.0792 15.2427 18.0277C14.0193 17.9799 12.7988 18.177 11.6528 18.6072C10.5068 19.0373 9.45852 19.692 8.56964 20.5326C7.68077 21.3732 6.96922 22.3829 6.47687 23.5021C5.98451 24.6213 5.72128 25.8275 5.70267 27.0498C5.66827 29.37 6.49652 31.6206 8.02735 33.3665C9.6021 35.1661 11.7687 36.3451 14.1369 36.6911L14.2072 36.3647C12.4457 36.2573 10.7496 35.6587 9.31174 34.6371C7.87385 33.6155 6.7517 32.2117 6.07276 30.5853C5.39382 28.9588 5.18529 27.1749 5.47085 25.436C5.75642 23.6972 6.52465 22.0731 7.68827 20.7483C8.52052 19.7912 9.52968 19.0031 10.6606 18.4272C11.8297 17.8357 13.1026 17.4763 14.4088 17.3689C15.7509 17.268 17.0998 17.4297 18.38 17.8447C19.7006 18.277 20.9218 18.9675 21.9724 19.876C23.0645 20.8156 23.9538 21.9672 24.5861 23.2608C25.2184 24.5543 25.5805 25.9628 25.6503 27.4006C25.7267 28.8765 25.4979 30.3523 24.9782 31.736C24.4584 33.1198 23.6588 34.3819 22.6292 35.4436C21.5978 36.5089 20.3557 37.3482 18.9818 37.9081C17.6184 38.4632 16.1519 38.7211 14.6806 38.6645V39C17.5295 38.861 20.2096 37.6101 22.1434 35.5168C23.0901 34.5105 23.8347 33.3322 24.3368 32.0458C24.8198 30.7886 25.0603 29.4516 25.0455 28.1051C25.032 26.7902 24.7708 25.4896 24.2757 24.2712C23.7914 23.0801 23.0855 21.9913 22.1954 21.0625C21.3238 20.1512 20.2886 19.4115 19.1437 18.8817C17.504 18.1226 15.6867 17.8286 13.8909 18.0319C12.095 18.2353 10.3899 18.9281 8.96211 20.0346C7.14247 21.4626 5.90253 23.5004 5.47177 25.7709C5.04101 28.0414 5.4486 30.3908 6.6191 32.3844C7.80625 34.4216 9.67567 35.9749 11.8977 36.7704C12.1788 36.871 12.249 36.5508 11.9711 36.444Z" fill="white"/>
<path d="M38.0799 17.583C37.3936 17.7513 36.6826 17.8104 35.9759 17.7579C35.2734 17.7148 34.5823 17.5689 33.927 17.3253C33.2748 17.0718 32.6645 16.7308 32.1148 16.3128C31.5751 15.8825 31.1044 15.3802 30.7176 14.8216L30.4453 14.392L30.2184 13.9379C30.1796 13.8634 30.146 13.7865 30.1179 13.7078L30.0271 13.4715C29.9979 13.3948 29.9655 13.3151 29.9396 13.2353L29.8747 12.9929C29.6876 12.3438 29.6143 11.6701 29.6575 10.9985C29.7017 10.325 29.8502 9.6613 30.0984 9.02869C30.3648 8.39835 30.7286 7.80895 31.1779 7.27977L31.5313 6.8901L31.9236 6.53725C32.0563 6.42134 32.1959 6.31275 32.3418 6.21201L32.5557 6.05553C32.6303 6.00337 32.7081 5.96042 32.7859 5.91439C32.9415 5.82848 33.0874 5.72416 33.2527 5.65052L33.739 5.4204C34.0748 5.28464 34.4204 5.17185 34.7732 5.08289C35.4842 4.90407 36.2203 4.8316 36.9549 4.86811C37.6942 4.91272 38.4221 5.06271 39.114 5.31301C39.8135 5.56928 40.4639 5.93203 41.0397 6.38691C41.6305 6.84 42.1359 7.38468 42.5342 7.99775C43.3611 9.2315 43.7528 10.6819 43.6526 12.1399C43.6299 12.3332 43.8277 12.4467 43.8828 12.2105C44.2084 10.5127 43.8498 8.76108 42.8778 7.30125C41.8825 5.82082 40.3452 4.73989 38.5603 4.26547C36.7753 3.79104 34.8682 3.95646 33.2041 4.73004C31.5902 5.47418 30.313 6.74292 29.6056 8.30457C28.9233 9.77453 28.8137 11.4258 29.2962 12.9651C29.7788 14.5043 30.8223 15.8318 32.2413 16.7116C32.9067 17.1338 33.6435 17.4451 34.4198 17.6321C35.9516 17.9737 37.5599 17.8226 38.9908 17.2026C39.1627 17.1197 39.3442 17.0522 39.5095 16.9571L40.0023 16.6717L40.4659 16.3465C40.6183 16.236 40.7544 16.1041 40.9003 15.9844L40.735 15.8218C40.1381 16.3999 39.4234 16.8571 38.6342 17.1657C37.8337 17.4783 36.9748 17.6348 36.1088 17.626C35.2341 17.6195 34.3697 17.4462 33.5672 17.1166C32.7519 16.7812 32.016 16.2941 31.4035 15.6842C30.7909 15.0744 30.314 14.3543 30.0012 13.5667C29.6812 12.7648 29.5347 11.9102 29.5704 11.0538C29.606 10.1973 29.8231 9.3563 30.2086 8.58072C30.5977 7.79591 31.1489 7.09276 31.8296 6.51271C32.4832 5.95532 33.2482 5.52757 34.0794 5.25472C35.7604 4.70753 37.6013 4.80782 39.2048 5.53393C40.3865 6.07111 41.3855 6.91093 42.0886 7.95814C42.7917 9.00535 43.1707 10.2181 43.1826 11.4588C43.2028 13.1338 42.59 14.7606 41.4547 16.0458C41.3088 16.2238 41.4741 16.3895 41.6297 16.2023C42.8073 14.8746 43.4444 13.1921 43.4257 11.4588C43.4079 9.74206 42.7144 8.09335 41.4806 6.83487C40.8648 6.20666 40.1289 5.69444 39.3118 5.32529C37.6514 4.57714 35.7474 4.4747 34.0081 5.03994C33.1481 5.32197 32.3566 5.76434 31.6804 6.34088C30.9727 6.93813 30.3997 7.66451 29.9958 8.47647C29.592 9.28842 29.3655 10.1692 29.3301 11.066C29.2933 11.9484 29.4432 12.8288 29.771 13.6556C30.0959 14.4714 30.5899 15.2174 31.2241 15.8498C31.8582 16.4821 32.6196 16.988 33.4635 17.3376C34.2959 17.6789 35.192 17.8594 36.0991 17.8684C36.9959 17.8766 37.8855 17.7149 38.7153 17.3928C39.5383 17.0665 40.2819 16.584 40.9003 15.9752C41.0656 15.8249 40.9003 15.6684 40.7317 15.8096C40.5631 15.9507 40.4626 16.0489 40.3168 16.1593L39.8726 16.4662L39.3993 16.7392C39.2405 16.8313 39.0751 16.8957 38.9033 16.9755C38.2236 17.269 37.4974 17.4545 36.754 17.5247C35.2264 17.6743 33.6911 17.321 32.4066 16.5245C31.7492 16.1301 31.1672 15.6331 30.6852 15.0548C29.699 13.8222 29.1949 12.3041 29.2588 10.7592C29.2905 9.96544 29.4739 9.1837 29.8002 8.45185C30.1299 7.70604 30.5951 7.02066 31.1747 6.42679C31.765 5.82164 32.467 5.32357 33.2463 4.95709C34.85 4.19053 36.6963 4.01116 38.4312 4.45336C40.1661 4.89557 41.6675 5.92823 42.6477 7.35341C43.5985 8.75739 43.9572 10.4483 43.6526 12.0908L43.8828 12.1614C43.9901 10.6503 43.587 9.14598 42.7319 7.86581C42.3158 7.23706 41.7922 6.67817 41.1823 6.21201C40.587 5.74106 39.9148 5.36489 39.1918 5.09823C38.475 4.83902 37.7208 4.68386 36.9549 4.63799C36.1911 4.59665 35.4252 4.67018 34.6856 4.85584C34.3205 4.94751 33.9629 5.06442 33.6158 5.20562L33.1101 5.44188C32.9415 5.51859 32.7859 5.62598 32.6271 5.71802C32.5455 5.76211 32.4665 5.81025 32.3904 5.86223L32.1667 6.02485C32.0151 6.12799 31.871 6.24075 31.7355 6.36236L31.3271 6.72442L30.964 7.12636C30.4958 7.67391 30.1176 8.28525 29.8423 8.93971C29.584 9.59466 29.4299 10.2823 29.3852 10.9801C29.3396 11.6752 29.4141 12.3726 29.6056 13.045L29.6737 13.2966C29.7029 13.3795 29.7353 13.4593 29.7677 13.5421L29.8585 13.7876C29.888 13.8697 29.9238 13.9497 29.9655 14.0269L30.1989 14.4963L30.481 14.9412C30.8814 15.5175 31.3697 16.0344 31.9301 16.4754C32.4968 16.912 33.1295 17.2657 33.8071 17.5247C34.4882 17.7784 35.2067 17.9306 35.937 17.9758C36.6761 18.0366 37.4207 17.9827 38.1415 17.8162C38.3781 17.7548 38.3068 17.537 38.0799 17.583Z" fill="white"/>
<path d="M41.6399 9.51634C41.7829 10.1562 41.8334 10.8187 41.7893 11.4774C41.754 12.1347 41.6295 12.7816 41.4201 13.3946C41.1992 14.002 40.9032 14.5694 40.5412 15.0794C40.1729 15.5823 39.7425 16.0205 39.2639 16.38L38.8947 16.6327L38.508 16.845C38.4444 16.8813 38.3788 16.9128 38.3117 16.9393L38.1096 17.0236C38.0422 17.0505 37.9748 17.0809 37.9074 17.1044L37.6994 17.1685C37.1434 17.3422 36.5663 17.4094 35.9914 17.3673C35.4143 17.3267 34.8456 17.1882 34.3038 16.9562C33.7634 16.7079 33.2586 16.3671 32.8068 15.9453L32.4728 15.6084L32.1798 15.2411C32.0741 15.1202 31.9762 14.9907 31.8868 14.8536L31.7521 14.6515C31.7081 14.5841 31.673 14.5099 31.6319 14.4392C31.5587 14.2943 31.4679 14.1595 31.4064 14.0045L31.2071 13.5496C31.0903 13.2377 30.9924 12.9168 30.9142 12.5893C30.7603 11.9308 30.698 11.2485 30.7296 10.5676C30.7683 9.87567 30.8967 9.19425 31.1105 8.54593C31.3398 7.89748 31.6584 7.29565 32.0538 6.76346C32.4401 6.21517 32.9024 5.74387 33.422 5.36849C34.4813 4.59554 35.7268 4.22976 36.9787 4.32395C37.1457 4.34416 37.2306 4.15884 37.0402 4.11167C35.5838 3.8041 34.0801 4.13724 32.8273 5.04502C31.5597 5.97286 30.6342 7.40566 30.2277 9.06925C29.8212 10.7328 29.9624 12.5104 30.6241 14.0618C31.2608 15.5728 32.3499 16.7691 33.6915 17.4313C34.9502 18.0706 36.3654 18.1746 37.6845 17.7246C39.0036 17.2747 40.1407 16.3001 40.8928 14.9749C41.42 14.053 41.7354 12.9925 41.8097 11.8924C41.884 10.7923 41.7147 9.68854 41.3176 8.68408C41.2444 8.52234 41.1887 8.34713 41.1067 8.20224L40.8635 7.74062L40.5705 7.30932C40.4738 7.1678 40.3625 7.04313 40.26 6.90498L40.1164 7.05998C40.612 7.61693 41.0038 8.28418 41.2678 9.02103C41.5361 9.76868 41.6706 10.5709 41.6633 11.3797C41.6473 12.6201 41.3071 13.8264 40.6869 14.8414C40.0666 15.8564 39.1951 16.6332 38.1857 17.0708C37.5013 17.3648 36.7728 17.4986 36.0428 17.4645C35.3128 17.4303 34.5961 17.2289 33.9347 16.872C33.2627 16.5074 32.6603 15.9932 32.1622 15.359C31.6852 14.7492 31.3195 14.0354 31.087 13.2599C30.8526 12.4844 30.753 11.6635 30.794 10.8439C30.8812 9.19804 31.5172 7.6543 32.5695 6.53434C33.6054 5.42555 34.9631 4.79977 36.3781 4.77883C37.8116 4.75795 39.2043 5.32811 40.3039 6.38608C40.4592 6.52423 40.5969 6.38608 40.4416 6.22434C39.3068 5.12246 37.8662 4.52475 36.381 4.53959C34.9155 4.55951 33.5089 5.20567 32.4347 6.35238C31.8974 6.92689 31.459 7.61277 31.1427 8.37408C30.8278 9.13744 30.6438 9.96342 30.6007 10.8069C30.5552 11.6554 30.6547 12.5059 30.8937 13.3104C31.1357 14.1124 31.5153 14.8503 32.0099 15.4804C32.7756 16.4656 33.7821 17.1619 34.8976 17.4782C36.0132 17.7944 37.1858 17.7158 38.2619 17.2527C38.9615 16.9519 39.6019 16.4937 40.1457 15.9049C40.9521 15.0313 41.5094 13.8973 41.7442 12.6522C41.9791 11.4071 41.8804 10.1094 41.4612 8.93005C41.1857 8.17095 40.7802 7.4834 40.2688 6.90835C40.1399 6.75672 40.008 6.90835 40.1252 7.06335C40.2424 7.21834 40.3332 7.31606 40.4182 7.45084L40.6877 7.86866L40.9221 8.31006C41.0012 8.45495 41.0539 8.61668 41.1242 8.77168C41.374 9.40513 41.5323 10.0811 41.593 10.7732C41.6564 11.4744 41.6168 12.1829 41.4758 12.869C41.3267 13.5645 41.0771 14.2262 40.7375 14.8267C40.393 15.432 39.9633 15.9672 39.466 16.4103C38.4097 17.329 37.1096 17.7992 35.7863 17.7413C35.1069 17.7121 34.4377 17.5408 33.8117 17.2359C33.1731 16.9285 32.5862 16.4951 32.0773 15.9555C31.5585 15.4064 31.1324 14.7519 30.8204 14.0247C30.1646 12.5302 30.0112 10.81 30.3897 9.19349C30.7681 7.577 31.6517 6.17786 32.8712 5.26403C34.0727 4.36818 35.5231 4.02423 36.9347 4.30036L36.9963 4.08471C35.6997 3.98831 34.4101 4.36826 33.3136 5.16969C32.2514 5.96005 31.4317 7.11383 30.9698 8.46843C30.7456 9.13618 30.6122 9.83967 30.5743 10.5541C30.5394 11.2631 30.6027 11.974 30.7618 12.6601C30.8383 13.0047 30.9362 13.3425 31.0548 13.6709L31.2599 14.1427C31.3273 14.2977 31.4181 14.4425 31.4942 14.5908C31.5353 14.6649 31.5733 14.7424 31.6173 14.8132L31.7579 15.0187C31.8482 15.1604 31.946 15.2954 32.0509 15.4231L32.3644 15.8005L32.7071 16.1374C33.6408 17.0228 34.7975 17.539 36.006 17.6099C36.5979 17.6505 37.1917 17.5799 37.7638 17.401L37.9777 17.3403C38.051 17.3134 38.1183 17.283 38.1887 17.2527L38.3967 17.1685C38.4669 17.1414 38.5355 17.1088 38.6017 17.0708L39.006 16.8517L39.3869 16.5855C40.3904 15.8457 41.1671 14.7628 41.6076 13.489C41.8241 12.8464 41.9516 12.1688 41.9856 11.4808C42.0283 10.8016 41.9759 10.119 41.8303 9.45906C41.7864 9.23667 41.5989 9.30743 41.6399 9.51634Z" fill="white"/>
<path d="M38.6925 15.4491C37.7433 15.8737 36.6682 15.9659 35.6551 15.7095C34.9094 15.5145 34.2327 15.1304 33.6967 14.5978C33.1607 14.0652 32.7855 13.4039 32.6107 12.6841C32.4359 11.9643 32.4681 11.2127 32.7038 10.5089C32.9395 9.80514 33.37 9.1754 33.9497 8.6864C34.3581 8.33528 34.8316 8.06034 35.3459 7.87581C36.4211 7.50174 37.6045 7.52996 38.6588 7.95482C39.2004 8.17244 39.6939 8.48622 40.1132 8.87954C40.5467 9.2796 40.8959 9.75543 41.1419 10.2812C41.6473 11.3767 41.6944 12.6155 41.2736 13.7431C41.0585 14.3154 40.7288 14.8422 40.303 15.294C40.1958 15.4169 40.303 15.5105 40.4163 15.3964C40.9277 14.9412 41.3326 14.3877 41.6043 13.7723C41.8769 13.1521 42.0114 12.4844 41.9992 11.8117C41.9874 11.1404 41.8313 10.4787 41.5406 9.86752C41.2498 9.25637 40.8306 8.70891 40.3091 8.25916C39.8039 7.81818 39.2099 7.48021 38.5634 7.26588C37.917 7.05155 37.2316 6.96536 36.5492 7.01255C35.89 7.05604 35.2467 7.22519 34.657 7.51003C34.0828 7.78679 33.5718 8.16973 33.1536 8.63665C32.7448 9.08834 32.4328 9.61229 32.2351 10.1788C32.0448 10.7281 31.9689 11.3077 32.0115 11.8849C32.0838 13.0048 32.6086 14.0541 33.4751 14.8112C34.2951 15.5267 35.3633 15.9268 36.4736 15.9343C37.5839 15.9419 38.6579 15.5564 39.4885 14.8521C39.5804 14.779 39.4885 14.6648 39.4028 14.7292C38.5744 15.3278 37.5529 15.6302 36.5155 15.5837C35.5063 15.5363 34.5492 15.1413 33.8211 14.4717C33.0658 13.7803 32.6193 12.8367 32.5749 11.838C32.5484 11.3196 32.6292 10.8013 32.8125 10.3127C32.9959 9.82411 33.2783 9.37489 33.6435 8.99074C33.9976 8.61971 34.4262 8.32068 34.9039 8.11153C35.3816 7.90237 35.8984 7.78737 36.4236 7.77339C37.4973 7.74288 38.5449 8.09193 39.3661 8.75371C40.1834 9.4099 40.7507 10.306 40.9797 11.3025C41.0972 11.8103 41.1353 12.332 41.0929 12.8505C41.05 13.3928 40.9209 13.9256 40.7102 14.4307C40.6582 14.5712 40.8143 14.5975 40.8725 14.4512C41.2862 13.4502 41.38 12.3545 41.1419 11.3025C41.0272 10.8031 40.8331 10.3235 40.5663 9.88033C40.3001 9.43825 39.9574 9.04248 39.5528 8.70981C38.747 8.03379 37.7162 7.65319 36.6441 7.63586C36.1132 7.62986 35.5858 7.71817 35.0887 7.8963C34.5978 8.07357 34.1468 8.33875 33.7599 8.67762C33.3282 9.0584 32.9841 9.52079 32.7494 10.0354C32.5195 10.5364 32.4007 11.0774 32.4004 11.6244C32.3935 12.6836 32.8224 13.7031 33.5945 14.4629C34.3396 15.1974 35.3433 15.6416 36.4114 15.7095C37.5067 15.7771 38.5916 15.4712 39.4732 14.8463L39.3906 14.7234C38.5967 15.3986 37.5721 15.7733 36.5094 15.7768C35.4328 15.7764 34.3953 15.3912 33.6006 14.697C32.765 13.9725 32.2558 12.9666 32.18 11.8907C32.1376 11.3327 32.2093 10.7721 32.3912 10.2403C32.5786 9.69478 32.8761 9.18973 33.2669 8.75371C33.6669 8.29683 34.1582 7.92078 34.7121 7.64756C35.2909 7.36855 35.9221 7.20283 36.5689 7.16011C37.2156 7.1174 37.8647 7.19856 38.4781 7.39883C39.1223 7.60914 39.7144 7.94386 40.2175 8.38218C40.7206 8.8205 41.1239 9.35305 41.4025 9.94671C41.6811 10.5404 41.8289 11.1825 41.8367 11.833C41.8445 12.4836 41.7123 13.1288 41.4481 13.7284C41.1858 14.3262 40.7921 14.8631 40.2938 15.3028L40.4071 15.4052C41.0581 14.7164 41.4868 13.8623 41.6417 12.9459C41.7965 12.0296 41.6708 11.0899 41.2797 10.2403C40.774 9.15925 39.8614 8.29956 38.7231 7.83192C38.1757 7.61213 37.5898 7.493 36.9962 7.48076C36.4174 7.46814 35.8412 7.55844 35.2969 7.74706C34.5146 8.02031 33.8262 8.4942 33.3072 9.11674C32.7881 9.73927 32.4585 10.4864 32.3545 11.2762C32.2287 12.2888 32.4914 13.3106 33.0939 14.1522C33.6963 14.9938 34.5976 15.598 35.6306 15.8529C36.6819 16.1192 37.7979 16.0218 38.7813 15.5779C38.9037 15.5164 38.818 15.3906 38.6925 15.4491Z" fill="white"/>
<path d="M22.8903 0.697088C23.2283 0.872962 23.5348 1.10285 23.7977 1.37757C24.063 1.64751 24.2836 1.95752 24.4514 2.29608C24.6158 2.63244 24.7298 2.99097 24.7895 3.36021C24.8439 3.73163 24.8439 4.10892 24.7895 4.48034L24.7331 4.76037L24.6514 5.04041C24.6397 5.08569 24.6236 5.12976 24.6035 5.17202L24.55 5.30364C24.5331 5.34844 24.5162 5.39045 24.4964 5.43526L24.4288 5.55847C24.2563 5.89747 24.0288 6.2059 23.7554 6.47138C23.4811 6.73769 23.1687 6.96227 22.8284 7.13786C22.4825 7.30687 22.113 7.423 21.7323 7.4823L21.4505 7.5187H21.1687C21.0746 7.51924 20.9805 7.51456 20.887 7.5047H20.7404C20.6921 7.49997 20.6442 7.49249 20.5967 7.4823C20.5009 7.4627 20.4051 7.4543 20.315 7.42629L20.0332 7.34788C19.8486 7.28411 19.6687 7.20738 19.495 7.11826C19.1287 6.94747 18.7927 6.71858 18.5004 6.44058C18.2216 6.15621 17.9878 5.8314 17.8072 5.47726C17.4444 4.7513 17.3221 3.92985 17.4578 3.13058C17.5976 2.31733 17.992 1.56865 18.5849 0.991124C18.6694 0.918315 18.6272 0.806301 18.5229 0.87911C17.7508 1.47178 17.2293 2.32965 17.0605 3.2846C16.8884 4.26237 17.0865 5.26886 17.6166 6.11011C18.1468 6.95136 18.9715 7.56784 19.9318 7.84074C20.8599 8.10977 21.8547 8.03617 22.7326 7.63352C23.3555 7.34711 23.8916 6.90294 24.2873 6.34556C24.6829 5.78819 24.9242 5.13721 24.9867 4.45794C25.023 4.02438 24.9849 3.58786 24.874 3.16698C24.7676 2.75399 24.5913 2.36196 24.3527 2.00765C24.113 1.66174 23.818 1.35715 23.4793 1.10594C23.1441 0.859311 22.7698 0.670021 22.3719 0.54587C22.2733 0.517867 22.1747 0.481463 22.0732 0.46186L21.7689 0.405854L21.459 0.37505C21.3575 0.37505 21.2533 0.37505 21.149 0.37505V0.503865C21.6072 0.476083 22.0664 0.540861 22.4987 0.694288C22.9403 0.849302 23.3461 1.09075 23.6921 1.40436C24.0382 1.71797 24.3174 2.09737 24.5133 2.52011C24.7097 2.94999 24.817 3.41473 24.8289 3.88667C24.8428 4.36503 24.7594 4.84124 24.5838 5.28684C24.3085 5.96231 23.8356 6.54013 23.2263 6.94553C22.6169 7.35092 21.8992 7.56523 21.1659 7.56071C20.6932 7.56061 20.2255 7.46535 19.7909 7.28068C19.3544 7.0974 18.9589 6.82994 18.6272 6.49378C18.2956 6.1588 18.0325 5.76321 17.8523 5.32884C17.672 4.89717 17.5763 4.43523 17.5705 3.96788C17.5602 3.03352 17.9008 2.12892 18.5257 1.43078C19.1549 0.722495 20.0186 0.261555 20.9602 0.131421C21.087 0.109018 21.0842 -0.0197974 20.9602 0.00260528C19.9813 0.133229 19.0822 0.609307 18.4271 1.34397C17.781 2.07025 17.4304 3.00974 17.4437 3.97908C17.4478 4.4593 17.5434 4.93439 17.7255 5.37925C18.1017 6.28852 18.8221 7.01459 19.7317 7.40109C20.1822 7.58865 20.6662 7.6839 21.1546 7.68112C21.9164 7.68857 22.6627 7.46717 23.2957 7.04594C23.9287 6.6247 24.4189 6.02328 24.7021 5.32044C24.9777 4.63601 25.0377 3.88457 24.8742 3.16551C24.7106 2.44646 24.3313 1.79369 23.7864 1.29356C23.4319 0.969173 23.0149 0.719583 22.5607 0.559872C22.1101 0.397067 21.6302 0.329354 21.1518 0.361048C21.0278 0.361048 21.0363 0.487063 21.1518 0.489864C21.2673 0.492664 21.3519 0.489864 21.4505 0.489864L21.7323 0.517867L22.014 0.573874C22.1127 0.590676 22.2056 0.62708 22.2958 0.652283C22.6771 0.773843 23.0359 0.956394 23.3581 1.19275C23.687 1.43054 23.9729 1.7222 24.2034 2.05525C24.4355 2.39717 24.607 2.77601 24.7106 3.17538C24.8221 3.5799 24.8622 4.0006 24.8289 4.41873C24.7915 4.84496 24.6809 5.26169 24.5021 5.65088C24.3323 6.04381 24.097 6.40546 23.8061 6.72061C23.491 7.04031 23.1207 7.30116 22.7128 7.4907C22.2962 7.68296 21.849 7.80142 21.3913 7.84074C20.9252 7.88186 20.4554 7.83821 20.005 7.71193C19.0793 7.45638 18.28 6.87226 17.7586 6.07023C17.2372 5.2682 17.0299 4.30396 17.176 3.36021C17.3303 2.42604 17.8334 1.58405 18.5849 1.00232L18.5201 0.890312C17.9047 1.47839 17.4924 2.24495 17.3423 3.08017C17.27 3.49303 17.2653 3.91476 17.3282 4.32912C17.3876 4.73942 17.5132 5.13751 17.7001 5.50806C18.0664 6.24248 18.6586 6.84181 19.3908 7.21907C19.5726 7.3118 19.7609 7.39134 19.9543 7.4571L20.2361 7.53831C20.3347 7.56631 20.4361 7.57751 20.5347 7.59711C20.5826 7.59711 20.6334 7.61672 20.6841 7.62232H20.8334C20.9336 7.63257 21.0342 7.63724 21.1349 7.63632H21.4364L21.7351 7.59991C22.1264 7.53738 22.5062 7.41753 22.8622 7.24427C23.2144 7.06688 23.5382 6.8385 23.823 6.56659C24.1063 6.29214 24.3424 5.97333 24.5218 5.62288L24.5894 5.49406C24.6106 5.44934 24.6294 5.40354 24.6458 5.35685L24.7021 5.22243C24.722 5.17781 24.7389 5.13198 24.7529 5.08521L24.8374 4.80518L24.8937 4.52515C24.9515 4.13895 24.9515 3.7464 24.8937 3.36021C24.835 2.97177 24.7181 2.59422 24.5472 2.24007C24.3723 1.88935 24.1432 1.56807 23.8681 1.28796C23.6027 1.00446 23.2924 0.766072 22.9495 0.582275C22.8368 0.517867 22.7833 0.635481 22.8903 0.697088Z" fill="white"/>
<path d="M18.6087 2.85477C18.7625 2.56007 18.9638 2.29295 19.2043 2.0642C19.4413 1.83287 19.7122 1.63938 20.0076 1.49049C20.3053 1.34789 20.6218 1.24898 20.9474 1.19677C21.2735 1.14874 21.6049 1.14874 21.931 1.19677L22.1742 1.24343L22.4119 1.31481C22.4511 1.32654 22.4895 1.34122 22.5266 1.35873L22.6414 1.40539L22.7561 1.45206L22.8654 1.5097C23.1615 1.66159 23.4309 1.86093 23.6632 2.09989C23.8975 2.34389 24.0945 2.6214 24.2479 2.9234C24.3962 3.22542 24.4975 3.54852 24.5484 3.88141L24.5812 4.13121V4.3865C24.5812 4.4716 24.5812 4.55669 24.5812 4.64179V4.76806C24.5812 4.80923 24.5812 4.85041 24.562 4.89433C24.5429 4.93825 24.5375 5.06178 24.5129 5.14413L24.4446 5.39118C24.2766 5.88102 24.0011 6.32663 23.6386 6.69507C23.3891 6.93682 23.1056 7.14031 22.7971 7.29898C22.484 7.45816 22.1472 7.5648 21.7999 7.61466C21.4508 7.67368 21.0943 7.67368 20.7453 7.61466C20.0281 7.48862 19.3701 7.13451 18.8683 6.60449C18.8054 6.53312 18.7071 6.5688 18.7699 6.66213C19.2907 7.34217 20.0461 7.8015 20.8873 7.94955C21.7415 8.09608 22.6194 7.92083 23.3529 7.45736C24.0865 6.99389 24.624 6.2748 24.8626 5.43785C25.0957 4.626 25.0307 3.75704 24.6795 2.98928C24.3545 2.25951 23.7814 1.66997 23.0629 1.32638C22.3444 0.982789 21.5276 0.907643 20.7589 1.11442C20.3977 1.20855 20.0549 1.36355 19.7453 1.57284C19.1381 1.99012 18.6863 2.59854 18.4612 3.30221C18.4393 3.38731 18.4065 3.4724 18.3902 3.56299L18.3382 3.83749L18.3137 4.112C18.3137 4.20258 18.3137 4.29317 18.3137 4.3865H18.4257C18.3995 3.9783 18.4572 3.56905 18.5951 3.18417C18.733 2.79999 18.9462 2.44752 19.2222 2.14764C19.4981 1.84776 19.8312 1.60656 20.2016 1.43833C20.5804 1.26989 20.9887 1.17877 21.4029 1.17029C21.817 1.16181 22.2287 1.23613 22.614 1.38892C23.0073 1.54544 23.3655 1.77927 23.6676 2.0767C23.9698 2.37414 24.2098 2.72919 24.3735 3.12104C24.5381 3.51763 24.6226 3.9431 24.6222 4.37277C24.6216 4.7861 24.538 5.19505 24.3763 5.5751C24.2157 5.95597 23.9817 6.30116 23.6878 6.59076C23.395 6.88096 23.0489 7.11123 22.6687 7.26878C22.1016 7.50109 21.4811 7.56919 20.8775 7.46537C20.2739 7.36155 19.7114 7.08995 19.2535 6.68135C18.6337 6.13116 18.2297 5.37677 18.1142 4.55395C18.0951 4.44414 17.9831 4.44414 18.0022 4.55395C18.1183 5.40406 18.5354 6.18368 19.177 6.74997C19.812 7.31584 20.6343 7.62321 21.4829 7.61191C21.9049 7.6063 22.3221 7.52062 22.7124 7.35937C23.106 7.19616 23.4642 6.95747 23.767 6.65664C24.0713 6.35742 24.3134 6.00051 24.4795 5.60659C24.6455 5.21267 24.7321 4.78957 24.7342 4.36179C24.7369 3.91599 24.6495 3.47427 24.4774 3.06339C24.3085 2.65771 24.0605 2.2901 23.748 1.98225C23.4355 1.67439 23.0648 1.43252 22.6578 1.27089C22.2552 1.112 21.8251 1.03547 21.3928 1.04579C20.9682 1.05791 20.5503 1.15522 20.1636 1.332C19.777 1.50878 19.4295 1.76146 19.1415 2.07518C18.8537 2.38322 18.6307 2.7464 18.4858 3.143C18.3488 3.53564 18.293 3.95223 18.3218 4.36728C18.3218 4.47434 18.4339 4.46885 18.4339 4.36728C18.4339 4.26572 18.4339 4.19435 18.4339 4.10651L18.4585 3.84847L18.5076 3.59044C18.524 3.50534 18.5541 3.42299 18.5759 3.34064C18.7862 2.66152 19.2148 2.07166 19.7945 1.66343C20.0964 1.46245 20.4298 1.31397 20.7808 1.22422C21.1368 1.12922 21.5063 1.09489 21.8736 1.12265C22.6345 1.19015 23.3488 1.51988 23.8954 2.05596C24.1749 2.3317 24.4034 2.65516 24.5702 3.01124C24.7374 3.37522 24.8418 3.76506 24.879 4.16415C24.924 4.68301 24.8507 5.20535 24.6648 5.69151C24.4789 6.17768 24.1852 6.6149 23.8059 6.96999C23.4267 7.32507 22.972 7.58869 22.4762 7.74082C21.9804 7.89295 21.4567 7.9296 20.9447 7.84799C20.1235 7.71993 19.3813 7.28332 18.8683 6.62645L18.7699 6.68409C19.2904 7.22169 19.9681 7.57846 20.7043 7.7025C21.0661 7.76316 21.4353 7.76316 21.7971 7.7025C22.1565 7.65114 22.5052 7.54176 22.8299 7.37859C23.1499 7.2149 23.4437 7.00393 23.7014 6.75272C23.9532 6.50772 24.166 6.22535 24.3325 5.91548C24.4144 5.75798 24.4847 5.59467 24.5429 5.42687L24.614 5.17158C24.6385 5.08648 24.6467 4.99864 24.6631 4.89708C24.6733 4.85461 24.6806 4.81151 24.685 4.76806V4.6363C24.6924 4.54495 24.6924 4.45314 24.685 4.36179V4.08729L24.6522 3.81279C24.5963 3.48601 24.4942 3.16895 24.3489 2.87124C24.1907 2.56246 23.9871 2.27931 23.7451 2.03126C23.5073 1.784 23.2304 1.57808 22.9255 1.42186L22.8107 1.36147C22.7725 1.34226 22.7315 1.32853 22.6933 1.31206L22.5731 1.26265C22.5341 1.24516 22.4939 1.23048 22.4528 1.21873L22.2069 1.14461L21.9556 1.0952C21.6177 1.04599 21.2744 1.04599 20.9365 1.0952C20.5991 1.14609 20.2707 1.24499 19.9611 1.38892C19.655 1.54284 19.374 1.74278 19.1278 1.98185C18.8795 2.22141 18.671 2.49944 18.5104 2.80536C18.453 2.90144 18.5568 2.9481 18.6087 2.85477Z" fill="white"/>
<path d="M22.5286 1.6583C23.251 1.84066 23.8727 2.22353 24.2863 2.74073C24.6873 3.2484 24.8548 3.85592 24.7589 4.45506C24.6574 5.05965 24.2911 5.61365 23.7279 6.01435C23.1463 6.42668 22.3999 6.65046 21.63 6.64333C21.2362 6.63884 20.8467 6.57538 20.4808 6.45609C19.7153 6.20082 19.0954 5.71932 18.7446 5.10745C18.5638 4.79317 18.4581 4.45359 18.4331 4.10693C18.4046 3.75166 18.4593 3.39521 18.5942 3.05668C18.8791 2.35531 19.4809 1.7693 20.2768 1.41841C20.6839 1.24229 21.1288 1.13203 21.587 1.09368C21.7052 1.09368 21.7016 0.99714 21.587 1.00007C21.0819 1.00692 20.5843 1.10062 20.1264 1.27506C19.6642 1.45127 19.2521 1.70435 18.9164 2.01813C18.5831 2.33069 18.3314 2.69563 18.1769 3.09055C18.0223 3.48546 17.9682 3.90202 18.0178 4.31464C18.0889 4.91336 18.38 5.48051 18.8528 5.94155C19.3256 6.40259 19.9581 6.73595 20.667 6.89784C21.1156 6.99803 21.584 7.02488 22.0453 6.97683C22.493 6.93083 22.925 6.81249 23.3162 6.6287C23.6917 6.4526 24.0213 6.21804 24.2863 5.93828C24.6676 5.54905 24.9073 5.08005 24.978 4.58484C25.0488 4.08962 24.9478 3.58812 24.6865 3.13757C24.4252 2.68703 24.0141 2.30559 23.5003 2.03678C22.9864 1.76798 22.3904 1.62263 21.7804 1.61734C21.6944 1.61734 21.6801 1.69926 21.7804 1.70803C22.529 1.76289 23.2305 2.02988 23.7637 2.46281C24.2819 2.88235 24.595 3.44197 24.6443 4.03672C24.6981 4.65031 24.4624 5.25744 23.9856 5.7335C23.4788 6.23044 22.754 6.54547 21.9665 6.61114C21.5884 6.64049 21.2069 6.60745 20.8446 6.51398C20.4824 6.4205 20.1469 6.2685 19.8579 6.067C19.2741 5.65656 18.8925 5.08689 18.7839 4.46384C18.6788 3.83896 18.8299 3.20322 19.2135 2.65589C19.4034 2.37575 19.6449 2.12117 19.9295 1.90111C20.2275 1.66513 20.568 1.46782 20.9391 1.31602C21.0393 1.27214 20.9677 1.19607 20.8639 1.24288C20.1383 1.5372 19.5355 2.00032 19.1312 2.57398C18.9386 2.84713 18.7997 3.14328 18.7195 3.45162C18.6379 3.75814 18.6222 4.07392 18.673 4.38485C18.7596 5.01502 19.1189 5.59916 19.6861 6.0319C19.9681 6.24418 20.2958 6.41182 20.6527 6.52631C21.0047 6.64022 21.3803 6.69782 21.7589 6.69598C22.1672 6.69306 22.5706 6.62335 22.9453 6.49095C23.3201 6.35855 23.6586 6.16615 23.9409 5.9251C24.2232 5.68406 24.4435 5.39925 24.589 5.08748C24.7344 4.77571 24.8019 4.4433 24.7875 4.10986C24.75 3.48303 24.4314 2.88943 23.8925 2.44233C23.3402 1.974 22.6013 1.68244 21.809 1.62027V1.71096C22.5822 1.71664 23.3256 1.95583 23.8959 2.38251C24.4663 2.80918 24.8234 3.39318 24.8985 4.02209C24.9754 4.68631 24.737 5.34929 24.2326 5.87392C23.9722 6.14587 23.6501 6.37431 23.2839 6.54678C22.9041 6.72374 22.4859 6.83898 22.0524 6.88614C21.6025 6.93586 21.1449 6.91199 20.7064 6.81593C20.254 6.71494 19.8309 6.54101 19.462 6.30437C19.0931 6.06773 18.7859 5.77317 18.5584 5.43803C18.3241 5.08843 18.1789 4.70367 18.1316 4.30697C18.0842 3.91027 18.1356 3.50984 18.2828 3.12982C18.4336 2.74649 18.6797 2.39273 19.0055 2.0907C19.3314 1.78866 19.7301 1.54485 20.1765 1.37453C20.625 1.20334 21.1135 1.11352 21.6085 1.11123V1.01762C20.9089 1.06951 20.2424 1.2854 19.6893 1.63933C19.1362 1.99326 18.7199 2.47019 18.4904 3.0128C18.2129 3.70817 18.2666 4.46349 18.6407 5.12792C18.8221 5.44607 19.076 5.73303 19.389 5.97339C19.9916 6.44581 20.7914 6.71351 21.6264 6.72231C22.4254 6.7339 23.2012 6.50243 23.803 6.07286C24.3821 5.66086 24.7597 5.09184 24.8662 4.47047C24.9728 3.84911 24.8012 3.2172 24.383 2.691C23.9536 2.15254 23.306 1.75482 22.5536 1.56761C22.4534 1.55006 22.4319 1.6349 22.5286 1.6583Z" fill="white"/>
<path d="M54.3731 23.2252C54.4746 23.1172 54.605 23.0437 54.7471 23.0143C54.8893 22.9849 55.0366 23.001 55.1699 23.0605C55.3032 23.12 55.4161 23.2201 55.4941 23.3478C55.572 23.4754 55.6113 23.6247 55.6067 23.776V37.4167C55.6087 37.5157 55.5917 37.6142 55.5568 37.7063C55.5219 37.7984 55.4697 37.8823 55.4034 37.9531C55.3366 38.0265 55.2557 38.0842 55.166 38.1227C55.0764 38.1612 54.9799 38.1794 54.8831 38.1763C54.7804 38.1852 54.6772 38.1667 54.5832 38.1226C54.4892 38.0786 54.4074 38.0103 54.3455 37.9243L45.448 25.7308V37.4131C45.4502 37.6118 45.3771 37.8033 45.2447 37.9459C45.1779 38.0193 45.097 38.077 45.0073 38.1155C44.9176 38.154 44.8212 38.1722 44.7243 38.1691C44.6284 38.1721 44.5329 38.1548 44.4434 38.1184C44.354 38.0819 44.2726 38.0269 44.204 37.9567C44.1357 37.886 44.0823 37.801 44.0473 37.7074C44.0122 37.6138 43.9964 37.5135 44.0007 37.4131V23.776C43.9968 23.6753 44.0132 23.5749 44.0488 23.4812C44.0845 23.3876 44.1385 23.3028 44.2074 23.2324C44.2748 23.1614 44.3555 23.1059 44.4445 23.0694C44.5335 23.0328 44.6288 23.016 44.7243 23.02C44.8311 23.0167 44.937 23.0394 45.0339 23.0863C45.1308 23.1331 45.2159 23.2029 45.2826 23.29L54.1629 35.4727V23.776C54.1585 23.6738 54.1749 23.5719 54.2112 23.4769C54.2474 23.3819 54.3026 23.2961 54.3731 23.2252Z" fill="white"/>
<path d="M67.3775 30.0162C67.45 30.0847 67.5069 30.1677 67.5445 30.2597C67.5821 30.3517 67.5995 30.4506 67.5956 30.5498C67.5971 30.6476 67.5786 30.7447 67.5411 30.8352C67.5036 30.9257 67.448 31.0077 67.3775 31.0761C67.3061 31.1476 67.2203 31.2035 67.1258 31.2401C67.0313 31.2767 66.9301 31.2933 66.8288 31.2888H60.7088V37.4175C60.7102 37.5169 60.6916 37.6155 60.6542 37.7078C60.6167 37.8 60.5612 37.8839 60.4907 37.9546C60.4203 38.0281 60.335 38.0859 60.2404 38.1244C60.1458 38.163 60.0442 38.1813 59.942 38.1781C59.7395 38.1762 59.546 38.0954 59.4032 37.953C59.2604 37.8107 59.1798 37.6183 59.1788 37.4175V23.7578C59.1757 23.6564 59.1941 23.5556 59.2329 23.4618C59.2718 23.368 59.3301 23.2833 59.4041 23.2134C59.4752 23.1445 59.5593 23.0902 59.6516 23.0537C59.7439 23.0172 59.8426 22.9992 59.942 23.0007H69.1292C69.2306 22.9962 69.3318 23.0128 69.4263 23.0494C69.5208 23.0861 69.6065 23.1419 69.678 23.2134C69.7473 23.2818 69.802 23.3633 69.8389 23.4531C69.8757 23.5429 69.8939 23.6392 69.8924 23.7362C69.8953 23.8322 69.8777 23.9278 69.8408 24.0167C69.8038 24.1055 69.7483 24.1856 69.678 24.2517C69.6047 24.3202 69.5185 24.3736 69.4243 24.4088C69.3301 24.4441 69.2298 24.4605 69.1292 24.4572H60.7088V29.8143H66.8397C67.0388 29.8087 67.232 29.8813 67.3775 30.0162Z" fill="white"/>
<path d="M86.8484 23.9686C87.9575 24.591 88.8719 25.5205 89.486 26.6501C90.1051 27.8619 90.4284 29.2083 90.4284 30.5749C90.4284 31.9415 90.1051 33.288 89.486 34.4997C88.8729 35.6369 87.9573 36.5739 86.8449 37.2029C85.668 37.865 84.3417 38.201 82.9981 38.1773H79.5649C79.4661 38.1825 79.3673 38.1664 79.2749 38.1302C79.1825 38.0939 79.0986 38.0383 79.0286 37.9668C78.9586 37.8954 78.9041 37.8098 78.8686 37.7155C78.8331 37.6212 78.8173 37.5203 78.8224 37.4194V23.7629C78.8168 23.6617 78.8322 23.5605 78.8674 23.4657C78.9027 23.371 78.9572 23.2849 79.0272 23.2131C79.0973 23.1412 79.1813 23.0853 79.274 23.0488C79.3666 23.0123 79.4657 22.9962 79.5649 23.0014H82.9945C84.3398 22.9754 85.6683 23.3089 86.8484 23.9686ZM86.0883 36.0336C86.9841 35.505 87.7185 34.7328 88.2097 33.8032C88.7094 32.8106 88.97 31.7107 88.97 30.5948C88.97 29.4788 88.7094 28.3789 88.2097 27.3864C87.7179 26.46 86.9834 25.6915 86.0883 25.1668C85.1473 24.6252 84.0817 24.3499 83.0016 24.3692H80.3145V36.8275H83.0016C84.0817 36.8508 85.148 36.5765 86.0883 36.0336Z" fill="white"/>
<path d="M104.714 37.4181C104.716 37.5177 104.696 37.6165 104.657 37.7083C104.617 37.8002 104.558 37.883 104.484 37.9517C104.392 38.04 104.28 38.1052 104.156 38.1417C104.033 38.1782 103.902 38.1848 103.775 38.161C103.648 38.1372 103.529 38.0838 103.428 38.0052C103.327 37.9267 103.248 37.8254 103.196 37.7102L101.859 34.5627H94.1357L92.7991 37.7102C92.7528 37.8565 92.6561 37.9827 92.5251 38.0675C92.3942 38.1523 92.2372 38.1903 92.0808 38.1752C91.9782 38.1797 91.8758 38.1619 91.7811 38.1233C91.6863 38.0846 91.6015 38.026 91.5328 37.9517C91.3932 37.8078 91.3174 37.6161 91.3217 37.4181C91.318 37.306 91.3381 37.1942 91.381 37.0901L97.2459 23.5233C97.2966 23.3675 97.3982 23.2322 97.5352 23.1378C97.6722 23.0434 97.8372 22.9952 98.0049 23.0005C98.1706 22.9943 98.3337 23.0425 98.4679 23.1373C98.6022 23.2321 98.6999 23.368 98.7454 23.5233L104.633 37.1081C104.687 37.2027 104.715 37.3096 104.714 37.4181ZM101.319 33.2576L98.0049 25.4666L94.6948 33.2612L101.319 33.2576Z" fill="white"/>
<path d="M116.124 23.1955C116.19 23.2626 116.241 23.3419 116.275 23.4285C116.308 23.5152 116.324 23.6075 116.32 23.7001C116.324 23.7901 116.309 23.8798 116.275 23.9637C116.241 24.0475 116.19 24.1235 116.124 24.1868C116.055 24.2518 115.974 24.3025 115.885 24.336C115.795 24.3695 115.7 24.3849 115.604 24.3814H110.843V37.4193C110.846 37.6183 110.767 37.81 110.624 37.9528C110.551 38.0243 110.465 38.0811 110.369 38.1198C110.274 38.1585 110.171 38.1785 110.068 38.1785C109.964 38.1785 109.861 38.1585 109.766 38.1198C109.67 38.0811 109.584 38.0243 109.511 37.9528C109.437 37.8841 109.378 37.8013 109.338 37.7095C109.299 37.6176 109.279 37.5189 109.281 37.4193V24.3814H104.542C104.446 24.3853 104.351 24.3701 104.261 24.3366C104.172 24.3031 104.091 24.2521 104.022 24.1868C103.957 24.1232 103.905 24.0473 103.87 23.9636C103.836 23.8799 103.819 23.7902 103.822 23.7001C103.817 23.6071 103.833 23.5141 103.867 23.4271C103.902 23.3402 103.954 23.2612 104.022 23.1953C104.09 23.1294 104.171 23.0781 104.261 23.0446C104.35 23.0111 104.446 22.9962 104.542 23.0008H115.601C115.697 22.997 115.793 23.0123 115.883 23.0458C115.973 23.0793 116.055 23.1302 116.124 23.1955Z" fill="white"/>
<path d="M128.821 37.4019C128.822 37.5022 128.803 37.6018 128.765 37.6949C128.727 37.7881 128.671 37.8731 128.599 37.945C128.527 38.0169 128.441 38.0743 128.346 38.114C128.251 38.1537 128.149 38.1748 128.046 38.1762C127.888 38.1861 127.73 38.1464 127.597 38.0627C127.463 37.9791 127.361 37.856 127.305 37.7116L125.967 34.5678H118.234L116.896 37.7116C116.85 37.8558 116.755 37.9805 116.626 38.065C116.498 38.1494 116.343 38.1887 116.188 38.1762C116.086 38.1799 115.983 38.1618 115.889 38.1233C115.794 38.0847 115.709 38.0266 115.64 37.9529C115.501 37.8072 115.425 37.615 115.429 37.4163C115.425 37.3043 115.445 37.1927 115.488 37.0886L121.358 23.5371C121.406 23.3788 121.506 23.2404 121.644 23.1434C121.781 23.0464 121.947 22.9961 122.117 23.0005C122.283 22.9943 122.446 23.0424 122.581 23.1371C122.715 23.2318 122.813 23.3676 122.858 23.5227L128.739 37.0958C128.793 37.1894 128.821 37.2948 128.821 37.4019ZM125.423 33.2497L122.117 25.4638L118.782 33.2497H125.423Z" fill="white"/>
<path d="M138.842 37.9692C138.717 38.1039 138.554 38.1785 138.386 38.1785C138.217 38.1785 138.055 38.1039 137.93 37.9692C137.87 37.8982 137.822 37.8131 137.792 37.7192C137.761 37.6253 137.747 37.5248 137.75 37.4242V23.7625C137.746 23.6613 137.759 23.5601 137.789 23.4653C137.82 23.3706 137.866 23.2845 137.927 23.2126C137.987 23.1408 138.059 23.0848 138.139 23.0484C138.218 23.0119 138.304 22.9957 138.389 23.001H141.666C142.409 22.9895 143.142 23.2071 143.793 23.6326C144.41 24.0428 144.917 24.6491 145.259 25.3832C145.617 26.1681 145.798 27.0497 145.784 27.9422C145.797 28.8243 145.615 29.695 145.259 30.4688C144.919 31.199 144.41 31.7988 143.793 32.1977C143.142 32.621 142.408 32.8362 141.666 32.8222H139.027V37.435C139.028 37.5342 139.012 37.6325 138.98 37.7242C138.948 37.8159 138.901 37.8992 138.842 37.9692ZM143.149 30.9164C143.579 30.6316 143.934 30.2104 144.173 29.7C144.424 29.1574 144.551 28.5465 144.541 27.9278C144.553 27.2984 144.426 26.6763 144.173 26.1231C143.935 25.6057 143.58 25.1771 143.149 24.8851C142.694 24.5821 142.179 24.4277 141.657 24.4375H139.021V31.3423H141.66C142.179 31.3551 142.692 31.2084 143.149 30.9164Z" fill="white"/>
<path d="M159.944 23.9847C161.084 24.6214 162.025 25.5594 162.665 26.6954C163.306 27.8919 163.642 29.2275 163.642 30.584C163.642 31.9405 163.306 33.2761 162.665 34.4725C162.028 35.613 161.086 36.5551 159.944 37.1938C158.748 37.84 157.409 38.1785 156.049 38.1785C154.689 38.1785 153.35 37.84 152.155 37.1938C151.02 36.5579 150.083 35.6239 149.444 34.4936C148.8 33.2973 148.463 31.9608 148.463 30.6033C148.463 29.2458 148.8 27.9093 149.444 26.713C150.081 25.5717 151.021 24.6276 152.162 23.9847C153.357 23.3385 154.696 23 156.056 23C157.416 23 158.755 23.3385 159.951 23.9847H159.944ZM152.907 25.2152C151.983 25.7517 151.223 26.5283 150.708 27.4619C150.184 28.4281 149.91 29.5088 149.91 30.6068C149.91 31.7048 150.184 32.7856 150.708 33.7518C151.226 34.6782 151.986 35.4482 152.907 35.9808C153.866 36.5144 154.947 36.7946 156.046 36.7946C157.145 36.7946 158.225 36.5144 159.185 35.9808C160.105 35.4503 160.864 34.6812 161.38 33.7553C161.903 32.7885 162.178 31.7071 162.178 30.6086C162.178 29.51 161.903 28.4287 161.38 27.4619C160.86 26.5373 160.101 25.7687 159.181 25.2363C158.222 24.7037 157.142 24.4241 156.044 24.4241C154.946 24.4241 153.866 24.7037 152.907 25.2363V25.2152Z" fill="white"/>
<path d="M176.142 37.4826C176.145 37.571 176.126 37.6589 176.089 37.7393C176.051 37.8198 175.995 37.8907 175.925 37.9465C175.76 38.069 175.556 38.1314 175.349 38.1227C175.211 38.127 175.075 38.0934 174.956 38.0256C174.841 37.9513 174.745 37.8515 174.677 37.7343L171.117 32.1891H167.868V37.3675C167.875 37.4713 167.861 37.5754 167.825 37.6735C167.79 37.7715 167.734 37.8614 167.661 37.9375C167.589 38.0135 167.501 38.0742 167.404 38.1156C167.306 38.1571 167.201 38.1785 167.095 38.1785C166.989 38.1785 166.884 38.1571 166.787 38.1156C166.689 38.0742 166.601 38.0135 166.529 37.9375C166.457 37.8614 166.401 37.7715 166.365 37.6735C166.33 37.5754 166.315 37.4713 166.323 37.3675V23.7597C166.317 23.6589 166.333 23.558 166.369 23.4636C166.406 23.3692 166.462 23.2834 166.535 23.2119C166.608 23.1403 166.695 23.0845 166.791 23.0482C166.888 23.0118 166.99 22.9957 167.093 23.001H170.793C171.687 22.9863 172.569 23.1889 173.363 23.5907C174.098 23.9719 174.711 24.5459 175.132 25.2485C175.567 25.9842 175.79 26.8222 175.775 27.6723C175.797 28.6033 175.514 29.5166 174.966 30.2775C174.418 31.0384 173.634 31.6064 172.732 31.8978L175.977 36.9755C176.075 37.128 176.132 37.3025 176.142 37.4826ZM170.779 30.7362C171.399 30.7443 172.013 30.6088 172.57 30.3407C173.079 30.1008 173.51 29.7273 173.815 29.2618C174.116 28.7848 174.271 28.2332 174.262 27.6723C174.27 27.0867 174.115 26.51 173.815 26.0037C173.523 25.5085 173.094 25.1045 172.577 24.8386C172.021 24.5612 171.403 24.4216 170.779 24.4322H167.842V30.7362H170.779Z" fill="white"/>
<path d="M189.348 23.1952C189.41 23.2623 189.459 23.3419 189.491 23.4294C189.523 23.5168 189.538 23.6101 189.534 23.7036C189.536 23.7932 189.521 23.8823 189.489 23.9654C189.457 24.0485 189.409 24.1238 189.348 24.1868C189.285 24.2522 189.209 24.3032 189.126 24.3367C189.043 24.3702 188.954 24.3855 188.865 24.3815H184.439V37.4241C184.44 37.5227 184.423 37.6206 184.388 37.7122C184.353 37.8038 184.301 37.8873 184.235 37.9578C184.133 38.0632 184.004 38.1349 183.863 38.164C183.722 38.193 183.576 38.1782 183.444 38.1213C183.311 38.0645 183.197 37.968 183.116 37.8441C183.036 37.7201 182.992 37.574 182.99 37.4241V24.3815H178.598C178.509 24.3857 178.42 24.3706 178.337 24.337C178.254 24.3035 178.178 24.2524 178.115 24.1868C178.054 24.1233 178.005 24.0473 177.973 23.9636C177.941 23.8799 177.926 23.7902 177.928 23.7C177.924 23.6073 177.938 23.5146 177.97 23.4278C178.001 23.3409 178.049 23.2618 178.111 23.1952C178.175 23.1302 178.251 23.0794 178.334 23.0459C178.417 23.0124 178.505 22.997 178.594 23.0005H188.879C189.054 22.9981 189.222 23.0681 189.348 23.1952Z" fill="white"/>
<path d="M202.927 37.4147C202.925 37.591 202.861 37.7612 202.745 37.8968C202.63 38.0324 202.47 38.1251 202.292 38.1593C202.114 38.1936 201.93 38.1673 201.77 38.0849C201.61 38.0024 201.484 37.8689 201.413 37.7067L200.076 34.56H192.35L191.013 37.7103C190.967 37.8566 190.87 37.9828 190.739 38.0675C190.608 38.1523 190.451 38.1903 190.294 38.1753C190.191 38.1774 190.089 38.1586 189.994 38.1201C189.899 38.0816 189.813 38.0243 189.743 37.9518C189.606 37.8061 189.532 37.6153 189.535 37.4183C189.531 37.305 189.552 37.1921 189.594 37.0867L195.461 23.5267C195.512 23.3707 195.613 23.2349 195.75 23.1399C195.887 23.045 196.052 22.996 196.22 23.0005C196.386 22.9945 196.55 23.0432 196.684 23.1386C196.819 23.2341 196.916 23.3708 196.961 23.5267L202.85 37.1191C202.9 37.2099 202.927 37.3115 202.927 37.4147ZM199.535 33.2588L196.22 25.4695L192.909 33.2588H199.535Z" fill="white"/>
<path d="M214.319 36.9448C214.387 37.0119 214.441 37.0921 214.478 37.1807C214.515 37.2693 214.534 37.3644 214.534 37.4604C214.534 37.5565 214.515 37.6516 214.478 37.7402C214.441 37.8287 214.387 37.9089 214.319 37.9761C214.172 38.1124 213.977 38.185 213.777 38.178H205.47C205.269 38.1771 205.077 38.0966 204.936 37.9541C204.794 37.8116 204.714 37.6187 204.713 37.4172V23.7576C204.715 23.5573 204.795 23.3658 204.936 23.2242C205.076 23.0826 205.267 23.0022 205.466 23.0003C205.566 22.9973 205.665 23.0146 205.758 23.0512C205.851 23.0877 205.936 23.1428 206.007 23.2131C206.078 23.284 206.134 23.369 206.17 23.4628C206.207 23.5566 206.223 23.657 206.219 23.7576V36.7392H213.774C213.874 36.735 213.973 36.751 214.067 36.7863C214.161 36.8216 214.246 36.8755 214.319 36.9448Z" fill="white"/>
</svg>
