<svg width="87" height="116" viewBox="0 0 87 116" fill="none" xmlns="http://www.w3.org/2000/svg">
<path d="M54.8545 68.3071C54.8545 70.1413 56.3411 71.6337 58.1663 71.6337C59.9914 71.6337 61.4765 70.1413 61.4765 68.3071C61.4765 66.4714 59.9914 64.979 58.1663 64.979C56.3411 64.979 54.8545 66.4714 54.8545 68.3071ZM59.1625 68.3071C59.1625 68.8596 58.7153 69.3091 58.1655 69.3091C57.6142 69.3091 57.167 68.8596 57.167 68.3071C57.167 67.7531 57.6142 67.3037 58.1655 67.3037C58.7153 67.3037 59.1625 67.7531 59.1625 68.3071Z" fill="white"/>
<path d="M51.1641 27.21H41.1562V29.5346H51.1641V27.21Z" fill="white"/>
<path d="M38.092 27.21H21.1699V29.5346H38.092V27.21Z" fill="white"/>
<path d="M38.0917 31.8574H27.2773V34.1821H38.0917V31.8574Z" fill="white"/>
<path d="M47.9926 31.8584H41.1562V34.1831H47.9926V31.8584Z" fill="white"/>
<path d="M24.2296 31.8584H21.1699V34.1831H24.2296V31.8584Z" fill="white"/>
<path d="M44.2625 36.5078H38.0723V38.8325H44.2625V36.5078Z" fill="white"/>
<path d="M35.0054 36.5078H21.1699V38.8325H35.0054V36.5078Z" fill="white"/>
<path d="M30.3823 41.1572H21.1934V43.4819H30.3823V41.1572Z" fill="white"/>
<path d="M43.421 41.1577H33.4463V43.4824H43.421V41.1577Z" fill="white"/>
<path d="M31.1955 45.8057H21.1699V48.1303H31.1955V45.8057Z" fill="white"/>
<path d="M21.0706 50.4668L21.0752 52.7915L28.0504 52.7775L28.0457 50.4528L21.0706 50.4668Z" fill="white"/>
<path d="M49.7004 15.5854H24.2324V17.9101H49.7004V15.5854Z" fill="white"/>
<path d="M45.0565 20.2349H28.8184V22.5595H45.0565V20.2349Z" fill="white"/>
<path d="M68.4264 72.1532H65.0606V68.0563C73.3968 64.4229 79.25 56.0836 79.25 46.3851C79.25 38.2287 75.0569 30.6991 68.2336 26.3892L70.6856 22.1234L72.6827 23.2819L73.8393 21.2687L71.8423 20.1095L61.4435 14.0763L59.4325 12.9101L58.2759 14.9232L60.2861 16.0894L58.1201 19.8585V7.06354L17.2514 7V37.3135H8V54.9724C8 57.6318 9.8876 59.8549 12.3867 60.3602V60.4694L49.7169 60.519L46.2694 68.0486L47.4307 68.4887C48.6536 68.9536 49.9066 69.3078 51.1804 69.5588V72.1532H37.301V83H68.4264C71.4251 83 73.8648 80.5661 73.8648 77.5758C73.8648 74.5855 71.4251 72.1532 68.4264 72.1532ZM17.2514 54.9724C17.2514 56.7205 15.8357 58.1432 14.0954 58.1432H13.4685C11.7289 58.1432 10.3132 56.7205 10.3132 54.9724V39.639H17.2514V54.9724ZM66.164 46.3851C66.164 51.3374 62.7227 55.4885 58.1201 56.5733V43.9938L61.6802 37.7971C64.4885 39.7606 66.164 42.9307 66.164 46.3851ZM53.5877 42.8284L51.1388 47.0903L48.0367 45.2902L50.4857 41.0275L53.5877 42.8284ZM68.6824 20.9611L56.6435 41.9171L50.249 38.2077L62.2894 17.2517L62.9294 17.6229L68.6824 20.9611ZM18.5538 58.1525C19.1907 57.2552 19.5654 56.158 19.5654 54.9724V9.32776L55.8077 9.3851V23.8848L47.0891 39.0586L48.4824 39.8668L44.8769 46.1418L51.9854 50.2657L55.591 43.9907L55.8077 44.1162V56.8569C55.7853 56.8569 55.7637 56.86 55.7413 56.86C55.0828 56.86 54.4313 56.7903 53.7897 56.6678L55.1723 54.2626L39.2457 45.0221C38.9072 44.8253 38.5216 44.7214 38.1299 44.7214C37.3318 44.7214 36.5893 45.1515 36.1906 45.8435L35.654 46.7772C35.0379 47.8504 35.4057 49.2274 36.4736 49.8481L50.7972 58.1579L50.781 58.1959L18.5538 58.1525ZM51.5528 55.9123L37.6958 47.8729L38.1554 47.074L52.0124 55.1134L51.5528 55.9123ZM53.0094 58.8879C53.9039 59.0847 54.8184 59.1847 55.7413 59.1847C62.7636 59.1847 68.478 53.4428 68.478 46.3851C68.478 42.3286 66.6012 38.5789 63.412 36.1644L66.5218 29.3694L67.0847 28.3907C73.1932 32.2845 76.9368 39.0593 76.9368 46.3843C76.9368 54.8941 71.9371 62.2408 64.7414 65.6488C63.9009 63.0637 61.4867 61.1885 58.6437 61.1885H57.5989C54.2177 61.1885 51.4464 63.8371 51.2059 67.1799C50.6067 67.0498 50.0115 66.9049 49.4239 66.7197L53.0094 58.8879ZM62.7474 67.6534V76.0276H53.4944V67.6534C53.4944 65.3714 55.335 63.514 57.5981 63.514H58.6429C60.9068 63.5147 62.7474 65.3714 62.7474 67.6534ZM68.4264 80.6753H39.6142V74.4778H51.1804V78.3522H65.0598V74.4778H68.4256C70.1482 74.4778 71.5508 75.8672 71.5508 77.5773C71.5516 79.286 70.149 80.6753 68.4264 80.6753Z" fill="white"/>
<path d="M9.65063 104.844C9.73463 104.844 9.80696 104.877 9.86763 104.942L10.4556 105.586C10.045 106.071 9.54329 106.447 8.95063 106.713C8.36263 106.979 7.65329 107.112 6.82263 107.112C6.09463 107.112 5.43429 106.986 4.84163 106.734C4.25363 106.482 3.74963 106.13 3.32963 105.677C2.91429 105.224 2.59229 104.683 2.36363 104.053C2.13496 103.423 2.02063 102.73 2.02063 101.974C2.02063 101.218 2.13963 100.525 2.37763 99.895C2.62029 99.265 2.95863 98.7237 3.39263 98.271C3.82663 97.8183 4.34463 97.466 4.94663 97.214C5.55329 96.962 6.22296 96.836 6.95563 96.836C7.66963 96.836 8.30429 96.9527 8.85963 97.186C9.41496 97.4193 9.89796 97.7297 10.3086 98.117L9.81863 98.81C9.78596 98.8613 9.74396 98.9033 9.69263 98.936C9.64596 98.9687 9.58296 98.985 9.50363 98.985C9.41496 98.985 9.30996 98.9407 9.18863 98.852C9.07196 98.7633 8.91563 98.6653 8.71963 98.558C8.52829 98.446 8.29029 98.3457 8.00563 98.257C7.72096 98.1683 7.36629 98.124 6.94163 98.124C6.44229 98.124 5.98496 98.2127 5.56963 98.39C5.15429 98.5627 4.79496 98.8147 4.49163 99.146C4.19296 99.4727 3.95963 99.8763 3.79163 100.357C3.62829 100.833 3.54663 101.372 3.54663 101.974C3.54663 102.585 3.63296 103.129 3.80563 103.605C3.97829 104.081 4.21629 104.485 4.51963 104.816C4.82296 105.147 5.17996 105.399 5.59063 105.572C6.00129 105.745 6.44463 105.831 6.92063 105.831C7.20996 105.831 7.46896 105.815 7.69763 105.782C7.93096 105.745 8.14329 105.691 8.33463 105.621C8.53063 105.551 8.71496 105.462 8.88763 105.355C9.06029 105.243 9.23063 105.11 9.39863 104.956C9.43596 104.923 9.47563 104.898 9.51763 104.879C9.55963 104.856 9.60396 104.844 9.65063 104.844ZM21.1284 101.974C21.1284 102.725 21.0071 103.416 20.7644 104.046C20.5264 104.671 20.1881 105.213 19.7494 105.67C19.3108 106.123 18.7858 106.475 18.1744 106.727C17.5631 106.979 16.8841 107.105 16.1374 107.105C15.3954 107.105 14.7164 106.979 14.1004 106.727C13.4891 106.475 12.9641 106.123 12.5254 105.67C12.0914 105.213 11.7531 104.671 11.5104 104.046C11.2678 103.416 11.1464 102.725 11.1464 101.974C11.1464 101.227 11.2678 100.539 11.5104 99.909C11.7531 99.279 12.0914 98.7377 12.5254 98.285C12.9641 97.8277 13.4891 97.473 14.1004 97.221C14.7164 96.9643 15.3954 96.836 16.1374 96.836C16.8841 96.836 17.5631 96.9643 18.1744 97.221C18.7858 97.473 19.3108 97.8277 19.7494 98.285C20.1881 98.7377 20.5264 99.279 20.7644 99.909C21.0071 100.539 21.1284 101.227 21.1284 101.974ZM19.6024 101.974C19.6024 101.377 19.5208 100.84 19.3574 100.364C19.1941 99.888 18.9608 99.4843 18.6574 99.153C18.3588 98.8217 17.9948 98.5673 17.5654 98.39C17.1408 98.2127 16.6648 98.124 16.1374 98.124C15.6101 98.124 15.1318 98.2127 14.7024 98.39C14.2778 98.5673 13.9138 98.8217 13.6104 99.153C13.3071 99.4843 13.0738 99.888 12.9104 100.364C12.7471 100.84 12.6654 101.377 12.6654 101.974C12.6654 102.576 12.7471 103.115 12.9104 103.591C13.0738 104.062 13.3071 104.464 13.6104 104.795C13.9138 105.126 14.2778 105.381 14.7024 105.558C15.1318 105.731 15.6101 105.817 16.1374 105.817C16.6648 105.817 17.1408 105.731 17.5654 105.558C17.9948 105.381 18.3588 105.126 18.6574 104.795C18.9608 104.464 19.1941 104.062 19.3574 103.591C19.5208 103.115 19.6024 102.576 19.6024 101.974ZM33.5707 96.948V107H32.2687V99.846C32.2687 99.7387 32.2711 99.6243 32.2757 99.503C32.2851 99.3817 32.2944 99.258 32.3037 99.132L28.9577 105.271C28.8411 105.5 28.6614 105.614 28.4187 105.614H28.2087C27.9661 105.614 27.7887 105.5 27.6767 105.271L24.2677 99.111C24.2957 99.3723 24.3097 99.6173 24.3097 99.846V107H23.0007V96.948H24.1067C24.2374 96.948 24.3377 96.962 24.4077 96.99C24.4824 97.0133 24.5524 97.0833 24.6177 97.2L27.9777 103.22C28.0431 103.341 28.1037 103.47 28.1597 103.605C28.2157 103.74 28.2694 103.876 28.3207 104.011C28.4187 103.736 28.5331 103.47 28.6637 103.213L31.9607 97.2C32.0214 97.0833 32.0867 97.0133 32.1567 96.99C32.2314 96.962 32.3341 96.948 32.4647 96.948H33.5707ZM39.1024 102.121C39.4804 102.121 39.8117 102.072 40.0964 101.974C40.3857 101.876 40.626 101.738 40.8174 101.561C41.0134 101.379 41.1604 101.164 41.2584 100.917C41.3564 100.665 41.4054 100.387 41.4054 100.084C41.4054 99.4727 41.214 98.992 40.8314 98.642C40.4534 98.292 39.877 98.117 39.1024 98.117H37.5484V102.121H39.1024ZM39.1024 96.948C39.7464 96.948 40.3064 97.0227 40.7824 97.172C41.2584 97.3213 41.6527 97.5337 41.9654 97.809C42.278 98.0797 42.509 98.4087 42.6584 98.796C42.8124 99.1833 42.8894 99.6127 42.8894 100.084C42.8894 100.555 42.8077 100.989 42.6444 101.386C42.481 101.778 42.2407 102.116 41.9234 102.401C41.606 102.686 41.2094 102.907 40.7334 103.066C40.262 103.22 39.7184 103.297 39.1024 103.297H37.5484V107H36.0574V96.948H39.1024ZM50.2879 105.747V107H44.5339V96.948H46.0249V105.747H50.2879ZM57.976 105.789L57.969 107H51.739V96.948H57.969V98.159H53.237V101.344H57.045V102.513H53.237V105.789H57.976ZM66.6721 98.194H63.4801V107H61.9961V98.194H58.7901V96.948H66.6721V98.194ZM74.3549 105.789L74.3479 107H68.1179V96.948H74.3479V98.159H69.6159V101.344H73.4239V102.513H69.6159V105.789H74.3549ZM84.969 101.974C84.969 102.725 84.8477 103.409 84.605 104.025C84.367 104.641 84.0287 105.171 83.59 105.614C83.1513 106.053 82.6263 106.393 82.015 106.636C81.4037 106.879 80.7247 107 79.978 107H76.198V96.948H79.978C80.7247 96.948 81.4037 97.0693 82.015 97.312C82.6263 97.5547 83.1513 97.8977 83.59 98.341C84.0287 98.7797 84.367 99.3093 84.605 99.93C84.8477 100.546 84.969 101.227 84.969 101.974ZM83.443 101.974C83.443 101.377 83.3613 100.842 83.198 100.371C83.0347 99.895 82.8013 99.4937 82.498 99.167C82.1993 98.8357 81.8353 98.5837 81.406 98.411C80.9813 98.2383 80.5053 98.152 79.978 98.152H77.696V105.796H79.978C80.5053 105.796 80.9813 105.71 81.406 105.537C81.8353 105.364 82.1993 105.115 82.498 104.788C82.8013 104.457 83.0347 104.055 83.198 103.584C83.3613 103.113 83.443 102.576 83.443 101.974Z" fill="white"/>
<rect x="7" width="16" height="16" rx="6" fill="white"/>
<path fill-rule="evenodd" clip-rule="evenodd" d="M10.6969 7.85036L9.66699 8.89831L12.9773 12.2667L20.3337 4.78135L19.3038 3.7334L12.9773 10.1708L10.6969 7.85036Z" fill="#58A158"/>
</svg>
