<svg width="131" height="135" viewBox="0 0 131 135" fill="none" xmlns="http://www.w3.org/2000/svg">
<path d="M78.8545 80.3071C78.8545 82.1413 80.3411 83.6337 82.1663 83.6337C83.9914 83.6337 85.4765 82.1413 85.4765 80.3071C85.4765 78.4714 83.9914 76.979 82.1663 76.979C80.3411 76.979 78.8545 78.4714 78.8545 80.3071ZM83.1625 80.3071C83.1625 80.8596 82.7153 81.3091 82.1655 81.3091C81.6142 81.3091 81.167 80.8596 81.167 80.3071C81.167 79.7531 81.6142 79.3037 82.1655 79.3037C82.7153 79.3037 83.1625 79.7531 83.1625 80.3071Z" fill="white"/>
<path d="M75.1641 39.21H65.1562V41.5346H75.1641V39.21Z" fill="white"/>
<path d="M62.092 39.21H45.1699V41.5346H62.092V39.21Z" fill="white"/>
<path d="M62.0917 43.8574H51.2773V46.1821H62.0917V43.8574Z" fill="white"/>
<path d="M71.9926 43.8584H65.1562V46.1831H71.9926V43.8584Z" fill="white"/>
<path d="M48.2296 43.8584H45.1699V46.1831H48.2296V43.8584Z" fill="white"/>
<path d="M68.2625 48.5078H62.0723V50.8325H68.2625V48.5078Z" fill="white"/>
<path d="M59.0054 48.5078H45.1699V50.8325H59.0054V48.5078Z" fill="white"/>
<path d="M54.3823 53.1572H45.1934V55.4819H54.3823V53.1572Z" fill="white"/>
<path d="M67.421 53.1577H57.4463V55.4824H67.421V53.1577Z" fill="white"/>
<path d="M55.1955 57.8057H45.1699V60.1303H55.1955V57.8057Z" fill="white"/>
<path d="M45.0706 62.4668L45.0752 64.7915L52.0504 64.7775L52.0457 62.4528L45.0706 62.4668Z" fill="white"/>
<path d="M73.7004 27.5854H48.2324V29.9101H73.7004V27.5854Z" fill="white"/>
<path d="M69.0565 32.2349H52.8184V34.5595H69.0565V32.2349Z" fill="white"/>
<path d="M92.4264 84.1532H89.0606V80.0563C97.3967 76.4229 103.25 68.0836 103.25 58.3851C103.25 50.2287 99.0569 42.6991 92.2336 38.3892L94.6856 34.1234L96.6827 35.2819L97.8393 33.2687L95.8423 32.1095L85.4435 26.0763L83.4325 24.9101L82.2759 26.9232L84.2861 28.0894L82.1201 31.8585V19.0635L41.2514 19V49.3135H32V66.9724C32 69.6318 33.8876 71.8549 36.3867 72.3602V72.4694L73.7169 72.519L70.2694 80.0486L71.4307 80.4887C72.6536 80.9536 73.9066 81.3078 75.1804 81.5588V84.1532H61.301V95H92.4264C95.4251 95 97.8648 92.5661 97.8648 89.5758C97.8648 86.5855 95.4251 84.1532 92.4264 84.1532ZM41.2514 66.9724C41.2514 68.7205 39.8357 70.1432 38.0954 70.1432H37.4685C35.7289 70.1432 34.3132 68.7205 34.3132 66.9724V51.639H41.2514V66.9724ZM90.164 58.3851C90.164 63.3374 86.7227 67.4885 82.1201 68.5733V55.9938L85.6802 49.7971C88.4885 51.7606 90.164 54.9307 90.164 58.3851ZM77.5877 54.8284L75.1388 59.0903L72.0367 57.2902L74.4857 53.0276L77.5877 54.8284ZM92.6824 32.9611L80.6435 53.9171L74.249 50.2077L86.2894 29.2517L86.9294 29.6229L92.6824 32.9611ZM42.5538 70.1525C43.1907 69.2552 43.5654 68.158 43.5654 66.9724V21.3278L79.8077 21.3851V35.8848L71.0891 51.0586L72.4824 51.8668L68.8768 58.1418L75.9854 62.2657L79.591 55.9907L79.8077 56.1162V68.8569C79.7853 68.8569 79.7637 68.86 79.7413 68.86C79.0828 68.86 78.4313 68.7903 77.7897 68.6678L79.1723 66.2626L63.2457 57.0221C62.9072 56.8253 62.5216 56.7214 62.1299 56.7214C61.3318 56.7214 60.5893 57.1515 60.1906 57.8435L59.654 58.7772C59.0379 59.8504 59.4057 61.2274 60.4736 61.8481L74.7972 70.1579L74.781 70.1959L42.5538 70.1525ZM75.5528 67.9123L61.6958 59.8729L62.1554 59.074L76.0124 67.1134L75.5528 67.9123ZM77.0094 70.8879C77.9039 71.0847 78.8184 71.1847 79.7413 71.1847C86.7636 71.1847 92.478 65.4428 92.478 58.3851C92.478 54.3286 90.6012 50.5789 87.412 48.1644L90.5218 41.3694L91.0847 40.3907C97.1932 44.2845 100.937 51.0593 100.937 58.3843C100.937 66.8941 95.9371 74.2408 88.7414 77.6488C87.9009 75.0637 85.4867 73.1885 82.6437 73.1885H81.5989C78.2177 73.1885 75.4464 75.8371 75.2059 79.1799C74.6067 79.0498 74.0115 78.9049 73.4239 78.7197L77.0094 70.8879ZM86.7474 79.6534V88.0276H77.4944V79.6534C77.4944 77.3714 79.335 75.514 81.5981 75.514H82.6429C84.9068 75.5147 86.7474 77.3714 86.7474 79.6534ZM92.4264 92.6753H63.6142V86.4778H75.1804V90.3522H89.0598V86.4778H92.4256C94.1482 86.4778 95.5508 87.8672 95.5508 89.5774C95.5516 91.286 94.149 92.6753 92.4264 92.6753Z" fill="white"/>
<path d="M33.6506 116.844C33.7346 116.844 33.807 116.877 33.8676 116.942L34.4556 117.586C34.045 118.071 33.5433 118.447 32.9506 118.713C32.3626 118.979 31.6533 119.112 30.8226 119.112C30.0946 119.112 29.4343 118.986 28.8416 118.734C28.2536 118.482 27.7496 118.13 27.3296 117.677C26.9143 117.224 26.5923 116.683 26.3636 116.053C26.135 115.423 26.0206 114.73 26.0206 113.974C26.0206 113.218 26.1396 112.525 26.3776 111.895C26.6203 111.265 26.9586 110.724 27.3926 110.271C27.8266 109.818 28.3446 109.466 28.9466 109.214C29.5533 108.962 30.223 108.836 30.9556 108.836C31.6696 108.836 32.3043 108.953 32.8596 109.186C33.415 109.419 33.898 109.73 34.3086 110.117L33.8186 110.81C33.786 110.861 33.744 110.903 33.6926 110.936C33.646 110.969 33.583 110.985 33.5036 110.985C33.415 110.985 33.31 110.941 33.1886 110.852C33.072 110.763 32.9156 110.665 32.7196 110.558C32.5283 110.446 32.2903 110.346 32.0056 110.257C31.721 110.168 31.3663 110.124 30.9416 110.124C30.4423 110.124 29.985 110.213 29.5696 110.39C29.1543 110.563 28.795 110.815 28.4916 111.146C28.193 111.473 27.9596 111.876 27.7916 112.357C27.6283 112.833 27.5466 113.372 27.5466 113.974C27.5466 114.585 27.633 115.129 27.8056 115.605C27.9783 116.081 28.2163 116.485 28.5196 116.816C28.823 117.147 29.18 117.399 29.5906 117.572C30.0013 117.745 30.4446 117.831 30.9206 117.831C31.21 117.831 31.469 117.815 31.6976 117.782C31.931 117.745 32.1433 117.691 32.3346 117.621C32.5306 117.551 32.715 117.462 32.8876 117.355C33.0603 117.243 33.2306 117.11 33.3986 116.956C33.436 116.923 33.4756 116.898 33.5176 116.879C33.5596 116.856 33.604 116.844 33.6506 116.844ZM45.1284 113.974C45.1284 114.725 45.0071 115.416 44.7644 116.046C44.5264 116.671 44.1881 117.213 43.7494 117.67C43.3108 118.123 42.7858 118.475 42.1744 118.727C41.5631 118.979 40.8841 119.105 40.1374 119.105C39.3954 119.105 38.7164 118.979 38.1004 118.727C37.4891 118.475 36.9641 118.123 36.5254 117.67C36.0914 117.213 35.7531 116.671 35.5104 116.046C35.2678 115.416 35.1464 114.725 35.1464 113.974C35.1464 113.227 35.2678 112.539 35.5104 111.909C35.7531 111.279 36.0914 110.738 36.5254 110.285C36.9641 109.828 37.4891 109.473 38.1004 109.221C38.7164 108.964 39.3954 108.836 40.1374 108.836C40.8841 108.836 41.5631 108.964 42.1744 109.221C42.7858 109.473 43.3108 109.828 43.7494 110.285C44.1881 110.738 44.5264 111.279 44.7644 111.909C45.0071 112.539 45.1284 113.227 45.1284 113.974ZM43.6024 113.974C43.6024 113.377 43.5208 112.84 43.3574 112.364C43.1941 111.888 42.9608 111.484 42.6574 111.153C42.3588 110.822 41.9948 110.567 41.5654 110.39C41.1408 110.213 40.6648 110.124 40.1374 110.124C39.6101 110.124 39.1318 110.213 38.7024 110.39C38.2778 110.567 37.9138 110.822 37.6104 111.153C37.3071 111.484 37.0738 111.888 36.9104 112.364C36.7471 112.84 36.6654 113.377 36.6654 113.974C36.6654 114.576 36.7471 115.115 36.9104 115.591C37.0738 116.062 37.3071 116.464 37.6104 116.795C37.9138 117.126 38.2778 117.381 38.7024 117.558C39.1318 117.731 39.6101 117.817 40.1374 117.817C40.6648 117.817 41.1408 117.731 41.5654 117.558C41.9948 117.381 42.3588 117.126 42.6574 116.795C42.9608 116.464 43.1941 116.062 43.3574 115.591C43.5208 115.115 43.6024 114.576 43.6024 113.974ZM57.5707 108.948V119H56.2687V111.846C56.2687 111.739 56.2711 111.624 56.2757 111.503C56.2851 111.382 56.2944 111.258 56.3037 111.132L52.9577 117.271C52.8411 117.5 52.6614 117.614 52.4187 117.614H52.2087C51.9661 117.614 51.7887 117.5 51.6767 117.271L48.2677 111.111C48.2957 111.372 48.3097 111.617 48.3097 111.846V119H47.0007V108.948H48.1067C48.2374 108.948 48.3377 108.962 48.4077 108.99C48.4824 109.013 48.5524 109.083 48.6177 109.2L51.9777 115.22C52.0431 115.341 52.1037 115.47 52.1597 115.605C52.2157 115.74 52.2694 115.876 52.3207 116.011C52.4187 115.736 52.5331 115.47 52.6637 115.213L55.9607 109.2C56.0214 109.083 56.0867 109.013 56.1567 108.99C56.2314 108.962 56.3341 108.948 56.4647 108.948H57.5707ZM63.1024 114.121C63.4804 114.121 63.8117 114.072 64.0964 113.974C64.3857 113.876 64.626 113.738 64.8174 113.561C65.0134 113.379 65.1604 113.164 65.2584 112.917C65.3564 112.665 65.4054 112.387 65.4054 112.084C65.4054 111.473 65.214 110.992 64.8314 110.642C64.4534 110.292 63.877 110.117 63.1024 110.117H61.5484V114.121H63.1024ZM63.1024 108.948C63.7464 108.948 64.3064 109.023 64.7824 109.172C65.2584 109.321 65.6527 109.534 65.9654 109.809C66.278 110.08 66.509 110.409 66.6584 110.796C66.8124 111.183 66.8894 111.613 66.8894 112.084C66.8894 112.555 66.8077 112.989 66.6444 113.386C66.481 113.778 66.2407 114.116 65.9234 114.401C65.606 114.686 65.2094 114.907 64.7334 115.066C64.262 115.22 63.7184 115.297 63.1024 115.297H61.5484V119H60.0574V108.948H63.1024ZM74.2879 117.747V119H68.5339V108.948H70.0249V117.747H74.2879ZM81.976 117.789L81.969 119H75.739V108.948H81.969V110.159H77.237V113.344H81.045V114.513H77.237V117.789H81.976ZM90.6721 110.194H87.4801V119H85.9961V110.194H82.7901V108.948H90.6721V110.194ZM98.3549 117.789L98.3479 119H92.1179V108.948H98.3479V110.159H93.6159V113.344H97.4239V114.513H93.6159V117.789H98.3549ZM108.969 113.974C108.969 114.725 108.848 115.409 108.605 116.025C108.367 116.641 108.029 117.171 107.59 117.614C107.151 118.053 106.626 118.393 106.015 118.636C105.404 118.879 104.725 119 103.978 119H100.198V108.948H103.978C104.725 108.948 105.404 109.069 106.015 109.312C106.626 109.555 107.151 109.898 107.59 110.341C108.029 110.78 108.367 111.309 108.605 111.93C108.848 112.546 108.969 113.227 108.969 113.974ZM107.443 113.974C107.443 113.377 107.361 112.842 107.198 112.371C107.035 111.895 106.801 111.494 106.498 111.167C106.199 110.836 105.835 110.584 105.406 110.411C104.981 110.238 104.505 110.152 103.978 110.152H101.696V117.796H103.978C104.505 117.796 104.981 117.71 105.406 117.537C105.835 117.364 106.199 117.115 106.498 116.788C106.801 116.457 107.035 116.055 107.198 115.584C107.361 115.113 107.443 114.576 107.443 113.974Z" fill="white"/>
<rect x="31" y="12" width="16" height="16" rx="6" fill="white"/>
<path fill-rule="evenodd" clip-rule="evenodd" d="M34.6969 19.8504L33.667 20.8983L36.9773 24.2667L44.3337 16.7814L43.3038 15.7334L36.9773 22.1708L34.6969 19.8504V19.8504Z" fill="#58A158"/>
</svg>
